<svg version="1.1" xmlns="http://www.w3.org/2000/svg" xmlns:xlink="http://www.w3.org/1999/xlink" x="0px" y="0px" viewBox="0 0 1000 1000" style="enable-background:new 0 0 1000 1000;" xml:space="preserve">
<path fill="#ededed" stroke="#ededed" stroke-width="0.09375" opacity="1.00" d=" M 519.04 711.21 C 543.69 709.33 568.66 710.26 592.91 715.29 C 623.74 722.12 653.30 737.82 673.78 762.21 C 690.92 782.35 701.22 807.42 707.02 833.02 C 713.59 861.81 715.31 891.39 717.08 920.79 C 718.57 947.16 719.08 973.59 718.70 1000.00 L 699.59 1000.00 C 699.61 979.37 698.98 958.75 698.34 938.14 C 697.04 909.32 695.77 880.40 690.97 851.91 C 686.54 825.17 677.87 798.46 661.26 776.70 C 649.02 760.83 632.39 748.35 613.66 741.18 C 588.03 731.36 560.11 730.45 532.99 731.10 C 491.46 732.83 450.09 737.69 409.08 744.39 C 389.86 747.66 370.54 750.98 351.98 757.06 C 336.98 762.04 322.41 768.96 310.29 779.24 C 295.69 791.30 284.78 807.41 277.59 824.85 C 271.06 841.23 267.47 858.63 265.10 876.05 C 260.22 910.84 260.77 946.04 261.04 981.07 C 261.52 987.37 261.40 993.70 262.05 1000.00 L 238.71 1000.00 C 239.03 979.97 240.26 959.97 240.80 939.95 C 242.27 899.26 243.27 857.66 256.63 818.77 C 262.64 801.35 271.11 784.41 283.84 770.90 C 294.73 759.28 308.66 750.79 323.56 745.35 C 343.40 738.07 364.02 733.20 384.67 728.85 C 429.01 720.05 473.98 714.65 519.04 711.21 Z" />
<path fill="#000000" stroke="#000000" stroke-width="0.09375" opacity="1.00" d=" M 409.08 744.39 C 450.09 737.69 491.46 732.83 532.99 731.10 C 560.11 730.45 588.03 731.36 613.66 741.18 C 632.39 748.35 649.02 760.83 661.26 776.70 C 677.87 798.46 686.54 825.17 690.97 851.91 C 695.77 880.40 697.04 909.32 698.34 938.14 C 698.98 958.75 699.61 979.37 699.59 1000.00 L 634.80 1000.00 C 634.48 969.36 635.66 938.37 629.50 908.17 C 625.04 887.61 616.32 866.89 599.94 853.00 C 596.67 850.09 590.61 851.61 589.63 856.04 C 588.70 859.92 591.60 863.28 593.83 866.13 C 601.86 875.57 607.89 886.62 611.80 898.37 C 617.62 915.31 619.15 933.31 620.24 951.08 C 620.92 967.37 621.46 983.68 621.35 1000.00 L 374.68 1000.00 C 374.64 984.00 374.00 968.01 374.17 952.01 C 374.23 933.09 374.37 913.67 380.87 895.65 C 384.03 886.92 388.59 878.68 394.44 871.46 C 396.80 868.37 399.62 865.51 401.14 861.88 C 402.38 858.92 400.67 855.13 397.63 854.14 C 395.30 853.13 392.69 854.21 390.96 855.86 C 376.87 869.12 367.59 887.12 363.90 906.04 C 361.26 919.52 360.62 933.30 360.43 947.01 C 360.31 964.67 360.61 982.35 361.36 1000.00 L 262.05 1000.00 C 261.40 993.70 261.52 987.37 261.04 981.07 C 260.77 946.04 260.22 910.84 265.10 876.05 C 267.47 858.63 271.06 841.23 277.59 824.85 C 284.78 807.41 295.69 791.30 310.29 779.24 C 322.41 768.96 336.98 762.04 351.98 757.06 C 370.54 750.98 389.86 747.66 409.08 744.39 Z" />
<path fill="#ededed" stroke="#ededed" stroke-width="0.09375" opacity="1.00" d=" M 589.63 856.04 C 590.61 851.61 596.67 850.09 599.94 853.00 C 616.32 866.89 625.04 887.61 629.50 908.17 C 635.66 938.37 634.48 969.36 634.80 1000.00 L 621.35 1000.00 C 621.46 983.68 620.92 967.37 620.24 951.08 C 619.15 933.31 617.62 915.31 611.80 898.37 C 607.89 886.62 601.86 875.57 593.83 866.13 C 591.60 863.28 588.70 859.92 589.63 856.04 Z" />
<path fill="#ededed" stroke="#ededed" stroke-width="0.09375" opacity="1.00" d=" M 390.96 855.86 C 392.69 854.21 395.30 853.13 397.63 854.14 C 400.67 855.13 402.38 858.92 401.14 861.88 C 399.62 865.51 396.80 868.37 394.44 871.46 C 388.59 878.68 384.03 886.92 380.87 895.65 C 374.37 913.67 374.23 933.09 374.17 952.01 C 374.00 968.01 374.64 984.00 374.68 1000.00 L 361.36 1000.00 C 360.61 982.35 360.31 964.67 360.43 947.01 C 360.62 933.30 361.26 919.52 363.90 906.04 C 367.59 887.12 376.87 869.12 390.96 855.86 Z" />
</svg>
