<svg version="1.1" xmlns="http://www.w3.org/2000/svg" xmlns:xlink="http://www.w3.org/1999/xlink" x="0px" y="0px" viewBox="0 0 1000 1000" style="enable-background:new 0 0 1000 1000;" xml:space="preserve">
<style type="text/css">
	.st0{fill:#00A900;}
	.st1{fill:#18E718;}
	.st2{fill:#000000;}
</style>
<path class="st2" d="M507.3,35.4c3.3-1.5,7.6-0.4,9.6,2.6c1.8,2.7,3.1,5.7,4.6,8.6c19.5,38.8,39,77.6,58.6,116.3c2.3,5.5,7.7,11.4,4.4,17.7
	c-22,43.9-44.2,87.8-66.3,131.7c-1.4,3.2-4.6,5.8-8.2,5.5c-3.3-0.1-6-2.6-7.3-5.5c-22-43.7-44-87.4-66-131.1c-1.7-3-1.8-6.6-0.2-9.7
	c21.7-43.2,43.6-86.4,65.2-129.7C503.1,39.4,504.5,36.5,507.3,35.4"/>
<path class="st0" d="M507.4,65c2.3,0,2.2,2.9,2.9,4.5c7.1,30.2,14.5,60.3,21.5,90.6c1.1,2.7-1.3,4.4-3.7,4.5
	c-21,2.7-42.1,5.1-63.2,7.5c-2.2,0.1-4.6,0.5-6.8-0.2c-1.5-0.5-2.2-2.3-1.9-3.8c0.5-4.7,3-8.7,5-12.9c14.5-28.8,29-57.6,43.5-86.4
	C505.5,67.5,506.4,66.2,507.4,65z"/>
<path class="st0" d="M538.5,170.4c1.9-0.5,3.8,0.1,5.6,0.5c5.5,1.4,11.1,3,16.6,4.4c2.2,0.6,4.6,1.1,6.3,2.7c-0.2,5.1-3,9.6-5,14.3
	c-9.7,19.5-19.6,38.9-29.4,58.4c-5.2,10-9.9,20.2-15.3,30c0.9-8.5,2.8-16.8,4.2-25.2c4.7-25.9,9.4-51.9,14-77.9
	C536.3,175.1,536.7,172.3,538.5,170.4z"/>
<path class="st1" d="M514.9,67.3c2.2,2.9,3.7,6.2,5.3,9.4c15.1,30,30.2,59.9,45.3,89.9c0.6,1.4,2.2,4.2-0.1,5
	c-6.8-1.1-13.3-3.5-19.9-5.1c-3.8-0.9-8.1-2.7-8.9-6.9c-6.2-25.2-12.1-50.5-18.2-75.8C517.2,78.3,515.3,72.9,514.9,67.3z"/>
<path class="st1" d="M464,176.9c21-2.4,42-5.2,63.1-7.4c4.6-0.9,4.7,4.4,4,7.5c-3.9,23.4-8.4,46.6-12.5,70c-2.9,15-5,30.2-8.5,45.1
	c-2.9-2.8-4.3-6.6-6.1-10.1c-15.5-30.8-31-61.6-46.5-92.4c-1.3-2.9-3.3-6.1-2-9.3C457.3,177.5,461,177.4,464,176.9z"/>
</svg>
