<svg version="1.1" xmlns="http://www.w3.org/2000/svg" xmlns:xlink="http://www.w3.org/1999/xlink" x="0px" y="0px" viewBox="0 0 1000 1000" style="enable-background:new 0 0 1000 1000;" xml:space="preserve">
<style type="text/css">
	.st0{fill:%%ST0%%;}
	.st1{fill:%%ST1%%;}
	.st2{fill:%%ST2%%;}
</style>
<path class="st0" d="M491.4,466.4c21.1-0.7,42.4,1.4,62.9,6.5c21.1,5.5,41.2,14.6,59.8,25.9c10.3,6.4,19.9,13.9,28.3,22.7
	c12,11.8,22.1,25.8,27.2,42c6.5,17.8,6.9,37.7,2,56c-4.2,15.5-14.5,29.4-28.5,37.5c-11.2,6.4-24.7,7.5-37.2,5.1
	c-16.4-3.2-32.4-7.9-48.9-10.5c-20.1-2.5-40.6-0.2-60.2,4.6c-20.4,4.7-39.9,12.9-60.7,15.5c-17.4,2.6-35.7,1.3-52-5.7
	c-17.5-7.3-31.4-22.1-38.8-39.4c-6.8-16.5-7.9-35-4.4-52.4c3.6-16.3,11.1-31.7,21.1-45c9.4-12.4,20.4-23.8,33.3-32.6
	C423.5,477.1,457.5,467.6,491.4,466.4"/>
<path class="st1" d="M481.5,479.8c20-1.9,40.3-1.9,60.1,1.9c18.8,3.5,36.9,10.1,53.8,19c13.9,7.4,27.1,16.5,38.3,27.6
	c11.4,11.2,20.5,24.9,25.8,40c5.4,16.4,5.8,34.9-1.2,50.9c-3.9,8.5-9.4,16.7-17.7,21.4c-10,5.8-21.9,6.8-33.2,5.6
	c-19.8-2-38.6-9-58.4-11.1c-22.2-2.7-45-1.2-66.4,5.2c-21.1,6.1-41.3,16-63.5,17.2c-14.3,1.1-29.3-1.9-40.9-10.6
	c-7.7-5.6-14.1-13.2-18.7-21.6c-6.7-13.9-8.5-29.9-6.3-45.2c3-18.3,11.4-35.5,23.3-49.7c10.1-12.1,22.9-21.6,36.4-29.7
	C433.6,488.3,457.6,482.1,481.5,479.8"/>
<path class="st2" d="M431.4,519.7c6.3-2.3,13.7-1.1,18.9,3c5.3,4,8,10.8,8,17.3c0,23,0.1,46,0,68.9c0.1,7.1-3.2,14.3-9.2,18.2
	c-6.9,4.7-16.7,4.3-23.2-0.9c-5.3-4-7.9-10.7-8-17.2c0-23,0-46,0-69C417.7,531.2,423,522.5,431.4,519.7z"/>
<path class="st2" d="M596.4,536.6c6.4-2.4,14-0.6,18.7,4.2c3.8,3.7,5.5,9,5.5,14.1c0,16,0,32,0,48.1c0,5.1-1.7,10.4-5.5,14.1
	c-4.7,4.9-12.4,6.6-18.7,4.2c-7.2-2.5-12-9.8-12-17.3c-0.1-16.7-0.1-33.4,0-50.1C584.4,546.4,589.2,539.1,596.4,536.6z"/>
</svg>
