<svg version="1.1" xmlns="http://www.w3.org/2000/svg" xmlns:xlink="http://www.w3.org/1999/xlink" x="0px" y="0px" viewBox="0 0 1000 1000" style="enable-background:new 0 0 1000 1000;" xml:space="preserve">
<style type="text/css">
	.st0{fill:#FFD400;}
	.st1{fill:#000000;}
</style>
<path class="st1" d="M433.1,405.1c40.4-21.4,89.3-26.2,132.8-11.9c16.2,5.1,31.9,12.3,45.7,22.1c14.5,10.1,26.3,23.5,35.9,38.3
	c7.9,12.5,14.5,25.9,18.7,40.1c5.9,18.8,9.1,38.5,9.5,58.3c0.6,26.3-2.6,53-11.8,77.8c-6,14.9-13.1,29.5-23,42.2
	c-9,11.5-19.4,22.2-31.8,30.1c-2.5,1.9-6.4,1.9-8.3-0.8c-2-2.5-0.9-6.2,1.6-7.8c6.1-4.2,12-8.6,17.1-14c2.4-2.6,5.3-5.1,6.3-8.7
	c-11.5,2.8-22.9,6.1-34.7,7.8c-29.1,4.6-58.7,6.6-88.1,5.1c-16.8-0.3-33.6-2.2-50.1-5.1c-21.6-3.8-43.4-7.9-64-15.6
	c-1.5-0.5-2.9-0.7-4.5-0.8c0.4,4,3.1,7.1,5.3,10.2c7.5,10,17.3,18.1,27.4,25.4c2.1,1.6,5,3.2,4.9,6.2c0.5,3.6-3.6,6.5-6.9,5.3
	c-3.7-1.5-6.9-4-10.2-6.2c-21.9-16-38.9-38.2-50.3-62.7c-9.4-20.5-13.6-43.1-15-65.5c-1.5-33.2,3.7-67.4,19-97.2
	C374.7,446.2,401.9,421.2,433.1,405.1 M506.5,396.8c-37.4,1.8-73.8,17-102,41.6c-4.4,4-8.9,8.1-12,13.2c-2.3,3.9-4.1,8.8-2.5,13.3
	c1.2,4.1,5.2,6.7,9.1,7.9c46.2,11.4,94,15.7,141.5,16.6c19.8,0.7,39.6-0.2,59.4-1.6c11-0.8,22-1.4,32.8-3.2c3.7-0.7,8-2.1,9.5-6
	c1.6-4-0.1-8.3-1.9-12c-6.9-13.6-16.4-26-28.1-35.9c-15.2-13.1-33.8-21.7-53-27.4C542.3,398.2,524.4,396,506.5,396.8"/>
<path class="st0" d="M374.4,483.6c4.1-1.2,8.4-0.3,12.6,0.4c11.9,2.4,23.8,5.2,35.8,7.3c17.7,3.1,35.5,5.7,53.3,7.7
	c29.9,2.6,59.9,4.7,89.9,3.4c21.6-0.1,43.1-1.6,64.5-4.6c5.8-0.5,11.6-2.1,17.5-2.1c4.7,0.1,7.4,4.7,8.7,8.7
	c3.1,9.5,4,19.6,5.4,29.5c2.9,21.5,2.4,43.5-1.2,64.9c-3.2,15.1-7.4,30.3-15.7,43.4c-4.6,7.5-13.2,10.9-21.2,13.7
	c-15.4,4.9-31.3,7.9-47.1,10.5c-24.1,3.8-48.5,3.8-72.9,3.3c-24.2-0.8-48.3-4.2-72-9.4c-16.5-3.6-32.8-8.9-48-16.2
	c-7.7-3.8-15.2-8.8-20.1-16c-5.1-7.5-7.5-16.5-9.3-25.2c-3.9-19.7-4.3-40-2.3-60c1.6-15.8,5.3-31.5,11.2-46.3
	C365.8,491.4,368.6,485.5,374.4,483.6"/>
<path class="st1" d="M439.9,517.7c0.8-3.2,4.8-5.2,7.7-3.4c2.4,1.2,3.2,4.2,2.6,6.7c-0.8,4.8-1.8,9.6-2.6,14.4c3.3,0.8,6.5,1.8,9.8,2.8
	c1-5.4,1.5-10.9,2.8-16.2c0.6-3,4.1-5.2,6.9-3.9c2.3,0.8,3.8,3.4,3.5,5.8c-0.8,6.6-2.2,13.2-3,19.8c4.5,4.2,7.4,10.1,7.3,16.2
	c0.2,8.7-5.1,17.1-13,20.9c6.9,5.6,10.5,15.6,7.1,24.1c-2.2,6.5-8.4,10.6-14.9,12c-1,5.4-1.7,10.9-2.9,16.3c-0.4,2.4-2.3,4.7-5,4.7
	c-3.3,0.5-6-2.8-5.6-5.9c0.6-4.8,1.6-9.6,2.4-14.4c-3.5-0.2-6.9-0.5-10.4-0.9c-1.2,5.1-1.5,10.4-3.3,15.3c-2,4.2-8.9,3.3-9.7-1.3
	c-0.4-5.2,1.6-10.3,2.2-15.4c-3.6-0.8-7.9-0.7-10.9-3.1c-3-2.6-1.5-8.1,2.4-8.9c3.5-0.5,7,0.9,10.5,1.3c3.7-20.3,7.5-40.7,11.3-61
	c-3.5-0.9-7.4-1-10.6-2.9c-3.2-2.1-2.7-7.5,0.8-8.9c3.9-1.4,7.9,0.7,11.8,1.1C438,527.9,438.6,522.7,439.9,517.7 M445.5,546.2
	c-1.5,8.3-3.2,16.6-4.5,24.9c5.2,0.7,10.8,1.6,15.9-0.1c7.1-2.8,9.4-13.4,3.8-18.6C456.5,548.7,450.8,547.6,445.5,546.2 M438.7,583
	c-1.5,7.7-2.9,15.4-4.3,23.2c6.8,0.3,14.2,1.8,20.7-1.1c5.4-2.7,5.1-10.5,1.2-14.4C451.7,586,444.9,584.5,438.7,583z"/>
<path class="st1" d="M593.7,529.7c1.8-4,8.6-3.2,9.2,1.2c0.2,5.1-1.6,10.2-2.3,15.2c2.3,0.7,4.6,1.3,7,2c0.9-4.6,1.3-9.3,2.6-13.9
	c0.7-2.7,4.1-4.5,6.7-3.2c2.3,0.9,3.4,3.5,3,5.9c-0.7,5.5-1.8,10.8-2.7,16.3c5.5,5.1,8.4,13.2,6.4,20.6c-1.1,5.4-4.8,10.1-9.8,12.5
	c5,4.4,7.9,11.1,7,17.8c-0.7,8.1-7.5,14.5-15.1,16.3c-1,4.8-1.3,9.7-2.8,14.4c-1.4,4.2-8.1,4-9.2-0.2c-0.8-4.7,1.2-9.3,1.6-13.9
	c-2.7-0.4-5.4-0.8-8.1-1.1c-1,4.4-1.2,9-2.9,13.3c-2,4.3-9.1,3-9.3-1.8c0.1-4.5,1.4-8.8,2.1-13.2c-3.4-0.7-7.3-0.4-10-2.7
	c-2.8-2.5-1.5-7.5,2.2-8.3c3.2-0.5,6.5,0.6,9.7,0.9c3.2-17.9,6.7-35.8,9.9-53.7c-2.9-0.6-6-0.8-8.5-2.3c-3-1.8-2.8-6.8,0.4-8.4
	c3.2-1.5,6.8,0.1,10,0.6C591.7,539.3,592,534.3,593.7,529.7 M598.8,556.3c-1.3,7.1-2.8,14.1-3.8,21.2c4.7,0.6,9.7,1.3,14.2-0.4
	c5.1-2.1,5.8-9.2,3.3-13.5C609.6,558.8,603.7,557.8,598.8,556.3 M592.8,588.3c-1.3,7-2.7,14-3.9,21.1c5.4,0.8,11.2,1.9,16.6,0.1
	c6-2.2,6.5-11.1,1.9-14.9C603.3,591.1,597.9,589.9,592.8,588.3z"/>
</svg>
