<svg version="1.1" xmlns="http://www.w3.org/2000/svg" xmlns:xlink="http://www.w3.org/1999/xlink" x="0px" y="0px" viewBox="0 0 1000 1000" style="enable-background:new 0 0 1000 1000;" xml:space="preserve">
<style type="text/css">
	.st0{fill:#FFFFFF;}
	.st1{fill:#000000;}
</style>
<path class="st1" d="M468,618c10.3-11.1,26.2-15.5,41-14.4c16.5,1.3,31.6,8.5,46.6,15c13,5.8,27.1,10.2,41.5,9.8c8.2-0.5,16.6-1.4,24.5-3.9
	c3.1-1,7.2-2.4,9.8,0.5c2.8,2.8,1.1,7.7-2.5,8.8c-12.3,4.4-25.6,6-38.7,5.7c-5.2,12.8-10.3,25.5-15.5,38.3
	c5.3,2.2,10.7,4.9,14.6,9.2c2,2.2,2.3,6.1-0.1,8.2c-2.1,2.2-5.8,1.8-7.7-0.4c-5.4-5.4-13-7.7-20.4-8.8c-20.8-3.5-41.6,3.3-62.5,0.9
	c-13.1-1.5-26.7-6.7-34.5-17.8C452.9,653.9,454.9,631.2,468,618"/>
<path class="st1" d="M443.4,612.2c3.1-2.3,8,0,8.3,3.8c0.5,2.9-1.9,5-3.4,7.2c-4.2,5.8-5.4,13.2-6,20.2c-0.2,4.1-5.5,6.9-8.8,4
	c-3.2-2.4-2.1-6.8-1.8-10.2C433,628.2,436.1,618.3,443.4,612.2z"/>
<path class="st0" d="M489.3,617.1c8.9-3.1,18.5-3.2,27.6-1.1c21.4,4.9,40,17.9,61.8,21.8c-1.9,4.6-3.7,9.1-5.6,13.7
	c-34.3-5.8-68.6-11.4-102.9-17.2C473.8,626.2,481,619.9,489.3,617.1z"/>
<path class="st0" d="M467.8,645.3c33.7,5.4,67.3,11.2,101,16.7c-1.7,4.3-3.4,8.6-5.2,13c-13.5-2.3-27.2-1-40.7,0.4
	c-13.8,1.3-28.6,1.8-41.1-5.1C472.9,665.4,467.6,655.3,467.8,645.3z"/>
</svg>
