<svg version="1.1" xmlns="http://www.w3.org/2000/svg" xmlns:xlink="http://www.w3.org/1999/xlink" x="0px" y="0px" viewBox="0 0 1000 1000" style="enable-background:new 0 0 1000 1000;" xml:space="preserve">
<style type="text/css">
	.st0{fill:#FFD400;}
	.st1{fill:#2C2F2F;}
	.st2{fill:#FF002C;}
	.st3{fill:#000000;}
</style>
<path class="st3" d="M395.4,463.7c4.8-1,9.8-0.6,14.7-0.6c29.7,1,59.4,3.1,88.8,7.5c39.2,6.1,78.5,12.3,116.7,23c15.4,3.8,30.7,8.4,45.8,13.2
	c3.5,1.2,8.1,2.5,9.1,6.6c1.8,7.7,1.4,15.7,1.7,23.6c0.4,16.4-3.4,33.5-13.4,46.7c-7.9,11-19.8,19.8-33.6,21.4
	c-13.4,1.9-26.6-3.3-37.5-10.7c-9.9-6.4-20-14.8-32.5-14.3c-15.9,0.7-30.5,7.6-45.6,11.5c-23.8,6.8-49.6,6.9-73.2-0.8
	c-15.2-5-29.6-13.6-39.9-26.1c-12-14.2-18.6-33-17.8-51.7c0.8-14,4.1-27.9,9.6-40.8C389.8,468.9,391.4,464.7,395.4,463.7"/>
<path class="st3" d="M501.4,613.5c11.9-3,24,1.8,33.9,8.1c7.8,5.7,18,8.4,27.5,5.9c9.7-2.2,19.9-5.2,29.8-2.1c8.1,2.4,14.1,9.6,16.3,17.6
	c3.2,10.7,0.8,22.3-3.7,32.3c-8.4,18.3-24.4,32.9-43.3,39.8c-12.5,4.7-26.7,5.8-39.5,1.5c-29.2-10.2-49.6-41.6-46.9-72.4
	C476.8,629.9,487.4,616.9,501.4,613.5"/>
<path class="st0" d="M400.2,474c1.5-0.6,3.2-0.5,4.8-0.6c46.6,0.5,93,6.5,138.8,15c37.9,6.8,75.3,16.2,112,27.7
	c1.8,0.5,3.7,1.7,3.9,3.8c3.2,17.9,2.5,37.6-7,53.6c-6.6,10.8-17.4,20.3-30.6,21.1c-11.7,1-22.4-4.7-31.7-11.1
	c-10.2-7.1-21.5-14.2-34.4-14.2c-16.2,0.2-31.2,6.8-46.6,11.1c-21,6.5-43.9,7.4-65.2,1.5c-14.3-4-28-11.1-38.1-22.2
	c-10.1-11.1-16.4-25.8-17-40.8c-0.5-14.5,3.1-28.9,8.9-42.1C398.6,475.9,399.1,474.7,400.2,474"/>
<path class="st3" d="M468.8,495.7c7.1-5.2,16.5-8,25.2-5.6c10.4,2.8,17.6,12.5,19.7,22.7c-10.1,3.8-20.2,7.5-30.3,11.4c-2.8,0.8-3.7,4.8-1.4,6.6
	c7,6.7,14.3,13.1,21.4,19.7c-5.3,5.9-12.4,10.6-20.3,12c-7.6,1.5-15.9-0.9-21.6-6.1c-5.4-4.8-8.7-11.7-9.9-18.8
	C449.1,522.1,456,505.2,468.8,495.7z"/>
<path class="st3" d="M605.9,527.9c7-7.3,18-11.7,27.9-8.7c7.7,2.2,13.3,8.9,15.7,16.3c-8.5,3.9-17.1,7.7-25.7,11.5c-1.4,0.7-3.3,1.4-3.6,3.2
	c-0.6,2.1,1.1,3.8,2.7,4.8c6,4.4,12.1,8.8,18.1,13.2c-6.1,6.6-15,11.3-24.2,10.5c-8.5-0.6-16.1-6.5-19.3-14.3
	C592.4,552.1,596.8,537.3,605.9,527.9z"/>
<path class="st1" d="M489.4,639.4c3-9.3,13.6-16,23.2-13c11.6,3.3,21,11.8,33,14c11.9,2.3,23.6-2.3,35.4-2.9c4.2-0.1,9,0.2,12.1,3.5
	c3.7,4,4.4,9.8,4.2,15.1c-0.1,8.6-4,16.7-8.8,23.7c-13.8-9.6-29.4-16.9-46.2-19.1c-17.5-2.2-35.2,0.8-52,5.5
	C487.7,657.5,486.3,648.1,489.4,639.4z"/>
<path class="st2" d="M519.2,669.2c14.9-1.2,30.6,0.5,43.9,7.6c5.1,3.2,10.7,7,12.4,13.1c-0.5,4-4.1,6.4-7.2,8.4
	c-12.2,7.4-27.4,11.1-41.3,6.7c-12.3-4-22.5-13-29.5-23.6c-2.2-2.8-0.5-6.9,2.6-8.1C506.1,670.5,512.8,669.9,519.2,669.2z"/>
</svg>
