<svg version="1.1" xmlns="http://www.w3.org/2000/svg" xmlns:xlink="http://www.w3.org/1999/xlink" x="0px" y="0px" viewBox="0 0 1000 1000" style="enable-background:new 0 0 1000 1000;" xml:space="preserve">
<style type="text/css">
	.st0{fill:%%ST0%%;}
	.st1{fill:%%ST1%%;}
</style>
<path class="st1" d="M778.8,374c-0.2-13.1-1.4-26.4-5.9-38.9c-2.7-7.2-9.7-13.7-17.9-12.7c-8.8,1.7-17.6,3.8-26.3,6.1
	c-30.4,7.8-59,21.1-86.8,35.4c-10.4,5.3-21.1,10.9-33,11.7c-12.4,1-24.1-3.8-35.9-6.8c-12.9-3.3-26-5.7-39.2-7.2
	c-21.9-2.6-44.1-1.6-66,0.7c-13.9,1.5-28,1.4-41.7-1.6c-19.8-4.9-36.9-16.3-53.8-27.2c-21.7-14-44.4-26.5-68.1-36.8
	c-11.2-4.8-22.7-9.6-34.8-11.9c-4.4-0.7-8.9-1.3-13.3-0.5c-5.9,0.5-10.5,5-12.4,10.4c-4.7,13.3-5.3,27.5-7.3,41.4
	c-1.6,11.1-2.9,22.2-4,33.4c-2.7,32.1-5.2,64.3-5.4,96.5c-0.4,25.6,1.5,51.2,5.4,76.5c5.1,32.9,13.8,65.8,31.3,94.4
	c18.1,29.9,42.6,56,71.8,75.2c28.6,18.7,60.9,31.1,94.2,38.1c25.6,5.4,51.8,6.6,77.9,6.6c36.5-0.3,73.5-5.4,107.3-19.7
	c40.1-17.8,73.8-48.1,99.5-83.4c17.6-24.9,30.7-52.6,40.6-81.3c13.1-38.5,19.8-79,23.1-119.5C780.5,426.7,780,400.3,778.8,374z"/>
<path class="st0" d="M751.1,358c-0.7-3.4-1.2-7.7-4.6-9.6c-4.8-2.5-10.4-1.5-15.5-0.8c-15.1,2.6-29.7,7.4-44,12.6
	c-16.5,6.2-32.7,13.3-48.2,21.6c-5,2.9-10.5,5.4-14,10.3c5.9,3.9,12.4,6.8,18.2,10.7c3.3,2.2,8.2,4.5,7.5,9.3
	c-0.5,4.6-6.6,6.2-10,3.4c-22.9-15.3-49.1-25-75.8-31.2c-39.5-8.9-80.8-10.3-120.8-3.2c-20.1,3.6-39.9,9.5-58.1,18.9
	c-2.9,1.7-7.4,1-8.8-2.3c-1.6-2.8-0.1-6.4,2.5-7.9c6.7-3.9,14-6.5,21.1-9.6c-3-5.5-8.3-9.2-13.1-12.9c-12.3-9-25.5-16.7-38.8-24.2
	c-24-13.2-49.2-24.6-75.4-32.8c-2.8-0.9-6.5-1-8.4,1.7c-2.1,3-2.8,6.7-3.8,10.2c-4,17.4-6,35.1-7.8,52.8c-6,52.1-9.8,105-2.8,157.3
	c4.8,37.2,14.9,74.3,34.7,106.4c16.8,26.8,39.2,50.3,66.1,66.9c14.9,9,30.9,16.1,47.3,21.8c39.8,13.3,82.4,17.8,124.1,13.8
	c23.9-2.3,47.7-6.6,70.3-14.9c29.8-11,57.8-28,79.7-51.2c21.3-24,39.6-50.9,53-80c14.5-31.9,23.6-66.2,27.5-101
	C759,448.8,756.5,403.1,751.1,358z"/>
</svg>
