<svg version="1.1" xmlns="http://www.w3.org/2000/svg" xmlns:xlink="http://www.w3.org/1999/xlink" x="0px" y="0px" viewBox="0 0 1000 1000" style="enable-background:new 0 0 1000 1000;" xml:space="preserve">
<style type="text/css">
	.st0{fill:#464B4B;}
	.st1{fill:#FF002C;}
	.st2{fill:#000000;}
</style>
<path class="st2" d="M474.3,615.2c11.8-1,22.8,4.6,32.3,11c6.8,3.9,15.1,5.8,22.9,4.1c9-1.9,18.1-4.9,27.4-3.2c6.9,1,13.3,5.2,16.8,11.2
	c5.6,9.1,5.7,20.5,2.8,30.5c-4.6,16.1-15.5,30.1-29.1,39.7c-12.4,8.5-27.3,14-42.5,13.2c-14.2-0.4-27.6-7.3-37.9-16.9
	c-12.9-11.8-21.3-28.3-23.5-45.6c-0.5-7.2-0.5-14.7,2.1-21.5C449.9,625.5,461.5,616.3,474.3,615.2"/>
<path class="st0" d="M457.5,641.6c3.1-9,13.3-15.6,22.8-12.8c11.8,3.2,21.4,12,33.6,14.1c11.8,2.1,23.4-2.4,35.1-3
	c4.3-0.1,9.3,0.2,12.4,3.8c3.6,4.2,4.2,10,4,15.3c-0.2,8.5-4.1,16.3-8.8,23.1c-14.6-10.2-31.4-17.8-49.3-19.4
	c-16.5-1.4-33.1,1.3-48.9,6C455.7,660,454.3,650.4,457.5,641.6z"/>
<path class="st1" d="M491.4,671.4c13.9-0.6,28.5,1.4,40.7,8.4c4.7,3.2,10.3,7,11.4,12.9c-1,4.7-5.7,7.1-9.4,9.3
	c-11.6,6.3-25.7,9.5-38.6,5.5c-12.6-3.9-23.1-13.1-30.1-24.1c-2.1-3,0.1-6.9,3.2-8C475.8,672.5,483.7,672,491.4,671.4z"/>
</svg>
