<svg version="1.1" xmlns="http://www.w3.org/2000/svg" xmlns:xlink="http://www.w3.org/1999/xlink" x="0px" y="0px" viewBox="0 0 1000 1000" style="enable-background:new 0 0 1000 1000;" xml:space="preserve">
<style type="text/css">
	.st0{fill:#FFD400;}
	.st1{fill:#EDEDED;}
	.st2{fill:#000000;}
</style>
<path class="st2" d="M475.8,45.9c0.5-5.7,8.2-8.5,12.7-5.3c27.7,20.4,48.7,51.6,52.2,86.4c4.1-5.2,7.1-11.3,8.1-17.9c0.7-3.5,0.2-7.7,3.2-10.2
	c3.1-3,8.5-2.1,10.8,1.4c15.7,23,24.3,50.8,23.6,78.6c-0.5,17.2-4.8,34.7-14.1,49.3c-8.7,13.8-21.9,24.6-36.9,31
	c-19.7,8.9-42.2,10.9-63.2,6.6c-14.8-3-28.6-10.2-39.7-20.3c-9-8.3-15.6-19.1-18.8-30.9c-3.2-12.5-1.3-25.6,2.4-37.7
	c5.1-16,12.8-31.3,14.8-48.2c0.5-6.9,0.5-14-2-20.5c-1.6-3.4-0.8-7.8,2-10.4c3-2.5,7.2-2.2,10.8-1.2c11.1,3.3,21,10,28.8,18.5
	c10.9-16.5,16.8-38.1,9.8-57.3C479.1,53.7,475.6,50.3,475.8,45.9"/>
<path class="st0" d="M496.9,66.9c16.2,16.7,27.4,38.6,29.9,61.8c0.5,5.1,0.8,10.3,1,15.4c0.6,4.8,6.9,7.3,10.7,4.4
	c9-6.7,16.4-15.6,21.3-25.6c9.8,19.7,14.2,42.2,11.9,64.2c-1.9,15.4-7.3,30.9-18.1,42.5c-10,11.2-23.9,18.1-38.3,21.9
	c-17.4,4.3-36.1,3.5-52.8-3.1c-15.2-6.4-29-18.2-34.3-34.2c-4.6-13.1-1-27.1,3.5-39.7c7.4-19.6,16-40.2,12.9-61.7
	c8.1,4,14.9,10.3,20.2,17.5c2.5,4.1,8.8,4,11.7,0.3C490.9,112.9,499.5,89.8,496.9,66.9"/>
<path class="st2" d="M485.6,145.4c-1.4-3.1,2.7-6.5,5.6-4.6c13.4,8.3,23.7,21.7,27.3,37.1c2.4-2.9,3.3-6.4,4.4-9.8c1.5-2.5,5.2-2.1,6.8,0.2
	c7.4,9.5,12.2,21.5,11.8,33.7c-0.2,11.3-4.6,22.8-13,30.6c-10.5,9.6-25.5,13.7-39.5,11.8c-9.6-1.1-19.4-4.1-26.6-10.8
	c-8-6.8-10.8-18.3-8.2-28.3c1.9-9.7,8.3-18.2,8.1-28.3c0.2-2.8-1.3-5.3-1.5-8c0.2-2.5,2.9-3.8,5.2-3.4c6.2,0.5,11.5,4,16.4,7.5
	C487.5,164.9,488.8,154.6,485.6,145.4"/>
<path class="st1" d="M495.5,154.2c6.5,6.3,12.2,14,14,23c0.8,3.3,0.6,6.8,1.5,10c0.5,2.4,3.6,3.8,5.7,2.6c4.6-2.3,8-6.4,10.7-10.6
	c4.2,7.6,6.6,16.2,5.9,24.9c-0.6,8.7-4.2,17.5-10.9,23.3c-8.7,7.7-21,10.4-32.4,9c-8.3-0.9-16.9-3.3-23-9.3
	c-5.9-5.4-6.7-14.5-4.4-21.8c2.9-10,8.8-19.4,7.9-30.1c3.6,1.8,6.8,4.2,9.6,7c1.8,1.8,4.7,1.1,6.2-0.8
	C492.5,173.8,495.8,163.9,495.5,154.2z"/>
</svg>
