<svg version="1.1" xmlns="http://www.w3.org/2000/svg" xmlns:xlink="http://www.w3.org/1999/xlink" x="0px" y="0px" viewBox="0 0 1000 1000" style="enable-background:new 0 0 1000 1000;" xml:space="preserve">
<style type="text/css">
	.st0{fill:#FF002C;}
	.st1{fill:#FFFFFF;}
	.st2{fill:#000000;}
</style>
<path class="st2" d="M395.4,463.7c7.8-1.4,15.7-0.4,23.6-0.3c26.7,1.2,53.5,3.2,80,7.2c39.1,6.1,78.4,12.3,116.6,23c14.1,3.5,28,7.6,41.9,12
	c3.4,1.2,7,2,10.1,3.9c2.7,1.7,3.3,5.1,3.6,8c0.8,7.8,0.9,15.7,0.9,23.5c-0.3,15.1-4.2,30.6-13.4,42.7
	c-8.1,11.2-20.4,20.2-34.6,21.5c-13.3,1.5-26.3-3.8-37.1-11.2c-9.9-6.6-20.4-14.8-33-13.9c-16.7,1.2-32,8.6-48.1,12.4
	c-22.5,5.8-46.7,5.6-68.9-1.5c-15.5-5-30.2-13.7-40.7-26.3c-12.5-14.8-19.1-34.4-17.6-53.7c1.1-13.6,4.4-27.1,9.8-39.6
	C390.1,468.4,391.7,464.5,395.4,463.7"/>
<path class="st2" d="M472.9,622.8c12.1-5.3,26-5.6,38.8-2.4c21.6,5.1,40.5,18.5,62.6,21.9c10.5,1.9,21.3,0.6,31.8-1.4c4-0.7,7.8-2.7,12-2.8
	c3.4-0.2,6.3,3.6,5,6.8c-0.8,2.9-3.9,3.9-6.4,4.7c-11.6,3.5-23.8,5.1-35.9,4.7c-5.2,12.8-10.4,25.5-15.5,38.3
	c5.5,2.4,11.4,5.1,15.1,10c2.7,3.3,0.3,8.9-4.1,8.9c-2.4,0.3-4-1.7-5.7-3.1c-5.9-5.2-13.8-7-21.4-8c-22.2-3-44.7,5-66.8,0.1
	c-11.1-2.2-22-7.9-28.4-17.6c-7.8-11.3-8.7-26.7-3-39C455.3,634.5,463.4,627.1,472.9,622.8"/>
<path class="st2" d="M435.5,626.5c3.7-1.1,7.6,2.5,6.7,6.3c-0.8,2.5-2.7,4.2-4.1,6.4c-3.6,5.6-4.8,12.3-5.4,18.9c-0.1,2.6-2,5.3-4.8,5.5
	c-3.6,0.6-6.7-2.9-6.3-6.4c0.5-9.2,3-18.5,8.4-26C431.5,629.3,433.1,627.2,435.5,626.5z"/>
<path class="st0" d="M431.5,506.6c2.1-0.8,4.4-0.7,6.6-0.4c66.3,10,132.6,19.9,198.9,29.8c3.5,0.4,7.1,2,8.7,5.4
	c2.3,4.2,0.2,10-4.1,12c-2.3,1.3-4.9,1-7.4,0.7c-66.5-10-132.9-19.9-199.4-29.9c-3.7-0.4-7.4-2.6-8.5-6.3
	C424.5,513.4,427.1,508.1,431.5,506.6z"/>
<path class="st1" d="M480.2,631.9c8.7-2.9,18.2-3,27.1-1c21.5,4.9,40.2,17.9,61.9,21.9c-1.8,4.6-3.7,9.1-5.5,13.7
	c-34.3-5.8-68.6-11.4-102.9-17.2C464.4,641.1,471.7,634.8,480.2,631.9z"/>
<path class="st1" d="M458.4,660.3c33.6,5.5,67.2,11.2,100.8,16.7c-1.3,4.4-3.4,8.6-5,13c-15-2.6-30.1-0.5-45.1,0.7
	c-12.3,1.1-25.4,0.7-36.5-5.2C463.6,680.6,458,670.5,458.4,660.3z"/>
</svg>
