<svg version="1.1" xmlns="http://www.w3.org/2000/svg" xmlns:xlink="http://www.w3.org/1999/xlink" x="0px" y="0px" viewBox="0 0 1000 1000" style="enable-background:new 0 0 1000 1000;" xml:space="preserve">
<style type="text/css">
	.st0{fill:%%ST0%%;}
	.st1{fill:%%ST1%%;}
	.st2{fill:#000000;}
</style>
<path class="st2" d="M495.4,258.6c19.4-0.5,39,0.7,58,5.2c15.8,3.8,31,10.3,44.4,19.6c16.1,11,29.1,26,39.2,42.6c8.3,14,14.9,28.9,21.2,43.9
	c14,34.1,25.6,69,36.5,104.2c6.8,22.5,13.6,45.1,19.3,67.9c4.6,19,8.7,38.3,9,57.9c0.4,18.1-3.1,36.5-11.2,52.8
	c-11.9,26.4-34.1,46.3-57.5,62.5c-30.5,21.1-65,37.4-101.7,44c-19.9,3.8-40.2,5.5-60.5,4.9c-36.7-1.6-73-9.8-107.2-23.1
	c-15-5.7-29.5-12.5-43.5-20.4c-15.6-9.1-29.8-20.6-42.5-33.5c-12.3-13-21.4-29.2-25.2-46.8c-4.3-20.1-3.7-40.8-2.1-61.2
	c2.2-26.9,6.6-53.5,10.8-80.1c2.9-18.8,6.6-37.4,11-55.9c5.6-22.9,12-45.6,21.7-67.1c11.5-26,26.3-51.2,47.3-70.6
	c19.8-18.6,44.7-31,70.6-38.3C453.3,261.4,474.4,259,495.4,258.6"/>
<path class="st0" d="M482.2,275.3c25-2,50.5-0.8,74.8,5.7c15.4,4,29.3,12.5,40.9,23.1c20.8,19.2,33.8,45.1,44.2,71
	c4.9,12.1,9.1,24.6,12.5,37.2c1.2,4.4,2.6,9.1,1.3,13.7c-0.5,2.1-2.6,4.6-5,3.3c-3.5-1.8-5.7-5.3-8.2-8.2
	c-6.7-8.6-13.7-16.8-22-23.9c-2.7-2.2-5.5-4.6-8.9-5.3c-2.7-0.2-4.8,2.6-3.8,5.1c1.3,3.4,4.5,5.4,7.1,7.7
	c7.2,5.8,13.9,12.5,18.4,20.7c7.8,14.2,11.7,30,18.3,44.7c7.9,18.5,19.8,34.9,30.2,52c13.1,21.5,21.5,45.9,24.4,70.9
	c2.5,17.7,0.3,36.2-7.1,52.5c-5.2,12.2-13,23.2-22.5,32.5c-23.3,23.9-52.9,40.5-83.2,53.8c-20.3,8.6-41.8,14.2-63.7,16.8
	c-18.9,2.1-38.1,1.7-57-0.3c-20.9-2.2-41.2-7.9-61.2-13.9c-19-6.6-38-13.7-55.8-23.3c-16-8.6-31.3-19-43.7-32.4
	c-8.3-8.9-15-19.4-18.9-31c-6.8-19-8.6-40.8-0.4-59.6c6.3-14.6,18.1-25.7,28.3-37.5c8.1-9.3,14.5-20.3,16.9-32.5
	c0.5-2.3,0.2-5.4-2.3-6.3c-2.6-0.7-4.5,1.7-5.7,3.7c-3.9,6.6-7.1,14-13.2,18.9c-3.5,2.8-9.3,4.1-12.6,0.3
	c-3.4-4.3-3.5-10.2-3.7-15.5c0.3-18,4.5-35.5,8-53.1c4.5-21.5,9.8-42.9,16.1-63.9c8.4-26.5,20.5-52.2,38.9-73.2
	c10-11.1,21.2-21.3,34.1-28.9c19.4-12.1,41.5-19.4,64.1-22.4C468.7,276.5,475.5,275.8,482.2,275.3 M515.2,450.3
	c-14.9,1.1-29.3,6.3-42,14c-28.8,17.2-51.7,42.2-77,63.9c-16.6,14.7-34.1,28.5-49.5,44.5c-8.9,9.3-17.4,19.4-22.8,31.2
	c-6.6,14.1-9.6,30.8-4.7,45.9c2.2,7.3,6.6,13.8,11,20c9.9,13.4,24.5,22.3,39,29.9c16.6,8.2,33.7,15.2,51.4,20.6
	c37.8,11.4,78.2,16.6,117.4,9.7c19.6-3.6,38.8-9.7,56.9-18.1c17.6-8.1,34.6-17.5,50.6-28.2c10.5-7.2,21-15,29.1-24.9
	c11.7-13.8,19.1-31.5,19-49.7c0.4-18.8-7.2-36.9-17.9-52.1c-19.4-26.9-44.5-48.9-70.4-69.4c-12.8-9.7-25.8-19.5-40.1-26.9
	C550,452.8,532.5,448.8,515.2,450.3z"/>
<path class="st1" d="M508.9,465c16.4-3.1,33.5-0.1,48.7,6.7c19.4,8.7,36.1,22,52.7,35c-9.9,0.2-18.8,6.3-24.5,14.2
	c-9.1,12.5-12.4,28.5-11.2,43.7c1.1,12,5.2,24.4,14,33c6.2,6.2,15.6,9.6,24.2,7.2c10.6-2.6,18.4-11.4,23.2-20.8
	c7.7-15.8,8.9-34.7,3.4-51.3c5.2,5.5,10.5,10.9,15.3,16.8c5.9,7.1,12,14.5,14.4,23.6c2.6,10.6,0.7,21.7-1.9,32.2
	c-3,11.7-8.5,23.2-17.8,31.1c-10,8.9-22.4,14.3-33.4,21.7c-11.7,8.2-17,22.3-19.6,35.8c-1.1,4.7-1.1,10.2-4.8,13.9
	c-2.4,2.4-6.4,1.4-8.2-1.2c-2.6-3.6-4.8-7.5-6.5-11.7c0.6-4,6.9-6,5-10.8c-2-4-7.6-2.9-10.7-0.8c-7.5,4.6-8.9,14.1-11.4,21.8
	c-1.7,4.9-3.9,10.6-9.1,12.6c-3.8,1.4-7.3-1.6-8.9-4.8c-4.4-8.3-3.6-18.7-9.7-26.2c-3.9-5.4-12.4-4.5-16.9-0.2
	c-6.8,6.4-9.9,15.6-12.9,24.2c-1.6,4.2-3.1,9.2-7.3,11.5c-3.4,1.7-7.1-0.5-9-3.4c-4.2-5.9-5.1-13.3-7.9-19.9
	c-2.7-6.9-6.1-14.4-13.1-17.9c-5.1-2.8-11.8-2-16.1,2c-8.3,7.3-11.8,18.1-18,27c-1.8,2.6-4.4,5.4-7.9,5.3c-3-0.3-5-2.9-6.1-5.4
	c-3.3-7.2-4.9-15-7.7-22.3c-3.4-8.7-9.5-16.2-17-21.8c-12.8-9.4-28.2-15.2-39.7-26.4c-10-9.9-16.5-25.2-11-39
	c5.2-11.9,15.3-20.6,24.5-29.4c13-12.1,26.5-23.5,39.8-35.3c-2.7,16.4-0.8,34.1,8.1,48.4c6.9,11.3,18.6,20,32,21.9
	c14.5,2.2,29.3-3.3,40.3-12.6c23.1-19.5,32.9-53.4,23.4-82.2c-4.9-15.1-16.7-28.4-32.2-32.9C487.2,472.4,497.5,466.9,508.9,465
	 M533.4,596.6c-7,2.5-12,8.5-16.8,14.1c-5.3,6.7-10.6,13.4-15.4,20.5c-3,4.6-6.1,10-4.8,15.7c1,4.7,6,7.5,10.6,7.4
	c7.9,0.6,15.2-3.2,23.1-3c5.8,0.2,10.4,4.4,15.9,5.9c6.5,1.2,12-5,12.2-11.1c0.4-8.8-2.7-17.2-4.7-25.6c-1.8-6.3-2.9-12.9-6.2-18.7
	C544.5,597.2,538.5,594.7,533.4,596.6z"/>
</svg>
