<svg version="1.1" xmlns="http://www.w3.org/2000/svg" xmlns:xlink="http://www.w3.org/1999/xlink" x="0px" y="0px" viewBox="0 0 1000 1000" style="enable-background:new 0 0 1000 1000;" xml:space="preserve">
<style type="text/css">
	.st0{fill:#EDEDED;}
	.st1{fill:#E94000;}
	.st2{fill:#000000;}
</style>
<path class="st2" d="M651,495.1c2.9-1.1,6.2-2.5,9.3-1.4c4.3,1.2,7.2,6,6.1,10.3c-0.8,3.6-3.9,6-7.2,7.2c-48.1,18.5-96.3,37-144.4,55.5
		c-2.2,16-10.2,31.1-22.6,41.5c-12.8,10.8-30.4,16.4-47,13.2c-13.5-2.4-25.9-10.5-33.6-21.8c-9.9-14.2-12.6-32.7-8.3-49.4
		c-16.2-11.3-32.3-22.6-48.5-33.8c-2.6-1.8-5.1-4-5.7-7.2c-1.2-4.9,2.9-10.1,7.9-10.4c2.8-0.3,5.5,1.1,7.7,2.7
		c15.9,11.1,31.8,22.2,47.7,33.3c2.1,1.5,4.2,3.3,6.8,3.8c25,4.4,50,8.9,75,13.3c2.7,0.4,5.5,1.5,8.2,0.4
		C551.9,533.1,601.5,514.2,651,495.1"/>
<path class="st2" d="M563.1,569.5c22.6-4.4,45.2-8.4,67.8-12.7c2.3-0.4,4.8-0.9,6.9,0.4c3.2,1.6,3.9,6.4,1.3,8.9c-1.5,1.7-3.9,1.9-6,2.6
		c-0.1,8.1-1.8,16.4-6.2,23.3c-4.6,7.5-12.2,13.3-20.9,14.9c-9.8,2-20.2-2-27.2-8.9c-5-4.8-8.3-10.9-10.5-17.4
		c-3.3,0.7-7.7,1.3-9.7-2.2C556.2,574.9,559.2,570,563.1,569.5"/>
<path class="st0" d="M431.5,567.8c2.6-0.7,5.5-2.1,8.1-0.5c3.6,1.8,3.7,7.5,0.3,9.5c-4,2-8.6,2.9-12.8,4.4c-3,0.9-6.7,2.5-9.6,0.3
		c-3.2-2.2-2.8-7.6,0.8-9.3C422.5,570.3,427.1,569.3,431.5,567.8z"/>
<path class="st0" d="M445.3,582.2c2.8-0.9,6.3,0.4,7.2,3.3c1.1,2.9-0.7,6.4-3.6,7.3c-5,1.9-10.2,3.3-15.2,5.1
		c-2.4,0.7-5.1,1.9-7.5,0.6c-3.5-1.3-4.2-6.5-1.5-9c1.7-1.5,4-2,6-2.8C435.6,585.4,440.4,583.5,445.3,582.2z"/>
<path class="st1" d="M580.2,578.4c13.6-2.6,27.2-5,40.8-7.6c0,8.3-3.6,16.9-10.5,21.7c-5,3.5-11.7,3.9-17.2,1.2
		C587,590.8,582.7,584.8,580.2,578.4z"/>
</svg>
