<svg version="1.1" xmlns="http://www.w3.org/2000/svg" xmlns:xlink="http://www.w3.org/1999/xlink" x="0px" y="0px" viewBox="0 0 1000 1000" style="enable-background:new 0 0 1000 1000;" xml:space="preserve">
<style type="text/css">
	.st0{fill:%%ST0%%;}
	.st1{fill:#EDEDED;}
	.st2{fill:#000000;}
</style>
<path class="st2" d="M727.3,584c-3.7-35.8-18.1-69.1-29.7-102.8c-8.2-22.6-15-45.7-23.2-68.3c-10.6-29.4-21.5-59-37.1-86.2
	c-10.2-16.9-23.3-32.2-39.7-43.3c-13.3-9.3-28.6-15.8-44.4-19.6c-18.9-4.5-38.5-5.7-57.9-5.2c-33.8,0.5-68.1,6.8-98.4,22.5
	c-23.6,12-43.9,30.3-58.6,52.3C324.6,353.6,314.2,376,306,399c-15.7,46.3-23.2,94.8-30.1,143c-2.8,19.6-5,39.2-5.4,59
	c-0.2,18.7,1,37.9,8.3,55.3c6.7,16.6,18.2,30.7,31.2,42.8c10.8,10.1,22.9,18.7,35.5,26.4c31.9,19.6,67.9,31.8,104.5,38.6
	c21.1,3.9,42.7,4.4,64.1,3.6c20.7-0.9,41.2-4.5,61-10.6c31.6-8.9,61.6-23.6,87.8-43.3c22.1-16.5,42.2-36.8,53.8-62.2
	C726.6,630.7,729.2,607,727.3,584z"/>
<path class="st2" d="M509.4,444.7c17-2.4,34.4,1,49.9,8c27.8,12.4,51.4,32,74,51.9c13.1,11.6,25.1,24.7,34.3,39.7c10,16.4,15.3,35.5,16.1,54.6
	c0.6,19.8-5.2,39.8-16.5,56.2c-15.8,23.7-40,40.1-64.9,53.1c-20.2,10.4-41.9,17.7-64.2,21.7c-21.7,3.9-44,4-65.9,1.5
	c-16.1-2-32.3-4.9-47.7-10.1c-19.4-6.8-37.9-16.1-54.5-28.2c-12.2-9-23.1-19.9-31.2-32.9c-8.6-13-14.3-28.5-13.2-44.2
	c0.9-12,4.5-23.7,10.2-34.3c7.4-13.1,16.7-25,26.6-36.3c21.2-24.2,45.4-45.6,71.3-64.7c13.7-10,28.1-19.5,43.8-26.2
	C487.7,450.1,498.3,446.2,509.4,444.7"/>
<path class="st0" d="M482.2,275.3c25-2,50.5-0.8,74.8,5.7c15.9,4.1,30.1,13,42,24.1c20.7,19.7,33.6,45.8,44,72
	c4.9,12.2,9,24.8,12.4,37.5c1,3.9,1.9,8.2,0.4,12.1c-0.6,1.4-1.9,3.1-3.7,2.9c-3.5-1.1-5.6-4.3-7.8-6.9c-8-10.2-16.3-20.4-26.7-28.2
	c-2.4-1.8-6.6-4.1-9-1c-1.8,3.2,1.2,6.4,3.6,8.4c6.7,5.6,13.6,11.2,18.6,18.5c8.9,13.1,12.4,28.8,19.1,42.9
	c8,17.8,19.5,33.6,29.7,50.1c9.7,15.6,17.9,32.2,23.3,49.7c5.5,17.6,7.6,36.5,5.1,54.8c-2.2,16.6-8.6,32.7-18.5,46.3
	c-8.6,12-19.6,21.9-31.3,30.7c-14.9,11.3-31,20.9-47.7,29.2c-34.4,17.4-72.7,26.6-111.2,26.9c-40.3-0.1-80.4-8.6-117.3-24.7
	c-12-5.1-23.6-11.3-34.4-18.6c-14.7-9.6-28.5-20.8-39.5-34.6c-12-14.7-18.6-33.4-20-52.2c-1.1-13.9,1.7-28.2,9-40.2
	c8.3-14.2,21.2-24.9,30.7-38.2c5.2-7.8,9.4-16.4,11-25.7c0.4-2.2-0.7-5.4-3.4-5.4c-2.6,0-4,2.5-5.1,4.4c-3.6,6.2-6.7,13-12.2,17.8
	c-3.4,2.9-9,4.6-12.7,1.3c-3.8-4-3.9-9.9-4.2-15c0.1-18.3,4.4-36.2,8-54c4.5-21.5,9.8-42.9,16.1-64c8.4-26.4,20.5-52.1,38.8-73.2
	c10-11.1,21.2-21.3,34.1-29c19.4-12.1,41.5-19.4,64.1-22.4C468.6,276.5,475.4,275.8,482.2,275.3 M509.4,444.7
	c-11.1,1.5-21.7,5.4-32,9.8c-15.7,6.7-30,16.2-43.8,26.2c-25.8,19.1-50.1,40.4-71.3,64.7c-9.9,11.3-19.2,23.2-26.6,36.3
	c-5.7,10.6-9.3,22.3-10.2,34.3c-1.1,15.7,4.7,31.2,13.2,44.2c8,12.9,19,23.9,31.2,32.9c16.5,12.2,35.1,21.5,54.5,28.2
	c15.5,5.2,31.6,8.1,47.7,10.1c21.9,2.5,44.2,2.5,65.9-1.5c22.3-4,44-11.4,64.2-21.7c24.9-13,49.1-29.4,64.9-53.1
	c11.3-16.4,17.1-36.3,16.5-56.2c-0.8-19.1-6.1-38.2-16.1-54.6c-9.2-15-21.2-28.1-34.3-39.7c-22.6-20-46.2-39.6-74-51.9
	C543.8,445.7,526.4,442.3,509.4,444.7z"/>
<path class="st1" d="M661.1,576.9c-2.9-17.2-12.6-32.3-23.5-45.5c-21.8-26.3-48.8-48.7-79.9-63.2c-15-6.9-31.8-10.1-48.2-7.5
	c-19.6,2.9-37.2,12.5-53.7,23c-16.2,10.5-31.5,22.2-45.8,35.1c-12.9,11.4-25.1,23.7-35.9,37.1c-9.3,11.8-18.3,24.3-23.6,38.5
	c-5,13.3-3.3,28.4,2.9,41c12.9,26.5,35.5,47.7,61.8,60.5c15,7.7,31.1,12.7,47.7,15.5c25.5,5.1,51.9,4.1,77.2-1
	c34.8-7.2,68-24.1,92.5-50.1c9.5-9.8,17.6-21.2,22.6-34C661.3,610.8,664.2,593.5,661.1,576.9z"/>
<path class="st2" d="M495.2,519.3c5.8-3.1,13.1,3.5,10.5,9.6c-1.6,5.5-9.6,7.1-13.2,2.6C489.1,527.8,490.6,521.2,495.2,519.3z"/>
<path class="st2" d="M548.2,521.2c5.8-3,13,3.5,10.5,9.6c-1.5,5.3-8.9,7-12.7,3.1C542,530.4,543.3,523.2,548.2,521.2z"/>
<path class="st2" d="M427.5,537.6c14.3-2.4,29.2,1.8,40.9,10.1c9.1,6.5,16.6,15.9,18.8,27c1.6,7.8,0.1,16.3-4.7,22.8c-4.9,6.9-12.8,11.2-21,12.8
	c-16.7,3.1-34.5-2.5-47.1-13.9c-6.7-6.1-12-14-13.8-23c-1.8-8.6,0.2-18.1,6.1-24.7C412,542.7,419.6,539,427.5,537.6z"/>
<path class="st2" d="M593.5,548.8c9.4-1.5,19.5-0.1,27.8,4.9c6.2,3.8,11.3,9.8,12.5,17.1c1.7,8.3-1.5,16.8-6.8,23.2c-7.9,9.4-20,14.8-32.2,15.8
	c-9.7,0.7-20-1.7-27.6-7.9c-5.9-4.8-9.6-12.2-9.4-19.8c0.3-7.6,4-14.7,9.2-20.1C574.1,554.8,583.6,550.3,593.5,548.8z"/>
<path class="st2" d="M490.4,619.4c4.8-2.7,11.2,1.2,11.3,6.6c0.4,5.8-6.6,10.2-11.6,7.1C484.8,630.5,485,621.9,490.4,619.4z"/>
<path class="st2" d="M543.4,621.4c4.8-2.7,11.3,1.2,11.3,6.7c0.4,5.7-6.6,10.1-11.5,7C537.7,632.5,538,623.9,543.4,621.4z"/>
<path class="st2" d="M489.4,648.4c4.8-2.7,11.3,1.2,11.3,6.7c0.4,5.8-6.7,10.1-11.6,7C483.7,659.4,484,650.9,489.4,648.4z"/>
<path class="st2" d="M542.4,650.4c4.8-2.7,11.3,1.2,11.3,6.7c0.4,5.7-6.6,10.1-11.5,7C536.8,661.5,537,652.9,542.4,650.4z"/>
<path class="st2" d="M488.2,677.3c5.5-2.9,12.5,2.8,10.8,8.8c-1,5.1-7.5,7.8-11.8,4.8C482,687.9,482.7,679.5,488.2,677.3z"/>
<path class="st2" d="M541.2,679.2c5.8-3,13,3.5,10.5,9.5c-1.5,5.6-9.6,7.1-13.2,2.7C535.1,687.8,536.6,681.2,541.2,679.2z"/>
</svg>
