<svg version="1.1" xmlns="http://www.w3.org/2000/svg" xmlns:xlink="http://www.w3.org/1999/xlink" x="0px" y="0px" viewBox="0 0 1000 1000" style="enable-background:new 0 0 1000 1000;" xml:space="preserve">
<style type="text/css">
	.st0{fill:#FF71CE;}
	.st1{fill:#000000;}
</style>
<path class="st0" d="M659.5,578.6c7.1-2.2,15.2-0.8,21.2,3.7c8.1,5.8,11.8,16.8,8.8,26.3c-3,10.3-13.5,17.8-24.3,17
	c-11.9-0.4-22.3-10.8-22.7-22.6C641.5,592.2,649,581.5,659.5,578.6z"/>
<path class="st0" d="M427.4,579.7c7.1-2,15-0.4,20.8,4.1c7.9,5.9,11.4,16.8,8.4,26.2c-2.9,10.1-13.2,17.5-23.7,16.9
	c-11.8,0-22.4-10.1-23.2-21.8C408.5,593.8,416.4,582.4,427.4,579.7z"/>
<path class="st1" d="M457.3,627c-0.2-4.9,3.7-9.5,8.6-9.9c3-0.5,5.9,0.8,8.4,2.5c28.8,19.6,57.5,39.2,86.3,58.8c23-19,45.8-38.1,68.8-57.1
	c3.7-3.3,9.7-3.7,13.5-0.3c4.7,3.8,4.2,11.7-0.4,15.4c-23.8,19.9-47.7,39.7-71.6,59.5c-2.8,2.3-6.1,4.8-9.9,4.7
	c-3.6,0-6.6-2.3-9.4-4.2c-29.5-20.2-59.1-40.2-88.7-60.3C459.8,634.1,457.4,630.8,457.3,627z"/>
</svg>
