<svg version="1.1" xmlns="http://www.w3.org/2000/svg" xmlns:xlink="http://www.w3.org/1999/xlink" x="0px" y="0px" viewBox="0 0 1000 1000" style="enable-background:new 0 0 1000 1000;" xml:space="preserve">
<style type="text/css">
	.st0{fill:#EDEDED;}
	.st1{fill:#000000;}
</style>
<path class="st1" d="M800.5,527.7c29.5-19.2,69.8-20.3,100.2-2.4c14.9,8.7,27.1,22.6,31.9,39.3c5.3,17.7,1.1,37.5-9.9,52.2
	c-1.3,1.9-3.2,3.6-3,6.1c-0.2,16.5-6.8,32.7-18,44.8c-12.3,13.4-29.8,21.4-47.8,23.1c-4.4,0.7-9-3.3-8.4-7.8c0.3-3.2,3-5.2,5-7.5
	c6.1-7,9.4-16,10.8-25.1c-19.8,2.2-40.3-1.2-57.8-11c-13.2-7.4-24.5-18.5-30.6-32.4c-6.3-13.9-6.8-30.3-1.4-44.5
	C777,548,787.7,536,800.5,527.7"/>
<path class="st0" d="M810.1,538.1c25.7-15.2,60-15.6,85.4,0.4c11.9,7.5,21.6,19.3,24.4,33.3c2.9,13.2-1.1,27.2-9.3,37.7
	c-2.2,2.8-5.7,5.3-5.1,9.3c1,15.1-4.9,30.3-15.7,40.9c-5.9,5.9-13.1,10.3-20.8,13.3c5-10.3,7.3-21.8,7.2-33.1
	c-0.1-2.3-0.2-7-3.8-5.9c-15.8,4.2-32.8,4-48.3-1.1c-14.5-4.7-28.1-13.9-35.9-27.2c-6.3-10.7-8.1-24-4.3-35.8
	C788,556.4,798.1,545.4,810.1,538.1"/>
<path class="st1" d="M847.9,536.9c2-3,6.6-3.3,9-0.6c2.6,2.8,1.6,6.9,1.9,10.4c7.6,1.2,15.5,5.5,18.7,12.9c1.8,3.7-1.1,8.8-5.3,8.5
	c-3.1,0.2-4.8-2.5-6.4-4.7c-1.5-2.3-4.1-3.3-6.5-4.4c0.4,5.4,0.5,10.8,0.5,16.2c6.5,0.3,13.1,2.8,17.3,8c5.1,5.9,6.1,14.7,2.7,21.7
	c-3.4,7.3-10.9,11.8-18.5,13.6c0,3.1,0.8,6.8-1.6,9.2c-2.1,2.3-6.1,2.4-8.2,0.1c-2.5-2.4-1.8-6.2-2.1-9.4c-9.1-1.9-16.6-8-22.6-14.9
	c-2.8-3.2-0.8-8.8,3.3-9.5c3.6-0.9,6.2,2.3,8.5,4.5c3,3,6.3,5.7,10.3,7.3c-0.5-6.1-0.2-12.3-0.6-18.4c-4.8-0.3-9.7-1-13.8-3.7
	c-5.7-3.6-8.3-11.1-6.4-17.5c2.3-9.1,10.2-15.7,18.9-18.4C847,544.1,845.7,540.1,847.9,536.9 M839.7,572c1.6,2.9,5.3,2.8,8.1,3.5
	c-0.4-5-0.4-10.1-0.5-15.2C843.3,562.7,838.6,566.8,839.7,572 M860.1,587.1c0.3,6.3,0.6,12.7,0.6,19c4.6-1.7,9.6-5.5,8.9-11
	C869.3,590.2,864.4,587.6,860.1,587.1z"/>
</svg>
