<svg version="1.1" xmlns="http://www.w3.org/2000/svg" xmlns:xlink="http://www.w3.org/1999/xlink" x="0px" y="0px" viewBox="0 0 1000 1000" style="enable-background:new 0 0 1000 1000;" xml:space="preserve">
<style type="text/css">
	.st0{fill:#6089FF;}
	.st1{fill:#EDEDED;}
	.st2{fill:#000000;}
</style>
<path class="st2" d="M619.5,277.5c-6.8-5.9-16.1-7.8-24.7-9.3c-22.4-3.3-45.2-3-67.7-1c-5.1-50.7-0.3-101.5,1.9-152.2c0.6-12,1.3-24.1,0.9-36.2
	c-0.1-4.6-5.2-6.2-9-6.6c-31.1-3.8-62.6-4.9-93.7-1.5c-34.5,4-68.9,11-101.5,23c-26.4,9.5-51.7,22.1-74.8,38
	c-2.3,1.5-4.7,4.1-3.7,7.1c1.2,3.2,3.4,5.9,5.1,8.9c6.4,11,13,21.8,19.1,33c16.8,31.2,33,62.8,46.3,95.7
	c4.9,11.7,8.9,23.8,13.5,35.7c-21.9,9-44.1,17.9-63.8,31.2c-6.9,4.9-14.3,10.4-16.7,18.9c-2.1,6.7,0.3,14.3,5.5,19
	c6.9,6.2,16.2,8.8,25.2,10.2c12.8,1.8,25.9,1.7,38.8,1.3c25.2-0.9,50.3-4.6,75.1-9.1c58.8-10.2,117.1-25.3,171.5-50.1
	c11.8-5.8,23.9-10.8,35.1-17.7c8.7-5.5,18.2-11.8,21.9-21.9C625.9,288.2,624.1,281.5,619.5,277.5z"/>
<path class="st0" d="M607.7,288.3c-3.7-3.8-9.3-4.5-14.2-5.7c-21.5-3.6-43.5-1.9-65.1,0.1c0.2,5.2,1.8,11-0.9,15.8
	c-3,4.2-7.9,6.3-12.4,8.6c-12.2,5.5-24.7,10.3-37.4,14.4c-19.6,6.5-39.4,12.6-59.7,16.4c-21.7,4.1-43.8,7.2-66,6.5
	c-4.2-0.5-9.4-0.3-12.3-4c-2.4-3.9-2.7-8.6-4-12.8c-10.6,3.9-21,8.2-31.1,13c-11.1,5.4-22.4,11.1-31.6,19.5c-2,2.2-4.8,4.5-4.8,7.7
	c2.2,2.8,5.9,3.7,9.2,4.7c10,2.5,20.3,3.1,30.6,3c22.1,0.3,44.1-2.2,65.9-5.1c28.3-4,56.4-9.7,84.2-16.5
	c36.3-9.1,72.3-20,106.6-35.1c13.5-6.2,27.2-12.7,38.4-22.6C605,293.9,608.2,291.5,607.7,288.3z"/>
<path class="st0" d="M337.1,286.2c3.9,10.8,7.6,21.6,11,32.5c1.5,4.1,3.1,9,7.6,10.6c6.5,2.3,13.6,1.3,20.4,1.1
	c24.3-1.6,48.5-5.5,71.9-12.5c18.9-5.5,37.6-11.8,55.3-20.5c2.8-1.5,5.8-2.8,7.9-5.2c2.8-3.3,2.3-8.1,2-12.1
	c-1.3-12.9-2.3-25.9-2.8-38.9c-0.7-9.7-0.4-19.4-0.5-29.2c-0.9-39.4,1.9-78.7,4.6-117.9c0.2-2.5,0.2-6-2.8-6.8
	c-6.4-1.8-13.1-1.4-19.7-1.9c-50.9-1.8-102.6,2.7-151.3,18.3c-23.9,7.6-47,18.3-67.6,32.6c-2.1,1.5-4.5,3.1-5.3,5.7
	c0.6,3.2,3,5.8,4.5,8.6C298,193.7,319.8,239.1,337.1,286.2z"/>
<path class="st1" d="M492.7,106c0.8-4-3.5-7.7-7.4-6.5c-4.2,1-5.7,6.9-2.6,9.8C485.8,112.6,492.3,110.6,492.7,106z"/>
<path class="st1" d="M421,114c3.7,3.3,10.3,0.8,10.8-4.2c0.9-4.6-4.1-8.8-8.5-7.3C418.4,103.8,417,110.9,421,114z"/>
<path class="st1" d="M358.6,124.7c1.5-4.7-3.5-9.6-8.2-8.1c-4.7,1.1-6.6,7.7-3,11C350.7,131.3,357.5,129.5,358.6,124.7z"/>
<path class="st1" d="M454.8,133.1c3.3,3.3,9.7,0.7,9.7-4c0.5-4.2-4.5-7.8-8.3-5.7C452.4,124.9,451.5,130.5,454.8,133.1z"/>
<path class="st1" d="M393.4,140.5c3.7,2.3,9.1-1.1,8.5-5.5c0.2-4.2-5.2-7.1-8.7-4.8C389.3,132.2,389.4,138.6,393.4,140.5z"/>
<path class="st1" d="M292.5,138.6c-3.8,1.5-4.9,7-1.8,9.7c3.1,3.2,9.4,1.2,9.8-3.4C301.5,140.6,296.5,136.7,292.5,138.6z"/>
<path class="st1" d="M329.4,148.6c-3.7,1.3-5,6.5-2.3,9.3c2.7,3.4,8.8,2.2,10-2C338.9,151.5,333.7,146.6,329.4,148.6z"/>
<path class="st1" d="M513.3,280c-1.3-12.9-2.3-25.9-2.8-38.9c-28.1,17.7-59.8,29.2-92.1,36.5c-26.7,5.9-54,8.9-81.3,8.5
	c3.9,10.8,7.6,21.6,11,32.5c1.5,4.1,3.1,9,7.6,10.6c6.5,2.3,13.6,1.3,20.4,1.1c24.3-1.6,48.5-5.5,71.9-12.5
	c18.9-5.5,37.6-11.8,55.3-20.5c2.8-1.5,5.8-2.8,7.9-5.2C514,288.8,513.6,284.1,513.3,280z M368.4,313.6c-4.2-2.3-4.3-9.1,0-11.4
	c4.2-2.8,10.3,0.8,10,5.8C378.5,312.9,372.4,316.4,368.4,313.6z M416.9,303c-0.1,5.2-7.4,7.8-11,4.1c-3.4-2.8-2.6-8.8,1.4-10.7
	C411.7,293.8,417.9,297.9,416.9,303z M446.8,298.2c-4.8-1.9-5-9.5-0.4-11.8c4.1-2.6,10,0.8,9.9,5.6
	C456.5,296.7,451,300.3,446.8,298.2z M486.3,282.7c-4-2.3-3.3-8.9,1-10.4c3.5-1.2,7.6,0.9,8,4.7
	C496.2,281.7,490.2,285.6,486.3,282.7z"/>
</svg>
