<svg version="1.1" xmlns="http://www.w3.org/2000/svg" xmlns:xlink="http://www.w3.org/1999/xlink" x="0px" y="0px" viewBox="0 0 1000 1000" style="enable-background:new 0 0 1000 1000;" xml:space="preserve">
<style type="text/css">
	.st0{fill:#EDEDED;}
	.st1{fill:#FF002C;}
	.st2{fill:#6089FF;}
</style>
<path class="st0" d="M801.4,516.2c-2.2-9-10.2-16.5-19.5-17.6c-5.3-0.7-10.5,0.8-15.6,1.7c-32.6,8.9-65.2,17.9-97.8,26.7
	c-11.7-16-29.9-27-49.5-29.9c-13.4-2.5-27.4-0.2-40,4.7c-17.5,7-31.9,20.8-40,37.8c-16.7-6.1-35.6-6.7-52.4-0.6
	C478.8,521,464,506.4,446,499c-12.9-5.2-27.4-7.5-41.2-4.9c-19.3,3-37.1,13.9-48.8,29.6c-35.3-9.8-70.6-19.8-105.9-29.7
	c-8.1-2.2-16-4.9-24.3-6.3c-8.3-1.5-17.3,1-23.8,6.5c-3.9,3.3-6.3,8.7-5.1,13.9c1.2,5.3,6.4,9.6,12,9.1c5.4,0.1,9.3-5.2,14.8-4.6
	c5.6,0.7,11,2.4,16.4,3.9c34.8,9.8,69.7,19.5,104.5,29.3c-6.2,19.2-4.4,40.7,5.1,58.5c8.1,15.6,21.9,28.1,38.1,34.8
	c15.9,6.6,34,7.6,50.5,2.6c16.1-4.8,30.6-15.1,40.3-28.8c10.2-14.4,15.2-32.4,13.7-50c12.5-5.4,27.1-4.8,39.6,0.2
	c-3,23.8,6.3,48.7,24.1,64.8c13,11.9,30.2,19.1,47.8,19.9c16.6,0.8,33.5-4.1,47.1-13.8c14.3-10,24.9-25.2,29.5-42.1
	c3.9-13.9,3.5-29-0.9-42.7c31.2-8.5,62.4-17.2,93.6-25.5c7-1.8,10.7,7.3,17.6,6.7C798.2,530.8,803.2,522.7,801.4,516.2z"/>
<path class="st1" d="M408.3,518.3c12.6-2.1,26.1,0.5,36.8,7.6c12.3,8,20.9,21.5,22.8,36.1c1.5,11.2-0.6,22.8-6.3,32.6
	c-6.3,11-16.8,19.5-28.8,23.4c-13.3,4.3-28.4,2.9-40.6-3.9c-12.2-6.7-21.5-18.5-24.9-32c-3.5-13.2-1.5-27.7,5.6-39.3
	C380.3,529.8,393.6,520.6,408.3,518.3z"/>
<path class="st2" d="M599.2,521.2c12.4-2,25.5,0.6,36.1,7.5c9.8,6.3,17.4,16,21,27.1c4.6,13.8,3,29.5-4.4,42
	c-7.6,13.3-21.6,22.8-36.8,24.9c-10.7,1.6-22-0.2-31.5-5.3c-13.6-7-23.7-20.5-26.5-35.5c-2.8-13.9,0.4-28.8,8.8-40.2
	C573.6,530.9,585.9,523.3,599.2,521.2z"/>
</svg>
