<svg version="1.1" xmlns="http://www.w3.org/2000/svg" xmlns:xlink="http://www.w3.org/1999/xlink" x="0px" y="0px" viewBox="0 0 1000 1000" style="enable-background:new 0 0 1000 1000;" xml:space="preserve">
<style type="text/css">
	.st0{fill:#FF3CAE;}
	.st1{fill:#6089FF;}
	.st2{fill:#EDEDED;}
	.st3{fill:#000000;}
</style>
<path class="st3" d="M519.8,207.1c-6-18.9-17.7-35.5-30.9-50c-11.2-12-23-23.6-35.5-34.4c-12.7-10.6-25.4-21.6-40.4-28.8
	c-10.4-5.1-22.3-7.9-33.9-5.6c-11.9,2.4-22,10.3-28.7,20.1c-9.1,13.1-14.4,28.4-18.8,43.6c-7.6,27-13.8,54.8-13.5,83
	c0.7,23.8,7.2,48,21.4,67.5c13.3,18.4,32.1,32.8,53.3,40.8c19.8,7.2,41.9,6.6,61.8,0.2c19-6.5,36-18.8,47.9-35
	C524.6,280.4,530.9,241,519.8,207.1z"/>
<path class="st0" d="M367.7,111.7c8.8-7.4,21.5-9.3,32.3-5.9c6.9,2.1,13.2,5.8,19.2,10c-20.3,13.1-43.8,20.9-67.7,23.9
	C355.3,129.5,359.4,118.9,367.7,111.7z"/>
<path class="st1" d="M499.7,200.1c5.7,11.8,9.1,24.7,10,37.8c-48,30.9-104.9,47.1-161.9,48.2c-6.8-11.6-11-24.6-12.9-37.9
	c13.9,0.3,27.9-0.8,41.6-2.8C420.1,238.8,462.4,223.4,499.7,200.1"/>
<path class="st1" d="M446.5,137.3c-3.4-3-6.9-5.9-10.4-8.7c-5.5-4.5-11.1-8.9-16.9-12.9c-20.3,13.2-43.8,20.9-67.7,23.9h0
	c-2.5,6.5-4.7,13.2-6.7,19.9c-1.2,4.2-2.3,8.4-3.3,12.6l0.3,0.2l-0.5,0.4c-1.7,7.4-3.5,14.7-4.5,22.2c45-3.4,89.4-17.2,127.8-41
	C458.8,148.1,452.6,142.7,446.5,137.3z"/>
<path class="st0" d="M489.9,183.4c-3.1-4.7-6.6-9.1-10.4-13.4c-4.8-5.6-9.8-11-15.1-16.1c-38.4,23.8-82.8,37.7-127.8,41
	c-1.1,6.1-1.7,12.3-2.6,18.5l0.4,1l-0.4,0c-0.5,5.6-0.7,11.1-0.7,16.7c0.2,5.7,0.5,11.5,1.5,17.2c13.9,0.3,27.8-0.8,41.6-2.8
	c43.5-6.6,85.8-22,123.1-45.3C496.9,194.3,493.6,188.7,489.9,183.4z"/>
<path class="st0" d="M509.7,237.9c-48,31-104.9,47.1-161.9,48.2c4.1,7.2,9.2,14,15.2,19.7c6.2,5.8,12.9,11.2,20.3,15.4
	c10.4,6.7,22.2,11.2,34.5,12.6c16.5,1.5,33.5-2.5,47.6-11.2c13.9-8.9,25-21.9,32.7-36.3c4.2-7.7,7.5-16.1,9.5-24.6l0.1-0.1
	C509.5,253.7,510.2,245.8,509.7,237.9z"/>
<path class="st2" d="M436.1,128.6c3.5,2.8,7,5.7,10.4,8.7c-1.3,5.2-2.4,10.4-3.7,15.6c-0.8,3.5-4.2,6.5-7.8,5.8
	c-13.6-2.6-27.1-6.1-40.7-8.5c-9.3,10.3-18.5,20.8-27.9,31.2c-2.1,2.5-5.9,4.1-8.9,2.2c-5.4-3.5-10.3-7.7-15.6-11.3l-0.3-0.2
	c1-4.2,2.2-8.4,3.3-12.6c5.1,3.6,10,7.5,15.1,11.1c8.4-8.8,16.3-18.1,24.5-27.1c2.3-2.5,4.6-6.2,8.5-5.8c13.1,2.6,26,5.7,39.1,8.3
	C433.6,140.2,434.7,134.4,436.1,128.6z"/>
<path class="st2" d="M479.6,170c3.7,4.2,7.2,8.7,10.4,13.4c-20,12.1-41.1,22.4-63.1,30.5c-29.8,10.8-61.4,18.5-93.3,17.1
	c0-5.6,0.2-11.1,0.6-16.7l0.4,0c25.2,1,50.2-4.4,74-11.9C433.4,194.4,457.3,183.5,479.6,170z"/>
<path class="st2" d="M481.4,221.6c6.9-2.6,14.6,4.5,12.5,11.5c-1.1,5.6-7.8,9-12.9,6.7c-4.5-1.7-7.3-7.2-5.8-11.8
	C476,225,478.5,222.6,481.4,221.6z"/>
<path class="st2" d="M420.4,246.4c4.3-2.2,10.1-0.5,12.4,3.8c3,4.7,0.6,11.8-4.8,13.6c-5.4,2.4-12.4-1.7-12.8-7.7
	C414.6,252.2,416.8,248.1,420.4,246.4z"/>
<path class="st2" d="M361.5,257.7c6.2-3.4,14.5,2.4,13.6,9.4c-0.3,5.4-5.8,9.6-11.1,8.6c-6.1-0.8-9.8-8.2-6.9-13.6
	C358,260.1,359.6,258.6,361.5,257.7z"/>
<path class="st2" d="M363.1,305.8c50.9-2.4,101.1-17.6,144.6-44.2c-2,8.6-5.2,16.9-9.5,24.6c-34.9,18.2-73.1,30-112.1,34.5
	c-0.7,0.1-2,0.4-2.7,0.5C376,317,369.3,311.6,363.1,305.8z"/>
</svg>
