<svg version="1.1" xmlns="http://www.w3.org/2000/svg" xmlns:xlink="http://www.w3.org/1999/xlink" x="0px" y="0px" viewBox="0 0 1000 1000" style="enable-background:new 0 0 1000 1000;" xml:space="preserve">
<style type="text/css">
	.st0{fill:%%ST0%%;}
	.st1{fill:#EDEDED;}
	.st2{fill:#000000;}
</style>
<path class="st2" d="M720.5,524.5c-4.9-14.7-13.1-28.1-21.2-41.2c4.1-12.3,5.6-25.4,5-38.3c-1-19.5-8.7-38.8-22.5-52.8
	c-10-10.4-24.3-16.8-38.8-16.7c-13.2-0.3-26.5,4.2-36.9,12.3c-18.5-12.5-39-22.1-60-29.6c-15.3-5.3-31-9.5-47.1-11.3
	c-1.5,0-2.6-1.2-3.6-2.1c-12.6-11.5-28.3-19.9-45.3-22c-16.8-2.2-34.2,2.6-48.2,12c-18.1,12.2-31,30.8-39.2,50.8
	c-0.6,1.3-1.8,2.2-2.8,3.2c-9.2,8.6-17.3,18.4-24,29c-8.9,14.3-15.5,29.9-20.9,45.8c-27.4-5.2-51.4-21.2-71.4-40
	c-5.8-5.2-11.2-11.1-17.8-15.2c-5-3.2-11.3-0.6-15.1,3.3c-8,8.1-12.4,18.9-16.4,29.3c-4.7,11.8-7.5,24.2-9.8,36.6
	c-1,5.1-0.4,10.9,3.6,14.6c5.7,5.3,13,8.2,19.9,11.6c-5.3,3.3-11.4,5.6-15.7,10.2c-5,6.1-2.6,14.6-0.3,21.3
	C197,549,205.7,561.6,217,571c3.2,2.7,7.5,5.5,11.8,3.6c4.6-2.1,7.3-6.6,10.5-10.2c9.9-12.5,21.2-24,34.5-32.8
	c2.6-1.7,6.8-3.1,9.1-0.2c2.3,4.6,0.1,9.8-0.1,14.7c0.1,2.1,3.1,2.4,4,0.7c5.9-8.1,12-16,19.1-23c10.6-11,24.1-18.7,37.8-25.2
	c5.3-2.1,10.8-5.5,16.7-3.7c5.3,1.5,7.9,6.8,10.5,11.2c8.1,15.4,19.5,29.4,34.1,39c13.8,9.2,30.6,14,47.2,12.6
	c15-1.1,29.4-7.2,41.2-16.4c14.3-11.1,24.9-26.3,32.2-42.7c2.7-5.7,4.5-11.8,7.7-17.3c1.9-3.4,5-6.1,8.8-7.3c7-2.3,14.6-1,21.8-0.3
	c5.4,0.7,11.6,1.8,15,6.4c4.5,6.3,6.6,13.9,10.7,20.5c7.9,13.4,20.5,24.6,35.9,28.2c14.5,3.5,30.1,0.8,43-6.3
	c5.5-2.9,11.9-6,18.3-3.9c9.9,3.2,16.1,12.3,20.5,21.2c1.8,3.3,3,7.9,7.2,8.8c3.7,1.2,6.9-2,7.7-5.3
	C723.6,537,722.5,530.5,720.5,524.5z"/>
<path class="st0" d="M431.7,343.6c15.8-4.2,33.1-0.8,46.9,7.8c20.9,13,34.4,35.4,40.6,58.7C469,422.1,418.8,434,368.6,445.9
	c-0.5-25.4,6.1-51.4,21-72.3C399.7,359.4,414.4,347.6,431.7,343.6z"/>
<path class="st0" d="M513.9,367c20,4.2,39.4,11.3,57.7,20.5c7.8,3.9,15.3,8.5,22.3,13.7c-12,18.2-17,40.5-15.5,62.2
	c-14.2-2.5-28.6-3.9-42.9-5.6c1.8-19.5-0.2-39.4-6.3-58.1C525.4,388.2,520.2,377.2,513.9,367z"/>
<path class="st0" d="M631.4,392.5c11.7-3.6,25-0.9,34.6,6.6c12.3,9.4,19.1,24.4,21.5,39.4c-28.5-7.2-57-14.3-85.5-21.6
	C608.6,405.8,618.8,396.3,631.4,392.5z"/>
<path class="st0" d="M325.9,492.4c6.4-24.6,13.9-49.5,28.8-70.4c-1.2,18.6,0,37.5,5.1,55.4C348.3,482,337,487.1,325.9,492.4z"/>
<path class="st0" d="M216.3,428.3c2.1-0.9,3.4,1.4,4.7,2.6c14.4,16.2,32.5,29.3,52.6,37.5c11.2,4.7,23,8,34.7,11.3
	c-1.7,6.9-2.9,14.4-8,19.7c-3.2,3.4-7.8,5.1-12.3,5.4c-24.4,2.4-49.5-0.8-71.9-11c-4.9-2.3-10.8-4.5-13.2-9.8
	c-1.7-5.2-1.6-10.7-0.9-16.1c1.5-11.5,5-22.7,9.8-33.2C213,432.4,214.2,429.8,216.3,428.3z"/>
<path class="st0" d="M212.7,521.7c6.7-3.3,13.4-6.4,20.4-9c1.6-0.7,3.2-0.2,4.8,0.1c10.2,2.3,20.6,3.7,31,4.7
	c-14.3,7-27,17-37.6,28.8c-2.3,2.4-4.2,5.1-6.9,7c-1.8,1.3-3.8-0.5-4.9-1.8c-5.8-7.2-10.2-15.7-12.8-24.6
	C207.6,524.2,210.5,523,212.7,521.7z"/>
<path class="st1" d="M369.4,457.3c50.8-12,101.5-24.1,152.3-36.1c3.9,23.1,2.1,47.2-6.5,69.1c-5.8,14.8-14.7,28.7-26.9,39
	c-9.7,8.3-21.7,14.1-34.4,15.7c-17,2.3-34.4-3.7-47.6-14.3C384.3,512.9,372.3,485,369.4,457.3z"/>
<path class="st1" d="M596.7,427.2c30.6,7.7,61.2,15.4,91.8,23.1c-0.2,16.7-5,33.6-15.2,46.9c-7.2,9.5-17.4,17.1-29.2,19.4
	c-11,2.4-22.9-1-31.6-8c-9.2-7.4-15.4-18.1-18.6-29.3C588.9,462.2,590.2,443.6,596.7,427.2z"/>
</svg>
