<svg version="1.1" xmlns="http://www.w3.org/2000/svg" xmlns:xlink="http://www.w3.org/1999/xlink" x="0px" y="0px" viewBox="0 0 1000 1000" style="enable-background:new 0 0 1000 1000;" xml:space="preserve">
<style type="text/css">
	.st0{fill:%%ST0%%;}
	.st1{fill:%%ST1%%;}
	.st2{fill:%%ST3%%;}
</style>
<path class="st0" d="M491.4,466.4c21.4-0.7,43,1.4,63.8,6.7c21.5,5.7,42,15.1,60.8,26.9c13.4,8.3,25,19,35.2,30.9
	c8.5,10,15.2,21.6,19,34.1c6.1,17.4,6.3,36.7,1.5,54.4c-4.2,15.6-14.6,29.5-28.6,37.6c-10.9,6.2-24.1,7.4-36.3,5.1
	c-13-2.4-25.8-6-38.8-8.6c-23.4-5.5-47.9-3.1-71,2.5c-20.4,4.7-39.9,12.9-60.8,15.5c-17.6,2.6-36.2,1.3-52.6-6
	c-16.9-7.3-30.5-21.6-37.8-38.4c-7-16.4-8.1-35-4.8-52.5c3.5-16.6,11-32.2,21.2-45.7c9.3-12.2,20.1-23.4,32.8-32.2
	C423,477.2,457.3,467.6,491.4,466.4"/>
<path class="st1" d="M482.5,479.7c20.5-1.9,41.2-1.7,61.4,2.4c17.2,3.4,33.8,9.5,49.4,17.5c17.4,9,33.6,20.6,46.6,35.3
	c8.6,10,15.6,21.6,19.9,34.2c5,16,5.4,33.9-1.2,49.5c-4.2,9.6-10.7,18.9-20.5,23.4c-13.1,6.4-28.2,5.2-42.1,2.5
	c-13.2-2.2-26-6.3-39.2-8.3c-23.1-3.7-47.1-3.2-69.7,2.9c-18.5,4.8-36.1,13.1-54.9,16.8c-12.6,2.4-25.8,2.9-38.1-1
	c-15-4.6-27.1-16-34.5-29.6c-6.8-14.2-8.6-30.4-6.2-45.9c3.1-17.6,11-34.1,22.3-47.9c11.4-13.9,26.2-24.6,41.8-33.3
	C437.3,487.2,459.9,481.9,482.5,479.7"/>
<path class="st2" d="M404.9,529c1.1-5.6,7.5-9.6,13-7.8c3.4,0.8,6,3.5,7.5,6.6c4.2,8,8.3,16,12.5,24c4.2-8.1,8.4-16.2,12.6-24.2
	c1.8-3.5,5.4-6.3,9.4-6.4c5.1-0.4,10.1,3.6,10.9,8.7c0.8,3.1-0.5,6.2-1.9,9c-6.3,12.1-12.6,24.2-18.9,36.3
	c6.1,11.8,12.3,23.6,18.4,35.5c1.5,2.8,2.5,6.1,1.7,9.3c-1.1,5.6-7.5,9.5-13,7.7c-3.3-0.8-5.8-3.4-7.3-6.3
	c-4-7.6-7.9-15.2-11.9-22.8c-4.3,8.1-8.4,16.4-12.8,24.5c-2.8,5.2-10,7.5-15,4.1c-5-2.9-6.3-9.8-3.6-14.7
	c6.4-12.5,13-24.8,19.3-37.3c-6.1-11.8-12.2-23.5-18.3-35.3C405.6,536.6,403.8,532.8,404.9,529z"/>
<path class="st2" d="M572.6,534.6c4.4-2.8,10.7-0.8,13.1,3.7c3.6,6.6,6.9,13.3,10.4,20c3.4-6.4,6.6-12.8,10-19.2
	c1.5-3,4.5-5.5,7.9-5.7c4.4-0.5,8.8,2.6,9.8,6.8c0.9,2.8-0.1,5.8-1.4,8.4c-5.2,10.1-10.5,20.2-15.8,30.3c5.1,10,10.4,20,15.5,30
	c1.4,2.7,2.1,6.1,0.8,9c-1.6,4.3-6.8,6.8-11.2,5.3c-2.9-0.8-5-3.1-6.4-5.7c-3.1-5.8-6-11.8-9.1-17.5c-0.1,0-0.4,0.1-0.6,0.1
	c-3.5,6.2-6.4,12.6-9.9,18.7c-2.4,4.1-8.1,6-12.4,3.6c-4.7-2.2-6.4-8.5-3.9-13c5.2-10.3,10.6-20.4,15.9-30.7
	c-5.3-10.5-10.8-20.8-16.1-31.3C566.9,543.2,568.1,537.1,572.6,534.6z"/>
</svg>
