<svg version="1.1" xmlns="http://www.w3.org/2000/svg" xmlns:xlink="http://www.w3.org/1999/xlink" x="0px" y="0px" viewBox="0 0 1000 1000" style="enable-background:new 0 0 1000 1000;" xml:space="preserve">
<style type="text/css">
	.st0{fill:%%ST0%%;}
</style>
<path class="st0" d="M432.6,522.6c5.9-5.7,13.9-10.2,22.4-9.2c7.7,0.9,14,6.3,17.9,12.7c5.1,8.3,7.5,18,8.5,27.6c-14.2,8.4-28.4,16.7-42.6,25.2
		c-2.6,1.2-2.7,5.1-0.3,6.5c11.6,7.5,23.5,14.7,35.2,22c-5,12.3-11.9,24.5-23.1,32.1c-7,4.9-16.7,6.5-24.3,2.1
		c-9.6-5.5-14.4-16.5-16.9-26.8c-4.3-19.1-2.4-39.3,3.5-57.9C417,544.3,423,532,432.6,522.6z"/>
<path class="st0" d="M610.3,530.2c6.2-3.1,14.1-1.3,18.8,3.7c7,7.1,10.1,17,11.8,26.5c-9.9,6.6-19.8,13.3-29.7,19.9c-1.8,1.2-3.9,2.4-4.4,4.7
		c-0.4,2,1,3.8,2.7,4.5c9.6,4.7,19.3,9.1,28.9,13.8c-3.2,10.3-7.7,20.9-16.7,27.4c-5.5,4.1-13.5,4.7-19.1,0.6
		c-8.3-5.8-12-16-14.1-25.5c-3.6-18.1-2.1-37.4,4.7-54.6C596.8,542.9,601.8,534.3,610.3,530.2z"/>
</svg>
