<svg version="1.1" xmlns="http://www.w3.org/2000/svg" xmlns:xlink="http://www.w3.org/1999/xlink" x="0px" y="0px" viewBox="0 0 1000 1000" style="enable-background:new 0 0 1000 1000;" xml:space="preserve">
<style type="text/css">
	.st0{fill:%%ST0%%;}
	.st1{fill:%%ST1%%;}
</style>
<path class="st1" d="M487.4,278.5c20.1-1.1,40.2,1.1,59.8,5.5c32.8,7.2,64.7,19.6,93.2,37.6c15.5,9.8,30.1,21.2,41.6,35.4
	c7.9,9.6,14.4,20.4,19.1,31.9c7.8,18.1,12.3,37.5,13.2,57.1c1,19.9-4.4,39.4-9,58.6c-6,23-11.9,46.5-11.2,70.5
	c0.5,23.8,7.4,47.1,5.5,71c-2.3,33.2-18.8,66.1-46.9,84.7c-29.2,19.4-64.1,29.3-98.9,30.7c-54,2.5-109.7-2.2-160-23.3
	c-18.2-7.6-36.1-16.3-51.9-28.1c-23.8-17.5-41.5-42.3-52.6-69.4c-7.2-17.9-12.1-36.7-14.9-55.7c-3.8-25.8-3.1-52-0.4-77.9
	c1.8-17.4,5.3-34.5,10.5-51.2c5.4-17.5,11.4-34.9,20.2-51c8.5-15.7,18.5-30.5,29.8-44.3c13.2-15.7,27.4-30.7,43.7-43.2
	c18.7-14.9,40.5-25.8,63.8-31.5C456.9,282.1,472,279.2,487.4,278.5"/>
<path class="st0" d="M486.4,299.7c19.6-1.8,39.3-0.1,58.6,3.6c17.8,3.4,34.8,9.5,51.5,16.2c18.6,7.5,36.5,17,52.1,29.8
	c11.3,9.8,21.3,21.2,28.9,34.2c17.6,31.7,24.7,69.8,16.7,105.5c-4,19.1-9.6,37.8-12.6,57.1c-2.2,14.9-2.5,30.2-0.8,45.2
	c2,19.2,6.5,38.5,4,57.9c-2,16.8-8.8,33-19.8,45.9c-10,11.6-22.4,21-35.9,28.1c-16.5,8.6-34.8,12.9-53.2,15.4
	c-26.1,3.4-52.7,3.4-78.9,0.6c-23.3-2.5-46.5-6.3-69-13.2c-28.1-8.9-55.2-22.1-78.3-40.6c-15.2-12.3-27.5-28-37.3-44.9
	c-8.4-14.3-14.2-30.1-17.4-46.3c-7.9-39.5-5.7-80.6,3.4-119.7c4.3-17.3,10-34.4,17.3-50.7c6.3-14.8,14.9-28.5,24.7-41.3
	c13.1-17,28.3-32.6,45.6-45.5c12.2-9.5,25.9-17.1,40.3-22.7C445.6,306.7,465.8,301.5,486.4,299.7z"/>
</svg>
