<svg version="1.1" xmlns="http://www.w3.org/2000/svg" xmlns:xlink="http://www.w3.org/1999/xlink" x="0px" y="0px" viewBox="0 0 1000 1000" style="enable-background:new 0 0 1000 1000;" xml:space="preserve">
<style type="text/css">
	.st0{fill:#EDEDED;}
	.st1{fill:#E94000;}
	.st2{fill:#000000;}
</style>
<path class="st2" d="M563.1,569.5c23.3-4.4,46.7-8.7,70-13c3.9-1,8.3,2.4,7.5,6.5c-0.4,3.7-4.3,5.1-7.5,5.6c0,7.9-1.7,15.8-5.8,22.7
	c-4.5,7.8-12.3,14-21.3,15.6c-9.6,2-19.7-1.8-26.6-8.4c-5.3-4.9-8.8-11.2-11.1-18c-3.3,0.8-7.7,1.3-9.7-2.2
	C556.2,574.9,559.1,570.1,563.1,569.5"/>
<path class="st2" d="M670.8,511c-6.9-32.8-23-64-47.8-86.7c-21.2-18.9-48.3-30.2-75.8-36c-38.5-7.8-79.4-1.4-114,16.9
	c-30.5,15.8-57.2,40-73.4,70.5c-15.9,29.7-21.4,64.1-20.2,97.5c1.3,23,5.5,46.2,15.1,67.2c11.3,24.5,28.4,46.8,50.3,62.8
	c3.3,2.2,6.5,4.7,10.2,6.2c3,1,6.6-1.2,7-4.4c0.6-3-2.1-5.2-4.3-6.7c-11.9-8.5-23.4-18.1-31.4-30.6c-0.9-1.6-2-3.2-1.9-5.1
	c1.8-0.9,3.6,0.3,5.3,0.8c11.7,4.4,24,7.3,36.2,10.1c16.6,3.4,33.2,6.5,50.1,8.5c38.8,3.8,78.1,2.9,116.6-3.6
	c11.2-1.6,22.2-4.9,33.2-7.5c-1.1,3.8-4.2,6.4-6.8,9.2c-5.1,5.3-11.1,9.6-17.1,13.8c-4,2.8-1.8,9.7,3.1,9.6
	c4.2-0.5,7.3-3.7,10.6-5.9c18.7-14.6,33.5-34.1,43.1-55.8c7.6-15.8,12.2-32.8,14.7-50.1C677,564.8,676.6,537.4,670.8,511z
	 M403.4,439.4c28.3-25.2,65.2-40.7,103.1-42.6c18.4-0.9,36.9,1.6,54.5,7c18.3,5.6,36.1,13.9,50.8,26.4
	c12.5,10.4,22.6,23.7,29.6,38.3c1.9,4,2.7,9.6-1,12.8c-4.6,3.7-10.9,3.5-16.4,4.4c-21.6,2.1-43.3,3.4-65,3.7
	c-53.7-0.1-107.7-3.9-159.9-16.8c-5.3-1.3-10-6-9.8-11.8C390,451.8,397.2,445.2,403.4,439.4z"/>
<path class="st0" d="M370.1,486.1c5.2-4.9,12.8-2.8,19.1-1.6c20.6,4.5,41.4,8.6,62.3,11.3c24.3,4,49,5.2,73.6,6.6
	c14.3,0.6,28.6,0.5,42.9,0c25.1-0.1,50.2-2.4,75-6.3c2.2-0.4,4.4-0.4,6.7-0.1c-1,0.8-2,1.4-3.2,1.8c-47.7,18.2-95.3,36.5-143,54.8
	c-1.4,0.7-3.1,0.5-4.6,0.2c-25.6-4.6-51.2-9.1-76.9-13.7c-2.4-0.5-5-0.6-7.1-2c-15.4-10.5-30.7-21.2-46.1-31.8
	c-2.1-1.7-4.8-2.8-6.2-5.1C363.4,494.8,366.5,489.9,370.1,486.1z"/>
<path class="st0" d="M640.2,517.4c6-2.2,11.8-4.9,18-6.3c1.5,4.1,1.9,8.5,2.6,12.8c1.4,10.9,3.1,21.9,3.1,32.9
	c0.2,18.9-1,38.1-6.4,56.3c-3.3,10.9-7.1,22-13.9,31.3c-6.1,7.3-15.7,10.1-24.4,12.9c-22.6,6.2-45.8,10.4-69.2,11.9
	c-23.4,1-46.8,1.1-70.1-1.1c-24.9-2.9-49.9-7-73.8-15c-13-4.8-26.6-9.6-37.1-19c-9.6-9-12.8-22.4-15.1-34.9
	c-3.8-22.1-3.6-44.9-0.2-67c0.9-4.9,1.5-9.8,3.2-14.5c15.9,9.8,31.1,20.7,46.7,31.2c-4.4,15.8-2.6,33.4,5.9,47.5
	c7.4,12.5,20.2,21.8,34.5,24.7c14.6,3.2,30.1-0.5,42.4-8.7c15.9-10.4,26.3-28.2,28.4-47C556.6,549.4,598.4,533.4,640.2,517.4
	 M563.1,569.5c-4,0.5-6.9,5.4-4.4,8.9c2,3.4,6.4,2.9,9.7,2.2c2.3,6.7,5.8,13.1,11.1,18c7,6.6,17.1,10.3,26.6,8.4
	c9-1.6,16.8-7.8,21.3-15.6c4.1-6.8,5.7-14.8,5.8-22.7c3.2-0.6,7.1-2,7.5-5.6c0.8-4.2-3.6-7.5-7.5-6.5
	C609.8,560.8,586.4,565.1,563.1,569.5z"/>
<path class="st0" d="M432.4,567.5c3.8-2.2,10-0.6,10.1,4.4c0,5.7-6.5,6.3-10.6,7.7c-4.3,0.9-8.6,3.8-13.1,2.5
	c-4.3-1.5-4.5-8.1-0.5-10C422.8,570.2,427.7,569.2,432.4,567.5z"/>
<path class="st0" d="M445.2,582.2c3.3-1.2,7.5,1.2,7.6,4.8c0.3,3.2-2.4,5.6-5.2,6.3c-5.9,1.9-11.7,4.1-17.7,5.7
	c-3.5,0.9-7.4-2.3-6.8-6c0.1-2.9,2.8-4.7,5.4-5.4C434,585.8,439.6,583.8,445.2,582.2z"/>
<path class="st1" d="M580.2,578.4c13.6-2.6,27.2-5,40.8-7.6c-0.1,8.3-3.6,16.9-10.5,21.7c-5,3.4-11.7,3.9-17.1,1.2
	C587,590.8,582.7,584.8,580.2,578.4z"/>
</svg>
