<svg version="1.1" xmlns="http://www.w3.org/2000/svg" xmlns:xlink="http://www.w3.org/1999/xlink" x="0px" y="0px" viewBox="0 0 1000 1000" style="enable-background:new 0 0 1000 1000;" xml:space="preserve">
<style type="text/css">
	.st0{fill:#FFD400;}
	.st1{fill:#EDEDED;}
	.st2{fill:#000000;}
</style>
<path class="st2" d="M475.9,45.1c1.2-5.2,8.3-7.5,12.5-4.4c27.7,20.4,48.6,51.6,52.2,86.4c4.1-5.2,7.1-11.3,8.1-17.9c0.7-3.5,0.2-7.7,3.2-10.2
	c3.1-3,8.5-2.2,10.8,1.3c17.6,25.7,26.3,57.7,22.9,88.8c-1.8,14.7-6.5,29.3-15,41.6c-8.7,12.7-21.2,22.6-35.3,28.6
	c-19.9,9-42.7,10.9-64,6.5c-15.2-3.2-29.4-10.8-40.5-21.6c-12.4-12.2-20.3-29.6-18.8-47.2c1-17.7,9.5-33.5,14.6-50.2
	c4-12.5,6.6-26.6,1.8-39.3c-1.2-3-0.4-6.7,1.7-9.1c2.9-3,7.6-2.8,11.3-1.7c11.1,3.3,21.1,10,28.8,18.5c7.8-11.8,12.8-25.8,12.9-40
	c-0.2-7.9-1.8-15.8-5.6-22.8C476.5,50.1,475.2,47.7,475.9,45.1"/>
<path class="st0" d="M496.9,66.9c16.3,16.7,27.4,38.6,29.9,61.9c0.5,5.1,0.8,10.2,0.9,15.3c0.6,4.8,6.9,7.3,10.7,4.4
	c9-6.7,16.4-15.6,21.3-25.7c9.9,19.7,14.2,42.3,11.9,64.2c-1.9,15.4-7.4,30.9-18.1,42.4c-10,11.2-24,18.2-38.3,21.9
	c-17.3,4.3-36.1,3.5-52.7-3.1c-15.2-6.4-29.1-18.2-34.4-34.3c-3.8-10.4-2-21.8,1.1-32.1c3.4-11,8.2-21.5,11.4-32.5
	c3.7-11.8,5.7-24.3,4-36.7c8.1,4,14.9,10.3,20.2,17.5c2.5,4.1,8.8,4,11.6,0.2C490.9,112.9,499.5,89.8,496.9,66.9"/>
<path class="st2" d="M485.6,145.5c-1.4-3.1,2.7-6.5,5.5-4.7c13.4,8.3,23.7,21.7,27.3,37.1c2.4-2.8,3.2-6.4,4.4-9.8c1.5-2.5,5.2-2.1,6.8,0.2
	c7.4,9.5,12.2,21.5,11.8,33.7c-0.2,11.6-4.8,23.3-13.5,31.1c-10.5,9.3-25.2,13.2-39,11.3c-9.8-1.2-19.8-4.2-27.1-11.2
	c-7.6-6.8-10.3-18.1-7.7-27.8c2-10,8.8-18.8,8.1-29.3c0.1-3.1-2.9-6.4-0.5-9.2c1.7-1.6,4.1-1.4,6.2-1c5.3,1.1,10.1,4,14.4,7.3
	C487.5,165,488.8,154.6,485.6,145.5"/>
<path class="st1" d="M495.5,154.2c7.8,7.4,14.2,17,14.7,28c0.1,3.2,0.6,8.1,4.8,8.1c5.5-1.6,9.3-6.6,12.4-11.1
	c4.4,7.9,6.8,16.9,5.8,26c-0.8,8.6-4.6,17.2-11.4,22.7c-8.7,7.3-20.6,9.8-31.7,8.5c-8.5-0.9-17.4-3.4-23.5-9.8
	c-5.5-5.5-6.2-14.2-4-21.3c2.9-10,8.9-19.4,7.9-30.2c3.6,1.8,6.8,4.1,9.6,6.9c1.8,1.9,4.7,1.2,6.2-0.8
	C492.5,173.8,495.8,163.9,495.5,154.2z"/>
</svg>
