<svg version="1.1" xmlns="http://www.w3.org/2000/svg" xmlns:xlink="http://www.w3.org/1999/xlink" x="0px" y="0px" viewBox="0 0 1000 1000" style="enable-background:new 0 0 1000 1000;" xml:space="preserve">
<style type="text/css">
	.st0{fill:#FFD400;}
</style>
<path class="st0" d="M526.2,84.2c22.6-1.1,45.5,0.5,67.2,7.2c14.5,4.6,28.6,11.8,38.9,23.2c9.3,10.3,14.4,24.4,13,38.3
	c-1.2,13-7.3,25.1-15.4,35.1c-10.3,12.6-23.4,22.4-37.4,30.5c-19.5,11.2-40.7,19.2-62.4,24.8c-24.5,6.2-49.8,9.5-75.1,8.9
	c-22.6-0.6-45.6-4.2-66-14.3c-14.5-7.3-27.7-19.2-32.7-35.1c-4.6-13-2.3-27.5,3.7-39.7c6.9-14,18.2-25.3,30.5-34.6
	c23.3-17.2,50.5-28.2,78.3-35.5C487.6,88.1,506.9,85.1,526.2,84.2 M531.2,125.2c-15.9,0.6-31.8,2.8-47.2,6.5
	c-24,5.9-47.8,14.7-67.9,29.3c-7.5,5.7-15,12.1-19.2,20.8c-2,3.8-2,9,1.2,12.1c6.6,7.1,16.2,10.3,25.3,12.8
	c21.7,5.4,44.5,5,66.6,2.3c25.1-3.4,49.8-10.2,72.5-21.4c12.8-6.5,25.4-14.3,34.9-25.3c3.5-4.4,7.3-9.5,6.7-15.4
	c-2-6.8-9-10.4-14.9-13.2C571,126,550.8,124.7,531.2,125.2z"/>
</svg>
