<svg version="1.1" xmlns="http://www.w3.org/2000/svg" xmlns:xlink="http://www.w3.org/1999/xlink" x="0px" y="0px" viewBox="0 0 1000 1000" style="enable-background:new 0 0 1000 1000;" xml:space="preserve">
<style type="text/css">
	.st0{fill:#00A900;}
	.st1{fill:#EDEDED;}
</style>
<path class="st0" d="M441.7,497.4c0.6-4.5,6.8-6.2,9.8-2.9c5.3,5.3,10.1,11.1,15.2,16.6c3.8-5,7.4-10.2,11.3-15.1
	c2.4-3.3,8.2-2.3,9.2,1.7c1.4,6.4,1.8,12.9,2.7,19.4c7.1-3.4,13.9-7.5,21.1-10.9c2.8-1.5,6.6,0.1,7.4,3.2c0.6,2-0.2,4-1.1,5.8
	c-3.5,7.2-7,14.4-10.5,21.6c6.6,2.9,13.1,5.7,19.7,8.6c2,0.9,4.2,1.8,5.2,4c1.6,2.8-0.2,6.4-3.1,7.5c-5.6,2.6-11.3,4.8-17,7.2
	c3.5,6.2,7.3,12.2,10.8,18.4c2.4,3.8-1.1,9.5-5.6,8.8c-6.7-1-13.2-2.7-19.8-3.9c0,4.6,0.2,9.2,0,13.8c0.1,2.8-2.1,5.7-5.1,5.7
	c-2.3,0.2-4.1-1.5-5.7-3c-3.6-3.5-7.4-6.9-11-10.4c-1.7,6-3.4,12-5.1,18c-0.7,2.3-1.5,5-3.9,6c-2.8,1.4-6.4-0.1-7.6-3
	c-3.1-7.1-5.9-14.3-8.8-21.5c-4.7,2.1-9.1,4.9-14,6.6c-3.8,1.1-7.9-2.6-7.1-6.5c0.9-6.8,2.3-13.5,3.4-20.2
	c-6.6-2.5-13.3-4.6-19.8-7.3c-4-1.6-4.6-7.6-1.1-10c4.9-3.5,10.2-6.4,15.3-9.7c-3.1-5.8-6.3-11.5-9.4-17.2c-1.1-2-1.8-4.5-0.5-6.5
	c1.4-2.5,4.4-3.2,7-3.2c5.1-0.1,10.3,0,15.5,0C440.3,511.7,440.6,504.5,441.7,497.4"/>
<path class="st0" d="M638.7,508.7c2.8-2.8,8.3-1.6,9.2,2.4c1,7.1,0.7,14.3,1,21.4c4.4-0.8,8.7-1.8,13.2-2.5c2.9-0.7,6.2,1.1,6.8,4.1
	c0.6,2.2-0.5,4.3-1.5,6.2c-2.7,5.1-5.4,10.1-8.1,15.2c4.8,2.1,9.7,3.9,14.5,5.9c2.9,1.1,4.7,4.6,3.3,7.5c-0.8,2.2-3,3.2-5,4.2
	c-5.4,2.4-10.7,4.8-16.1,7.2c1.3,5.6,3.1,11.2,4.4,16.8c1,3.2-1.2,6.9-4.5,7.5c-2.1,0.5-4.1-0.6-5.9-1.6c-4.9-2.8-9.8-5.5-14.7-8.2
	c-1.4,5.9-1.9,12-3.7,17.8c-1.3,3.8-6.9,4.3-9.3,1.2c-3.7-4.8-6.6-10.1-10.1-15.1c-2.5,3.4-4.6,7-7.3,10.2c-2.5,2.8-7.6,1.6-8.6-2
	c-1.2-4.9-1.3-9.9-2-14.9c-6.4,0.2-12.8,1.2-19.3,1.3c-4.2,0-6.9-5.4-4.2-8.7c3.7-4.9,8-9.4,12-14.2c-4.5-1.9-9.3-3.2-13.6-5.5
	c-3.5-2.1-3.1-7.6,0.6-9.3c6.2-3.1,12.6-5.7,18.9-8.6c-3-6.5-6-13-9-19.5c-0.8-1.9-1.8-4.1-1-6.2c0.9-3,4.6-4.6,7.4-3.2
	c6.2,2.6,12.2,5.7,18.3,8.5c0.9-4,1.4-8.1,2.7-12c1-3.4,5.5-5.2,8.4-2.8c3.8,3.4,6.9,7.6,10.5,11.3
	C630,518.3,634.1,513.3,638.7,508.7"/>
<path class="st1" d="M451,509.8c4.2,4.2,7.9,8.9,12.2,13.1c2.1,2.1,5.7,2.2,7.8,0c2.8-3.2,5.2-6.8,7.7-10.3
	c0.8,4.5,0.9,9.2,2.1,13.7c0.8,3.3,4.9,5.1,8,3.5c4.5-2,8.7-4.6,13.1-6.8c-2.3,4.8-4.7,9.4-6.9,14.2c-1.4,2.6,0.3,6,2.9,7.1
	c5.4,2.5,10.9,4.7,16.3,7.2c-4.1,1.9-8.4,3.3-12.4,5.4c-2.7,1.3-3.4,5-2,7.5c2.6,4.8,5.6,9.5,8.3,14.3c-5.1-1-10.1-2.1-15.2-3.1
	c-3-0.8-6.3,1.6-6.5,4.7c-0.2,3-0.1,6-0.1,9c-3.6-3.2-6.8-6.9-10.7-9.7c-2.9-2.1-7.2-0.4-8.2,2.9c-1.7,4.8-2.8,9.8-4.3,14.7
	c-1.8-4.3-3.4-8.7-5.3-12.9c-1-2.6-4-4.5-6.8-3.5c-3.5,1.2-6.7,3.2-10,4.8c0.7-5.1,1.9-10.2,2.5-15.3c0.4-2.6-1.4-4.9-3.7-5.8
	c-4.7-1.9-9.5-3.4-14.2-5.2c3.5-2.3,7.2-4.3,10.7-6.7c2.5-1.6,3.4-5,2-7.6c-2.5-5.1-5.5-10-8.1-15.1c4.6-0.1,9.2,0.1,13.8-0.2
	c2.6-0.1,5.1-2,5.5-4.6C450.3,519.9,450.5,514.8,451,509.8z"/>
<path class="st1" d="M628,535.3c4-2.4,6.6-6.6,9.8-10c0.5,4.4,0.4,8.8,0.7,13.2c0.1,2.9,2.5,5.4,5.5,5.5c3.5-0.3,6.8-1.2,10.2-1.8
	c-2.4,5.2-6.1,10-7.6,15.6c0.5,6.3,8.3,6.6,12.8,9.1c-4.2,2.2-9.1,3.5-12.9,6.5c-4.1,4.6-0.1,10.7,0.9,15.8
	c-4.5-2.3-8.9-5.2-13.5-7.3c-2.9-1.4-6.7,0.3-7.5,3.4c-1.2,3.8-1.6,7.8-2.4,11.8c-2.5-3.6-4.8-7.4-7.2-11c-1.3-2.1-4.2-3.1-6.4-1.9
	c-2.6,1.2-3.6,4.2-5.5,6.2c-0.3-0.1-1-0.2-1.3-0.2l1.4-0.6c-0.5-3.2-1-7.8-4.9-8.5c-4.3-0.4-8.7,0.4-13,0.7c2.8-3.5,6-6.7,8.6-10.4
	c2-2.7,0.7-6.6-2.1-8.2c-2.6-1.4-5.4-2.3-8.2-3.3c4-1.9,8.2-3.5,12.1-5.5c2.7-1.2,4.1-4.7,2.8-7.4c-1.8-4.6-4.2-9-6.1-13.5
	c4.6,1.9,8.9,5.1,14,5.7c6.1-0.5,5.7-7.9,6.9-12.3C618.5,530.6,621.8,537.3,628,535.3z"/>
</svg>
