<svg version="1.1" xmlns="http://www.w3.org/2000/svg" xmlns:xlink="http://www.w3.org/1999/xlink" x="0px" y="0px" viewBox="0 0 1000 1000" style="enable-background:new 0 0 1000 1000;" xml:space="preserve">
<style type="text/css">
	.st0{fill:%%ST0%%;}
	.st1{fill:#EDEDED;}
	.st2{fill:#000000;}
</style>
<path class="st0" d="M642.7,532.1c1.5-1.9,3.9-3.2,6.4-2.4c2.9,1.1,3.6,4.5,3.8,7.3c0,7,0.5,14,0.5,21c6.3-0.6,12.5-2.5,18.7-3.2
	c4-0.4,7.1,4.5,4.9,8c-4.1,7.2-8.3,14.3-12.5,21.4c6.9,2.6,13.7,5.3,20.6,8c2.3,0.8,4.2,3.1,3.8,5.7c-0.3,2.5-2.6,4.3-5,4.9
	c-7.9,2.2-15.8,4.4-23.6,6.5c1.8,7.7,4.4,15.1,6.1,22.8c-0.3,4.1-5.3,6.5-8.8,4.5c-5.6-3.4-11-7.1-16.6-10.6c-2.7,6-5.3,12-8,17.9
	c-0.7,1.7-2,3.4-3.9,3.8c-3,0.9-5.7-1.6-6.4-4.3c-1.5-4.7-3-9.5-4.3-14.2c-4,3.7-7.8,7.6-11.9,11.2c-2.9,2.4-7.7,0.3-8-3.4
	c-0.1-4.8,0.1-9.5,0.3-14.3c-6.9,2.5-13.8,4.9-20.8,7.2c-3.8,1.2-7.9-3.1-5.9-6.7c2.2-3.9,5.3-7.4,7.9-11.1
	c2.4-3.2,4.8-6.5,7.2-9.8c0.5-0.6,1.5-1.9,1.9-2.5c-3.1-0.8-6.2-1.6-9.3-2.3c-3.3-0.9-6.7-1.6-10-2.5c-2.8-0.5-5.5-2.9-5-6
	c0.3-2.9,2.8-4.7,5.3-5.5c3.3-1.1,6.5-2.4,9.7-3.7c4.5-1.8,9-3.4,13.5-5.3l-0.4-0.3c-2-3.4-4-6.8-6.1-10.2
	c-2.2-4.3-5.4-8.1-6.8-12.7v0c0.4-3.8,4.7-6.1,8.1-4.5c6.2,2.4,12.3,5.1,18.4,7.7c0.7-4,1.2-8,1.9-12c0.7-3.4,0.3-7.4,2.7-10.3
	c1.8-1.7,5-1.6,6.8,0c2.6,3,4.2,6.6,6.3,10c1.5,2.6,3,5.2,4.5,7.8c2.5-2.2,4.2-5.3,6.4-7.8C637.5,538.8,640.1,535.5,642.7,532.1
	 M642.7,548.2c-2.2,3.5-5,6.7-7.5,10c-1.5,1.8-2.8,4.2-5.2,4.9c-2.4,0.9-5.4-0.2-6.7-2.4c-2-3.1-3.8-6.4-5.6-9.6l-0.6,0.2
	c-0.5,3.7-0.9,7.3-1.7,10.9c-0.7,3-4.3,5.1-7.2,3.8c-3.7-1.4-7.4-3-11-4.6c1.8,4.5,4.9,8.3,7,12.6c1.6,3.4-1,7.5-4.3,8.6
	c-5,2-10,3.9-15,5.8c4.4,0.9,8.8,2.1,13.1,3.2c3.4,0.8,5.1,5.2,3.2,8.1c-3.6,5.1-7.5,10-11.1,15.2c4-1.3,8-2.9,12-4.3
	c1.8-0.6,3.7,0,5.1,1.2c2.8,3.4,1.2,8.1,1.6,12.1c3.4-2.4,5.8-5.9,9.3-8.2c2.6-1.6,6.3-0.1,7.3,2.7c1.2,3.3,2.1,6.7,3.2,10.1
	c2.2-3.9,3.5-8.4,5.8-12.3c1.6-2.5,5.2-3,7.7-1.5c3.8,2.2,7.3,4.8,11.1,7c-1.2-4.6-2.6-9.2-3.8-13.8c-0.8-2.7,0.7-5.5,3.1-6.7
	c4.9-2.5,10.8-2.7,15.8-5.1c-4.2-1.6-8.5-3.2-12.6-5c-2.6-1-4.1-4.3-2.8-6.9c3.2-6.1,7.1-11.8,10.2-18c-4.6,0.9-9.2,2.1-13.9,2.5
	c-3.1,0-5.5-2.8-5.7-5.9C643.1,558.1,643.5,553.1,642.7,548.2z"/>
<path class="st0" d="M450,534.3c2.1-2.3,5.5-1.7,7.9,0c2.9,3.1,5.2,6.6,7.7,10c3.4,4.5,6.7,9.1,10.1,13.5c0.9-0.7,1.7-1.3,2.6-2
	c3.4-2.4,6.7-4.9,10-7.4c2.8-1.8,5.2-4.8,8.7-5c4,0.1,6,4.9,4.6,8.3c-2.1,5.5-4.4,10.9-6.5,16.5c4-0.7,7.9-2.3,12-2.9
	c4.4-0.4,8.2,5.3,5.3,9c-5,6.2-10.2,12.2-15.2,18.4c6,5.4,12.2,10.6,18.1,16.1c3,3,1,8.8-3.2,9.4c-6.9,0.6-13.7,0.8-20.6,1.1
	c1.1,6.6,2.5,13.1,3.6,19.7c0.6,3-1.8,6.4-5,6.3c-1.9,0.1-3.7-0.9-4.9-2.3c-5.2-5.8-10.3-11.9-15.6-17.7
	c-3.8,7.2-7.7,14.3-11.6,21.5c-0.9,1.9-2.9,3-4.9,3.3c-2.2-0.3-4.5-1.9-4.7-4.3c-0.6-7.9-1.5-15.7-2.1-23.6
	c-7.1,3.1-14.1,6.5-21.3,9.4c-3.8,1.4-8-2.8-6.1-6.6c2.7-4.4,5.3-8.8,8-13.3c2-3.3,4-6.7,6-10c-1.9-0.9-3.9-1.7-5.9-2.5
	c-3.2-1.5-6.5-3-9.8-4.4c-2.8-1.5-6.3-2.1-8.4-4.7c-1.2-2-0.9-5,1-6.5c2.2-1.6,5-1.6,7.5-2.2c5.4-1,10.9-2,16.2-3.3
	c-1.1-2.6-2.1-5.3-3.2-7.9c-1-2.6-2.1-5.2-3.1-7.7c-1.8-4.6-3.8-9.1-5.4-13.7c-1.2-2.9,1.1-6.5,4.2-6.6c2-0.2,3.6,1.3,5.2,2.3
	c6.3,4.4,12.5,8.9,18.7,13.3c-0.2-4.4-0.5-8.9-0.9-13.3C449,541.1,447.7,537.3,450,534.3 M459.6,553.1c0.4,5,0.6,10,1.2,14.9
	c0.4,3.8-4.3,6.9-7.5,4.7c-5.3-3.9-10.6-7.7-16-11.5c2.7,6.1,5,12.4,7.6,18.6c1.5,2.9-0.7,6.6-3.8,7.1c-3.9,0.9-7.9,1.7-11.8,2.2
	c4.1,2.1,8.4,3.9,12.6,5.6c2.7,1.1,3.7,4.7,2.2,7.2c-2.8,4.7-5.4,9.4-8.4,14c4.4-2.1,9-3.9,13.3-6.2c3.2-1.1,6.3,1.8,6.6,5
	c0.2,4.3,1,8.6,1,13c3-4.5,4.7-9.8,8.2-13.9c1.5-2.2,4.9-2.5,7-0.8c3.8,3.2,6.3,7.9,10.2,10.8c-0.4-3.6-2-7.2-1.4-10.9
	c1-3,4.5-3.8,7.3-3.7c4,0.1,7.8-0.6,11.8-0.5l0.1-0.5c-3.9-3.5-7.9-6.9-11.8-10.4c-2.4-2-3.3-5.8-1.4-8.4c3.1-3.8,6.2-7.6,9.4-11.2
	c-3.3,0.6-6.6,2.4-10,1.8c-3.1-0.7-4.5-4.2-3.6-7c1.1-3.8,2.9-7.5,4.3-11.2c-3.3,2.3-6.4,5-9.8,7.1c-2.4,1.4-5.4,0.2-6.8-2
	C466.5,562.4,463.2,557.6,459.6,553.1z"/>
<path class="st2" d="M576,532.8c11.6,0,23.3-0.4,34.9-0.5c-2.4,2.8-2,6.8-2.7,10.3c-9.5,0.1-18.9,0.1-28.4,0.2c0,2.8-0.1,5.7,0,8.5v0
	c-0.1,4.1,0,8.3-0.1,12.4c2.3,0.1,4.6-0.1,6.9,0.3c2.1,3.4,4.1,6.8,6.1,10.2c-4.3-0.1-8.7,0.1-13-0.5c0,2,0,4-0.1,6
	c-3.2,1.2-6.4,2.5-9.7,3.7c-0.5-14.4,0-29-0.2-43.5C569.6,536.4,572.3,532.8,576,532.8z"/>
<path class="st2" d="M617.7,532.3c8.3,0,16.6-0.1,24.9-0.2c-2.5,3.4-5.1,6.7-7.7,10.1c-3.6,0.1-7.3,0-10.9,0.1
	C622,538.9,620.4,535.3,617.7,532.3z"/>
<path class="st2" d="M423,534.8c9-0.2,18-0.5,27-0.5c-2.3,3-1,6.8-1,10.2c-6-0.1-11.9,0.4-17.9,0c-1.6-1-3.1-2.5-5.2-2.3
	c-3.1,0.1-5.4,3.8-4.2,6.6c1.6,4.6,3.7,9.1,5.4,13.7c0.1,2.5,0,5.1,0.1,7.7c0.8,0,2.3,0,3.1,0.1c1.1,2.6,2.1,5.3,3.2,7.9
	c-5.4,1.3-10.8,2.2-16.2,3.3c0.1-13.2,0-26.4,0.2-39.6C417.6,538.7,419.4,535,423,534.8z"/>
<path class="st2" d="M457.8,534.2c8.4,0.2,16.8-0.6,25.2-0.4c1.7,0.4,3.4,1.1,4.3,2.8c1.9,3.6,0.8,7.8,0.9,11.7c-3.4,2.4-6.6,5-10,7.4
	c0-3.8,0-7.6,0.1-11.4c-4.3-0.2-8.5,0-12.8,0C463,540.9,460.7,537.3,457.8,534.2z"/>
<path class="st2" d="M417.1,594.9c3.3,1.4,6.6,2.9,9.8,4.4c0.1,0.6,0.3,1.9,0.3,2.6c1.8-0.1,3.7-0.1,5.5-0.1c-2,3.3-4,6.7-6,10
	c-3.8,1-9.2-0.2-9.7-4.8C416.8,603,416.7,598.9,417.1,594.9z"/>
<path class="st2" d="M569.7,594.9c3.3,0.9,6.7,1.6,10,2.5c0,1.6,0,3.2,0,4.8c2.4,0,4.9,0,7.3,0c-2.4,3.3-4.8,6.5-7.2,9.8
	c-3.6,0.6-8.8,0.2-9.9-4C569.3,603.7,569.8,599.3,569.7,594.9z"/>
<path class="st1" d="M624,542.3c3.6,0,7.3,0,10.9-0.1c-2.2,2.5-3.9,5.6-6.4,7.8C627.1,547.5,625.5,544.9,624,542.3z"/>
<path class="st1" d="M579.8,542.8c9.4-0.1,18.9-0.1,28.4-0.2c-0.7,4-1.2,8-1.9,12c-6.1-2.6-12.2-5.3-18.4-7.7
	c-3.5-1.6-7.7,0.6-8.1,4.5C579.8,548.5,579.8,545.7,579.8,542.8z"/>
<path class="st1" d="M431.1,544.5c5.9,0.4,11.9-0.1,17.9,0c0.3,4.4,0.6,8.9,0.9,13.3C443.6,553.5,437.4,549,431.1,544.5z"/>
<path class="st1" d="M465.5,544.2c4.3,0.1,8.5-0.2,12.8,0c-0.1,3.8-0.1,7.6-0.1,11.4c-0.9,0.7-1.7,1.3-2.6,2
	C472.2,553.3,469,548.7,465.5,544.2z"/>
<path class="st1" d="M642.7,548.2c0.8,4.9,0.5,9.9,0.7,14.9c0.1,3,2.5,5.8,5.7,5.9c4.7-0.4,9.3-1.6,13.9-2.5
	c-3.1,6.2-7,11.9-10.2,18c-1.3,2.6,0.2,5.8,2.8,6.9c4.1,1.8,8.4,3.3,12.6,5c-4.9,2.4-10.8,2.6-15.8,5.1c-2.4,1.2-3.9,4.1-3.1,6.7
	c1.2,4.6,2.6,9.2,3.8,13.8c-3.8-2.2-7.3-4.8-11.1-7c-2.5-1.5-6.1-1-7.7,1.5c-2.3,3.9-3.6,8.4-5.8,12.3c-1.1-3.3-2-6.8-3.2-10.1
	c-1-2.8-4.7-4.3-7.3-2.7c-3.5,2.2-5.9,5.8-9.3,8.2c-0.3-4,1.3-8.8-1.6-12.1c-1.4-1.1-3.3-1.8-5.1-1.2c-4,1.4-8,3-12,4.3
	c3.6-5.1,7.5-10,11.1-15.2c1.9-3,0.3-7.3-3.2-8.1c-4.4-1.2-8.7-2.3-13.1-3.2c5-1.9,10-3.8,15-5.8c3.3-1.1,5.9-5.2,4.3-8.6
	c-2.1-4.3-5.2-8.2-7-12.6c3.6,1.6,7.3,3.2,11,4.6c2.9,1.3,6.5-0.8,7.2-3.8c0.8-3.6,1.2-7.3,1.7-10.9l0.6-0.2
	c1.9,3.2,3.7,6.4,5.6,9.6c1.3,2.2,4.3,3.3,6.7,2.4c2.4-0.7,3.7-3,5.2-4.9C637.7,554.9,640.5,551.8,642.7,548.2z"/>
<path class="st1" d="M579.8,551.4c1.5,4.6,4.6,8.5,6.8,12.7c-2.3-0.4-4.6-0.2-6.9-0.3C579.8,559.6,579.7,555.5,579.8,551.4z"/>
<path class="st1" d="M459.6,553.1c3.6,4.6,6.9,9.3,10.4,13.9c1.4,2.1,4.5,3.4,6.8,2c3.5-2.1,6.5-4.8,9.8-7.1
	c-1.4,3.7-3.2,7.4-4.3,11.2c-0.9,2.8,0.6,6.3,3.6,7c3.4,0.6,6.7-1.2,10-1.8c-3.2,3.7-6.3,7.4-9.4,11.2c-2,2.6-1.1,6.4,1.4,8.4
	c3.9,3.5,7.9,6.9,11.8,10.4l-0.1,0.5c-4-0.1-7.8,0.6-11.8,0.5c-2.8-0.1-6.3,0.7-7.3,3.7c-0.6,3.6,1,7.2,1.4,10.9
	c-3.9-2.9-6.4-7.6-10.2-10.8c-2.1-1.6-5.4-1.3-7,0.8c-3.5,4.1-5.2,9.4-8.2,13.9c0-4.3-0.8-8.6-1-13c-0.2-3.2-3.3-6.1-6.6-5
	c-4.3,2.3-8.9,4.1-13.3,6.2c3-4.5,5.7-9.3,8.4-14c1.5-2.5,0.5-6.1-2.2-7.2c-4.3-1.8-8.5-3.6-12.6-5.6c4-0.6,7.9-1.3,11.8-2.2
	c3.1-0.6,5.3-4.2,3.8-7.1c-2.5-6.2-4.9-12.5-7.6-18.6c5.4,3.8,10.7,7.6,16,11.5c3.2,2.2,7.9-0.9,7.5-4.7
	C460.2,563,460,558,459.6,553.1z"/>
<path class="st1" d="M427.2,562.6c1.1,2.6,2.1,5.1,3.1,7.7c-0.8,0-2.3,0-3.1-0.1C427.2,567.7,427.3,565.1,427.2,562.6z"/>
<path class="st1" d="M579.7,579.8c0-2,0-4,0.1-6c4.3,0.6,8.6,0.4,13,0.5l0.4,0.3C588.7,576.4,584.2,578,579.7,579.8z"/>
<path class="st1" d="M579.7,597.5c3.1,0.8,6.2,1.6,9.3,2.3c-0.5,0.6-1.5,1.9-1.9,2.5c-2.4,0-4.9,0-7.3,0
	C579.7,600.6,579.7,599,579.7,597.5z"/>
<path class="st1" d="M426.9,599.3c1.9,0.8,3.9,1.6,5.9,2.5c-1.9,0-3.7,0-5.5,0.1C427.2,601.3,427,600,426.9,599.3z"/>
</svg>
