<svg version="1.1" xmlns="http://www.w3.org/2000/svg" xmlns:xlink="http://www.w3.org/1999/xlink" x="0px" y="0px" viewBox="0 0 1000 1000" style="enable-background:new 0 0 1000 1000;" xml:space="preserve">
<style type="text/css">
	.st0{fill:#EDEDED;}
	.st1{fill:#FFD400;}
	.st2{fill:#000000;}
</style>
<path class="st0" d="M395.4,463.7c4.8-1,9.7-0.6,14.6-0.6c27.9,1,55.9,2.9,83.5,6.8c19.9,2.9,39.7,6.1,59.4,9.7
	c36,6.2,71.3,15.7,106.1,26.5c4.2,1.6,10,2.4,11.4,7.4c1.7,7.4,1.5,15.1,1.7,22.6c0.5,16.4-3,33.6-13,47
	c-7.7,10.9-19.3,19.9-32.8,21.8c-11.7,1.9-23.7-1.5-33.8-7.5c-9.4-5.3-17.6-12.9-28.1-16.1c-7.2-2.2-14.9-1.2-22,0.5
	c-14.3,3.4-27.9,9.1-42.3,12.1c-20.5,4.3-42.2,3.7-62.2-2.6c-16.3-5.1-31.7-14.2-42.5-27.7c-12.1-14.9-18.3-34.4-16.7-53.5
	c1.2-13.3,4.4-26.4,9.8-38.6C390.1,468.4,391.7,464.5,395.4,463.7"/>
<path class="st1" d="M400.3,474c1.5-0.6,3.1-0.5,4.7-0.5c47.7,0.5,95.1,6.8,141.9,15.6c36.8,6.8,73.2,15.9,108.9,27.2
	c1.9,0.5,3.8,1.8,3.9,3.9c3.2,17.9,2.5,37.5-7,53.5c-6.4,10.5-16.8,19.9-29.6,21c-11.5,1.4-22.4-3.9-31.5-10.3
	c-10.4-7.1-21.5-14.7-34.6-14.9c-16.2-0.2-31.4,6.5-46.8,10.9c-21.1,6.6-44,7.6-65.4,1.9c-12.3-3.4-24.1-9-33.7-17.5
	c-13-11.5-21.3-28.4-22-45.8c-0.5-13.5,2.6-26.9,7.7-39.3C397.8,477.8,398.3,475.3,400.3,474"/>
<path class="st2" d="M468.2,496.2c7-5.3,16.3-8.4,25-6.2c10.8,2.5,18.4,12.4,20.6,23c-10.1,3.8-20.2,7.5-30.3,11.4c-2.9,0.7-3.8,4.8-1.4,6.7
	c7,6.6,14.3,13.1,21.3,19.7c-5.5,6.2-12.9,11-21.2,12.2c-7.6,1.2-15.7-1.4-21.3-6.7c-5.1-4.8-8.2-11.5-9.3-18.3
	C449.2,522.3,455.8,505.7,468.2,496.2z"/>
<path class="st2" d="M604,530c6.6-7.9,17.2-13.2,27.6-11.3c8.6,1.5,15.4,8.7,17.9,16.9c-8.9,4.1-18,8-26.9,12.1c-2.9,0.9-3.1,4.9-0.7,6.5
	c6.3,4.8,12.8,9.4,19.2,14.1c-5.7,6.1-13.6,10.5-22.1,10.6c-8.7,0.1-17.1-5.2-20.7-13C592.5,554.1,595.9,539.7,604,530z"/>
</svg>
