<svg version="1.1" xmlns="http://www.w3.org/2000/svg" xmlns:xlink="http://www.w3.org/1999/xlink" x="0px" y="0px" viewBox="0 0 1000 1000" style="enable-background:new 0 0 1000 1000;" xml:space="preserve">
<style type="text/css">
	.st0{fill:#00A900;}
	.st1{fill:#FFD400;}
	.st2{fill:#000000;}
</style>
<path class="st2" d="M622.7,281.4c-4.8-7.7-14.3-10.3-22.6-12.2c-24-4.5-48.7-4.1-72.9-2c-4.4-43.6-1.4-87.5,0.8-131.2c0.8-19,2.3-38,1.9-57.1
	c0-4.7-5.3-6.4-9.1-6.7c-28.8-3.5-58-4.7-86.9-2.2c-29.5,3-58.8,8.1-87.2,16.7c-33.9,10.2-66.7,24.8-95.8,45
	c-2.1,1.4-4.3,3.5-3.9,6.2c0.7,3.2,3,5.7,4.6,8.5c6.8,11.5,13.7,23,20.1,34.8c16.3,30.3,32,61,45,92.9c5.2,12.4,9.6,25.2,14.3,37.8
	c-16,6.4-31.8,13-47,21.1c-8.6,4.7-17.2,9.7-24.6,16.1c-4.7,4-8.7,9.3-9.4,15.6c-1,6.5,2.1,13.1,7.1,17.1c8.4,6.8,19.5,8.9,30,10
	c44.4,3.4,88.6-4.7,132-13c24.9-4.8,49.6-11,74-18.2c35.2-10.3,69.3-24.2,101.8-41.1c8.9-5,18-10.3,24.5-18.3
	C623.8,296,626.6,287.9,622.7,281.4z"/>
<path class="st0" d="M370.9,95.5c39.6-8.9,80.4-11.5,120.8-10.1c6.7,0.5,13.6,0,20.1,1.9c3.3,1,2.9,5,2.8,7.7
		c-1.9,26-3.6,52-4.5,78c-0.6,20.6,0,41.2,0,61.8c-11,5.9-22.2,11.4-33.8,16c-1.9-3.7-6.5-5.9-10.5-4c-17.5,7.5-36.1,12.5-54.8,16.1
		c-4,0.7-6.9,4.5-6.4,8.6c-23.4,4.3-47.3,6-71.1,5.3c-17.5-46.1-39.4-90.4-64.9-132.6c-1.9-2.9,1.4-5.5,3.5-7.1
		C301.5,116.2,335.9,103.4,370.9,95.5z"/>
<path class="st0" d="M528.5,282.7c22.6-2,45.7-3.9,68.2,0.6c3.9,1.2,9.2,1.9,11.2,5.7c-1.1,4.5-5.2,7.4-8.5,10.2
		c-13.3,10-28.6,16.9-43.8,23.4C520,337.3,483,348,445.6,356.8c-41,9.4-82.6,16.6-124.7,18.6c-15.6,0-31.6,0.8-46.6-3.9
		c-2.3-1-5.8-1.9-6.2-4.7c2-5.7,7.5-9.1,12.1-12.6c17.1-11.6,36.3-19.4,55.4-26.8c1.3,4.2,1.6,8.9,4,12.8c2.9,3.8,8.1,3.5,12.4,4
		c23.3,0.8,46.4-2.7,69.2-7.1c1.4,3.9,5.8,5.8,9.7,4.6c20.5-4.4,40.8-9.9,60.3-17.6c3.9-1.2,6.4-5.4,5.3-9.4
		c8.2-3.4,16.6-6.4,24.4-10.8c3.4-2,7.2-4.7,7.9-8.9C529.3,291,528.8,286.9,528.5,282.7z"/>
<path class="st1" d="M465.8,246.7c4-1.9,8.6,0.3,10.5,4c7.1,21.2,13.4,42.8,20.3,64.1c1.1,4-1.5,8.1-5.3,9.4
		c-19.5,7.7-39.8,13.2-60.3,17.6c-3.9,1.2-8.3-0.7-9.7-4.6c-5.4-22-10.9-43.9-16.6-65.8c-0.6-4,2.4-7.9,6.4-8.6
		C429.7,259.2,448.2,254.2,465.8,246.7 M421.3,276.1c4.3,16.6,8.4,33.2,12.6,49.8c15.6-3.6,31.1-7.9,46.2-13.4
		c-5-16.5-10.2-32.8-15.4-49.2C450.6,268.8,436,272.7,421.3,276.1z"/>
</svg>
