<svg version="1.1" xmlns="http://www.w3.org/2000/svg" xmlns:xlink="http://www.w3.org/1999/xlink" x="0px" y="0px" viewBox="0 0 1000 1000" style="enable-background:new 0 0 1000 1000;" xml:space="preserve">
<style type="text/css">
	.st0{fill:#FFD400;}
	.st1{fill:#FF002C;}
	.st2{fill:#000000;}
</style>
<path class="st2" d="M576.3,326.6c-17.9-73.8-35.7-147.7-53.5-221.5c-0.7-2.8-2.1-5.7-4.8-7.1c-2.9-1.7-6.4-1.2-9.5-0.5
	c-74.1,18.3-148.2,36.6-222.3,54.9c-3.3,0.7-6.6,2.5-8,5.8c-1.8,3.9,0,8.1,0.8,12c17.9,74,35.8,148.1,53.7,222.1
	c0.8,5.7,6.8,9.5,12.3,7.6c74.4-18.2,148.7-36.8,223.1-55.1c3.5-0.9,7.3-2.3,9-5.8C578.9,335,577.1,330.6,576.3,326.6z"/>
<path class="st0" d="M419.4,201.2c12.6-2.7,26.3,0.9,36.2,9.1c16.4,13,20.7,38.2,9.8,56c-6.2,10.6-17.2,18.4-29.3,20.6
	c-12.8,2.6-26.6-1-36.5-9.5c-10.6-8.8-16.4-22.8-15.3-36.5C385.1,221.8,400.4,204.5,419.4,201.2 M421.9,215c-0.1,2.5,0.6,5,0.7,7.6
	c-3.4-1.2-2.4-6.1-5.7-7.4c-2.5-1.2-5.5,1.2-5.3,3.8c0.2,2,0.9,3.9,1.4,5.9c-2.6,2.1-6.8,4.2-6.5,8.1c0.5,3.2,4.1,3.6,6.6,2.8
	c2.3,8.8,4.7,17.6,7,26.4c-1.3,1.6-3.4,3.5-2.1,5.7c1.1,2.7,4.5,2.5,6.9,3c0.6,3,1.7,7.7,5.8,6.8c4.3-1.1,2.6-6.3,2.6-9.4
	c2.7,1.8,4.1,6.9,8.1,5.1c3.6-1.7,1.9-6,0.8-8.7c3.3-3.3,6.4-7.8,5.5-12.7c-0.8-5.1-5.4-8.4-9.9-10.1c1.9-3.4,3.8-7.3,2.4-11.2
	c-1.1-4.3-5-6.9-8.9-8.5c-0.8-3-0.8-6.3-2.6-9C426.8,210.7,422.5,211.9,421.9,215z"/>
<path class="st1" d="M371,248.3c1.7-0.1,4.2-0.3,4.5-2.4c0.5-3,0.5-6,0.9-9c2.2-16.7,13.2-31.8,28.3-39.2
		c10.4-5.4,22.8-6.8,34.2-4.2c13.6,3,26,11.7,33.1,23.7c1.1,1.6,2,3.7,4,4.3c2.7-0.1,5.1-1.6,7.5-2.8c12.3-6.7,24.2-14.2,35.2-23
		c4-3.1,6.5-8.4,4.8-13.4c-5-20.8-9.9-41.6-15.1-62.4c-0.5-3.6-4.4-3.4-7-2.5c-66.4,16.4-132.8,32.8-199.2,49.1
		c-1.8,0.6-4.2,1-4.8,3c-0.2,2.2,0.4,4.4,0.9,6.6c4.5,18.5,9,37,13.4,55.6c0.7,2.9,1.8,5.8,4,7.9c3.5,3.5,8.6,4.6,13.3,5.5
		C342.8,247.5,356.9,248.6,371,248.3z"/>
<path class="st1" d="M557.4,322.4c-9.9-40.3-19.3-80.7-29.4-121c-2.6,0.1-5,1-7,2.7c-12.5,9.6-26.1,17.7-40.1,25
		c-3.6,1.7-1.7,6.1-1.6,9.2c2.6,21-9.1,42.7-28,52c-12.5,6.5-27.8,7.5-41.1,2.6c-14-5-25.6-16.3-30.8-30.2c-1.1-2.4-2-6.2-5.4-6
		c-17.5,0.3-35-1-52.1-4.7c-1.9-0.9-5.6,0-4.6,2.7c9.7,40.8,19.7,81.6,29.5,122.4c0.1,2.7,2.6,4.3,5.1,3.2
		c66.2-16.2,132.3-32.7,198.4-49c2.5-0.7,5.3-1,7.5-2.5C558.7,326.7,557.7,324.4,557.4,322.4z"/>
<path class="st0" d="M420.2,230.4c3.7-0.6,8.1-1.5,11.3,1.1c1.5,1.3,0.9,3.5-0.1,4.9c-1.9,2.8-5.2,4.2-8.1,5.5
	C422.2,238.1,421.2,234.3,420.2,230.4z"/>
<path class="st0" d="M425.3,249.6c4.4-0.5,9.6-1.2,13.3,1.9c1.6,1.2,1.2,3.6,0,5c-2.4,3.2-6.4,4.5-10.1,5.7
	C427.6,258,426.4,253.9,425.3,249.6z"/>
</svg>
