<svg version="1.1" xmlns="http://www.w3.org/2000/svg" xmlns:xlink="http://www.w3.org/1999/xlink" x="0px" y="0px" viewBox="0 0 1000 1000" style="enable-background:new 0 0 1000 1000;" xml:space="preserve">
<style type="text/css">
	.st0{fill:%%ST0%%;}
	.st1{fill:#000000;}
</style>
<path class="st1" d="M801.6,517.2c-1.4-7.9-7.5-14.8-15-17.6c-6.8-2.6-14.2-0.7-21.1,0.8c-32.4,8.8-64.7,17.7-97.1,26.5
	c-11.6-15.7-29.4-26.7-48.7-29.8c-13.9-2.7-28.5-0.4-41.5,4.9c-17.2,7.1-31.3,20.8-39.3,37.5c-16.7-6.1-35.5-6.7-52.4-0.6
	c-2.6-5.9-5.8-11.5-9.8-16.5c-16.8-21.9-46.3-33.5-73.5-27.9c-18.7,3.3-35.8,14.1-47.1,29.3c-40.6-11.4-81.2-22.7-121.8-34.2
	c-6.7-1.8-13.9-3.3-20.7-1.2c-7.2,2-15.1,6.8-16.5,14.7c-1.6,7.1,4.7,14.8,12,14.2c5.5,0.1,9.4-5.3,14.9-4.6
	c6.5,0.9,12.8,2.9,19.1,4.6c33.9,9.5,67.8,19,101.7,28.5c-7,21.5-3.7,45.9,8.8,64.8c9.6,14.7,24.4,25.9,41.2,30.9
	c14.1,4.4,29.5,4.4,43.7,0.2c16.1-4.8,30.5-15.1,40.2-28.8c10.3-14.4,15.2-32.4,13.8-50c12.5-5.4,27-4.7,39.5,0.2
	c-2.7,23.4,6,47.7,23.1,63.9c12.2,11.6,28.2,19,44.9,20.5c17.4,1.8,35.2-2.8,49.7-12.6c14.7-9.9,25.8-25.1,30.6-42.2
	c4.2-14.2,3.6-29.4-0.5-43.6c31.2-8.5,62.4-17.2,93.7-25.5c6.9-1.6,10.6,7.3,17.4,6.8C797.8,530.7,802.7,523.5,801.6,517.2z"/>
<path class="st0" d="M408.3,518.3c11.4-1.9,23.5,0,33.7,5.8c14,7.7,23.9,22.2,25.9,38.1c1.6,12.1-1.1,24.8-7.9,35
	c-8.1,12.6-22,21.3-37,23c-10.6,1.2-21.6-0.8-31-6c-12.5-6.8-21.9-19.1-25.1-33c-3.2-13.1-1-27.5,6.2-39
	C380.7,529.5,393.9,520.6,408.3,518.3z"/>
<path class="st0" d="M599.3,521.2c11-1.7,22.5,0.1,32.2,5.3c14.2,7.4,24.4,21.7,26.7,37.5c1.9,12.3-0.7,25.2-7.5,35.6
	c-8,12.6-21.8,21.4-36.7,23.2c-11.1,1.4-22.7-0.8-32.4-6.5c-13.1-7.5-22.5-21-24.9-35.9c-2.1-12.3,0.4-25.3,7-35.8
	C571.5,532.3,584.8,523.4,599.3,521.2z"/>
</svg>
