<svg version="1.1" xmlns="http://www.w3.org/2000/svg" xmlns:xlink="http://www.w3.org/1999/xlink" x="0px" y="0px" viewBox="0 0 1000 1000" style="enable-background:new 0 0 1000 1000;" xml:space="preserve">
<style type="text/css">
	.st0{fill:#FFD400;}
	.st1{fill:#6089FF;}
	.st2{fill:#EDEDED;}
	.st3{fill:#000000;}
</style>
<path class="st3" d="M488.1,387c39.7-6.3,81.3,2.5,115.7,23.1c27.1,16.2,46.5,42.9,58.3,71.8c8.6,22.6,13.1,46.7,13.6,70.8
			c-4.3-0.2-8,2.1-11.8,3.8c0-11.2-1.8-22.3-3.2-33.4c-1.1-7.1-2.1-14.3-4.8-20.9c-1.3-3.2-4-6.4-7.8-6.5c-5.7-0.1-11.2,1.5-16.8,2
			c-21.6,3-43.4,4.6-65.3,4.7c-26.3,1.2-52.7-0.4-78.9-2.5c-18.7-1.3-37.2-4.4-55.7-7.2c-14.6-2.3-29.1-5.6-43.6-8.6
			c-5-0.9-10.5-2.3-15.3,0.2c-4.8,2.7-7.2,8-9.3,12.8c-5.2,13.2-8.7,27.1-10.5,41.2c-3.4-4.2-6.8-8.4-10.1-12.7
			c5.6-32,20.3-62.7,43.3-85.8C413.2,412.1,449.5,392.9,488.1,387 M495.5,397.8c-33.5,3.9-65.5,18.5-91,40.6
			c-6.5,6-13.8,12.4-15.1,21.6c-0.8,6.1,4,11.3,9.7,12.7c46.2,11.4,93.9,15.7,141.5,16.6c22.9,0.8,45.9-0.6,68.7-2.2
			c8.4-0.7,16.8-1.2,25.1-2.9c3.4-0.8,7.3-2.6,8.2-6.3c1.4-4.7-1.1-9.3-3.2-13.4c-7.7-14.5-18.4-27.4-31.5-37.4
			c-14.8-11.4-32.1-19-50-24.2C537.8,397.1,516.4,395.2,495.5,397.8z"/>
<path class="st3" d="M405.9,552c1.4-2.5,4.7-3.1,7.3-2.2c29.4,8.3,58.7,16.6,88.1,24.9c2.1,0.6,4.5,1.4,5.4,3.6c1.5,2.5,0.1,6-2.4,7.1
			c-3,1.5-6.2-0.3-9.2-0.9c-4.1,15-16.9,27.3-32.2,30.4c-12.7,2.8-26.5-0.9-36.3-9.4c-1.4-1.3-2.7-2.6-4.1-4c3.6-1.6,7.1-3.3,10.7-5
			c8.8,7.9,22,10.3,33,5.7c8.9-3.6,15.7-11.6,18.3-20.8c-20-5.7-40-11.3-60-17c-0.4,1.6-0.8,3.2-1.1,4.8c-3.6-0.7-7.3-1.5-11-2.2
			c0.4-1.9,0.8-3.7,1.3-5.6c-2.5-0.7-4.8-1.5-7.1-2.7C405.3,556.7,404.5,554.1,405.9,552z"/>
<path class="st3" d="M561.7,576.6c23.5-6.9,47-13.7,70.5-20.4c4.6-1.8,9.1,3.2,7.2,7.6c-1,1.1-2.1,2.1-3.4,2.8c-19,5.5-38,11.1-57.1,16.6
			c2,8.2,9,14.8,17.2,16.5c5.9,1.5,12.1,0,17.3-3c3.6,1.9,7.1,3.9,10.6,5.8c-1.8,1.4-3.6,2.8-5.5,4c-10.3,6.3-23.9,6.5-34.3,0.4
			c-7.8-4.4-13.5-12-16.1-20.5c-3.1,0.9-7.2,2.3-9.7-0.7C555.6,582.6,557.7,577.3,561.7,576.6z"/>
<path class="st3" d="M339.2,560.4c4.2,5.7,9.3,10.8,12.8,17c-4.4,0-8.7,1.5-12,4.4C339.4,574.6,339.3,567.5,339.2,560.4z"/>
<path class="st3" d="M662.9,583.7c3.8-1.8,7.6-3.6,11.5-5.3c0.5,6-1.1,12-1.8,18c-3.5-2.4-6.9-4.8-10.3-7.2
			C662.5,587.3,662.7,585.5,662.9,583.7z"/>
<path class="st3" d="M412.2,579.5c4,0.8,7.9,1.6,11.9,2.4c0.5,1.5,1.1,3,1.7,4.5c-3.4,1.6-6.7,3.1-10.1,4.7C414.1,587.4,413,583.5,412.2,579.5
			z"/>
<path class="st3" d="M623.2,582.9c3-1,6.1-2,9.1-3.1c0.7,0.9,1.5,1.8,2.2,2.7c-0.6,3.6-1.7,7-3.2,10.3c-3.3-1.8-6.5-3.6-9.8-5.4
			C622.1,585.8,622.7,584.4,623.2,582.9z"/>
<path class="st3" d="M349.5,605.2c2.4,2,4.8,4,7.1,6.1c2.4,9.1,6.6,18.1,14,24.2c10.5,8.7,23.5,13.3,36.2,17.9c23.3,7.8,47.7,11.8,72.1,14.7
			c23.4,2.3,46.9,2.3,70.3,1.3c23.5-1.4,46.8-5.6,69.4-11.8c8.7-2.7,18.2-5.4,24.6-12.5c6.8-8.7,10.4-19.3,13.8-29.7
			c3.3,2.2,6.5,4.5,9.7,6.7c-5.7,16.6-13.2,32.7-23.5,47c-9.5,12.7-20.6,24.5-34.1,33.1c-2.5,1.9-6.4,1.8-8.3-1
			c-1.9-2.5-0.8-6.2,1.7-7.8c7.8-5.2,15.2-11.3,21.3-18.6c1-1.1,1.6-2.5,1.9-4c-11.2,2.7-22.4,6-33.9,7.6
			c-22.1,3.5-44.4,5.8-66.8,5.5c-21.7,0.1-43.5-0.6-65-4.2c-22.5-3.7-45.1-7.8-66.7-15.1c-2.9-0.8-5.7-2.7-8.8-2.2
			c0.1,2.9,2,5.3,3.5,7.7c7.9,11.3,18.7,20.2,29.8,28.2c1.7,1.3,3.8,2.5,4.1,4.8c0.5,2.4-0.6,5.1-3,6c-2.6,1.3-5.3-0.2-7.5-1.6
			c-15.8-9.8-29-23.2-39.9-38.1c-13-18-22.9-38.6-27.1-60.5C346.1,607.7,347.8,606.4,349.5,605.2z"/>

 <path class="st0" d="M372.5,484.4c4.8-2.5,10.3-1.1,15.3-0.2c14.5,3,29,6.3,43.6,8.6c18.5,2.8,37,5.9,55.7,7.2
			c26.2,2.1,52.6,3.6,78.9,2.5c21.8-0.1,43.7-1.6,65.3-4.7c5.6-0.5,11.1-2.1,16.8-2c3.8,0,6.5,3.3,7.8,6.5
			c2.8,6.7,3.7,13.9,4.8,20.9c1.4,11.1,3.2,22.2,3.2,33.4c-7.1,3.3-14.2,6.7-21.4,10c-1-0.9-2.1-1.8-3.1-2.7c2-4.4-2.6-9.4-7.2-7.6
			c-23.5,6.7-47,13.5-70.5,20.4c-4,0.7-6.1,5.9-3.3,9c2.5,3,6.6,1.6,9.7,0.7c2.5,8.5,8.2,16.2,16.1,20.5c10.4,6.1,24,5.9,34.3-0.4
			c6.8,3.8,13.3,8.2,20.2,11.8c2.8,1.5,6.1,2.9,9.3,1.8c3-1.1,5.1-3.7,7.2-5.9c0.4,0.3,1.2,0.8,1.7,1.1c-3.3,10.4-7,21-13.8,29.7
			c-6.3,7.1-15.8,9.8-24.6,12.5c-22.7,6.2-46,10.4-69.4,11.8c-23.4,1-47,1.1-70.3-1.3c-24.4-2.9-48.7-6.9-72.1-14.7
			c-12.6-4.6-25.7-9.2-36.2-17.9c-7.4-6.1-11.5-15.1-14-24.2c4.5,3.9,9,7.8,13.4,11.8c2.9,2.6,7.1,3.9,11,2.9
			c2.7-0.7,5.2-2.1,7.7-3.2c12.6-5.8,25.2-11.6,37.9-17.3c9.8,8.5,23.6,12.2,36.3,9.4c15.3-3,28.1-15.3,32.2-30.4
			c3,0.6,6.2,2.4,9.2,0.9c2.6-1.2,3.9-4.6,2.4-7.1c-0.9-2.2-3.3-3-5.4-3.6c-29.4-8.3-58.7-16.6-88.1-24.9c-2.6-0.9-5.9-0.3-7.3,2.2
			c-1.5,2.1-0.6,4.7,0.6,6.7c-6.5-1.2-13-2.6-19.5-3.1c-5.9-0.4-9.8,4.8-13.9,8.2c-6.8-8.5-13.6-17-20.4-25.5
			c1.8-14.1,5.2-28,10.5-41.2C365.3,492.4,367.7,487.1,372.5,484.4z"/>
<path class="st0" d="M390.5,581.3c6.9,1.3,13.9,2.7,20.8,4.2c-2.6,1.9-5.7,2.8-8.6,4.2c-7.5,3.3-14.9,7-22.5,10.1
			c-2-2-4.1-3.7-6.2-5.5C381.1,592.3,385.3,586,390.5,581.3z"/>
<path class="st0" d="M658,586.1c1.7-0.8,3.3-1.7,4.9-2.4c-0.2,1.8-0.4,3.6-0.6,5.4C660.9,588.2,659.4,587.1,658,586.1z"/>
<path class="st1" d="M295.1,522.3c9.3-2,18.7-3.8,28-5.8c4-0.9,8.4-0.7,11.9,1.4c3.3,1.7,5.3,5,7.6,7.8c3.4,4.2,6.8,8.4,10.1,12.7
			c6.8,8.5,13.6,17,20.4,25.5c4.1-3.4,8-8.7,13.9-8.2c6.6,0.5,13.1,1.9,19.5,3.1c2.2,1.2,4.6,2.1,7.1,2.7c-0.4,1.8-0.9,3.7-1.3,5.6
			c-7.9-1.5-15.7-3.3-23.5-4.7c-2.6-0.5-5.3,0.4-7.2,2.2c-2.9,2.8-5.5,6-8.4,8.8c-13-16.2-25.9-32.5-38.9-48.8
			c-1.6-2.2-4.5-3.8-7.3-3c-9.7,2.1-19.4,4.3-29.1,6.4c-2.2,0.5-4.7,0.9-6.3,2.7c-2.4,2.5-2,6.9,0.9,8.9c2.2,1.7,5.1,1.1,7.6,0.6
			c8.7-2,17.5-3.9,26.2-5.8c12.9,15.9,25.6,32,38.4,48c1.8,2.2,3.4,4.9,6.3,5.8c3.1,1,6-1,8.1-3.1c3.3-3.3,6.4-7,9.8-10.2
			c7.8,1.5,15.6,3.1,23.3,4.7c0.7,4,1.9,7.8,3.5,11.6c-12,5.6-24.1,11.1-36,16.8c-8.2-7-16-14.4-24-21.5c-1.6-1.4-3.5-2.6-5.7-2.6
			c-2.7-0.1-5,1.7-7,3.2c-7.6,5.7-15.3,11.3-22.9,17.1c-2.4,1.7-4.2,4.8-2.9,7.7c1.3,3.7,6.3,5,9.3,2.6c7.7-5.4,15.1-11.3,22.8-16.7
			l0.6,0c8.3,7.1,16.3,14.7,24.5,22c2.2,1.9,5.3,1.7,7.8,0.5c13.4-6.2,26.9-12.5,40.3-18.7c1.3,1.4,2.7,2.7,4.1,4
			c-12.6,5.8-25.2,11.5-37.9,17.3c-2.5,1.1-5,2.5-7.7,3.2c-3.9,0.9-8.1-0.3-11-2.9c-4.4-4-8.9-7.9-13.4-11.8
			c-2.3-2.1-4.7-4.1-7.1-6.1c-1.7,1.3-3.4,2.5-5.1,3.8c-5.2,3.7-9.8,8.3-15.6,11c-7,3-15.7-2.4-16.2-10c-0.7-5.5,3.1-10.2,7.4-13
			c6.7-5.1,13.4-10.1,20.1-15.2c3.3-2.9,7.6-4.4,12-4.4c-3.5-6.2-8.6-11.3-12.8-17c-5.1-6.3-10.2-12.7-15.2-19
			c-8.3,1.5-16.6,3.5-25,4.9c-6.7,1.1-13.7-4.3-13.8-11.2C284.6,529,289.3,523.5,295.1,522.3 M390.5,581.3
			c-5.2,4.7-9.4,11.1-16.5,13c2.1,1.8,4.2,3.5,6.2,5.5c7.6-3,15-6.8,22.5-10.1c2.8-1.5,6-2.4,8.6-4.2
			C404.4,584,397.4,582.5,390.5,581.3z"/>
<path class="st1" d="M685.3,556.7c3.8-3.4,8.4-7,13.8-6c6.9,0.8,11.9,8.4,9.8,15.1c-1.2,4.7-5.3,7.5-8.8,10.4
			c-3.4,2.7-6.5,6.2-11,7c-5.4,1.2-10.3-2.1-14.7-4.7c-3.9,1.7-7.7,3.6-11.5,5.3c-1.7,0.7-3.3,1.6-4.9,2.4c1.4,1,2.9,2,4.4,3
			c3.5,2.4,6.9,4.8,10.3,7.2c3.8,2.6,7.4,5.3,11.2,7.8c5.7-1.1,11.4-2.4,17.1-3.3c6.2-0.9,12.8,3.7,13.6,10
			c1.1,6.1-3.3,12.3-9.2,13.7c-7.4,1.7-14.9,3.1-22.4,4.4c-6.5,1.2-11.5-3.8-16.5-7c-3.2-2.2-6.4-4.5-9.7-6.7
			c-0.4-0.3-1.2-0.8-1.7-1.1c-2.2,2.2-4.2,4.8-7.2,5.9c-3.2,1-6.5-0.4-9.3-1.8c-6.9-3.7-13.4-8-20.2-11.8c1.9-1.2,3.7-2.6,5.5-4
			c5.5,3,11,6.2,16.5,9.1c2.4,1.4,5.6,1.4,7.7-0.4c2-1.8,3.5-4.1,5.2-6.2c7,5.5,13.9,11.1,21,16.7c1.8,1.4,4,2.4,6.3,1.9
			c7.2-1.4,14.5-2.9,21.7-4.3c2.9-0.5,6.4-1.6,7.2-4.8c1.4-4-2.4-8.5-6.6-7.7c-7.2,1-14.2,2.9-21.3,4c-1.3,0.4-2.3-0.6-3.2-1.3
			c-6.8-5.5-13.7-11-20.5-16.4c-2.2-1.8-5.1-3.4-7.9-2.1c-3.4,1.5-5.1,5.2-7.4,7.9c-3.8-2-7.5-4.1-11.3-6.2
			c1.5-3.3,2.6-6.7,3.2-10.3c2.1,3.2,6,6.2,10,4.1c9.9-4.8,19.5-10.1,29.4-14.8c3.7,2.1,7,5.3,11.2,6.3c4.5,0.4,7.5-3.8,10.8-6.2
			c2.9-2.7,7.3-4.7,8-9c0.8-4.4-4.2-8.2-8.2-6.3c-3.9,2-6.8,5.4-10.4,7.9c-4.3-2.3-8.7-7.5-14-5.3c-9.5,4.5-18.7,9.7-28.2,14.2
			c-2-2.7-4.1-5.4-7.1-6.9c1.3-0.7,2.4-1.7,3.4-2.8c1,0.9,2,1.8,3.1,2.7c7.1-3.3,14.3-6.7,21.4-10c3.8-1.7,7.5-4,11.8-3.8
			C679.2,553,682.3,554.9,685.3,556.7z"/>
<path class="st2" d="M297.9,528c9.7-2.1,19.4-4.3,29.1-6.4c2.8-0.8,5.6,0.8,7.3,3c13,16.2,25.9,32.5,38.9,48.8
			c2.9-2.9,5.5-6,8.4-8.8c1.9-1.9,4.6-2.8,7.2-2.2c7.9,1.4,15.7,3.2,23.5,4.7c3.6,0.7,7.3,1.5,11,2.2c0.4-1.6,0.7-3.2,1.1-4.8
			c20,5.7,40,11.3,60,17c-2.6,9.2-9.4,17.2-18.3,20.8c-10.9,4.6-24.2,2.2-33-5.7c-3.6,1.6-7.1,3.3-10.7,5
			c-13.4,6.2-26.9,12.5-40.3,18.7c-2.5,1.3-5.6,1.5-7.8-0.5c-8.2-7.2-16.2-14.8-24.5-22l-0.6,0c-7.7,5.4-15.1,11.3-22.8,16.7
			c-3,2.4-8,1-9.3-2.6c-1.3-2.9,0.5-6,2.9-7.7c7.6-5.7,15.3-11.3,22.9-17.1c2.1-1.5,4.3-3.3,7-3.2c2.2,0,4.1,1.2,5.7,2.6
			c8,7.1,15.8,14.5,24,21.5c12-5.7,24-11.2,36-16.8c3.4-1.6,6.8-3.1,10.1-4.7c-0.6-1.5-1.1-3-1.7-4.5c-4-0.8-8-1.6-11.9-2.4
			c-7.8-1.6-15.6-3.2-23.3-4.7c-3.4,3.3-6.5,6.9-9.8,10.2c-2.1,2.1-5,4.1-8.1,3.1c-2.9-0.9-4.5-3.7-6.3-5.8
			c-12.8-16-25.5-32.1-38.4-48c-8.7,2-17.5,3.8-26.2,5.8c-2.5,0.5-5.4,1.1-7.6-0.6c-2.9-1.9-3.2-6.4-0.9-8.9
			C293.2,528.9,295.7,528.5,297.9,528z"/>
<path class="st2" d="M695.7,556.6c4-1.9,9,1.9,8.2,6.3c-0.8,4.3-5.2,6.2-8,9c-3.3,2.4-6.3,6.5-10.8,6.2c-4.2-1-7.5-4.2-11.2-6.3
			c-9.9,4.8-19.5,10.1-29.4,14.8c-3.9,2.1-7.9-0.9-10-4.1c-0.8-0.9-1.5-1.8-2.2-2.7c-3,1.1-6.1,2.1-9.1,3.1
			c-0.5,1.5-1.1,2.9-1.6,4.4c3.2,1.8,6.5,3.6,9.8,5.4c3.8,2.1,7.5,4.2,11.3,6.2c2.3-2.8,4-6.4,7.4-7.9c2.8-1.3,5.8,0.3,7.9,2.1
			c6.8,5.5,13.7,10.9,20.5,16.4c0.9,0.7,1.9,1.7,3.2,1.3c7.1-1.2,14.2-3,21.3-4c4.2-0.8,8,3.7,6.6,7.7c-0.9,3.2-4.3,4.4-7.2,4.8
			c-7.3,1.4-14.5,2.9-21.7,4.3c-2.3,0.5-4.6-0.4-6.3-1.9c-7-5.5-13.9-11.2-21-16.7c-1.7,2.1-3.1,4.4-5.2,6.2
			c-2.1,1.8-5.3,1.8-7.7,0.4c-5.5-2.9-11-6.1-16.5-9.1c-3.5-2-7-4-10.6-5.8c-5.2,3-11.4,4.5-17.3,3c-8.2-1.6-15.2-8.3-17.2-16.5
			c19-5.5,38.1-11,57.1-16.6c3,1.5,5.1,4.3,7.1,6.9c9.5-4.5,18.7-9.7,28.2-14.2c5.3-2.3,9.7,3,14,5.3
			C688.8,562,691.8,558.7,695.7,556.6z"/>
</svg>
