<svg version="1.1" xmlns="http://www.w3.org/2000/svg" xmlns:xlink="http://www.w3.org/1999/xlink" x="0px" y="0px" viewBox="0 0 1000 1000" style="enable-background:new 0 0 1000 1000;" xml:space="preserve">
<style type="text/css">
	.st0{fill:#EDEDED;}
	.st1{fill:#959898;}
	.st2{fill:#000000;}
</style>
<path class="st2" d="M928.9,560c-0.1-14,1-28-0.5-42c-1.6-16.6-12.9-31.2-27.2-39.2c-13.2-7.5-28.3-10.1-43.2-11.2c0-155.9,0-311.7,0-467.6
	h-19.4c0,155.7,0,311.4,0,467c-19,0.8-38.6,6.5-52.9,19.6c-8.5,7.6-14.2,18.2-15.1,29.6c-1.2,16.5-1.5,33.2-1.6,49.8
	c0.3,20,0.2,40,0.9,60c0.5,11,2.3,22.5,8.4,32c6.5,9.9,16.5,16.9,27.3,21.5c16.5,7,34.8,9.2,52.5,7.4c16-1.2,32.1-5.5,45.8-14.1
	c8.1-5,15.2-12,19.3-20.7c3.3-6.9,4.4-14.6,5.1-22.1C929.8,606.7,928.7,583.3,928.9,560z"/>
<path class="st0" d="M863.3,489.9c3.9-1.3,8.1,0.3,12,0.9c7.9,2,15.8,5.4,21.7,11.2c2.2,1.8,1.9,5.9-1,6.7c-2.5,0.9-4.3-1.2-6-2.6
	c-7-5.9-16.2-8.1-25-9.1C861.3,496.8,860,491.5,863.3,489.9z"/>
<path class="st1" d="M903.9,522.5c1.6-0.3,3.3-0.8,5-0.5c1.1,3,1,6.4,0.4,9.5c-0.4,2.5-3.3,2.8-5.3,3.5
	c-16.4,3.9-32.9,7.7-49.3,11.6c-4.2,0.7-8.5,2.8-12.8,1.9c-8-1.8-15.9-4.1-23.9-5.6c-3.8-0.9-7.6,3.4-6,7.1c0.9,2.9,4.2,3.7,6.8,4.3
	c7.4,1.7,14.9,3.6,22.3,5.4c3.6,1,7.2-0.2,10.8-1c16.4-3.9,32.8-7.7,49.3-11.6c2.7-0.7,5.5-1.1,8.3-1.5c0.2,3.2,1,6.6-0.4,9.6
	c-2.4,1.7-5.5,2-8.2,2.8c-17.6,4.2-35.2,8.2-52.8,12.4c-4.6,1.4-9.1-0.8-13.5-1.7c-5.6-1.2-11-3-16.6-3.8c-3.9-0.5-7.1,4-5.3,7.5
	c1.7,3.5,6.1,3.6,9.4,4.6c7.7,1.6,15.2,4.2,23,5.1c21.6-4.2,42.8-10.3,64.4-14.5c0,3.8,1.1,8.3-1.2,11.6c-7.2,2.8-14.9,3.7-22.3,5.7
	c-13.7,3.1-27.2,6.7-41,9.4c-9.1-1.3-17.8-4.6-26.9-6c-3.8-0.5-7.1,3.7-5.5,7.2c1,2.8,4.2,3.5,6.7,4.2c7.2,1.7,14.4,3.4,21.6,5.2
	c2.4,0.7,4.9,0.7,7.3,0.1c14.6-3.5,29.2-6.9,43.8-10.3c5.7-1.3,11.4-3,17.3-3.5c0,3.5,0.9,7.2-0.5,10.5c-20,5.2-40.2,9.5-60.3,14.4
	c-4.7,1.5-9.3-0.7-13.9-1.6c-5.6-1.2-11-3-16.7-3.8c-3.9-0.5-7,4-5.3,7.5c1.7,3.5,6.1,3.6,9.4,4.6c7.7,1.6,15.2,4.2,23,5.1
	c12.7-2.4,25.2-5.8,37.9-8.6c8.8-1.8,17.4-4.6,26.4-5.7c0.6,3.5,1.1,7.2,0.1,10.7c-1.7,1.6-4.3,1.8-6.4,2.4
	c-19.4,4.3-38.6,9.3-58,13.4c-9.1-1.3-17.9-4.6-27-6c-3.8-0.5-7,3.7-5.5,7.2c1.5,3.8,6.2,3.9,9.6,4.9c7.7,1.5,15.1,4.2,22.9,5.1
	c13-2.4,25.8-6,38.7-8.8c8-1.7,15.8-4.3,23.9-5c-0.5,8.2-6.5,14.5-12.7,19.2c-8.4,6.3-18.8,8.8-28.9,10.8
	c-15.3,3.1-31.4,2.3-46.2-2.4c-9-3.1-18-7.6-24.3-15c-3-3.4-4.7-7.7-5.1-12.1c4-0.2,8.4,2.6,12.1,0.1c3-2,2.9-6.9-0.1-8.8
	c-3.9-2.3-8.7-2.2-12.6-4.5c-1.6-3.2-0.6-7.1-0.7-10.6c3.3,0.6,6.6,1.6,9.9,1.9c4-0.1,6.7-5.3,4.1-8.5c-2.9-3.3-7.9-3.1-11.8-4.7
	c-4.9-0.9-2.5-7-2.9-10.5c3.9,0.4,7.7,2,11.7,2c4.5-0.5,6.2-6.9,2.5-9.4c-4.3-2.7-9.7-2.5-14-4.9c-1-3.2-0.7-6.8,0-10
	c4-1.2,8.6,2.9,12.7,0.8c3.5-1.6,3.8-7.1,0.5-9.1c-4.1-2.3-9.1-2.3-13.2-4.5c-1.8-3.3-1-7.3-0.8-10.8c4.1,0.3,8,2.2,12,2
	c4.2-0.6,5.8-6.6,2.5-9.2c-4.1-2.8-9.5-2.7-13.8-4.9c-1.1-3.6-0.5-7.5,0.2-11.1c2.4-0.8,5,0,7.4,0.6c15.6,3.9,31.1,8.4,46.8,11.8
	c2.2,0.5,4.5-0.1,6.6-0.6C867.6,531,885.8,526.9,903.9,522.5z"/>
</svg>
