<svg version="1.1" xmlns="http://www.w3.org/2000/svg" xmlns:xlink="http://www.w3.org/1999/xlink" x="0px" y="0px" viewBox="0 0 1000 1000" style="enable-background:new 0 0 1000 1000;" xml:space="preserve">
<style type="text/css">
	.st0{fill:#FFD400;}
	.st1{fill:#F23DB6;}
	.st2{fill:#000000;}
</style>
<path class="st2" d="M463.4,392.6c31.7-9.6,66.1-10.3,97.9-0.8c19.5,5.6,38.3,14.2,54.4,26.5c21.6,16.8,37.2,40.4,47.2,65.7
	c7,19.3,11.3,39.5,12.4,60c1.5,26.7-1,53.8-9.2,79.3c-4,11.9-9.4,23.3-15.6,34.2c-8.2,13.9-18.8,26.4-31.1,36.8
	c-3.8,3-7.5,6.1-11.7,8.3c-3.3,2.1-8.2-0.8-8-4.7c0-2.5,1.9-4.2,3.8-5.5c5.5-3.7,10.8-7.9,15.5-12.6c2.7-2.8,5.6-5.5,6.9-9.2
	c-11.9,2.9-23.7,6.3-35.8,7.9c-29.1,4.6-58.6,6.4-88,4.9c-17.5-0.4-34.8-2.5-52-5.6c-20.7-3.7-41.4-7.8-61.2-15.1
	c-1.5-0.4-2.9-0.8-4.4-1c0.2,1.7,0.6,3.5,1.6,5c8.3,13.5,20.9,23.4,33.5,32.6c3.4,2.1,3.2,8-0.7,9.5c-3.1,1.5-6.1-0.8-8.7-2.4
	c-22.3-14.4-39.7-35.6-52-59c-9.4-17.9-14.8-37.8-17.2-57.8c-2.7-20.5-2-41.3,1.2-61.6c4.9-30.6,18-60.2,38.9-83.3
	C403.1,420.6,432,402.4,463.4,392.6 M495.5,397.8c-33.3,3.9-65.1,18.4-90.5,40.2c-5.9,5.5-12.6,11.1-15,19.1
	c-1.4,3.9-0.6,8.6,2.2,11.6c2.8,3,6.9,4.2,10.8,5.1c18.1,4,36.3,7.5,54.7,9.9c21.6,2.6,43.4,4.4,65.2,5.2
	c22.4,0.9,44.8,1.1,67.2-0.5c14-0.9,28-1.5,41.9-3.7c4-0.6,8.8-2,10.4-6.1c1.9-5.1-1-10.2-3.3-14.6c-8.1-15.2-19.6-28.5-33.5-38.6
	c-14.3-10.4-30.7-17.5-47.6-22.4C537.8,397.1,516.4,395.2,495.5,397.8"/>
<path class="st0" d="M374.3,483.6c3.1-1,6.5-0.6,9.7-0.1c6.2,1,12.4,2.5,18.5,3.8c23.2,5.1,46.8,8.4,70.3,11.4
	c25.3,2.3,50.7,4.2,76.1,4.1c20.5-0.6,41.1-0.4,61.5-2.6c10.9-1.1,21.7-2.4,32.5-4.2c3-0.4,6.5-0.9,9.1,1c3,2.3,4.3,6,5.3,9.4
	c2.6,9.2,3.5,18.7,4.8,28.1c2.4,17.1,2.2,34.4,0.5,51.5c-1.1,11.6-3.7,23-7.4,34c-2.9,8.8-6.5,17.6-12.2,24.9
	c-6.3,7.1-15.8,9.8-24.6,12.5c-22.4,6.1-45.3,10.2-68.5,11.7c-25.9,1.1-52,1.2-77.7-2c-27-3.6-54.2-8.5-79.4-19.1
	c-9-3.8-18-8.1-24.9-15.1c-6.2-6.3-9.5-14.7-11.7-23.1c-4.6-17.9-5.6-36.6-4.9-55c1-20.2,4.7-40.3,12.4-59.1
	C366,491,368.9,485.4,374.3,483.6"/>
<path class="st2" d="M383.4,531.5c1.9-1.2,3.1,0.9,3.6,2.5c3.1,7.8,8.9,15.2,17.2,17.5c9.6,2.3,19.1-1.5,28.8-1.2c23.6-0.4,47.5,11.6,59.9,31.9
	c2.3,4.1,5.2,8.1,5.9,12.8c0.5,4.9-4.8,8.8-9.4,7.5c-3.8-0.8-5.6-4.5-7.5-7.5c-8.3-13.2-22.5-22.5-37.9-24.8
	c-15-2.5-30.7,1.2-43.2,9.7c-3.9,2.7-8.6,5.3-13.5,3.5c-8.3-2.9-14.3-10.2-18.3-17.8c-1.2-1.5-0.5-4.1,1.8-3.5
	c2.6,2.1,4.9,4.9,8.3,5.6c6,1.6,12.3-4.7,10.9-10.7c-1.6-6.5-5.8-12.3-6.8-19C383.1,535.8,382.2,533.4,383.4,531.5z"/>
<path class="st2" d="M643.6,551.3c1.3-1.2,3.4,0,3.1,1.8c-0.2,5.4-3.2,10.1-6.5,14.2c-1.8,2.2-3.4,5.4-1.5,8.1c2,4.3,8.2,5.5,11.7,2.3
	c1.6-1,3.3-4.2,5.4-2.3c1.3,4.1-0.9,8.3-2.6,12c-3.1,5.6-8,11.8-15,11.8c-5.3-0.8-8.5-5.7-12.9-8.4c-20-12.4-48-8.3-64.1,8.6
	c-2.5,2.5-4.4,6-8.1,6.8c-5,1.3-10.2-4-8.5-9c2-7.2,7.1-13,12.2-18.1c12.4-11.8,30.2-16.9,47.1-15.8c8.6-0.2,17.3,3.3,25.8,0.6
	C636,561.7,640,556.3,643.6,551.3z"/>
<path class="st1" d="M392.4,601.6c11-2.7,22.6-0.5,33.2,3c7.7,2.8,15.7,6.4,21,12.8c3,3.4,3.6,9,0.2,12.3c-4.4,4.2-11,4.5-16.7,4.5
	c-12.5-0.7-25-4.1-35.7-10.7c-4.5-3-9.4-6.9-10.1-12.6C383.9,606.2,388.2,602.7,392.4,601.6z"/>
<path class="st1" d="M603.4,619.6c7.5-1.4,15.5-1.7,22.7,1.2c3.7,1.4,7.2,4.8,6.8,9.1c-0.4,5.1-5,8.5-9.3,10.7
	c-8.7,4.1-18.8,5.5-28.3,4.2c-4.5-0.9-9.6-2.8-11.7-7.3c-1.7-3.5,0.1-7.6,2.7-10.1C591,623,597.2,620.9,603.4,619.6z"/>
</svg>
