<svg version="1.1" xmlns="http://www.w3.org/2000/svg" xmlns:xlink="http://www.w3.org/1999/xlink" x="0px" y="0px" viewBox="0 0 1000 1000" style="enable-background:new 0 0 1000 1000;" xml:space="preserve">
<style type="text/css">
	.st0{fill:#EDEDED;}
	.st1{fill:#000000;}
</style>
<path class="st1" d="M670.3,516.2c-0.4-2.8-1.3-6-4.1-7.3c-4.1-2-8.5-3-12.8-4.4c-31.1-9.4-62.5-18.1-94.6-23.7c-23.6-4.4-47.2-8.5-71-11.7
	c-25.8-3.3-51.8-5.1-77.9-6c-4.9,0-9.8-0.4-14.6,0.6c-3.6,0.5-5.8,3.8-6.9,7c-4.9,12.5-8.6,25.7-9.9,39.1
	c-1.8,19.1,4.5,38.5,16.4,53.4c10.4,13.2,25.3,22.4,41.2,27.7c19.2,6.3,40,7.7,59.9,4c15.8-2.7,30.6-9.1,46.1-12.8
	c8-1.9,16.6-2.8,24.5,0.2c11.5,4.5,20.5,13.4,31.7,18.4c11.7,5.6,25.8,6.8,37.9,1.6c14.8-6.3,25.6-19.8,31.1-34.7
	C673.5,551.2,672.9,533.2,670.3,516.2z"/>
<path class="st0" d="M443.1,475c9.9,0.7,19.7,1.6,29.6,2.6c-22.6,27-45.2,54-67.7,81c-5.7-6.6-10-14.4-12.8-22.6
	C409.1,515.7,426.2,495.4,443.1,475z"/>
<path class="st0" d="M425.6,574.8c25.8-31.1,51.7-62.1,77.5-93.2c9.3,1.4,18.6,2.9,27.9,4.5c-27,32.5-54,64.9-81,97.4
	C441.5,581.7,433.3,578.8,425.6,574.8z"/>
</svg>
