<svg version="1.1" xmlns="http://www.w3.org/2000/svg" xmlns:xlink="http://www.w3.org/1999/xlink" x="0px" y="0px" viewBox="0 0 1000 1000" style="enable-background:new 0 0 1000 1000;" xml:space="preserve">
<style type="text/css">
	.st1{fill:%%ST2%%;}
	.st2{fill:%%ST1%%;}
</style>

<path class="st2" d="M789.6,760.8c8.4-1.9,17.6-0.9,24.9,3.7c7.1,4.5,10.9,13.5,9.2,21.7c-1.4,8.2-6.5,15-10.1,22.3
	c-1.6,3.1-2.5,7.8,0.9,10.1c2.3,2,5.4,1.1,8.1,0.7c19.3-4.1,39.6-6,58.9-0.6c11.7,3.3,22.7,11.1,27.6,22.5c3.2,6.8,3.4,14.6,2.6,22
	c6,7.9,9.9,17.8,8.9,27.9c-1,9-5.6,18-13.7,22.5c-4.7,2.6-10.2,2.4-15.5,2.3c0.1,7.3-1.8,15.2-7.4,20.2c-6.6,6.2-16.7,7.1-25,4.3
	c-8.8-3-16-9.5-24.9-12.2c-11.3-3.9-23.3-1.4-34.5,1.5c-15.1,3.9-31,5.7-46.3,2.1c-8-1.9-15.7-5.6-21.7-11.3
	c-5.6,4.5-13.8,6.1-20.6,3.9c-9.3-3.8-12.9-14.2-15.1-23.2c-3.2-10.4-4.2-21.4-4.1-32.2c0.4-13.1,1.4-26.3,5.2-38.9
	c2.7-8.1,7.1-16,14-21.3c5.4-4,12.7-4,18.8-1.6c5,1.6,9.1,4.8,13.3,7.9c2.4-1.3,4.9-2.3,7.4-3.4c1-9.2,3-18.4,7.8-26.4
	C764.8,773.3,776.2,763.8,789.6,760.8"/>
<path class="st1" d="M772.8,783.9c4.5-6.3,11.7-10.3,19.2-11.9c6-1,12.8-0.7,17.5,3.6c3.5,3.6,2.8,9.3,0.6,13.4
	c-3.9,6.9-8.5,13.5-10.7,21.2c-2,6.3-2.8,13-1.5,19.5c-2.3,1-5,1.8-5.9,4.4c-0.5,2.6,2.1,5,4.6,4.5c20.8-7.6,43.3-11.6,65.5-9.3
	c10.7,1.3,22,4.1,29.8,12c4.5,4.1,7.2,10.2,6.5,16.3c-5.3-2.6-10.2-6.3-16.1-7.8c-23.4-7.3-48.5-5.2-72.2-0.4
	c-2.6,0.6-5.9,0.6-7.5,3.1c-1.3,2.1,0.2,4.8,2.4,5.4c1.5,0.7,3.2-0.2,4.8-0.4c21.4-4.5,43.8-6.5,65.2-1.7c10.6,2.3,20.9,8,26.6,17.5
	c3.5,5.9,4.6,12.9,3.6,19.6c-0.8,3.3-2.5,7.3-6.2,8.1c-5,1-10-0.4-14.9-1.5c-2.9-7-7-13.8-13-18.6c-8.8-7.8-20.5-11.8-32.1-12.9
	c-9.8-1.3-19.8-0.3-29.4,1.7c-2.4,0.3-5.1,2.6-4.1,5.3c0.6,2.2,3.2,3.1,5.3,2.5c11.2-2.4,22.9-2.8,34.1-0.6
	c7.9,1.5,15.7,4.9,21.7,10.4c7.8,6.8,12.4,17.3,11.7,27.7c-0.5,4.3-1.5,9.4-5.6,11.6c-6,2.6-12.2-0.9-17.3-3.9
	c-15-9.5-32.2-16.9-50.3-16.3c-2.5-0.2-5.3,1.1-5.9,3.8c-0.6,1.9,2.3,2.8,1.8,4.6c-9.7,2.8-19.8,4.8-29.9,4
	c-12.9-1.1-26.7-5.1-35.5-15.3c-2.4-2.4-3.5-5.8-5.8-8.2c-2.2-2.2-6.2-0.3-6.3,2.7c0.4,3.7,4,6.4,5,9.8c-4.4,2.1-9.2,4.5-14.3,3.5
	c-2.1-0.9-3.2-3.1-4.1-5c-4.4-9.8-6-20.7-6-31.4c-0.2-14.7,1.1-29.8,6.5-43.6c2-4.4,5-10.3,10.7-10.1c4.4,0.8,8.7,3.4,11.5,6.6
	c-6.2,6.2-11.2,13.7-13.4,22.3c-3,10.6-1.2,22.5,5,31.7c1.4,2.4,5.3,2.6,6.6,0c1.4-1.9,0-4-0.9-5.6c-4-6.7-4.9-15-3.4-22.5
	c2.4-11.9,11.2-22.1,22.1-27.1c9.1-4.3,19.9-5,29.5-1.6c2.9,1.5,6.6-1.9,5.2-4.9c-0.8-2.1-3.1-2.6-5-3.3c-4.5-1.6-9.3-1.8-14-2.2
	C763.5,803.7,766.2,792.5,772.8,783.9 M782.4,838.4c-1.8,0.7-3.2,2.6-2.8,4.6c5.8,12.6,8.6,27.6,4,41.1c-0.4,2.6,2.7,5.5,5.2,4
	c2.6-1,3-4.1,3.7-6.5c3.1-13.2,0.5-27.2-4.8-39.4C787.1,840,785,837.7,782.4,838.4z"/>
	<path fill="#000000" d=" M 851.20 574.21 C 852.22 572.62 853.04 570.57 855.03 570.00 C 857.47 568.95 860.12 570.88 860.50 573.36 C 862.34 589.27 863.84 605.23 865.74 621.14 C 893.44 626.79 921.24 632.05 948.92 637.80 C 952.56 638.50 952.74 644.15 949.22 645.19 C 932.59 652.08 915.84 658.69 899.23 665.63 C 903.56 692.79 907.89 719.95 912.19 747.12 C 912.04 750.49 907.64 752.24 905.33 749.73 C 893.12 736.97 881.44 723.49 869.06 711.02 C 845.69 722.96 822.35 734.97 798.99 746.95 C 796.94 747.91 794.70 749.63 792.35 748.60 C 789.96 747.84 789.44 744.60 790.74 742.69 C 798.93 728.03 807.10 713.36 815.35 698.74 C 811.12 693.74 806.07 689.27 801.52 684.48 C 785.74 668.59 769.99 652.69 754.22 636.80 C 753.11 635.61 751.69 634.52 751.38 632.85 C 750.51 630.14 753.20 627.20 755.97 627.83 C 774.69 631.40 793.38 635.10 812.11 638.63 C 825.20 617.20 838.16 595.68 851.20 574.21 M 821.54 652.59 C 820.55 654.37 818.67 654.95 816.83 655.45 L 816.25 654.92 C 805.06 652.13 793.80 649.58 782.60 646.84 C 798.45 662.26 814.44 677.53 830.39 692.85 C 831.37 694.92 831.36 697.06 830.32 699.12 C 824.34 708.10 818.80 717.41 812.99 726.52 C 831.96 716.47 851.09 706.71 870.03 696.60 C 871.94 696.14 873.68 696.95 875.30 697.91 L 875.38 698.43 C 882.42 706.86 889.27 715.45 896.31 723.88 C 892.29 702.60 888.89 681.17 884.73 659.94 C 885.06 657.87 886.02 656.13 887.85 655.05 C 898.30 650.91 908.92 647.18 919.40 643.12 C 897.77 639.82 876.09 636.64 854.42 633.65 C 852.36 632.87 851.74 630.88 851.26 628.97 C 851.25 618.86 850.71 608.78 850.68 598.67 C 840.94 616.63 831.41 634.71 821.54 652.59 Z" />
	<path fill="#aaaaa9" d=" M 821.54 652.59 C 831.41 634.71 840.94 616.63 850.68 598.67 C 850.71 608.78 851.25 618.86 851.26 628.97 C 851.25 630.18 850.96 631.32 850.38 632.38 C 846.07 640.56 841.87 648.80 837.55 656.97 C 832.46 656.56 827.40 654.69 822.36 653.60 C 822.15 653.35 821.75 652.84 821.54 652.59 Z" />
	<path fill="#464b4b" d=" M 851.26 628.97 C 851.74 630.88 852.36 632.87 854.42 633.65 C 854.26 639.27 854.20 644.88 854.57 650.50 C 865.08 652.26 875.68 653.53 886.20 655.30 C 886.61 655.24 887.43 655.11 887.85 655.05 C 886.02 656.13 885.06 657.87 884.73 659.94 C 880.24 661.48 875.65 662.71 871.18 664.27 C 872.39 675.50 874.59 686.65 875.30 697.91 C 873.68 696.95 871.94 696.14 870.03 696.60 C 866.77 692.94 863.93 688.95 860.78 685.21 C 850.56 689.67 840.55 694.65 830.32 699.12 C 831.36 697.06 831.37 694.92 830.39 692.85 C 833.31 688.03 836.60 683.45 839.67 678.73 C 832.25 670.79 824.33 663.32 816.83 655.45 C 818.67 654.95 820.55 654.37 821.54 652.59 C 821.75 652.84 822.15 653.35 822.36 653.60 C 827.40 654.69 832.46 656.56 837.55 656.97 C 841.87 648.80 846.07 640.56 850.38 632.38 C 850.96 631.32 851.25 630.18 851.26 628.97 M 849.28 659.27 C 844.56 661.15 841.67 666.90 843.36 671.77 C 844.72 676.93 850.61 680.37 855.77 678.87 C 861.25 677.67 864.97 671.37 863.20 666.01 C 861.77 660.21 854.71 656.78 849.28 659.27 Z" />
	<path fill="#aaaaa9" d=" M 854.42 633.65 C 876.09 636.64 897.77 639.82 919.40 643.12 C 908.92 647.18 898.30 650.91 887.85 655.05 C 887.43 655.11 886.61 655.24 886.20 655.30 C 875.68 653.53 865.08 652.26 854.57 650.50 C 854.20 644.88 854.26 639.27 854.42 633.65 Z" />
	<path fill="#aaaaa9" d=" M 782.60 646.84 C 793.80 649.58 805.06 652.13 816.25 654.92 L 816.83 655.45 C 824.33 663.32 832.25 670.79 839.67 678.73 C 836.60 683.45 833.31 688.03 830.39 692.85 C 814.44 677.53 798.45 662.26 782.60 646.84 Z" />
	<path fill="#000000" d=" M 849.28 659.27 C 854.71 656.78 861.77 660.21 863.20 666.01 C 864.97 671.37 861.25 677.67 855.77 678.87 C 850.61 680.37 844.72 676.93 843.36 671.77 C 841.67 666.90 844.56 661.15 849.28 659.27 M 851.20 665.13 C 848.77 666.35 848.00 669.94 850.03 671.88 C 852.08 674.48 856.75 673.28 857.37 670.04 C 858.50 666.53 854.31 663.52 851.20 665.13 Z" />
	<path fill="#aaaaa9" d=" M 871.18 664.27 C 875.65 662.71 880.24 661.48 884.73 659.94 C 888.89 681.17 892.29 702.60 896.31 723.88 C 889.27 715.45 882.42 706.86 875.38 698.43 L 875.30 697.91 C 874.59 686.65 872.39 675.50 871.18 664.27 Z" />
	<path fill="#aaaaa9" d=" M 830.32 699.12 C 840.55 694.65 850.56 689.67 860.78 685.21 C 863.93 688.95 866.77 692.94 870.03 696.60 C 851.09 706.71 831.96 716.47 812.99 726.52 C 818.80 717.41 824.34 708.10 830.32 699.12 Z" />
</svg>
