<svg version="1.1" xmlns="http://www.w3.org/2000/svg" xmlns:xlink="http://www.w3.org/1999/xlink" x="0px" y="0px" viewBox="0 0 1000 1000" style="enable-background:new 0 0 1000 1000;" xml:space="preserve">
<style type="text/css">
	.st0{fill:#FFFFFF;}
	.st1{fill:#F32525;}
	.st2{fill:#000000;}
</style>
<path class="st2" d="M473.6,622.5c11.2-4.6,23.7-5.2,35.5-2.6c15,3.2,28.8,10.3,42.9,16.1c11.1,4.4,23,7.5,35,7.3c9.1-0.5,18.2-1.6,26.8-4.5
	c2.8-1,6.8-1.2,8.5,1.7c2.2,3,0,7.4-3.4,8.3c-12.2,4.2-25.4,5.9-38.3,5.6c-5.2,12.8-10.4,25.5-15.5,38.4c5.5,2.4,11.4,5.1,15.2,10
	c2.7,3.3,0.1,9-4.2,8.9c-2.9,0.2-4.5-2.5-6.5-3.9c-6.1-4.7-13.9-6.3-21.4-7.2c-21.4-2.6-42.9,4.7-64.2,0.5
	c-10.7-2-21.4-6.8-28.2-15.5c-8.8-10.9-10.7-26.5-5.6-39.4C454.2,635.4,463.1,627,473.6,622.5"/>
<path class="st2" d="M435.4,626.5c4.8-1.6,9.1,4.7,5.7,8.5c-6.1,6.7-7.8,15.8-8.6,24.5c-1.2,5.5-9.9,5-10.7-0.5c-0.2-8.9,2.2-18,6.7-25.6
	C430.3,630.8,432.2,627.6,435.4,626.5z"/>
<path class="st0" d="M484,630.8c9.5-2.3,19.5-1.3,28.8,1.5c19.2,5.6,36.5,16.8,56.3,20.4c-1.9,4.6-3.7,9.2-5.6,13.7
	c-34.3-5.8-68.6-11.4-102.9-17.2C464.9,639.8,474,633,484,630.8z"/>
<path class="st0" d="M458.4,660.3c33.6,5.5,67.1,11.2,100.7,16.7c-1.2,4.5-3.3,8.6-4.9,13c-15.3-2.7-30.7-0.4-46,0.8
	c-12,1-24.8,0.5-35.6-5.3C463.6,680.5,458,670.5,458.4,660.3z"/>
<path class="st2" d="M671.8,525.1c-0.3-4.1-0.2-8.4-1.6-12.3c-1-3-4-4.2-6.7-5.2c-7.8-2.7-15.8-5-23.8-7.4c-26.4-7.5-53-14.6-80.1-19.4
	c-22.2-4.1-44.4-7.8-66.7-11c-27.5-3.8-55.1-5.8-82.8-6.7c-4.9,0-9.9-0.4-14.7,0.6c-3.9,0.9-5.6,5.2-7,8.5
	c-5.6,13.3-9.1,27.5-9.7,41.9c-0.7,20.4,7.6,40.8,22,55.3c10.6,10.7,24.2,18,38.6,22.3c23.6,7.1,49.3,6.4,72.8-0.8
	c14.2-3.9,28.1-10.2,43-10.8c11.7-0.5,21.5,6.9,30.8,13.1c8.4,5.8,17.8,10.7,28.1,11.9c11.2,1.6,22.8-1.6,31.8-8.3
	c12.2-9.1,20.8-22.8,24.1-37.7C672.7,548,672.2,536.4,671.8,525.1z"/>
<path class="st1" d="M530.2,475.3c156.6-67.4,313.3-134.6,469.8-202v17.2c-179.9,77.4-359.8,154.5-539.7,231.9
	c-4.8,1.6-7.7,7.3-5.6,12.1c2,4.8,8.2,6.4,12.7,4C644.9,462.2,822.5,386,1000,309.6v16.1c-129.3,55.7-258.8,111.2-388.1,166.9
	c-36,15.5-72,30.9-108,46.5c-2.7,10.9-9.6,20.8-19.4,26.4c-10.4,6.2-23.6,7.4-35,3.1c-11-3.9-20.1-12.9-24.2-23.8
	c-4-10.1-3.6-21.8,0.9-31.8c5.3-12.2,17-21.3,30-23.6c9.9-2.1,20.2,0.3,28.9,5.2C500,488.2,515.1,481.7,530.2,475.3 M436.3,509.3
	c-8.9,11.8-8.8,29.4,0.3,41.1c8.5,11.7,24.7,16.8,38.4,12.2c9.8-3.1,17.9-10.9,21.7-20.5c-7.4,3-14.7,6.3-22,9.4
	c-10.8,5-24.9,1.2-30.9-9.2c-4.2-6.7-4.7-15.6-1.2-22.8c2.6-5.5,7.4-9.7,12.9-12.2c7.4-3.3,14.9-6.4,22.3-9.6
	C463.4,491.1,445.3,496.6,436.3,509.3z"/>
<path class="st1" d="M668.8,509.7C779.2,468.2,889.7,427,1000,385.4v16.4c-128.1,48-256.4,95.9-384.5,143.8
	c-2.4,0.9-4.9,2.6-5.3,5.3c-0.7,2.8,0.9,6,3.6,7.1c2.2,1,4.7,0.4,6.9-0.4c126.4-47.3,252.9-94.5,379.3-141.9v15.6
	c-110.2,41.4-220.5,82.7-330.8,124.1c-6,2.2-12,4.5-18,6.7c-3.4,9.9-11,18.3-20.9,22c-14.7,6-32.8,0.2-41.5-13
	c-8.5-12.1-8-29.7,1.3-41.2c7.4-9.6,20-14.9,32-13.3c5.2,0.6,10,2.6,14.6,5C647.4,517.7,658.1,513.7,668.8,509.7 M601,527.1
	c-10.8,7.2-15.7,21.8-11.4,34c4,12.6,17.4,21.3,30.5,20c10.1-0.6,19.3-7.1,23.9-16c-6.1,2.1-12.1,4.6-18.2,6.7
	c-6.4,2.2-13.8,1.6-19.5-2.2c-7.3-4.7-11.2-14.2-9.1-22.6c1.5-6.9,6.8-12.6,13.2-15.3c6.2-2.6,12.6-4.7,18.9-7.3
	C620.2,520.5,609.2,521.3,601,527.1z"/>
<path class="st0" d="M436.3,509.3c9.1-12.7,27.2-18.2,41.5-11.5c-7.4,3.2-14.9,6.3-22.3,9.6c-5.5,2.5-10.3,6.7-12.9,12.2
	c-3.5,7.1-3.1,16,1.2,22.8c6,10.4,20.2,14.2,30.9,9.2c7.3-3.1,14.6-6.4,22-9.4c-3.8,9.6-11.9,17.3-21.7,20.5
	c-13.7,4.6-29.9-0.4-38.4-12.2C427.5,538.7,427.4,521.2,436.3,509.3z"/>
<path class="st0" d="M460.3,522.3c179.9-77.3,359.9-154.5,539.7-231.9v19.2C822.5,386,644.9,462.2,467.4,538.4
	c-4.5,2.4-10.6,0.7-12.7-4C452.6,529.6,455.5,523.9,460.3,522.3z"/>
<path class="st0" d="M615.5,545.7c128.2-48,256.4-95.8,384.5-143.8v14c-126.4,47.4-252.9,94.5-379.3,141.9c-2.2,0.8-4.7,1.4-6.9,0.4
	c-2.7-1.1-4.3-4.3-3.6-7.1C610.6,548.3,613.1,546.5,615.5,545.7z"/>
<path class="st0" d="M601,527.1c8.2-5.8,19.2-6.6,28.5-2.8c-6.2,2.6-12.7,4.6-18.9,7.3c-6.5,2.7-11.7,8.4-13.2,15.3
	c-2.2,8.4,1.7,17.9,9.1,22.6c5.6,3.8,13.1,4.4,19.5,2.2c6.1-2,12.1-4.6,18.2-6.7c-4.6,8.9-13.8,15.4-23.9,16
	c-13.2,1.3-26.5-7.3-30.5-20C585.3,548.9,590.2,534.3,601,527.1z"/>
</svg>
