<svg version="1.1" xmlns="http://www.w3.org/2000/svg" xmlns:xlink="http://www.w3.org/1999/xlink" x="0px" y="0px" viewBox="0 0 1000 1000" style="enable-background:new 0 0 1000 1000;" xml:space="preserve">
<style type="text/css">
	.st0{fill:%%ST0%%;}
	.st1{fill:%%ST1%%;}
	.st2{fill:%%ST2%%;}
</style>
<path class="st0" d="M381.6,444.5c34.8-38.3,86.5-61.4,138.5-59.4c20.3,0.6,40.2,5.3,59.1,12.7c15.7,6.2,30.5,14.7,43.2,25.9
	c22.8,20.7,38.6,48.7,46.3,78.4c6.4,23.6,8.2,48.4,6.5,72.8c-1.2,18.7-4.8,37.3-11.3,54.8c-6.1,15.3-13.5,30.3-23.8,43.2
	c-9,11.2-19.2,21.8-31.5,29.4c-2.6,1.8-6.6,1.1-8-1.8c-1.7-2.7,0-6.1,2.5-7.6c6.3-4.2,12.3-9,17.5-14.5c2.1-2.3,4.6-4.6,5.3-7.7
	c-9.5,2.3-18.9,5.1-28.6,6.8c-25.1,4.4-50.6,6.8-76.1,6.6c-19.7-0.3-39.5-0.9-59-4.1c-21.9-3.5-43.8-7.5-65-14.2
	c-4.2-1.2-8.2-3.4-12.6-3.7c0.4,4.5,3.6,7.9,6.1,11.4c8,10.4,18.5,18.4,29,26.1c3.4,2,3.3,8-0.6,9.5c-3.1,1.5-6.1-0.8-8.7-2.3
	c-21.7-14-38.8-34.5-51.1-57C349,631,343.3,610.1,340.8,589c-2.6-20.2-1.8-40.7,1.4-60.8C347.1,497.4,360.4,467.6,381.6,444.5
	 M495.5,397.8c-32.9,3.8-64.3,18-89.5,39.3c-4.6,4.1-9.2,8.2-12.8,13.3c-2.9,4.4-5.2,10.2-2.9,15.4c1.9,4.8,7.2,6.8,11.8,7.9
	c20.4,4.5,41,8.5,61.8,10.9c44.5,4.8,89.4,6.7,134.1,3.5c11.6-0.8,23.3-1.4,34.8-3.4c3.9-0.7,8.6-2.4,9.7-6.6
	c1.4-4.9-1.3-9.7-3.5-14c-8.2-15.4-19.9-28.9-34.1-39c-14.3-10.3-30.9-17.4-47.8-22.2C537.2,397,516.1,395.3,495.5,397.8"/>
<path class="st1" d="M375.2,483.3c6-1.1,11.9,0.8,17.7,1.9c19.5,4.4,39.2,8,59,10.6c22.5,3.6,45.3,5,68.1,6.2
	c16,0.9,32,0.8,47.9,0.3c24.8-0.1,49.6-2.4,74-6.2c3.3-0.4,7.1-1.2,10,0.9c3,2.2,4.3,5.9,5.3,9.3c2.7,9.7,3.7,19.8,5,29.7
	c2.1,15.6,1.9,31.3,0.6,47c-1.2,16-5.2,31.8-11.2,46.6c-2.3,5.4-5,10.7-8.7,15.3c-5.4,6.2-13.4,8.9-20.9,11.4
	c-15.4,4.7-31.2,7.7-47.1,10.2c-24.5,3.7-49.4,3.6-74.2,2.9c-21.9-0.8-43.6-4-65-8.4c-18.1-3.7-35.9-9.2-52.6-17.4
	c-7.4-3.8-14.7-8.6-19.4-15.6c-5-7.4-7.4-16.2-9.2-24.8c-3.4-16.9-4.2-34.2-3.1-51.3c1.1-19.2,4.9-38.4,12.3-56.3
	C366.2,490.6,369.3,484.8,375.2,483.3"/>
<path class="st2" d="M433.6,519.6c6.1-6.2,14.5-11.2,23.4-10.1c8.1,0.9,14.7,7,18.6,13.9c4.6,8,6.9,17.2,7.8,26.4
	c-13.8,8.1-27.6,16.3-41.4,24.4c-1.5,0.9-3.2,2-3.3,3.9c-0.1,2,1.5,3.3,3,4.2c11.3,7.1,22.7,14.1,34,21.2c-5,12-11.7,24-22.6,31.7
	c-6.6,4.8-15.8,6.8-23.4,3.1c-9.6-4.6-14.8-14.8-17.6-24.6c-4.8-17.9-3.6-37,0.9-54.8C417,544.6,423.1,530.4,433.6,519.6z"/>
<path class="st2" d="M606.8,529.8c4.3-3.9,10.5-6.3,16.3-4.6c6.2,1.6,10.6,6.7,13.5,12.1c3.3,5.9,5.1,12.5,6.3,19.1
	c-10.3,6.9-20.6,13.8-30.8,20.7c-1.7,1.1-3.5,2.7-3.3,5c0.2,2.2,2.4,3.2,4.1,4.1c9.2,4.3,18.4,8.7,27.5,13.1
	c-3.1,10.1-7.5,20.4-16.1,27c-5.1,4.1-12.7,5.3-18.4,1.8c-8.1-4.8-12.2-14-14.5-22.8c-4.1-16-3.5-33.1,0.8-49
	C595,546.6,599.2,536.7,606.8,529.8z"/>
</svg>
