<svg version="1.1" xmlns="http://www.w3.org/2000/svg" xmlns:xlink="http://www.w3.org/1999/xlink" x="0px" y="0px" viewBox="0 0 1000 1000" style="enable-background:new 0 0 1000 1000;" xml:space="preserve">
<style type="text/css">
	.st0{fill:%%ST0%%;}
	.st1{fill:%%ST1%%;}
	.st2{fill:#000000;}
</style>
<path class="st2" d="M800.9,515c9.1-14.5,26.8-20.6,43.2-21.3c19.5-0.5,39,4.1,56.5,12.7c11.9,5.7,22.8,13.5,31.9,23.2
	c10.6,10.8,18.3,24.8,20,39.9c0.9,11-2.9,21.7-6.3,31.9c-5.6,15.1-11.8,29.9-18.1,44.8c-7.9,17.8-15,36.1-23.2,53.8
	c-4.9,10.6-12.3,20.7-22.9,26.1c-10.5,5.7-22.9,5.4-34.4,4c-2.9,6.8-5.8,13.7-9.3,20.3c-2.2,3.9-4.8,8.1-9,9.9
	c-4.2,1.9-9,1.5-13.5,1.1c-2.5,13.3-5.1,26.7-7.6,40c12.1,1.3,23.9,6.2,33,14.4c7.7,7,14.2,16,16.3,26.4c2.8,12.2,0,25.2-6.2,35.9
	c1.8,8.3,2,17.2-1.3,25.2c-3.6,8.8-9.9,16.8-18.6,21c1,6.7,0.6,13.7-2.4,19.8c-4.8,10.7-15.7,17.5-27.1,19.2
	c-8.1,1.3-16.4-0.4-24-3.2c-2.6,13.3-5,26.6-7.6,39.9h-38.9c3.2-16.2,6.2-32.3,9.3-48.5c-13.5-1.6-26.1-10-31.9-22.4
	c-7.2-14.2-8.1-30.5-8.9-46.1c-0.8-16.8,1.1-33.6,5.5-49.8c2.2-8,5.9-15.9,12.2-21.6c7.7-7.6,18.8-11,29.5-10.4
	c7.5,0.2,14.6,3.4,20.9,7.3c3.8-20.2,7.7-40.4,11.5-60.7c-5.7-3.5-11.7-8.5-11.8-15.8c0.1-9.7,5.2-18.4,9.2-26.9
	c-13.3-8.7-26.3-20.3-30.5-36.3c-3.1-10.4-1.7-21.5,1.9-31.6c9.9-27.6,22.3-54.2,33.6-81.3C788.1,542.2,792.9,527.8,800.9,515"/>
<path class="st0" d="M731.5,819.7c5.5-4.3,13.3-4.5,19.5-1.6c10.2,4.6,17,14.4,20.3,24.8c3.5,11.3,4.4,24-0.4,35.1
	c-1.8,4.3-6.1,7.9-10.9,7.3c-7.1-0.9-12.2-7-14.8-13.3c-1.6-3.4-1-8.4-4.9-10.2c-3.9-1.8-8,2.4-7,6.3c1.5,10.5,8.2,20.4,17.5,25.5
	c-2.3,13.7-4.7,27.4-7,41.2c-7.2,0.3-14.5-2.9-18.8-8.8c-6.8-9.2-8-20.9-9.2-31.9c-1-16.1-1.7-32.5,1.4-48.4
	C719.5,835.9,723.4,825.8,731.5,819.7z"/>
<path class="st0" d="M805.3,816.6c12.1,0.3,24.4,5.4,32.3,14.8c5.7,6.7,8.8,15.9,7.1,24.7c-2.1,12.3-13,22.8-25.6,23.5
	c-12.5,0.6-24.1-5.4-34.4-11.8c0.4-8.3-0.2-16.6-2.2-24.7c10.4-5.2,22.8-1.5,32.1,4.4c2.1,1.4,5.2,2.2,7.4,0.5
	c2.7-2,2.4-6.6-0.4-8.4c-5.6-4.1-12.3-6.7-19-8.5C803.5,826.2,804.4,821.4,805.3,816.6z"/>
<path class="st0" d="M772.6,892.3c4.5-3.5,7.5-8.5,9.5-13.8c10.3,6.2,21.8,11.3,34,11.7c8.3,0.3,16.4-2.5,23.2-7.1
	c1.5,8.7,0.6,18.7-6,25.2c-7.7,7.1-19.1,8.2-29,6.3C791.3,911.9,779.6,903.6,772.6,892.3z"/>
<path class="st0" d="M763.2,927.7c-3.7-8-2.7-18.5,4-24.7c12.1,15.4,32.1,25.3,51.9,22.7c-0.1,8.3-5.6,16-13.3,19
	C790,951.2,770.1,943.2,763.2,927.7z"/>
<path class="st1" d="M822,517c8-5,17.7-6.8,27-6.5c20.5,0.4,40.7,7.3,57.6,18.9c11.4,8.2,22.1,18.7,26.9,32.2
	c3.1,8.4,1.8,17.6-0.5,26c-3.6-2.8-7-6-10.7-8.7c-2.8-2.1-7.1-1.4-8.9,1.6c-1.8,2.5-1.1,6.1,1.1,8.1c4.6,4.2,9.5,7.9,14.2,11.9
	c-1.4,3.5-2.7,6.9-4.1,10.4c-4-3.2-7.7-6.7-11.8-9.6c-3.1-2.3-8.2-1-9.4,2.8c-1.3,2.6,0.1,5.7,2.2,7.5c4.6,4.1,9.5,7.7,14,11.9
	c-1.5,3.3-2.9,6.7-4.3,10.1c-4-3.2-7.8-6.8-12-9.8c-2.8-2.1-7.1-1.4-8.9,1.6c-1.9,2.7-0.9,6.6,1.6,8.6c4.6,4,9.4,7.8,14,11.8
	c-1.5,3.5-3,7-4.5,10.5c-4.2-3.3-8.1-7.1-12.5-10.2c-3.1-2-7.7-0.7-9,2.8c-1.2,2.6-0.2,5.7,1.9,7.5c4.7,4.2,9.8,8.1,14.6,12.3
	c-1.4,3.3-2.8,6.5-4.2,9.8c-4.2-3.2-8-7.1-12.5-10c-3.6-2.3-9.1,0.3-9.4,4.6c-0.5,3.5,2.3,6,4.8,7.9c3.9,3.2,7.8,6.5,11.7,9.7
	c-1.7,3.6-3.6,7.1-5.7,10.5c-15.7-12.3-31.3-24.8-46.9-37.2c-3.6-2.8-7.2-6.3-12-7c-20.9-4-41.7-8-62.6-12c1.2-3.8,2.6-7.6,4.2-11.4
	c21.1,4.1,42.2,8.1,63.3,12.1c2.6,0.6,5.7,0.6,7.8,2.5c6,5,12,10.1,18.1,15c2.5,2.1,6.6,2.1,8.9-0.4c2.7-2.7,1.8-7.3-1-9.5
	c-6.5-5.5-13-11-19.7-16.3c-3.6-3-8.4-3.2-12.8-4.1c-19.8-3.8-39.7-7.5-59.6-11.4c1.5-3.7,3.1-7.3,4.7-11
	c22.8,4.7,45.7,8.9,68.5,13.8c7.3,5.3,13.7,11.7,21,17c3.5,2.5,9,0.1,9.6-4.2c0.6-3.4-2.1-6-4.5-7.9c-6-4.9-12-10-18-14.9
	c-2.8-2.5-6.7-2.8-10.3-3.5c-20.4-4-40.7-8.1-61.1-12.1c1.4-3.3,2.9-6.7,4.3-10c21.1,4.1,42.1,8.1,63.2,12.2
	c2.7,0.6,5.8,0.6,7.9,2.6c6,4.9,11.9,10.1,18,14.9c2.5,2.2,6.6,2.2,8.9-0.4c2.4-2.5,2.1-6.7-0.5-8.9c-5.3-4.8-10.9-9.1-16.3-13.7
	c-2.8-2.2-5.4-5-9-5.6c-22.3-4.3-44.7-8.6-67.1-12.9c1.5-3.6,3.1-7.2,4.6-10.7c23,4.6,46.1,9.2,69.1,13.9c7.5,4.8,13.7,11.6,21,16.7
	c3.9,2.5,9.5-0.8,9.3-5.4c0.1-3.2-2.6-5.3-4.9-7.2c-5.5-4.5-10.9-9.1-16.3-13.6c-3.2-2.8-7.6-3.3-11.6-4.1
	c-20.5-4.1-41-8.2-61.4-12.3c1.5-3.4,2.9-6.8,4.4-10.3c22.9,4.5,46,8.6,68.9,13.3c7.2,5.2,13.5,11.4,20.6,16.7
	c3.7,2.9,9.7,0.2,9.9-4.5c0.3-3.4-2.5-5.8-4.8-7.7c-5.9-4.8-11.6-9.8-17.6-14.5c-3.4-2.8-7.9-3-12-3.9c-20-3.8-40.1-7.6-60.1-11.5
	C813.5,526.1,816.7,520.4,822,517z"/>
</svg>
