<svg version="1.1" xmlns="http://www.w3.org/2000/svg" xmlns:xlink="http://www.w3.org/1999/xlink" x="0px" y="0px" viewBox="0 0 1000 1000" style="enable-background:new 0 0 1000 1000;" xml:space="preserve">
<style type="text/css">
	.st0{fill:#FFD400;}
	.st1{fill:#FFFFFF;}
	.st2{fill:#000000;}
</style>
<path class="st2" d="M395.4,463.7c4.8-1,9.8-0.6,14.7-0.6c27.7,0.9,55.3,2.9,82.8,6.7c22.3,3.2,44.5,6.9,66.7,11c27.1,4.8,53.7,11.9,80.1,19.4
	c8,2.4,16,4.7,23.8,7.4c2.7,1,5.7,2.2,6.7,5.2c1.4,3.9,1.3,8.2,1.6,12.3c0.4,11.3,0.9,22.9-1.9,34c-3.3,14.9-11.9,28.6-24.1,37.7
	c-9,6.7-20.6,9.9-31.8,8.3c-10.3-1.2-19.7-6.1-28.1-11.9c-9.3-6.2-19.1-13.6-30.8-13.1c-14.9,0.6-28.8,6.9-43,10.8
	c-23.5,7.2-49.2,7.9-72.8,0.8c-14.4-4.3-28-11.6-38.6-22.3c-14.4-14.5-22.7-34.9-22-55.3c0.6-14.4,4.1-28.6,9.7-41.9
	C389.8,468.9,391.5,464.6,395.4,463.7"/>
<path class="st2" d="M397.4,614.4c7.2-3.9,15.6-5,23.7-4.4c8.4,0.7,16.5,2.6,24.7,4.4c27.9,6.1,56,11.2,83.9,17c1.4-4.5,1.1-9.8,4-13.7
	c3.6-3.9,10.6,0.1,9.1,5.2c-5.2,26.1-10.9,52.1-16.3,78.1c-0.5,2.1-0.8,4.5-2.4,6.1c-2.4,2.7-7.6,2-8.8-1.5
	c-1.3-3.7,0.6-7.5,1.1-11.1c-11.6-2.8-23.6-4.4-35.5-3.6c-20,0.9-39.9,7.3-60,3.6c-15.4-2.2-30.1-10.7-38.6-23.9
	c-6.2-9.4-7.9-21.5-4.7-32.2C380.5,628.1,388.1,619.5,397.4,614.4"/>
<path class="st2" d="M562.4,675.5c2.6-1,6.2-0.3,7.2,2.6c1.5,2.6-0.1,5.6-2.2,7.3c-5.7,4.7-11.3,9.5-17.1,14.1c-2.5,2.2-7.1,1.9-8.8-1.2
	c-1-2.6-0.4-5.8,2-7.5C549.9,685.7,555.8,680.1,562.4,675.5z"/>
<path class="st0" d="M417.5,473.8c49.9,1.5,99.3,9.1,148.1,19c30.2,6.2,60,14.1,89.4,23.3c2,0.6,4.5,1.6,4.7,4.1
	c2.5,14.1,2.7,29-2,42.6c-3.8,11.2-11.2,21.4-21.4,27.6c-8.7,5.2-19.6,5.8-29,2.4c-14.5-5.1-25.3-17.5-40.2-21.7
	c-11.4-3.4-23.4-0.8-34.5,2.3c-14.2,4.1-28.1,9.6-42.9,11.5c-20.5,2.7-42,0.4-60.8-8.5c-12.2-5.7-23-14.7-30.1-26.2
	c-6.5-10.5-10-22.9-9.7-35.2c0.3-13.4,3.8-26.5,9.3-38.6c0.6-1.5,1.9-2.8,3.7-2.7C407.2,473.4,412.4,473.5,417.5,473.8"/>
<path class="st2" d="M460.5,507.7c9-1.9,18.7,1.2,25,7.8c9.8,9.8,10.1,27.2,0.4,37.3c-8.8,9.9-24.9,11.7-35.6,3.9c-10.8-7.3-14.8-22.7-8.8-34.3
	C445,514.9,452.3,509.3,460.5,507.7"/>
<path class="st2" d="M616.4,534.6c4.9-1,10.2-0.2,14.6,2.4c6.2,3.6,10.2,10.8,9.7,18c-0.2,6.8-4.2,13.3-10.1,16.6c-5.7,3.3-13,3.5-18.9,0.5
	c-6.8-3.3-11.4-10.7-11.2-18.3C600.5,544.8,607.5,536.4,616.4,534.6"/>
<path class="st1" d="M475.2,525.1c4.7-2.6,10.9,2.8,8.7,7.8c-1.3,4.2-7.3,5.6-10.4,2.5C470.3,532.5,471.2,526.8,475.2,525.1z"/>
<path class="st1" d="M625.5,546.6c2.7-1.4,6.4-0.2,7.3,2.8c1.9,3.9-2.9,8.6-6.8,6.7C621.9,554.8,621.6,548.5,625.5,546.6z"/>
<path class="st1" d="M399.3,626.3c7-5.4,16.4-5.9,24.8-4.7c11,1.6,21.7,4.4,32.5,6.6c23.5,4.9,47.2,9.3,70.8,14.2
	c-2.4,10.9-4.5,21.8-6.9,32.7c-9.6-1.9-19.3-3.6-28.9-5.5c-3-0.5-4.7-3.8-4.4-6.6c0.3-4.5,1.8-8.7,2-13.2c-0.1-3.7-5.5-5.1-7.3-1.8
	c-1.9,4.7-1.7,9.9-3.5,14.6c-1.2,2.7-4.5,3.5-7.2,3c-10.9-1.7-21.6-4-32.4-6c-2.4-0.1-4.5-2.1-4.5-4.5c-0.4-5.8,2.4-11.4,2.1-17.1
	c-0.7-3.7-6.5-3.8-7.4-0.2c-1.6,5-1.7,10.5-3.5,15.5c-1.4,3.2-5.4,2.8-8.2,2.2c-10-1.9-20-3.8-30-5.7
	C387.2,640.5,391.7,631.5,399.3,626.3z"/>
</svg>
