<svg version="1.1" xmlns="http://www.w3.org/2000/svg" xmlns:xlink="http://www.w3.org/1999/xlink" x="0px" y="0px" viewBox="0 0 1000 1000" style="enable-background:new 0 0 1000 1000;" xml:space="preserve">
<style type="text/css">
	.st0{fill:#EDEDED;}
	.st1{fill:#FF5400;}
</style>
<path class="st0" d="M391.6,465.5c1.4-2,4-2.4,6.2-2.5c14.3-0.2,28.6,0.1,42.8,1.4c10.3,0.6,20.6,1.4,30.8,2.2
	c2,0.4,4.1,0.3,6.1,0.7c28.1,3.1,56,8.3,83.8,13.3c29.8,5.4,59.1,13.5,88.2,22.2c5,1.4,10,3.1,14.9,4.8c2.5,0.9,5.4,2,5.9,4.9
	c2.3,6.1,1.1,12.6,2,19c0.5,11,0.3,22.3-3.2,32.9c-1.6,5.4-4.1,10.4-6.8,15.2c0.8,1.5,2,2.8,3.5,3.8c4.1,3,8.1,6.1,12.2,9.1
	c3.1,0.3,2.3-4,3.2-6c0.7-0.3,2.1-0.9,2.8-1.2c0.7,0.3,2,0.9,2.7,1.2c3.5,6.2,4.4,13.4,4.8,20.5c0,3.5-0.6,7.1-2.6,10.1
	c-1.3,0-2.6,0-3.9,0c-2.4-4.2-2.7-9.4-6.1-13.1c-5.7-6.7-13.4-11.3-20.3-16.6c-5.4,2.3-8.4,7.8-13.4,10.6
	c-11.6,8.7-27.5,10.1-41.1,5.7c-14-4.4-24.5-15.3-37.8-21c-1.6,0.5-3.3,1-4.2,2.5c-2,3.5-0.6,7.5-0.6,11.3c0.7,2.7,0,5.5,0.8,8.2
	c0.2,3.9,0,7.9,0.2,11.8c1.2,9-0.6,18-0.2,27c-2,31.6-7.3,63-16.6,93.3c2.6,3.5,6.9,3.2,10.8,3.6c2.1,0.1,4.1,0.4,6.1,1.3
	c0.7,2.8,0.5,6.3-2.2,8c-9.7,6.2-21.6,5.9-32.7,5.1c-5.5-0.7-11.1-1.8-16-4.5c-2.6-1.4-3.8-4.2-3.4-7.1c1.2-1.1,2.5-2.2,4.3-2.1
	c5.6,0,11.3-0.1,16.9-1.3c5.6-1.2,10.3-5.9,11.6-11.5c6.8-23.4,11.4-47.5,13.5-71.7c0.6-2.4,0.1-4.8,0.8-7.2
	c0.1-5.9,0.8-11.7,0.7-17.6c1.2-8-0.3-15.9-0.1-23.9c-0.7-6.9-0.8-13.8-2.1-20.6c-1-2.6-2.7-5.3-5.7-5.9
	c-16.8,3-32.5,10.3-49.2,13.4c-8.2,1.7-16.6,2.4-24.9,2.1c-20.3,0.7-40.8-4.4-58.3-14.8c-6.8-3.9-12.4-9.5-18.6-14.2
	c-2.2-2-5.4-2-8-0.8c-27.1,15.4-54.2,30.8-81.3,46.3c-1.7,0.8-2.8,2.3-4,3.7c0.2,6.5,5,12.4,3.1,19c-4.4,2.4-9.6-0.1-12.5-3.7
	c-6.9-8.1-8.6-19.2-8.5-29.5c-0.2-3.2,0.7-6.6,3.3-8.5c1.4-0.1,2.9-0.6,4.3,0c2.7,0.8,2.7,4,3.7,6.2c0.9,3.1,3.2,5.5,5.9,7.1
	c26.5-14.9,52.8-30,79.3-45c2.8-1.6,5.7-4.5,5-8c-1.2-4.8-4.2-9-5.5-13.8c-4.2-11-4.5-23-3.5-34.5c0.8-9.7,3.9-19,7-28.2
	C387,473.8,388.5,469.1,391.6,465.5"/>
<path class="st1" d="M458.4,501.7c6.2-2.6,13.9,2.6,13.8,9.3c0.5,6-5.3,11.5-11.2,10.7c-6.4-0.3-11.3-7.6-8.9-13.6
	C453.1,505.2,455.5,502.7,458.4,501.7z"/>
<path class="st1" d="M496.3,523.5c6.1-2.5,13.4,2.1,14,8.6c1.3,8.3-9.3,14.9-16.1,9.7C487.2,537.6,488.6,526,496.3,523.5z"/>
<path class="st1" d="M613.4,531.6c9.7-3.3,21,4.2,21.8,14.4c1.4,9.8-7.4,19.3-17.2,18.8c-9.8,0-18.1-9.6-16.4-19.3
	C602.4,539,607.2,533.4,613.4,531.6z"/>
<path class="st1" d="M457.3,545.3c5.8-2.6,13,1.7,14,7.8c1.4,6.1-4,12.5-10.3,12.2c-6.2,0.2-11.5-6.2-10.1-12.2
	C451.5,549.6,454,546.6,457.3,545.3z"/>
</svg>
