<svg version="1.1" xmlns="http://www.w3.org/2000/svg" xmlns:xlink="http://www.w3.org/1999/xlink" x="0px" y="0px" viewBox="0 0 1000 1000" style="enable-background:new 0 0 1000 1000;" xml:space="preserve">
<style type="text/css">
	.st0{fill:%%ST0%%;}
</style>
<path class="st0" d="M486.5,524.6c-5.2-4-13.2-2.2-16.9,3c-5.6,8-10.8,16.2-16.3,24.3c-3.6-9.1-7.3-18.2-10.9-27.3c-1.1-2.7-2.4-5.4-4.8-7.3
		c-4.2-3.6-11.1-3.5-15.2,0.2c-4.1,3.4-5.3,9.5-3.2,14.4c5.8,15,11.9,29.8,17.8,44.7c-8.1,12.1-16.1,24.2-24.1,36.3
		c-3.8,5.4-2.6,13.6,3.1,17.2c5.3,3.6,13.3,2,16.8-3.4c5.2-7.5,10.1-15.2,15.2-22.7c4,10,7.9,20.1,12,30c2.4,6,9.8,9.6,15.9,6.9
		c6.2-2.3,9.1-10.1,6.5-16.1c-5.9-15.2-12.2-30.3-18-45.6c8.4-12.6,16.8-25.2,25.1-37.8C493.1,536.1,491.9,528.2,486.5,524.6z"/>
<path class="st0" d="M630.2,533.7c-5-1.7-10.6,1-12.7,5.7c-2.7,5.7-5.2,11.4-7.8,17.2c-3.1-6.1-5.5-12.5-8.9-18.5c-3-5.2-10.8-6.7-15.3-2.7
		c-3.8,3-4.7,8.6-2.7,12.8c5,11.2,10.4,22.3,15.4,33.6c-5.9,13.2-12,26.3-17.8,39.5c-2.4,5.1,0,11.8,5.3,13.9
		c4.9,2.3,11.1-0.4,13.4-5.2c3.7-7.7,7-15.6,10.7-23.3c2.3,5.1,4.5,10.3,7.2,15.2c2.6,5,9.5,7.3,14.3,4.2c4.7-2.6,6.3-9,4-13.7
		c-4.6-10.3-9.5-20.5-14.2-30.8c5-11.4,10.4-22.7,15.3-34.1C638.8,542.3,635.8,535.4,630.2,533.7z"/>
</svg>
