<svg version="1.1" xmlns="http://www.w3.org/2000/svg" xmlns:xlink="http://www.w3.org/1999/xlink" x="0px" y="0px" viewBox="0 0 1000 1000" style="enable-background:new 0 0 1000 1000;" xml:space="preserve">
<style type="text/css">
	.st0{fill:#FF002C;}
	.st1{fill:#000000;}
</style>
<path class="st1" d="M443.9,293.1c18.5-5.4,37.8-8.1,57.1-7.7c36.6-0.2,72.5,10.1,105.7,24.8c16.9,7.6,33.2,16.9,47.5,28.6
	c13,10.6,24.2,23.5,33.3,37.6c7.7,12.2,14.2,25.2,18.1,39.2c3.2,12.2,3.6,24.9,3.9,37.4c-0.3,10.1-0.3,20.2-2.4,30.1
	c-2.2,11.9-6.5,23.2-9.2,34.9c-1.1,3.7-1.9,8.2-5.5,10.3c-3.4,1.4-6.5-1.1-9.5-2.3c-15.3-6.6-31.4-11-47.3-15.9
	c-43.5-12.8-88-21.8-132.9-28.5c-42.2-6.3-85.1-9.4-127.8-7.9c-21.3,0.6-42.8,1.6-63.6,6.7c-5,1.3-10.5,2.8-14,6.9
	c-3.3,4.2-2.5,10.2-5.5,14.5c-5,4.2-12,2.7-17.9,2.3c-10.6,0.1-19.5,6.9-26.8,13.9c-13.5,13.3-24.1,29.2-37.8,42.3
	c-12.6,12.7-28.7,22.5-46.6,24.9c-9.9,1.1-20.1,0.9-29.5-2.6c-3.1-1.2-6.5-2.8-8-6c-1.4-2.7-0.6-5.9,0.1-8.7
	c3-11.4,7.5-22.4,10.7-33.7c-19.9-3.2-39.5-9.3-56.9-19.6c-5.5-3.4-11.7-7.8-12.5-14.7c-0.7-8.9,2.6-17.3,4.6-25.8
	c4.5-17,6.8-34.5,12.5-51.1c1.5-4.1,3.7-8.8,8.2-10.2c3.9-1.3,7.6,1.4,10.5,3.8c5,4.4,9.7,9,15,13c15.7,12.6,35.2,20.9,55.5,20.8
	c21.7,0.6,42.7-6.3,63-13.3c16.4-5.7,33.1-10.3,50.1-14.1c5.3-1,10.7-3.6,13.5-8.5c2.2-3.8,4.8-7.7,9.2-9.1
	c5.1-11,11-21.7,18.3-31.4c15.8-19.7,34.1-37.6,54.8-52.1C400.6,308.7,421.9,299.2,443.9,293.1"/>
<path class="st0" d="M480.5,297.7c22.4-2.3,45.3-1.2,67.4,3.6c16.3,3.5,32.1,9,47.4,15.4c16,6.9,31.7,14.9,45.6,25.4
	c13,9.9,25.3,21.4,33.2,35.8c3.1,5.9,6.1,12.2,6.5,19c0.3,3.4-1.9,7.4-5.6,7.5c-6.7,0.1-13.1-2.4-19.6-3.8
	c-23.3-5.5-46.9-9.4-70.4-13.7c-23.5-4.3-47.2-6.5-71-8.4c-21.3-1.6-42.6-2.6-64-2.4c-26.4-0.2-52.7,0.7-79,2.3
	c-4.7,0.2-9.4,0.9-14,0.2c-2.9-0.4-5.6-2.8-5.6-5.9c0.2-4.6,3.2-8.3,5.8-11.8c9.2-11.5,20.8-20.9,32.8-29.2
	C416.9,313.6,448,301.1,480.5,297.7z"/>
<path class="st0" d="M429.3,386.4c50-0.9,100.2,2,149.5,10.2c24.6,4.3,49.3,7.9,73.3,15c10.7,3.3,21.5,7.1,31,13.3
	c4.7,3.2,9,7.2,11.3,12.5c0.8,1.6,0.7,4.5-1.6,4.6c-5,0.1-9.6-2.1-14.3-3.5c-8.2-2.7-16.4-5.2-24.7-7.5c-2.4-0.9-5.2,1.2-4.7,3.8
	c0.3,2.2,2.7,3,4.6,3.6c10.3,3.1,20.7,5.9,30.6,10.1c4.5,2.1,9.3,4.7,11.7,9.3c1.5,2.8,1.1,6.8-1.4,8.8c-3,1.4-6.2-0.4-9.1-1.1
	c-36.8-13.1-74.5-23.4-112.7-31c-25.6-5.4-51.5-9.5-77.4-12.7c-24-2.9-48.2-4.2-72.4-5.3c-30.4-1.3-60.8,0-91.1,1.8
	c-3.2,0.1-8.2-0.2-8.7-4.2c0.6-4.5,3-8.6,5.2-12.6c4.1-6.8,12.6-8.4,19.8-9.7C375,388,402.2,386.7,429.3,386.4z"/>
<path class="st0" d="M328,430.9c21-1.7,42-2.6,63-2.8c27.9-0.3,55.7,1.4,83.5,3.6c41.7,3.8,83.1,11.2,123.9,20.7
	c30.1,7,59.7,16.1,88.8,26.5c3.2,1.1,7.4,3,6.9,7.1c-0.6,9.6-3.9,18.9-6,28.3c-40.3-13.7-81.3-25.4-123.1-33.8
	c-43.2-8.6-86.9-15.6-130.9-17.9c-40-1.9-80.2-2.2-119.9,3.2c-3.5,0.2-7.5,0.9-10.7-1.1c-2.2-1.9-0.6-5.1,0-7.4
	c2.4-7,4.1-14.5,8.3-20.7C315.3,431.2,322.3,431.6,328,430.9z"/>
<path class="st0" d="M96,431.7c9.8,11.2,23,19,36.6,24.7c23.4,9.8,49.9,10.4,74.4,4.5c27.7-6.9,54-19,82.4-23
	c-1.8,4.8-3.4,9.7-4.9,14.7c-15,5.2-29.2,12.3-43.3,19.5c-20.1,10.4-39.2,22.8-59.8,32.3c-16.4,7.5-34.3,12.6-52.5,11
	c-17.5-1.4-35.5-7.2-48.5-19.4C85.5,474.6,90.9,453.2,96,431.7z"/>
<path class="st0" d="M251,479c9.9-4.9,19.9-9.8,30.2-13.9c-1.3,5.5-2.4,11.1-3.5,16.6c-12.2,6.1-23.1,14.6-33.2,23.8
	c-15.2,14.5-28.4,30.8-44,44.9c-11.5,10.5-26,17.9-41.4,20.6c-6.3,1-12.9,1.3-19.2-0.2c4.2-15.6,9.4-30.8,14.1-46.3
	c15.7-3.1,30.6-9.5,44.7-16.9C216.4,498.5,233.2,487.9,251,479z"/>
</svg>
