<svg version="1.1" xmlns="http://www.w3.org/2000/svg" xmlns:xlink="http://www.w3.org/1999/xlink" x="0px" y="0px" viewBox="0 0 1000 1000" style="enable-background:new 0 0 1000 1000;" xml:space="preserve">
<style type="text/css">
	.st0{fill:#FFD400;}
</style>
<path class="st0" d="M526.3,84.2c22.8-1.1,46,0.5,67.9,7.4c14.5,4.6,28.5,12,38.6,23.5c9,10.2,13.9,24.2,12.5,37.8
	c-1.2,13.2-7.5,25.4-15.9,35.5c-10.3,12.5-23.6,22.3-37.6,30.4c-19.3,11-40.3,18.9-61.8,24.5c-25.5,6.5-51.8,9.7-78.1,8.8
	c-22.1-0.9-44.5-4.6-64.3-14.9c-14-7.3-26.5-19.1-31.4-34.5c-4.5-12.5-2.4-26.6,3.1-38.4c6.2-13.2,16.4-24.1,27.7-33.2
	c21.7-17.1,47.5-28.2,73.8-36C482.2,89,504.2,85.2,526.3,84.2 M531.2,125.2c-14.1,0.5-28.2,2.3-42,5.3c-24,5.3-47.8,13.6-68.4,27.2
	c-9,6.1-17.9,13.1-23.3,22.8c-2.3,3.9-3.1,9.3,0.1,12.9c5.8,6.6,14.3,9.9,22.5,12.4c20.6,5.8,42.4,6,63.5,3.9
	c25.6-2.7,50.8-9.2,74.2-19.9c14.3-6.8,28.4-15,39.1-27c3.6-4.5,7.7-9.8,7.1-15.9c-1.9-6.5-8.5-10.1-14.2-12.9
	C571.5,126,551,124.8,531.2,125.2z"/>
</svg>
