<svg version="1.1" xmlns="http://www.w3.org/2000/svg" xmlns:xlink="http://www.w3.org/1999/xlink" x="0px" y="0px" viewBox="0 0 1000 1000" style="enable-background:new 0 0 1000 1000;" xml:space="preserve">
<style type="text/css">
	.st0{opacity:0.4;enable-background:new    ;}
	.st1{fill:#EDEDED;}
</style>
<path d="M779.3,389c-0.8-18.1-0.1-36.8-6.5-54c-2.7-7.4-10.3-14-18.7-12.4c-17.4,3.7-34.7,8-51.4,14.1
	c-20.2,7.3-39.6,16.5-58.7,26.3c-10.3,5.2-20.6,10.9-32.2,12.4c-9.5,1.4-19-0.9-28-3.5c-16.3-4.9-33-8.3-49.9-10.2
	c-22.6-2.7-45.5-1.5-68.1,0.9c-13.1,1.3-26.6,1.1-39.6-1.8c-19.8-4.9-36.9-16.3-53.8-27.2c-21.7-14.1-44.5-26.6-68.2-36.9
	c-11.2-4.9-22.6-9.7-34.7-11.9c-4.4-0.7-8.9-1.3-13.3-0.5c-3.1,0.6-6.4,1.7-8.6,4c-3.6,4.1-5.1,9.5-6.2,14.6
	c-2.8,11.7-3.5,23.7-5.2,35.5c-3.2,21.3-4.7,42.9-6.3,64.4c-2.1,28.3-3.4,56.7-2.6,85.1c0.9,24.1,3.7,48.2,8.3,71.9
	c4.4,21.8,10.8,43.5,20.8,63.5c21.8,42.4,56.5,78.1,98.8,100.2c38.3,20.2,81.4,31.1,124.6,32.6c43.2,2.2,87.4-0.9,128.2-16.2
	c26.5-10.2,50.4-26.5,71.1-45.8c20.1-19,37.7-40.7,51-65c16.9-30.3,28.8-63.3,36.5-97.1C777.1,485.2,781.4,437,779.3,389z
	 M756.5,449.9c-0.8,11.2-0.8,22.5-2.8,33.5c-0.7,12.7-3,25.2-5.1,37.7c-0.7,3.5-1.2,7-2.2,10.5c-4.4,20.5-11.7,40.3-19.6,59.8h-0.2
	c-2.6,5.9-5.5,11.6-8.6,17.3c-4.7,8.7-9.9,17.2-15.3,25.6c-8.4,12.2-17.2,24.1-27,35.2c-10.8,12.3-22.4,24.1-36.1,33.1
	c-30.4,20.7-66.3,32.1-102.6,36.7c-47.2,6.6-96.1,2.6-141.1-13.2c-17.4-6.3-34.4-14.1-49.9-24.3c-19.3-12.7-35.6-29.3-49.9-47.2
	c-6.7-9.6-12.7-19.7-17.8-30.3c-3.7-8.3-7-16.7-9.9-25.3c-2.4-7.2-4.8-14.6-6.6-22c-4.4-16.2-7-32.9-8.7-49.6l-0.3-0.2
	c-0.6-5.8-1.3-11.6-1.8-17.4c-1.4-13.2-1.9-26.6-2.3-39.9c-0.2-14.6,0.2-29.3,0.4-43.9c0.4-11.3,1.6-22.6,2.7-33.9
	c1.9-18.7,3.4-37.5,6.7-56.1c1.2-6.7,2.3-13.4,4.5-19.9c0.9-2.2,1.9-4.8,4.2-5.8c2.2-1,4.7-0.4,7.1,0.4
	c30.6,9.6,59.8,23.5,87.5,39.8c10.9,6.5,21.9,13.2,31.7,21.3c2.8,2.3,5.5,5,7.3,8.2c-6.6,2.5-13.1,5.3-19.3,8.5
	c-2.5,1.4-5.5,3.3-5.6,6.5c-0.6,4.4,3.8,8.5,8.1,7.6c4.5-0.7,8.7-2.8,12.9-4.6c17.1-7,34.9-12.5,53.2-15.3
	c7.5-1.3,15.1-2.2,22.7-2.7c29.1-2.3,58.7-0.7,87.3,5.5c8.4,1.7,16.7,3.7,24.8,6.4c14.9,4.3,29.2,10.4,42.9,17.6
	c4.5,2.4,8.6,5.4,13.2,7.6c2.8,1.3,6.6,0.9,8.5-1.7c2.1-2.6,1.8-6.8-0.8-8.9c-7.3-5.8-15.9-9.5-23.6-14.5c3.7-4.9,9.5-7.6,14.7-10.6
	c17.2-9.1,35-16.8,53.3-23.3c13.1-4.6,26.5-8.9,40.3-10.9c4.8-0.6,10.4-1.2,14.5,1.9c2.8,2.8,3.1,7,3.7,10.7
	C754.8,389.7,757.5,419.8,756.5,449.9z"/>
<path class="st0" d="M472.7,379.9c29.2-2.3,58.7-0.6,87.3,5.5c-0.4,9.6-1.5,19.1-2.4,28.6c-2.5,22.3-5.2,44.7-9.8,66.7
	c-2.8,13.5-6,27-11.3,39.8c-1.7,3.3-3.4,7.7-7.5,8.5c-3.5,0.3-5.9-3.1-7.1-5.9c-2.8-6.5-3.9-13.5-5.5-20.3
	c-5.1-23.8-11.5-47.4-20-70.3C489.6,414.5,481.2,397.1,472.7,379.9z"/>
<path class="st0" d="M396.8,397.9c17.1-7,34.9-12.5,53.2-15.3c3.5,12,6.3,24.1,8.1,36.4c2.2,15.2,3.6,30.6,2.4,45.9
	c-0.5,3.4-0.8,7.6-3.9,9.7c-3.2,1.5-5.5-2-6.7-4.5c-3.4-7.5-6.6-15.1-10.7-22.3C428.4,428.7,414.6,410.8,396.8,397.9z"/>
<path class="st0" d="M584.8,391.8c14.9,4.3,29.2,10.4,42.9,17.6c-4.1,7.7-7.4,15.9-11.7,23.5c-7.5,13.7-15.8,27.1-26,39
	c-2.9,3.1-5.8,6.7-10.1,7.7c-2.4,0.7-5.1-1.1-5-3.7c-0.2-4.4,1.4-8.6,2.3-12.8C582.9,439.9,584.7,415.8,584.8,391.8z"/>
<path class="st0" d="M248.7,469.9c10.3,10,21.5,19.1,33.6,26.8c7.8,5.3,16.2,9.6,24.1,14.9c2.2,1.6,5.3,3.9,4,7
	c-2.6,3-7.1,2-10.6,2.1c-16.7-1.6-33.1-5.3-48.9-10.8C249.6,496.6,249.2,483.2,248.7,469.9z"/>
<path class="st0" d="M708.9,508.9c15.7-6.9,31-15,44.7-25.4c-0.7,12.7-3,25.2-5.1,37.7c-13.3,1.2-26.7,1.9-40,0.2
	c-3.4-0.5-7.1-1-10-3c-1.7-1-1.9-3.9-0.1-4.9C701.7,511.6,705.4,510.5,708.9,508.9z"/>
<path class="st0" d="M253.1,527.5c20.2,13.7,42,25.2,64.5,34.7c4.2,1.8,8.7,3.2,12.7,5.5c1.5,0.8,3.2,2.3,2.7,4.2
	c-0.6,2.1-3,2.7-4.9,3.4c-7.9,2-16.1,2-24.2,2c-14.2,0.1-28.3-1.3-42.5-2.3c0.1,0.6,0.2,1.7,0.3,2.2
	C257.4,560.9,254.8,544.2,253.1,527.5z"/>
<path class="st0" d="M688.6,570.5c20.9-10.2,41.2-22.2,57.7-38.8c-4.5,20.5-11.8,40.3-19.6,59.8h-0.2c-14.3-0.3-28.8-0.7-42.8-4.2
	c-3.3-1-6.9-2-9.5-4.5c-1.8-1.6-1.6-4.8,0.6-6C679.2,574.2,684.1,572.8,688.6,570.5z"/>
<path class="st0" d="M268.5,599.2c11.6,3.8,23.4,7.3,35.6,8.8c2.9,0.5,6.2,0.5,8.6,2.5c1.7,2.9-1.2,5.3-3.6,6.4
	c-9.6,4.5-20.4,5.2-30.6,7.6C274.7,616.2,271.3,607.8,268.5,599.2z"/>
<path class="st0" d="M687,616.9c10.5-1.9,20.9-4.3,30.9-8c-4.7,8.8-9.9,17.3-15.3,25.6c-6.6-3.7-14.8-5.3-19.6-11.6
	C681,620,684.1,616.9,687,616.9z"/>
<path d="M414.5,488.6c9-2.4,18.8,0.1,26.3,5.6c10.6,7.7,17.7,19.3,22.7,31.2c8.5,21,11.3,44,10,66.5c-1.3,18.3-5.4,36.9-14.6,52.9
	c-5.8,9.9-14.3,19.2-25.7,22.4c-9.9,2.9-20.8-0.4-28.6-6.8c-11.7-9.5-18.8-23.3-23.6-37.3c-7.8-23.9-9.4-49.7-5.3-74.5
	c2.6-15,7.4-30,16.2-42.5C397.5,498.2,405.1,491.2,414.5,488.6"/>
<path d="M611.5,507.7c9.1-1.7,18.4,2.7,24.3,9.6c9.1,10.5,13.2,24.3,15.3,37.7c3,22.6,0.4,46-8,67.2c-4.8,11.5-11.3,22.9-21.5,30.5
	c-6.8,5.1-16,7.6-24.2,4.7c-9.8-3.3-16.4-12.1-20.7-21.1c-7.3-15.8-9-33.6-8.2-50.8c1.3-20.1,6.3-40.5,17.3-57.6
	C591.9,518.6,600.4,510,611.5,507.7"/>
<path class="st1" d="M428.4,518.6c6.4-2.3,13.5,2.5,14.7,9.1c7.3,32.3,7,66.3,0.1,98.6c-0.8,5.5-5.3,10.7-11.1,10.6
	c-6.8,0.6-12.5-6.3-11.3-12.9c6.5-30.2,7-61.8,0.3-92C419.7,526.5,423,520.3,428.4,518.6z"/>
<path class="st1" d="M616.5,536.7c5.8-2.3,12.2,2.4,12.7,8.3c4.2,25.7,1.5,52.3-5.6,77.2c-1.5,4.4-2.3,10-6.8,12.5
	c-4.7,2.9-11.5,0.4-13.2-4.8c-1.7-4.3,0.6-8.6,1.7-12.6c6.7-23,8.8-47.5,5.1-71.2C610.1,542,612.7,538,616.5,536.7z"/>
</svg>
