<svg version="1.1" xmlns="http://www.w3.org/2000/svg" xmlns:xlink="http://www.w3.org/1999/xlink" x="0px" y="0px" viewBox="0 0 1000 1000" style="enable-background:new 0 0 1000 1000;" xml:space="preserve">
<style type="text/css">
	.st0{fill:#FFD400;}
	.st1{fill:#EDEDED;}
	.st2{fill:#FFFFFF;}
	.st3{fill:#000000;}
</style>
<path class="st3" d="M666.6,495.2c-4.3-15.2-11.4-29.6-19.9-42.9c-8.2-12.4-18-23.9-29.8-33.1c-10.8-8.5-22.9-15.3-35.7-20.5
	c-19.8-8.1-40.9-13.1-62.3-13.6c-51.6-1.7-102.8,21.4-137.5,59.4c-21.2,23.2-34.5,53-39.4,83.8c-3.2,20-3.9,40.5-1.4,60.6
	c2.5,21.1,8.1,42,18.3,60.8c12.3,22.6,29.3,43,51,57c2.5,1.5,5.5,3.8,8.6,2.3c4-1.4,4.2-7.4,0.7-9.5c-12.6-9.2-25.2-19.1-33.5-32.6
	c-1-1.5-1.4-3.2-1.6-4.9c4.2,0.3,7.9,2.3,11.8,3.5c19.9,6.4,40.6,10.2,61.2,13.7c20.7,3.7,41.7,4.5,62.6,4.8c24,0.2,48-1.9,71.8-5.7
	c11.5-1.7,22.7-5,34-7.6c-1.1,3.5-3.9,6-6.3,8.7c-5,5.2-10.7,9.6-16.6,13.6c-2.7,1.6-4.2,5.4-2.1,8.1c1.9,2.8,5.8,2.8,8.3,0.9
	c12.4-7.9,22.8-18.7,31.8-30.2c9.8-12.4,16.7-26.8,22.7-41.3c8.7-22.8,12-47.3,12.2-71.5C675.8,537.5,673,515.9,666.6,495.2z
	 M396.3,446.5c12.5-13.4,27.9-23.8,44.1-32.1c20.5-10.5,43.2-16.3,66.1-17.6c17.8-0.9,35.8,1.4,52.9,6.6
	c19.3,5.7,38.1,14.5,53.4,27.8c11.7,10,21.1,22.4,27.9,36.1c2.1,4.1,3.6,9.8,0.1,13.6c-4.5,4.2-11.1,3.9-16.8,4.9
	c-25.3,2.4-50.7,4-76.1,3.8c-41.5-0.7-83.2-3.3-124-11.4c-7.8-1.6-15.7-3.1-23.4-5c-4.4-1.1-9.2-3.6-10.6-8.3
	C387.9,458.1,392,451.4,396.3,446.5z"/>
<path class="st0" d="M364.4,494.4c2.2-4.6,5.3-9.7,10.6-11c5.7-1.2,11.4,0.7,17,1.6c19.5,4.3,39.1,8.1,58.9,10.7
	c23.8,3.9,48,5.2,72.1,6.5c15,0.8,29.9,0.6,44.9,0.1c24.8-0.1,49.6-2.4,74.2-6.2c2.5-0.4,5-0.5,7.5-0.2c-1,0.7-2,1.3-3.1,1.8
	c-47.7,18.2-95.3,36.5-143,54.8c-1.7,0.8-3.6,0.4-5.4,0.1c-24.3-4.4-48.7-8.7-73-13c-3.6-0.8-7.6-0.7-10.7-2.9
	c-15-10.3-30-20.7-44.9-31.1c-2.2-1.6-4.6-3-6.6-4.9C362.2,498.5,363.6,496.4,364.4,494.4z"/>
<path class="st0" d="M651.3,513.2c2.3-0.6,4.6-2.3,7.1-1.6c1.3,3,1.5,6.4,2.1,9.6c1.4,10.5,3,21.1,3.4,31.7
	c0.4,20.2-0.6,40.7-6.4,60.2c-2.4,7.8-4.9,15.5-8.6,22.7c-2.6,4.8-5.4,9.8-10,13c-6.4,4.4-13.8,6.8-21.2,8.9
	c-29.5,8-60.1,12.4-90.7,12.1c-23.8,0.4-47.6-1-71.1-5c-22.9-3.7-45.8-8.9-67.1-18.6c-9.6-4.3-19.4-9.8-25.3-18.8
	c-5.9-9.1-8.1-20-10-30.5c-3.3-21.4-3.2-43.3,0.2-64.7c0.9-4.9,1.5-9.9,3.2-14.5c15.9,9.8,31.1,20.7,46.7,31.1
	c-4.3,15.6-2.7,32.9,5.6,46.9c7.3,12.7,20.1,22.2,34.5,25.2c14.9,3.4,30.9-0.5,43.4-9c15.5-10.5,25.7-28,27.8-46.5
	C560.3,548,605.8,530.6,651.3,513.2 M564.9,569.1c-2.6,0.4-5.5,1.3-6.6,3.9c-1.5,2.7,0,6.3,2.7,7.5c2.3,1.2,4.9,0.3,7.3,0
	c2.4,7.2,6.3,13.9,12.1,18.9c7.1,6.2,17.1,9.5,26.5,7.3c9.4-2,17.2-8.9,21.5-17.4c3.3-6.4,4.6-13.6,4.7-20.7
	c3.2-0.6,7.2-2.1,7.5-5.9c0.6-4.1-3.8-7.3-7.6-6.3C610.3,560.7,587.7,565,564.9,569.1z"/>
<path class="st1" d="M432.4,567.5c2-0.5,4.3-1.5,6.4-0.6c3.1,1,4.7,5,3,7.8c-1.6,3.1-5.5,3.4-8.5,4.5c-4.3,1-8.5,3.3-13,3.4
	c-5-0.1-6.9-7.3-2.8-10C422.2,570.2,427.5,569.3,432.4,567.5z"/>
<path class="st1" d="M445.4,582.1c3-1,6.8,0.8,7.4,4.1c0.8,3.1-1.6,6-4.5,6.8c-5.9,2-11.7,4-17.7,5.8c-3.3,1.2-7.5-1.1-7.5-4.8
	c-0.4-3,2-5.4,4.6-6.2C433.6,585.9,439.4,583.9,445.4,582.1z"/>
<path class="st2" d="M580.2,578.4c13.6-2.7,27.2-5.1,40.8-7.6c0,8-3.4,16.4-10,21.3c-4.8,3.6-11.5,4.4-17,1.9
	C587.3,591.2,582.8,585,580.2,578.4z"/>
</svg>
