<svg version="1.1" xmlns="http://www.w3.org/2000/svg" xmlns:xlink="http://www.w3.org/1999/xlink" x="0px" y="0px" viewBox="0 0 1000 1000" style="enable-background:new 0 0 1000 1000;" xml:space="preserve">
<style type="text/css">
	.st0{fill:#EDEDED;}
	.st1{fill:#000000;}
	.st2{fill:%%ST2%%;}
</style>
<path class="st0" d="M862.1,178.3c9.4-2,19.6,2.9,24.2,11.3c3,5.2,3.6,11.5,2.6,17.4c-25,180-50,360-75,540
	c-1.7,8.7-1.1,18.3-5.8,26.1c-5,8.3-15.5,12.7-24.9,10.3c-9.8-2.2-17.3-11.4-17.7-21.4c-0.1-7.6,1.7-15,2.5-22.5
	c24.8-178.2,49.5-356.4,74.3-534.6c0.6-4.5,1.1-9.2,3-13.5C848.4,184.7,854.8,179.6,862.1,178.3"/>
<path class="st1" d="M854.6,833.4c-7.2-14.9-21.2-26.1-37.1-30.4c1.2-10,2.8-20,3.9-30.1c0.9-9.2-1.9-18.6-7.6-26
	c-1.7,8.7-1.1,18.3-5.8,26.1c-5,8.3-15.5,12.7-24.9,10.3c-9.8-2.2-17.3-11.4-17.7-21.4c-0.1-7.6,1.7-15,2.5-22.5
	c-8.3,5.6-14.2,14.5-15.8,24.5c-1.9,12.4-3.4,24.8-5.2,37.2c-7.8-0.2-15.9,1.2-22.7,5.3c-8.9,5.2-15.1,14-18,23.7
	c-5.7,18.3-7.6,37.8-6.3,56.9c0.9,12.8,1.7,26,6.9,38c3.7,9.9,11.3,18.3,20.8,22.9c0.5,6.9,2.7,13.7,7,19.3
	c7.6,10.6,21.5,16,34.3,13.5c10-1.8,18.7-8.3,23.9-16.9c11.3,0.7,23.1-3.3,30.9-11.7c6.8-7.4,9.5-18,7.6-27.8
	c7.9-3.6,13.7-10.6,17.5-18.3c4.2-8.6,4.6-18.6,2.4-27.8C859.3,864.8,861.2,847.6,854.6,833.4z"/>
<path class="st2" d="M731,820c5.1-4.2,12.5-5,18.6-2.6c10.6,4.1,17.9,14.1,21.4,24.6c3.8,11.5,4.8,24.5-0.1,35.9
	c-1.8,4.3-6.1,8-11,7.3c-7.4-1-12.6-7.6-15.1-14.2c-1.1-2.8-0.8-6.4-3.3-8.5c-2.3-2.1-6.3-1.3-7.7,1.5c-1.4,2.8-0.3,6,0.4,8.9
	c3.5,11.2,12.8,21.8,25.1,23c-7.2,7.3-10.6,18.3-8.3,28.3c0.3,1.6,0.9,3.2,0.8,4.8c-1.1,3.3-4.7,5-7.9,5.6
	c-7.8,0.8-15.6-3.4-19.7-9.9c-6.2-9.3-7.3-20.8-8.4-31.6c-0.9-15.6-1.5-31.3,1.3-46.7C719.2,836.5,723,826.4,731,820z"/>
<path class="st2" d="M815.5,818c8.7,2.3,16.9,6.9,22.6,14c5,6.1,7.8,14.1,6.9,22c-1.2,11.7-10.2,22.5-21.8,25
	c-13.8,2.7-27.3-4.2-38.6-11.4c0.6-8.2-0.1-16.4-2.1-24.4c10.6-5.6,23.3-1.5,32.7,4.6c3.2,2.6,8.9,0.6,8.7-3.8
	c-0.5-5.4-6.8-6.9-10.7-9.3C813.9,829.1,814.7,823.5,815.5,818z"/>
<path class="st2" d="M772.6,892.3c4.6-3.4,7.6-8.4,9.5-13.8c8.8,5.4,18.5,9.8,28.8,11.3c9.9,1.5,20.2-0.9,28.3-6.7
	c1.4,7.5,0.9,15.9-3.6,22.4c-4.4,6.3-12.2,9.2-19.6,9.8C798.7,916.8,781.6,906.9,772.6,892.3z"/>
<path class="st2" d="M763.2,927.6c-3.7-8-2.5-18.3,3.9-24.7c12.2,15.3,32.1,25.4,51.9,22.7c0.2,8.7-6,16.6-14,19.5
	C789.3,950.9,770,942.9,763.2,927.6z"/>
<path class="st2" d="M863.4,191.5c-4,1.3-6.3,5.3-6.6,9.3c-25.4,184.1-50.9,368.1-76.3,552.2c-0.4,3.9-1.7,8-0.2,11.8
	c1.7,4.3,7.1,6.9,11.4,5c3.6-1.3,5.8-5,6.2-8.6c25.7-186,51.4-372.1,77.1-558.1C877,196.2,870.2,189,863.4,191.5z"/>
</svg>
