<svg version="1.1" xmlns="http://www.w3.org/2000/svg" xmlns:xlink="http://www.w3.org/1999/xlink" x="0px" y="0px" viewBox="0 0 1000 1000" style="enable-background:new 0 0 1000 1000;" xml:space="preserve">
<style type="text/css">
	.st0{fill:#FF002C;}
	.st1{fill:#FFD400;}
	.st2{fill:#000000;}
</style>
<path class="st2" d="M585,157.9c-2.7-14.6-7-29.1-13.5-42.5c-2.9-5.5-5.7-11.3-10.5-15.5c-4.2-3.6-11.9-0.7-12,5.1c0.3,8.9-2.9,17.7-8.7,24.5
	c-2.4-32-18.8-62.9-44.9-81.8c-3.9-2.6-7.6-5.9-12.4-6.8c-4.9-0.5-9,5.3-6.6,9.7c3.8,7.2,6.6,15.2,6.6,23.4c0.6,15-5.1,29.3-12.6,42
	c-8.3-8.4-18.4-15-29.4-19c-4.7-2-11.1,1.8-10.9,7.1c0.6,4.6,1.9,9.2,1.7,13.9c0.2,18.3-6.6,35.4-12.3,52.5
	c-4.8,14.6-8.5,30.3-5.2,45.6c3.2,15.2,13.9,27.6,26.3,36.3c16.1,11.1,36,15.8,55.4,15.1c17.8-0.2,35.7-5.3,50.9-14.6
	c15.5-9.4,27.7-24.1,33.9-41.1C587.3,194.6,588.3,175.8,585,157.9z"/>
<path class="st0" d="M572.4,166.5c-2-15-6.2-29.8-12.5-43.6c-4.3,11.2-12.5,21.4-23.6,26.4c-4.6,2-10-2.3-9.4-7.2
	c1-28.2-10.1-56.8-30.8-76.2c3,20.5-4,41.2-14.9,58.4c-1.9,2.8-3.4,5.9-6,8c-3.3,2.4-8.6,1.8-10.9-1.8c-4.8-7.1-11.7-12.3-19-16.6
	c0.5,13.7-2,27.2-6.1,40.2c-4.1,13.3-9.6,26.1-11.8,39.9c-1.5,9.8-1.1,20.5,4.1,29.2c6.8,11.5,17.9,20,30.2,24.8
	c21.2,8.2,45.4,7.5,66.3-1.1c12.5-5,23.8-13.4,31.5-24.4C571.1,206.5,574.8,185.9,572.4,166.5z"/>
<path class="st2" d="M485.9,141.9c1.3-1.2,3.2-1.5,4.8-0.7c15,7.4,25.8,22.8,27.3,39.5c2-2.6,4-5.4,4.1-8.8c0.3-1.7,0-4.1,2-4.9
	c2.4-1.4,5.1,0.4,6.4,2.4c5.2,6.9,8,15.3,9.9,23.6c2.5,11.1,0.4,23.5-6.6,32.6c-6.7,8.8-17.1,13.9-27.8,16.1
	c-12.4,2.4-25.8,1.2-37-4.8c-7.5-4.2-14.5-11.1-15.4-20.1c-1.6-15.4,10.9-28.3,9.2-43.8c-0.2-2.2-1.7-5.1,0.7-6.6
	c2-1.6,4.6-0.6,6.7,0.3c4.5,1.8,8.7,4.5,12.4,7.7c4.8-7.3,8.4-16.6,5-25.2C487,146.9,484.2,144.5,485.9,141.9"/>
<path class="st1" d="M495.6,152c9.9,8.3,16,21.1,15.5,34.1c-0.4,2.5,2.4,4.4,4.7,3.5c5.5-2.1,9.6-6.7,12.1-11.9
		c4.8,10.2,8.5,22,5.5,33.2c-2,8.7-8.2,16.2-16.1,20.2c-11.7,6.1-26,7.3-38.5,3.2c-6.7-2.2-13.1-6.4-16.6-12.6
		c-3.3-6.5-1.3-14,1.1-20.5c3.4-8.8,7.1-17.9,6.7-27.6c3.5,1.9,6.8,4.1,9.3,7.1c1.5,2.3,5.2,2.4,6.8,0.2
		C492.6,173,497.2,162.6,495.6,152z"/>
</svg>
