<svg version="1.1" xmlns="http://www.w3.org/2000/svg" xmlns:xlink="http://www.w3.org/1999/xlink" x="0px" y="0px" viewBox="0 0 1000 1000" style="enable-background:new 0 0 1000 1000;" xml:space="preserve">
<style type="text/css">
	.st0{fill:#FFD400;}
	.st1{fill:#FFFFFF;}
	.st2{fill:#000000;}
</style>
<path class="st2" d="M395.5,463.7c4.8-1,9.7-0.6,14.5-0.6c27.7,0.9,55.4,2.9,82.9,6.7c27.1,4,54.1,8.5,81,13.8c29.2,6.2,58.2,14,86.7,23
	c3.7,1.3,8.6,2.4,9.8,6.8c1.7,7.1,1.4,14.4,1.7,21.6c0.5,14.5-1.9,29.3-9,42.1c-6.8,11.6-16.8,21.9-29.8,26.2
	c-12.1,4.1-25.7,2.2-36.9-3.7c-10.5-5.2-19.3-13.7-30.4-17.7c-7.4-2.7-15.4-1.9-22.9-0.2c-13.6,3.1-26.6,8.5-40.2,11.6
	c-20.9,4.9-43.1,4.6-63.8-1.6c-14.3-4.3-28-11.6-38.6-22.3c-14.7-14.7-23-35.6-22-56.3c0.8-14.1,4.1-27.9,9.6-40.9
	C389.8,468.9,391.5,464.6,395.5,463.7"/>
<path class="st2" d="M418.6,598.6c3.3-1.2,7-3.2,10.6-1.9c3.8,1.5,4.3,7.2,0.8,9.3c-4.1,2-8.6,3-12.5,5.5c-1.2,0.9-3.1,1.3-3.4,2.9
	c16.5,9.3,34.7,15.3,53.2,19.3c44.6,9.4,90.9,7.6,135.8,0.5c3.3-0.3,6.9-1.9,10-0.4c4,1.7,3.7,8.3-0.4,9.7
	c-4.5,1.5-9.4,1.7-14.1,2.6c0,11-0.4,22-0.6,32.9c0,3-2.2,5.8-5.2,6.2c-16.4,2.6-33,3.2-49.5,3.7c-1.9,6.2-3.2,13.3-0.5,19.5
	c4,0.1,8.1-1.1,12.1-0.6c5,1,5.3,8.8,0.5,10.3c-5.7,1.6-11.7,1.1-17.6,1.7c-18.3,0.7-36.7,1.8-55,0.6c-18.6-1-37.8-5.2-53-16.5
	c-10.3-7.5-18.1-19.1-18.8-32c-1-15,2.1-29.8,3.7-44.6c-3.2-1.6-6.3-3.3-9.3-5.2c-3.4,4.6-5,10.1-6,15.7c-0.5,3.9-5.8,6.1-8.8,3.3
	c-3.3-2.6-1.9-7.1-1.1-10.5C393.2,616,404.7,604,418.6,598.6"/>
<path class="st2" d="M570.3,707.3c4.1-2.4,9.7,2.3,7.8,6.7c-1.1,3.8-6.6,5-9.3,2.1C566,713.7,566.9,708.7,570.3,707.3z"/>
<path class="st0" d="M400.2,474c1.5-0.6,3.1-0.5,4.7-0.5c54.8,0.5,109.2,8.8,162.8,19.7c29.4,6.1,58.5,13.9,87.2,22.8
	c2.1,0.6,4.6,1.6,4.7,4.1c3.2,17.7,2.5,37.1-6.7,53c-6.4,10.8-16.9,20.4-29.9,21.6c-11.2,1.3-21.9-3.7-30.9-9.9
	c-10.6-7.2-21.9-15.1-35.2-15.3c-16.3-0.2-31.4,6.5-46.8,10.9c-20.7,6.5-43.2,7.6-64.3,2.2c-13.8-3.6-27.1-10.1-37.3-20.1
	c-11.8-11.6-19.1-27.8-19.4-44.3c-0.3-13.1,2.7-26.2,7.7-38.3C397.8,477.8,398.3,475.4,400.2,474"/>
<path class="st2" d="M469.4,495.3c7.4-5.2,17.3-7.8,26.1-4.6c9.6,3.3,16.2,12.6,18.1,22.3c-10.1,3.7-20.1,7.5-30.2,11.3
	c-2.9,0.7-3.9,4.8-1.4,6.7c7,6.7,14.3,13,21.3,19.7c-5.4,5.9-12.3,10.6-20.3,12c-7.6,1.5-15.9-0.9-21.7-6.1
	c-5.4-4.8-8.7-11.7-9.9-18.8C449.1,521.8,456.2,504.6,469.4,495.3z"/>
<path class="st2" d="M606.4,527.4c6.8-6.8,17.1-10.9,26.6-8.4c8,2,14.1,8.8,16.4,16.5c-8.5,3.8-17.1,7.6-25.6,11.5c-1.4,0.7-3.3,1.4-3.6,3.2
	c-0.6,2.1,1.1,3.8,2.7,4.9c6,4.4,12.1,8.8,18.1,13.2c-6.1,6.6-15,11.3-24.2,10.5c-8.4-0.6-16.1-6.4-19.2-14.2
	C592.3,551.9,596.9,536.8,606.4,527.4z"/>
<path class="st1" d="M425.6,632.4c41.7,17.4,87.8,20.6,132.5,18.1c9.8-0.7,19.6-1.5,29.4-2.8c0,9.1-0.3,18.2-0.6,27.3
	c-27.5,3.4-55.3,3.5-82.9,1.3c-27.7-2.5-55.6-6.7-81.5-16.9C423,650.3,424.3,641.4,425.6,632.4z"/>
</svg>
