<svg version="1.1" xmlns="http://www.w3.org/2000/svg" xmlns:xlink="http://www.w3.org/1999/xlink" x="0px" y="0px" viewBox="0 0 1000 1000" style="enable-background:new 0 0 1000 1000;" xml:space="preserve">
<style type="text/css">
	.st0{fill:#6089FF;}
	.st1{fill:#EDEDED;}
	.st2{fill:#000000;}
</style>
<path class="st2" d="M562.7,100.2c-2.3-3.5-7.7-4.2-10.8-1.3c-3,2.5-2.5,6.8-3.2,10.2c-1,6.6-4,12.7-8.1,17.9c-3.6-34.8-24.5-66-52.3-86.4
	c-4.8-3.4-13,0.1-12.7,6.3c0.6,4.2,3.6,7.5,4.7,11.6c6.6,19.1,0.8,40.2-10,56.5c-7.8-8.5-17.7-15.2-28.8-18.5
	c-3.5-1-7.8-1.3-10.8,1.2c-2.6,2.3-3.5,6.4-2.2,9.6c4.2,11.1,2.7,23.4-0.5,34.6c-4.9,18.1-14.6,35-15.9,54
	c-1.8,17.9,6.1,35.7,18.7,48.1c11.1,10.8,25.3,18.4,40.5,21.6c21.3,4.5,44,2.5,63.9-6.4c14.6-6.2,27.4-16.6,36.2-29.9
	c9.8-14.9,14.3-32.8,14.9-50.5C587,151.1,578.4,123.2,562.7,100.2z"/>
<path class="st0" d="M559.7,123.1c-4.2,8.8-10.5,16.4-17.7,22.8c-2,1.7-4.2,3.8-7,3.9c-3.6,0.4-7.1-2.5-7.4-6.1
	c-0.3-6.9-0.5-13.9-1.7-20.8c-3.5-21-14.1-40.6-28.9-55.9c2.4,19.9-4,40.2-15.2,56.6c-2.1,2.9-3.9,6-6.6,8.3
	c-3.1,2.5-8.2,1.8-10.4-1.6c-5.3-7.2-12.1-13.3-20-17.4c2,14-0.9,28.2-5.5,41.4c-4.5,13.8-11.3,27-12.8,41.5
	c-1.2,8.4,0.7,17,4.4,24.4c6.3,12.8,18.2,22.1,31.1,27.7c17.4,7,37,7.7,55.1,2.8c13.9-3.9,27.3-10.9,36.9-21.9
	c10.5-11.5,15.7-26.8,17.7-41.9C573.8,165.2,569.5,142.8,559.7,123.1z"/>
<path class="st2" d="M485.5,145.5c-1.4-3.2,2.8-6.7,5.7-4.7c13.3,8.3,23.8,21.6,27.3,37.1c2-2.8,3.1-6.1,4.1-9.3c1.1-3,5.5-2.9,7.1-0.4
	c7.4,9.6,12.2,21.6,11.9,33.9c-0.2,11.6-4.8,23.3-13.5,31.1c-10.7,9.5-25.8,13.3-39.8,11.3c-9.8-1.2-19.8-4.5-26.9-11.6
	c-7.4-6.9-9.8-18.1-7.1-27.7c2-9.6,8.3-18.1,8-28.1c0.1-2.7-1.2-5.2-1.6-7.9c0.2-2.2,2.3-3.8,4.4-3.7c6.5,0.2,12.2,3.8,17.3,7.5
	C487.4,164.8,488.7,154.5,485.5,145.5"/>
<path class="st1" d="M495.5,154.2c6.5,6.3,12.2,13.9,14,22.9c0.8,3.3,0.6,6.8,1.5,10.1c0.5,2.4,3.5,3.8,5.7,2.6
		c4.6-2.3,8-6.4,10.8-10.6c4.2,7.5,6.6,16.2,5.9,24.9c-0.6,8.8-4.2,17.6-11,23.4c-8.7,7.7-21,10.4-32.3,9
		c-8.5-0.9-17.4-3.4-23.5-9.8c-5.5-5.5-6.1-14.2-3.9-21.3c2.9-10,8.8-19.4,7.9-30.1c3.5,1.8,6.7,4.2,9.6,6.9
		c1.8,1.9,4.7,1.2,6.2-0.7C492.5,173.8,495.8,163.9,495.5,154.2z"/>
</svg>
