<svg version="1.1" xmlns="http://www.w3.org/2000/svg" xmlns:xlink="http://www.w3.org/1999/xlink" x="0px" y="0px" viewBox="0 0 1000 1000" style="enable-background:new 0 0 1000 1000;" xml:space="preserve">
<style type="text/css">
	.st0{fill:#EDEDED;}
	.st1{fill:#FF3CAE;}
</style>
<path class="st0" d="M414.4,488.7c9.3-2.6,19.4,0.2,26.9,5.9c10.6,7.9,17.5,19.6,22.4,31.5c8.4,21.1,11.1,44.2,9.6,66.8
	c-1.4,18-5.5,36.2-14.6,52c-5.8,9.8-14.2,19-25.5,22.3c-9.5,2.8-19.9,0-27.5-6c-11.7-8.9-19-22.3-23.9-35.9
	c-8-22.8-10-47.6-6.9-71.6c2.3-16.4,6.9-32.8,16.2-46.6C396.8,498.9,404.6,491.4,414.4,488.7"/>
<path class="st0" d="M611.5,507.7c8.9-1.6,17.9,2.4,23.9,9c9.1,10,13.3,23.4,15.5,36.6c3.4,22.9,0.9,46.7-7.5,68.3
	c-4.6,11.4-10.9,22.5-20.6,30.2c-6.8,5.5-16.1,8.6-24.7,5.8c-9.9-3-16.7-11.7-21-20.7c-7.5-16-9.4-34-8.5-51.4
	c1.3-19.9,6.2-40,16.9-57.1C591.5,519,600.1,510.1,611.5,507.7"/>
<path class="st1" d="M428.4,518.6c5.3-1.8,11.6,1,13.7,6.2c1.8,4.7,2.4,9.7,3.4,14.6c4.6,28.8,3.9,58.4-2.3,86.9
	c-0.8,5.1-4.8,10.1-10.2,10.5c-5,0.7-10.2-2.5-11.7-7.3c-1.8-4.7,0.5-9.6,1.1-14.3c4.3-24.4,4.6-49.6,0.4-74.1
	c-0.6-3.8-1.7-7.4-2.1-11.2C420.4,525.1,423.7,520.1,428.4,518.6z"/>
<path class="st1" d="M617.4,536.4c5.8-1.7,11.5,3.3,12,9.1c4,25.7,1.3,52.2-5.9,77.1c-1.2,3.6-1.9,7.5-4.5,10.4
	c-3.2,3.5-9.1,3.9-12.7,0.8c-3.2-2.6-4.1-7.2-2.7-11c8-24.3,10.8-50.5,6.9-75.8C609.7,542.3,612.8,537.5,617.4,536.4z"/>
</svg>
