<svg version="1.1" xmlns="http://www.w3.org/2000/svg" xmlns:xlink="http://www.w3.org/1999/xlink" x="0px" y="0px" viewBox="0 0 1000 1000" style="enable-background:new 0 0 1000 1000;" xml:space="preserve">
<style type="text/css">
	.st0{fill:%%ST0%%;}
	.st1{fill:%%ST1%%;}
</style>
<path class="st1" d="M272.3,535.2c2.1-1.2,4.8,0.4,4.9,2.8c0.8,6.1-0.2,12.6,2.6,18.4c3.7,8.7,11.8,14.3,19.3,19.6
	c17.7,12.7,35.6,25.1,53.4,37.6c13.4,9.3,27.3,18.2,42.2,24.9c18.1,8.1,37.5,13.8,57.4,15.5c14.8,1.4,29.6-0.5,44-3.6
	c14.9-3.1,29.7-7.4,45-7.3c15.5-0.1,30.1,5.8,45.1,8.5c14.8,2.8,30.5,3.4,44.9-1.7c19.8-6.8,36.5-20.2,52-33.9
	c7.3-6.4,14.8-13.5,17.6-23.1c0.8-3.2,2.4-7.2,6.4-7c5.4,0.3,7.9,6.5,7.2,11.2c-4.1,28.3-12.8,56.4-28.9,80.3
	c-9.7,14.6-22,27.5-36.2,37.8c-11.7,8.5-24.4,15.6-37.6,21.4c-19.2,8.4-39.3,14.8-60,18.2c-22,3.6-44.2,5.6-66.5,5.5
	c-25.9,0.1-52-2.2-77-9.1c-12.9-3.6-25.5-8.2-37.7-13.4c-18.6-8.2-36.6-18.4-51.5-32.5c-10-9.5-19.1-20.1-26.1-32
	c-9.8-16.2-16.4-34.3-20.2-52.8c-4.3-20.4-6.7-41.3-6.9-62.2C266,550.3,265.7,540.7,272.3,535.2"/>
<path class="st0" d="M283.4,583.4c2.8-0.5,5.2,1.2,7.4,2.7c27.9,20.2,55.7,40.6,85.9,57.2c17.4,9.3,35.6,17.4,54.9,22.1
	c15.8,3.8,32.2,5.2,48.3,3c19.6-2.6,38.2-10.4,58.1-10.8c15.7-0.9,30.7,4.2,46,6.6c17.9,3.2,36.7,4,54.2-1.7
	c17.8-5.6,32.9-17.2,46.3-29.8c1.6-1.3,3.1-3.3,5.4-3.3c2.1,0,2.2,3,1.8,4.6c-7,24-21.1,45.5-39.3,62.5
	c-11.7,10.5-25.1,19-39.4,25.6c-36.5,17.1-76.8,25-116.9,25.6c-26.7,0.5-53.5-1.9-79.5-8.2c-15.8-3.9-31.6-8-46.7-14.1
	c-28.5-11.6-54.3-31.6-69.2-58.9c-12.2-22.5-19.6-47.8-21.3-73.3C279.1,589.5,279.4,584.5,283.4,583.4z"/>
</svg>
