<svg version="1.1" xmlns="http://www.w3.org/2000/svg" xmlns:xlink="http://www.w3.org/1999/xlink" x="0px" y="0px" viewBox="0 0 1000 1000" style="enable-background:new 0 0 1000 1000;" xml:space="preserve">
<style type="text/css">
	.st0{fill:%%ST0%%;}
	.st1{fill:#000000;}
</style>
<path class="st1" d="M666.1,495.8c-1.8-4.6-3.9-9.8-8.7-12c-5.8-2.5-12.3-0.8-18.3,0c-22.2,3.5-44.7,4.5-67.1,5.5c-39,0.9-78.1-1.1-116.9-6
	c-23.6-3.1-46.8-8.6-70.1-13c-4.5-0.7-9.2-1.2-13.8-0.1c-9.4,1.9-14.5,11.1-17.9,19.2c-12,30-13.9,62.9-12,94.8
	c1.5,18.4,4.6,37,12.5,53.8c5,10.6,15.6,16.5,25.8,21.1c18.6,8.5,38.7,12.8,58.6,16.7c21,4,42.2,7.4,63.6,7.7
	c27.8,1.4,55.6-0.1,83.1-4.2c14.8-2,29.5-5.4,43.8-9.9c6.9-2.3,14.1-5.1,19.1-10.6c4.6-5.1,7.8-11.2,10.7-17.4
	c12-24.7,16.4-52.4,17.1-79.6C675.9,539.6,673.7,516.9,666.1,495.8z"/>
<path class="st0" d="M662.4,536.1c-1.3-9.9-2.3-20-5-29.7c-1.1-3.4-2.4-7.2-5.4-9.4c-2.9-2.1-6.7-1.3-9.9-0.9
	c-24.5,3.9-49.3,6.1-74.2,6.2c-15.3,0.5-30.6,0.7-45.9-0.2c-23.4-1.3-46.8-2.6-70-6.3c-19.9-2.7-39.6-6.3-59.2-10.7
	c-5.8-1-11.7-3-17.6-1.9c-3.7,0.8-6.4,3.6-8.4,6.7c-5.1,8-6.9,17.4-9.3,26.4c-6.1,24-5.2,49-3.1,73.4c1,9.3,2.3,18.7,5,27.7
	c1.8,6.1,5,11.9,9.6,16.4c7.2,7.1,16.7,11.2,25.9,15.1c21.4,8.8,44.3,13.4,67.1,16.8c21.8,3.5,43.9,4.3,65.9,4
	c30.8,0.2,61.6-4.3,91.3-12.6c8.3-2.6,17.1-5.3,23.3-11.8c3.9-4.7,6.7-10.2,9.1-15.8c5.8-14.3,9.7-29.3,11.1-44.6
	C664.3,568.8,664.5,552.3,662.4,536.1z"/>
</svg>
