<svg version="1.1" xmlns="http://www.w3.org/2000/svg" xmlns:xlink="http://www.w3.org/1999/xlink" x="0px" y="0px" viewBox="0 0 1000 1000" style="enable-background:new 0 0 1000 1000;" xml:space="preserve">
<style type="text/css">
	.st0{fill:#EDEDED;}
	.st1{fill:#000000;}
</style>
<path class="st1" d="M799.5,528.3c29.8-20,71.1-21.2,101.9-2.7c15.3,9.1,27.7,23.9,31.9,41.4c4.3,17.1-0.1,35.7-10.5,49.7
	c-1.3,1.9-3.3,3.7-3,6.2c-0.2,16.5-6.8,32.7-18,44.8c-12.3,13.3-29.7,21.4-47.7,23.1c-4.5,0.8-9.1-3.3-8.4-7.9c0.3-3.2,3-5.2,5-7.4
	c6.1-7,9.5-16,10.8-25.1c-19.8,2.2-40.4-1.2-57.8-11c-13.2-7.4-24.5-18.5-30.6-32.4c-6.4-14.1-6.8-30.8-1.2-45.2
	C777.2,548,787.3,536.5,799.5,528.3"/>
<path class="st0" d="M815.2,535.4c25.4-12.5,57.6-11.8,81.5,3.9c11.4,7.5,20.5,19.1,23.2,32.6c2.9,13.4-1.3,27.7-9.8,38.2
	c-1.5,1.9-3.5,3.4-4.4,5.7c-0.7,3.3-0.1,6.8-0.3,10.1c-1,13.9-7.7,27.2-18.2,36.3c-5.3,4.7-11.7,8.3-18.3,10.9
	c4.7-9.4,6.7-19.8,7.2-30.2c-0.1-2.7,0.1-5.6-1.1-8.1c-1-1.3-2.8-0.7-4.1-0.4c-18.4,4.7-38.4,3.2-55.7-4.7
	c-12.9-5.9-24.3-16-29.9-29.2c-4.7-10.8-4.8-23.5-0.3-34.3C790.7,552.5,802.2,541.9,815.2,535.4"/>
<path class="st1" d="M836.6,537.5c1.8-4.5,9-4.2,10.6,0.3c1.1,3.9,0.8,8,0.9,12c1.9,0.3,3.8,0.5,5.8,0.8c0.2-4.5-1.4-9.5,1-13.7
	c2.6-4,9.3-2.8,10.4,1.8c0.8,5.4,0.2,10.9,0.5,16.3c4.3,3.1,8,7.4,9,12.8c1.4,5.7-0.9,11.7-4.8,15.9c6.2,2.8,10.7,9.2,10.2,16.2
	c-0.2,7.3-5.8,13.1-12.1,15.9c0,3.5,1.5,7.4-0.6,10.6c-2,3.2-7.1,3.3-9.4,0.4c-1.8-2.3-1.6-5.5-1.9-8.2c-1.8,0-3.6,0-5.4,0
	c-0.1,2.8,0.3,6-1.7,8.2c-2.2,2.5-6.6,2.4-8.6-0.2c-2-2.5-1.6-6-1.9-9c-3.5-0.6-7.2-0.2-10.5-1.5c-3.7-1.6-4.5-7.2-1.3-9.7
	c3-2.5,7.2-1.2,10.7-1c-0.3-14.4-0.9-28.8-1.4-43.1c-3.9,0.1-8.1,2.6-11.9,0.5c-3.7-2-3.6-7.9,0-9.9c3.7-2,8-2.2,12-2.7
	C836.1,546,835.2,541.5,836.6,537.5 M848.6,562c-0.1,6,0.7,11.9,0.5,17.8c4.2-0.7,8.9-1.4,12.2-4.5c2.4-2.2,2.1-6.3-0.2-8.4
	C857.9,563.5,853.1,562.5,848.6,562 M849.6,592.1c0.1,4.8,0.6,9.6,0.6,14.5c5.4,0,11.5,0,16-3.5c2.6-1.8,2.6-6.4-0.4-7.8
	C860.8,592.5,855,592.5,849.6,592.1z"/>
</svg>
