<svg version="1.1" xmlns="http://www.w3.org/2000/svg" xmlns:xlink="http://www.w3.org/1999/xlink" x="0px" y="0px" viewBox="0 0 1000 1000" style="enable-background:new 0 0 1000 1000;" xml:space="preserve">
<style type="text/css">
	.st0{fill:#FFD400;}
	.st1{fill:#000000;}
</style>
<path class="st1" d="M485,387.5c32.1-5.8,65.6-1.5,95.6,10.9c18.1,7.4,35.2,17.9,48.8,32.1c20,21,33.7,47.5,40.2,75.7c6.1,24.4,7.3,49.8,5,74.7
	c-1.4,16.4-4.9,32.6-10.5,48.1c-6.3,15.8-13.8,31.3-24.6,44.6c-8.9,11-19,21.4-31.1,28.8c-2.6,1.8-6.6,1.1-8.1-1.8
	c-1.6-2.7,0-6.1,2.5-7.5c6-4,11.6-8.4,16.6-13.6c2.5-2.6,5.2-5.1,6.3-8.6c-10.8,2.5-21.5,5.8-32.5,7.4c-24.2,4-48.8,6.1-73.3,5.9
	c-20.9-0.3-41.9-1.2-62.6-4.8c-20.9-3.5-41.8-7.4-62-14c-3.7-1.1-7.2-3.1-11.1-3.1c0.7,4.9,4.2,8.6,7,12.4
	c7.9,9.9,18,17.6,28.2,25.1c3.5,2.1,3.3,8.1-0.7,9.5c-3.9,1.6-7.3-1.7-10.4-3.5c-26-17.6-45.5-43.9-57.1-72.9
	c-12.8-34.1-14.9-71.8-8.6-107.6c5.7-32.5,21-63.5,44.6-86.7C413.8,412.2,448.2,393.8,485,387.5 M495.5,397.8
	c-33.3,3.9-65.2,18.4-90.5,40.2c-5.9,5.5-12.5,11.1-14.9,19c-1.5,4.1-0.5,9.1,2.7,12.2c2.8,2.6,6.6,3.7,10.3,4.5
	c21.1,4.7,42.4,8.7,63.8,11c23.6,2.5,47.4,4.2,71.2,4.5c23.7,1,47.4-0.4,71-2.1c8.4-0.7,16.9-1.2,25.2-2.9c3.8-0.8,7.9-3,8.5-7.2
	c1-5.8-2.6-10.9-5.2-15.7c-9.5-16.9-23.4-31.1-39.8-41.2C567.4,401.9,530.8,393.5,495.5,397.8"/>
<path class="st0" d="M374.4,483.6c5.2-1.5,10.5,0.1,15.7,1c16.6,3.6,33.1,7.1,49.9,9.5c14.3,2,28.6,4.4,43,5.5
	c26,2,52.1,3.9,78.2,2.9c22-0.2,44-1.2,65.8-4.2c7.1-0.6,14.1-2.4,21.2-2.6c5.6,0.2,8.1,6.2,9.4,10.8c3.4,12.9,4.6,26.2,6,39.4
	c1.9,30.1-0.9,61.2-13.9,88.7c-2.9,5.4-5.9,11.2-11.2,14.7c-6.7,4.4-14.4,6.7-22,8.9c-28.8,7.6-58.5,12-88.3,11.7
	c-22.8,0.4-45.6-0.7-68-4.3c-23.8-3.7-47.6-8.8-69.8-18.6c-10.5-4.6-21.4-10.5-27.5-20.6c-6.1-10.4-8.2-22.6-10-34.4
	c-3.7-30.8-1.4-62.7,9.4-91.9C364.6,493.7,367.4,486.1,374.4,483.6"/>
<path class="st1" d="M454,546c-0.3-4.2,3.8-7.9,7.9-7.5c3,0.2,5.2,2.3,6.9,4.6c10.6,13.3,21.5,26.6,32.1,39.9c3.3,4.1,2.9,11-1.9,13.8
	c-16.1,9.7-32.3,19.1-48.4,28.6c-3.5,2.3-8.7,1.5-10.9-2.2c-2.3-3.6-0.7-8.6,2.9-10.6c10.6-6.4,21.4-12.7,32.1-19
	c-19-3.4-37.9-7-56.8-10.4c-3.8-0.5-7.4-3.4-7.5-7.3c-0.4-5,4.9-8.9,9.5-7.6c19.5,3.5,38.9,7.2,58.3,10.7
	c-7-8.8-14.1-17.5-21.1-26.3C455.6,550.9,453.9,548.7,454,546z"/>
<path class="st1" d="M595.1,560.1c1.5-2,3.3-3.9,5.9-4.4c4.1-1,8.4,2.3,8.8,6.4c0.4,2.7-1,5.1-2.5,7.2c-3.2,4.3-6.3,8.6-9.5,13
	c10.1-0.9,20.1-2,30.2-2.8c3.8-0.7,8.1,1.7,9,5.6c1.3,4.5-2.5,9-7,9.3c-10.2,1-20.3,2-30.5,2.9c4.8,4.6,9.8,9.1,14.5,13.8
	c3.1,3,2.9,8.7-0.7,11.2c-3.1,2.5-7.7,1.6-10.4-1.1c-7.8-7.2-15.4-14.6-23.2-21.9c-2.1-2-4.3-4.2-4.8-7.2c-0.6-2.8,0.9-5.5,2.5-7.7
	C583.3,576.3,589.2,568.2,595.1,560.1z"/>
</svg>
