<svg version="1.1" xmlns="http://www.w3.org/2000/svg" xmlns:xlink="http://www.w3.org/1999/xlink" x="0px" y="0px" viewBox="0 0 1000 1000" style="enable-background:new 0 0 1000 1000;" xml:space="preserve">
<style type="text/css">
	.st0{fill:#FFD400;}
	.st1{fill:#000000;}
</style>
<path class="st1" d="M669,503.9c-6.8-27.7-20.7-53.8-40.6-74.3c-14-14.3-31.5-24.7-50-32c-16.4-6.4-33.7-10.8-51.3-12
	c-51.7-4.2-103.9,16.8-140.2,53.4c-23.4,23.1-38.5,53.9-44.1,86.2c-6.2,35.3-4.3,72.4,8,106.2c10.9,28.3,29.5,53.9,54,71.8
	c3.3,2.2,6.5,4.7,10.2,6.2c3.3,1.2,7.4-1.7,6.9-5.3c0.2-2.7-2.3-4.4-4.2-5.8c-10-7.2-19.7-15-27.2-24.8c-2.6-3.4-5.5-6.9-6.2-11.3
	c4.2,0,8,2.2,11.9,3.4c21.1,6.7,42.9,10.7,64.7,14.3c18.9,3.2,38,3.9,57.1,4.3c25.2,0.3,50.4-1.9,75.3-5.9c11-1.6,21.7-4.9,32.5-7.4
	c-1.1,3.5-3.9,6.1-6.3,8.7c-5,5.1-10.6,9.6-16.6,13.5c-2.5,1.5-4.2,4.9-2.5,7.6c1.5,2.9,5.4,3.6,8,1.8c12.3-7.6,22.5-18.1,31.5-29.4
	c10.5-13.1,18-28.5,24.2-44c5.6-15.5,9.1-31.7,10.5-48.1C677,555.1,675.6,528.9,669,503.9z M392.5,451.6c3.1-5.1,7.6-9.1,12-13.1
	c28.2-24.6,64.6-39.8,102.1-41.6c17.8-0.9,35.7,1.4,52.8,6.5c19.3,5.7,38.1,14.5,53.4,27.7c11.9,10.1,21.5,22.8,28.3,36.9
	c2.1,4.1,3.1,10-0.7,13.4c-4.9,3.8-11.6,3.5-17.4,4.5c-23.9,2.2-47.9,3.8-72,3.6c-51-0.5-102.2-4.5-151.8-16.8
	c-4-1.2-7.9-3.7-9.2-7.9C388.4,460.4,390.2,455.5,392.5,451.6z"/>
<path class="st0" d="M368.6,487.6c2.5-3.1,6.4-4.9,10.4-4.6c6.9,0.4,13.5,2.3,20.2,3.6c24.3,5.4,49,9,73.7,12.1
	c25.3,2.3,50.7,4.2,76.1,4.1c16.7-0.5,33.5-0.4,50.2-1.6c12.7-0.9,25.3-2.5,37.9-4.2c4.2-0.5,8.5-1.9,12.8-0.9
	c4,1.2,5.8,5.4,7.1,9.1c2.9,9.6,3.9,19.6,5.2,29.5c1.6,12,2.3,24.2,1.4,36.3c-0.1,2.4-2.7,3.2-4.7,3.5c-12.7,1.9-25.4,3.3-38.1,4.3
	c0.9-12.8,1-25.6,0.8-38.4c0-4.4-3.9-8.6-8.5-8.1c-4.5,0.1-7.9,4.4-7.7,8.8c0,13,0,26-1,39c-43.8,2.4-87.9,0.9-131.4-4.5
	c0.8-14.2,0.6-28.3,0-42.5c-0.1-2.8-1.2-5.6-3.6-7.2c-3.1-2.3-8-1.8-10.5,1.2c-2.3,2.4-2.2,6-2.1,9.1c0.5,12.4,0.7,24.8,0,37.2
	c-32.9-4.9-65.4-11.9-97.1-21.7c-2.2-0.8-4.7-1.3-6.5-2.9c-1.1-2-0.7-4.4-0.7-6.6c1-12.5,3.8-24.8,7.8-36.7
	C362.3,499.1,364.5,492.8,368.6,487.6z"/>
<path class="st0" d="M352.7,567.5c2.3-0.5,4.6,0.5,6.9,1.1c31.5,9.4,63.8,16.2,96.4,21c-0.5,10.2-2.3,20.3-3,30.4
	c-0.6,4.8-2,11.1,2.8,14.2c5,3.7,12.4-0.5,12.7-6.5c1.3-12,2.8-24,3.7-36c43.5,5.3,87.4,6.8,131.1,4.6c-1.1,11.4-3.2,22.6-5.7,33.8
	c-1.1,4.6,2.5,9.9,7.4,9.8c3.9,0.4,7.5-2.6,8.4-6.4c3.2-12.6,5.2-25.5,6.3-38.5c11.5-0.8,22.9-2.1,34.3-3.6c2.3-0.3,4.8-0.4,7.1,0.3
	c0.6,6.3-1.4,12.5-2.8,18.6c-2.4,8.5-5.1,16.9-9,24.8c-2.7,5-5.5,10.3-10.3,13.6c-6.6,4.5-14.3,6.9-21.9,9.1
	c-29.3,7.9-59.6,12.2-90,11.9c-23.2,0.4-46.5-0.9-69.5-4.7c-22-3.5-44-8.3-64.6-17c-9.8-4.2-19.8-8.9-26.8-17.2
	c-6.3-7.5-9.1-17.2-11.2-26.6c-2-9.6-3.2-19.5-3.5-29.3C351.5,572.5,351,569.6,352.7,567.5z"/>
</svg>
