<svg version="1.1" xmlns="http://www.w3.org/2000/svg" xmlns:xlink="http://www.w3.org/1999/xlink" x="0px" y="0px" viewBox="0 0 1000 1000" style="enable-background:new 0 0 1000 1000;" xml:space="preserve">
<style type="text/css">
	.st0{fill:#FFD400;}
</style>
<path class="st0" d="M439.4,84.8c25.8-2.4,51.9-0.3,77.2,4.9c23.8,5,47.1,12.7,68.6,24c15.6,8.2,30.5,18.4,42.2,31.8
		c8.6,9.7,15.3,21.4,17.4,34.4c2.9,15.3-2.9,31.4-13.4,42.6c-10.3,11-24.2,18-38.4,22.5c-21.3,6.6-43.9,8.1-66.1,7.2
		c-27.4-1.3-54.6-6.6-80.5-15.7c-22.9-8.1-45.2-19.1-63.8-35c-13.2-11.5-24.7-26.2-27.9-43.8c-3-14.9,1.7-30.8,11.6-42.1
		c10.8-12.5,26.2-20.1,41.9-24.8C418.5,87.7,428.9,85.9,439.4,84.8 M454.3,125.2c-16.7,0.8-34,2.9-48.9,11.1
		c-4.6,2.8-10.2,6.7-10,12.7c0.9,7.2,6,12.9,10.9,17.8c11,10.7,24.6,18.3,38.5,24.5c24.1,10.5,50.1,16.7,76.3,18.9
		c20.4,1.4,41.3,1,61-5.2c7.4-2.6,15.2-5.8,20.2-12.1c2.9-3.5,2-8.6,0-12.2c-4.4-8.2-11.6-14.5-19-20
		c-15.7-11.4-33.8-19.1-52.2-24.9C506.2,128.4,480.2,124.5,454.3,125.2z"/>
</svg>
