<svg version="1.1" xmlns="http://www.w3.org/2000/svg" xmlns:xlink="http://www.w3.org/1999/xlink" x="0px" y="0px" viewBox="0 0 1000 1000" style="enable-background:new 0 0 1000 1000;" xml:space="preserve">
<style type="text/css">
	.st0{fill:#EDEDED;}
	.st1{fill:#000000;}
</style>
<path class="st1" d="M433.5,322.8c14.8-1.9,30,1.6,43,8.7c13.8,7.5,25.6,18.5,34.6,31.4c11.2,16.9,19.3,36,22.8,56c5.7,33.3,0.2,69.2-18.3,97.8
	c-9,14-21.4,26-36.4,33.5c-12.6,6.3-27.1,9.1-41.1,7.3c-16.9-1.9-32.6-10.1-45-21.6c-14.8-13.7-24.9-31.8-31-50.8
	c-6.4-18.6-8.7-38.4-7.7-58c0.7-23.2,7.7-46.4,21-65.5C388.7,341.7,409.4,325.6,433.5,322.8"/>
<path class="st1" d="M632.3,376.3c14.1-2.5,29.1,0.4,40.9,8.6c10.7,7.4,18.7,18.3,24,30c9,20.2,9,43.5,3.3,64.6c-4.9,16.3-15.4,30.9-29.5,40.5
	c-12.4,8.7-28.4,12.3-43.3,9.3c-9-1.6-17.2-5.9-24.1-11.8c-13.9-11.7-21.9-29.2-24.3-46.9c-2.4-18.6-0.5-38,7.1-55.2
	c5.7-13.4,14.8-26.1,28-32.9C620,379.4,626,377.4,632.3,376.3"/>
<path class="st0" d="M439.3,342.2c13.2-1.5,26.7,1.8,38,8.5c15.8,9.3,27.6,24.3,35.1,40.8c14.2,31.3,14.9,68.4,2.1,100.2
	c-6.8,16.7-17.6,32.1-32.6,42.3c-12.7,8.7-28.7,13.2-44.1,10.7c-13.7-2-26.4-8.9-36.4-18.3c-12.3-11.5-21-26.5-26.4-42.4
	c-8.4-25.3-8.8-53.2-1-78.8c6.2-20.2,17.9-39.4,35.5-51.7C418.3,347.4,428.7,343.6,439.3,342.2"/>
<path class="st0" d="M634.4,391.7c10.7-2.3,22.2,0.3,31,6.9c9.5,7,15.9,17.5,19.5,28.6c5.9,18.5,4.3,39.2-3.7,56.8
	c-5,10.9-12.8,20.8-23,27.1c-8.7,5.3-19.3,7.8-29.3,5.4c-11.9-2.6-21.8-11.1-28-21.4c-9-14.9-11.5-33-8.9-50.1
	c2.5-15.5,9.3-30.6,20.8-41.5C618.7,397.9,626.2,393.5,634.4,391.7"/>
<path class="st1" d="M414.4,371.7c4.4-2,9.2,0.4,12.4,3.5c9.5,9.4,16.6,20.7,25,31c1.1,1.2,3.1,3,4.6,1.3c5.6-7.2,9.5-15.7,15.7-22.5
	c2.7-3.1,7.2-4.8,11.2-3.2c4,1.3,6.7,5.9,5.4,10c-1.1,3.5-3.5,6.4-5.6,9.3c-5.3,7.2-10.5,14.4-14.9,22.1c-2.7,5.4,0.9,11.1,3.4,15.9
	c8.3,16.7,16,34.1,19.6,52.5c0.7,4.9,1.5,11.1-2.6,14.8c-4.9,4.4-13.7,1.7-15-4.9c-1.9-10-3.6-20.2-7.3-29.8
	c-2.9-7.6-5.9-15.2-10-22.3c-1.7-2.3-3.8,0.5-4.5,2.2c-7.2,14-14,28.5-16.8,44.2c-1.1,4.8-1,10-3.8,14.2c-3.3,4.8-11.4,5.3-14.9,0.5
	c-2.8-4-1.6-9.2-0.9-13.7c4.6-21.9,14.3-42.3,24.8-61.9c1.8-3.4,4-7.8,1.3-11.4c-8.2-12.5-17.4-24.6-28.6-34.5
	c-2-1.9-3.9-4.2-4.3-7.1C407.9,377.8,410.5,373.3,414.4,371.7z"/>
<path class="st1" d="M614.5,416c0.2-4.2,4.4-7.6,8.5-6.9c3,0.4,5.4,2.4,7.3,4.5c4,4.4,7.6,9.2,11.4,13.8c0.8,1.2,2.9,2,3.7,0.3
	c3.8-4.6,6.2-10.8,11.8-13.6c5.1-2.5,11.4,2.4,10.3,7.9c-1.7,6.9-7.5,11.5-11.1,17.4c-1.6,2.5-4,5.4-2.4,8.6
	c4.3,9.3,8.3,18.8,11.8,28.4c1.3,4.5,3.1,10.2-0.3,14.2c-3.3,4-10.5,3-12.4-1.8c-3.1-8-4-17.1-9.1-24.2c-3.4,4.3-4.7,9.8-6.8,14.7
	c-2.5,6-3.1,12.7-6.8,18.1c-3.1,4.4-10.7,4-13.1-0.9c-2-4.5,0.5-9.2,1.8-13.5c3.3-10.3,7.6-20.2,12.1-30c1.6-3.6,3.5-7.8,1.3-11.5
	c-4.1-6.8-9.1-13-14.8-18.5C615.8,421.3,614.2,418.8,614.5,416z"/>
</svg>
