<svg version="1.1" xmlns="http://www.w3.org/2000/svg" xmlns:xlink="http://www.w3.org/1999/xlink" x="0px" y="0px" viewBox="0 0 1000 1000" style="enable-background:new 0 0 1000 1000;" xml:space="preserve">
<style type="text/css">
	.st0{fill:#EDEDED;}
	.st1{fill:#000000;}
</style>
<path class="st1" d="M983.8,552.2c-1.5-11.8-6.2-23-11.6-33.4c-9.1-17.1-23.6-30.9-40.1-40.7c-29.4-17.4-64.8-23.3-98.4-19.2
	c-25,3.3-49.3,12.3-69.9,26.8c-13.7,9.4-25.8,21.5-33.8,36.2c-8.2,14.7-12.1,31.9-10.1,48.7c2.3,20.2,11.7,39.4,25.8,54
	c2.3,2.4,4.7,5.2,5.1,8.7c0.4,2.8-1.1,5.4-2.6,7.7c-10.3,16-20.6,32.1-30.9,48.1c-1,1.7-2.3,3.8-1.2,5.9c0.9,2.6,4.1,3.4,6.5,2.4
	c31.4-10.2,62.7-20.5,94.1-30.7c4.7-1.5,9.6-2.9,14.7-2.7c26.7,2.2,54-0.3,79.2-9.7c23.5-8.7,45.3-23.5,59.4-44.5
	C981.1,593.1,986.7,572.3,983.8,552.2z"/>
<path class="st0" d="M951.6,518.4c-8.7-11.4-19.9-20.8-32.6-27.6c-13.8-7.3-28.7-12.8-44.2-14.8c-35.5-4.9-73.3,2.1-103,22.7
	c-14.7,10.3-27.1,24.5-33.3,41.6c-4.9,13.4-5.4,28.4-1.1,42.1c5.1,16.5,16.2,30.9,30.1,41c1.6,1.4,3.1,3.2,3,5.5
	c-0.3,4.3-3,7.7-5.2,11.2c-6.9,11-13.7,22.1-20.6,33.2c23.7-8.2,47.5-16,71.1-24.4c9.5-3.8,19.4,0.5,29.1,0.4
	c25.8,0.5,52-5.1,74.8-17.4c11.8-6.3,22.3-15.2,30.4-25.8c8.9-11.6,16.4-25.3,16.9-40.2C967.7,549,962,531.8,951.6,518.4z"/>
<path class="st1" d="M825.8,517.5c0.6-3.6,3.1-7.2,7-7.6c4.7-0.6,8.5,3.7,8.6,8.2c0.5,26,1.5,52,1.1,78c-0.3,9.2-2.3,18.9-8.3,26.1
	c-5.3,6.5-14.1,9.6-22.3,8.5c-11.8-1.3-22.3-10.9-24.1-22.7c-0.7-5-0.5-10.9,3.4-14.8c3.4-3.4,9.8-2.6,11.9,1.8
	c1.7,2.8,0.2,6.1-0.2,9c-0.1,8.4,10.8,14.6,17.9,9.8c3.9-3,5.1-8.1,5.9-12.7c0.7-6.6,1-13.2,0.6-19.8c-11,3.4-23.7,2.5-33.2-4.3
	c-10.4-7-15.5-20.9-11.8-32.9C787.2,525.7,807.5,514.3,825.8,517.5 M797.5,546.5c-2.6,6.2-0.4,14,5.3,17.8c7.1,5,16.8,4.4,24.2,0.4
	c0.1-10.4-0.7-20.9-0.5-31.3C815.4,530,801.8,535.5,797.5,546.5z"/>
<path class="st1" d="M851.6,520c-0.5-4.8,3.5-9.8,8.6-9.2c4.2,0.4,6.8,4.5,7,8.5c5.1-2.7,11.4-3.6,16.7-1c3.2,1.4,5.7,4,7.8,6.7
	c5.1-4,11.8-6.8,18.3-5.2c7.3,1.8,12.2,8.5,14.6,15.3c4.4,12.5,3.9,26,2.9,38.9c-0.1,3.8-1.5,8.3-5.6,9.6c-4.9,2-10.4-2.6-9.9-7.7
	c1-11.7,2-23.8-1.7-35.2c-0.9-2.2-1.8-5.2-4.3-6c-3.6,0.5-6.1,3.5-8.6,5.9c1.6,10,1.9,20.2,1.2,30.3c-0.2,4,0,9.2-3.8,11.7
	c-3.3,2.5-8.4,1.4-10.5-2c-1.3-2-1.4-4.5-1.2-6.8c0.8-11.4,1.2-23-1.6-34.2c-0.9-2.8-1.7-6.2-4.4-7.7c-4.1,0.8-7.1,4-10,6.7
	c0.1,12.1,0.4,24.2,0.4,36.2c0.4,4.1-2.1,8.5-6.3,9.3c-4.8,1.1-9.4-3.4-9.1-8.2C852.1,557.4,851.7,538.7,851.6,520z"/>
</svg>
