<svg version="1.1" xmlns="http://www.w3.org/2000/svg" xmlns:xlink="http://www.w3.org/1999/xlink" x="0px" y="0px" viewBox="0 0 1000 1000" style="enable-background:new 0 0 1000 1000;" xml:space="preserve">
<style type="text/css">
	.st0{fill:#EDEDED;}
	.st1{fill:#000000;}
</style>
<path class="st1" d="M983.8,552.2c-1.5-11.8-6.2-23-11.6-33.4c-9.1-17.1-23.6-30.9-40.1-40.7c-29.4-17.4-64.8-23.3-98.4-19.2
	c-25,3.3-49.3,12.3-69.9,26.8c-13.7,9.4-25.8,21.5-33.8,36.2c-8.2,14.7-12.1,31.9-10.1,48.7c2.3,20.2,11.7,39.4,25.8,54
	c2.3,2.4,4.7,5.2,5.1,8.7c0.4,2.8-1.1,5.4-2.6,7.7c-10.3,16-20.6,32.1-30.9,48.1c-1,1.7-2.3,3.8-1.2,5.9c0.9,2.6,4.1,3.4,6.5,2.4
	c31.4-10.2,62.7-20.5,94.1-30.7c4.7-1.5,9.6-2.9,14.7-2.7c26.7,2.2,54-0.3,79.2-9.7c23.5-8.7,45.3-23.5,59.4-44.5
	C981.1,593.1,986.7,572.3,983.8,552.2z"/>
<path class="st0" d="M951.6,518.4c-8.7-11.4-19.9-20.8-32.6-27.6c-13.8-7.3-28.7-12.8-44.2-14.8c-35.5-4.9-73.3,2.1-103,22.7
	c-14.7,10.3-27.1,24.5-33.3,41.6c-4.9,13.4-5.4,28.4-1.1,42.1c5.1,16.5,16.2,30.9,30.1,41c1.6,1.4,3.1,3.2,3,5.5
	c-0.3,4.3-3,7.7-5.2,11.2c-6.9,11-13.7,22.1-20.6,33.2c23.7-8.2,47.5-16,71.1-24.4c9.5-3.8,19.4,0.5,29.1,0.4
	c25.8,0.5,52-5.1,74.8-17.4c11.8-6.3,22.3-15.2,30.4-25.8c8.9-11.6,16.4-25.3,16.9-40.2C967.7,549,962,531.8,951.6,518.4z"/>
<path class="st1" d="M887.1,507.3c3.3-2,7.5-1.1,10.4,1.1c12.1,8.1,24.3,16.1,35.4,25.6c7.9,6.8,15.2,15.2,17.5,25.7c2.7,10.8-0.7,22.6-7.8,31.1
	c-10.4,12.3-25.5,19.3-40.4,24.4c-2.9,1.1-6.2,1.9-9.1,0.4c-4.4-1.9-6.3-7.8-3.7-11.9c1.8-3.3,5.7-4.4,9-5.6
	c-1.1-23.6-2.6-47.1-3.7-70.7c-3.5-2.6-7.7-4.5-10.4-8C881.6,515.6,882.9,509.6,887.1,507.3 M912.9,540c0.8,17,1.9,33.9,2.7,50.9
	c6.2-3.7,12.4-7.9,16.1-14.3c3.4-5.8,3.2-13.4-0.4-19C926.6,550.4,919.6,545.2,912.9,540z"/>
<path class="st1" d="M775.7,514.7c6.3-3.9,14.6-4.1,21.2-0.7c10.4,5.2,16.5,16.8,16.9,28.1c0.3,4.8-3.8,9.6-8.8,9.3c-4.4,0-8.1-3.9-8.4-8.2
	c-0.4-4.8-2-9.9-6-12.9c-1.9-1.5-4.9-2.1-6.8-0.3c-3.5,3.3-4.1,8.5-4.3,13c0.1,9.1,2.7,18,5.3,26.7c5-1.4,9.8-3.7,15-4.4
	c6.5-0.5,11.3,7.6,7.5,13c-3.9,5.2-11.2,5.3-16.8,7.7c2.9,7.7,6.2,15.3,9.3,22.9c1.9,4.2,0,9.7-4.4,11.5c-4.2,2-9.5-0.5-11.3-4.7
	c-3.6-8-6.8-16.2-10-24.4c-4.9,1.2-10,4.6-15.1,2.5c-4.8-1.8-6.6-8.3-3.7-12.4c3-4.2,8.6-4.6,13.1-6.4c-3.8-12.6-7.4-25.8-5.6-39.2
	C764.1,527.6,768.2,519.1,775.7,514.7z"/>
<path class="st1" d="M865.5,521.5c3.5-1.1,7.6,0.3,9.5,3.5c2.1,2.9,1.3,6.7,1.4,10c-0.4,13.8,2.3,27.3,3.4,41c0.8,10.3-1.3,21.7-8.8,29.3
	c-9.5,9.9-27.3,10.9-36.9,0.6c-7.5-7.5-8.5-18.7-8.4-28.8c0.4-15.1-0.1-30.2-2.3-45.1c-0.8-4.1,1.5-8.6,5.6-10
	c4.7-1.9,10.3,1.6,11.2,6.5c3.2,16.7,2.7,33.8,2.7,50.7c0.4,4.9,0.1,10.5,3.4,14.5c3.8,4.2,11.2,2.3,13.8-2.3
	c3.5-6,2.5-13.2,1.9-19.7c-1.8-14-3.7-28.2-2.6-42.4C859.8,525.7,862.3,522.5,865.5,521.5z"/>
</svg>
