<svg version="1.1" xmlns="http://www.w3.org/2000/svg" xmlns:xlink="http://www.w3.org/1999/xlink" x="0px" y="0px" viewBox="0 0 1000 1000" style="enable-background:new 0 0 1000 1000;" xml:space="preserve">
<style type="text/css">
	.st0{fill:#00A900;}
	.st1{fill:#18E718;}
	.st2{fill:#000000;}
</style>
<path class="st2" d="M507.3,35.3c3.3-1.5,7.5-0.4,9.6,2.6c1.4,2.1,2.5,4.4,3.6,6.6c20.5,40.8,41.1,81.6,61.6,122.4c2.2,4.1,5.1,9,2.5,13.6
	c-22,43.9-44.2,87.8-66.3,131.7c-1.3,2.9-4,5.4-7.3,5.5c-3.6,0.3-6.8-2.2-8.2-5.4c-22-43.7-44-87.4-66-131c-1.7-3-1.9-6.7-0.2-9.8
	c21.5-42.8,43.1-85.5,64.5-128.2C502.7,40.3,504,36.7,507.3,35.3"/>
<path class="st0" d="M507.3,65.3c1.5-0.9,2.3,1.6,2.6,2.6c7.4,30.7,14.7,61.3,22,92c1.2,2.7-1.2,4.7-3.7,4.7
	c-21.4,2.6-42.8,5.2-64.2,7.6c-2.6,0.1-6.5,0.8-7.6-2.3c-0.3-3.5,1.1-6.9,2.6-10c15.3-30.4,30.6-60.8,45.9-91.2
	C505.5,67.5,506.2,66.2,507.3,65.3z"/>
<path class="st1" d="M514.9,67.5c0.8,0.8,1.5,1.7,2,2.7c16.2,32.4,32.6,64.7,48.8,97.1c0.7,1.3,1.6,3.8-0.4,4.3
	c-4.2-0.6-8.1-2.1-12.2-3.1c-4.3-1.3-8.8-2-12.9-3.9c-2.5-1.2-3.7-4-4.2-6.6c-6.2-26.1-12.5-52.1-18.7-78.2
	C516.5,75.7,515.1,71.7,514.9,67.5z"/>
<path class="st1" d="M464,176.9c21.3-2.4,42.6-5.4,64-7.4c4.1-0.2,3.5,4.8,3.1,7.5c-4.4,26-9.3,51.9-13.9,77.9
	c-2.4,12.3-4.1,24.8-7,37c-2.6-1.7-3.5-4.7-4.9-7.3c-15.5-30.8-31-61.6-46.5-92.3c-1.6-3.5-4.2-7.1-3.6-11.1
	C456.3,177.6,460.9,177.4,464,176.9z"/>
<path class="st0" d="M536,176.1c0.6-2.1,0.9-4.8,3.1-5.8c4.7,0.1,9.2,2,13.7,3c4.8,1.5,10.1,2,14.5,4.7c-0.9,5.8-3.7,11.1-6.1,16.3
	c-14.6,28.7-28.8,57.6-43.6,86.2c0.1-2.6,0.4-5.1,1-7.7C524.4,240.6,530.2,208.4,536,176.1z"/>
</svg>
