<svg version="1.1" xmlns="http://www.w3.org/2000/svg" xmlns:xlink="http://www.w3.org/1999/xlink" x="0px" y="0px" viewBox="0 0 1000 1000" style="enable-background:new 0 0 1000 1000;" xml:space="preserve">
<style type="text/css">
	.st0{fill:#EDEDED;}
	.st1{fill:#B65F40;}
	.st2{fill:#000000;}
</style>
<path class="st2" d="M210.2,654.3c2.9-1.3,6.1,0,8.3,2.1C301,731.2,383.5,806.1,466,881c2.5,2.4,5.8,4.5,7,8c0.8,2.7-0.7,5.5-2.6,7.3
		c-11.7,11.7-23.4,23.3-35.1,35c-1.6,1.7-3.8,3.2-6.2,3c-3.4-0.2-5.7-3-8.2-5c-55.2-47.8-110.4-95.6-165.7-143.4
		c-11.6-10-23.2-20.2-35.1-29.9c-4.3-3.1-8.7-6.9-14.1-7.5c-4.5,0.2-7.6,3.9-10.8,6.6c-22.1,20.9-44,42.1-66,63.1
		c-1.6,1.6-3.8,2.8-6.2,2.5c-3-0.2-5-2.7-6.7-4.9c-12-15.9-24-31.9-36.1-47.8c-1.8-2.5-4.1-4.9-4.3-8.1c-0.2-2.7,1.2-5.2,3.3-6.7
		c42.4-32.2,84.9-64.4,127.3-96.6C207.7,655.7,208.9,654.9,210.2,654.3"/>
<path class="st0" d="M207.7,676.7c2.2-1.4,4.5-3.2,7.3-3.2c2.7,0.4,4.8,2.2,6.8,3.9c8.6,7.7,17.1,15.4,25.6,23.1
		c-10,11.7-20,23.3-30,35c-3.3-2.5-6-6.4-10.3-7c-4.5-0.2-7.2,3.9-10.2,6.5c-5.7-12.5-11.5-24.9-17.2-37.4
		C188.9,690.6,198.1,683.5,207.7,676.7z"/>
	<path class="st0" d="M139.7,727.8c10.9-8.3,21.8-16.5,32.7-24.7c5.9,12.8,11.8,25.6,17.6,38.4c-5.1,4.9-10.2,9.8-15.3,14.6
		C163,746.7,151.4,737.2,139.7,727.8z"/>
	<path class="st0" d="M223.9,741.2c10-11.6,19.9-23.2,29.9-34.8c6.9,6.3,13.8,12.5,20.7,18.8c-12.9,8.8-25.4,18-38.2,26.8
		C232.2,748.4,228,744.8,223.9,741.2z"/>
<path class="st1" d="M243.2,757.9c12.8-8.8,25.2-18,38-26.6c58.6,53.2,117.2,106.4,175.8,159.5c-9.3,9.3-18.7,18.6-28,27.9
		C367.1,865.1,305.1,811.5,243.2,757.9z"/>
	<path class="st1" d="M98.2,759.2c11.4-8.6,22.8-17.2,34.2-25.9c12,9.6,23.9,19.3,35.9,29c-13.3,12.7-26.5,25.5-39.9,38.2
		c-2,2.2-5.6,2.1-7.2-0.4c-6.7-8.7-13.2-17.5-19.8-26.3c-2.1-3.1-4.7-6-5.7-9.7C95.1,761.9,96.7,760.3,98.2,759.2z"/>
</svg>
