<svg version="1.1" xmlns="http://www.w3.org/2000/svg" xmlns:xlink="http://www.w3.org/1999/xlink" x="0px" y="0px" viewBox="0 0 1000 1000" style="enable-background:new 0 0 1000 1000;" xml:space="preserve">
<style type="text/css">
	.st0{fill:#EDEDED;}
	.st1{fill:#FF5400;}
</style>
<path class="st0" d="M848.5,480.4c3.4-2.2,8.1-0.2,9.7,3.4c18.5,36.5,37,73,55.5,109.5c1.8,3,1,6.6-0.6,9.5
	c-18.4,36.3-36.8,72.7-55.2,109c-1.4,3.3-5.3,5.6-8.8,4.2c-2.2-0.7-3.6-2.7-4.6-4.7c-18.4-36.3-36.8-72.6-55.2-109
	c-1.7-3-0.8-6.5,0.7-9.3c18.3-36.1,36.6-72.2,54.9-108.3C845.7,483.1,846.7,481.3,848.5,480.4"/>
<path class="st0" d="M764.8,775.9c8.3-9.5,20.4-16,33.1-16c6.9,0.2,14.2,2,19.4,6.8c5.6,5,8,13.2,6.2,20.5
	c-1.5,7.9-6.5,14.4-10,21.6c-1.5,3.1-2.4,7.7,0.9,10c2.3,2,5.5,1.1,8.2,0.7c18.1-3.8,37.1-5.7,55.3-1.5c10.4,2.3,20.5,7.7,27,16.3
	c5.8,7.6,8.2,17.5,6.8,26.9c-0.6,2,1,3.6,2,5.2c5.1,7.4,7.8,16.7,6.8,25.8c-1.2,8.7-5.8,17.4-13.7,21.6c-4.7,2.6-10.2,2.3-15.3,2.2
	c0,7.3-1.8,15.1-7.4,20.2c-7.5,7-19.3,7.2-28.3,3.1c-7.8-3.7-14.7-9.2-23.1-11.4c-10.4-3.1-21.3-1-31.5,1.6
	c-12.4,3.2-25.3,5.4-38.1,4c-11.4-1-22.9-4.8-31.4-12.8c-7.9,6-21.2,7.2-27.8-1.3c-4.9-5.7-6.8-13.1-8.6-20.3
	c-4.5-15.7-3.9-32.3-2.3-48.4c1.5-12.9,4.2-26.5,12.9-36.8c3.5-4.4,8.5-8,14.3-8.2c8.6-0.4,16.4,4.3,22.9,9.5
	c2.4-1.2,4.9-2.3,7.4-3.4C751.6,798.7,755.9,785.7,764.8,775.9"/>
<path class="st1" d="M803.6,594.6c15.3-30.2,30.6-60.3,45.9-90.5c6.4,27.4,12.7,54.9,19.1,82.3C846.9,589.2,825.2,591.9,803.6,594.6
	z"/>
<path class="st1" d="M874.7,586.3c-6-25.5-11.8-51.1-17.8-76.6c14,27.7,28.1,55.5,42.2,83.2C890.9,590.6,882.8,588.5,874.7,586.3z"
	/>
<path class="st1" d="M802.7,600.7c22-2.8,44-5.5,65.9-8.3c-5.9,34.4-12,68.7-17.8,103.1C834.8,664,818.8,632.3,802.7,600.7z"/>
<path class="st1" d="M874.7,592.5c8.6,2.3,17.1,4.6,25.7,6.9c-13.7,27-27.4,54-41,81C864.6,651.1,869.6,621.8,874.7,592.5z"/>
<path class="st1" d="M773.9,783c5-6,12.3-10,20.1-11.1c5.3-0.7,11.2,0.1,15.2,3.9c2.8,2.5,3.1,6.8,1.8,10.2c-1.8,4.6-4.8,8.6-7.1,13
	c-5.1,9.2-8.2,20-6.3,30.5c-2.1,1.1-5.1,1.8-5.8,4.5c-0.9,3.2,2.8,5.9,5.7,4.5c14-5,28.6-8.4,43.5-9.4c14.3-0.8,29.4-0.1,42.4,6.4
	c8.3,4.1,15.5,12.3,14.9,22.1c-8.3-6-18.1-9.6-28.2-11.1c-21-3.5-42.5-1.3-63.1,3.3c-1.7,0.4-3.8,0.8-4.6,2.6
	c-1.4,2.2,0.2,5.4,2.7,5.9c2,0.3,4-0.4,6-0.7c14.7-3.2,29.8-4.9,44.8-4.1c9.5,0.6,19.2,1.8,28.1,5.6c6.8,2.9,13.1,7.6,17,14
	c3.8,6.2,5.4,13.8,3.7,20.9c-0.8,2.9-2.6,6.2-5.8,6.9c-4.9,1.1-9.9-0.4-14.7-1.5c-4.8-13.3-16.2-23.6-29.5-28.1
	c-14.8-5-31-5-46.1-1.5c-2.9,0.4-4.6,4-2.9,6.5c1.4,2,4.1,1.8,6.2,1.4c14.1-2.8,29.3-2.8,42.8,2.6c10,4.2,18.5,12.5,21.8,23
	c2,6.5,2.5,14.2-1.1,20.2c-2.1,3.6-6.8,4.5-10.6,3.3c-6.2-1.8-11.4-5.8-17-8.8c-13.6-7.7-29.2-12.9-44.9-11.7
	c-4.5,0.2-5.2,5.9-1.8,8.2c-11.1,3-22.7,5.4-34.2,3.6c-12.8-1.8-26.5-6.9-33.8-18.2c-1.7-2.2-2.9-6-6.3-5.7
	c-2.7-0.1-4.6,3.1-3.5,5.5c1.2,2.9,3.1,5.3,4.8,7.9c-4.4,2-9.2,4.7-14.2,3.6c-3.5-2.1-4.7-6.4-6-10.1c-4.5-12.8-4.3-26.7-3.7-40.1
	c0.9-10.7,2.6-21.5,7.1-31.3c1.9-3.7,4.7-8.4,9.5-8.1c4.4,0.6,8,3.7,11.6,6c-8.1,7.8-13.9,18.2-14.8,29.5
	c-0.7,8.9,1.3,18.4,6.8,25.5c2.5,3,8,0.4,7-3.5c-1.2-3.2-3.2-6-4.2-9.2c-2.8-9.2-1.1-19.4,3.9-27.6c8.7-14.5,27.2-22.7,43.7-18.1
	c2.4,0.5,5.2,2.1,7.5,0.2c2.3-1.8,1.6-5.8-1-6.8c-5.3-2.5-11.2-3-17-3.2C763.8,803.2,766.6,791.6,773.9,783 M781.5,838.6
	c-2.3,1.2-2.6,4.1-1.4,6.2c4,9.1,6.1,19.2,5.5,29.2c-0.2,3.8-1.7,7.4-2.1,11.2c0.2,4,6.3,4.8,7.8,1.2c3.6-8.2,3.4-17.5,2.1-26.1
	c-1.1-6.8-2.9-13.5-6.1-19.6C786.3,838.4,783.5,837.5,781.5,838.6z"/>
</svg>
