<svg version="1.1" xmlns="http://www.w3.org/2000/svg" xmlns:xlink="http://www.w3.org/1999/xlink" x="0px" y="0px" viewBox="0 0 1000 1000" style="enable-background:new 0 0 1000 1000;" xml:space="preserve">
<style type="text/css">
	.st0{fill:#AAAAA9;}
	.st1{fill:#4A4F4F;}
	.st2{fill:%%ST2%%;}
	.st3{fill:%%ST3%%;}
	.st4{fill:%%ST4%%;}
	.st5{fill:#000000;}
</style>
<path class="st5" d="M828.9,323c-0.4-3,0.7-7.1,4.1-7.8c3.8-0.9,6.8,2.3,8.9,5c12,16.8,25.7,32.4,38.3,48.7c1.8,2.4,3.4,5,3.5,8.1
	c0.5,10,0.9,20,1.4,30.1c0.2,14.7-0.5,29.4-0.4,44c-0.1,34-2.5,68-5.7,101.9c-2.8,31.3-6.6,62.5-11.4,93.5
	c-4.1,26.7-9.3,53.2-14.7,79.6c-3.6,17.6-7.3,35.1-11.7,52.5c8.1,4,15.9,8.5,23.2,13.8c9,6.5,17.8,14.1,22.7,24.3
	c3.5,7.1,3.7,16-0.5,22.9c-5.5,9.2-16.6,12.9-26.6,14.2c-0.1,0-4.9,0.8-4.9,0.8c-4,0.7-6.1,0.5-10.1,0.6
	c-21.2,0.8-42.3-3.2-62.1-10.4c-4.2-1.5-8.4-3.2-12.6-4.9c-12.9-5.6-25.3-12.8-35.8-22.2c-3.8-3.4-7.2-7.2-10-11.4
	c-3.8-5.7-6.8-12.3-6.9-19.3c0-6.3,3.7-12,8.9-15.4c8.4-5.6,18.6-7.3,28.5-8.3c10.1-1.1,20.3-1,30.5,0c5.9-27.1,12.8-54.1,17.9-81.4
	c6.2-32.5,10.5-65.3,15.8-98c5.2-32.8,8.7-65.8,10.5-98.9c1.5-27.6,3.4-55.3,3.1-83C832.7,375.6,831.5,349.3,828.9,323"/>
<path class="st5" d="M736.6,951c7.9,1.6,16.3,0.6,23.5-2.9c9.2,8.5,20.8,14.7,33.4,15.7c-1.6,6-3,12-5.1,17.8c-1.5,3.9-5.4,6.4-9.5,6.4
	c-13.9,0.5-28.3-2.4-40-10.2c-3.7-2.3-6.5-6.5-5.6-11C734.3,961.6,735.5,956.3,736.6,951z"/>
<path class="st0" d="M843.1,346.4c9.4,11.6,18.9,23.1,28.3,34.8c2.2,64.4-2,128.8-9.2,192.8c-9.1,78.7-22.8,156.9-42.9,233.5
	c-4.4-0.3-8.8-0.8-13.1-1.9c8.2-28.1,15.7-56.5,21.4-85.2c5.5-25.8,10.4-51.6,14.2-77.6c5.9-36.8,9.3-73.8,12.6-110.9
	c2.9-34.9,4.4-69.9,5.7-104.9c-0.1-10.8,0.7-21.8-0.6-32.6c-1.5-11.1-8.9-19.9-15.1-28.7C843.3,359.3,843.4,352.8,843.1,346.4z"/>
<path class="st1" d="M844.3,365.7c6.2,8.8,13.7,17.6,15.1,28.7c1.3,10.8,0.6,21.7,0.6,32.6c-1.2,35-2.8,70-5.7,104.9
	c-3.3,37.1-6.7,74.1-12.6,110.9c-3.9,26-8.8,51.9-14.2,77.6c-5.7,28.7-13.2,57.1-21.4,85.2c-4.8-1.3-9.5-3-14.1-5
	c0.5-5.4,2.5-10.5,3.6-15.7c22.3-89.9,36.9-181.7,44.7-273.9C844.3,462.7,845.9,414.1,844.3,365.7z"/>
<path class="st2" d="M743,783c13-5.5,27.7-4.9,41.5-3.3c-1.7,6.7-3.5,13.5-5.2,20.2c-1.1,3.4,0.2,7.6,3.5,9.3
	c12.4,7.1,26.9,10.7,41.2,10.1c3,0,5.5-2.5,6.1-5.4c1.7-6.4,3.4-12.9,5-19.4c10.2,5,20.2,11,28,19.4c3.3,3.9,6.9,8.6,6.4,14
	c-1,5.2-6.3,7.9-10.9,9.6c-11.4,3.8-23.6,3.5-35.5,2.4c-23.9-2.8-47.5-10.3-67.8-23.3c-7.8-5.4-16.2-11.6-19.6-20.8
	C733.5,790.2,737.9,784.9,743,783z"/>
<path class="st3" d="M858.7,854.5c0-0.2,0-0.3-0.1-0.5c-4.1,0.8-9.5,1.1-13.6,1.2c-21.2,0.8-42.3-3.2-62.1-10.4
	c-4.2-1.5-8.4-3.2-12.6-4.9c-12.9-5.6-25.3-12.8-35.8-22.2c-3.8-3.4-7.2-7.2-10-11.4c-9.8,5.7-16.2,15.9-19,26.8
	c-4.7,16.8-6.5,34.5-5.5,51.9c0.9,13.8,1.6,28,7.4,40.9c4.8,12.6,16.2,22.1,29.3,25.2c7.9,1.6,16.3,0.6,23.5-2.9
	c9.2,8.5,20.8,14.7,33.4,15.7c11.1,0.7,22.6-3.7,30.3-11.9c6.7-7.4,9.5-18,7.5-27.8c7.9-3.5,13.7-10.6,17.5-18.2
	c4.3-8.6,4.6-18.6,2.4-27.8c3.7-6,5.8-12.7,7.1-19.6C858.6,857.1,858.9,855.8,858.7,854.5z"/>
<path class="st4" d="M717.2,846.2c2.2-11,7-22.8,17.3-28.6c10.5,9.5,22.9,16.6,35.8,22.2c4.2,11.7,5.7,24.9,1.2,36.7
	c-1.5,4.2-4.8,8.2-9.5,8.6c-5.8,0.4-11-3.6-14.1-8.2c-2.9-3.8-3.6-8.5-5.1-12.9c-1.8-4.1-8.5-3.4-9.4,1c-0.7,5.6,1.8,11.1,4.5,15.9
	c4.4,7.8,12.2,13.8,21.2,14.9c-7.3,7.9-10.7,19.5-7.7,30c1.8,4.3-2.7,7.7-6.5,8.5c-8,1.4-16.4-2.9-20.7-9.7c-6-9-7.2-20.1-8.3-30.6
	C715,878.1,714.3,862,717.2,846.2z"/>
<path class="st4" d="M782.8,844.8c19.9,7.2,41,11.2,62.1,10.4c-1.5,8.2-6.3,15.8-13.4,20.3c-6.9,4.5-15.7,5.1-23.5,3
	c-8.5-2.2-16.5-6.1-23.6-11.2C785.2,859.8,784.5,852.2,782.8,844.8z"/>
<path class="st4" d="M772.6,892.2c4.6-3.4,7.5-8.3,9.4-13.6c10.1,5.8,21.1,10.9,32.9,11.6c8.6,0.5,17.2-2.1,24.3-7.1
	c1.3,7.3,1,15.5-3.2,21.9c-3.9,6.1-11.1,9.1-18,10.1C800.1,917.5,781.8,907.5,772.6,892.2z"/>
<path class="st4" d="M762.9,927c-3.4-7.9-2-17.8,4.2-24c12.2,15.3,32.1,25.4,51.9,22.7c0.1,8.4-5.6,16-13.3,19.1
	C789.8,951.3,769.5,942.9,762.9,927z"/>
</svg>
