<svg version="1.1" xmlns="http://www.w3.org/2000/svg" xmlns:xlink="http://www.w3.org/1999/xlink" x="0px" y="0px" viewBox="0 0 1000 1000" style="enable-background:new 0 0 1000 1000;" xml:space="preserve">
<style type="text/css">
	.st0{fill:#EDEDED;}
	.st1{fill:#FF5400;}
</style>
<path class="st0" d="M502.6,384.6c7.6-0.2,15.2-0.1,22.8,0c2.3,0.6,4.8,0.3,7.2,0.8c19,1.9,37.5,7.5,54.9,15.2
	c17.7,8,33.9,19.5,46.6,34.3c12.8,14.5,22.5,31.5,29.4,49.6c7,20.8,11.8,42.5,12.1,64.5c0.8,5.9,0.3,11.8,0.4,17.7l-0.5,0.8
	c0.4,6.4-0.7,12.7-1.1,19c-2.5,19.5-7.2,39-16,56.8c-6.1,14-14.5,27-24.9,38.3c-7.4,8.2-15.6,15.9-25,21.8c-3.7,2.2-8.1,0.2-9.5-3.6
	c0-1.1,0-2.2,0-3.2c1.9-3.6,5.7-5.2,8.8-7.6c6.2-4.7,12-9.9,16.8-16l0.4-1.6c-17.5,5-35.3,8.6-53.4,10.4c-11,1.5-22.2,2-33.2,2.8
	c-17.3,0.4-34.6-0.1-51.8-1c-19.3-1.9-38.5-5.1-57.5-9c-14.6-3.2-29.1-6.7-43.1-11.9c-2.2,0.2-0.5,2.3-0.1,3.4
	c8.4,14,21.3,24.3,34.5,33.5c2.1,1.2,2.7,3.9,2.7,6.2c-0.9,1.3-1.7,2.6-2.7,3.7c-1.9,0.9-4.2,1.9-6.2,0.5
	c-12.5-7-23.3-16.6-32.8-27.2c-24-26.3-37.7-60.8-41-96.1c-1.7-12.9-1.5-26-0.8-39c0.6-3.3,0.6-6.7,1.1-10
	c2.3-21.5,8.3-42.6,18.4-61.7c6.6-12.7,14.8-24.8,25.1-34.8c3.3-4.4,7.8-7.6,11.6-11.5c27.1-23.7,61.1-39.5,96.8-44
	c0.9-0.1,1.9-0.2,2.8-0.3C497.8,384.9,500.2,385.1,502.6,384.6 M407,437.1c-5.9,5.1-12.4,10.2-15.8,17.4c-1.1,2.9-2.5,6.2-1.2,9.2
	c1.3,4.5,5.5,7.7,10.1,8.7c22.7,4.5,45.3,9.6,68.3,12.1c2,0.3,4.1,0.4,6.2,0.7c3.7,0.3,7.4,0.5,11,1c9.3,0.9,18.7,1.4,28,2.1
	c3.8,0.2,7.7-0.2,11.5,0.4c6.2,0.5,12.5-0.3,18.7,0.6c17.9,0.3,35.9-0.5,53.8-1.9c4.7-0.1,9.4-0.4,14-1c6.8-0.3,13.6-1.1,20.3-2.1
	c4.1-0.8,9.1-2.4,10.5-6.9c1.7-4.7-1.8-9.1-3.8-13.1c-9.8-18.6-24.8-34.4-43-44.9c-19.6-11.3-41.5-18.4-63.9-21.2
	C487,393.2,441.2,408.4,407,437.1"/>
<path class="st1" d="M374.4,483.5c4.2-1.2,8.5-0.3,12.7,0.5c13.7,2.8,27.2,5.9,41,8.2c20.5,3.2,41.1,6.6,61.9,7.9
	c26.3,2.1,52.7,3.4,79.1,2.1c25.2,0,50.2-2.5,75.1-6.4c3.3-0.6,7.3-0.3,9.5,2.6c3.7,4.8,4.6,11,5.8,16.7c2,11.9,3.6,23.8,4.4,35.8
	c0.6,21-0.3,42.4-6.4,62.7c-2.3,7.6-4.9,15.2-8.5,22.3c-2.7,5-5.6,10.2-10.5,13.3c-7.6,5-16.6,7.5-25.3,9.8
	c-15.2,3.8-30.6,6.8-46.1,8.7c-19.2,2.4-38.6,2.3-57.9,2.1c-25.9-0.4-51.8-3.9-77.1-9.5c-15.3-3.3-30.3-8.2-44.6-14.7
	c-6.8-3.1-13.5-6.9-18.9-12.1c-6.1-5.9-9.5-13.9-11.8-22c-4.7-17.1-5.9-35-5.5-52.7c0.6-21.5,4.3-43.1,12.6-63
	C366,491,368.9,485.4,374.4,483.5"/>
<path class="st0" d="M424.2,560.3c29.5-4.2,60.2,12.3,73.8,38.7c2.5,4.9-1.5,11.3-7,11.3c-3.5,0.1-6.4-2.3-8-5.2
	c-7.6-13.1-20.3-23.3-35-27.2c-16.1-4.5-34.1-1.2-47.5,8.7c-2.6,1.8-5.1,4.2-8.5,4.2c-4.5,0.1-8.5-4.3-7.8-8.7c0.3-4,4-6.5,7-8.7
	C400.9,566.3,412.4,561.8,424.2,560.3z"/>
<path class="st0" d="M590.5,574.7c16.9-2.7,34.7,2.1,48,12.8c3.3,2.7,7.6,5.7,7.4,10.5c0.2,4.2-3.7,7.9-7.9,7.8
	c-3.4,0.1-5.9-2.4-8.3-4.5c-9.9-8.6-23.6-12.8-36.6-10.7c-13.3,1.9-25.3,9.5-34.2,19.4c-2.4,3-6.6,4.9-10.3,3.1
	c-4.8-1.9-6.2-8.5-3-12.3C557,587.2,573,577.4,590.5,574.7z"/>
</svg>
