<svg version="1.1" xmlns="http://www.w3.org/2000/svg" xmlns:xlink="http://www.w3.org/1999/xlink" x="0px" y="0px" viewBox="0 0 1000 1000" style="enable-background:new 0 0 1000 1000;" xml:space="preserve">
<style type="text/css">
	.st0{fill:#EDEDED;}
	.st1{fill:#FF002C;}
	.st2{fill:#000000;}
</style>
<path class="st2" d="M931.6,561.3c-5.5-15.6-17.3-28.3-31.5-36.5c-30.7-17.7-71.2-16.2-100.6,3.5c-13,8.7-23.7,21.3-28.6,36.3
	c-4.6,14-3.8,29.7,2.5,43c6.4,14,18.1,25.2,31.6,32.5c17.1,9.2,37.2,12.5,56.4,10.3c-1.3,8.9-4.6,17.7-10.4,24.6
	c-2,2.5-5,4.5-5.4,7.9c-0.7,4.6,3.9,8.6,8.3,7.9c17.5-1.7,34.6-9.3,46.8-22.1c11.8-12.1,18.7-28.8,18.9-45.7c-0.3-2.6,1.7-4.3,3-6.2
	C934.4,601.2,938.3,579.8,931.6,561.3z"/>
<path class="st0" d="M915.9,560.3c-8.7-16.9-26.2-27.5-44.3-31.6c-8.7-1.7-17.8-2.8-26.6-1.6c-18,1.7-36.2,8.7-48.5,22.3
	c-2.9,3.3-5.5,6.7-7.8,10.4c-3.9,6.8-6.7,14.4-6.6,22.4c-0.4,10.8,3.6,21.4,10.3,29.7c8.1,10.2,19.6,17.4,31.9,21.3
	c15.5,5,32.4,5.2,48.1,1.1c1.4-0.7,3.4,0.1,3.5,1.8c1.1,4.9,0.5,9.9-0.2,14.8c-0.8,7.8-3.1,15.3-6.5,22.4
	c16.8-6.2,30.7-20.5,35-38.1c1.9-6.2,1.5-12.8,1.5-19.2c1.9-3.9,5-6.9,7.5-10.4C922.5,592.5,923.3,574.3,915.9,560.3z"/>
<path class="st1" d="M788.6,559.7c2.3-3.7,5-7.1,7.8-10.4c4.3,5,8.7,9.9,13,14.9c3.2-3.1,6.1-6.5,9.3-9.6c1.8-1.9,4.5-3.1,7.2-2.4
		c2.5,0.5,4.1,2.5,5.6,4.3c9.5,12,19.2,23.9,28.7,35.9c5.2-5,10.4-9.8,15.4-15c2.5-2.7,6.9-1.9,9.2,0.6c9.4,9.1,18.8,18.2,28.3,27.3
		c-2.5,3.5-5.6,6.5-7.5,10.4c-8.5-8.2-17-16.5-25.5-24.6c-5.5,5.1-10.7,10.5-16.3,15.6c-2.7,2.5-7.2,1.7-9.3-1.2
		c-10.2-12.6-20.3-25.4-30.5-38c-3.3,3.2-6.2,6.7-9.6,9.8c-2.9,2.7-7.8,2.8-10.4-0.3C798.7,571.4,793.7,565.4,788.6,559.7z"/>
</svg>
