<svg version="1.1" xmlns="http://www.w3.org/2000/svg" xmlns:xlink="http://www.w3.org/1999/xlink" x="0px" y="0px" viewBox="0 0 1000 1000" style="enable-background:new 0 0 1000 1000;" xml:space="preserve">
<style type="text/css">
	.st0{fill:#00A900;}
	.st1{fill:#18E718;}
	.st2{fill:#000000;}
</style>
<path class="st2" d="M507.3,35.4c3.3-1.6,7.6-0.4,9.7,2.6c2,2.9,3.3,6.2,4.9,9.3c20.3,40.3,40.6,80.7,60.9,121c2.1,3.7,4.1,8.2,1.8,12.3
	c-21.9,43.8-44,87.4-66,131.2c-1.4,3.1-4,6-7.6,6.1c-3.7,0.3-6.8-2.3-8.2-5.5c-22-43.7-44-87.4-66-131.1c-1.6-3-1.8-6.6-0.2-9.6
	c21.8-43.5,43.8-86.9,65.6-130.4C503.3,39,504.7,36.4,507.3,35.4"/>
<path class="st0" d="M507.4,65c2.3,0,2.2,2.9,2.9,4.6c7.1,30.2,14.5,60.3,21.5,90.4c1.2,2.7-1.3,4.5-3.8,4.6
	c-21.4,2.7-42.8,5.2-64.1,7.6c-2.7,0.3-7.6,0.7-7.6-3.2c0.1-4.8,2.7-8.9,4.7-13.1c14.6-29.1,29.3-58.1,43.9-87.2
	C505.6,67.4,506.4,66.2,507.4,65z"/>
<path class="st1" d="M514.9,67.3c2.6,3.2,4.1,7.1,6,10.8c14.9,29.5,29.7,59,44.6,88.5c0.6,1.4,1.4,2.9,1,4.4c-1.5,1.3-3.4,0-5-0.2
	c-6.5-2-13.2-3.4-19.7-5.6c-2.9-0.9-4.8-3.5-5.4-6.4c-5.5-22.9-10.9-45.8-16.4-68.7C518.3,82.5,515.8,75.1,514.9,67.3z"/>
<path class="st1" d="M462.8,177.1c21.4-2.5,42.9-5.3,64.3-7.6c5.1-0.9,4.5,5.3,3.9,8.5c-5.4,31.4-11.3,62.7-16.9,94
	c-1.4,6.7-2.1,13.5-4,20.1c-3-2.7-4.3-6.6-6.1-10.1c-15.3-30.3-30.5-60.7-45.9-91c-1.4-3.1-3.5-6.3-3-9.8
	C456.1,178,460,177.6,462.8,177.1z"/>
<path class="st0" d="M538.5,170.4c3.7-0.6,7.3,1.2,10.9,1.9c5.4,1.7,11.2,2.5,16.4,4.8c1.9,0.6,1,2.8,0.8,4.2
	c-2.2,6.6-5.3,12.8-8.5,18.9c-11.2,22.1-22.3,44.3-33.5,66.4c-2.4,4.6-4.5,9.4-7.2,13.8c0.6-7.3,2.3-14.4,3.5-21.6
	c4.9-27.4,9.9-54.7,14.8-82.1C536.4,174.6,536.8,172.1,538.5,170.4z"/>
</svg>
