<svg version="1.1" xmlns="http://www.w3.org/2000/svg" xmlns:xlink="http://www.w3.org/1999/xlink" x="0px" y="0px" viewBox="0 0 1000 1000" style="enable-background:new 0 0 1000 1000;" xml:space="preserve">
<style type="text/css">
	.st0{fill:#FFD400;}
	.st1{fill:#000000;}
</style>
<path class="st1" d="M616.7,238.2c-2.9-3-8.2-2.5-10.7,0.7c-5.4,6.6-10.5,13.4-15.8,20c-3.4-6.7-6.7-13.4-10.1-20.1c-1-2.1-2.7-4.1-5-4.8
	c-3.5-1.2-7.3,0.8-9.3,3.7c-6.1,8.1-12.2,16.1-18.3,24.2c-3.6-6.2-6.9-12.7-10.7-18.8c-2.4-4.3-9.2-4.6-12-0.5
	c-4.3,6.2-8.2,12.8-12.3,19.1c-5.1-7.7-10.1-15.4-15.2-23c-2.8-4.1-9.4-3.5-11.8,0.7c-4.5,7.5-8.6,15.2-12.9,22.8
	c-5.1-8.2-10-16.4-15.2-24.5c-2.2-3.4-7.3-4.5-10.5-1.9c-3.2,2.4-3.1,6.7-3.1,10.2c0,44.3-0.7,88.6,0.3,132.9
	c0.1,6.4-0.3,12.9,1,19.2c1.3,6,7.3,9,12.3,11.7c18.4,9.6,39.1,13.9,59.7,14.7c21.1,0.4,42.8-2.3,62.1-11.3
	c6.2-2.5,8.1-9.3,9.2-15.2c10.2-50.2,20.1-100.5,30.3-150.8C619.3,244.1,619.2,240.5,616.7,238.2z"/>
<path class="st0" d="M557.3,324.8c-0.7-10.2-5.4-19.4-9.8-28.5c-4.7-9-8.9-18.3-13.7-27.3c-0.8-1.7-2.4-3.4-4.4-2.7
	c-2.2,1.6-3.2,4.2-4.6,6.4c-7.3,12.9-15.1,25.6-20.6,39.5c-3.9,9.8-4.3,20.4-4.7,30.8c-0.4,18.7,0,37.3-0.1,56
	c0.1,2-0.3,4.6,1.7,5.8c2.4,1.2,5.1,1.2,7.7,1.7c11.9,1.1,24,0.9,35.7-1.2c2.2-0.2,3.1-2.4,3.3-4.2c2.4-14.3,4.4-28.8,6.5-43.1
	C555.9,347,558.3,336,557.3,324.8z"/>
<path class="st0" d="M486.7,315.3c-3.8-7.7-8.7-14.6-13.2-21.9c-3.4-5.4-6.6-10.9-10.2-16c-0.6-1-1.8-1.4-2.9-1
	c-1.4,0.3-1.6,2.1-1.6,3.3c1,35.1,1.2,70.2,2.3,105.3c-0.1,3.3,1.5,6.7,4.5,8.3c6.4,3.8,13.2,6.7,20.4,8.6c1.8,0.4,3.8,1.1,5.7,0.6
	c1.2-1.2,0.8-3,1-4.5c0-18,0-36.1-0.1-54.1C492.6,334.2,491,324.2,486.7,315.3z"/>
<path class="st0" d="M593.6,279.5c-8.7,13.1-16.6,26.9-22.5,41.5c-4.3,10.5-5.9,21.8-7.8,33c-2.1,14.1-4.2,28.2-6.3,42.3
	c-0.2,2-0.8,5.6,2.1,5.9c6.6-0.8,14.5-3.9,15.7-11.4c7.2-32.8,13-65.9,20.2-98.7c0.7-4,2.1-8,2.1-12.1
	C597,278,594.4,278.2,593.6,279.5z"/>
</svg>
