<svg version="1.1" xmlns="http://www.w3.org/2000/svg" xmlns:xlink="http://www.w3.org/1999/xlink" x="0px" y="0px" viewBox="0 0 1000 1000" style="enable-background:new 0 0 1000 1000;" xml:space="preserve">
<style type="text/css">
	.st0{fill:#000000;}
	.st1{fill:%%ST1%%;}
	.st2{fill:#464B4B;}
	.st3{fill:#959898;}
</style>
<path class="st0" d="M949.1,668.9c-12.4-33.3-24.8-66.5-37.2-99.9c-1-2.9-2.6-6.1-5.8-6.9c-14.2-4.6-28.6-8.9-42.8-13.4
	c-3.2-1-6.8-2.2-10-0.4c-29.5,16.8-58.8,34-88.2,50.8c-2.2,1.3-4.7,2.6-5.9,5.1c-1,1.9,0,4.1,0.6,5.9c14.5,34.2,29,68.4,43.5,102.6
	c1.1,2.6,2.8,5.3,5.8,5.9c16.8,4.1,33.7,7.7,50.6,11.7c2.6,0.5,5.5,1.4,8.1,0.3c2.9-1.2,5.4-3.2,8-5c23.5-15.9,47-31.7,70.5-47.5
	C949.4,676.3,950.7,672.3,949.1,668.9z"/>
<path class="st0" d="M787.2,761.4c9-2.6,19.3-2,27.4,3.1c7.1,4.5,10.9,13.5,9.2,21.7c-1.4,8.3-6.6,15.1-10.2,22.5
	c-1.5,3.1-2.4,7.7,0.9,10c2.5,2.1,5.9,1,8.8,0.6c17.7-3.8,36.3-5.5,54.2-1.5c12,2.5,23.7,9.2,29.9,20c4.6,7.5,5.6,16.6,4.3,25.2
	c3.8,5.4,7.2,11.3,8.4,18c2.6,11.7-1.6,25.4-12,32c-4.9,3.2-10.9,3-16.5,3c-0.2,7-1.7,14.6-7,19.7c-6.8,6.9-17.8,7.7-26.5,4.4
	c-8.4-3.2-15.4-9.3-24.1-11.9c-10.4-3.5-21.5-1.7-31.9,0.9c-12.7,3.3-25.9,5.7-39,4.3c-11.4-0.9-22.9-4.8-31.4-12.7
	c-5.9,3.9-13.4,6-20.3,3.9c-6.4-2.1-10.4-8.2-12.8-14.1c-4.8-13.2-7.3-27.3-6.9-41.4c0.5-14.6,1.5-29.6,6.9-43.4
	c3.6-7.9,8.8-16.4,17.5-19.4c9.8-2.7,19.4,2.9,26.9,8.8c2.4-1.2,4.9-2.3,7.4-3.4c1.1-9.2,3-18.5,7.8-26.5
	C764.4,774,774.8,765,787.2,761.4"/>
<path class="st1" d="M773,784c6-7.9,16-12.8,25.9-12.3c4.8,0.3,10.2,2.3,12.2,7c2,5.7-2,11-4.7,15.7c-6.5,10.3-11,22.6-8.9,34.9
	c-1.7,0.9-3.7,1.5-5,3c-1.7,2-0.7,5.5,1.8,6.2c1.5,0.6,3.1-0.1,4.6-0.6c12.6-4.5,25.7-7.5,39-8.7c12.4-1.1,25.1-0.7,37,2.8
	c8.1,2.5,16.1,6.9,20.6,14.3c2.1,3.3,2.5,7.3,2.8,11.2c-7.3-5.1-15.6-8.7-24.4-10.4c-22.2-4.5-45.1-2.3-67,2.5
	c-1.7,0.4-3.8,0.9-4.6,2.6c-1.7,2.5,0.7,6.1,3.6,6c2.4-0.1,4.8-0.7,7.2-1.2c14-2.9,28.4-4.4,42.7-3.6c9.5,0.6,19.2,1.8,28.1,5.6
	c6.8,2.9,13.1,7.6,17,14c3.8,6.2,5.4,13.8,3.7,20.9c-0.8,3-2.6,6.2-5.8,6.9c-4.9,1.1-9.9-0.4-14.6-1.5
	c-4.7-12.8-15.3-22.9-27.9-27.6c-14.9-5.5-31.5-5.7-47-2.2c-2.2,0.4-4.4,2-4.2,4.5c-0.1,3,3.3,4.5,5.9,3.7c13-2.6,26.8-3,39.6,0.9
	c10.6,3.2,20.2,10.7,24.7,21.1c3,7,4.2,15.4,0.9,22.5c-1.4,3.2-4.8,5.3-8.3,5c-6.3-0.5-11.5-4.4-16.8-7.4
	c-13.9-8.4-29.9-14.3-46.3-13.7c-2.9-0.2-6.2,1.5-6.1,4.8c0.6,1.3,1.4,2.4,2.2,3.6c-11,3-22.6,5.4-34,3.6
	c-12.8-1.8-26.5-6.9-33.8-18.3c-1.7-2.2-2.9-5.9-6.2-5.7c-2.7-0.1-4.6,3.1-3.5,5.5c1.2,2.9,3.1,5.3,4.8,7.9c-3.9,1.8-8,3.9-12.4,3.9
	c-3,0-4.7-3-5.9-5.4c-4.1-9.4-6-19.7-5.9-30c-0.4-13.8,0.8-27.7,5.1-40.9c1.8-4.9,3.9-10.7,8.9-13.2c5.5-1.7,10.1,2.9,14.4,5.6
	c-7.3,7.1-12.8,16.3-14.4,26.5c-1.6,9.8,0.3,20.5,6.4,28.5c2.4,3.1,8.1,0.5,7-3.4c-1.4-3.4-3.5-6.5-4.4-10.1
	c-2.4-9.2-0.6-19.4,4.6-27.3c8.8-14.1,27.1-22,43.3-17.4c2.4,0.5,5.3,2.1,7.5,0.2c2.2-1.8,1.6-5.8-1-6.8c-5.3-2.5-11.3-2.9-17-3.3
	C763.8,803.7,766.4,792.5,773,784 M781.4,838.6c-2.2,1.2-2.6,4.1-1.4,6.2c5.2,11.9,7.6,25.7,3.7,38.4c-1.3,2.7,1.2,6,4.2,5.6
	c3.2-0.4,4.2-4.1,4.9-6.7c3.1-13.4,0.6-27.6-4.8-40C787.1,839.3,784.2,837,781.4,838.6z"/>
<path class="st2" d="M855.9,561.9c1.8-1.2,3.8-1.4,5.8-0.5c10.2,3.3,20.3,6.6,30.5,9.8c-24,15.1-48.1,30.2-72.2,45.2
	c-13.5-3.6-27-7.1-40.4-10.7C805.1,591,830.5,576.5,855.9,561.9z"/>
<path class="st3" d="M826.8,624.1c24.9-15.6,49.7-31.1,74.6-46.7c11.4,30.8,22.8,61.7,34.1,92.5c-23.6,15.5-47.1,30.9-70.7,46.4
	C852.2,685.6,839.5,654.9,826.8,624.1 M868.4,608.9c-0.2,3.2,1.8,6.1,2.9,9c-1.3,0.7-2.6,1.5-3.9,2.2c-1.9-2.5-3.2-6.1-6.5-7.1
	c-3.3-1-6.9,2.6-5.9,5.9c0.9,2.9,2.8,5.3,4.4,7.9c-3.1,3.5-6.6,6.9-8.2,11.4c-1,3,1.4,6.5,4.7,6.5c3.6-0.1,5.1-3.9,7.1-6.4
	c4.7,11.3,9.5,22.6,14.2,33.9c-2.1,0.5-4.3,0.8-6.3,1.8c-2.8,2-2.3,6.8,0.8,8.3c3.9,1.8,8.1-0.3,11.8-1.4c1.1,2.4,1.7,5.1,3.6,7
	c2.7,2.3,7.5,0.7,8-2.9c0.2-2.9-1.2-5.7-2-8.4c1.4-0.8,2.9-1.7,4.3-2.5c1.6,1.9,2.9,4.4,5.5,5.1c3,0.7,6.1-2,5.9-5.1
	c-0.3-2.5-2-4.5-3.1-6.7c4.4-5.3,7.6-12.5,4.9-19.4c-1.8-5.9-7.3-9.5-13-11c1.8-4.5,2.9-9.7,0.3-14.1c-3-6.3-10.3-8.7-16.9-8.4
	c-1.5-3-2.4-6.6-4.9-8.9C873.4,603.4,868.8,605.4,868.4,608.9z"/>
<path class="st2" d="M775.5,615c11.5,3,22.9,6.1,34.4,9c2.8,0.9,6.8,0.9,7.7,4.3c12.1,29.4,24.3,58.8,36.3,88.2
	c-12.4-3.1-24.9-6.2-37.3-9.2c-1.8-0.3-3.2-1.4-3.8-3.2C800.4,674.5,788,644.8,775.5,615z"/>
<path class="st3" d="M870.7,630.2c4.2-2.8,9-5.8,14.3-5c2.7,0.1,5.2,3,3.9,5.7c-2.1,5.8-7.6,9.5-12.6,12.7
	C874.5,639.2,872.6,634.7,870.7,630.2z"/>
<path class="st3" d="M880.4,653.3c4.7-2.7,9.7-6.3,15.4-5.8c4,0.3,6.7,4.8,5.1,8.5c-2.4,6.1-8.6,9.5-14.1,12.5
	C884.7,663.4,882.5,658.3,880.4,653.3z"/>
</svg>
