<svg version="1.1" xmlns="http://www.w3.org/2000/svg" xmlns:xlink="http://www.w3.org/1999/xlink" x="0px" y="0px" viewBox="0 0 1000 1000" style="enable-background:new 0 0 1000 1000;" xml:space="preserve">
<style type="text/css">
	.st0{fill:#EDEDED;}
	.st1{fill:#FFD400;}
	.st2{fill:#FFFFFF;}
	.st3{fill:#000000;}
</style>
<path class="st0" d="M394.5,464.8c3.7-1.1,7.7-0.8,11.5-0.9c23.8,1,47.7,1,71.5,3.9c25,2.9,49.9,7.2,74.6,11.7
	c25.5,4.5,51,10.1,75.7,17.8c10.9,3.4,21.7,6.8,32.7,10c4,1.4,9.2,3,10.2,7.7c2.3,20.2,2.8,42-7,60.5c-7,13.2-18.7,24.8-33.5,28.6
	c-12.3,3.2-25.5,0.3-36.4-6c-9.7-5.3-18.1-13.1-28.7-16.6c-7.3-2.4-15.2-1.5-22.6,0.2c-13,3.1-25.5,8.1-38.4,11.2
	c-21.4,5.2-44.1,5-65.2-1.4c-14.2-4.3-27.8-11.6-38.3-22.2c-13.7-13.8-22-32.9-22.1-52.4c0-16.8,4.6-33.4,11.9-48.4
	C391.2,466.8,392.6,465.3,394.5,464.8"/>
<path class="st3" d="M389.9,629.9c4.3-16.7,18.9-29.3,35.2-33.5c2.9-0.8,6.3,0.7,7.1,3.7c1.1,3-1.4,6.2-4.3,6.9c-4.8,1.6-9.6,3.5-13.7,6.5
	c0,0.2-0.1,0.7-0.1,0.9c17,9.6,35.9,15.7,54.9,19.6c44.1,8.9,89.7,7.1,133.9,0.1c3.3-0.3,7-1.9,10.2-0.3c3.9,1.8,3.6,8.3-0.5,9.7
	c-4.5,1.5-9.4,1.7-14.1,2.6c0,11-0.4,22-0.6,32.9c0,3-2.2,5.8-5.2,6.2c-16.4,2.6-33,3.2-49.6,3.8c-1.8,6.2-3.2,13.3-0.4,19.4
	c4.1,0.1,8.1-1.1,12.2-0.5c4.9,1,5.3,8.7,0.6,10.3c-5.7,1.6-11.8,1.1-17.6,1.7c-18.3,0.7-36.6,1.8-54.9,0.6
	c-18.6-1-37.8-5.2-53.1-16.5c-10.3-7.5-18.1-19.1-18.8-32c-1-15,2.1-29.8,3.7-44.6c-3.1-1.6-6.3-3.2-9.2-5.2
	c-3.5,4.5-5.1,10.1-6.1,15.6c-0.5,3.9-5.8,6.2-8.8,3.4C387.3,638.4,389,633.6,389.9,629.9"/>
<path class="st3" d="M570.2,707.3c4.1-2.5,9.8,2.2,7.9,6.7c-1.2,4.1-7.3,5-9.8,1.7C566.1,713.1,567.1,708.7,570.2,707.3z"/>
<path class="st1" d="M389.1,518c-0.3-15.5,3.9-30.8,10.6-44.6c47.4,0.2,94.7,6,141.3,14.6c40,7.1,79.4,17,118.1,29.3
	c3.3,15.9,3.6,32.9-2.4,48.2c-4.6,11.5-13.1,21.9-24.6,26.9c-11,4.6-23.8,2.2-33.8-3.8c-12.3-7.2-23.6-17.6-38.4-18.9
	c-16.5-1.4-32,5.5-47.5,10c-18.4,6-38.3,8.1-57.5,4.8c-16.4-2.7-32.5-9.2-44.8-20.6C397.4,552.2,389.5,535.3,389.1,518"/>
<path class="st3" d="M470,494.9c7.4-5,17.1-7.4,25.6-4.3c9.6,3.4,16.1,12.5,18.1,22.3c-10.1,3.8-20.2,7.5-30.3,11.4c-2.9,0.8-3.8,4.9-1.4,6.7
	c7,6.6,14.2,13,21.3,19.6c-5.5,6.2-12.9,11-21.2,12.2c-7.6,1.2-15.7-1.4-21.3-6.7c-5.1-4.8-8.2-11.4-9.3-18.3
	C449,521.7,456.4,504.2,470,494.9z"/>
<path class="st3" d="M597.7,564.6c-8.3-19.6,6.9-44.8,28.2-46.3c10.8-1,20.7,7.1,23.7,17.2c-8.5,3.9-17.1,7.7-25.7,11.5
	c-1.4,0.7-3.3,1.4-3.6,3.2c-0.6,2.1,1.2,3.7,2.7,4.8c6,4.4,12.1,8.8,18.1,13.2c-6.1,6.6-15,11.3-24.1,10.5
	C608.5,578.1,600.9,572.4,597.7,564.6z"/>
<path class="st2" d="M425.6,632.4c41.6,17.3,87.7,20.6,132.3,18.1c9.9-0.7,19.7-1.5,29.5-2.8c0,9.1-0.3,18.2-0.6,27.3
	c-23.2,2.9-46.7,3.3-70,2.2c-32-2-64.4-6.1-94.4-17.8C423,650.3,424.3,641.4,425.6,632.4z"/>
</svg>
