<svg version="1.1" xmlns="http://www.w3.org/2000/svg" xmlns:xlink="http://www.w3.org/1999/xlink" x="0px" y="0px" viewBox="0 0 1000 1000" style="enable-background:new 0 0 1000 1000;" xml:space="preserve">
	<style type="text/css">
	.st0{fill:#000000;}
</style>
<path class="st0" d="M516.5,84.8c23.1-1.9,46.6-1.2,69.1,4.4c16,4,31.9,10.8,43.9,22.4c9.8,9.4,16.1,22.7,16.1,36.4c0.1,13.5-5.4,26.5-13.5,37.2
	C621,199.8,605.9,211,589.9,220c-32.9,18.1-69.9,28.1-107.2,31.4c-28.9,2.2-59,0.8-86.2-10.1c-17.1-6.9-33.4-19.2-39.7-37.1
	c-5-12.9-3.2-27.5,2.5-39.8c9.6-20.3,27.8-35,46.8-46.2C439.8,98.8,478,88.3,516.5,84.8 M531.2,125.2c-30.2,1.2-60.2,7.9-87.8,20.2
	c-13,5.9-25.6,13.1-36.1,22.9c-4.7,4.5-9.2,9.6-11.3,15.9c-1.2,3.6-0.2,7.7,2.5,10.3c6.9,6.9,16.5,10.1,25.7,12.5
	c21.5,5.1,44,4.8,65.8,2.1c23.4-3.1,46.5-9.3,68-19.2c14.1-6.6,27.9-14.8,38.5-26.4c3.8-4.4,7.6-9.5,7.8-15.6
	c-1.1-6.8-8-10.6-13.6-13.5C572.1,126.1,551.3,124.8,531.2,125.2z"/>
</svg>
