<svg version="1.1" xmlns="http://www.w3.org/2000/svg" xmlns:xlink="http://www.w3.org/1999/xlink" x="0px" y="0px" viewBox="0 0 1000 1000" style="enable-background:new 0 0 1000 1000;" xml:space="preserve">
<style type="text/css">
	.st0{fill:#EDEDED;}
	.st1{fill:#FF5400;}
	.st2{fill:#000000;}
</style>
<path class="st2" d="M456.8,517.3c-7.4-5.7-17.2-8.2-26.4-6.6c-8.7,1.8-16.5,6.8-22.1,13.7c-16.7,20.5-16.8,52.9,0,73.3
	c6.8,8.1,17,13.8,27.7,13.6c11.2,0.1,21.6-6.2,28.3-14.7c10.4-13.1,13.8-30.7,11-47C473.2,537.1,467,524.9,456.8,517.3z"/>
<path class="st2" d="M642.3,539.6c-5.6-11.5-19-19.8-31.9-16.2c-10.2,2.4-17.9,11-21.5,20.5c-4.7,12-4.5,26.1,1.4,37.7
	c3.5,6.9,9.1,12.8,16.4,15.7c6,2.5,12.9,2.5,18.9,0c6.7-2.6,12.1-7.9,15.7-14.1C649,570.2,649.4,553.1,642.3,539.6z"/>
<path class="st2" d="M552.4,586.6c-8.6-4.3-18.7-5.7-28-3.1c-18.5,4.9-31.2,24.8-29.3,43.6c1.3,12.2,9.6,23.4,21.2,27.7
	c12.9,5.2,29.6,0.6,36.8-11.7c5-7.9,4.6-18.3-0.6-26c3.2-3.6,6.1-7.3,9.5-10.7c2.1,2.8,3.2,6.9,7,7.9c3.8,0.8,7-3.8,5.1-7.2
	C569.7,597.9,561.4,591.1,552.4,586.6z"/>
<path class="st0" d="M435.7,521.8c6.9-0.4,13.6,3.2,18.2,8.3c7.2,7.8,10.5,18.5,10.8,28.9c0.2,11.5-3,23.4-10.8,32
	c-4.9,5.5-12.2,9.3-19.7,8.7c-7.8-0.6-14.6-5.6-18.9-11.9c-7.2-10.3-9.2-23.6-7.1-35.9c1.8-10.2,6.8-20.3,15.6-26.2
	C427.2,523.3,431.4,522.1,435.7,521.8z"/>
<path class="st0" d="M612.4,532.6c5.1-1.3,10.8-0.2,14.9,3.2c7.2,5.7,10.6,15.2,10.6,24.2c0.2,9.4-3,19.3-10.3,25.5
	c-4.5,3.9-10.9,5.5-16.6,3.5c-6.1-2.1-10.5-7.4-13-13.2c-3.5-8.1-3.8-17.5-1.2-25.9C599.2,542.4,604.5,535.2,612.4,532.6z"/>
<path class="st1" d="M517.4,614.6c9.5-2.9,21.6,0,27.1,8.8c3.8,6,1.8,14.3-3.5,18.6c-10.1,8.8-28.3,4.7-32.9-8.1
	C504.8,626.4,509.2,616.5,517.4,614.6z"/>
</svg>
