<svg version="1.1" xmlns="http://www.w3.org/2000/svg" xmlns:xlink="http://www.w3.org/1999/xlink" x="0px" y="0px" viewBox="0 0 1000 1000" style="enable-background:new 0 0 1000 1000;" xml:space="preserve">
<style type="text/css">
	.st0{fill:#FFD400;}
	.st1{fill:#2C2F2F;}
	.st2{fill:#FF002C;}
	.st3{fill:#000000;}
</style>
<path class="st3" d="M395.4,463.7c4.8-1,9.8-0.6,14.7-0.6c26.8,0.9,53.6,2.7,80.2,6.3c20.6,2.9,41.2,6.3,61.6,10.1c20.5,3.6,41,7.8,61,13.5
	c16.3,3.8,32.3,8.7,48.3,13.8c3.4,1.1,7.7,2.4,8.6,6.4c2.7,10.7,2.1,21.9,1.9,32.9c-1,15.5-6.5,31-17.1,42.6
	c-7.8,8.9-18.7,15.5-30.6,16.6c-12.3,1.4-24.4-3-34.6-9.7c-9.9-6.1-19.2-14.5-31.3-15.4c-13.7-0.7-26.6,4.9-39.4,8.6
	c-18.5,6.2-38.2,9.3-57.7,7.1c-18.3-1.8-36.4-7.8-51.3-18.7c-14.3-10.4-24.8-26-29-43.2c-3.2-12.8-2.6-26.2,0.3-39
	c1.8-8.4,4.3-16.6,7.9-24.4C390.3,467.9,392,464.4,395.4,463.7"/>
<path class="st3" d="M536.5,606.7c9.8-3.9,21-3,30.4,1.5c9.5,4.5,18.2,11.5,22.8,21.1c1.8,3.4-1.7,8-5.5,6.9c-3.6-1.1-4.7-5.2-6.8-7.9
	c-3.2,3.5-6.3,7.2-9.4,10.8c2.9,4.8,4.8,10.4,4,16.1c-0.9,7.9-5.8,15.2-12.6,19.2c-9.6,5.9-22.3,6-32,0.3
	c-12.1-6.7-18.9-21.5-16.5-35C513.2,625.4,522.7,611.8,536.5,606.7"/>
<path class="st0" d="M400.2,474c1.2-0.4,2.4-0.6,3.7-0.5c50.3,0.3,100.2,7.3,149.5,16.8c32,6.1,63.5,14.1,94.7,23.5
	c3.3,1.1,6.7,1.8,9.8,3.3c1.8,0.9,1.8,3.2,2.2,4.9c2.7,17.1,1.9,35.7-7.1,51c-6.4,10.8-17,20.5-30,21.6
	c-11.5,1.3-22.3-3.9-31.5-10.3c-10.4-7.1-21.5-14.7-34.6-14.9c-16.2-0.2-31.4,6.5-46.8,10.9c-21.3,6.6-44.5,7.7-66,1.8
	c-14-3.9-27.5-10.9-37.6-21.7c-10.4-11.2-16.9-26.1-17.5-41.4c-0.5-13.4,2.6-26.8,7.7-39.2C397.8,477.8,398.3,475.4,400.2,474"/>
<path class="st3" d="M459.4,488.6c7.6-1.9,15.7,0.6,21.9,5.1c8.8,6.5,14.1,16.9,16.1,27.5c2.5,13.9,0.1,29.1-8.3,40.7
	c-5.1,7.2-13,12.6-21.9,13.6c-9,1-17.9-3.2-24-9.6c-14.9-16.5-16.2-42.9-4.8-61.6C443,496.7,450.5,490.5,459.4,488.6z"/>
<path class="st3" d="M614.4,517.5c4.3-1.3,9-1.6,13.2,0.1c7.9,2.6,13.8,9.4,16.7,17.1c4.7,12.1,3,26.6-4.5,37.2c-4.3,6.1-11.1,10.8-18.7,11.4
	c-5.8,0.5-11.7-1.5-16.2-5.2c-6.4-5.2-10.1-13.1-11.3-21.2C591.2,541.4,598.6,522.7,614.4,517.5z"/>
<path class="st1" d="M543.1,615.2c8.7-2.4,17.9,0.4,25.2,5.2c-2.9,3.5-5.9,7-9,10.4c-9.9-6-22.4-7-33.3-3.2
	C530.1,621.6,536,616.8,543.1,615.2z"/>
<path class="st2" d="M533.4,636.5c8.1-2.2,17.6-0.5,23.8,5.3c3,2.8,5.1,6.9,4.8,11.2c0,7.5-6.6,13.6-13.6,15.1
	c-10.6,2.9-23.6-3.8-25.5-15.1C521.2,645.8,526.1,638,533.4,636.5z"/>
</svg>
