<svg version="1.1" xmlns="http://www.w3.org/2000/svg" xmlns:xlink="http://www.w3.org/1999/xlink" x="0px" y="0px" viewBox="0 0 1000 1000" style="enable-background:new 0 0 1000 1000;" xml:space="preserve">
<style type="text/css">
	.st0{fill:#EDEDED;}
	.st1{fill:#000000;}
</style>
<path class="st1" d="M442,495c-7.2-5.6-16.6-8.6-25.7-6.8c-12.9,2.8-22.4,13.4-28.6,24.5c-10.2,18.7-13.9,40.2-14.2,61.3
	c0.1,21.6,3.8,43.6,13.3,63.1c5.4,10.9,13,21.3,23.8,27.3c7.7,4.3,17.2,5.2,25.4,1.9c10.4-4.1,18-13.1,23.5-22.6
	c8.6-15.5,12.5-33.2,13.9-50.7c1.5-22.6-1.2-45.8-9.7-66.9C458.9,514.3,452.2,502.9,442,495z"/>
<path class="st1" d="M650.8,553.3c-2.2-13.2-6.4-26.6-15.5-36.7c-5.9-6.6-15-10.6-23.9-9c-13.6,3-23,14.7-29.3,26.3
	c-10.6,20.2-14.6,43.4-13.6,66c0.9,14.8,3.9,29.9,11.8,42.7c4.8,7.7,12.4,14.6,21.7,15.7c8.7,1.1,17.2-3.1,23.5-9
	c9.5-8.9,15.5-20.9,19.8-33C652,596.2,654,574.4,650.8,553.3z"/>
<path class="st0" d="M428.4,518.6c-4.4,1.4-7.5,5.7-7.6,10.3c0.1,3.8,1.3,7.4,1.9,11.1c4.9,27.8,4,56.5-1.9,84
	c-1.2,6.5,4.5,13.5,11.2,12.9c5.9,0.1,10.4-5.1,11.2-10.6c6.9-32.4,7.2-66.3-0.1-98.6C441.9,521.1,434.9,516.3,428.4,518.6z"/>
<path class="st0" d="M629.2,545.1c-0.5-6-7-10.8-12.8-8.4c-3.8,1.3-6.4,5.3-6.1,9.3c3.7,23.7,1.7,48.2-5.1,71.2
	c-1.1,4.1-3.5,8.3-1.8,12.6c1.8,5.2,8.6,7.7,13.3,4.8c4.5-2.5,5.3-8,6.8-12.4C630.7,597.3,633.4,570.8,629.2,545.1z"/>
</svg>
