<svg version="1.1" xmlns="http://www.w3.org/2000/svg" xmlns:xlink="http://www.w3.org/1999/xlink" x="0px" y="0px" viewBox="0 0 1000 1000" style="enable-background:new 0 0 1000 1000;" xml:space="preserve">
<style type="text/css">
	.st0{fill:#EDEDED;}
	.st1{fill:#2C2F2F;}
	.st2{fill:#FF002C;}
	.st3{fill:#000000;}
</style>
<path class="st3" d="M395.4,463.7c4.8-1,9.8-0.6,14.6-0.6c28.1,0.9,56.2,2.9,84,6.8c20,3,40,6.2,59.9,9.9c32.9,5.7,65.3,14.3,97.3,23.9
	c5.3,1.8,10.8,3,15.8,5.5c3.9,2,4.1,7,4.4,10.8c0.8,13.3,1.6,27-1.8,40.1c-3.6,15.5-13,29.7-26.3,38.4c-9.4,6.2-21.3,8.4-32.4,6.2
	c-11.1-2-20.8-8.3-29.9-14.6c-8.2-5.7-17.7-10.9-28-9.9c-16,1.4-30.8,8.4-46.3,12.2c-22.4,5.9-46.6,5.9-68.8-1.1
	c-14.7-4.6-28.6-12.4-39.1-23.8c-10.4-11.3-17.5-25.7-19.5-41c-2-13.6,0.4-27.4,4-40.5c1.7-5.6,3.5-11.3,6.3-16.6
	C390.9,467.1,392.4,464.2,395.4,463.7"/>
<path class="st3" d="M535.1,607.2c9.3-4.1,20.3-3.9,29.6,0c10.4,4.3,20.1,11.7,24.9,22.1c1.8,3.4-1.8,8-5.6,6.8c-3.5-1.2-4.6-5.2-6.8-7.8
	c-3.1,3.6-6.2,7.2-9.3,10.8c4.9,7.4,5.6,17.4,1.1,25.1c-7,13.3-25,18.1-38.4,12.2c-13.8-5.6-22.3-21.3-20-35.9
	C512.7,626.4,521.7,612.8,535.1,607.2"/>
<path class="st0" d="M459.4,488.6c7.8-1.9,16.2,0.8,22.4,5.5c8.7,6.7,13.8,17.3,15.7,28c2.3,13.9-0.4,29-9,40.5
	c-5.3,7.1-13.4,12.5-22.4,13.1c-9.2,0.7-18.1-4-24-10.8c-14.7-17.5-15.1-45.1-1.8-63.5C445,495.1,451.7,490.2,459.4,488.6z"/>
<path class="st0" d="M614.3,517.5c11.9-4.1,24.5,4.2,29.1,15.1c5.7,12.5,4.3,28-3.7,39.3c-6,8.7-17.6,14.2-27.9,10.2
	c-6.5-2.3-11.5-7.5-14.6-13.6c-6.2-12.2-5.3-27.6,2.1-39.1C602.9,524,608.1,519.5,614.3,517.5z"/>
<path class="st1" d="M543.2,615.1c8.7-2.4,17.8,0.5,25.2,5.2c-2.9,3.5-5.9,7-9,10.4c-9.9-6-22.4-7-33.3-3.2
	C530.1,621.6,536,616.7,543.2,615.1z"/>
<path class="st2" d="M533.4,636.5c8.3-2.3,18.2-0.4,24.3,5.9c2.8,2.8,4.6,6.7,4.2,10.6c-0.1,7.5-6.6,13.6-13.6,15.1
	c-10.6,2.9-23.7-3.8-25.5-15.1C521.2,645.8,526.1,638,533.4,636.5z"/>
</svg>
