<svg version="1.1" xmlns="http://www.w3.org/2000/svg" xmlns:xlink="http://www.w3.org/1999/xlink" x="0px" y="0px" viewBox="0 0 1000 1000" xml:space="preserve">
<style type="text/css">
	.st0{fill:%%ST0%%;}
	.st1{fill:%%ST1%%;}
	.st2{fill:%%ST2%%;}
</style>
<path class="st0" d="M485.7,915.3c-37.7-37.8-78.2-72.6-118.6-107.5c-30.8-26-61.7-51.9-94-76.1c3.7-4.9,7-10.1,10.4-15.2c1.9-3.1,4.1-6.1,5-9.6
c0.7-2.3-0.5-4.8-2.3-6.2c-12.1-10-24.2-19.9-36.8-29.1c-2.5-2.3-6.9-2.3-8.8,0.8c-5,8.2-10.1,16.3-15.3,24.5
c-31.8-22.5-64.8-43.3-98.3-63.1c-4.1-2.3-8.1-4.6-12.2-6.7c-2.9-1.6-6.4-0.2-8.4,2.1c-3.2,3.6-5.6,7.8-8.2,11.9
C91.4,652.3,84.4,663.3,77,674c-1.9,2.9-4.2,6.4-2.9,10c1.5,3.9,5.9,4.9,9.1,6.8c35.9,19.2,70.9,39.9,105.6,61.2
c-3.8,5.7-7.8,11.3-11.8,17c-1.4,2.1-3,4.3-2.8,7c0.3,3.2,2.9,5.6,5.1,7.7c7.3,6.5,16,11.2,23.6,17.2c3.5,2.4,6.6,5.8,11,6.5
c3.6,0.3,6.4-2.5,8.6-5c5.1-6.1,9.3-12.7,13.9-19.2c35.2,24.4,68.6,51.2,101,79.3c22.5,19.8,44.2,40.5,65.9,61.1
c12.5,12.1,25.1,24.1,37.2,36.7c2.6,2.8,7.3,2.7,10,0.1c12-10.7,23.8-21.5,35.7-32.2c1.8-1.6,3.5-3.7,3.4-6.3
C489.6,919.2,487.5,917.1,485.7,915.3z"/>
<path class="st1" d="M117.2,646.5c15.2,8.8,30.3,17.9,45.3,27c17.6,10.9,34.7,22.6,51.9,34.2c1,0.6,1.8,1.4,2.8,2.2 c-6.2,9.5-12.4,19-18.9,28.2c-17.5-11.7-35.1-23.4-53.2-34.1c-15.1-8.9-30-18.2-45.3-26.8C105.6,667,111.3,656.7,117.2,646.5z"/>
<path class="st1" d="M245,770.5c6-9.2,12.1-18.3,18.9-27c57.4,42.4,111.5,89.1,163.7,137.8c14.1,13.2,28,26.8,42.1,40.1 c-7.5,7.9-15.3,15.5-22.9,23.3c-20.4-20.5-41.3-40.4-62.5-60C340.2,843.8,293.7,805.7,245,770.5z"/>
<path class="st2" d="M193.2,772.8c18.2-26.4,36.5-52.8,54.8-79.2c6.7,4.9,13.4,9.8,20.1,14.7c-18.1,26.4-36.2,52.9-54.4,79.3 C206.9,782.6,200.1,777.8,193.2,772.8z"/>
</svg>
