<svg version="1.1" xmlns="http://www.w3.org/2000/svg" xmlns:xlink="http://www.w3.org/1999/xlink" x="0px" y="0px" viewBox="0 0 1000 1000" style="enable-background:new 0 0 1000 1000;" xml:space="preserve">
<style type="text/css">
	.st0{fill:#00A28A;}
	.st1{fill:#00A900;}
	.st2{fill:#FF5400;}
	.st3{fill:#FFD400;}
	.st4{fill:#000000;}
</style>
<path class="st4" d="M441.6,97.6c10.5-4.7,22.9-3.9,33.5,0.2c8.2,3.2,15.8,8,22.5,13.7c11.1-5.2,23-9.4,35.4-8.9c7.5,0.3,15.6,1.8,21.4,7
	c3,2.7,5.1,7.2,3.3,11.2c-2.2,5.1-7,8.4-10.4,12.6c-3.5,3.9-5.8,8.7-7.6,13.6c7.8,2.4,15.6,5.5,22.2,10.2c4.2,3.1,8,7.3,8.8,12.7
	c0.7,4.5-2,8.9-5.7,11.2c-4.6,2.8-9.9,4.3-14.2,7.7c-5.2,3.7-8.8,9.2-11.7,14.8c15.5,4.9,29.8,15,37.8,29.5
	c10.2,17.8,17.2,37.3,22.3,57.1c4.4,18.2,8.3,37.3,4.4,56c-2.5,14.7-9.8,28.8-21.6,38.2c-16.4,13.5-37.2,21.3-58.3,23.5
	c-16.2,1.7-33,1.7-48.7-3.2c-10.4-3.3-20.1-9.2-26.9-17.8c-8.1-10.2-13.2-22.4-17.1-34.8c-7.4-23.8-10.3-49.2-7.4-74
	c1.3-15.3,5.9-30.3,14.1-43.3c-6.1-7.2-14.6-12-23.5-15c-4.6-1.6-9.8-3.2-12.5-7.6c-3.7-5.8-2.9-13.4-0.1-19.5
	c3.6-8.5,10.9-14.5,18.3-19.6c-4.4-5.6-9.5-10.8-15.4-14.8c-3.3-2.5-7.6-4.6-9.2-8.7c-1.5-4.2,1-8.5,3.4-11.7
	c6.2-7.9,16.4-11.2,26-12.6c6-0.9,12.1-1.2,18.1-0.8c-2.5-5.5-6.3-10.5-7.8-16.4C434.1,103.5,437.5,99.3,441.6,97.6L441.6,97.6z"/>
<path class="st0" d="M452.2,106.7c3.4-1.6,7.2-0.8,10.7-0.2c7.6,1.6,14.9,4.9,21.3,9.3c2.2,1.6,4.6,3.3,5.2,6.1
	c-4,4-8.5,7.4-12.5,11.4c-3.5-3.5-5.1-8.2-8.1-12C464.5,115.2,458.4,110.8,452.2,106.7z"/>
<path class="st0" d="M519,117.1c4.5-1.3,9.3-1.9,14.1-1.7c-3,2.8-7.2,3.7-10.5,6.1c-8.1,5.6-13.4,14.5-16,23.9
	c-0.8,2.9-1.6,6.3-4.6,7.7c-3.6,2-7.3,4-11.1,5.7c-1.9,1-3.5-0.8-4.8-2c-2.4-2.6-5.1-5-6.9-8.1c-1.5-2.6,0.5-5.3,2-7.3
	C491.2,129.9,504.4,121.3,519,117.1z"/>
<path class="st0" d="M417.9,138.6c10.3-2.9,21.6-2.3,31.5,1.9c10.1,4.1,19,10.7,26.8,18.2c1.9,2,4.2,4.2,4.3,7.2
	c-2,2.8-4.5,5.5-7.7,6.8c-2.6,0.2-5.1-1.1-7.6-1.9c-3.9-1.4-8.3-1.9-11.7-4.6c-4.3-3.4-7.5-7.9-11.6-11.4
	c-8.3-7.5-19.2-12.2-30.4-12.6C412.8,139.9,415.6,139.4,417.9,138.6z"/>
<path class="st0" d="M489.6,170.7c8.5-6.6,18.5-11.8,29.4-12.7c12.4-1.1,25.4,2.4,35.1,10.3c-11.5,1.1-23.6,2-33.7,8.3
	c-6.9,3.8-11.8,10.1-17,15.8c-3,3.3-6.3-1.1-8.6-3.1c-3.8-4.1-10.2-6.9-10.5-13.1C485.2,173.7,487.7,172.3,489.6,170.7z"/>
<path class="st0" d="M442.2,177.4c8.4-2.2,17.3,0,25.1,3.4c8.7,4,16.4,9.9,23.2,16.7c1.5,1.8,3.6,3.8,3.5,6.3
	c-2.6,1.9-5.9,2.1-8.9,3.1c-2.6,0.5-5.3,2-8,1c-2.3-1.8-3.6-4.5-5.1-6.9c-4.4-7.6-10.2-14.7-18-19
	C450.3,179.9,446,179.3,442.2,177.4z"/>
<path class="st0" d="M421.1,187.2c3.3-2.1,8-2.1,11.1,0.5c5.8,4.5,11.7,9.1,15.3,15.6c-7.6-1.7-14.5-5.7-22.4-6
	c-5.1-0.6-9.9,1.2-14.8,2.4C411.9,194.1,416.4,190,421.1,187.2z"/>
<path class="st1" d="M450.1,111.4c9.2,4,15.8,12.4,20.1,21.2c1.2,2.5,2.3,6.8-1.1,8c-3.5-1.1-6.7-3.1-9.7-5.2
	c-1.8-1.2-1.6-3.8-2.2-5.7C456.3,123.2,453.1,117.3,450.1,111.4z"/>
<path class="st1" d="M510.9,148c2.5-15.2,16.4-29.2,32.5-28c-3.8,4.3-8.3,8.1-11.2,13.1c-3.1,4.4-4,9.9-6.4,14.6
	c-3.2,1.8-7.2,1.4-10.7,1.9C513.6,149.7,510.9,150.1,510.9,148z"/>
<path class="st1" d="M413.4,147.3c8.5,0.1,16.4,4.2,23.2,9c3.8,3.1,7.7,6.6,9.1,11.5c-4.4,0.4-8.5,3.1-12.7,3.2
	c-2.8-4.2-5-8.7-8.3-12.5C421.5,154.2,417.1,151,413.4,147.3z"/>
<path class="st1" d="M531.4,176.5c5.9-1.9,12.1-3.1,18.4-2.5c-2.1,1.8-4.5,3.4-6.8,5c-6.3,4.5-11,10.9-14.4,17.7
	c-1.4,2.7-3.2,5.9-6.6,6.2c-4.8,0.3-9.7,0.3-14.4-0.6c-2.5-0.8-2-3.9-0.8-5.6C512.5,187.6,521,179.8,531.4,176.5z"/>
<path class="st1" d="M441,182.7c10.2,0.8,18.7,7.9,24.3,16.1c2.2,3.4,4.6,7,5.1,11.2c0.4,3-3.1,4.3-5.3,5.1
	c-2.1,0.9-3.1-1.6-3.9-3.1c-2.4-5.7-4.7-11.6-8.5-16.6C449.4,190.6,444.7,187.1,441,182.7z"/>
<path class="st1" d="M412.2,204.2c7.4-3.5,16.1-2.4,23.7,0c5.2,2,10.6,4.3,14.8,8.2c4,3.8,4.4,11.4-0.8,14.5c-2.2,2.1-4-1-5.4-2.5
	c-6.1-7.9-14.7-14-24.4-16.8C417.3,206.8,414.2,206.5,412.2,204.2z"/>
<path class="st2" d="M498.3,214.8l-0.3,0c-15.6,3.8-31.3,9.8-43,21.2c-8.2,7.8-12.6,18.7-15.4,29.5c-1.7,7-3.1,14.2-3.3,21.4
	c-0.3,6.7-0.4,13.4,0.1,20.1c0.6,6,1.2,11.9,2.6,17.8c1.2,7.5,3.2,14.9,5.3,22.2c2,6.1,4.1,12.2,6.9,18c5.2,10.9,13.9,20.6,25,25.8
	c11.3,6.3,24.8,6.6,37.4,5.9c7.7-0.6,15.4-1.8,22.8-3.8c19.2-4.3,38.3-14.6,48.8-31.8c7.5-12.5,8.6-27.7,7.3-41.9
	c-2-20-8.2-39.4-15.4-58.1c-5.3-13.5-11.9-27.3-23.7-36.3c-13.3-10.3-31.1-14.2-47.6-11.2C503.4,214.1,500.3,213.5,498.3,214.8z"/>
<path class="st3" d="M454.9,235.9c11.7-11.4,27.4-17.3,43-21.2l0.3,0c0.2,0,0.5,0.1,0.7,0.1c6.7-0.2,13.5,0.3,19.9,2.5
	c7.8,2.5,14.3,8,19.6,14.1c10.9,12.5,18.3,27.6,24.1,43.1c1.1,3.5,2.7,7.5,1.1,11.1c-2,1.9-5.1,1-7.6,0.5
	c-19.3-5.6-38.1-13.6-58.2-16.3c-3.1-0.9-4.5,3.8-1.6,4.8c6.3,1.9,13,2.5,19.3,4.6c14.4,4.3,29.4,8.4,41.9,17.3c2.6,2.1,6.5,5.1,5,9
	c-2,4.4-6.2,7.2-9.7,10.2c-3.1,2.7-7.1,4.8-11.3,3.6c-12.4-3-24.4-7.6-36.7-11c-17.3-4.9-34.9-8.7-52.7-11c-4.1-0.7-8.5-1-12.2-3.3
	c-2.5-1.6-2.8-4.8-3.5-7.3c0.2-7.2,1.6-14.4,3.3-21.4C442.3,254.6,446.7,243.8,454.9,235.9z"/>
<path class="st3" d="M436.4,306.9c1.7-1.4,3.2-3.5,5.6-3.7c5.9-0.8,11.9,0.3,17.8,1c17.3,2.6,34.4,6.7,51.2,11.9
	c7.3,2.4,14.7,4.7,21.3,8.7c1.8,1.2,4.2,2.8,4,5.2c-0.7,3.5-3.2,6.3-5.4,9c-2.8,3.2-5.4,6.6-9,8.9c-2.4,1.6-5.4,1.1-8.1,0.6
	c-5.2-1.2-10.3-2.8-15.5-4.1c-15.9-4.2-32.1-7.2-48.4-9.3c-5.7-0.4-9.6-5.2-11-10.4C437.6,318.8,437,312.9,436.4,306.9z"/>
<path class="st3" d="M554.3,324c3.2-5.2,8.2-9.5,13.8-11.7c2.6-1.3,4.6,1.4,5.1,3.6c1.3,4.5,2.5,9.3,1.9,14.1
	c-0.3,3.1-3.9,3.3-6.2,2.5C563.5,330.6,558.4,327.9,554.3,324z"/>
<path class="st3" d="M546.3,333.3c6.7-2,13.4,1.4,19.3,4.2c3.9,2,9,4.4,9.2,9.4c0,5.7-1.5,11.5-4.6,16.2c-2.1,3.3-6.3,5.1-10.1,3.9
	c-7.9-2.1-14.8-6.7-22.5-9.5c-2.8-1.4-6.9-2.1-7.8-5.5c0.6-4.1,3.6-7.1,6.2-10.1C539,338.7,542,335,546.3,333.3z"/>
<path class="st3" d="M444.2,346.9c1.3-1.8,2.4-4.2,4.9-4.6c4.7-1.1,9.6-0.2,14.4,0.4c12,1.9,24,4.4,35.6,8.1
	c4.1,1.5,8.8,2.8,11.9,6.1c2.1,2.2,0.9,5.4-0.3,7.7c-3.2,6.1-7.2,11.6-10.6,17.6c-2.1,3.4-4,7.3-7.9,8.9c-5.2,2.3-11,0.9-16.2-0.4
	c-11.1-5.2-19.7-14.8-25-25.8C448.3,359.1,446.2,353,444.2,346.9z"/>
<path class="st3" d="M524.7,361.7c6.4-1.8,12.6,1.8,18.3,4.3c5,2.6,10.6,4.4,15,8.1c2.3,2,0.2,4.8-1.7,6.2c-6.2,4.9-13,8.9-20,12.5
	c-7.4,2-15.1,3.2-22.8,3.8c-3.7-0.9-9.2-2-9.7-6.6c0.4-4.9,3.8-8.9,6.2-13C513.9,371.2,517.6,364.1,524.7,361.7z"/>
</svg>
