<svg version="1.1" xmlns="http://www.w3.org/2000/svg" xmlns:xlink="http://www.w3.org/1999/xlink" x="0px" y="0px" viewBox="0 0 1000 1000" style="enable-background:new 0 0 1000 1000;" xml:space="preserve">
<style type="text/css">
	.st0{fill:#FFD400;}
	.st1{fill:#FFFFFF;}
	.st2{fill:#000000;}
</style>
<path class="st2" d="M433.8,404.7c35-18.2,76.3-24.4,114.9-16.2c27.7,6.1,54.8,17.7,75.8,37.1c23.7,22.5,39.3,52.7,46.1,84.5
	c6,26.6,6.5,54.4,2.8,81.4c-2.5,17-6.9,33.9-14.4,49.4c-5.7,12.9-13,25.2-22.2,35.9c-8.2,9.7-17.5,18.9-28.4,25.6
	c-3.4,2.5-8.9-0.1-8.6-4.4c0.1-3.6,3.7-5.2,6.2-7.1c6.4-4.5,12.3-9.7,17.4-15.7c1.2-1.2,1.8-2.9,2.4-4.4
	c-10.8,2.5-21.5,5.7-32.5,7.4c-38.7,6.6-78.2,7.5-117.3,3.7c-17.5-2-34.8-5.3-52-8.9c-11.6-2.7-23.2-5.5-34.4-9.7
	c-1.7-0.7-3.5-1-5.3-1c0.5,4.4,3.6,7.8,6.1,11.3c8,10.4,18.5,18.5,29.1,26.2c3.4,2.1,3.2,8-0.7,9.4c-3.6,1.6-7-1.4-9.9-3.1
	c-24-16-42.4-39.6-54.4-65.6c-9.6-21.1-13.8-44.2-15.1-67.2c-1.2-33.5,4.3-67.8,20.2-97.5C376,444.9,403,420.6,433.8,404.7
	 M506.5,396.8c-24,1.3-47.6,7.7-68.8,19c-15.6,8.3-30.4,18.5-42.3,31.7c-4.5,5.3-8.5,13.5-4.1,20.1c4.3,5.8,12.2,6,18.7,7.7
	c45.9,10.3,93,13.6,139.9,14.2c24.4,0.2,48.7-1.4,73-3.6c5.7-0.9,12-0.7,16.9-4.1c4.2-3,3.6-9,1.6-13.2c-7-14.7-17.1-28-29.7-38.4
	c-14.7-12.4-32.4-20.8-50.7-26.4C543.5,398.4,524.9,395.9,506.5,396.8"/>
<path class="st0" d="M374.3,483.6c5.2-1.5,10.5,0.1,15.6,1c20.2,4.5,40.5,8.4,61,11.1c23.2,3.8,46.6,5.2,70.1,6.4
	c20,1.2,40,0.4,60-0.1c21.1-0.5,42.2-3,63-6.2c3.1-0.4,6.7-0.4,9,2.1c3.3,3.5,4.3,8.5,5.5,13c6.1,30.7,7.8,62.7,1.2,93.5
	c-3.4,13.5-7.4,27.3-15.4,38.9c-4.8,6.8-12.9,9.8-20.4,12.5c-15.7,5-31.8,8-48,10.7c-23.8,3.7-47.9,3.6-71.9,3.2
	c-24.2-0.8-48.4-4.2-72-9.4c-16.6-3.6-32.8-8.9-48-16.2c-7.9-3.9-15.6-9.1-20.5-16.6c-5-7.7-7.3-16.6-9.1-25.5
	c-3.4-17.8-4-36-2.6-54c1-13,3.2-25.9,7.1-38.3c2.1-6.6,4.1-13.2,7.7-19.2C368.4,487.5,370.9,484.7,374.3,483.6"/>
<path class="st2" d="M442.4,524.7c12.6-2.7,26.2-0.9,37.6,5.2c12,6.4,21.5,17.5,25.8,30.4c4.9,14,3.6,30.1-3.5,43.2c-7.3,13.9-21,24.2-36.3,27.5
	c-13.8,3.2-28.9,0.4-40.8-7.2c-10.5-6.6-18.6-17-22.4-28.8c-4.1-12.2-3.6-25.9,1.3-37.8C410.8,541.1,425.4,528.4,442.4,524.7"/>
<path class="st2" d="M597.5,534.7c21.8-4.4,45,11.1,50,32.7c3.3,12.5,0.4,26.3-7.3,36.7c-8,11-21.5,17.8-35.1,17.8c-11.5,0.1-22.9-4.7-31-12.8
	c-8.2-8.1-13-19.5-12.9-31.1c-0.2-13.9,7-27.5,18.3-35.5C584.8,538.5,591,536.1,597.5,534.7"/>
<path class="st0" d="M444.9,534.1c15-3.7,31.6,1.5,42.1,12.8c-24.7,4.6-49.4,9.3-74.1,13.8C418.4,547.2,430.8,537,444.9,534.1z"/>
<path class="st0" d="M584.1,549.4c12.8-9.3,31.8-8.6,43.8,1.8c2.8,2.4,5.1,5.3,7.2,8.3C618.1,556.2,601.1,552.8,584.1,549.4z"/>
<path class="st1" d="M410.2,570.9c27.8-5,55.5-10.4,83.3-15.5c5.8,10.3,7.5,22.9,4.3,34.3c-3.3,12.3-12.1,22.9-23.6,28.5
	c-12,5.9-26.6,6-38.7,0.3C417.7,610.6,406.6,590,410.2,570.9z"/>
<path class="st1" d="M569.7,579c-0.3-7.6,2.1-15.1,6.3-21.4c21.1,4.3,42.4,8.2,63.5,12.7c2.2,10.7-0.5,22.4-7.7,30.7
	c-9.3,11.3-26,15.5-39.6,10C579.2,606.1,569.8,592.9,569.7,579z"/>
</svg>
