<svg version="1.1" xmlns="http://www.w3.org/2000/svg" xmlns:xlink="http://www.w3.org/1999/xlink" x="0px" y="0px" viewBox="0 0 1000 1000" style="enable-background:new 0 0 1000 1000;" xml:space="preserve">
<style type="text/css">
	.st0{fill:#00A900;}
	.st1{fill:#E94000;}
	.st2{fill:#000000;}
</style>
<path class="st2" d="M562.7,200.3c-7-15.2-15.7-29.8-26.5-42.6c-12.9-15.1-29.5-27.8-48.9-33c-11.5-3.2-23.7-1.7-34.9,1.9
	c-4.1,1.3-8,3.4-12.1,4.6c-4,1.2-8.2-0.1-12.3-0.2c-3.8-0.3-7.4,0.6-11.1,0.8c-1.4-0.6-1.7-2.2-2.4-3.4c-6.9-17-16.7-33.1-29.7-46.2
	c-2.8-2.6-5.7-5.9-9.8-6c-2.8-0.1-5.2,1.8-7,3.8c-8.1,9-16.3,17.8-24.4,26.8c-2.5,2.5-3.2,6.8-1.1,9.8c1.8,2.8,5.2,3.6,8,4.9
	c10.1,4.2,18.8,11.7,24.7,20.8c-4.7,2.7-10,4.4-14.3,7.9c-3.1,2.1-5.7,6.2-9.9,5.6c-13.4-1.1-27.4,2-38.1,10.3
	c-16.7,12.2-25.4,32-30.5,51.5c-4.7,17.4-6.4,35.5-5.3,53.5c2.1,26.3,12.4,52.2,30.3,71.6c14,14.5,32.2,25.1,51.8,30.1
	c11,2.9,22.8,3.5,33.8,0.3c5.3-1.4,10.2-4.9,16-4c13,1.2,26.3-1,38-6.9c4.5-2.1,8.8-5.5,14-5.4c15.3-0.4,30.2-6.9,41.2-17.5
	c4-4,10.1-3.9,15.3-5c14.1-2.8,26.8-10.8,36.5-21.3c13.6-14.6,21.8-34.1,22.3-54C576.8,238.6,571.2,218.6,562.7,200.3z"/>
<path class="st0" d="M375.5,93.6c12.3,12.9,21.5,28.8,27.4,45.5c-1,0.8-2.1,1.6-3.1,2.3c-2.9-0.5-5.8-0.9-8.7-1.1
	c-6.5-13.1-17.4-23.8-30.4-30.6C365.6,104.4,370.5,99,375.5,93.6z"/>
<path class="st1" d="M467.2,136.2c10-2,20.2,1,29.1,5.4c17.3,8.4,30.7,23.1,41.1,39c9.8,15.3,18,31.8,22.6,49.4
	c4.4,16.9,5.5,35.4-1.2,51.8c-7.3,19.3-23.8,35.4-44.2,39.9c-4.4,1.1-8.9,0.5-13.3,0.8c-4.5,0.9-5.9,6-9.1,8.7
	c-10.1,9.4-24.6,14.3-38.3,12.4c-2.3-0.3-4.1,1.3-5.8,2.5c-11.7,9.1-27.6,12.5-42,9c-2.9-0.9-5.6,0.4-8,1.9c-9,5.5-20,6.4-30.2,4.5
	c-19.8-3.6-38.3-13.9-52.1-28.5c-15.3-17.1-24.1-39.5-26.1-62.2c-1.1-16.5,0.4-33.3,4.7-49.3c3.1-11.6,7.2-23.2,14.1-33.1
	c5.9-8.2,14-15.3,23.8-18.4c7.2-2.1,14.9-2.6,22.2-0.7c2.7,0.9,5.8,0,7.4-2.4c7-9.6,19.3-14.7,31-13.9c4,0.3,8.6,3.1,12.3,0.1
	c5-4,10.5-7.9,17.1-9c5.6-1.3,11.4,0.1,16.7,2c3.2,1.3,6-1,8.4-2.8C453.2,139.2,460.3,137.5,467.2,136.2"/>
<path class="st2" d="M443.2,162c1.3-1.2,3.1,0,4.4,0.4c19.2,8.4,34.5,24.4,43.9,42.9c1.3,1.7,0.1,3.7-1.4,4.6c-17.2,12.9-39.7,19-61.1,15.5
	c-2-0.1-3.4-2.7-1.9-4.2c11.6-13.8,17.2-32.5,15.8-50.4C443.1,168.1,440.8,164.3,443.2,162z"/>
<path class="st2" d="M360.2,185.8c1.6-1.1,3.9-0.4,4.6,1.4c8.9,17.1,23.4,31.2,40.9,39.2c1.4,0.6,3.1,1.8,2.6,3.7c-0.8,2.1-2.8,3.3-4.5,4.7
	c-12.5,9.4-27.5,15-42.8,18c-4.3,0.7-8.6,1.6-13,1.3c-2.2-0.5-2.1-3.2-2.4-4.9c-1.5-17.8,0.7-36.1,8-52.5
	C355.5,192.8,357.3,188.9,360.2,185.8z"/>
<path class="st2" d="M516.3,212.4c2.2-0.7,3.7,1.6,3.6,3.6c1.8,31.7-11.3,63.8-34.7,85.3c-15.2,14.1-34.6,23.7-55.2,26.8
	c-18.6,2.9-37.9,0.4-55.2-7c-20.8-8.9-38.4-25.1-49.1-45c-1.7-2.3-0.4-6.7,3.1-5.4c26.8,6.2,54.8,8.4,82.1,4.4
	c22.5-3.3,44.5-11.1,63.6-23.5c15.1-9.8,28.4-22.4,39.2-36.8C514.5,213.9,515.1,212.7,516.3,212.4z"/>
<path class="st2" d="M419.3,237.3c2.1-1.6,3.9,0.8,5.3,2.1c3.3,3.4,7.5,6,12.1,7.2c2.9,0.4,3,4.5,0.6,5.7c-7.4,4.9-16.5,6.6-25.2,6.1
	c-2.3,0.1-5.4-1.6-4.4-4.3c2.6-2.8,5.7-5.3,7.6-8.7C417,242.9,417.6,239.8,419.3,237.3z"/>
</svg>
