<svg version="1.1" xmlns="http://www.w3.org/2000/svg" xmlns:xlink="http://www.w3.org/1999/xlink" x="0px" y="0px" viewBox="0 0 1000 1000" style="enable-background:new 0 0 1000 1000;" xml:space="preserve">
<style type="text/css">
	.st0{fill:#EDEDED;}
	.st1{fill:#000000;}
</style>
<path class="st1" d="M433.5,322.8c14.8-1.9,30,1.6,43.1,8.7c13.8,7.5,25.6,18.5,34.6,31.4c11.3,16.9,19.4,36.1,22.8,56.2
	c5.6,32.6,0.4,67.5-17.1,95.9c-8.4,13.5-19.9,25.4-33.8,33.3c-13.5,7.7-29.4,11.3-44.9,9.3c-15.9-1.8-30.9-9.2-42.9-19.7
	c-11.6-10.1-20.6-23-27-37c-10.2-22.4-15.1-47.1-13.9-71.7c0.4-23.4,7-46.9,20.3-66.4C387.9,342.4,408.8,325.7,433.5,322.8"/>
<path class="st1" d="M632.2,376.3c14.1-2.5,29.1,0.4,40.9,8.6c10.7,7.4,18.7,18.2,24,30c9,20.2,9,43.5,3.3,64.7c-5,16.7-16,31.7-30.7,41.2
	c-12.7,8.5-28.9,11.6-43.8,8.2c-11.2-2.3-21-9.1-28.6-17.4c-10.5-11.7-16.5-27-18.4-42.6c-1.9-17.4-0.2-35.4,6.5-51.6
	c5.5-13.7,14.3-26.9,27.6-34.2C619,379.8,625.5,377.5,632.2,376.3"/>
<path class="st0" d="M443.5,341.9c15.2-0.7,30.2,5.1,42.1,14.4c15.4,12.2,26,29.7,32,48.2c10.5,33.1,7.7,70.8-9.7,101.1
	c-8.4,14.4-20.6,27.1-35.9,34.1c-11.7,5.4-25.2,7.2-37.9,4.3c-16.5-3.5-30.8-13.9-41.1-26.9c-12.9-16.2-20.4-36.2-23.1-56.6
	c-3.4-25.8,0.7-52.9,13-75.9c8.7-16.2,22-30.5,39.1-37.8C428.8,344.1,436.1,342.2,443.5,341.9"/>
<path class="st0" d="M634.5,391.7c10.7-2.3,22.2,0.4,31,6.9c10.2,7.6,16.9,19.1,20.2,31.3c5,17.8,3.1,37.4-4.5,54.2
	c-5.1,11.1-13.1,21.2-23.7,27.4c-9,5.3-20.1,7.5-30.3,4.6c-13.4-3.5-23.7-14.4-29.5-26.7c-9.5-20.4-8.8-45,0.5-65.4
	C605,409,617.8,395.4,634.5,391.7"/>
<path class="st1" d="M644.4,414.6c10.4-4,23.1,1.7,27.2,12c3.3,7.6,1.7,17.1-4,23.1c-5.5,6.2-14.7,8.6-22.6,6.1c-7.8-2.4-13.9-9.5-14.9-17.6
	C628.5,428.2,634.9,417.7,644.4,414.6z"/>
<path class="st1" d="M439.1,447.9c15.2-0.5,30,9.6,34.8,24c4.5,12.3,1.5,27-7.5,36.6c-10.9,12.2-30.4,15.1-44.5,6.7c-13.8-7.6-21.1-25-16.9-40.2
	C408.7,459.6,423.4,448.1,439.1,447.9z"/>
</svg>
