<svg version="1.1" xmlns="http://www.w3.org/2000/svg" xmlns:xlink="http://www.w3.org/1999/xlink" x="0px" y="0px" viewBox="0 0 1000 1000" style="enable-background:new 0 0 1000 1000;" xml:space="preserve">
<style type="text/css">
	.st0{fill:#EDEDED;}
	.st1{fill:#959898;}
	.st2{fill:#000000;}
</style>
<path class="st2" d="M911.5,863c2-11.2-1.1-23.2-8.9-31.6c-9-10-22.6-14.1-35.6-15.4c-15.7-1.8-31.5,0.6-46.9,3.7c-4.1,1.3-9-2.4-7.9-6.8
	c1.1-6.2,5.5-11,8-16.6c3.3-6.7,5.4-14.7,2.4-21.9c-2.8-7.8-10.6-12.6-18.5-13.9c-14-2.7-28.3,3.8-37.9,13.8
	c-9.8,10-14.6,23.7-15.8,37.4c-2.5,1.1-5,2.2-7.4,3.4c-6.6-5.2-14.3-9.9-22.9-9.5c-6,0.2-11.1,4.1-14.7,8.7
	c-8.4,10.3-11,23.7-12.5,36.5c-1.5,15.7-2.2,31.9,2.1,47.2c1.9,7.4,3.7,15.2,8.9,21.2c6.7,8.5,19.9,7.3,27.8,1.3
	c8.4,8,20,11.8,31.4,12.8c12.9,1.3,25.8-0.9,38.3-4.1c10.3-2.6,21.3-4.6,31.7-1.4c8.3,2.3,15.1,7.8,22.8,11.3
	c9,4.1,20.7,3.9,28.2-3.1c5.6-5,7.5-12.9,7.5-20.2c5.6,0.1,11.6,0.3,16.5-2.9c10.6-6.8,14.8-21,11.8-32.9
	C918.5,873.8,915.2,868.1,911.5,863z"/>
<path class="st0" d="M774.4,782.4c4.7-5.5,11.5-9.1,18.6-10.4c5.6-0.9,11.9-0.3,16.2,3.8c2.6,2.4,3,6.2,2,9.4
	c-1.5,4.5-4.3,8.3-6.6,12.4c-5.6,9.5-8.9,20.8-7,31.8c-2.2,1.1-5.2,1.8-5.8,4.6c-0.9,3.2,2.9,5.9,5.8,4.5
	c14.3-5.2,29.2-8.5,44.4-9.5c13.9-0.7,28.6,0.1,41.3,6.5c8.3,4.1,15.7,12.2,14.9,22.1c-7.2-5.2-15.6-8.7-24.3-10.4
	c-22.5-4.5-45.8-2.2-68,2.8c-2.7,0.3-5.1,3.1-3.8,5.8c1,2.8,4.5,2.8,7,2.1c20.4-4.4,41.6-6.5,62.3-2.6c9.7,1.8,19.4,5.7,26.2,13.2
	c6.1,6.7,9.3,16.5,7.1,25.5c-0.8,3.3-3.1,6.8-6.7,7.1c-4.5,0.6-9.1-0.4-13.4-1.7c-1.8-2.6-2.6-5.7-4.4-8.3
	c-7-11.5-19.3-19-32.2-21.8s-26.5-2.6-39.3,0.6c-2.6,0.4-4.3,3.4-3.1,5.8c1.1,2.5,4.3,2.5,6.6,2c12.3-2.5,25.3-2.7,37.5,0.8
	c11.2,3.2,21.5,11.1,25.9,22c2.9,7.1,3.8,15.5,0.3,22.5c-1.6,3.2-5.4,4.9-8.9,4.3c-6.1-0.9-11.2-4.7-16.4-7.7
	c-13.1-7.9-28.1-13.4-43.5-13.4c-2.6,0.1-6-0.2-7.5,2.4c-1.7,2.1,0.3,4.3,1.4,6c-11,3.1-22.5,5.3-33.9,3.6
	c-12.9-1.8-26.5-6.9-33.8-18.2c-1.6-2.2-2.8-5.9-6.2-5.7c-2.7-0.1-4.7,3.1-3.5,5.5c1.2,2.9,3.3,5.2,4.7,8c-3.9,1.7-7.9,3.8-12.2,3.7
	c-3.1,0-4.7-3-5.9-5.4c-4.1-9.4-6-19.7-5.9-30c-0.4-14.1,0.9-28.3,5.4-41.7c1.8-4.7,3.9-10.1,8.6-12.4c5.5-1.7,10.1,2.9,14.3,5.7
	c-6.8,6.5-11.9,14.8-14,24.1c-2.3,10.3-0.6,21.7,5.5,30.4c1.5,2.4,5.7,2.5,7-0.2c1.3-2-0.1-4.1-1-5.9c-6-10-5-23.2,0.8-33
	c8.5-14.9,27.4-23.4,44.1-18.7c2.2,0.4,4.6,1.9,6.8,0.6c2.9-1.3,2.6-6-0.3-7.2c-5.3-2.5-11.2-3-17-3.3
	C763.7,803,766.8,791.1,774.4,782.4 M782.2,838.3c-2.3,0.6-3.6,3.5-2.5,5.6c5.3,12.1,8,26.2,4,39.1c-1.4,3,1.7,6.6,4.8,5.5
	c2.9-0.9,3.6-4.3,4.3-6.8c3-13.1,0.5-26.9-4.5-39.1C787.5,840.1,785.2,837.2,782.2,838.3z"/>
<path class="st2" d="M845,483c1.3-2.8,4.4-3.8,7.1-4.8c2.8,1.2,5.8,2.7,7,5.7c6.9,12.9,13,26.2,19.9,39.1c11.9,23.9,24.1,47.5,36,71.4
	c1.9,4.7-1.5,9.2-3.5,13.3c-16.8,33.7-34.1,67.2-51,100.9c-1,1.9-2,3.9-3.2,5.7c-1.4,2.1-4.1,2.7-6.3,3.6c-4-1.2-6.8-4.3-8.3-8.1
	c-17.1-34.2-34.7-68.3-51.8-102.5c-2.2-3.8-4.8-8.4-2.4-12.7c11.9-24,24.3-47.9,36.3-71.9C831.8,509.6,837.9,496,845,483"/>
<path class="st1" d="M845.8,510.9c1.2-2.3,2.4-4.6,3.7-6.8c4.9,20.4,9.5,40.9,14.3,61.3c1.5,7.1,3.5,14.1,4.7,21.3
	c-21.7,2.3-43.2,5.7-64.9,7.8C817.5,566.6,831.8,538.8,845.8,510.9z"/>
<path class="st1" d="M857.2,509.8c13.6,27.8,28,55.3,41.8,83c-8.1-2.1-16.2-4.3-24.3-6.6C868.8,560.8,862.5,535.4,857.2,509.8z"/>
<path class="st1" d="M802.7,600.7c22-2.8,43.9-5.5,65.9-8.3c-5.8,34.2-11.8,68.5-17.8,102.7C834.5,663.8,818.8,632.2,802.7,600.7z"
	/>
<path class="st1" d="M874.7,592.3c8.6,2.3,17.3,4.6,25.9,7c-13.8,27-27.1,54.3-41.3,81C864.6,651.1,869.3,621.6,874.7,592.3z"/>
</svg>
