<svg version="1.1" xmlns="http://www.w3.org/2000/svg" xmlns:xlink="http://www.w3.org/1999/xlink" x="0px" y="0px" viewBox="0 0 1000 1000" style="enable-background:new 0 0 1000 1000;" xml:space="preserve">
<style type="text/css">
	.st0{fill:#FFD400;}
	.st1{fill:#FFFFFF;}
	.st2{fill:#FAFAFA;}
	.st3{fill:#000000;}
</style>
<path class="st3" d="M381.6,444.5c34.8-38.3,86.5-61.4,138.4-59.4c20.3,0.6,40.3,5.3,59.2,12.7c15.6,6.2,30.5,14.7,43.1,25.8
	c23.1,20.9,39,49.2,46.5,79.3c5,18.6,7,37.8,6.9,57c-0.3,24-3.7,48.1-12.2,70.6c-6,14.8-13.1,29.4-23.1,41.9
	c-9.1,11.4-19.4,22.2-32,29.9c-2.6,1.8-6.6,1.1-8-1.8c-1.7-2.7,0-6.1,2.5-7.6c5.9-4,11.6-8.4,16.6-13.5c2.5-2.6,5.3-5.1,6.3-8.7
	c-10.8,2.5-21.5,5.8-32.5,7.4c-24.2,4-48.7,6.1-73.3,5.9c-20.9-0.3-41.9-1.2-62.6-4.8c-20.6-3.5-41.2-7.3-61.2-13.7
	c-4-1.1-7.7-3.3-11.9-3.4c0.2,1.9,0.9,3.8,2,5.5c8.3,13.2,20.7,23,33.2,32c3.5,2.1,3.3,8.1-0.7,9.5c-3.1,1.4-6.1-0.9-8.6-2.4
	c-21.7-14-38.7-34.5-51-57C349,631,343.3,610.1,340.8,589c-2.6-20.2-1.8-40.7,1.4-60.7C347.1,497.4,360.4,467.6,381.6,444.5
	 M506.5,396.8c-37.9,1.8-74.8,17.4-103.1,42.5c-6.3,5.9-13.4,12.5-14.1,21.6c-0.3,5.8,4.4,10.5,9.8,11.8
	c52.2,12.9,106.2,16.7,159.8,16.8c21.7-0.3,43.4-1.7,65-3.8c5.5-0.9,11.8-0.7,16.4-4.4c3.7-3.2,3-8.8,1-12.8
	c-7-14.7-17.1-28-29.7-38.4c-14.7-12.4-32.5-20.7-50.8-26.4C543.5,398.4,524.9,395.9,506.5,396.8"/>
<path class="st0" d="M374.4,483.5c5.1-1.4,10.5,0.2,15.6,1c20.2,4.5,40.4,8.4,60.9,11.1c21.5,3.5,43.3,4.9,65,6.2
	c13.7,0.8,27.4,1.2,41.1,0.7c15.3-0.4,30.7-0.4,46-1.8c11.8-1,23.5-2.4,35.1-4.1c3.9-0.5,7.9-1.6,11.8-0.7c3.9,1.2,5.8,5.4,7,9
	c3,9.8,3.9,20.1,5.3,30.2c2.3,16.5,2.1,33.3,0.5,49.8c-0.9,10.4-3,20.7-6.1,30.7c-3.1,10-6.8,20.2-13.1,28.7
	c-5.7,6.9-14.6,9.7-22.8,12.4c-18.5,5.3-37.4,8.9-56.5,11.1c-16.7,1.9-33.5,2-50.2,1.8c-25.9,0-51.8-3.2-77.1-8.5
	c-18-3.6-35.7-9-52.3-17c-9.2-4.5-18.2-10.7-23-20c-5.7-11.2-7.7-23.8-9.3-36.1c-3.1-30.6-0.5-62.3,10.9-91.1
	C365.6,491.8,368.4,485.6,374.4,483.5"/>
<path class="st3" d="M445.4,517.7c9.4-2.5,19.8,0.5,27.1,6.8c8.9,7.5,13.7,18.9,15.5,30.2c2.6,17.3-1,35.4-10,50.3c-5.2,8.6-12.6,16.2-21.8,20.5
	c-7.5,3.5-16.3,4.3-24,1.4c-9.9-3.5-17.3-12.1-21.3-21.6c-6.6-15.6-6.2-33.5-1-49.5C415.4,538.8,427.5,522.2,445.4,517.7"/>
<path class="st3" d="M607.3,533.6c6.8-2.5,14.5-1.1,20.7,2.5c7.7,4.7,13,12.5,16.1,20.9c5.3,14.8,4.7,31.7-2,45.9c-4.1,8.7-11.2,16.6-20.7,19.2
	c-7.3,2.2-15.4,0.4-21.5-4c-7.9-5.6-12.9-14.5-15.5-23.7c-3.7-13.7-2.8-28.8,3.2-41.7C591.5,544.3,598.3,536.7,607.3,533.6"/>
<path class="st1" d="M456.2,536c0-3.5,4.7-5.7,7.5-3.7c3,2.1,4.9,5.2,6.9,8.1c7.4,11.3,10.7,26.1,5.8,39c-0.9,2.8-3.8,4.1-6.5,3.9
	c-1.8-1.2-3.9-2.9-3.6-5.4c0.6-3.7,2.1-7.3,2-11.1c0-9.1-3.7-17.9-9.5-24.9C457.4,540.4,455.6,538.5,456.2,536z"/>
<path class="st1" d="M617.5,544.5c2-0.6,4,0.2,5.6,1.3c9.8,6.6,14.8,18.8,13.9,30.3c-0.2,3.1-3.2,5.4-6.2,4.4
	c-2.4-0.6-3.6-3.2-3.5-5.5c0.1-7.7-2.6-15.9-9-20.5c-1.5-1.3-3.6-2.3-4-4.4C613.8,547.7,615.2,545.1,617.5,544.5z"/>
<path class="st1" d="M626.2,590.2c2.5-1.6,6.1,0,6.9,2.7c1.6,3.7-3.2,8-6.7,5.8C622.9,597.3,622.7,591.8,626.2,590.2z"/>
<path class="st2" d="M461.2,592.2c3.6-2.1,8.4,1.9,7.1,5.9c-0.8,3.4-5.3,4.9-8,2.8C457.2,598.8,457.8,593.5,461.2,592.2z"/>
</svg>
