<svg version="1.1" xmlns="http://www.w3.org/2000/svg" xmlns:xlink="http://www.w3.org/1999/xlink" x="0px" y="0px" viewBox="0 0 1000 1000" style="enable-background:new 0 0 1000 1000;" xml:space="preserve">
<style type="text/css">
	.st0{fill:%%ST0%%;}
	.st1{fill:#EDEDED;}
	.st2{fill:#000000;}
</style>
<path class="st2" d="M733.5,584c-0.4-18.1-5.9-35.5-10.6-52.9c-5.1-17-13.9-32.7-23.5-47.6c8.2-25.6,7.3-55.3-7.4-78.5
	c-7.8-12.6-19.4-23.3-33.8-27.4c-17.7-5.2-37.6-1.3-52.2,9.9c-9-6.1-18.6-11.5-28.4-16.3c-25.1-12.1-51.8-21.4-79.6-24.7
	c-1.1-0.2-1.8-1.2-2.6-1.8c-13.5-12.4-30.9-21.2-49.4-22.5c-17-1.2-34.2,4.8-47.8,15c-16.3,12.2-28,29.7-36.2,48.4
	c-2.4,3.4-5.9,5.9-8.7,9.1c-18.7,19.1-30.3,43.8-38.9,68.8c-24.9-4.8-47.1-18.5-65.9-35.2c-7.8-6.5-14.4-14.4-23-19.9
	c-3.9-2.6-9.1-1.6-12.7,1c-5.4,3.9-9.1,9.8-12.2,15.6c-8.5,16.9-13.9,35.4-17,54.1c-0.8,4.9,0.5,10.4,4.4,13.7
	c5.6,4.9,12.6,7.8,19.2,11c-6.3,4.2-15.4,6.7-17.9,14.7c-1.6,7.2,1.1,14.6,3.8,21.2c5.8,12.6,14.2,24.3,25.3,32.8
	c3,2.4,7.4,4.1,11,2c4.6-2.6,7.4-7.2,10.8-11.1c10.1-12.7,21.7-24.1,35.3-32.9c-11.3,16.9-19.5,36.1-21.4,56.4
	c-2.6,22.4,3.1,45.3,13.9,65c13.9,24.5,35.1,44.2,58.7,59.2c17.8,11.3,36.9,20.5,57.1,26.7c37.3,11.4,76,19.6,115.1,19.8
	c41.7-0.3,84.5-5.9,122.3-24.5c12.9-6.4,25.5-13.4,37.5-21.4c11.1-7.3,21-16.3,30.4-25.6c13.7-13.5,25.1-29.5,33.1-47
	C729.6,621.8,734.2,602.9,733.5,584z M685.9,552.3c-17.4,0.5-33.3,10-50.8,9c-16.6-1.1-30.7-10.8-45.8-16.5
	c-13.3-5.2-28.6-4.6-41.8,0.9c-14.8,6-27.8,15.5-41.7,23.1c-15.3,8.7-32.2,14.5-49.7,16.7c-17.6,2.2-35.5-0.6-52.1-6.5
	c-21.3-7.7-40.3-20.3-60.1-31c-10.4-5.6-21.2-10.9-32.9-13.2c-5.3-1.1-10.7-0.5-15.8,0.8c9-10.6,19.5-19.9,31.3-27.2
	c8.2-5.1,16.6-10.1,25.8-13.2c4.3-1.6,9.6-0.7,12.8,2.7c3.7,3.9,5.8,8.9,8.5,13.5c8.6,14.8,20.7,27.9,35.6,36.5
	c13.8,7.9,30.1,11.7,45.9,9.7c15.6-1.8,30.4-9,42.2-19.3c13.5-11.7,23.4-27.2,30.2-43.7c2.4-5.5,4.1-11.4,8-16.1
	c4-4.7,10.6-5.8,16.5-5.7c6,0.2,12.1,0.8,18,2.1c3.8,0.9,7.4,3.1,9.5,6.5c4.2,6.6,6.4,14.1,10.6,20.6c7.9,12.7,20.2,23.4,35,26.9
	c13.4,3.3,27.9,1.3,40.2-4.7c6.1-2.9,12.4-7.2,19.5-6c8.5,1.8,14.7,8.7,19.1,15.8c4.1,6.5,6.2,13.9,7.5,21.4
	C703.1,553,694.5,552,685.9,552.3z"/>
<path class="st0" d="M431,343.9c16-4.4,33.5-1.2,47.5,7.6c20.9,12.9,34.3,35.3,40.6,58.6C469,422,418.8,433.9,368.7,445.8
	c-0.4-25.8,6.4-52.3,21.9-73.2C400.5,359,414.4,347.9,431,343.9z"/>
<path class="st0" d="M514.1,367.1c20.4,4.3,40.1,11.6,58.6,21c7.4,3.7,14.4,8.2,21,13.1c-11.9,18.2-17,40.4-15.4,62
	c-14.2-2.5-28.5-3.9-42.8-5.6c1.9-20.2-0.4-40.9-7-60.2C524.8,386.8,520,376.7,514.1,367.1z"/>
<path class="st0" d="M630.1,393c12-4.2,25.9-1.7,35.8,6.1c12.2,9.4,19,24.2,21.5,39.2c-28.4-7.2-56.9-14.3-85.3-21.5
	C608.6,406.2,618.2,397,630.1,393z"/>
<path class="st0" d="M326,492.3c6.3-24.4,13.8-49.1,28.5-69.8c-1.2,18.5,0,37.2,5.1,55C348.3,482,337,486.9,326,492.3z"/>
<path class="st0" d="M211.5,435.6c1.4-3,2.9-6.5,6.2-7.8c4.1,3.7,7.5,8.1,11.6,11.8c14.4,13.9,31.9,24.6,50.8,31.3
	c9.2,3.4,18.7,6.1,28.2,8.8c-1.7,7-3,14.8-8.4,20.1c-3.4,3.3-8.1,4.7-12.7,5c-23.5,2-47.7-0.9-69.5-10.4c-5.2-2.4-11.3-4.5-14.3-9.7
	c-2-4.9-1.8-10.5-1.3-15.7C203.4,457.4,206.8,446.2,211.5,435.6z"/>
<path class="st0" d="M229.3,514.3c2.4-0.9,5-2.4,7.6-1.5c10.4,2.3,21,3.9,31.6,4.9c-15.7,7.7-29.3,19.1-40.5,32.3
	c-1.7,2-4.8,5.4-7.3,2.5c-6.3-7-10.6-15.7-13.5-24.7c-0.8-2.2,1.6-3.5,3.1-4.6C216.3,519.7,222.8,517.1,229.3,514.3z"/>
<path class="st0" d="M300.4,549.5c10-2.1,20.1,1,29.3,4.7c15.2,6.5,28.7,16.2,43.4,23.8c17.8,9.6,36.8,17.3,56.9,20
	c20.8,3,42.3-0.9,61.2-9.9c15.3-7.4,29.7-16.5,44.8-24.2c12.1-6,25.6-11.1,39.3-9.3c17.1,2.5,32,12.2,48.8,15.9
	c11.3,2.6,23.2,2.3,34.5-0.1c12.6-2.6,25.3-6.7,38.4-5.2c5.2,0.5,10.5,2.8,13.6,7.2c4.2,5.6,5.4,12.8,5.2,19.6
	c0,19.5-7.1,38.3-16.9,54.9c-15.8,26-39.7,46.4-66.5,60.5c-17.5,10.1-36.4,17.5-56,22.2c-20.3,4.7-40.9,8.2-61.8,8.9
	c-19.8,0.6-39.6-0.2-59.2-3.2c-35.2-6.2-70.1-15.5-102.1-31.7c-12.4-6.5-24.6-13.6-35.2-22.8c-14-12.1-25.3-27.2-33-44
	c-6.2-13.4-10.3-28-10.9-42.8c-0.2-10.2,0.9-20.8,6.1-29.7C284.5,556.8,292,551.3,300.4,549.5z"/>
<path class="st1" d="M369.4,457.3c50.8-12,101.5-24.1,152.3-36.1c3.6,21.5,2.3,43.9-4.8,64.6c-5.4,15.9-14.4,30.9-26.9,42.1
	c-10,9-22.6,15.4-36,17.1c-17.5,2.4-35.4-4-48.7-15.2C383.8,511.9,372.3,484.5,369.4,457.3z"/>
<path class="st1" d="M596.7,427.2c30.6,7.7,61.2,15.4,91.8,23.1c-0.2,16.6-5,33.5-15.2,46.9c-7.2,9.5-17.4,17.2-29.2,19.5
	c-11,2.4-22.9-1-31.6-8c-9.6-7.7-15.9-19-19.1-30.8C589,461.2,590.3,443.1,596.7,427.2z"/>
</svg>
