<svg version="1.1" xmlns="http://www.w3.org/2000/svg" xmlns:xlink="http://www.w3.org/1999/xlink" x="0px" y="0px" viewBox="0 0 1000 1000" style="enable-background:new 0 0 1000 1000;" xml:space="preserve">
<style type="text/css">
	.st0{fill:#EDEDED;}
	.st1{fill:#000000;}
</style>
<path class="st1" d="M485.6,362.9c19.8-1.5,39.9-1.5,59.4,3c18.7,3.8,36.6,11,53.7,19.5c26.6,13.5,49.8,34.9,63,61.9
	c9.1,18.4,13.5,38.8,15.6,59.1c3,26.9,1.5,54.2-3.6,80.7c-5.6,28.7-15.9,57.1-34.2,80.2c-10.6,13.5-24,24.6-38.6,33.3
	c-14.3,8.8-30.5,14.1-46.8,17.8c-16.1,3.3-32.5,5.9-49,6.1c-34.5,0.1-69.8-6-100.6-22.2c-26.1-12.9-49-33-63-58.8
	c-10.7-20.2-15.9-42.7-19.1-65.2c-2.3-18-2.7-36.3-1.4-54.4c2.7-34.5,15.8-68,36.4-95.8c18.7-25.2,45.4-43.9,74.9-54.1
	C449.4,368.2,467.4,364.5,485.6,362.9"/>
<path class="st0" d="M481.5,380.8c38.1-3.9,78,1.4,112.1,19.7c15,7.8,28.7,18.2,39.6,31.2c8.7,10.1,15,22,19.9,34.3
	c8,19.6,11.3,40.9,11.8,62c1.1,24.4-2,49-8.7,72.4c-7.9,28-23.1,54.4-45.3,73.5c-12.2,10.1-26,18.4-40.8,24
	c-39.1,13.8-82.4,16.2-122.6,5.7c-31.1-8-61.1-24.5-80.7-50.4c-10.8-14-18.6-30.3-23.4-47.4c-6.2-24-9.5-48.9-7.9-73.8
	c1.2-20.3,5.3-40.5,13.2-59.2c6-14.2,13.5-27.9,23.5-39.7c19.1-22.9,45.9-38.9,74.8-46.3C458.2,383.7,469.9,382,481.5,380.8"/>
<path class="st1" d="M496.5,513.6c-6.5,1.3-8.8,10.5-3.7,14.6c4.4,4.4,12.8,1.7,13.9-4.4C508.4,518,502.3,511.9,496.5,513.6z"/>
<path class="st1" d="M549.4,515.6c-6.4,1.3-8.8,10.5-3.6,14.6c4.4,4.3,12.7,1.7,13.9-4.4C561.4,520,555.3,513.9,549.4,515.6z"/>
<path class="st1" d="M486.2,566.2c-2.5-9.1-8.3-17-15.6-22.8c-12-9.5-27.9-14.3-43-11.6c-8,1.5-15.8,5.2-21.2,11.4c-6,6.9-8.6,16.6-6.7,25.5
	c2.2,11.3,9.8,21,19.2,27.5c11.6,8,26.3,11.8,40.3,9.3c9.4-1.7,18.5-6.8,23.7-15C487.4,583.5,488.4,574.3,486.2,566.2z"/>
<path class="st1" d="M632.4,570c-0.5-7.9-5.4-15.2-12-19.4c-8.7-5.7-19.8-7.1-29.9-4.9c-10.1,2.1-19.6,7.6-25.7,16c-4.5,6.4-6.9,14.7-4.7,22.3
	c2,7.8,8.1,14.2,15.4,17.5c16.4,7.6,37.3,2.7,49.3-10.7C629.8,585.2,633,577.7,632.4,570z"/>
<path class="st1" d="M491.4,613.7c-5.8,2.3-6.7,11-1.5,14.5c5,4.2,13.4,0.2,13.5-6.2C504.1,615.9,496.9,610.7,491.4,613.7z"/>
<path class="st1" d="M541.5,615.7c-6.1,1.5-8.2,10.1-3.5,14.3c4.3,4.6,12.8,2.2,14.1-3.9C554.1,620,547.5,613.6,541.5,615.7z"/>
<path class="st1" d="M490.6,642.7c-6,1.5-8.3,10-3.6,14.2c4.2,4.6,12.8,2.2,14.2-3.9C503.1,647,496.5,640.6,490.6,642.7z"/>
<path class="st1" d="M538.2,647.2c-5.8,2.5-6.5,11.3-1.2,14.6c4.8,3.7,12.7,0.2,13.2-5.8C551.6,649.7,544,644,538.2,647.2z"/>
<path class="st1" d="M486.4,672.7c-5.7,2.3-6.6,11-1.5,14.5c4.9,4.1,13.3,0.3,13.5-6.1C499.2,674.9,491.9,669.7,486.4,672.7z"/>
<path class="st1" d="M537.4,674.7c-5.8,2.3-6.7,11-1.5,14.5c5,4.2,13.4,0.2,13.5-6.2C550.2,676.9,542.9,671.7,537.4,674.7z"/>
</svg>
