<svg version="1.1" xmlns="http://www.w3.org/2000/svg" xmlns:xlink="http://www.w3.org/1999/xlink" x="0px" y="0px" viewBox="0 0 1000 1000" style="enable-background:new 0 0 1000 1000;" xml:space="preserve">
<style type="text/css">
	.st0{fill:#FF71CE;}
	.st1{fill:#EDEDED;}
	.st2{fill:#000000;}
</style>
<path class="st2" d="M380.6,303.5c4.7-2.9,11.3-0.8,14,3.9c4.6,7.8,9,15.7,13.6,23.5c12.6-6.7,27.2-10,41.5-8.2c16.7,1.9,32.2,10,44.6,21
	c12.6,10.9,22,25.1,28.8,40.2c15.5,33.2,17.4,72.5,5.2,107.1c-6.5,18.3-17.2,35.4-32.2,48c-11.6,9.8-26,16.6-41.2,18.4
	c-15.2,1.9-30.9-1.6-44.3-9c-13.6-7.5-24.9-18.7-33.4-31.6C367,501.5,360.8,483.9,357,466c-4.3-23.4-3.9-47.9,2.3-70.9
	c-9.2-2.5-18.5-5.1-27.7-7.7c-4.3-1.1-8.2-4.6-8.5-9.3c-0.5-4.4,2.3-8.8,6.5-10.2c2.9-1.1,6.1-0.5,9,0.4c9.4,2.6,18.7,5.3,28.1,7.9
	c1.5-2.8,3-5.6,4.7-8.4c-12.2-11.2-24.6-22.1-36.9-33.3c-4-3.5-4.9-10-1.5-14.1c3.6-4.8,11.1-4.9,15.2-0.8
	c11.7,10.5,23.4,21,35,31.6c2.6-2.7,5.2-5.5,8-8.1c-4.9-8.6-10-17.1-14.7-25.8C374.3,312.5,375.9,306.1,380.6,303.5"/>
<path class="st2" d="M670.2,353.1c2-3.5,5.7-6.1,9.9-5.8c5,0.1,9.5,4.6,9.4,9.7c0.2,3.6-2,6.7-3.7,9.7c-3.8,6.2-7.3,12.7-11.3,18.8
	c2.1,1.9,4,4.1,6.5,5.4c9.8-8.8,19.3-17.8,29-26.6c2.6-2.5,6.4-4.2,10-3.3c4.6,0.8,8.2,5.3,7.9,10c0.1,3.6-2.3,6.6-4.9,8.9
	c-9.9,9.1-19.7,18.2-29.7,27.2c1.1,2.2,2.2,4.5,3.4,6.7c8.5-2.5,16.9-5,25.4-7.4c4.9-1.5,10.7,0.9,12.6,5.8
	c2.5,5.5-1.3,12.1-6.9,13.6c-8.3,2.6-16.6,4.9-24.9,7.3c2.6,16.7,1.6,34.1-3.7,50.1c-6.4,17.5-19.2,32.8-35.9,41.2
	c-11.8,5.8-25.6,7.5-38.4,4.2c-13.1-3.1-24.2-12-32.1-22.7c-9.7-13.6-14.5-30.4-14.6-47c-0.9-21.9,5.2-44.6,18.7-62.1
	c13.4-17.6,37.7-25.1,58.9-19.9C660.7,369.1,665.4,361,670.2,353.1"/>
<path class="st0" d="M658.5,540.8c8.3-1.5,17.1-1.3,25,1.9c4.3,1.8,8.8,5.2,9,10.3c0.2,5.1-3.6,9.2-7.6,11.9
	c-8.2,5.3-18.3,7.2-28,7.2c-7.1-0.5-15-1.7-20.2-7.1c-3.6-3.6-3.4-9.7-0.2-13.4C642,545.2,650.5,542.3,658.5,540.8z"/>
<path class="st0" d="M378.5,563.8c13.1-1.6,26.9-0.1,38.7,6c4.7,2.6,9.6,6,11.5,11.3c1.8,4.6,0,10-3.6,13.2
	c-5.8,5.2-13.6,7.1-21.1,7.9c-12.9,1.1-26.5-0.7-37.8-7.2c-5-3-10.1-7.6-10.4-13.8c-0.3-4.3,2.2-8.3,5.6-10.8
	C366.3,566.5,372.5,564.7,378.5,563.8z"/>
<path class="st1" d="M443.6,341.9c13.8-0.6,27.4,4,38.6,11.9c14.2,9.9,24.7,24.5,31.4,40.3c9.2,21.5,11.9,45.5,8.7,68.6
	c-2.8,19.7-10.1,39.1-22.7,54.8c-10.7,13.4-25.7,24-42.8,26.9c-12.8,2.5-26.3,0.1-37.9-5.7c-14.6-7.3-26.2-19.5-34.3-33.5
	c-19.6-34-21.4-77.3-5.7-113.1c8.2-18.6,22-35.6,40.7-44.4C427.2,344.4,435.4,342.2,443.6,341.9"/>
<path class="st1" d="M634.5,391.7c9.5-1.8,19.7-0.2,27.9,4.9c11.1,6.8,18.5,18.4,22.4,30.6c5.9,18.5,4.3,39.1-3.7,56.8
	c-5,10.9-12.8,20.9-23.1,27.2c-9.1,5.6-20.6,7.9-31,4.9c-13.1-3.5-23.3-14.1-29.1-26c-9.2-19.2-9.2-42.2-1.6-61.9
	C602.9,411.3,616.3,395.7,634.5,391.7"/>
<path class="st2" d="M452.7,428.8c7.7-3.1,16.6-3,24.1,0.4c9.1,3.9,16.1,11.8,20.1,20.8c-10.7,6.6-21.5,13.2-32.1,19.9c-2.4,1-2.9,4.6-0.5,5.9
	c10.9,5.8,22.2,11,33.1,16.9c-4.1,8.9-10.4,17.1-19.4,21.5c-7.8,4.1-17.3,4.8-25.5,1.5c-11.1-4.2-19.2-14.1-23.1-25.1
	c-4.6-12.8-3.9-27.2,1.4-39.7C435.1,441.2,442.6,432.5,452.7,428.8z"/>
<path class="st2" d="M628.7,447.7c5.2-5.7,13.4-9.4,21.2-7.3c7.7,1.7,13.5,7.9,16.7,14.9c-7.2,4.6-14.5,9-21.6,13.6c-1.9,1.1-1.5,4,0.4,4.8
	c6.9,3.6,13.9,6.9,20.8,10.5c-3.3,7.2-9.3,13.6-17.2,15.6c-8.3,2.3-17.3-1.6-22.4-8.3C617.1,478.8,618.1,459.4,628.7,447.7z"/>
</svg>
