<svg version="1.1" xmlns="http://www.w3.org/2000/svg" xmlns:xlink="http://www.w3.org/1999/xlink" x="0px" y="0px" viewBox="0 0 1000 1000" style="enable-background:new 0 0 1000 1000;" xml:space="preserve">
<style type="text/css">
	.st0{fill:#FFD400;}
	.st1{fill:#000000;}
</style>
<path class="st1" d="M381.6,444.5c34.8-38.3,86.5-61.4,138.5-59.4c20.2,0.6,40.2,5.3,59,12.7c13.8,5.4,26.8,12.7,38.4,21.9
	c11.5,9.1,21.1,20.5,29.2,32.6c8.5,13.3,15.6,27.6,19.9,42.9c6.2,20.3,9.1,41.6,9.1,62.8c-0.1,24.6-3.4,49.5-12.2,72.6
	c-6,14.8-13.1,29.3-23.1,41.9c-9.1,11.5-19.5,22.2-32,29.9c-2.6,1.8-6.6,1.1-8.1-1.8c-1.7-2.7,0-6.1,2.5-7.6
	c5.9-4,11.6-8.4,16.5-13.5c2.5-2.6,5.2-5.1,6.4-8.7c-11.9,2.9-23.6,6.2-35.7,7.9c-29.1,4.6-58.7,6.4-88.1,4.9
	c-18.2-0.4-36.3-2.7-54.1-6c-19.9-3.6-39.9-7.6-59-14.7c-1.5-0.5-3-0.8-4.6-0.7c0.8,4.6,4,8.2,6.7,11.8c7.9,10.1,18.2,18,28.6,25.6
	c3.5,2,3.3,8.1-0.6,9.5c-3.1,1.5-6.1-0.8-8.6-2.3c-22-14.2-39.1-34.9-51.4-57.7c-10-18.6-15.5-39.3-18-60.1
	c-2.6-20.2-1.8-40.7,1.4-60.7C347.1,497.4,360.4,467.6,381.6,444.5 M506.5,396.8c-37.7,1.8-74.3,17.2-102.5,42.1
	c-5.6,5.2-11.7,10.6-13.9,18.1c-1.6,4.6-0.3,10.2,3.7,13.1c4.4,3.2,10.1,3.7,15.3,5c49.1,11,99.7,14.4,149.9,14.5
	c21.7-0.3,43.5-1.7,65.1-3.8c5.5-0.9,11.7-0.7,16.3-4.4c3.7-3.2,3-8.8,1.1-12.8c-6.9-14.5-16.8-27.6-29.1-38
	c-15.2-13.1-33.8-21.6-52.9-27.3C542.3,398.2,524.4,396,506.5,396.8"/>
<path class="st0" d="M374.4,483.6c6.2-1.6,12.5,0.6,18.7,1.7c19.5,4.3,39.1,8,58.9,10.6c23.5,3.8,47.3,5.1,71.1,6.4
	c15,0.8,30,0.6,44.9,0.1c25.1-0.1,50.2-2.4,75-6.3c3-0.4,6.5-0.9,9.2,1c3,2.3,4.3,6,5.3,9.4c2.8,9.9,3.7,20.2,5.1,30.4
	c1.9,14.4,1.8,29.1,0.7,43.6c-1.1,16.9-5.1,33.6-11.5,49.3c-2.1,5-4.6,9.8-7.8,14.2c-5,6.7-13.3,9.6-20.9,12.2
	c-15.4,4.8-31.2,7.8-47.1,10.4c-27.1,4.1-54.7,3.9-82,2.8c-20.6-1.3-41-4.4-61.1-8.7c-17.1-3.7-33.9-9.1-49.6-16.8
	c-7.6-3.9-15.1-8.9-19.8-16.2c-5-7.7-7.3-16.6-9.1-25.5c-3.4-17.8-4-36-2.6-54c1-13,3.2-25.9,7.1-38.4c2.1-6.6,4.1-13.2,7.7-19.2
	C368.4,487.5,370.9,484.6,374.4,483.6"/>
<path class="st1" d="M443.6,518.7c15.4-2.1,31.7,1.2,44.6,10c5.1,3.4,10.3,7,13.9,12.1c2.8,3.9-0.2,10.1-5,10.2c-3.3,0.4-5.7-2.1-7.9-4.2
	c-8.7-8.3-20.1-14-32.2-14.8c-15.5-1.4-31.6,4.4-42.1,16c-15,16.2-16.8,44.6-0.5,60.6c6.5,6.5,15.4,10.5,24.6,11.7
	c9.4,1.3,19.3-1.4,26.4-7.8c6.6-6,10.7-14.6,11.8-23.4c1.5-9.6-3.1-19.8-11.2-25c-5.5-3.5-12.5-5.2-18.9-3.2
	c-7.6,2.1-13.5,9.3-14.1,17.2c-0.3,4.4,2.6,9.2,7.1,9.9c3.8,0.8,9-1.4,8.2-6c-0.6-5.1,5.7-9.1,10-6.1c5,3.3,4.2,10.6,1.8,15.3
	c-5.4,10.7-20.7,13.6-30.4,7.2c-6.7-4.3-10.7-12.3-10.3-20.2c0.3-14.8,12.1-28.3,26.6-30.9c16.1-3.1,33.3,5.8,40.6,20.3
	c6.4,12,5.1,26.7-0.3,38.8c-4.9,11-14,20.4-25.4,24.7c-15,5.9-32.4,3.4-46-4.9c-13.1-7.7-22.3-21.4-24.8-36.3
	c-2.4-15.4,0.8-31.8,9.8-44.7C409.9,530.5,426.3,520.9,443.6,518.7z"/>
<path class="st1" d="M574.3,532.2c11.5-1.6,23.3,0.7,33.8,5.6c13.9,6.6,24.3,19.5,28.9,34c5,16.5,2.4,35.8-8.9,49.1c-15.3,18.7-46.3,22.5-65,6.9
	c-16.5-13.4-19.2-40.3-6-56.9c10.5-14,32.5-17,46.2-6.3c9.5,7,13.2,21.3,7,31.6c-5,9-17.5,13.2-26.7,8.1c-4.8-2.7-8.2-7.9-8.2-13.4
	c0-4.3,5.1-7.8,9-5.5c3,1.3,3.1,5,4.8,7.3c3.2,2.5,8,0.5,9.9-2.7c2.7-4.4,1.4-10.5-2.2-14.1c-5.1-5.1-13.2-6.1-19.9-4.1
	c-8,2.4-13.5,10-15,18c-1,5.8-0.7,12,1.5,17.5c3,7.8,9.9,14,18,16.1c7.6,2.1,15.7,1.6,23.1-1.1c9.2-3.3,16.6-11.1,19.8-20.3
	c2.3-6.4,2.6-13.5,1.8-20.2c-2.3-16.6-15-31.4-31.4-35.6c-11.5-3.6-24.3-2.1-34.9,3.5c-2.8,1.5-5,3.9-8,5c-3.7,1.2-8-2-7.9-5.9
	c-0.1-2.9,2.1-5.1,4.3-6.7C555.8,536.6,565,533.6,574.3,532.2z"/>
</svg>
