<svg version="1.1" xmlns="http://www.w3.org/2000/svg" xmlns:xlink="http://www.w3.org/1999/xlink" x="0px" y="0px" viewBox="0 0 1000 1000" style="enable-background:new 0 0 1000 1000;" xml:space="preserve">
<style type="text/css">
	.st0{fill:#FFFFFF;}
	.st1{fill:#FF002C;}
	.st2{fill:#000000;}
</style>
<path class="st2" d="M499.9,573.1c-9.9-2.7-19.7-5.6-29.5-8.3c-7.9-2.2-15.8-4.5-23.7-6.7c-10.3-2.9-20.7-5.8-31-8.8c-2.9-0.8-6.4-1.6-8.9,0.5
	c-3.3,2.3-3.6,7.5-0.6,10.2c2.6,2.2,6.1,2.6,9.3,3.6c-0.7,7.1-1.5,14.2-0.2,21.3c1.9,11.1,8.5,21.5,18.1,27.6
	c6,3.6,12.9,5.4,19.9,5.3c18.6-0.4,34.3-14.8,40.4-31.7c3.1,0.4,6.2,1.5,9.3,1.2c4.1-0.8,6.2-5.7,4.5-9.4
	C506,574.8,502.7,573.9,499.9,573.1z"/>
<path class="st2" d="M630.3,556.2c-21.9,6-43.7,12.4-65.6,18.5c-2.6,0.8-5.6,1.4-7.4,3.7c-2.2,2.9-1.3,7.8,2.1,9.3c2.6,1.1,5.6,0.4,8.3,0.3
	c3,6.9,7.1,13.6,13.1,18.2c8,6.7,19.3,9.2,29.3,5.9c8.7-2.8,15.5-9.9,18.8-18.2c3.3-7.6,3-16,2.2-24.1c3.3-1.2,7.7-2.7,7.8-6.9
	C639.7,558.2,634.5,554.7,630.3,556.2z"/>
<path class="st0" d="M428.5,567.2c17.4,5,34.9,9.8,52.3,14.9c-3.9,10.2-12.2,19.2-23.1,21.8c-7.3,1.9-15.5-0.3-21-5.5
	C428.4,590.5,425.9,578,428.5,567.2z"/>
<path class="st0" d="M580.4,583.9c12.6-3.6,25.2-7.2,37.8-10.7c1.1,7.3,0.2,15.3-4.7,21.1c-3.8,4.7-10.4,7.1-16.3,5.5
	C589.2,598,583.4,591.3,580.4,583.9z"/>
<path class="st1" d="M464.9,517c1.6-1.9,4.4-3.4,6.7-1.9c2.9,1.9,3,5.7,3.2,8.8c0.3,13.8-1.9,27.4-4.5,40.9
	c-7.9-2.2-15.8-4.5-23.7-6.7c3.2-9.6,7.1-19,11.1-28.3C459.9,525.3,461.7,520.7,464.9,517z"/>
<path class="st1" d="M433.2,612.4c6,3.6,12.9,5.4,19.9,5.3c-1.3,5.4-4.1,10.2-6.4,15.3c-2.3,4.5-4.4,9.2-8.1,12.8
	c-1.6,1.7-4.8,1.6-6-0.5c-1.6-3.1-1.3-6.8-1.2-10.2C431.9,627.5,432.1,619.9,433.2,612.4z"/>
</svg>
