<svg version="1.1" xmlns="http://www.w3.org/2000/svg" xmlns:xlink="http://www.w3.org/1999/xlink" x="0px" y="0px" viewBox="0 0 1000 1000" style="enable-background:new 0 0 1000 1000;" xml:space="preserve">
<style type="text/css">
	.st0{fill:#D15B31;}
	.st1{fill:#8D3D21;}
	.st2{fill:#FFD400;}
	.st3{fill:#AAAAA9;}
	.st4{fill:#F43422;}
	.st5{fill:%%ST5%%;}
	.st6{fill:%%ST6%%;}
	.st7{fill:#000000;}
</style>
<path class="st7" d="M951.5,686.4c-2.7-9.3-8.4-18-17-22.8c-10-6.8-22.5-7.1-34.2-7.4c-20.7-11.1-43.8-17.9-67.3-18.7
	c-34-1.2-68.8,6.7-97.9,24.8c-9.8,6.2-19,13.4-26.6,22.3c-6.2,7.4-11.1,16.6-10.8,26.5c0.1,7.9,5.4,15.7,13,18.1
	c7,2.2,14.5,0.6,21.5-0.9c14.6-3.5,29-9,44.3-8.2c-1.3,8.9-3.8,18-2.7,27.1c0.6,5.6,4.9,9.8,9.5,12.6c-4.6,17-9.1,34-14.3,50.9
	c4.6,4.5,8.5,9.7,11.1,15.6c0.7,1.6,1.4,3.3,2.1,4.9c5.5-1.1,11.1-1.6,16.7-0.8c4.7,0.7,9.2,1.9,13.6,3.8c0.8-5.4,1.5-10.9,2.4-16.3
	c0.8-4.6,1.5-9.2,2-13.8c1.4-11.9,3.3-23.6,4.9-35.5c3.1-0.5,6.4-0.9,9-2.7c5.1-3.4,7.6-9.3,10-14.7c10,10.2,15.2,24,23.8,35.3
	c3.9,5,8.4,9.9,14.3,12.7c7.4,3.5,16.1,3.3,23.6,0.5c9.6-3.4,17.6-10.2,24.1-17.9c7.8-9,14.1-19.2,18.9-30.1
	C954.4,731.3,957.8,707.9,951.5,686.4z"/>
<path class="st0" d="M910.2,672c5-0.9,9.9,1.4,14.4,3.3c7.2,3.2,12.6,10,14,17.8c2.3,13,0.1,26.4-3.5,38.9
	c-5.3,17.8-13.4,35.3-26.1,49c-3.3,3.2-7.1,7-12,7c-4.6-1.2-7.4-5.6-9.5-9.5c-3.8-6.6-4.3-15.1-0.7-21.9
	c4.4-8.4,10.3-15.9,14.5-24.4c8.2-16,10.3-34.7,7.5-52.4C908.7,677.4,907.5,673.6,910.2,672z"/>
<path class="st1" d="M714.8,702.7c19.8-5.9,40.5-8.5,61.1-8.3c18.2-0.5,36.4,3.8,52.8,11.7c17.6,8.3,31.8,22,44.9,36.1
	c2.4,2.7,5.5,5.1,6.4,8.7c-0.7,3.4-2.7,6.3-3.4,9.7c-1.3,6.1,0.5,12.5,3.8,17.8c1.5,2.6,3.8,5,3.9,8.1c-8.3-5.7-12.5-15.2-17.4-23.6
	c-13.3-24.6-35.8-44.5-62.4-53.3c-13.7-4.6-28.3-4.3-42.5-2.8c-14,1.4-27.8,4.8-41.6,7.6c-2.3,0.5-4.7,0.2-7-0.3
	C713.4,710.3,714,706.5,714.8,702.7z"/>
<path class="st2" d="M904,686.9c-0.2-5.8-2.1-11.6-6-15.8c-3.2-3.5-7.7-5.2-11.8-7.1c-21.9-9.9-46.2-15.7-70.3-13.5
	c-13.8,1.2-27.7,3.5-40.8,8.3l-0.2-0.2c-21.9,7.7-42.4,20.5-57.4,38.4c10.3-2.5,20.7-4.1,31.2-5.5c12.2-1.2,24.5-2.1,36.8-1.5
	c20.2,2.1,40.5,7.7,57.7,19c12.8,8.2,23,19.7,33.8,30.2c1.9,1.8,4.4,3.7,7.2,3.1c5.1-0.8,8-5.6,10.5-9.6
	C902,718.7,904.8,702.6,904,686.9z"/>
<path class="st3" d="M788.1,716.3c2.1,0.2,4.3,0.4,6.4,0.6c-0.5,6-1.7,12-0.8,18.1c0.5,3.8,3.4,7.4,7.3,8.2c1.6,0.4,3.4-0.6,3.6-2.2
	c2-6.8,3.6-13.6,5.5-20.4c2.1,0.9,4.3,1.7,6.4,2.6c-1.2,7.3-3.5,14.5-3.9,21.9c2,2.6,5.8,1.9,8.6,1.1c5.7-2.6,7.2-9.4,9.2-14.7
	c1.5,1.2,3,2.4,4.5,3.6c-2,6-3.4,12.5-7.5,17.5c-2.5,3.2-7,4-10.9,3.2c-2-0.1-5.7-1.5-5.8,1.7c-4,24.3-7.8,48.6-11.8,73
	c-5.6-0.9-11.2-0.3-16.7,0.8c-0.7-1.7-1.3-3.3-2.1-4.9c5.8-24.6,13.4-48.7,19.5-73.2c-5-2-11.9-3.1-13.7-9.1
	C783.2,734.8,786.5,725.3,788.1,716.3z"/>
<path class="st4" d="M775,658.7c13.1-4.8,26.9-7.1,40.8-8.3c-2.5,8.6-9.4,16.6-18.7,17.7C788.5,669.6,780.3,665.2,775,658.7z"/>
<path class="st4" d="M863.4,663.6c11.4-4.1,25,5.3,25.8,17.3c0.4,5.8-3.1,11.5-8.6,13.5c-11.8,4.3-26-5.8-25.8-18.4
	C854.6,670.5,858.3,665.4,863.4,663.6z"/>
<path class="st4" d="M822.3,670.5c9-2.2,19.9,4.1,21.3,13.5c0.8,5.8-5.3,9.9-10.6,9.5c-7.4-0.3-15.2-5.1-17.1-12.5
	C814.6,676.4,817.7,671.5,822.3,670.5z"/>
<path class="st4" d="M757.3,676.3c5.1-3.9,12.5-3.8,17.8-0.3c5.1,3.1,8.2,8.5,10.3,14c-12.3-0.6-24.6,0.3-36.8,1.5
	C750.1,685.8,752.3,679.8,757.3,676.3z"/>
<path class="st4" d="M877.4,707.6c5.1-1.7,12-0.7,14.7,4.5c2.3,5.7-1.8,11.8-6.9,14c-5.4,2.8-13.7,2.1-16.6-3.9
	C865.9,715.8,871.4,709.3,877.4,707.6z"/>
<path class="st5" d="M854.7,833.5c-7.2-15-21.4-26.4-37.6-30.6L817,804c-0.6,4.6-1.3,9.2-2,13.8c-0.9,5.4-1.6,10.8-2.4,16.3
	c-4.3-1.9-8.9-3.1-13.6-3.8c-5.6-0.9-11.2-0.3-16.7,0.8c-0.7-1.7-1.3-3.3-2.1-4.9c-2.6-5.9-6.5-11.1-11.1-15.6
	c-10.9-10.8-28.5-11.9-42-5.5c-9.9,4.8-17.2,14-20.5,24.5c-5.9,18.5-7.8,38.2-6.5,57.6c0.9,13.1,1.8,26.6,7.3,38.8
	c5,12.9,16.9,22.8,30.6,25.1c7.4,1.7,15.2,0.1,22.1-2.9c10.7,10,25.2,16.9,40.1,15.5c11.8-1.2,23.4-7.9,28.6-18.8
	c3.2-6.3,4-13.7,2.7-20.6c7.9-3.6,13.7-10.6,17.5-18.2c4.3-8.6,4.6-18.6,2.4-27.8C859.2,864.9,861.2,847.7,854.7,833.5z"/>
<path class="st6" d="M732.8,818.8c7.2-4.7,16.7-2.7,23.3,2.1c8.8,6.5,15,16.4,17,27.2c1.5,8.9,1.7,18.3-1.1,27
	c-1.4,4.7-4.7,9.7-10,10.2c-6.1,0.5-11.4-3.9-14.4-8.8c-2.7-3.6-3.3-8.1-4.7-12.3c-1.8-4.3-8.6-3.5-9.5,0.9
	c-0.7,5.4,1.7,10.6,4.2,15.3c4.4,8,12.3,14.4,21.6,15.5c-6.1,6.4-9.5,15.2-8.9,24c0.2,3,1.2,5.9,1.5,9c-1.1,3.3-4.7,5.1-8,5.7
	c-7.7,0.8-15.5-3.4-19.6-9.9c-6-9-7.2-20.2-8.3-30.7c-1-16.1-1.7-32.5,1.4-48.4C719.6,835.4,723.8,824.7,732.8,818.8z"/>
<path class="st6" d="M815,817.8c7.2,2,14.3,5.2,19.7,10.5c7.2,6.7,11.7,16.8,10.2,26.8c-1.7,13.1-13.4,24.4-26.8,24.6
	c-12,0.1-23.2-5.4-33.1-11.8c1.4-8.6,0.1-17.2-0.5-25.8c9.5-3.2,19.9-0.7,28.2,4.3c2.4,1.3,5.1,3.4,8,2.3c3.3-1,4.3-5.8,1.9-8.2
	c-2.8-2.9-6.5-4.6-10-6.4C813.3,828.6,814.1,823.2,815,817.8z"/>
<path class="st6" d="M772.6,892.3c4.5-3.5,7.6-8.4,9.5-13.8c9.4,5.7,19.8,10.4,30.9,11.6c9.3,1,18.7-1.6,26.3-6.9
	c1.6,8.6,0.6,18.7-5.9,25.1c-7.4,7-18.5,8.1-28.1,6.6C791.9,912.3,779.7,903.9,772.6,892.3z"/>
<path class="st6" d="M762.8,926.9c-3.4-7.9-2-17.7,4.2-24c12.2,15.3,32.2,25.4,52,22.8c0,8.4-5.7,16-13.4,19.1
	C789.7,951.3,769.4,942.8,762.8,926.9z"/>
</svg>
