<svg version="1.1" xmlns="http://www.w3.org/2000/svg" xmlns:xlink="http://www.w3.org/1999/xlink" x="0px" y="0px" viewBox="0 0 1000 1000" style="enable-background:new 0 0 1000 1000;" xml:space="preserve">
<style type="text/css">
	.st0{fill:#2C2F2F;}
	.st1{fill:#DADBDB;}
	.st2{fill:#000000;}
</style>
<path class="st2" d="M759.3,454.2c2.4-0.8,5.2-1.9,7.7-0.5c2.3,1.1,3.4,3.7,3.6,6.2c0.4,5-0.1,10.1-0.6,15.1c-1.3,12-2.4,24-4,36
		c-0.5,4-1.2,8.2-3.6,11.5c-1.7,2.4-4.5,3.7-7.2,4.7c-29.4,9.8-59.2,18.5-88.8,27.7c4.7,11.5,8.3,23.6,8.6,36.1
		c0.2,15.7-2.3,31.9-10.7,45.4c-8,12.5-20.4,23-35.2,25.8c-14.7,3.1-29.4-1.5-43.6-4.7c-14-3-28-7.1-42.4-6.9
		c-22.5-0.6-44.6,4.5-65.9,10.9c-14.1,4.3-28.3,8.7-43,10.4c-19.7,2.7-40.6,0.1-58-10c-14.3-8.4-25.6-22-31.6-37.4
		c-8-21.3-7-45.6,1.4-66.6c-34.7-5.5-69.3-11.4-104-16.8c-2.9-0.4-6-1.9-7.2-4.7c-1.4-3.6-1.2-7.5-1.5-11.2
		c-1-13.7-1.5-27.4-2.3-41.1c-0.3-6.6-0.8-13.3-0.7-19.9c0.1-2.3,0.5-4.8,2.3-6.4c2.1-1.8,5-1.2,7.4-0.6
		c47.5,17,95.6,32.3,143.4,48.6c27.1-23.2,62.3-35.6,97.6-38.6c37.4-3,75.9,2.7,109.8,19.1c13,6.2,25.6,13.3,37.1,22.1
		C671.7,490.2,715.5,472.2,759.3,454.2"/>
<path class="st0" d="M703,491c17.4-7,34.7-14.4,52.4-20.8c-0.7,15.6-2.1,31.3-5.4,46.7c-21.9,7.4-44,14.1-66,21.2
		c-7.6,2.3-15,5-22.7,7c-6.2-10.4-14.5-19.2-22.9-27.7C660,508.5,681.5,499.8,703,491z"/>
<path class="st0" d="M247.2,476.7c42.5,11.8,84.7,25.1,127,37.7c-5.3,6.1-10.7,12.1-15.2,18.8c-3.3,4.5-5.8,9.5-8.7,14.3
		c-33.3-7-66.7-13.8-100.2-20.4C248.4,510.3,247.1,493.5,247.2,476.7z"/>
<path class="st0" d="M491.5,481.7c20.6-1.5,41.5-0.2,61.5,5.4c29.2,8.1,56.6,23.6,77.4,45.6c13.7,14.8,23.8,33.8,25.2,54.2
		c1.2,13.9-1.5,28.5-9.4,40.2c-5.6,8.7-14.2,15.8-24.2,18.7c-10.1,3-20.9,2-31-0.6c-16.7-4.3-33.6-8.4-50.9-9.2
		c-20.6-1.5-41.3,1.5-61.3,6.7c-19.4,5-38.8,10.4-58.8,12.5c-13.6,1.5-28.2-1.3-38.9-10.2c-14.9-11.8-22.6-31.1-22.4-49.9
		c-0.4-17.5,7-34.2,16.6-48.5c16.4-23.5,39.6-42.3,66.2-53C457.5,487,474.4,483.1,491.5,481.7"/>
<path class="st2" d="M634.4,560.6c-6-11.4-14.8-21.2-24.6-29.5C595.9,519.5,580,510.4,563,504c0,0,0,0,0,0c-6.5-2.3-13.2-4.2-19.9-5.6
	c-0.3,0-0.3-0.1-0.5-0.1l-0.2-0.1c0,0-0.1,0-0.1,0c-7.7-2.5-16-3.1-24.1-4c-3,0-5.1-0.6-7.9-0.4l-0.1,0c-0.7,0-1.5,0-2.2,0
	c-8.5,0.1-16.9,0.7-25.3,2l-3.2,0.8c-1.1,0.2-2.1,0.3-3.2,0.5c-25.2,4.3-49.3,15.5-68.4,32.6c-12.4,11.2-23.4,24.3-30.2,39.7
	c-2.2,5.2-3.3,9.5-4.6,15c-0.1,0.3-0.2,0.7-0.3,1.2c-0.2,1.1-0.5,2.5-0.6,3.2c-0.5,6.4-0.2,12.9,1.1,19.2c0.1,0.2,0.1,0.5,0.2,0.7
	c1.7,6.6,4.4,12.9,8.6,18.3c1,1.1,2,2.4,3,3.4l0.4,0.4l0.4,0.4c0.1,0.2,0.4,0.5,0.6,0.8c2.3,2.4,9.2,6.9,14.2,8.6
	c1,0.3,1.9,0.5,2.9,0.7c5.1,1.1,10.4,1.4,15.7,0.7c19.6-2.1,38.7-7.5,57.7-12.4c20.6-5.3,42-8.2,63.2-6.8c18.7,0.8,37,5.2,55,9.9
	c9.7,2.5,20.6,3.1,29.5-2.2c9.4-5.7,15.1-16.1,17.2-26.6C644.5,589.2,641.5,573.7,634.4,560.6z"/>
<path class="st1" d="M482.5,495.8l-3.2,0.8c-1.1,0.2-2.1,0.3-3.2,0.5c-34.4,29.6-69,59-103.5,88.6c-0.2,1.1-0.5,2.5-0.6,3.2
	c-0.5,6.4-0.2,12.9,1.1,19.2c0.1,0.2,0.1,0.5,0.2,0.7c44.8-38.3,89.6-76.6,134.5-114.9C499.4,493.9,490.9,494.5,482.5,495.8z"/>
<path class="st1" d="M543,498.4c-0.3,0-0.3-0.1-0.5-0.1l-0.2-0.1c0,0-0.1,0-0.1,0c-52,44.6-103.8,89.3-155.8,133.9
	c2.3,2.4,9.2,6.9,14.2,8.6c1,0.3,1.9,0.5,2.9,0.7C456.5,595.5,509.8,549.8,563,504C556.5,501.7,549.8,499.8,543,498.4z"/>
</svg>
