<svg version="1.1" xmlns="http://www.w3.org/2000/svg" xmlns:xlink="http://www.w3.org/1999/xlink" x="0px" y="0px" viewBox="0 0 1000 1000" style="enable-background:new 0 0 1000 1000;" xml:space="preserve">
<style type="text/css">
	.st0{fill:#E94000;}
	.st1{fill:#FF5400;}
	.st2{fill:#000000;}
</style>
<path class="st2" d="M583.7,170.3c-20.7-41-41.3-82-62-123c-1.6-3.1-2.9-6.3-4.9-9.2c-2-2.9-6.3-4.1-9.5-2.6c-2.5,1-3.9,3.5-5.1,5.8
	c-21.8,43.5-43.8,86.9-65.6,130.4c-1.7,3-1.5,6.6,0.2,9.6c22,43.7,44,87.4,66,131c1.3,2.9,4,5.3,7.3,5.4c3.5,0.3,6.6-2.2,8-5.3
	c22-43.7,44-87.4,66-131.1C586.2,177.8,585.7,173.6,583.7,170.3z"/>
<path class="st0" d="M501.4,75.4c1.9-3.8,3.5-7.9,6.6-11c1.2,1.9,2.1,4,2.6,6.2c7,29.6,14.2,59.2,21.1,88.8c0.9,2.4-0.2,5-2.9,5.1
	c-21.6,3-43.3,5.4-64.9,7.7c-2.6,0.1-6.7,0.8-7.6-2.4c-0.3-3.7,1.3-7.2,2.9-10.5C473.3,131.3,487.4,103.3,501.4,75.4z"/>
<path class="st1" d="M514.8,67.3c0.9,1.1,1.7,2.2,2.4,3.4c16.1,32.2,32.4,64.3,48.6,96.5c0.7,1.3,1.5,4.5-0.9,4.3
	c-5.5-0.7-10.7-3-16.1-4.2c-4.7-1.3-11.1-2.3-12.4-8c-6.3-25.2-12.1-50.5-18.2-75.8C517.1,78.2,515.2,72.9,514.8,67.3z"/>
<path class="st1" d="M466.9,176.5c19.4-2.3,38.8-4.7,58.2-6.9c2.2-0.2,5.9-0.5,6.1,2.5c0.4,3-0.2,5.9-0.7,8.8
	c-4.9,28.4-10.2,56.7-15.2,85.1c-1.8,8.7-2.7,17.6-5.2,26.1c-2.9-2.4-4.2-6.1-5.9-9.4c-15.7-31.3-31.5-62.5-47.2-93.8
	c-1.4-3-3.6-7.7-0.2-10.1C459.9,177.1,463.5,176.9,466.9,176.5z"/>
<path class="st0" d="M538.5,170.5c3.3-0.7,6.5,0.8,9.7,1.5c5.9,1.8,12.1,2.7,17.7,5.2c1.8,0.7,1.1,2.9,0.7,4.3
	c-2.2,6.2-5,12.3-8,18.1c-10.6,21-21.2,42.1-31.8,63.1c-3.1,5.9-5.8,12.1-9.2,17.8c0.1-4.9,1.3-9.6,2.1-14.4
	c5.1-28.4,10.3-56.8,15.4-85.3C535.8,177.4,536,173.3,538.5,170.5z"/>
</svg>
