<svg version="1.1" xmlns="http://www.w3.org/2000/svg" xmlns:xlink="http://www.w3.org/1999/xlink" x="0px" y="0px" viewBox="0 0 1000 1000" style="enable-background:new 0 0 1000 1000;" xml:space="preserve">
<style type="text/css">
	.st0{fill:#EDEDED;}
	.st1{fill:#959898;}
	.st2{fill:#000000;}
</style>
<path class="st0" d="M412.1,489.4c11.3-4.3,24.1,0,32.6,7.9c12.8,11.7,19.9,28.2,24.3,44.7c5,19.6,6,40.1,3.5,60.2
	c-1.6,11.3-4.2,22.7-9,33.1c-3.5,3.3-6.2,7.3-10.2,10.1c-14.6,11.3-36.8,9.8-50.5-2.1c-7.9-6.8-13.3-15.9-17.6-25.3
	c-6.6-14.4-9.6-30.2-10.6-45.9c-0.2-5.6-0.8-10.5,0.2-16.2c0-0.1,0-0.1,0-0.1c0,0,0-0.1,0-0.1c0-0.1,0-0.1,0-0.2c0-0.1,0-0.3,0-0.4
	c0-0.3,0-0.4,0-0.6c0-0.1,0-0.2,0-0.3c2-14.2,5.7-28.5,12.7-41.1C393.2,502.9,401.2,493.5,412.1,489.4"/>
<path class="st0" d="M602.9,510.9c7.8-4.9,18.2-4.7,25.9,0.3c9.4,6,14.8,16.3,18.3,26.5c5.4,16.4,6.1,34,4.3,51.1
	c-2.2,17.1-6.9,34.4-16.4,49c-4.1,3.5-8.7,6.7-14,8c-10.1,2.6-21.2,0.9-29.8-5c-11.6-7.8-18.3-21-22-34.1
	c-2.1-18.9,0.1-38.4,6-56.5C580.4,535,588.5,519.3,602.9,510.9"/>
<path class="st1" d="M374.6,572c1,15.7,4,31.5,10.6,45.9c4.2,9.4,9.6,18.6,17.6,25.3c13.8,11.9,36,13.4,50.5,2.1
	c4-2.8,6.7-6.8,10.2-10.1c-5.1,12.4-13.4,24.5-25.9,30.3c-9.6,4.6-21.4,3-30.1-3c-12.8-8.8-20.5-23-25.7-37.2
	c-7.7-22.3-10-46.4-7-69.8"/>
<path class="st1" d="M569.1,606.7c3.7,13.1,10.4,26.3,22,34.1c8.6,5.9,19.8,7.6,29.8,5c5.3-1.3,9.9-4.5,14-8
	c-5.9,9.4-14.7,18.3-26,20.4c-9,1.7-18.1-2.6-23.9-9.3C574.8,637.4,570.7,621.7,569.1,606.7z"/>
<path class="st2" d="M428.3,518.6c6.5-2.3,13.6,2.6,14.8,9.1c6.5,28.5,6.8,58.3,2.3,87.1c-0.9,4.8-1.6,9.6-3,14.2c-1.6,4.7-6.4,8.3-11.5,7.7
	c-6.3-0.1-11.1-6.6-10.2-12.7c6.6-30.5,7.1-62.5,0.1-93C420,525.9,423.3,520.3,428.3,518.6z"/>
<path class="st2" d="M616.5,536.7c5.8-2.4,12.2,2.4,12.8,8.4c4.3,27.7,1.1,56.3-7.5,82.9c-1.2,4.8-5.8,8.7-10.9,7.9c-5.5-0.6-9.3-6.7-7.7-11.9
	c8.1-24.6,11.3-51.2,7.1-76.9C609.8,542.7,612.3,538.2,616.5,536.7z"/>
</svg>
