<svg version="1.1" xmlns="http://www.w3.org/2000/svg" xmlns:xlink="http://www.w3.org/1999/xlink" x="0px" y="0px" viewBox="0 0 1000 1000" style="enable-background:new 0 0 1000 1000;" xml:space="preserve">
<style type="text/css">
	.st0{fill:#EDEDED;}
	.st1{fill:#F32525;}
	.st2{fill:#FFFFFF;}
	.st3{fill:#000000;}
</style>
<path class="st3" d="M669.7,563.6c-5.2-16.7-15.8-31-28.2-43c-10.7-11-23.4-19.9-36.8-27.2c-15.7-8.7-32.4-15.7-49.7-20.3
	c-22.3-5.7-45.5-7.6-68.5-6.4c-31.3,1.9-62.5,10.9-88.8,28.2c-11.9,7.8-22.3,17.7-31.3,28.6C354.2,538,345.2,555.4,341,574
	c-3.4,17.2-2.5,35.5,4.1,51.9c5.4,13.1,14.6,24.7,26.2,32.9c15,10.4,33.7,14.8,51.8,14c18.9-0.5,37.1-6.1,55-11.6
	c25.4-7.7,52.2-13.1,78.9-9.7c16.5,2.6,32.6,7.3,49,10.5c12.4,2.4,25.9,1.4,37.1-5c13.8-7.9,24.1-21.5,28.4-36.8
	C676.6,601.8,676.3,581.7,669.7,563.6z"/>
<path class="st0" d="M660.3,570.7c-3.5-11.1-9.3-21.4-16.3-30.7c-12-15.5-27.8-27.6-44.8-37.2c-15.5-8.7-32.2-15.3-49.5-19.4
	c-18.1-4.3-36.9-5.4-55.5-4.5c-26.3,1.3-52.9,6.3-76.2,19.1c-15.8,8.7-30.9,19.5-42.4,33.6c-11.2,13.8-19.2,30.3-22.3,47.9
	c-2.4,15.4-0.6,31.7,6.2,45.9c7.3,13.3,19.1,24.7,33.8,29.3c13.6,4.4,28.3,3.5,42.1,0.5c18.5-4.1,35.7-12.2,54.1-16.7
	c22.4-5.6,45.8-5.8,68.5-2.1c12.5,1.9,24.6,5.8,37,7.9c13,2.5,27,4,39.6-0.8c8-2.9,14.7-8.6,19.1-15.8
	C664.8,611.1,665.8,589.5,660.3,570.7z"/>
<path class="st1" d="M831.8,383.6c56.1-24.4,112.1-48.8,168.2-73.3v17.5c-130.7,56.8-261.6,113.4-392.6,169.6
	c-56.4,24.3-112.9,48.5-169.3,72.7c-3.7,1.4-6.8,4.8-6.6,8.9c-0.1,4.5,4,8.4,8.4,8.5c3.1,0,5.9-1.5,8.8-2.7
	C597.1,521,745.6,457.3,894.3,394.2c35.2-15,70.5-29.9,105.7-45v15.2c-120.1,51.3-240.1,102.9-360.1,154.5
	c-3.7,1.6-7.4,3.2-11.1,4.8c-49.1,21.2-98.4,42.2-147.4,63.5c-2.5,10.5-9.1,20-18.4,25.8c-9.1,5.7-20.4,7.7-30.9,5.2
	c-12.1-2.6-22.7-11-28-22.2c-5.3-10.7-5.4-23.7-0.6-34.5c5.2-12.2,16.7-21.3,29.7-23.8c8.9-2,18.5-0.4,26.6,3.7
	c1.3,0.5,2.8,1.8,4.2,0.8c38.2-16.5,76.5-32.8,114.7-49.3c4.5-2,9.1-3.9,13.6-5.9C672.1,452.6,752.1,418.3,831.8,383.6 M437.5,543.2
	c-16.2,1.9-29.9,16.3-30.3,32.7c-1.2,16.6,11.2,32.7,27.6,35.7c16,3.6,33.6-6,39.2-21.4c-7.7,3.2-15.3,6.7-23.1,9.8
	c-8.3,3.2-18.3,1.9-25-4c-6.5-5.5-9.7-14.8-7.8-23.1c1.6-7.7,7.3-14.1,14.3-17.3c7.5-3.4,15.1-6.5,22.6-9.7
	C449.7,543.3,443.5,542.5,437.5,543.2z"/>
<path class="st2" d="M607.4,497.4c131-56.2,261.8-112.8,392.6-169.6v21.4c-35.2,15-70.5,30-105.7,45
	C745.6,457.3,597.1,521,448.7,584.8c-2.8,1.2-5.6,2.7-8.8,2.7c-4.5-0.1-8.5-3.9-8.4-8.5c-0.2-4.1,2.9-7.5,6.6-8.9
	C494.5,545.9,551,521.7,607.4,497.4z"/>
<path class="st1" d="M658.2,540.1c114-42.8,228-85.3,341.8-128.6v15.9c-132.8,51-266.1,100.5-399.3,150.3c-2.2,0.9-4.8,1.8-5.9,4.1
	c-1.8,3.2-0.2,7.8,3.4,9c3.4,1.3,6.7-0.8,9.8-1.8c130.6-48.8,261.1-97.9,392-146v17c-108.6,40.1-217.5,79.5-325.9,120.2
	c-3.7,1.4-7.3,2.7-11,4.1c-9,3.4-18,6.7-27,10.1c-1.7,0.6-1.7,2.8-2.6,4.2c-6.5,15.1-24.7,23.8-40.6,19.3
	c-15.8-3.8-27.5-19.7-26.2-35.9c0.6-14.3,11-27.5,24.7-31.5c8.5-2.7,18-1.8,26,2.1c1.4,0.5,2.9,1.8,4.5,1.1
	c8.5-3.1,16.8-6.3,25.2-9.4C650.8,542.9,654.5,541.5,658.2,540.1 M590,556.9c-12,5-19.6,18.4-17.7,31.2
	c1.6,14.4,15.3,26.1,29.7,25.6c10.8,0.1,21.1-6.6,26-16.2c-7.4,2.4-14.4,6-22,7.6c-9.8,2-20.3-3.9-23.8-13.2
	c-3.5-8.4-0.6-18.6,6.4-24.2c7.2-5.5,16.5-6.9,24.5-10.8C605.8,553.7,597.3,553.5,590,556.9z"/>
<path class="st2" d="M600.7,577.7c133.2-49.8,266.5-99.4,399.3-150.3V443c-130.9,48.1-261.4,97.2-392,146c-3.1,1-6.5,3.1-9.8,1.8
	c-3.6-1.2-5.2-5.8-3.4-9C595.9,579.5,598.5,578.5,600.7,577.7z"/>
<path class="st2" d="M437.5,543.2c6-0.8,12.2,0.1,17.7,2.6c-7.5,3.2-15.1,6.4-22.6,9.7c-7.1,3.2-12.8,9.6-14.3,17.3
	c-1.9,8.4,1.2,17.6,7.8,23.1c6.7,5.9,16.7,7.3,25,4c7.7-3.2,15.3-6.6,23.1-9.8c-5.6,15.4-23.2,25-39.2,21.4
	c-16.4-2.9-28.8-19.1-27.6-35.7C407.6,559.6,421.3,545.1,437.5,543.2z"/>
</svg>
