<svg version="1.1" xmlns="http://www.w3.org/2000/svg" xmlns:xlink="http://www.w3.org/1999/xlink" x="0px" y="0px" viewBox="0 0 1000 1000" style="enable-background:new 0 0 1000 1000;" xml:space="preserve">
<style type="text/css">
	.st0{fill:#EDEDED;}
	.st1{fill:#00A900;}
	.st2{fill:#000000;}
</style>
<path class="st2" d="M925.8,549.3c-7-11.4-17.6-20.4-29.5-26.5c-30.9-15.8-70.4-13.3-98.7,6.8c-12.6,8.9-22.7,21.6-27.2,36.4
	c-4.3,14.1-3,29.8,3.6,42.9c6.8,13.9,18.7,24.8,32.3,31.8c16.8,8.7,36.3,11.7,55.1,9.6c-1.5,10.8-6.3,21.2-14.2,28.8
	c-4.1,4.4-0.1,12.1,5.7,11.7c19.1-1.5,37.7-10.3,50.2-24.8c10.1-11.6,16.1-26.7,16.5-42.1c0-1.8,0.1-3.7,1.5-5.1
	c7.1-8.9,11.9-19.7,13.3-31C936.2,574.6,932.9,560.7,925.8,549.3z"/>
<path class="st0" d="M915.1,560.3c-2.1-4-4.5-7.8-7.4-11.2c-14.3-16.2-36.7-23-57.7-22.5c-15.3,0.8-30.8,5-43.5,13.8
	c-11.6,8-21,19.9-23.8,34c-2.9,13.5,2.3,27.6,10.9,38c2.8,3.4,6,6.5,9.4,9.2c19.3,15.8,46.7,18.6,70.2,12.3c3,0.1,2.6,3.9,2.9,6
	c0.1,11.4-2.2,22.9-7.2,33.2c7.3-2.9,14.2-6.9,19.8-12.4c11-10.4,17.5-25.6,16.6-40.7c-0.1-2.3,0-5,1.8-6.7
	c7.1-7.4,11.9-17.1,13.2-27.3C921.6,577.2,919.3,568.2,915.1,560.3z"/>
<path class="st1" d="M884.5,572.3c7.8-7.7,15.5-15.5,23.3-23.2c2.9,3.4,5.2,7.3,7.4,11.2c-8.5,8.5-17,17-25.4,25.4
	c-2.3,2.6-6.5,3.2-9.2,0.9c-3.7-3.2-6.8-6.9-10.3-10.3c-11.6,14.4-23,28.8-34.7,43.1c-2.7,3.5-8.4,3.7-11.2,0.3
	c-3-3.4-5.5-7.2-8.3-10.8c-4.3,4.2-8.6,8.4-12.9,12.6c-3.4-2.8-6.6-5.8-9.4-9.2c6.1-5.9,12-11.9,18.1-17.7c2.5-2.6,7.1-2.9,9.6-0.1
	c3.1,3.4,5.6,7.4,8.5,11c11.2-14,22.5-28,33.7-42c2.1-3.2,6.8-4.6,9.9-2.1C877.5,564.7,880.8,568.7,884.5,572.3z"/>
</svg>
