<svg version="1.1" xmlns="http://www.w3.org/2000/svg" xmlns:xlink="http://www.w3.org/1999/xlink" x="0px" y="0px" viewBox="0 0 1000 1000" style="enable-background:new 0 0 1000 1000;" xml:space="preserve">
<style type="text/css">
	.st0{fill:%%ST0%%;}
	.st1{fill:%%ST1%%;}
</style>
<path class="st1" d="M800.9,767.9c5.8-5.1,13.4-8.3,21.2-7.7c11.3,0.6,21.7,7.9,26.8,17.9c4.8,9.1,7,19.8,4.8,30c-1,5.2-3.4,10-6,14.5
	c10.6,4.5,20.3,11.2,27.8,20c7,8.1,11.9,18.6,11.3,29.5c-0.3,10.6-6.1,20.3-13.4,27.7c1.2,11.2-2.7,23.1-10.9,31
	c-4.5,4.5-10.6,7.2-16.7,8.8c-4.8,16-22.6,26.6-38.9,23.4c-8-1.5-15.4-6.2-20-12.9c-9.3,1.8-19.2,2.3-28.3-0.7
	c-10.4-3.4-19.9-10.8-24.2-21.1c-8.9,0.7-19.2-1.1-24.8-8.8c-6-8.5-5.3-19.4-5.8-29.3c0.1-15.2-0.6-30.7,2.6-45.7
	c2-9.3,6.3-18.2,13-25c4.3-4.1,10.6-6.2,16.5-5c5.5,0.9,11.2,4,16.7,1.3c9.7-4.7,17-13,24.1-20.9
	C784.9,785.9,791.8,775.9,800.9,767.9"/>
<path class="st1" d="M733.7,846.8c1.9-6.8,6.1-12.5,11.1-17.3c-4.5-2.5-10.4-3.7-14.8-0.4"/>
<path class="st0" d="M815.2,777.1c4.2-2.8,9.9-3.5,14.2-0.6c7.5,4.7,10.8,14,10.5,22.5c0.2,9.1-5.3,17.3-11.9,23
	c-9.1,7.8-21.2,10.7-32.8,12.6c-1.9,0.4-4.1,0.7-5,2.7c-1.7,2.6,0.7,6.3,3.8,6.1c8.4-0.2,16.6-2,24.8-3.7c9.9-2,20.1-5,30.2-2.4
	c8.4,2.5,15.5,8.4,20.5,15.5c4.8,6.6,7.4,15.1,5.8,23.3c-1.3,6.7-6.5,12.4-13.1,14.3c-8.9,2.6-18.8,1-26.8-3.5
	c-5.6-3.2-10.5-8.4-12-14.8C822,867,823,861.2,827,858c3.6-2.8,8.5-2.5,12.7-1.7c6.5,1.4,12.6,4.1,17.9,8.1c1.8,1.2,3.9,3,6.1,1.6
	c3.4-1.6,2.5-6.6-0.4-8.2c-8.7-6.4-19.4-11.1-30.5-10.6c-6.9,0.2-13.5,4.2-16.4,10.5c-2.9,5.4-2.7,11.7-1.6,17.5
	c-8.5,3.7-16.9,10.3-18.8,19.9c-1.2,4.2,0.6,8.4,0.6,12.6c-3.1,3-7.2,4.8-9.7,8.5c-4.5,5.5-5.7,12.9-4.5,19.7
	c-10.4,3.2-21.6,0-30.4-6c-5.7-3.9-10.8-9.7-11.4-16.8c-0.8-4.5,1.6-10,6.3-11.2c5.5-0.8,10.2,4.3,15.8,3c2.3-0.4,4.8-2.2,4.6-4.8
	c0-2.3-2.2-3.5-4.1-4.4c-7.8-3.7-14.5-10.1-18-18c-5.1-11-5-24.5,1.1-35c5.7-9.5,15.7-15.1,24.4-21.5c9.9-6.9,18.9-15.2,26.3-24.7
	C802.9,789.7,807.6,781.9,815.2,777.1z"/>
<path class="st0" d="M730.1,829.1c4.4-3.3,10.3-2.1,14.8,0.4c-5,4.8-9.2,10.6-11.1,17.3c-3.1,10.3-2.6,21.3-0.1,31.7
	c1,3.8,1.3,7.8-0.5,11.4c-2.7,5.9-4.7,12.2-4.7,18.8c-2.1-0.7-4.7-1.1-5.7-3.3c-2.6-5-2.8-10.8-3.4-16.3
	c-0.9-13.6-1.3-27.3,1.1-40.7C721.8,841.3,724.1,833.7,730.1,829.1z"/>
<path class="st0" d="M805.7,893.6c2.6-5.2,7.8-8.4,12.9-10.6c9.3,13.1,26.6,19.3,42.3,16.6c1.2,7.2,0.9,15.5-4.2,21.2
	c-5,5.6-13.2,6.8-20.3,5.5c-11.1-2.1-21.8-8-28.5-17.3C804.8,904.7,803.3,898.7,805.7,893.6z"/>
<path class="st0" d="M791.2,927c1.2-5.4,5.7-9.4,10.6-11.5c8,10,19.8,16.6,32.2,19.4c-0.6,3.4-1.4,6.9-3.6,9.6
	c-3.5,4.7-9.7,6.6-15.4,6.1c-7.5-0.6-14.5-4.5-19.7-9.9C792,937.1,789.9,931.9,791.2,927z"/>
</svg>
