<svg version="1.1" xmlns="http://www.w3.org/2000/svg" xmlns:xlink="http://www.w3.org/1999/xlink" x="0px" y="0px" viewBox="0 0 1000 1000" style="enable-background:new 0 0 1000 1000;" xml:space="preserve">
<style type="text/css">
	.st0{fill:#EDEDED;}
	.st1{fill:#FF002C;}
	.st2{fill:#000000;}
</style>
<path class="st2" d="M968.5,512.6c-8.6-13.5-20.6-24.6-34.1-33c-29.8-18.5-66.3-25-100.9-20.7c-29.9,3.9-58.9,16.1-81.7,36
	c-11.2,9.8-20.5,22-26.3,35.8c-5.3,12.7-7.5,26.7-5.8,40.4c2.4,20.3,12,39.6,26.3,54.1c2.3,2.4,4.5,5.4,4.6,8.9
	c0.1,2.6-1.3,4.9-2.6,7c-10.3,16-20.6,32.1-30.9,48.1c-1,1.7-2.3,3.8-1.2,5.8c0.9,2.6,4.1,3.5,6.5,2.4
	c31.4-10.2,62.7-20.5,94.1-30.7c5.3-1.8,10.9-3.2,16.6-2.6c16.4,1.4,32.9,0.5,49.2-2.2c27.5-4.8,54.3-16.6,74.4-36.3
	c14-13.7,24.3-31.6,27.1-51.1C987.2,552.8,979.9,530.8,968.5,512.6z"/>
<path class="st0" d="M958.9,529.8c-7.9-14.7-20-26.8-34.1-35.6c-12.7-7.6-26.5-13.5-41-16.6c-35.6-7.1-74.1-1.9-105.4,16.9
	c-15.6,9.5-29.4,22.9-37.2,39.7c-6.4,13.4-8.3,29-5,43.5c3.8,16.9,14.2,31.7,27.4,42.7c2.6,2.2,6.3,4,7,7.6c0.3,4.1-2.3,7.7-4.4,11
	c-7.1,11.4-14.2,22.8-21.3,34.2c23.2-8,46.6-15.7,69.7-23.9c9.5-4.3,19.6-0.3,29.5,0c20.8,0.6,41.6-3,61-10.5
	c14.6-5.7,28.6-14,39.2-25.7c8.3-9.1,15.4-19.6,19.7-31.2C970,564.9,966.9,545.7,958.9,529.8z"/>
<path class="st1" d="M797.2,532.1c5.8-12,19.8-19.8,33.1-17.3c8.2,1.3,15.4,5.9,21.9,10.9c6.1-5.5,13.5-9.9,21.8-11.2
	c9.2-1.5,19.2,1,26,7.6c7.4,7.2,11.5,17.6,11.3,27.8c-0.5,12.2-7,23.3-15.6,31.7c-9.2,8.8-18.4,17.6-27,27c-4.2,4.8-9.8,9-16.5,9.1
	c-5,0.3-9.8-2.2-13.1-5.8c-7.6-8.4-15.7-16.3-24-24c-7-6.5-13.8-13.5-17.8-22.3C792.5,555.2,791.9,542.5,797.2,532.1z"/>
</svg>
