<svg version="1.1" xmlns="http://www.w3.org/2000/svg" xmlns:xlink="http://www.w3.org/1999/xlink" x="0px" y="0px" viewBox="0 0 1000 1000" style="enable-background:new 0 0 1000 1000;" xml:space="preserve">
<style type="text/css">
	.st0{fill:#F32525;}
	.st1{fill:#FFFFFF;}
</style>
<path class="st0" d="M472.4,543.2C648.3,467.6,824.2,392,1000,316.4v17.2C817.6,412,635.1,490.3,452.7,568.7
	c-3.9,1.8-8.9,3-10.5,7.5c-2.1,4.6,1,10.5,5.9,11.6c3.6,0.9,7.1-0.9,10.4-2.3c180.5-77.6,361.1-155,541.6-232.6v16.1
	c-169.5,73-339.1,145.8-508.6,218.7c-2.7,11.4-10.3,21.7-20.7,27.2c-10.2,5.6-22.8,6.5-33.7,2.4c-11.9-4.2-21.4-14.2-25.1-26.2
	c-3.9-11.9-1.8-25.5,5.3-35.7c6.2-9.2,16.3-15.5,27.2-17.3C454,535.9,464,538.4,472.4,543.2 M429.1,552.1
	c-10.4,8.8-14.6,24-10.2,36.9c3.9,12.3,15.2,21.9,28,23.5c15.5,2.4,31.8-7.1,37.1-21.8c-7,3.1-14.1,6-21.1,9.1
	c-5.2,2.3-11.2,3.3-16.8,1.9c-7.6-1.7-14.2-7.5-16.9-14.9c-4.7-11.6,1.7-25.6,13-30.5c7.6-3.5,15.4-6.5,23-10
	C453.4,541,438.8,543.5,429.1,552.1z"/>
<path class="st0" d="M630.6,554.7c123.1-46.2,246.3-92.3,369.4-138.5v16.4c-128.6,48.2-257.3,96.2-386,144.3
	c-3,1.3-6.5,1.8-8.7,4.4c-2.5,3-1.3,8.3,2.4,9.7c3,1.4,6.1-0.1,9-1.2c127.7-47.8,255.5-95.5,383.2-143.3v15.6
	c-118.2,44.4-236.5,88.7-354.8,133c-1.7,4.3-3.8,8.6-6.9,12.2c-8.7,10.3-23.7,14.8-36.6,10.8c-14.1-4-24.6-17.6-25-32.2
	c-0.7-14,7.9-28,20.9-33.4C608.1,547.6,620.7,549,630.6,554.7 M593.9,560.9c-10.1,7.4-14.5,21.5-10.3,33.3
	c3.9,12.2,16.6,20.8,29.4,20c10.5-0.3,20.2-6.8,25-16.1c-6.1,2.1-12,4.6-18.1,6.6c-6.4,2.2-13.8,1.6-19.4-2.1
	c-7.4-4.6-11.3-14.2-9.1-22.6c1.5-6.9,6.8-12.6,13.2-15.3c6.2-2.6,12.6-4.7,18.8-7.2C613.8,553.3,602.2,554.5,593.9,560.9z"/>
<path class="st1" d="M452.7,568.7C635.1,490.3,817.6,412,1000,333.6v19.2c-180.5,77.6-361.1,155.1-541.6,232.6
	c-3.2,1.4-6.7,3.2-10.4,2.3c-4.9-1-8-6.9-5.9-11.6C443.8,571.7,448.8,570.4,452.7,568.7z"/>
<path class="st1" d="M614,576.9c128.7-48.1,257.3-96.2,386-144.3v14c-127.7,47.9-255.5,95.5-383.2,143.3c-2.8,1-6,2.6-9,1.2
	c-3.7-1.5-4.9-6.7-2.4-9.7C607.5,578.8,611.1,578.2,614,576.9z"/>
<path class="st1" d="M429.1,552.1c9.7-8.6,24.3-11.1,36.2-5.8c-7.6,3.5-15.4,6.5-23,10c-11.3,4.9-17.7,18.9-13,30.5
	c2.7,7.4,9.2,13.1,16.9,14.9c5.6,1.4,11.6,0.4,16.8-1.9c7-3.1,14.1-6,21.1-9.1c-5.4,14.7-21.6,24.2-37.1,21.8
	c-12.8-1.6-24.1-11.2-28-23.5C414.5,576.1,418.6,560.8,429.1,552.1z"/>
<path class="st1" d="M593.9,560.9c8.3-6.4,19.9-7.6,29.5-3.5c-6.2,2.5-12.6,4.6-18.8,7.2c-6.5,2.6-11.8,8.4-13.2,15.3
	c-2.2,8.5,1.7,18,9.1,22.6c5.7,3.8,13.1,4.3,19.4,2.1c6.1-2.1,12-4.6,18.1-6.6c-4.8,9.3-14.5,15.8-25,16.1
	c-12.8,0.8-25.5-7.8-29.4-20C579.4,582.3,583.8,568.2,593.9,560.9z"/>
</svg>
