<svg version="1.1" xmlns="http://www.w3.org/2000/svg" xmlns:xlink="http://www.w3.org/1999/xlink" x="0px" y="0px" viewBox="0 0 1000 1000" style="enable-background:new 0 0 1000 1000;" xml:space="preserve">
<style type="text/css">
	.st0{fill:#FF002C;}
	.st1{fill:#FF3CAE;}
	.st2{fill:#000000;}
</style>
<path class="st2" d="M542.5,45.6c18.3-2.8,37.7,1.2,53,11.9c12.9,8.4,22.9,21.4,27,36.3c3.6,13.1,3.1,27.2-0.3,40.4
	c-5.5,19.9-18.6,36.7-33.4,50.6c-17,15.5-35.7,29.1-54.1,42.8c-6.8,4.9-13.4,10.1-20.5,14.5c-4.2,2.7-9.3,2.3-14,2.7
	c-5,0.2-10,0.8-15.1,0.8c-2.5,0-4.5-1.7-6.4-3c-16.4-12.1-31.9-25.3-47-39c-16.8-15.5-33.2-32.6-42-54c-7.7-18.4-8-39.5-1.1-58.2
	c5.2-13.7,13.9-26.7,26.8-34.1c14-8.3,30.8-10.7,46.8-9.2c10,1.1,19.4,5.1,28.5,9c6.1,2.6,12.7,0.5,18.5-1.8
	C519.9,51,530.9,47,542.5,45.6"/>
<path class="st0" d="M519.3,60.2c11-4.4,22.8-7.8,34.8-7.3c-11.9,3.8-22.9,9.9-33.1,17c-1.9,1.2-3.7,2.8-5.9,3.3
	c-3.4-1.6-6.4-3.9-9.2-6.3C509.9,63.9,514.7,62.2,519.3,60.2z"/>
<path class="st0" d="M404.9,80.8c5.1-8.3,12.9-15.2,22.3-18c-1.4,2.3-3.4,4.2-5.3,6.1c-9.9,10.9-15.7,25.4-16.2,40.1
	c-0.5,12.1,1.9,24.3,7,35.3c3.8,8.1,8.8,15.7,14.1,22.8c13.8,18.2,32,32.3,49.9,46.2c8.3,6.5,17,12.6,25.4,19.1
	c-2.4,1.4-5.2,0.9-7.9,1.2c-4.1,0.2-8.7,1.1-12.1-1.7c-16.1-11.8-31.3-24.6-46.1-38c-18.3-17-34.8-37.8-40.1-62.7
	C391.9,114.1,395.7,95.7,404.9,80.8z"/>
<path class="st1" d="M455.4,62.6c15.1-1.8,29.7,4.8,42,13c5.3,3.3,10,7.5,15.2,10.9c2.7,2,5.5-0.5,7.7-2.1
	c11.1-8.6,23-16.7,36.8-20.5c10.4-2.7,22.2-2.4,31.6,3.3c14,8.1,22.6,23.7,24.1,39.6c1.7,14.6-2.8,29.3-10.2,41.8
	c-8.1,13.7-19.7,24.9-31.6,35.2c-16.1,14-32.7,27.5-50,40c-2.4,1.6-5.4,4.9-8.4,2.5c-19.5-13.9-38.2-29-56.2-44.8
	c-14.6-12.7-28.4-27.4-35.2-45.9c-6.4-16.1-5.8-34.9,2.5-50.2C430.1,73.8,441.7,64.1,455.4,62.6z"/>
</svg>
