<svg version="1.1" xmlns="http://www.w3.org/2000/svg" xmlns:xlink="http://www.w3.org/1999/xlink" x="0px" y="0px" viewBox="0 0 1000 1000" style="enable-background:new 0 0 1000 1000;" xml:space="preserve">
<style type="text/css">
	.st0{fill:%%ST0%%;}
	.st1{fill:%%ST1%%;}
	.st2{fill:%%ST2%%;}
</style>
<path class="st0" d="M517.7,939.2c-0.8-3.1-3.6-4.9-5.8-7c-27.1-24.8-54.3-49.7-81.4-74.5c-27.5-25.3-55.3-50.1-82.2-76
	c-55.8-53.2-111.6-106.4-167.5-159.5c-1.1-1.3-3-1.4-4.4-0.5c-3.8,3.5-7,7.5-10.5,11.2c-15.6,17.1-31.3,34.2-46.8,51.4
	c-1.5,1.4-1,3.9,0.7,4.9c73,60,146.1,120,219.1,180c43.4,35.5,86,72,129,108c2.4,1.9,4.6,4.2,7.3,5.7c3.4,1.6,7.5,0.1,9.9-2.6
	c10.1-11,20.1-22,30.1-33C517.2,945,518.5,942,517.7,939.2z"/>
<path class="st1" d="M177.2,644.8c2.7,2.4,5.3,4.8,7.9,7.3c-7.5,16.6-15.1,33.2-22.6,49.8c-6.5-5.5-13-10.9-19.4-16.4
	C154.5,672,165.9,658.4,177.2,644.8z"/>
<path class="st1" d="M283.1,741.8c72.8,66.6,145.6,133.2,218.4,199.8c-7.8,8.6-15.7,17.2-23.5,25.8c-74-62.2-148-124.6-222-186.9
	C265,767.6,274,754.7,283.1,741.8z"/>
<path class="st2" d="M194.4,660.5c3.7,3.4,7.3,6.7,11,10.1c-9.1,7-18,14.1-26.9,21.3C184,681.6,189.1,671,194.4,660.5z"/>
<path class="st2" d="M170.9,708.9c14.1-10.3,28.2-20.7,42.4-31.1c1.4,1.3,2.8,2.6,4.2,3.9c-10.5,13.3-21.1,26.5-31.8,39.7
	C180.8,717.2,175.9,713,170.9,708.9z"/>
<path class="st2" d="M217.4,699.6c2.9-3.3,5.9-6.7,8.8-9.9c4.8,4.5,9.8,8.9,14.6,13.4c-7.8,10.8-16,21.5-24,32.1
	C216.9,723.3,217.4,711.4,217.4,699.6z"/>
<path class="st2" d="M192.8,727.3c5.3-6,10.7-12,16-18.1c0,10.4-0.5,20.7-0.6,31.1C203.1,735.9,197.9,731.6,192.8,727.3z"/>
<path class="st2" d="M218.5,749c9.8-13.2,19.6-26.3,29.4-39.5c6.2,5.7,12.4,11.4,18.6,17.1c-13.1,9.9-26.6,19.5-39.8,29.3
	C223.9,753.6,221.3,751.2,218.5,749z"/>
<path class="st2" d="M234.9,762.8c12.6-10.2,25.3-20.2,37.9-30.5c0.9,0.8,1.8,1.6,2.7,2.5c-8.9,13.2-17.9,26.4-26.8,39.6
	C244.1,770.5,239.5,766.7,234.9,762.8z"/>
</svg>
