<svg version="1.1" xmlns="http://www.w3.org/2000/svg" xmlns:xlink="http://www.w3.org/1999/xlink" x="0px" y="0px" viewBox="0 0 1000 1000" style="enable-background:new 0 0 1000 1000;" xml:space="preserve">
<style type="text/css">
	.st0{fill:%%ST0%%;}
	.st1{fill:%%ST1%%;}
</style>
<path class="st1" d="M733.6,565c-4-35-20.7-67.3-41.3-95.3c-19.8-26.8-43.3-50.9-69.3-71.8c-27.1-21.1-58.3-36.7-90.9-47.2
	c-20.3-6.1-41.6-9.1-62.8-8.4c-42,1.5-83.2,18.5-113.8,47.4c-13.1,12.3-23.6,27.3-31.1,43.6c-8,17.6-13.6,36.2-17.8,55
	c-0.9,2.8-1.1,6-2.8,8.4c-12.1,10.6-23.3,22.4-32.2,35.9c-8.2,12.4-13.8,26.5-17.3,41c-5.4,23.9-2.2,49.6,8.4,71.6
	c12.6,27,34.1,49,58.8,65.1c17.4,10.9,36.2,19.3,55.3,26.7c35.8,13,73.4,21.7,111.6,23.6c20.2,1.3,40.6,0.8,60.7-2
	c22.9-3.4,45.5-10,66.5-19.8c9.9-4.7,19.7-9.5,29.1-15c14.7-8.5,28.2-18.9,40.7-30.4c19.6-18.2,35.7-40.8,43.6-66.6
	C735.4,607,735.8,585.7,733.6,565z"/>
<path class="st0" d="M703.3,526.8c-11.4-28.4-30.1-53.1-50.1-76c-21.5-24.3-47.4-44.5-75.5-60.6c-20-11.4-42-19.4-64.6-23.9
	c-17.4-3.6-35.2-4.5-52.9-2.9c-29.4,3.3-59,12.9-82.3,31.7c-24.1,19.8-39.5,48.6-47.5,78.4c-3.5,10-4.9,20.6-8.5,30.5
	c-2.2,6.3-7.8,10.2-12.1,14.9c-14.4,14.6-26.2,31.9-32.8,51.4c-7.2,20.5-7.1,43.5,0.5,63.9c5.4,14.4,13.6,27.9,24.5,38.7
	c12.2,12.2,26.8,21.8,42.1,29.8c15.6,8.4,32.2,14.8,49,20.1c14.1,4.5,28.4,8.1,43,10.7c25.6,5.1,51.7,7.4,77.8,6.1
	c25.1-0.9,50.2-4.5,74.1-12.2c28.5-9.4,56.2-22.6,79.5-41.7c15-12.6,27.4-28.3,36.1-45.9c7.5-15.1,11-32,11.5-48.7
	C715.6,569.1,711.5,547.2,703.3,526.8z"/>
</svg>
