<svg version="1.1" xmlns="http://www.w3.org/2000/svg" xmlns:xlink="http://www.w3.org/1999/xlink" x="0px" y="0px" viewBox="0 0 1000 1000" style="enable-background:new 0 0 1000 1000;" xml:space="preserve">
<style type="text/css">
	.st0{fill:#FFD400;}
	.st1{fill:#000000;}
</style>
<path class="st1" d="M395.4,463.7c4.8-1,9.8-0.6,14.7-0.6c27.7,0.9,55.4,2.9,82.8,6.6c20.4,3,40.7,6.2,60.9,10c34.6,6,68.5,15.1,102.1,25.3
	c4.1,1.4,8.6,2.3,12.2,4.8c3.2,2.7,3,7.3,3.4,11.1c0.7,13,1.4,26.3-1.9,39.1c-3.3,14.3-11.6,27.4-23.3,36.3
	c-8.8,6.8-20.3,10.2-31.4,8.9c-9.4-0.9-18.3-4.9-26.1-10c-7.7-4.8-14.9-10.8-23.7-13.6c-7.4-2.4-15.3-1.5-22.7,0.2
	c-13.4,3.2-26.1,8.4-39.5,11.5c-21.2,5-43.7,4.6-64.5-1.8c-14.9-4.6-29.1-12.5-39.7-24c-13.5-14.5-21.1-34.5-20.2-54.4
	c0.8-14.1,4.1-28,9.6-40.9C389.8,468.9,391.5,464.6,395.4,463.7"/>
<path class="st0" d="M417.5,473.8c47.3,1.4,94.2,8.4,140.5,17.5c30.4,5.9,60.4,13.6,90,22.6c3.3,1.1,6.8,1.8,9.9,3.4
	c1.8,0.9,1.8,3.1,2.2,4.8c2.7,17.1,1.9,35.7-7.1,51.1c-6.2,10.5-16.4,19.9-28.9,21.5c-11,1.6-21.7-2.9-30.7-9
	c-10.8-7.2-21.9-15.5-35.4-16.1c-16.4-0.5-31.7,6.2-47.1,10.6c-21,6.7-43.8,7.9-65.1,2.4c-12.9-3.4-25.3-9.2-35.2-18.2
	c-13-11.7-21.1-28.7-21.5-46.3c-0.3-14.1,3.2-28.1,8.9-41c0.7-1.7,1.9-3.5,4-3.4C407.2,473.3,412.4,473.5,417.5,473.8"/>
<path class="st1" d="M434.2,507c1.2-1.5,2.5,1,2.9,2c2.6,7,9.2,12.7,16.9,12.7c6.1-0.2,12-2.3,18.1-3.1c10.1-1.3,20.8-0.3,30,4.2
	c9.8,4.6,17.7,12.6,23.4,21.7c1.5,2.2,1.9,5.2,0.6,7.5c-1.7,2.7-5.9,3.2-8.2,1c-3.5-3.2-6.2-7.2-10.1-10
	c-15-12.1-38.4-13.1-53.9-1.3c-3.5,2.6-7.2,5.5-11.8,5.4c-6.1,0.3-11.2-4-15.1-8.2c-1.5-1.8-3.8-3.7-3.1-6.3
	c2.6-0.8,4.6,1.6,6.9,2.4c4.8,2.6,10.7-3,9.3-8c-1.4-5-5.3-9-6.4-14.2C433.3,511,432.3,508.4,434.2,507z"/>
<path class="st1" d="M591.5,536.7c7.6-1.3,15.5-0.6,22.7,1.9c6.3,2.1,12.9,5.9,19.7,3.6c3.6-0.8,6.1-3.7,9-5.9c2.4-0.4,0.8,3,0.5,4.1
	c-1.3,3.1-4,5.2-5.9,8c-2,2.6-0.7,6.9,2.6,7.7c2.7,0.7,5-1,7.5-1.7c0.9,2.8-1.1,5.4-2.6,7.6c-3,4.2-8.6,7.2-13.8,5.6
	c-3-1.3-5-4.1-7.4-6.2c-9.4-9-24-13.4-36.5-9.1c-5.7,1.8-10.1,6.6-16.1,7.5c-4.6,0.1-5.9-6.1-3.4-9.2
	C572.9,542.7,582.3,538.4,591.5,536.7z"/>
</svg>
