<svg version="1.1" xmlns="http://www.w3.org/2000/svg" xmlns:xlink="http://www.w3.org/1999/xlink" x="0px" y="0px" viewBox="0 0 1000 1000" style="enable-background:new 0 0 1000 1000;" xml:space="preserve">
<style type="text/css">
	.st0{fill:#EDEDED;}
	.st1{fill:#000000;}
</style>
<path class="st1" d="M833.5,458.8c32.7-4,67.1,1.5,96,17.8c16.8,9.5,31.6,22.9,41.3,39.7c6.2,11.2,11.3,23.2,13,36c2.8,19.6-2.5,39.9-13.3,56.3
	c-13.5,20.7-34.6,35.6-57.4,44.6c-25.9,10.2-54.4,13-82,10.8c-5-0.2-9.9,1.2-14.7,2.7c-31.4,10.2-62.8,20.5-94.1,30.7
	c-2.4,1-5.5,0.2-6.4-2.4c-1.1-2,0.2-4.1,1.2-5.9c9.9-15.4,19.8-30.8,29.7-46.3c1.7-2.7,3.8-5.4,3.8-8.8c-0.1-3.8-2.7-6.9-5.2-9.5
	c-12.6-13-21.4-29.8-24.8-47.6c-2.9-14.9-1.4-30.7,4.3-44.8c5.7-14.5,15.3-27.2,27-37.4C774.7,475,803.6,462.7,833.5,458.8"/>
<path class="st0" d="M769.5,500.5c28.9-21.2,66.3-28.9,101.6-24.9c14.1,1.4,27.8,5.5,40.6,11.6c15.5,7,29.6,17.6,39.9,31.2
	c10.2,13.2,15.9,30,15.5,46.7c-0.2,11.6-4.6,22.6-10.7,32.3c-8.7,14-20.7,26-35.1,33.9c-23.4,13-50.6,18.8-77.3,18.1
	c-9.2-0.2-18.5-4-27.5-0.6c-23.8,8.4-47.8,16.3-71.7,24.5c6.9-11,13.7-22.1,20.6-33.1c2.2-3.5,4.9-6.9,5.2-11.2
	c0.1-2.5-1.7-4.5-3.5-5.9c-13.7-10.1-24.6-24.3-29.6-40.6c-4.2-13.4-3.8-28.1,0.9-41.3C744,524.7,755.7,510.8,769.5,500.5"/>
<path class="st1" d="M807.9,517.1c1-3.4,3.5-6.5,7-7.4c4.4-1.3,9.3,1.5,10.8,5.8c1.1,2.6,0.4,5.5-0.4,8.1
	c-8.8,28-17.6,56.1-26.4,84.2c-1,3.3-3.4,6.4-6.9,7.3c-4.5,1.4-9.5-1.5-11-5.9c-1.1-2.8-0.2-5.8,0.7-8.6c3.6-11.3,7-22.6,10.7-33.9
	c-5.8-7.6-11.6-15.2-17.4-22.8c-2.9-3.5-6-8.1-3.9-12.7c2.1-6,10.5-7.6,14.9-3.1c4.7,5.3,8.7,11.3,13.2,16.9
	C802.1,535.7,805,526.3,807.9,517.1z"/>
<path class="st1" d="M899.5,514.6c7.7-3.4,17.3-1.3,22.8,5.1c5.4,6.3,6.1,15.3,4.2,23.1c-0.8,4.2-4.1,8.1-8.5,8.4
	c-5.7,0.8-10.8-4.7-9.9-10.3c0.1-3.2,2-7.2-0.9-9.8c-5.5,3.1-7.1,9.9-6.7,15.7c0.1,2.6,0.8,5.9,3.8,6.6c6.6,2.1,13.7,3.3,19.3,7.8
	c12.2,9.3,14.4,29,4.3,40.6c-8.2,10.1-24.3,11.3-34.3,3.4c-5.7-4.2-9.7-11.2-9.1-18.4c0.2-4.1,2.6-8.3,6.7-9.6
	c4.1-1.6,9.2,0.5,11,4.5c1.2,2.1,0.8,4.6,1.1,7c2,3.2,7.2,4.2,10,1.5c4.3-4.4,2.8-13.1-3-15.5c-3.8-1.6-7.8-2.2-11.7-3.6
	c-5.3-1.8-10.1-5.1-12.9-10c-4-6.9-4.4-15.3-3.2-23.1C884.2,528.3,890,518.6,899.5,514.6z"/>
<path class="st1" d="M841.5,518.6c5.5-4.6,13.6-6.4,20.2-3.3c6.6,3,10.6,9.8,11.8,16.6c1.9,10.4,0.1,20.9-0.6,31.3
	c-0.1,4.7-4.2,8.5-8.8,8.8c-7.2,0.7-14.5,1.1-21.8,1.7c0,5.6,0,11.5,2.2,16.8c0.9,2,2.8,4.7,5.4,3.7c2.9-1.1,3.6-4.3,3.6-7.1
	c0.1-5.2,5.3-9.5,10.4-8.6c4.5,0.7,7.8,4.9,8,9.3c1,12.4-9.4,24.5-21.9,25.1c-7.1,0.6-14.2-3-18.6-8.5c-4.7-5.7-6.5-13.1-7.2-20.3
	c-1.2-14,0.5-28,3.9-41.6C830.6,533.7,834.2,524.5,841.5,518.6 M844.4,555c3.6-0.3,7.2-0.5,10.7-0.8c0.2-7.3,2-15.1-1-22
	C847.5,537.8,846.2,547,844.4,555z"/>
</svg>
