<svg version="1.1" xmlns="http://www.w3.org/2000/svg" xmlns:xlink="http://www.w3.org/1999/xlink" x="0px" y="0px" viewBox="0 0 1000 1000" style="enable-background:new 0 0 1000 1000;" xml:space="preserve">
<style type="text/css">
	.st0{fill:#FFD400;}
	.st1{fill:#FF002C;}
	.st2{fill:#2C2F2F;}
	.st3{fill:#000000;}
</style>
<path class="st3" d="M395.4,463.7c4.8-1,9.8-0.6,14.7-0.6c28,0.9,56.1,2.9,83.9,6.8c20.4,3,40.8,6.3,61,10.1c32.6,5.7,64.6,14.2,96.3,23.7
	c5.3,1.8,10.8,3,15.8,5.5c2.8,1.4,3.8,4.7,4.1,7.6c1,8.1,1,16.2,1,24.4c-0.3,15.1-4.2,30.5-13.5,42.6c-8.1,11.3-20.5,20.2-34.6,21.5
	c-13.3,1.5-26.3-3.8-37.1-11.2c-10-6.6-20.4-14.8-33.1-13.9c-15.9,1.1-30.6,8-45.9,11.9c-22.6,6.2-47.1,6.4-69.6-0.5
	c-14.1-4.4-27.4-11.6-37.9-22.1c-11.6-11.7-19.5-27.3-21.5-43.7c-1.8-13.3,0.5-26.9,4.1-39.7c1.7-5.7,3.5-11.4,6.3-16.6
	C390.9,467,392.4,464.2,395.4,463.7"/>
<path class="st3" d="M534.4,607.5c9.2-4.3,20.2-4.4,29.6-0.6c10.7,4.3,20.6,11.8,25.7,22.4c1.8,3.4-1.7,8-5.5,6.9c-3.6-1.1-4.7-5.2-6.8-7.9
	c-3.1,3.6-6.2,7.2-9.3,10.8c5.1,7.6,5.6,17.9,0.8,25.7c-7.3,12.9-24.9,17.4-38.1,11.5c-13.8-5.6-22.2-21.2-20-35.9
	C512.7,626.6,521.4,613.3,534.4,607.5"/>
<path class="st0" d="M400.2,474c1.2-0.4,2.5-0.6,3.8-0.5c50.5,0.3,100.7,7.4,150.2,16.9c34.1,6.5,67.7,15.2,100.8,25.5
	c2.1,0.6,4.5,1.6,4.7,4.1c3.2,17.7,2.5,37.1-6.7,52.9c-6.2,10.5-16.4,19.9-29,21.5c-10.7,1.5-21.2-2.7-30-8.6
	c-11-7.3-22.3-15.9-36.1-16.5c-16.3-0.5-31.6,6.2-47,10.6c-21,6.7-43.8,7.9-65.2,2.4c-13.8-3.6-27-10.1-37.2-20.1
	C397,551,389.8,535.3,389.2,519c-0.5-14.5,3.1-28.9,8.9-42C398.6,475.9,399.1,474.7,400.2,474"/>
<path class="st3" d="M459.4,488.6c7.5-1.8,15.7,0.6,21.9,5.1c8.8,6.5,14,16.9,16.1,27.5c2.6,14,0.1,29.2-8.4,40.8c-5.1,7.2-13,12.6-21.9,13.6
	c-9,1-17.9-3.2-24-9.7c-15.1-16.8-16.2-44-3.9-62.7C443.8,496,451,490.4,459.4,488.6"/>
<path class="st3" d="M614.4,517.5c4.3-1.3,9-1.6,13.3,0.1c7.9,2.6,13.7,9.4,16.6,17c4.7,12.1,3,26.5-4.5,37.1c-4.2,5.8-10.5,10.4-17.7,11.3
	c-6.1,0.9-12.4-1.2-17.2-5.1c-6.4-5.2-10.1-13.1-11.3-21.1C591.2,541.5,598.5,522.7,614.4,517.5"/>
<path class="st1" d="M461.3,499.3c5.2-1.2,10.7,0.5,14.7,3.8c6.2,5.2,9.6,13,11,20.8c1.7,11-0.1,23-6.8,32.1
	c-3.8,5-9.6,9.1-16.1,8.8c-7.5-0.1-13.6-5.7-17.1-11.8c-6.9-12.3-7-28.2-0.7-40.8C449.3,506.3,454.4,500.7,461.3,499.3z"/>
<path class="st1" d="M616.3,526.2c4.6-1.6,10.1-0.5,13.7,2.8c5.6,4.9,8,12.7,7.9,20c0.1,8.5-3.2,17.5-10.3,22.6
	c-4.7,3.5-11.7,3.7-16.4,0.1c-6.7-5-9.3-13.8-9-21.8C602.4,540.5,607,529.9,616.3,526.2z"/>
<path class="st1" d="M533.4,636.5c8.1-2.2,17.5-0.5,23.7,5.4c3,2.8,5.1,6.9,4.8,11.2c0,7.5-6.6,13.6-13.6,15.1
	c-10.6,2.9-23.7-3.8-25.5-15.1C521.2,645.8,526.1,638,533.4,636.5z"/>
<path class="st2" d="M543.9,615c8.5-2,17.3,0.8,24.4,5.4c-2.9,3.5-5.9,7-9,10.4c-9.9-6-22.4-7-33.3-3.2
	C530.2,621.4,536.5,616.4,543.9,615z"/>
</svg>
