<svg version="1.1" xmlns="http://www.w3.org/2000/svg" xmlns:xlink="http://www.w3.org/1999/xlink" x="0px" y="0px" viewBox="0 0 1000 1000" style="enable-background:new 0 0 1000 1000;" xml:space="preserve">
<style type="text/css">
	.st0{fill:#000000;}
	.st1{fill:%%ST1%%;}
	.st2{fill:%%ST2%%;}
	.st3{fill:#EDEDED;}
</style>
<path class="st0" d="M484.5,258.7c25.4-1.8,51.3-0.5,75.8,6.7c15.8,4.1,30.6,11.7,43.3,21.9c21.6,17.3,36.5,41.4,47.6,66.4
	c8.9,20,16.3,40.7,23.6,61.3c6.8,19.3,13.7,38.6,19.8,58.2c4.8,15.2,9,30.7,13.2,46.1c5.4,17.6,9.9,35.5,12.8,53.7
	c3,19.9,3.8,40.6-1.4,60.3c-4,15.4-11.6,29.9-21.8,42.1c-10.6,13.1-23.6,24-37.2,33.7c-26.8,19.1-55.8,35.8-87.3,45.6
	c-17.8,5.3-36.3,8-54.8,9c-39.4,2.3-78.4-6.5-115.7-18.5c-33.4-10.9-66.6-25.2-93.2-48.6c-14.3-12.2-26.3-27.7-32.6-45.5
	c-7.4-21.2-6.9-44.1-5.4-66.2c2-21.4,4.7-42.8,7.9-64c5.9-35.1,12-70.2,22.6-104.2c7.5-24.1,16.1-48,29.1-69.8
	c15.4-27,37.7-50.2,64.9-65.3C422.9,266.9,453.9,260.9,484.5,258.7"/>
<path class="st1" d="M475.5,275.7c23.9-1.8,48.1-1.8,71.7,3.3c16.8,2.9,32.9,9.9,45.8,21c23.5,19.5,37.5,47.5,48.7,75.4
	c5.3,13.8,11.5,27.4,14.8,41.9c0.8,4.3,1.4,10.2-2.6,13.2c-4,0.2-6.6-3.6-8.9-6.4c-7.2-10.2-15.7-19.6-25.2-27.8
	c-2.5-1.9-5.3-4.2-8.7-4.1c-3,0.2-4.1,4-2.4,6.1c2.5,3.5,6.4,5.7,9.6,8.5c8.3,6.9,15,15.8,19.2,25.7c6.9,15.2,9.9,31.9,17.1,46.9
	c7.4,15.9,18.3,29.7,27.6,44.5c7.6,11.8,12.4,24.9,17,38c6.1,18.7,9.5,38.5,7.3,58.1c-2,17.8-9.6,34.7-21.2,48.3
	c-21.7,26-50.7,44.6-81,59c-30.8,15.3-65.1,22.8-99.3,23.7c-37-0.1-73.3-9.4-108-21.8c-17.2-6.3-34.2-13.7-49.8-23.3
	c-13.8-8.5-27.2-17.9-37.9-30.2c-12.3-14-20.5-32-21.5-50.7c-0.5-10.8-0.4-21.8,3-32.1c4.2-12.8,13.4-23,22.1-32.9
	c9.1-10.2,18.5-20.6,23.5-33.6c1.5-4,3.3-8.5,2-12.7c-0.8-2.6-4.3-3.2-6.2-1.4c-3.5,3.3-4.4,8.2-6.8,12.2
	c-3.2,5.4-7.2,11.2-13.3,13.5c-3,1.3-6.6,0.3-8.4-2.5c-4.9-7-4.2-16.1-3.3-24.1c2.4-19.7,7.3-39,11.6-58.3
	c5.3-22.4,10.5-44.8,18.6-66.4c8.7-23.1,20.5-45.4,37.9-63.1c18.6-19.9,43-33.9,69.2-41C450,279.1,462.7,277.1,475.5,275.7
	 M514.4,450.5c-15.9,2.4-30.8,9.1-44.2,17.7c-10.7,6.8-20.3,15-30.1,23c-17.9,14.7-35.2,30.1-52.6,45.3c-10.1,9-20.9,17-30.7,26.3
	c-10.1,9.5-20.1,19.5-27.9,31c-9.1,13.7-14.4,30.6-11.8,47c2.1,12.3,8.1,23.6,15.9,33.2c10.3,12.3,24.6,20.2,38.7,27.2
	c20.1,9.5,41.2,16.7,62.7,22.3c36.2,9.8,74.8,13.9,111.7,5.6c35-8.3,68-24.1,97.7-44.3c17.3-11.5,33.8-25.6,43.3-44.5
	c7.7-14.9,8.8-32.5,5.5-48.7c-2.9-13.6-10-25.9-18.2-37c-11.7-16-25.8-30.2-40.5-43.5c-9.3-8.5-19.4-16-29.4-23.6
	c-16.5-12.4-33.8-24-53-32.1C540,450.2,527,448.7,514.4,450.5z"/>
<path class="st2" d="M657.4,563.5c2.8-0.8,5.9,0.2,8,2.1c4,3.5,6.7,8.3,9.1,13c5.7,12.7,9.9,26.7,7.6,40.7
	c-2.1,17.2-13.8,31.3-26.4,42.4c-12.1,10.3-25.7,18.7-39.3,26.8c-19.6,11.3-40.2,20.9-61.6,28c-5.8,1.8-11.7,3.6-17.8,4.2
	c-2.4,0.2-5.8-0.3-6.6-2.9c-1.1-7.3,1.8-14.5,1.7-21.8c-0.5-2.6-4.5-2-4.8,0.4c-1.8,7.1-1.8,14.6-4.2,21.6c-1.2,3.8-5.6,4.8-9.1,5.1
	c-33.1,2-65.9-5.5-97.4-15c-17.8-5.3-35.5-11.7-51.5-21.3c-11.6-7.3-22.4-16.8-28.7-29.2c-6.5-12.7-7.6-27.9-3.1-41.4
	c5.8-17.7,18.4-32.8,33.9-43c5.5-3.6,12-6.5,18.7-5.9c6.2,0.4,11,4.6,16.4,7.2c18.1,10,39.1,14.1,59.7,13
	c15.3-0.8,30.2-4.7,44.6-9.6c5.4-1.8,10.8-3.8,16.4-4.5c2.1-0.2,5,0.3,5.8,2.6c2.3,7,2.5,14.5,3.6,21.8c0.3,2.5,4.4,2.8,4.8,0.2
	c0.6-7-2.3-14-1.2-21c0.8-3.8,5.7-3.1,8.5-2.4c16.7,4.7,33.8,9.4,51.4,8.7c18.6-0.7,36.6-6.9,53-15.5
	C651.8,566.4,654.3,564.5,657.4,563.5 M533.7,620.6c-1.3,10.1-0.5,20.3-1.3,30.4c-0.3,8.4-1.5,16.7-2.2,25c-0.4,2.9,4,3.4,4.5,0.7
	c2.4-14.4,2.9-29.1,3.2-43.7c0.1-3.7,0.6-7.4,0-11.1C537.5,619.9,535.2,620.4,533.7,620.6z"/>
<path class="st3" d="M445.4,531.8c11.1-1.9,23,0.1,32.5,6.3c4.1,2.4,5.4,8.4,2.3,12.1c-2.6,3.3-7.6,3.9-11,1.7
	c-6.4-3.8-14-5.3-21.3-3.8c-5.7,0.8-11,3.2-16,5.9c-3.9,2.2-9.2,0.7-11.2-3.3c-2.1-3.7-0.4-8.7,3.1-10.8
	C430.4,535.7,437.8,533,445.4,531.8z"/>
<path class="st3" d="M591.5,533.8c13-2.2,26.5,1.3,37.7,8c4,2.3,5.4,8.2,2.5,11.9c-2.5,3.6-7.7,4.1-11.2,1.9c-8.7-4.8-19.2-7.8-29-5
	c-3.7,0.8-6.8,3.1-10.3,4.4c-4.5,1.4-9.8-2.1-10-6.9c-0.4-3.2,1.3-6.3,4-8.1C580,536.8,585.7,534.8,591.5,533.8z"/>
</svg>
