<svg version="1.1" xmlns="http://www.w3.org/2000/svg" xmlns:xlink="http://www.w3.org/1999/xlink" x="0px" y="0px" viewBox="0 0 1000 1000" style="enable-background:new 0 0 1000 1000;" xml:space="preserve">
<style type="text/css">
	.st0{fill:#E94000;}
	.st1{fill:#FF5400;}
	.st2{fill:#000000;}
</style>
<path class="st2" d="M507.3,35.5c4.1-2,9,0.4,10.7,4.4c21.1,41.9,42.2,83.8,63.3,125.7c1.4,2.8,3,5.5,3.9,8.5c0.9,2.7-0.2,5.4-1.4,7.8
	c-21.9,43.4-43.8,86.9-65.7,130.4c-1.5,3.7-5.7,6.3-9.7,5.1c-3.5-0.8-5.3-4.2-6.7-7.1c-20.8-41.5-41.7-82.9-62.6-124.4
	c-2.3-4.3-5.4-9.4-2.5-14.2c21.9-43.7,44-87.4,66-131.1C503.7,38.5,505,36.4,507.3,35.5"/>
<path class="st0" d="M501.4,75.4c1.9-3.8,3.5-7.9,6.6-11c1.2,1.9,2.1,3.9,2.6,6.1c7,29.9,14.4,59.7,21.3,89.7
	c1.2,3.2-2.2,4.5-4.8,4.6c-21,2.6-42.1,5.2-63.2,7.4c-2.6,0.1-6.7,0.8-7.6-2.4c-0.3-3.7,1.3-7.2,2.9-10.5
	C473.3,131.3,487.4,103.3,501.4,75.4z"/>
<path class="st1" d="M514.8,67.4c0.9,1,1.7,2.1,2.4,3.3c16.2,32.2,32.5,64.4,48.6,96.7c0.7,1.2,1.4,4.5-0.9,4.2
	c-5.8-0.8-11.2-3.2-16.9-4.4c-4.5-1.2-10.4-2.4-11.6-7.7c-6-24.1-11.6-48.3-17.4-72.5C517.7,80.5,515.4,74.1,514.8,67.4z"/>
<path class="st1" d="M471,176c17.7-2.2,35.4-4.2,53.1-6.4c2.2-0.2,4.6-0.6,6.5,0.7c1.3,3.1,0.4,6.5,0,9.7c-5.4,31.6-11.3,63-17,94.6
	c-1.2,5.8-1.8,11.8-3.6,17.4c-1.2-1.1-2.5-2.4-3.2-3.9c-16.6-33-33.3-66-49.9-99.1c-1.1-2.4-2.4-5.1-1.9-7.8c0.4-2.1,2.6-3,4.4-3.5
	C463.3,176.7,467.2,176.5,471,176z"/>
<path class="st0" d="M538.5,170.5c3.3-0.7,6.5,0.8,9.7,1.5c5.9,1.8,12,2.7,17.7,5.2c1.9,0.7,1.1,2.9,0.7,4.4
	c-2.1,6-4.8,11.9-7.7,17.5c-10.4,20.6-20.8,41.2-31.1,61.8c-3.4,6.6-6.4,13.4-10.2,19.8c0-4.6,1.1-9.1,1.9-13.6
	c5.3-29.5,10.7-59,16-88.4C536.1,175.7,536.5,172.6,538.5,170.5z"/>
</svg>
