<svg version="1.1" xmlns="http://www.w3.org/2000/svg" xmlns:xlink="http://www.w3.org/1999/xlink" x="0px" y="0px" viewBox="0 0 1000 1000" style="enable-background:new 0 0 1000 1000;" xml:space="preserve">
<style type="text/css">
	.st0{fill:%%ST0%%;}
	.st1{fill:%%ST1%%;}
</style>
<path class="st1" d="M713.9,876c-1-8.5-3.2-16.8-6.2-24.8c-2.1-6.9-4.6-13.9-4-21.2c0.7-11,6-21.1,6.9-32.1c0.6-6.9-2.3-13.6-6.6-18.9
	c-7.9-9.8-17.9-17.6-27.9-25c-15.7-11.4-32.6-21.3-49.9-30.2c-9.7-4.7-19.5-10-30.3-11.3c-5.9-0.5-12.8,0.8-16.5,5.8
	c-2.1,2.3-3.5,6.1-7.3,6c-5.3,0-10.3-3.3-15.6-1.6c-3.9,0.7-8,5.2-5.1,9.1c4.1,2.4,9.1,3.1,12.6,6.3c3.1,2.7,3.9,7,4,10.9
	c0.1,7.4-1.1,14.8-2.4,22.1c-3.1,15.9-6.1,31.9-9.8,47.7c-5.4,25.8-10.5,51.7-16.5,77.3c-1.6,6.9-3.5,13.7-6,20.3
	c-1.1,2.7-2.8,5.9-6.1,6.2c-3.4,0.2-5.4-3.2-6.6-5.9c-2.8-6.6-4.6-13.6-6.5-20.5c-13.5-51.9-32.3-102.6-58.8-149.3
	c-2.2-3.9-5.1-8.8-2.7-13.2c2.4-5.1,8.2-7.1,13.4-7.8c3.4-0.7,7.4-0.4,10.1-2.9c2.6-2.1,2.4-6.6-0.2-8.6c-3.7-3.2-9-3.3-13.7-2.7
	c-7.1,1.3-14.5,3-21.7,1.2c-7-1.9-11.4-8.7-18.5-10.5c-6.6-1.8-13.5-0.8-20.1,0.7c-14.8,3.7-28.8,10-42.7,16.1
	c-28,13-55.1,27.8-80,46.1c-9.3,6.9-18.7,13.9-26.8,22.2c-4.3,4.5-8.2,10.2-7.9,16.7c0.7,10.4,8.8,18.5,9.4,28.9
	c0.2,8.7-4.7,16.5-5.4,25.1c-0.1,2.6,0.8,6.3,3.9,6.8c3.8,0.5,6.3-3,7.6-6.1c2.7-6.3,6.2-13,12.5-16.3c5.7-3.1,12.6-1.7,18.2,1
	c7.3,3.7,13,9.6,18.7,15.3c10.8,11.7,21.2,23.8,30,37.1c17,26,23.8,57.4,23.6,88.2c0,5.4-0.2,10.7-1.1,16h47.9h111h12.4H600h23.3
	c-1.2-8.9,3-17.2,6.6-25.1c14.5-29.3,30.4-57.9,44.9-87.2c3.2-6,5.6-12.7,11-17.1c2.7-2.4,6.9-2.2,9.5,0.1c4.9,4,5.5,10.7,7.8,16.2
	c1.2,2.7,5.1,3.2,7.2,1.2C713.7,885.3,714.3,880.2,713.9,876z"/>
<path class="st0" d="M389.6,726.3c9-2.8,18.7-5.6,28.1-3c8.3,2.9,13.8,10.4,18.6,17.3c7.2,10.5,13.2,21.7,19.4,32.7
	c15.4,27.8,27.5,57.3,37.8,87.3c8.8,25.6,14.6,52.1,19.3,78.7c3.7,20.1,6.9,40.3,8,60.7h-111c-11.8-28.6-25.2-56.8-42-82.8
	c-15.5-24.5-34.1-46.9-54.2-67.7c-12.8-13.3-27.8-24.2-41.6-36.5c-3-2.8-6.2-5.9-6.8-10.1c-0.5-4,2.3-7.3,4.9-10
	c7.1-7,15.6-12.5,23.8-18.2c14.8-10.3,30.3-19.4,46.2-27.8C355.8,738.4,372.5,731.8,389.6,726.3z"/>
<path class="st0" d="M587.5,734.4c2.6-4.2,8-5,12.5-4.3c8.7,1.4,16.7,5.5,24.4,9.6c16.8,9.2,33,19.3,48.5,30.5
	c7.8,6.1,16.6,11.7,21.2,20.8c4.2,8.9,1.4,19-1.1,28c-8.8,29.5-22.2,57.3-36.6,84.4c-17.8,32.8-35.6,65.6-56.3,96.7h-66.8
	c-2.3-14.9-2.6-30.2,0.2-45c3.3-17.5,8.2-34.6,12.6-51.9c8-29.4,14.7-59,21.6-88.7c5-20.5,10-41,14.2-61.7
	C583.3,746.5,584.2,740,587.5,734.4z"/>
</svg>
