<svg version="1.1" xmlns="http://www.w3.org/2000/svg" xmlns:xlink="http://www.w3.org/1999/xlink" x="0px" y="0px" viewBox="0 0 1000 1000" style="enable-background:new 0 0 1000 1000;" xml:space="preserve">
<style type="text/css">
	.st0{fill:#010100;}
	.st1{fill:#EDEDED;}
	.st2{fill:#FFD400;}
	.st3{fill:#000000;}
</style>
<path class="st0" d="M666.8,497.9c-1.5-4.1-3-8.4-6.1-11.8c-3.2-3.4-8.3-4-12.7-3.6c-9.2,1-18.4,2.8-27.7,3.6
	c-29.4,2.6-58.9,4.1-88.4,3c-24.8-0.7-49.6-2.5-74.2-5.5c-24.5-3-48.5-8.7-72.7-13.3c-6.3-1-13.2-1.4-18.9,1.8
	c-6.9,4-10.4,11.7-13.4,18.7c-6.5,16.9-9.9,34.9-11.4,52.9c-13.2-2-26.3-4.2-39.4-6.2c-11.7-1.8-23.2-4.4-35-5.2
	c-9.7-1.1-20.1-0.1-28.7,4.9c-8.8,5-16.6,12.7-19.3,22.7c-1.3,5.2-1.3,11.5,2.7,15.5c4.6,3.9,11.7,4.3,16.8,1.1
	c6.4-3.9,9.6-11,15.3-15.8c6.1-5.3,14.4-7.3,22.3-6.8c8.3,0.5,16.5,2,24.7,3.3c13.3,2.1,26.7,4.2,40,6.4c0,23.5,2.3,47.5,11,69.6
	c2.5,6.3,6.2,12.2,11.5,16.4c4.8,3.8,10.3,6.6,15.8,9.2c15.5,7.3,32.3,11.3,49,15c24,4.9,48.3,9.2,72.9,9.7
	c23.7,1.2,47.4,0.5,70.9-2.4c20.2-2.3,40.3-6,59.6-12.5c6-2.1,12.1-4.9,16.4-9.7c4.1-4.5,7.1-9.9,9.8-15.4
	c12.7-25.2,17.4-53.6,18-81.6C675.9,540.4,673.9,518.5,666.8,497.9z"/>
<path class="st1" d="M369.1,487.1c2.6-3.2,6.9-4.6,11-4.1c7.5,0.7,14.7,2.7,22,4.2c23.4,5.1,47.1,8.5,70.8,11.5
	c31.2,2.8,62.6,5.1,94,3.7c25.4,0,50.8-2.4,75.9-6.3c3-0.4,6.5-0.9,9.1,1c3.2,2.4,4.5,6.5,5.6,10.2c2.5,9.2,3.4,18.7,4.7,28.1
	c1,8,1.9,16,1.5,24.1c-8-25.6-35.2-43-61.7-40.8c-22,1.3-42.5,15.4-51.7,35.4c-14.5-5.8-31.1-5.9-45.5,0.1
	c-6.8-14.7-19.6-26.5-34.9-32c-14.1-5.2-30.1-4.9-43.9,0.9c-13.7,5.5-25.1,16.1-31.8,29.3c-13.7-2.2-27.3-4.3-41-6.5
	c0.6-12,2.7-23.9,5.9-35.4C361.4,502.2,363.6,493.7,369.1,487.1z"/>
<path class="st1" d="M353.1,565.6c11.7,2,23.5,3.7,35.2,5.7c-1.9,14.1,1.1,28.7,8.6,40.8c7.4,12,19,21.3,32.4,25.9
	c15.4,5.3,33,4.2,47.6-3.3c14.8-7.4,26.2-21,31-36.8c2.5-7.9,3-16.2,2.4-24.4c10.8-5.2,23.8-5.1,34.7-0.2
	c-1.2,13.7,1.8,27.9,9.3,39.5c10.2,16.3,28.5,27.3,47.7,28.4c21.5,1.7,43.3-9.1,55.2-27c-3.3,10.8-7.1,21.9-14.1,30.9
	c-6.3,7.1-15.9,9.9-24.7,12.6c-22.3,6.1-45.3,10.2-68.4,11.7c-21.4,1-42.8,1.1-64.1-0.6c-19.7-1.7-39.3-4.9-58.5-9.4
	c-13.8-3.2-27.3-7.8-40.2-13.6c-8.5-3.9-16.9-8.8-22.3-16.6c-4.6-6.4-6.5-14.2-8-21.8C354.4,593.5,353.5,579.5,353.1,565.6z"/>
<path class="st2" d="M442.5,538.8c8-1.1,16.3-0.3,23.6,3.1c10.4,4.6,18.8,13.7,22.4,24.5c3.7,10.8,2.7,23.2-2.8,33.3
	c-6.1,11.4-17.8,19.6-30.6,21.3c-10.4,1.5-21.3-1-29.9-7.1c-9.2-6.4-15.6-16.7-17.2-27.8c-1.8-11.3,1.5-23.3,8.7-32.2
	C423.1,545.8,432.5,540.4,442.5,538.8"/>
<path class="st2" d="M599.5,538.8c8.9-1.3,18.3,0,26.3,4.4c12.7,6.7,21.4,20.4,21.8,34.8c0.5,10.2-2.9,20.5-9.4,28.3
	c-6.9,8.5-17.4,14-28.3,14.9c-11.4,1.1-23.1-2.8-31.5-10.5c-7.4-6.6-12.2-15.9-13.4-25.7c-1.5-11.3,2-23.1,9.2-31.8
	C580.5,545.6,589.7,540.3,599.5,538.8"/>
<path class="st3" d="M448.8,545.7c2.4-2.2,6.6-1.5,8.1,1.4c1.2,2.5,1.2,5.3,1.7,8c3.2,1.7,6.4,3.9,7.9,7.3c2.1,4.1,1.3,9-1,12.9
	c4.8,3.5,8.2,9.6,6.8,15.6c-0.7,3.5-3,6.4-5.5,8.9c0.8,2.9,2.8,6.1,1.1,9.1c-1.3,2.8-5.2,3.8-7.7,2c-2.2-1.5-2.7-4.3-3.7-6.5
	c-0.7,0.2-2,0.6-2.7,0.8c-0.4,3,0.8,6.6-1.5,9c-2.1,2.4-6.2,2.2-8.1-0.3c-1.5-2-1.4-4.8-1.8-7.2c-2.5,0-5.2,0.7-7.6-0.4
	c-2.9-1.3-4.1-5.3-2.2-8c1.2-2.2,3.9-2.5,6.1-2.8c-1.5-8-3-15.9-4.4-23.9c-2,1.5-4.4,3.5-7.1,2.4c-3.1-1-4.7-5-3-7.8
	c2.1-3.4,5.6-5.6,8.9-7.7c-0.5-2.9-1.7-6-0.2-8.8c1.5-2.7,5.5-3.4,7.8-1.5c1.9,1.3,2.2,3.7,3,5.7c1.1-0.2,2.1-0.4,3.2-0.6
	C446.9,550.8,446.4,547.6,448.8,545.7 M444.3,565.4c0.5,3,1.1,6.1,1.6,9.1c3-1.1,6.2-2,8.7-3.9c1.1-0.8,2.4-2.1,1.7-3.6
	C453.2,563.8,448.2,564.4,444.3,565.4 M447.9,585.4c0.6,3.1,1.2,6.1,1.8,9.2c3.7-0.8,7.8-1.5,10.7-4.2c1.9-1.6,0.9-4.6-1-5.6
	C455.7,582.5,451.6,584.7,447.9,585.4z"/>
<path class="st3" d="M606,546c2.2-2.4,6.4-1.9,8.2,0.8c1.5,2.4,1.2,5.4,1.9,8.1c2.6,2,5.8,3.5,7.4,6.6c2.7,4.2,1.9,9.7-0.5,13.9
	c3.4,2.5,6.2,6.2,6.8,10.5c1.1,5.2-1.7,10.5-5.6,13.8c0.8,2.8,2.4,5.8,1.3,8.8c-1,3-5,4.3-7.6,2.6c-2.4-1.4-2.9-4.2-3.9-6.6
	c-0.7,0.1-2.1,0.4-2.8,0.5c-0.1,2.6,0.5,5.4-0.6,7.9c-1.4,3-5.7,3.9-8.2,1.8c-2.5-1.9-2.2-5.3-2.7-8c-2.8,0-5.9,0.9-8.4-0.8
	c-2.7-1.8-3.1-6.1-0.7-8.3c1.4-1.5,3.6-1.6,5.5-2c-1.5-8-3-16-4.4-24c-1.6,1.3-3.4,3-5.7,2.8c-3.8-0.1-6.5-4.7-4.5-7.9
	c2.1-3.5,5.7-5.7,9-7.9c-0.5-2.7-1.9-5.6-0.5-8.2c1.2-2.9,5.2-3.9,7.7-2.1c2.1,1.2,2.5,3.8,3.2,5.9c1.1-0.2,2.2-0.3,3.3-0.4
	C604.4,551,603.8,547.9,606,546 M601.9,565.3c0.4,3.1,0.9,6.2,1.5,9.2c3.3-1.2,6.9-2.2,9.5-4.6c1-0.7,1.6-2.4,0.5-3.3
	C610.3,563.8,605.7,564.5,601.9,565.3 M605.4,585.4c0.6,3,1.2,6.1,1.7,9.1c3.8-0.8,8.1-1.5,11-4.4c1.7-1.8,0.4-4.7-1.6-5.6
	C612.9,582.6,609,584.8,605.4,585.4z"/>
</svg>
