<svg version="1.1" xmlns="http://www.w3.org/2000/svg" xmlns:xlink="http://www.w3.org/1999/xlink" x="0px" y="0px" viewBox="0 0 1000 1000" style="enable-background:new 0 0 1000 1000;" xml:space="preserve">
<style type="text/css">
	.st0{fill:#FFD400;}
	.st1{fill:#000000;}
</style>
<path class="st1" d="M484.1,387.7c29.2-5.4,59.8-2.6,87.7,7.4c18.3,6.4,35.8,15.7,50.5,28.6c23.1,20.9,39,49.2,46.5,79.3c5,18.5,7,37.8,6.9,56.9
	c-0.3,24-3.6,48.1-12.2,70.5c-6,14.8-13.2,29.4-23.2,42c-9.1,11.5-19.4,22.2-32,29.9c-2.6,1.8-6.6,1.1-8-1.8c-1.7-2.7,0-6.1,2.5-7.6
	c6.3-4.2,12.3-9,17.5-14.6c2.1-2.3,4.6-4.5,5.2-7.7c-9.5,2.3-18.9,5.1-28.5,6.8c-25.5,4.4-51.3,6.8-77.2,6.6
	c-19.4-0.3-38.8-1-58-4.1c-22.5-3.6-44.9-7.7-66.6-14.7c-3.7-1.1-7.2-3.2-11.2-3c1,5,4.5,8.9,7.5,12.8c7.8,9.7,17.8,17.2,27.7,24.5
	c3.4,2,3.3,8-0.6,9.5c-3.4,1.6-6.5-1.1-9.3-2.7c-24.3-16-42.9-39.8-55.1-66c-7.4-16.2-11.6-33.8-13.7-51.4
	c-2.6-20.9-1.8-42.2,1.8-62.9c5.5-32.1,20.2-62.9,43.3-86.1C412.2,413,447,394.2,484.1,387.7 M495.5,397.8
	c-20.1,2.4-39.8,8.5-57.7,18c-15.5,8.2-30.1,18.3-41.9,31.2c-4.2,5-8.2,12-5.5,18.6c1.9,4.8,7.1,6.9,11.8,7.9
	c19.2,4.3,38.5,8,58,10.4c46.1,5.3,92.6,7.3,138.9,3.9c11.5-0.8,23.1-1.4,34.5-3.4c4-0.7,8.5-2.9,9.2-7.3c1-5.8-2.6-10.9-5.2-15.8
	c-9.5-16.9-23.4-31.1-39.9-41.3C567.3,401.9,530.8,393.5,495.5,397.8"/>
<path class="st0" d="M374.4,483.6c4.1-1.3,8.5-0.3,12.6,0.4c11.6,2.3,23.2,5.1,34.9,7.1c17.5,3.1,35,5.6,52.6,7.7
	c29.8,2.6,59.7,4.8,89.5,3.6c25.9-0.1,51.7-2.1,77.2-6.2c3.3-0.4,7-1.3,10.2,0.4c3.2,2,4.6,5.7,5.8,9.1c2.4,8.2,3.4,16.7,4.5,25.2
	c3.3,22.4,2.9,45.4-0.8,67.7c-3.1,15.1-7.4,30.4-15.8,43.5c-4.3,7-12.2,10.5-19.6,13.1c-15.5,5.1-31.5,8.2-47.6,10.9
	c-24.5,4-49.3,4-74,3.5c-24.8-0.8-49.5-4.3-73.7-9.8c-14.4-3.2-28.6-7.8-42.1-13.9c-7.6-3.4-15-7.5-20.7-13.6
	c-6.5-6.8-9.7-16-11.8-25c-4.1-17.5-5.1-35.6-4.2-53.6c1-19.9,4.8-39.7,12.4-58.1C366,490.9,368.9,485.4,374.4,483.6"/>
<path class="st1" d="M424.3,560.2c29.5-4.2,60.2,12.4,73.8,38.8c2.1,4.2-0.5,9.9-5,11.1c-4.1,1.3-8.2-1.4-10-5c-7.6-13.1-20.2-23.2-34.9-27.2
	c-16.1-4.6-34.1-1.2-47.5,8.7c-2.4,1.6-4.6,3.8-7.6,4.1c-4.1,0.6-8.4-2.6-8.8-6.7c-0.5-3.2,1.2-6.3,3.6-8.2
	C398.2,567.4,411,561.9,424.3,560.2z"/>
<path class="st1" d="M589.5,574.8c19.5-3.4,40.5,3.3,54.3,17.5c3.9,4,2.3,11.5-3.2,13.2c-3.7,1.3-7.4-0.7-9.9-3.2c-9.9-9.1-23.9-13.7-37.3-11.6
	c-13.2,1.9-25.1,9.2-34,18.9c-1.9,2.2-4.4,4.3-7.5,4.3c-4.7,0.3-8.8-4.3-8.1-8.9c0.5-3.5,3.2-6,5.5-8.5
	C560.2,585.4,574.2,577.3,589.5,574.8z"/>
</svg>
