<svg version="1.1" xmlns="http://www.w3.org/2000/svg" xmlns:xlink="http://www.w3.org/1999/xlink" x="0px" y="0px" viewBox="0 0 1000 1000" style="enable-background:new 0 0 1000 1000;" xml:space="preserve">
	<style type="text/css">
	.st0{fill:#000000;}
</style>
<path class="st0" d="M671.3,569.5c5.1-1.8,9.3,3.8,9,8.5c-0.2,10-6.5,19.1-14.4,24.9c-9.9,6.8-22.2,8.6-34,9.3c-30.5,1.1-60.6-5.9-91-7
	c-18.1-1.1-36.3-0.4-54.2,2.6c-18.1,3-36.5,6.6-53.1,14.9c-11.2,5.6-21.4,13-30.9,21c-5,4.1-9.8,8.7-15.9,11.1
	c-3.9,1.5-8.8,1.2-11.7-1.9c-3.6-3.8-3.1-9.9-0.2-13.9c3.3-4.7,8.2-8,12.8-11.3c9.8-6.5,20.3-12.1,31.2-16.6
	c20.1-8.3,41.5-12.8,63-15.8c26.9-3.8,54.3-3,81.2,0C580,597,596.9,600,614,600c12.2,0.4,25,0.5,36.3-4.8
	c6.1-2.9,11.1-8.1,13.2-14.6C665,576.3,666.5,571,671.3,569.5z"/>
<path class="st0" d="M568.4,647.5c13.9-1.9,28.3,0.1,40.9,6.3c3.3,1.3,4.6,6,2,8.6c-2.1,2.3-5.5,1.7-8,0.4c-14.4-6.6-31.2-6.5-46.2-1.8
	c-7.4,2.2-14.5,5.6-21.3,9.3c-2.7,1.6-6.8,0.8-7.9-2.3c-1.2-2.6,0.4-5.8,2.8-7C542.4,654.2,555.1,649.3,568.4,647.5z"/>
</svg>
