<svg version="1.1" xmlns="http://www.w3.org/2000/svg" xmlns:xlink="http://www.w3.org/1999/xlink" x="0px" y="0px" viewBox="0 0 1000 1000" style="enable-background:new 0 0 1000 1000;" xml:space="preserve">
<style type="text/css">
	.st0{fill:#C18300;}
	.st1{fill:#E4A828;}
	.st2{fill:#000000;}
</style>
<path class="st2" d="M468.2,342.3c21.6-0.9,43.3,2.2,64,8.3c32.4,10.4,63.3,25.9,90.3,46.8c23.6,18.8,45.1,40.4,63.8,64.2
	c9.8,12.6,18.8,25.8,26.4,39.8c10.1,19.3,18.2,39.9,20.8,61.7c2.6,21.7,2.1,44.1-4.6,65c-8.4,26.4-25.3,49.5-45.8,67.9
	c-13.2,11.9-27.6,22.5-43.2,30.9c-12.8,6.9-25.8,13.5-39.4,18.6c-23.4,9-48.2,14.2-73.3,15.5c-38.2,2-76.7-2.3-113.6-12.2
	c-17.6-4.7-34.9-10.3-51.6-17.6c-16-7-32-14.6-46.3-24.6c-15.1-10.9-29.1-23.8-39.9-39c-6.8-9.7-12.6-20.1-16.8-31.2
	c-7.6-20-9.2-42.2-4.4-63c3.7-15.3,9.8-30.1,18.8-43c8.4-12,18.4-22.8,29.4-32.4c2.8-2.1,2.8-6,3.8-9.1
	c4.3-19.4,10.1-38.6,18.5-56.7c7.6-16,18.1-30.7,31-42.8C386.3,360.8,426.9,344,468.2,342.3"/>
<path class="st0" d="M458.5,363.7c18.7-2,37.7-1,56.1,3c21.9,4.4,43.1,12.2,62.5,23.2c23.6,13.5,45.7,29.8,64.9,49.1
	c14.2,14.3,26.9,30.1,38.5,46.6c17.7,24.9,30.4,53.9,33.6,84.5c2.8,23.1,0.3,47.2-9.8,68.3c-11.9,25.2-31.7,46.1-55.3,60.7
	c-32.4,20.1-69,33.7-107,38.2c-24.5,3.1-49.4,3.6-74.1,1.1c-18.3-2.1-36.5-5.3-54.4-9.7c-36.1-9.6-72-23.3-101.5-46.8
	C287,662,270.6,630.3,272,598c0.7-19.3,7.8-37.8,17.9-54c7.3-11.7,16.7-21.9,26.5-31.5c6.8-6.4,7.9-16.2,10.1-24.7
	c4.6-17.2,9.5-34.5,17.9-50.3c9.1-17.2,21.2-33.1,36.9-44.9C403.7,375.8,431,367.1,458.5,363.7"/>
<path class="st1" d="M349.3,568.4c7-2.4,15.2,2.1,17.2,9.1c2.5,7.6-2.7,16.6-10.6,18.2c-7,1.8-14.8-3-16.4-10.1
	C337.6,578.5,342.2,570.5,349.3,568.4z"/>
<path class="st1" d="M316.4,573.5c5.7-2.4,12.4,3.4,10.7,9.4c-1.2,5.6-8.8,7.9-13,4C309.5,583.4,310.8,575.3,316.4,573.5z"/>
<path class="st1" d="M318.4,599.5c7.9-2.2,16.9,0.5,22.4,6.7c7.6,8.2,8.1,22,0.9,30.6c-5.2,6.6-14.4,10-22.6,7.9
	c-9.6-2-17.1-10.9-17.7-20.7C300.2,613.1,307.7,602.1,318.4,599.5z"/>
</svg>
