<svg version="1.1" xmlns="http://www.w3.org/2000/svg" xmlns:xlink="http://www.w3.org/1999/xlink" x="0px" y="0px" viewBox="0 0 1000 1000" style="enable-background:new 0 0 1000 1000;" xml:space="preserve">
<style type="text/css">
	.st0{fill:#EDEDED;}
	.st1{fill:#000000;}
	.st2{fill:#000000;}
</style>
<path class="st1" d="M413.4,477.6c10.3-2.6,21.5,0,30.5,5.5c10.9,6.7,18.8,17.1,24.7,28.2c9.3,17.8,13.8,37.8,15.2,57.7
		c1.4,22.4-1.1,45.4-9.3,66.4c-5.2,13-12.7,25.6-24,34.1c-8.6,6.6-19.7,10.1-30.5,8.4c-11.7-1.6-21.9-8.7-29.5-17.4
		c-10.4-11.9-17-26.7-21.2-41.8c-5.9-21.4-7.2-44-4.4-65.9c2.5-18.5,7.9-37,18.4-52.5C390.4,489.7,400.8,480.7,413.4,477.6"/>
<path class="st1" d="M609.4,496.8c9.7-2.2,20,1.1,27.6,7.2c9.6,7.6,15.6,19,19.3,30.5c6.1,19.5,6.7,40.4,3.7,60.5c-2.9,18.2-8.8,36.3-19.8,51.4
		c-6.9,9.5-16.5,17.8-28.2,20.3c-9.7,2.3-20.2-0.6-28-6.8c-9.7-7.6-15.7-18.9-19.4-30.3c-6.4-20.1-6.9-41.8-3.5-62.5
		c3-17.6,8.9-35,19.4-49.6C587.5,507.7,597.4,499.3,609.4,496.8"/>
<path class="st0" d="M414.4,488.7c9.3-2.6,19.4,0.2,27,6c10.3,7.7,17.2,19.1,22.1,30.8c8.5,21,11.3,44,10,66.5
		c-1.3,17.9-5.2,35.9-14,51.7c-5.5,9.7-13.3,18.8-24,22.8c-8.5,3.3-18.4,2-26.2-2.8c-10.6-6.4-17.9-16.9-23.2-27.9
		c-9.1-19.2-12.6-40.6-12.7-61.8c0.3-21.3,4-43.1,14.5-61.9C394,501.8,402.7,492,414.4,488.7"/>
<path class="st0" d="M611.5,507.7c9.1-1.7,18.4,2.7,24.3,9.5c9,10.2,13.1,23.7,15.2,36.8c3.1,21.6,0.9,44-6.5,64.6
		c-4.5,12.2-11,24.3-21.2,32.7c-6.6,5.5-15.7,8.9-24.3,6.5c-10-2.7-17.2-11.3-21.6-20.3c-7.8-16.1-9.7-34.4-8.9-52.1
		c1.3-19.9,6.2-40.1,16.9-57.1C591.5,519,600.1,510.1,611.5,507.7"/>
<path class="st2" d="M428.4,518.6c6.4-2.2,13.5,2.5,14.7,9.1c6.9,30.2,6.9,61.9,1.4,92.4c-1.1,5-1.5,11.1-5.9,14.5c-5.1,4.3-13.9,2.5-16.6-3.7
	c-2.7-5-0.2-10.6,0.6-15.8c4.8-27.4,4.6-55.9-1.4-83.1C419.7,526.5,423,520.3,428.4,518.6z"/>
<path class="st2" d="M616.5,536.7c4.7-1.9,10.4,0.9,12,5.7c1.5,4.7,1.7,9.7,2.2,14.6c1.6,23.4-1.3,47-8.4,69.3c-1,3.5-2.7,7.2-6.2,8.8
	c-4.7,2.3-10.9-0.2-12.6-5.1c-1.8-4.3,0.6-8.6,1.8-12.7c6.7-23,8.8-47.5,5.1-71.2C610.1,542,612.7,538,616.5,536.7z"/>
</svg>
