<svg version="1.1" xmlns="http://www.w3.org/2000/svg" xmlns:xlink="http://www.w3.org/1999/xlink" x="0px" y="0px" viewBox="0 0 1000 1000" style="enable-background:new 0 0 1000 1000;" xml:space="preserve">
<style type="text/css">
	.st0{fill:#EDEDED;}
	.st1{fill:#FF002C;}
	.st2{fill:%%ST2%%;}
	.st3{fill:#000000;}
</style>
<path class="st3" d="M823.2,580.3c16.6-2,33.5,1.2,48.8,7.7c13.2,5.7,25.4,14.4,33.7,26.3c11.1,15.9,16,35.5,15.5,54.7
	c-0.5,16.4-4.9,33.2-14.8,46.6c-6,8.3-14,14.8-22.5,20.4c-14.9,9.1-32.7,12.4-50,12.4c-21.5-0.5-42.4-9.7-57.8-24.5
	c-3.7-3.3-6.5-7.5-10.5-10.5c-4-2.8-9.1-2.5-13.7-2.5c-11.3,0.2-22.7,0.4-34.1,0.2c-4.9-0.2-7.8-6.8-4.3-10.4
	c10.2-10.1,20.8-19.9,31-30c4.1-4.5,2.8-11,2.9-16.5c1-16.1,7.3-31.8,17.1-44.5C778.8,592,801.1,582.5,823.2,580.3"/>
<path class="st3" d="M799.8,768.8c5.2-4.8,11.9-8.4,19.1-8.7c12.2-0.7,24,6.7,29.7,17.3c4.9,9,7.2,19.6,5.3,29.7c-0.9,5.5-3.4,10.6-6.2,15.5
	c17.3,7.4,33.8,21.2,38.4,40.2c3.3,13.6-2.9,27.6-12.7,37c1.7,14.5-5.6,30.3-19,36.7c-2.7,1.4-5.7,2.2-8.6,3
	c-5,17.3-25.5,28.1-42.6,22.4c-6.6-2-12.3-6.3-16.2-12c-9.8,2-20.2,2.3-29.7-1.2c-9.8-3.6-18.7-10.8-22.8-20.6
	c-7.7,0.6-16-0.5-22-5.8c-5.6-4.8-7.4-12.3-8-19.3c-0.9-14-0.8-28.1-0.1-42.1c0.6-13.7,3.7-28.2,12.8-38.9c4.1-5.5,11.1-8.9,18-7.8
	c5.8,0.7,11.8,4.3,17.5,1.5c8.9-4.2,15.7-11.7,22.3-18.8C783.4,787.7,790.6,777.4,799.8,768.8"/>
<path class="st0" d="M794,606.9c16.8-11.2,38.4-14.5,58-9.7c13.6,3.5,26.3,10.7,35.7,21.1c9.5,10.4,15.7,23.9,17.1,38
	c2,17.4-3.5,35.4-14.7,48.8c-18.8,23.5-53.4,32.3-81.2,21.1c-13.7-6.7-26.8-16-34.7-29.3c-1.2-2.2-3.4-4.1-6.1-3.7
	c-9.2,0.4-18.5,1.3-27.6,2.6c7.3-6.1,14.7-12.2,21.1-19.2c3.6-3.6,2.5-9,2.6-13.5c-0.2-6.9,0.4-13.8,2.3-20.4
	C771.1,628,781,615.1,794,606.9"/>
<path class="st1" d="M799.4,634.3c5-4.8,12.4-6.8,19.2-5.8c6.2,1,11.7,4.4,16.2,8.7c4.3-4.2,9.6-7.5,15.5-8.6
	c7.1-1.2,14.9,0.8,20.1,5.9c8.2,7.9,10.2,21.2,5.6,31.4c-5.1,11.3-16.1,17.9-24.5,26.5c-3.2,3.2-5.5,7.2-9,10
	c-5.1,3.9-13.2,3.3-17.5-1.6c-2.8-3.2-5.3-6.7-8.4-9.6c-7.3-7.3-16.4-13.2-21.7-22.3C788.5,658.3,790.1,642.9,799.4,634.3z"/>
<path class="st2" d="M817.8,775.7c4.4-2,9.8-1.2,13.4,2c7.9,6.5,10.1,17.9,8,27.5c-2.9,10.1-10.9,18.1-20.2,22.6
	c-8,3.8-16.7,5.7-25.3,7c-3.1,0.2-5.3,4-3.3,6.6c2,2.8,5.8,1.6,8.7,1.5c13.1-1.2,25.8-5.6,38.9-6.8c7.7-0.7,15.4,1.6,21.6,6.4
	c8.4,6.3,15.2,15.7,16,26.5c0.7,6.5-1.6,13.4-6.8,17.6c-5.7,4.6-13.6,5.3-20.6,4.4c-8.4-1.3-16.8-5.3-21.8-12.4
	c-3.7-5.3-5-13-1.2-18.6c2.3-3.6,6.9-4.6,11-4.3c8.6,0.6,16.6,4.7,23.5,9.8c2.7,2.2,6.8-0.2,6.7-3.5c-0.6-3.4-3.8-5.1-6.4-6.8
	c-8.6-5.1-18.5-9.1-28.7-8c-6.5,0.7-12.4,5-15,11c-2.6,5.2-2.3,11.3-1.2,16.9c-8.3,3.5-16.3,9.8-18.6,19c-1.2,4-0.3,8.2,0.5,12.2
	c0.4,2.1-2.2,2.8-3.5,4c-8.4,5.2-12.9,15.7-10.7,25.5c-9.4,3-19.7,0.5-28-4.4c-5.5-3.3-10.7-7.8-12.9-14c-1.2-3.9-1.8-8.5,0.6-12
	c1.5-2.5,4.6-4.3,7.6-3.5c4.7,1,9.5,4.8,14.5,2.5c3.1-0.9,4.2-5.3,1.5-7.3c-3.3-1.9-7-3.4-9.9-6c-15.3-11.7-18.9-36-7.4-51.5
	c7.2-9.3,18-14.7,27.1-21.9c10.5-7.8,19.2-17.6,27-28C806.9,784.2,811.4,778.6,817.8,775.7z"/>
<path class="st2" d="M732,828c4.2-1.9,9-0.6,12.8,1.6c-6.1,5.6-10.5,12.9-12.1,21.1c-2.1,10.1-1,20.5,1.4,30.4
	c1.5,5.2-1.6,10-3.3,14.7c-1.7,4.1-2.1,8.5-2.4,12.9c-3.1-0.3-5.9-2.1-6.7-5.2c-2.8-8.8-2.7-18.2-3.1-27.4
	c-0.1-11.9-0.1-24.2,3.9-35.6C724.3,835.5,727,830.3,732,828z"/>
<path class="st2" d="M805.1,895.1c2.1-6,7.9-9.7,13.5-12c9.3,13.1,26.6,19.3,42.2,16.5c1.3,6.7,0.9,14.3-3.2,20
	c-4.6,6.2-13.2,8-20.5,6.8c-10.3-1.7-20.1-6.8-27-14.6C806.1,907.4,803.2,901.1,805.1,895.1z"/>
<path class="st2" d="M791,927.9c0.9-5.8,5.5-10.3,10.8-12.4c8,10,19.7,16.6,32.2,19.4c-0.4,6.3-4.3,12.5-10.5,14.6
	c-9.6,3.2-20.2-1-27.2-7.8C792.7,938.2,790,933.1,791,927.9z"/>
</svg>
