<svg version="1.1" xmlns="http://www.w3.org/2000/svg" xmlns:xlink="http://www.w3.org/1999/xlink" x="0px" y="0px" viewBox="0 0 1000 1000" style="enable-background:new 0 0 1000 1000;" xml:space="preserve">
<style type="text/css">
	.st0{fill:#EDEDED;}
	.st1{fill:#FFD400;}
	.st2{fill:#FF002C;}
	.st3{fill:#464B4B;}
	.st4{fill:#000000;}
</style>
<path class="st4" d="M509,359c-10.8-13.2-26.8-21.3-43-25.8c-20.2-5.2-41.3-6.1-62.1-4.7c-7.6,0.5-15.2,1.9-22.8,2.3c-3.6,0-7.6,0-10.6-2.3
	c-2.6-2.4-3-6.2-2.8-9.5c0.3-5.9,1.2-12,4.2-17.2c2.5-4.4,6.2-7.8,9.9-11.2c7.3-6.6,14.8-13,21.6-20.2c10.3-11,19.5-23.1,26.9-36.3
	c3.1-5.8,6.2-12.3,5.4-19c-1-6.3-5.6-11.2-9.8-15.8c-5.1-5.3-10.2-10.5-15.2-15.8c-25.7-27.6-51.9-54.8-77.2-82.9
	c-6.3-6.7-11.9-14-19-19.9c-4.4-3.8-10.6-3.3-15.9-2c-10.6,2.6-20.3,7.7-29.7,13.1c-29.2,17.3-52.9,43.2-68.8,73.1
	c-2.4,4.9-4.8,10.5-2.8,16c2.1,6.2,6.9,10.9,11.3,15.7c12.2,12.8,24.3,25.7,36.8,38.1c22.7,24,45.6,47.8,67.5,72.5
	c5.7,6.8,12.2,13.8,14,22.8c2.2,10.7-2.3,21.3-7.7,30.2c-13.7,21.8-32.8,39.6-46.4,61.5c-8.7,14.2-15.1,30.3-15.5,47.2
	c-0.4,13,3,26.3,11.2,36.6c7.2,9,19.5,13.9,30.9,11.6c8.4-1.7,15.8-7.1,20.6-14.1c7.3-11.1,9.1-25,7.7-38c-0.3-3.5,0.1-7.9,3.4-10
	c2.6-1.8,5.9-0.1,7.5,2.2c3.4,4.5,6.9,9.6,12.6,11.3c6.5,1.8,13.5-0.5,19-4.2c9-5.8,14.4-15.7,17.5-25.7
	c3.3-10.3,4.9-21.9,12.3-30.2c6.1-7.4,16.2-12.1,25.8-9.5c9.7,2.3,15.6,11.1,21.9,18.1c6.6,7.8,14.7,14.9,24.9,17.1
	c9.2,2.4,19.1-0.2,26.8-5.5c11.5-7.8,20-20.5,21.2-34.5C521.8,381.5,517.3,368.6,509,359z"/>
<path class="st0" d="M296.5,96.7c5-1.8,10.6-0.3,14.3,3.5c13.1,12.9,25.3,26.8,38.2,39.9c1.5,1.6,3.5,3.3,3.5,5.7
	c-1.2,2.7-4.1,3.8-6.5,5.1c-2.9,1.3-5.7,3.1-8.9,3.4c-6-1-11.1-4.8-17-6.3c-22.4-7.3-49,9-52.9,32.2c-1.7,9.7,0.8,19.4,4.4,28.4
	c2,4.8-0.7,9.7-3.4,13.6c-1.7,2.2-3.3,4.9-6.2,5.6c-3.4-0.4-6.1-3-8.5-5.3c-11.4-12.2-22.9-24.5-34.2-36.8c-1.9-2.1-3.9-4.4-4.7-7.1
	c-1-3.5,0.1-7.3,1.6-10.5c12.5-25.1,32.8-45.7,56.5-60.4C280.2,103.3,288,99.1,296.5,96.7z"/>
<path class="st1" d="M299.5,152.8c7.4-1.9,15.4-1.6,22.5,1.1c11.1,4.1,19.9,13.9,22.9,25.4c4.5,16.1-3.6,34.5-18.5,42.1
	c-13.6,7.6-31.8,5-42.9-5.8c-11.3-10.5-14.9-28.3-8.2-42.3C279.7,163.3,288.8,155.6,299.5,152.8z"/>
<path class="st2" d="M355.4,154.5c5.1-1.1,9.4,2.9,12.8,6.2c13.1,13.9,26.3,27.7,39.3,41.8c2.4,3,5.7,5.7,6.6,9.6
	c-0.5,3.7-4.5,5.1-7.4,6.6c-31.4,15.6-60.2,38.8-77.1,70c-1.5,2.3-2.8,5.5-5.7,6.2c-2.9-0.2-4.9-2.9-7-4.8
	c-14.7-15.6-29.5-31.1-44-46.9c-2.5-2.7-5.4-6.1-4.3-10.1c1.3-3.8,4-7,7-9.5c3-2.3,6.7-0.2,9.5,1.4c9,5.3,19.6,8.8,30,6.6
	c13.4-2.1,24.9-11.3,31.6-22.8c5.3-9.1,5.5-20.4,3-30.4c-1.2-5.1-3.8-9.6-5.4-14.5c-0.7-1.8,0.2-3.7,1.6-4.8
	C348.6,156.7,352,155.3,355.4,154.5z"/>
<path class="st2" d="M351.3,273.3c4.3-2.7,7.6,2.9,7.5,6.6c0.5,15.9-6.7,31.2-4.6,47.2c1,6.4,4.1,13.7,10.8,15.9
	c10.5,3.6,21.4,0,31.9-1.2c16.7-2.1,33.6-1,50.3,1.1c15,2,30.2,6.2,42.5,15.4c8.2,6.2,15.3,15.1,16.4,25.6
	c1.9,13.6-5.1,28.4-17.7,34.4c-6.8,3.4-15.5,2.6-21.2-2.6c-9.9-8.8-16.5-21.1-28.1-28c-11.1-6.7-25.4-6.4-36.9-0.8
	c-10,4.4-17.5,13.2-22.3,22.9c-4.5,8.8-6.7,18.5-8.3,28.1c-1,5.8-3.5,11.8-8.8,14.8c-4,2.5-9.9,2.1-13-1.7
	c-3.6-4.4-2.2-10.8-5.7-15.2c-3.2-4.4-9.4-5.9-14.4-4.2c-8.9,2.7-14.4,12.2-14.5,21.2c-0.1,9.6,2.1,19.3,0.4,28.9
	c-1.2,6.9-4.3,14.1-10.5,18c-7.7,5-18.8,2.6-24.6-4.2c-5.6-6.5-8.1-15.2-8.4-23.6c-0.3-14.9,4.9-29.5,13.2-41.8
	c9.4-14.1,20.3-27.1,31-40.2c7.8-9.8,15.1-20,20.5-31.3c5.7-11.7,6-25.4,2.8-37.8c-1.6-6.6-6.4-12.7-5.2-19.8
	c1.3-6.9,5.5-12.8,9.3-18.6C345.9,279.2,347.9,275.5,351.3,273.3z"/>
<path class="st3" d="M413.4,226.5c2.3-1.1,6.2-0.8,6.1,2.6c-1.1,4.5-3.9,8.2-6.4,11.9c-8.4,12.1-18,23.3-29,33.1
	c-2.4,2-4.9,4.3-8.1,4.5c-2.7,0.1-3.9-2.7-4.9-4.8c-2.3-6.1-2.9-13.4,0.6-19.1c2.9-4.7,7.4-8,11.8-11.2
	C392.9,236.9,402.6,230.5,413.4,226.5z"/>
</svg>
