<svg version="1.1" xmlns="http://www.w3.org/2000/svg" xmlns:xlink="http://www.w3.org/1999/xlink" x="0px" y="0px" viewBox="0 0 1000 1000" style="enable-background:new 0 0 1000 1000;" xml:space="preserve">
<style type="text/css">
	.st0{fill:#E5F4F8;}
	.st1{fill:#6089FF;}
</style>
<path class="st0" d="M395.4,463.7c7.8-1.4,15.8-0.4,23.6-0.3c24.4,1.1,48.8,2.9,73,6.2c25.4,3.7,50.7,7.9,75.9,12.7
	c23,4.4,45.5,10.6,68.1,16.7c10.1,3.2,20.4,5.7,30.2,9.7c4.2,1.6,4.9,6.4,5.1,10.3c1.1,16,1.8,32.5-3.7,47.8
	c-4.8,13.6-14.2,25.8-26.7,33.1c-12,6.9-27.1,7.2-39.7,1.9c-11.9-4.6-21.3-13.9-33-19c-7.6-3.4-16.3-3.1-24.3-1.2
	c-15.2,3.4-29.6,9.6-45,12.6c-25,5-51.8,2.8-74.9-8.2c-14.3-6.8-26.8-17.4-34.9-31.1c-8.6-14.2-12.2-31.4-10.2-47.9
	c1.4-12.2,4.5-24.3,9.5-35.5C390.1,468.4,391.7,464.5,395.4,463.7"/>
<path class="st1" d="M431.4,506.6c2.2-0.9,4.5-0.8,6.8-0.4c66.3,9.9,132.6,19.9,198.9,29.8c3.4,0.4,7,2,8.6,5.3
	c2.4,4.2,0.2,10.1-4.2,12c-2.3,1.3-5,1-7.5,0.6c-66.4-10-132.7-19.9-199.1-29.9c-3.7-0.4-7.5-2.6-8.6-6.3
	C424.5,513.5,427,508.2,431.4,506.6z"/>
</svg>
