<svg version="1.1" xmlns="http://www.w3.org/2000/svg" xmlns:xlink="http://www.w3.org/1999/xlink" x="0px" y="0px" viewBox="0 0 1000 1000" style="enable-background:new 0 0 1000 1000;" xml:space="preserve">
<style type="text/css">
	.st0{fill:#EDEDED;}
	.st1{fill:#000000;}
</style>
<path class="st1" d="M446.2,292.4c17.8-5,36.3-7.5,54.7-7.1c38.4-0.2,76,11.1,110.6,27.1c14.7,6.9,28.8,15.2,41.4,25.4
	c14.1,11.3,26.1,25.1,35.7,40.5c7.3,11.9,13.5,24.5,17.1,38c3,12,3.4,24.3,3.7,36.6c-0.3,10.1-0.3,20.3-2.4,30.3
	c-2.2,11.8-6.5,23.1-9.1,34.9c-1.1,3.7-2,8.2-5.6,10.3c-3.4,1.3-6.5-1.2-9.5-2.3c-15.5-6.6-31.9-11.1-48-16.1
	c-46.1-13.5-93.3-22.8-140.8-29.5c-42.8-6-86-8.3-129.1-6.3c-19,0.9-38.3,2.2-56.8,7.3c-5.3,1.5-11.5,4.2-12.9,10.1
	c-1.6,4.1-1.1,10.1-5.9,12c-6.9,3.2-14.4-0.8-21.4,1.5c-11.3,2.9-19.6,11.6-27.3,19.8c-11.8,13.2-22.3,27.5-35.5,39.4
	c-12.9,11.9-29.5,20.5-47.2,21.6c-9.8,0.5-20.2-0.2-28.9-5c-3.5-1.8-5.5-5.9-4.5-9.7c2.8-12.5,7.9-24.4,11.4-36.7
	c-19.9-3.2-39.5-9.3-56.9-19.7c-5.5-3.4-11.6-7.8-12.4-14.7c-0.7-8.9,2.6-17.4,4.6-25.9c4.5-17,6.8-34.5,12.5-51.1
	c1.4-3.8,3.3-8.1,7.3-9.8c3.6-1.8,7.4,0.4,10.2,2.6c4.7,3.9,8.9,8.3,13.8,12c13.4,11.1,29.4,19.5,46.7,21.8
	c23.5,3.2,46.8-3.1,68.8-10.7c18.7-6.6,37.8-12.1,57.1-16.3c5-1.1,9.6-4.1,12.1-8.6c2-3.7,4.7-7.2,8.8-8.6c5-11,11-21.7,18.3-31.4
	c16-19.9,34.5-37.9,55.4-52.5C401.8,308,423.6,298.5,446.2,292.4 M480.5,297.7c-29.1,3.1-57.2,13.3-82,28.7
	c-14.7,9.1-28.8,19.7-40,33c-3.1,4-6.9,8.2-7.2,13.5c0,3.1,2.7,5.5,5.6,5.9c5,0.7,10-0.1,15-0.3c33.4-2.2,66.9-2.6,100.3-2.1
	c41.4,1.5,82.9,4.8,123.6,12.6c23.2,4.1,46.4,8.2,69.2,14.1c3.5,0.8,7.2,1.7,10.8,1.2c3.6-0.8,5.1-5,4.6-8.3
	c-0.7-6.7-3.6-12.9-6.8-18.8c-7.7-13.8-19.3-24.8-31.7-34.3c-14.2-10.9-30.2-19.2-46.6-26.2c-15.3-6.4-31.1-11.9-47.4-15.4
	C525.9,296.5,503,295.5,480.5,297.7"/>
<path class="st0" d="M348.1,391.7c28.3-4,56.9-5,85.4-5.4c-1.7,10.1-3.4,20.2-5.1,30.2c-31.1-1.3-62.3-0.5-93.4,1.6
	c-3.5,0.1-7.5,0.7-10.5-1.6c-2.2-1.9-0.9-4.9,0-7.2c2-4.6,3.9-9.7,8.3-12.6C337.3,393.8,342.8,392.7,348.1,391.7z"/>
<path class="st0" d="M443.7,386.3c48-0.3,96.1,3.3,143.4,11.7c22.8,3.9,45.6,7.6,67.7,14.4c10,3.2,20.1,6.9,28.9,12.9
	c4.5,3.1,8.6,7.1,10.8,12.2c0.8,1.6,0.6,4.3-1.5,4.5c-4,0.2-7.7-1.4-11.4-2.5c-8.6-3-17.4-5.5-26.1-8.1c-1.4-0.3-3-1-4.3-0.2
	c-2.8,1-2.5,5.5,0.3,6.3c11.4,3.9,23.3,6.5,34.3,11.6c4,2,8.2,4.5,10.3,8.7c1.5,2.8,1.1,6.7-1.4,8.8c-2.5,1.4-5.3,0-7.8-0.7
	c-22.8-8-46-15.3-69.4-21.3c-58.6-14.6-118.6-24.9-179-27.4C440.2,406.9,441.9,396.6,443.7,386.3z"/>
<path class="st0" d="M362.5,428.7c26.1-0.8,52.3-1,78.4,0.8c48.5,2.1,96.7,9.5,144.1,19.9c34.7,7.4,68.8,17.5,102.3,29.5
	c3.2,1.1,7.3,3,6.9,7c-0.6,9.7-3.9,18.9-6,28.3c-41.4-14.1-83.6-26-126.5-34.5c-45.7-9-91.9-16-138.5-17.7c-22.5-0.9-45-1-67.5,0
	C357.9,450.9,360.3,439.8,362.5,428.7z"/>
<path class="st0" d="M338.1,430.2c4.7-0.5,9.4-0.7,14-0.8c-2.2,11.1-4.7,22.1-7,33.1c-5.6,0.5-11.2,0.9-16.9,1.5
	C331.5,452.7,334.9,441.5,338.1,430.2z"/>
<path class="st0" d="M311.6,436.5c3.5-5.1,10.3-5,15.8-5.5c-3.3,11.4-6.6,22.9-10,34.3c-4.5,0.4-9.3,1.5-13.6-0.4
	c-2.6-1.4-1.5-4.7-0.8-7C305.5,450.7,307.3,443,311.6,436.5z"/>
<path class="st0" d="M96,431.8c9.4,10.8,22,18.4,35.1,24.1c22.2,9.7,47.5,11.1,71.1,6.2c19.4-4,37.8-11.7,56.9-17.1
	c10-2.9,20-5.8,30.3-7c-1.8,4.8-3.4,9.7-4.9,14.7c-15.9,5.6-31,13.1-45.9,20.9c-21.4,11.2-41.7,24.7-64.1,33.9
	c-14.7,6-30.7,9.5-46.6,8c-17.2-1.5-34.8-7.3-47.5-19.4C85.5,474.6,90.9,453.2,96,431.8z"/>
<path class="st0" d="M210.5,501.4c23-13.2,46.1-26.3,70.8-36.2c-1.4,5.5-2.4,11.1-3.6,16.7c-13,6.5-24.6,15.7-35.1,25.7
	c-14.3,14-27.1,29.5-42,43c-11.3,10.4-25.5,17.6-40.6,20.5c-6.5,1.1-13.3,1.5-19.9,0c0.3-3,1.4-5.9,2.3-8.8
	c3.9-12.5,7.8-25,11.6-37.5C174.1,520.7,192.7,511.3,210.5,501.4z"/>
</svg>
