<svg version="1.1" xmlns="http://www.w3.org/2000/svg" xmlns:xlink="http://www.w3.org/1999/xlink" x="0px" y="0px" viewBox="0 0 1000 1000" style="enable-background:new 0 0 1000 1000;" xml:space="preserve">
<style type="text/css">
	.st0{fill:#464B4B;}
	.st1{fill:#000000;}
</style>
<path class="st2" d="M465.7,518.3c-5.7-3.7-12.6-5-19.2-3.7c-6.5,1.4-12.1,5.4-16.5,10.3c-10.6,12-14.7,28.3-16.2,43.9
		c-1.1,17.1,1.4,34.8,9,50.3c4.8,9.7,12,18.9,22.4,22.9c8.2,3.3,17.9,1.3,24.8-4c10.7-8.2,16.3-21.1,19.4-33.9
		c4-18.4,3.4-37.9-2.6-55.8C482.9,536.6,476.5,524.9,465.7,518.3z M462,613.9c-3.8,6.7-10.8,13-19.1,12.1c-5.1-0.4-9.1-4.2-11.4-8.5
		c-8.1-14-10.4-30.6-9.6-46.5c1.1-9,1.9-18.8,8-26.1c3.2-3.9,7.7-6.6,12.7-7.4c6.7-1.1,13,3,16.7,8.3c6.1,8.5,8.9,18.9,9.9,29.2
		C469.9,588.3,468.5,602.2,462,613.9z"/>
<path class="st2" d="M645.2,574c-0.5-12.8-3.4-26.4-11.8-36.4c-5.4-6.6-14.6-10.6-23-8c-8.9,2.6-15.7,9.7-20.2,17.6
		c-8.5,15.3-11.5,33.4-9.6,50.7c1.4,10.6,4.7,21.4,12,29.5c5,5.6,12.8,9.2,20.4,7.6c9.3-1.8,16.4-9,21.2-16.8
		C642.2,605,645.5,589.3,645.2,574z M617.1,609.1c-3.1,5.4-8.7,10-15.2,9.7c-6.8-0.6-11.4-6.7-13-12.8c-3.5-13.4-2.8-27.8,1-41
		c1.9-6.4,5.1-13.3,11.5-16.3c5.1-1.6,10.7,0.8,14.1,4.8c5.3,6.3,7.3,14.7,8.2,22.7C624.4,587.4,622.8,599.2,617.1,609.1z"/>
<path class="st0" d="M446.1,523.1c6.8-2.4,14.5,0.2,19.5,5.3c10.9,10.6,15.7,25.8,17.6,40.5c1.8,17.3,0.1,35.6-8.3,51.1
		c-4,7.1-10.2,14.2-18.8,15.4c-6.1,0.9-11.7-2.2-16.3-5.9c6.5,0.9,13.4-0.7,18.3-5.3c9.5-8.4,12.9-21.5,14.3-33.6
		c1.6-15-0.6-30.7-8.3-43.8c-3.8-6.2-9.7-11.8-17.2-12.8c-6.2-1-12,2-17.1,5.2C433.6,532.5,438.6,525.8,446.1,523.1z"/>
<path class="st0" d="M600.8,543.8c4.2-4.4,9.6-8.8,16.1-8.2c7.6,0.6,12.9,7.1,16,13.5c5.9,12.7,6.7,27.2,4.5,40.9
		c-1.9,11-5.7,22-13,30.5c-4.1,4.7-9.9,8.8-16.4,8.2c-4.1-0.3-7.5-2.8-10.5-5.4c7.5,1.1,15.4-1.4,20.3-7.3
		c7.9-9.7,10.3-22.7,10.6-34.8c-0.2-11.2-2.6-23.4-10.6-31.8C613.5,544.6,606.9,543.1,600.8,543.8z"/>
</svg>
