<svg version="1.1" xmlns="http://www.w3.org/2000/svg" xmlns:xlink="http://www.w3.org/1999/xlink" x="0px" y="0px" viewBox="0 0 1000 1000" style="enable-background:new 0 0 1000 1000;" xml:space="preserve">
<style type="text/css">
	.st0{fill:none;}
	.st1{fill:#000000;}
	.st2{opacity:0.3;fill:#000000;}
	.st3{fill:#FFFFFF;}
</style>
<path class="st0" d="M280.5,556.6c-6.8-5.6-15.9-6.5-24.3-5.9c3.3,20.9,9.2,41.4,16.8,61.1c8-10,14.1-22,15.3-34.8
	C288.8,569.5,286.5,561.4,280.5,556.6z"/>
<path class="st0" d="M282.8,465.8c4-9.1,2.8-19.3,4.3-28.9c1.5-12.7,6.9-24.9,15.5-34.4c9.1-9.8,22-15.5,35.1-16.8
	c13.4-2,27.1,2.9,40.4-0.7c4.8-1.4,10-3.7,12.3-8.4c1.8-4.2-1.7-8.1-4.7-10.5c-9-6.9-18.8-12.7-28.6-18.4
	c-6.5-3.5-12.9-7.6-19.8-10.5c-6.2,4.9-13.5,8.2-20.7,11.4c-19.3,7.9-40.4,12.5-61.3,9.4c-2.2,21.3-4.5,42.6-6,63.9
	c-0.8,19.8-1.3,39.5-0.6,59.3c4.8,1,9.8,1.1,14.6,0.3C271.9,480,279.6,473.9,282.8,465.8z"/>
<path class="st1" d="M578.8,481.1c-0.7-0.3-1.4-0.9-2.1-1.2l88.8,153.9c0,0,0,0,0-0.1l-79.7-149.6
	C583.6,483.2,581.2,482.1,578.8,481.1z"/>
<path class="st1" d="M672.1,617.1c0.3-0.9,0.5-1.8,0.7-2.7c2.3-12.1,2.9-24.7,0.5-36.9c-3.3-15.8-9.7-31.2-20.1-43.8
	c-10-12.2-21.6-23.4-34.9-32c-10.3-6.7-21.2-12.4-32.4-17.5l79.7,149.6C668.4,628.6,670.6,622.9,672.1,617.1L672.1,617.1z"/>
<path class="st1" d="M779.4,389c-0.8-18.1-0.1-36.7-6.5-54c-2.7-7.2-9.7-13.5-17.8-12.6c-15.2,3.1-30.4,6.8-45.1,11.7
	c-21.2,7-41.5,16.4-61.3,26.5c-11.5,5.6-22.7,12.5-35.5,14.6c-9.8,1.7-19.7-0.6-29.1-3.3c-21.4-6.5-43.6-10.3-66-11.6
	c-16.4-0.6-32.8,0.1-49.1,1.9c-14.2,1.5-28.7,1.5-42.7-1.5c-19.3-4.8-36.1-15.8-52.6-26.5c-24.8-16.1-51-30.3-78.5-41.5
	c-10.6-4.3-21.7-8.2-33.2-8.9c-2.5-0.1-5.1,0.3-7.5,0.8c-3.8,0.8-7.2,3.4-8.9,6.9c-3.7,6.8-4.7,14.8-6.1,22.3
	c-2.6,21.7-6,43.4-7.6,65.2c-4.2,52.8-7.9,106.3,0.2,159c3.4,23.4,8.5,46.8,17.1,68.9c6.2,16,14.7,31.1,24.7,45.1
	c21.6,30.7,50.6,56.1,84.1,73.1c37.4,19.1,79.1,29.6,121.1,31.2c37.9,2,76.5,0,113-10.8c32-8.9,60.7-27.1,85.1-49.3
	c20.2-18.8,38.1-40.3,51.6-64.4c21.1-37,34.6-78,42.1-119.8C778.3,471.5,781.2,430.2,779.4,389z M248.7,481.2
	c-0.7-19.8-0.2-39.5,0.6-59.3c1.5-21.3,3.8-42.6,6-63.9c20.9,3.1,42-1.5,61.3-9.4c7.2-3.2,14.5-6.5,20.7-11.4
	c6.9,2.9,13.3,7,19.8,10.5c9.8,5.7,19.6,11.5,28.6,18.4c3,2.4,6.5,6.3,4.7,10.5c-2.3,4.7-7.5,7-12.3,8.4c-13.3,3.6-27-1.3-40.4,0.7
	c-13.1,1.3-26,7-35.1,16.8c-8.6,9.5-14,21.7-15.5,34.4c-1.5,9.6-0.3,19.8-4.3,28.9c-3.2,8.1-10.9,14.2-19.5,15.7
	C258.5,482.3,253.5,482.2,248.7,481.2z M288.3,577c-1.2,12.8-7.3,24.8-15.3,34.8c-7.6-19.7-13.5-40.2-16.8-61.1
	c8.4-0.6,17.5,0.3,24.3,5.9C286.5,561.4,288.8,569.5,288.3,577z M576.7,480c-18.3-7-37.4-11.4-56.9-12.9c-25.4-2.3-51.3-0.2-76,6.5
	c-5.5-3.7-10.5-9.6-10.1-16.6c0.8-7.1,4.4-13.5,6.4-20.2c4.5-12.8,3.3-27.3-2.8-39.3c-1.6-3.7-4.2-6.9-5.1-10.8
	c1.5-1.5,3.8-1.6,5.8-2.1c30.5-6.3,61.9-7.2,92.9-3.9l0.2,0.1c0.8,0,1.3,0.2,2.1,0.3c24.3,2.9,48.3,8.5,71.1,17.6
	c9.5,3.8,18.4,8.8,27.2,13.8c5.1,2.8,10.8,7.7,16.9,5.1c5.1-2.5,4.3-9.9,0.1-12.9c-6.9-5.3-14.8-9.2-22.4-13.3
	c10.3-7.6,21.9-13,33.1-18.9h0.1c1.3-0.6,2.6-1.1,3.9-1.7c0.2,0,0.5,0,0.7,0.1l0.4-0.2c-0.4,0-0.8-0.1-1.2-0.1
	c9.3-4.2,18.5-8.7,28.2-12c14.8-5.2,29.9-10.2,45.2-11.8c3.9-0.2,8.4-0.1,11.3,2.8c1.9,2.3,2.3,5.5,2.8,8.3
	c1.4,11.7,2.4,23.3,3,34.9v0.1c0.1,1,0.1,2.1,0.2,3.2c1.1,20.6,0.8,41.3-0.3,61.9c-1,23.1-2.8,46.3-7.6,68.9
	c-5.3,24.9-12.6,49.4-23.4,72.7c-0.4,0.7-0.8,1.5-1.2,2.2l0,0c-8.3,15.8-17.4,31.3-28.1,45.6v0.1l0,0l0,0c-0.5,0.7-1.1,1.4-1.6,2.1
	c-13.3,17.7-27.9,34.8-45.5,48.4c-0.6,0.4-1.2,0.9-1.8,1.3c0,0,0,0,0-0.1c-31.3,23-69.2,35.5-107.5,40.3c-58,8-118.9,0.3-171.5-26.2
	c-18.6-9.3-35.6-21.9-50.2-36.7c-6.6-6.5-12.4-13.6-18.4-20.5c21.2,1.3,42.4-2,62.9-7.1c8.9,9.1,20.1,16.2,32.4,19.8
	c22.1,7,45.8,3.8,67.7-2.3c18.2-5.3,36.2-11.3,55-14.1c18.9-3,38.5-2.8,57.2,2c17.5,3.2,35,10.3,53,8.3l0,0c0.7-0.1,1.5-0.2,2.2-0.3
	l0.4-0.1c1.6-0.3,2.8-0.5,4.3-1c13.8-3.5,25-13.6,32.5-25.4c0.4-0.7,0.8-1.4,1.2-2.1l0,0c0,0,0,0,0,0.1L576.7,480"/>
<path class="st1" d="M576.7,479.9c0.7,0.3,1.4,0.9,2.1,1.2c2.4,1,4.8,2.1,7.1,3.1"/>
<path class="st0" d="M640.8,568.9"/>
<path class="st2" d="M665.6,633.8c-0.4,0.7-0.8,1.4-1.2,2.1c-7.5,11.8-18.7,21.9-32.5,25.4c-1.5,0.5-2.7,0.7-4.3,1l-0.4,0.1
	c-0.7,0.1-1.5,0.2-2.2,0.3l0,0l0,0l0.3,0.9c4.4,13.1,11.8,24.8,19.1,35.6l0,0c0,0,0,0,0,0.1c0.6-0.4,1.2-0.9,1.8-1.3
	c17.6-13.6,32.2-30.7,45.5-48.4c0.5-0.7,1.1-1.4,1.6-2.1l-0.1-0.1C683.3,642.2,674.3,637.8,665.6,633.8z"/>
<path class="st2" d="M753.7,392.9c-16.7-9.3-35.7-14-52.2-17.3c-10.6-2.1-22.1-3.6-35.2-4.6h-0.1c-1,0-2-0.1-3-0.2
	c-1.3,0.6-2.6,1.1-3.9,1.7h-0.1c-11.2,5.9-22.8,11.3-33.1,18.9c7.6,4.1,15.5,8,22.4,13.3c4.2,3,5,10.4-0.1,12.9
	c-6.1,2.6-11.8-2.3-16.9-5.1c-8.8-5-17.7-10-27.2-13.8c-22.8-9.1-46.8-14.7-71.1-17.6c-0.8-0.1-1.5-0.2-2.3-0.2
	c-0.7,3.3-1.5,7-1.5,10.8c0,1.2,0.1,2.5,0.3,3.7c1.3,10.3,7.6,17.9,12.6,22.5c3.8,3.6,8.1,6.8,12.2,9.8c6.4,4.7,12.5,9.2,16.9,15.3
	c4.4,6.6,6.6,14.9,6.6,24.1c0,4.2-0.4,8.6-1.3,13.2c0.7,0.3,1.4,0.5,2.1,0.8c13.7,5.8,27,12.5,39.5,20.6c13.3,8.6,24.9,19.8,34.9,32
	c10.4,12.6,16.8,28,20.1,43.8c2.4,12.2,1.8,24.8-0.5,36.9c-0.2,0.9-0.4,1.8-0.7,2.7l0,0c0-0.1,0.1-0.2,0.1-0.3l1.2-0.1
	c15.5-1.6,30.8-6.3,45.5-13.8c0.4-0.1,0.7-0.3,1-0.5c0.7-0.4,1.2-0.7,1.6-0.8c0,0.1-0.1,0.1-0.1,0.2l0,0c0.4-0.7,0.8-1.5,1.2-2.2
	c10.8-23.3,18.1-47.8,23.4-72.7c4.8-22.6,6.6-45.8,7.6-68.9c1.1-20.6,1.4-41.3,0.3-61.9C753.8,395,753.8,393.9,753.7,392.9z"/>
<path class="st3" d="M492.7,479c24.2-1.6,48.8,0.8,71.9,8.5c20,6.6,39,16.3,55.8,29.1c14.2,10.9,26.5,24.5,34.5,40.6
	c7.1,13.6,10.1,29.4,8.2,44.7c-1.4,12-6.3,23.6-14.5,32.5c-8.8,9.2-22.1,12.7-34.5,12.2c-22.1-0.8-43-9.3-65-11.5
	c-14.3-1.8-28.8-1.8-43.1,0.2c-17.4,2.1-33.9,8.3-50.4,14c-15.9,5.5-32.8,9.7-49.7,8c-15.2-1.3-29.6-9.3-39.1-21.2
	c-9.5-10.7-13.6-25.2-14.4-39.2c-1.3-21.1,6.5-41.9,18.4-59c11.7-16.8,28.4-29.4,46.1-39.3C440,485.7,466.5,480.3,492.7,479
	L492.7,479z"/>
<path class="st1" d="M431.4,519.7c-9.2,3.1-14.4,13-13.6,22.3c0,22.4,0,44.7,0,67.1c0,2.6,0.6,5.3,1.3,7.8
	c3.1,9.6,14.1,15.8,23.9,12.9c8.9-2,15.2-10.8,15.2-19.8c0.2-23,0-46,0.1-69c0.2-5.2-1.3-10.6-4.5-14.8
	C448.7,519.5,439.3,516.8,431.4,519.7L431.4,519.7z"/>
<path class="st1" d="M596.3,536.6c-7.1,2.6-12,9.9-12,17.4c0,16.9-0.1,33.8,0,50.7c0.2,9,7.6,17.1,16.6,17.7
	c7.1,0.7,14.4-3.5,17.5-10c1.6-3.2,2.2-6.8,2.1-10.4c0-16,0-32,0-48c-0.1-5.8-2.8-11.6-7.5-15C608.3,535.5,601.9,534.6,596.3,536.6z
	"/>
</svg>
