<svg version="1.1" xmlns="http://www.w3.org/2000/svg" xmlns:xlink="http://www.w3.org/1999/xlink" x="0px" y="0px" viewBox="0 0 1000 1000" style="enable-background:new 0 0 1000 1000;" xml:space="preserve">
<style type="text/css">
	.st0{fill:%%ST0%%;}
	.st1{fill:%%ST1%%;}
	.st2{fill:%%ST2%%;}
</style>
<path class="st0" d="M381.5,444.5c34.8-38.3,86.5-61.4,138.5-59.4c21.1,0.6,41.8,5.6,61.3,13.6c12.7,5.2,24.8,12,35.6,20.5
	c11.9,9.4,21.9,21.1,30.2,33.7c8.2,12.9,15,26.7,19.3,41.4c5.7,18.4,8.8,37.6,9.2,56.9c0.7,26.5-2.5,53.4-11.8,78.4
	c-6,14.9-13.1,29.5-23,42.2c-9,11.5-19.4,22.2-31.7,30.1c-2.5,1.9-6.4,1.9-8.3-0.8c-2-2.5-0.9-6.2,1.6-7.8c5.9-4,11.6-8.3,16.6-13.5
	c2.6-2.8,5.6-5.4,6.8-9.1c-11.3,2.7-22.5,6-34,7.6c-38.6,6.4-78,7.2-116.9,3.3c-18.5-2.3-36.8-5.6-54.9-9.7
	c-9.9-2.4-19.9-4.9-29.5-8.5c-1.9-0.8-4-1.2-6-1.5c0.2,1.7,0.6,3.5,1.6,5c8.3,13.5,20.9,23.4,33.6,32.6c3.4,2.1,3.2,8.1-0.8,9.4
	c-3.1,1.4-6.1-0.8-8.6-2.3c-21.7-14-38.8-34.5-51-57.1C349,631,343.3,610.1,340.8,589c-2.6-20.2-1.8-40.7,1.4-60.7
	C347.1,497.4,360.4,467.6,381.5,444.5 M495.5,397.8c-33.3,3.9-65.2,18.4-90.5,40.2c-5.9,5.5-12.5,11.1-14.9,19.1
	c-1.5,4.4-0.4,9.7,3.2,12.7c3,2.5,6.9,3.4,10.6,4.2c17.8,3.9,35.8,7.4,53.9,9.7c21.6,2.6,43.4,4.4,65.1,5.2
	c23.2,0.9,46.5,1,69.7-0.6c13.4-0.9,26.9-1.5,40.1-3.7c3.9-0.7,8.6-2.4,9.8-6.6c1.5-4.9-1.3-9.7-3.5-13.9
	c-8.1-15.2-19.6-28.5-33.5-38.6c-14.3-10.4-30.7-17.5-47.6-22.4C537.8,397.1,516.4,395.2,495.5,397.8"/>
<path class="st1" d="M375.3,483.3c5.9-1.1,11.8,0.8,17.6,1.9c19.6,4.4,39.3,8,59.2,10.7c23.8,3.8,47.9,5.1,72,6.4
	c14.6,0.7,29.3,0.5,43.9,0.1c24.8-0.1,49.5-2.3,73.9-6.2c3.3-0.4,7.2-1.2,10.2,0.9c3,2.2,4.3,5.9,5.3,9.4c2.2,7.9,3.2,16,4.3,24.1
	c3.4,22.9,3.1,46.3-0.9,69.1c-3.2,14.8-7.4,29.7-15.6,42.5c-4.3,7-12.2,10.5-19.6,13.1c-15.4,5.1-31.5,8.2-47.5,10.9
	c-24.5,4-49.3,4-74.1,3.5c-23.7-0.7-47.3-4-70.4-9c-17.8-3.8-35.3-9.4-51.6-17.6c-9.7-4.9-18.4-12.5-22.4-22.9
	c-6.5-16.5-8.1-34.5-8.5-52.2c-0.2-24.3,3.2-48.9,12.4-71.6C365.9,491.1,369,484.8,375.3,483.3"/>
<path class="st2" d="M423,514c4.2-3.3,10.6-3.2,14.7,0.3c2.5,2,3.9,5,5.1,8c3.5,8.9,7.1,17.8,10.6,26.7c5.5-8.1,10.7-16.3,16.3-24.3
	c3.8-5.4,12.1-7,17.3-2.6c5,3.7,6,11.3,2.5,16.4c-8.3,12.7-16.8,25.2-25.1,37.9c5.8,14.9,11.9,29.8,17.8,44.7
	c1.5,3.7,1.7,8.1-0.4,11.7c-2.7,5.1-9.3,7.5-14.6,5.3c-3.4-1.3-6.1-4.2-7.4-7.6c-4-9.8-7.8-19.6-11.8-29.4
	c-5,7.4-9.8,14.8-14.9,22.2c-2.9,4.4-8.5,7.1-13.6,5.5c-5.5-1.4-9.5-7.1-8.8-12.8c0.5-4.7,3.7-8.2,6.1-12
	c6.8-10.1,13.4-20.2,20.2-30.3c-5.8-14.9-11.9-29.7-17.7-44.7C417.1,523.8,418.5,517.4,423,514z"/>
<path class="st2" d="M586,532c4.6-3.5,11.9-1.9,14.8,3.1c3.4,6,5.8,12.4,8.9,18.5c2.5-5.8,5.1-11.6,7.8-17.2
	c2.1-4.5,7.3-7.2,12.2-5.9c5.9,1.4,9.3,8.6,6.8,14.1c-4.9,11.4-10.3,22.7-15.3,34.1c4.7,10.3,9.5,20.5,14.2,30.7
	c2.2,4.6,0.9,10.6-3.4,13.4c-4.8,3.5-12.2,1.4-14.9-3.8c-2.6-5-4.8-10.2-7.2-15.3c-3.6,7.7-6.9,15.6-10.7,23.3
	c-2.3,4.8-8.5,7.5-13.5,5.1c-5.2-2.1-7.6-8.7-5.3-13.7c5.8-13.3,12-26.4,17.9-39.7c-5-11.2-10.4-22.3-15.4-33.5
	C580.6,540.8,581.8,534.9,586,532z"/>
</svg>
