<svg version="1.1" xmlns="http://www.w3.org/2000/svg" xmlns:xlink="http://www.w3.org/1999/xlink" x="0px" y="0px" viewBox="0 0 1000 1000" style="enable-background:new 0 0 1000 1000;" xml:space="preserve">
<style type="text/css">
	.st0{fill:%%ST0%%;}
	.st1{fill:#EDEDED;}
	.st2{fill:#000000;}
</style>
<path class="st2" d="M432.5,322.7c15.6-2.3,31.7,1.6,45.4,9.3c13.3,7.5,24.7,18.2,33.4,30.7c11.1,16.7,19.1,35.5,22.7,55.2
	c6,33.9,0.5,70.5-18.5,99.5c-9.6,14.6-22.9,27-38.9,34.2c-14.5,6.6-31.2,8.3-46.7,4.5c-18.2-4.3-34.3-15.6-46-30
	c-11.4-13.7-18.9-30.2-23.8-47.2c-5.2-17.4-6.8-35.7-5.7-53.8c0.9-22.9,8.1-45.6,21.4-64.3C388.9,341.5,409,325.9,432.5,322.7"/>
<path class="st2" d="M632.3,376.3c14.1-2.5,29.1,0.4,40.9,8.6c10.6,7.4,18.7,18.2,24,30c9,20.3,9,43.6,3.3,64.7c-5,16.7-16,31.7-30.6,41.2
	c-12.7,8.5-28.9,11.6-43.8,8.2c-11.9-2.5-22.2-9.9-30-18.9c-12-14.4-17.8-33.4-17.7-52c-0.7-19.3,4.3-38.8,14.5-55.1
	C601.3,388.8,616.1,378.9,632.3,376.3"/>
<path class="st0" d="M431.2,344c15-4.1,31.3-1.4,44.8,6.2c22.3,12.6,36.6,35.9,43.1,60.1c-50.1,11.9-100.2,23.8-150.3,35.7
	c-0.4-25.1,6-50.9,20.6-71.6C399.4,360,413.9,348,431.2,344z"/>
<path class="st0" d="M627,394.1c10.6-4.7,23.2-4.1,33.4,1.4c9.1,4.9,16.1,13.2,20.7,22.5c4.9,9.8,7,20.7,7.4,31.6
	c-30.8-7-61.5-14-92.3-21C601.9,413.9,612.3,400.4,627,394.1z"/>
<path class="st1" d="M507.8,424.4c4.6-1.1,9.1-2.2,13.6-3.2c3.8,21.7,2.2,44.5-5.1,65.3c-5.2,14.9-13.5,28.9-25.1,39.8
	c-9.9,9.4-22.6,16.3-36.2,18.2c-18.5,3-37.6-4.1-51.5-16.3c-20.3-17.9-31.3-44.4-34.2-71c11.7-2.9,23.4-5.6,35.1-8.4
	c4.5,13.5,14.4,25.2,27.4,31.3c15.6,7.7,35,6.6,49.8-2.4C500.1,467.3,510.9,445.3,507.8,424.4z"/>
<path class="st1" d="M593.4,437.4c3.6,0.8,7.2,1.6,10.8,2.5c-0.6,9.5,2,19.4,8.2,26.7c6.6,8,17.3,12.4,27.6,11.3
	c13.7-1.3,25.8-10.6,32.2-22.6c5.2,1.2,10.5,2.4,15.8,3.6c-1.7,15.4-7.5,30.6-17.9,42.2c-7,7.9-16.4,14-27,15.8
	c-11.3,2.2-23.2-1.7-31.8-9.1c-10.4-8.8-16.6-21.8-19.1-35C590,461,590.5,448.9,593.4,437.4z"/>
</svg>
