<svg version="1.1" xmlns="http://www.w3.org/2000/svg" xmlns:xlink="http://www.w3.org/1999/xlink" x="0px" y="0px" viewBox="0 0 1000 1000" style="enable-background:new 0 0 1000 1000;" xml:space="preserve">
	<style type="text/css">
	.st0{fill:#000000;}
</style>
<path class="st0" d="M516.5,84.8c23.1-1.9,46.6-1.2,69.2,4.4c16,4,31.8,10.8,43.8,22.4c9.8,9.4,16.1,22.7,16.1,36.4c0.1,13.7-5.6,26.9-13.9,37.6
	c-11.2,14.6-26.4,25.8-42.4,34.6c-32.7,17.9-69.5,27.8-106.5,31.1c-29,2.2-59,0.8-86.3-10.1c-16.9-6.8-33-18.9-39.5-36.6
	c-5.2-12.8-3.6-27.4,2.1-39.7c9.3-20.2,27.2-34.9,45.8-46.1C438.8,99.1,477.5,88.4,516.5,84.8 M531.2,125.2
	c-12.7,0.5-25.4,2-37.9,4.5c-23.6,4.8-46.9,12.5-67.6,24.9c-9.5,5.9-18.8,12.6-25.6,21.7c-2.8,3.9-5.6,8.7-4.4,13.7
	c1.7,4.7,6.1,7.6,10.2,10.1c11.3,6.2,24.1,8.6,36.8,10c23.8,2.2,47.9,0,71.2-5.4c19.6-4.6,38.9-11.3,56.5-21.3
	c11.3-6.6,22.4-14.2,30-25.1c2.5-4,5.3-9.2,2.8-13.8c-3.7-6-10.4-9.3-16.7-11.9C569,126,549.9,124.7,531.2,125.2z"/>
</svg>
