<svg version="1.1" xmlns="http://www.w3.org/2000/svg" xmlns:xlink="http://www.w3.org/1999/xlink" x="0px" y="0px" viewBox="0 0 1000 1000" style="enable-background:new 0 0 1000 1000;" xml:space="preserve">
<style type="text/css">
	.st0{fill:#FFD400;}
	.st1{fill:#000000;}
</style>
<path class="st1" d="M395.4,463.7c4.8-1,9.8-0.6,14.7-0.6c27.7,0.9,55.4,2.9,82.9,6.7c21.4,3.1,42.8,6.6,64.1,10.6c31.9,5.6,63.2,14,94.2,23.3
	c5.3,1.8,10.8,3,15.8,5.5c3.9,2.1,4,7,4.4,10.8c0.8,13.3,1.6,26.9-1.8,40c-3.3,14.3-11.6,27.5-23.3,36.4c-9.1,7-21.1,10.4-32.5,8.8
	c-9.5-1.1-18.3-5.4-26.2-10.7c-7.4-4.8-14.5-10.5-23.1-13.1c-7.4-2.2-15.3-1.2-22.6,0.6c-14.2,3.5-27.8,9.1-42.1,12
	c-19.7,4.1-40.4,3.6-59.8-2c-14-4.1-27.3-11-37.9-21.1c-14.4-13.6-23.1-33-23.6-52.8c-0.1-15.8,3.6-31.5,9.7-46
	C389.8,468.8,391.5,464.6,395.4,463.7"/>
<path class="st0" d="M417.5,473.8c49.8,1.5,99.2,9.1,148,19c30.2,6.2,60.1,14.1,89.5,23.3c2.1,0.6,4.5,1.7,4.7,4.2
	c2.5,14.1,2.7,28.9-2,42.6c-3.8,11.2-11.2,21.4-21.4,27.6c-8.4,5.1-19.1,5.7-28.3,2.7c-14.9-4.9-25.7-17.7-40.9-21.9
	c-11.7-3.5-24-0.7-35.3,2.6c-13.9,4.1-27.6,9.4-42.1,11.3c-22,2.9-45.2,0-64.9-10.6c-12.2-6.6-22.6-16.8-28.8-29.3
	c-5.7-11.1-7.8-23.8-6.5-36.1c1.1-11.3,4.3-22.3,8.9-32.6c0.6-1.5,1.9-2.7,3.6-2.7C407.1,473.4,412.4,473.5,417.5,473.8"/>
<path class="st1" d="M453.6,498.4c3-1.5,6.6-0.2,8.8,2.2c6.2,6.5,12.4,13.2,18.6,19.7c6.6-5.9,13-12,19.6-17.8c3.1-2.8,8.5-2.3,10.7,1.3
	c2.2,3.1,1.1,7.4-1.7,9.8c-6.2,5.8-12.6,11.5-18.9,17.2c6.7,7.1,13.5,14.2,20.1,21.4c3,3,2.8,8.5-0.8,10.9c-3,2.3-7.4,1.4-9.8-1.3
	c-6.8-7.1-13.4-14.2-20.1-21.4c-7.5,6.7-14.8,13.7-22.4,20.3c-3.3,3.2-9.5,2-11.2-2.3c-1.5-3-0.2-6.6,2.2-8.7
	c7.2-6.6,14.4-13.1,21.6-19.8c-6.3-6.8-12.8-13.5-19-20.4C448,506.3,449.2,500.1,453.6,498.4z"/>
<path class="st1" d="M602.4,528.3c2.5-1.9,6.1-1.2,8.1,1.1c3.8,4,7.2,8.3,10.9,12.4c3.6-3.2,7-6.6,10.7-9.7c2.2-1.8,5.6-2,7.8,0
	c2.6,2.2,2.6,6.5,0.2,8.8c-3.5,3.5-7.2,6.7-10.8,10c3.3,3.9,6.8,7.7,10,11.7c2,2.3,2,6.2-0.4,8.4c-2.3,2.3-6.4,2-8.6-0.4
	c-3.5-3.7-6.6-7.7-10.1-11.5c-3.9,3.5-7.7,7.2-11.6,10.7c-2.2,2.1-5.9,2.8-8.3,0.8c-3-2.2-2.9-6.9-0.2-9.3c4-3.9,8.2-7.5,12.2-11.3
	c-3.6-4.2-7.3-8.3-10.8-12.6C599.3,534.8,599.5,530.2,602.4,528.3z"/>
</svg>
