<svg version="1.1" xmlns="http://www.w3.org/2000/svg" xmlns:xlink="http://www.w3.org/1999/xlink" x="0px" y="0px" viewBox="0 0 1000 1000" style="enable-background:new 0 0 1000 1000;" xml:space="preserve">
<style type="text/css">
	.st0{fill:#FF002C;}
	.st1{fill:#000000;}
</style>
<path class="st1" d="M395.4,463.7c7.8-1.4,15.8-0.4,23.6-0.3c26.4,1.2,52.8,3.2,79,7.1c39.7,6.1,79.6,12.4,118.4,23.3c13.8,3.4,27.4,7.5,41,11.7
	c3.6,1.3,7.6,2.1,10.8,4.4c3.1,2.7,2.9,7.2,3.4,11c0.8,13.6,1.4,27.5-2.3,40.7c-1.4,6.1-4.3,11.6-6.8,17.3c-0.2,3.4,3.2,5.3,5.5,7.2
	c3.4,2.3,6.3,5.3,10.2,6.7c2.6,0.3,2.3-3,3-4.6c0.3-2.8,4.2-3.1,5.4-0.8c3.8,6.5,4.7,14.3,4.5,21.7c-0.4,2.8-0.7,7.2-4.1,7.8
	c-3.2-0.3-3.3-4.3-4.3-6.7c-2.7-9.1-11.3-14-18.3-19.6c-2.1-1.4-4.5-4-7.3-2.8c-2.8,1.2-4.8,3.5-7,5.4c-6.7,6.1-15.1,10.5-24.1,11.8
	c-9.9,1.6-20.1-0.6-29-5.1c-9.4-4.6-17.3-11.6-26.7-16.2c-2.5-1.3-6.2-1.9-8.2,0.6c-1.8,3.2-1.2,7-1.1,10.5
	c2.4,25,1.4,50.2-1.6,75.1c-2.7,21.2-6.9,42.3-13.1,62.7c-0.5,1.8-1.3,4.2,0.3,5.7c4.1,3.5,10,0.9,14.6,3.3c2.8,1.9,1.3,6-1.2,7.5
	c-10,6.7-22.9,6.6-34.5,5c-5.7-1.1-12.1-2-16.2-6.6c-2.1-2.3-0.2-6,2.7-6.2c7.6-0.8,15.8,0.5,22.7-3.5c4.4-2.6,6.2-7.6,7.5-12.3
	c6.7-23.4,10.9-47.5,12.9-71.7c1.7-21.5,2-43.3-0.7-64.8c-0.4-4.5-4.3-9.3-9.3-8c-17.1,3.5-33.1,10.9-50.4,13.6
	c-31.3,5.3-65.6-0.9-90.5-21.4c-3.2-2.4-5.9-5.7-9.7-7c-5.1-1-9.6,2.3-13.8,4.6c-24.2,13.8-48.5,27.6-72.7,41.4
	c-1.8,1.1-4,2.4-4.4,4.7c-0.5,5.6,3.2,10.4,3.3,15.9c0.1,2.5-2.4,4.5-4.9,3.9c-4.5-0.8-7.7-4.5-10.1-8.1c-4.2-6.1-5.3-13.6-6.1-20.7
	c-0.2-4-0.6-8.5,2-11.8c1.6-2.2,5.2-2.4,6.8-0.1c2.2,3.5,2.4,8.4,6,10.9c2.5,1.7,5.3-0.3,7.6-1.4c24-13.6,48-27.3,72-41
	c3.2-1.9,7.3-4.4,7.2-8.7c-1-7-5.1-13.1-6.7-20c-4.9-17.2-2.3-35.5,2.8-52.3c1.6-5.1,3.3-10.2,5.9-14.8
	C391.1,466.6,392.7,464.2,395.4,463.7"/>
<path class="st0" d="M458.4,501.6c6.3-2.7,14,2.6,14.1,9.4c0.4,5.7-4.7,11.1-10.5,10.9c-6.2,0.3-11.5-5.9-10.4-11.9
	C452.1,506.2,454.8,502.8,458.4,501.6z"/>
<path class="st0" d="M495.5,523.7c6.1-3.2,14.3,1.4,14.9,8.2c0.9,5.7-3.7,11.3-9.4,11.8c-5.6,0.7-11.2-4-11.5-9.6
	C489.1,529.8,491.6,525.5,495.5,523.7z"/>
<path class="st0" d="M613.3,531.5c9.4-3.3,20.5,3.6,21.9,13.4c2,9.7-6.2,19.8-16.1,19.9c-9.7,0.8-18.6-8.2-17.8-17.9
	C601.5,539.9,606.6,533.5,613.3,531.5z"/>
<path class="st0" d="M457.3,545.2c6.2-2.7,13.8,2.2,14.2,8.8c0.7,6-4.5,11.7-10.5,11.5c-5.2,0.1-10-4.2-10.4-9.4
	C450,551.4,452.9,546.7,457.3,545.2z"/>
</svg>
