<svg version="1.1" xmlns="http://www.w3.org/2000/svg" xmlns:xlink="http://www.w3.org/1999/xlink" x="0px" y="0px" viewBox="0 0 1000 1000" style="enable-background:new 0 0 1000 1000;" xml:space="preserve">
<style type="text/css">
	.st0{fill:#EDEDED;}
	.st1{fill:#000000;}
</style>
<path class="st1" d="M433.5,322.8c15.1-2,30.5,1.7,43.8,9c13.8,7.6,25.5,18.7,34.4,31.6c11,16.8,19,35.6,22.4,55.4c5.7,33.3,0.2,69.2-18.3,97.8
	c-9.1,14-21.5,26-36.5,33.5c-12.6,6.3-27.1,9.1-41.1,7.3c-16.4-1.8-31.8-9.7-43.9-20.6c-14.9-13.4-25.2-31.3-31.5-50.1
	c-6.7-19.1-9.3-39.5-8.2-59.6c0.7-23.2,7.7-46.4,21-65.5C388.7,341.7,409.4,325.7,433.5,322.8"/>
<path class="st1" d="M632.3,376.3c13.8-2.4,28.5,0.3,40.2,8.2c10.7,7.3,18.8,18,24.3,29.7c9.3,20.4,9.4,44.1,3.7,65.5c-5,16.7-16,31.7-30.7,41.2
	c-12.5,8.3-28.3,11.5-43,8.3c-11.5-2.2-21.6-9-29.5-17.6c-9.6-10.8-15.5-24.5-17.8-38.7c-3.7-23.5,0.1-48.4,12.6-68.8
	C600.6,389.4,615.6,379,632.3,376.3"/>
<path class="st0" d="M439.3,342.2c13.4-1.5,27.2,1.9,38.7,8.9c15.9,9.6,27.7,25,35.1,41.8c13.6,31,14.1,67.5,1.5,98.9
	c-6.8,16.7-17.6,32.1-32.6,42.3c-12.7,8.7-28.7,13.1-44.1,10.7c-13.5-1.9-25.9-8.6-35.9-17.8c-12-11.1-20.7-25.5-26.2-40.8
	c-8-22.7-9.5-47.6-4.3-71.1c4.9-22.3,16-44,34-58.5C415.1,348.8,427,343.7,439.3,342.2"/>
<path class="st0" d="M634.4,391.7c10.7-2.4,22.3,0.3,31,6.9c9.7,7.1,16.2,17.9,19.6,29.3c5.7,18.6,4,39.3-4.2,56.9
	c-5.1,10.8-13,20.6-23.4,26.8c-9,5.3-20,7.5-30.2,4.6c-13.2-3.4-23.5-14-29.2-26c-9.7-20.1-9.3-44.4-0.5-64.7
	C604.3,409.8,617.2,395.5,634.4,391.7"/>
<path class="st1" d="M458.4,451.6c13.5-4.3,29.3,3.1,34.5,16.3c5.5,12.3,0.6,28-10.8,35.2c-9.6,6.4-23.1,6-32.4-0.9
	c-9.7-6.8-14.2-19.9-10.7-31.2C441.7,461.8,449.3,454.3,458.4,451.6z"/>
<path class="st1" d="M627.3,456.2c13.1-2.9,27.3,4.9,32.1,17.3c1.8,4.8,3,10.3,1.5,15.3c-1.5,4.6-8,6.4-11.6,3c-3.9-3.2-1.8-8.9-3.8-12.9
	c-2.6-6.5-10.8-10.2-17.3-7.4c-4.3,1.2-6.4,6.3-11.1,6.5c-5.5,0.7-9.7-6.1-6.8-10.7C614,461.3,620.6,457.7,627.3,456.2z"/>
</svg>
