<svg version="1.1" xmlns="http://www.w3.org/2000/svg" xmlns:xlink="http://www.w3.org/1999/xlink" x="0px" y="0px" viewBox="0 0 1000 1000" style="enable-background:new 0 0 1000 1000;" xml:space="preserve">
<style type="text/css">
	.st0{fill:#FFD400;}
	.st1{fill:#FF3CAE;}
	.st2{fill:#EDEDED;}
	.st3{fill:#000000;}
</style>
<path class="st3" d="M311.3,235.1c15.1-1.6,30.4,3.3,43,11.6c7.3,4.8,13.4,11.3,19,17.9c4.2,4.9,7.1,10.8,12.2,14.9c5.3,4.2,12,6.1,18.4,7.6
	c5.3,1.1,10.6,2.4,16.1,2.2c9.8-0.2,19.5-2.4,29.2-3.2c22.9-1.9,45.9-4,68.8-1.7c33.1,3.5,64.9,14.5,95,28.5
	c14.6,7,28.7,15.4,41.2,25.7c14.5,11.9,26.8,26.5,36.4,42.6c7.8,13.4,14.4,27.8,17,43.2c3.3,18.4,2.9,37.4,0.2,55.9
	c-2.4,13.5-6,26.9-10.3,39.9c-1,3-2.1,6.3-5,8c-3.3,1.4-6.5-1.1-9.4-2.3c-16.1-6.8-32.9-11.5-49.6-16.5
	c-46.3-13.5-93.7-22.7-141.4-29.4c-47-6.6-94.7-8.3-142.1-5.2c-12.7,1.2-25.4,2.2-37.8,5.4c-5.9,1.5-12.9,3.1-16,9
	c-2.6,7.2-3.6,15.1-7,22c-1.6,3.4-5.4,5.5-9.2,5c-9.3-1.5-18.2-4.9-26.9-8.4c-20.3-7.8-36.7-23.5-48.6-41.4
	c-11-16.5-16.5-36.6-15-56.4c0.2-4.3,5.2-7.5,9.1-5.5c3.1,1.8,4.9,5,7.3,7.5c10.9,12.6,31,15.4,45.2,7c8.4-5,13.7-14.4,13.9-24.1
	c0.8-13-5-25-8.5-37.2c-6-20.2-11-41.8-6.1-62.8c4.1-16.9,12.4-33.4,25.8-44.9C286,241.9,298.4,236.6,311.3,235.1 M480.5,297.7
	c-37.2,3.9-72.7,19.7-102,42.7c-9.2,7.4-18.1,15.5-24.6,25.4c-2.1,3.2-3.9,8-0.8,11.2c3.6,3,8.6,1.9,12.9,1.9
	c35.6-2.4,71.4-3.1,107.1-2.4c40.5,1.5,81,4.7,120.9,12.2c23.8,4.2,47.7,8.3,71.2,14.5c3.5,0.8,7.2,1.7,10.8,1.2
	c3.6-0.9,5.1-5,4.6-8.4c-0.8-6.9-3.8-13.3-7.1-19.3c-8-14.1-20.2-25.3-33-35c-13.8-10.3-29.2-18.2-45-25
	c-15.3-6.4-31.1-11.9-47.4-15.4C525.8,296.5,503,295.5,480.5,297.7"/>
<path class="st0" d="M293.3,257.3c10.5-7.8,24.7-9.6,37.1-5.9c10.9,3.2,19.5,11.2,26.9,19.4c5.1,5.8,9.8,12.1,12.9,19.2
	c-13.6,4.6-25.9,13-35,24.1c-7.5,9.5-12.5,20.8-15.4,32.5c-2.8,10.6-2.9,21.7-5.1,32.5c-2.2,12.7-9.6,23.6-14.4,35.3
	c-11.1,26.1-18.8,53.5-24.2,81.3c-14.8,0.6-29.3-5.1-41-13.9c-16.3-12.3-28.2-30.8-31-51.2c6,5.4,13.9,8.1,21.9,9
	c18.9,2,38.4-7.1,49.2-22.6c5.7-8.1,8.3-18.2,7.7-28.1c-0.5-15.3-8.4-28.8-12.9-43.1c-4.7-14.3-7.3-29.9-3.6-44.7
	C270.6,284.3,279.1,267.8,293.3,257.3z"/>
<path class="st1" d="M354.1,319.1c12.8-11.4,30.9-17.3,47.9-13.7c-27,13.7-50.1,34.2-68.5,58.1C333.6,346.6,341.5,330.2,354.1,319.1
	z"/>
<path class="st2" d="M366,389.6c22.4-2.5,45-2.9,67.5-3.4c-1.7,10.1-3.4,20.2-5.1,30.2c-30.8-1.2-61.6-0.5-92.4,1.5
	c-3.8,0.1-8.2,0.9-11.5-1.5c-1.9-1.7-1.1-4.4-0.3-6.4c2.3-5.7,5-12.2,11.1-14.8C344.9,391.1,355.7,390.9,366,389.6z"/>
<path class="st2" d="M443.7,386.3c48-0.3,96.1,3.3,143.4,11.7c24,4.2,48.3,8,71.5,15.7c9.4,3.2,18.9,6.9,26.9,12.9
	c3.9,3.1,7.6,6.9,9.3,11.7c0.4,1.4,0.1,3.7-1.8,3.8c-3.7,0.2-7.2-1.2-10.7-2.2c-8.9-3.1-17.9-5.7-26.9-8.4c-1.4-0.3-3-1-4.3-0.2
	c-2.8,1-2.4,5.5,0.3,6.3c11.4,3.9,23.3,6.5,34.3,11.6c4.1,2,8.3,4.5,10.4,8.7c1.5,2.8,1.1,6.7-1.4,8.8c-2.5,1.3-5.3,0-7.7-0.7
	c-22.8-8-46-15.3-69.4-21.3c-58.6-14.6-118.6-24.9-179-27.4C440.2,406.9,441.9,396.6,443.7,386.3z"/>
<path class="st2" d="M362.5,428.7c26.1-0.8,52.3-1,78.4,0.8c51.3,2.2,102.1,10.4,152.1,21.7c31.2,7,61.9,16.3,92.1,26.9
	c2.7,1.1,5.8,1.8,7.8,4c1.8,2.3,1,5.4,0.8,8.1c-1.3,8.1-3.7,16-5.7,24c-42.2-14.4-85.2-26.5-129-35c-43.9-8.5-88.3-15.3-133-17.1
	c-23.5-1-47-1.2-70.5-0.1C357.8,450.9,360.3,439.8,362.5,428.7z"/>
<path class="st2" d="M338.1,430.2c4.7-0.5,9.4-0.7,14-0.8c-2.2,11.1-4.7,22.1-7,33.1c-5.6,0.5-11.2,0.9-16.9,1.5
	C331.5,452.7,334.9,441.5,338.1,430.2z"/>
<path class="st2" d="M311.6,436.5c3.5-5.1,10.3-5,15.8-5.5c-3.3,11.5-6.6,22.9-10,34.3c-4.5,0.4-9.3,1.5-13.6-0.4
	c-2.6-1.5-1.4-4.8-0.8-7C305.5,450.7,307.3,443,311.6,436.5z"/>
</svg>
