<svg version="1.1" xmlns="http://www.w3.org/2000/svg" xmlns:xlink="http://www.w3.org/1999/xlink" x="0px" y="0px" viewBox="0 0 1000 1000" style="enable-background:new 0 0 1000 1000;" xml:space="preserve">
<style type="text/css">
	.st0{fill:#FF3CAE;}
	.st1{fill:#00A900;}
	.st2{fill:#FFD400;}
	.st3{fill:#EDEDED;}
	.st4{fill:#000000;}
</style>
<path class="st4" d="M773.5,504.4c-5.4-14.2-16.2-26-29.2-33.7c-3.6-2.2-7.6-3.5-10.9-6.2c-3.8-3.2-5.6-7.9-7.7-12.2
	c-4.3-9.4-9.2-18.5-14.8-27.1c-18.4-28.8-44.7-52.1-74.6-68.4c-34-18.3-72.9-27-111.4-26c-10.9-0.1-21.9,1.9-32.8,0.6
	c-10.3-1.5-18-9.1-27-13.6c-17.6-9.2-38.1-13.3-57.8-10c-9.7,1.6-19.1,5.2-27.7,10c-5.1,2.9-10.6,5.8-16.7,5.4
	c-8.7-0.5-17.5-0.7-26.1,1c-31,5.8-58.9,31-63.7,62.8c-0.9,6.7-2.2,14.1-8.1,18.2c-22,17.4-38.4,42.1-43.8,69.8
	c-3.5,16.8-2.2,34.5,3,50.9c1.5,5.1,3.8,9.9,4.8,15.1c1,6.8-1.3,13.4-1.7,20.1c-1,14.5,2.8,29.8,12.3,41c3.6,4.5,8.9,7.9,10.6,13.7
	c1.5,5.1,1.3,10.5,2.2,15.8c3.2,20.1,10.1,40.4,24.1,55.7c13.2,14.5,30,25.5,47.9,33.1c30.4,13.6,63.4,19.8,96.2,24.5
	c25.2,3.7,50.7,4.6,76.1,4.8c46.7,0.4,93.8-1.1,139.4-12c14-3.7,28-7.8,41.2-13.9c13.4-6.1,25.1-15.2,35.4-25.6
	c11.5-11.8,21-25.7,26.5-41.3c7.8-20.7,9.2-43,10.5-64.8c0.4-5.4,0.5-11.3,4.1-15.7c4.3-5.4,9.5-10,13.3-15.9
	C778.6,544.2,780.6,522.6,773.5,504.4z"/>
<path class="st0" d="M385.1,334.1c14.2-10.8,33.3-14.8,50.8-11.1c5.9,1.3,12,3.4,16.8,7.3c1.6,1.2,2.3,3,3.1,4.7
	c-1.5,1.1-3.1,2.3-5,2.8c-9.8,2.7-19.9,3.7-29.7,6.3c-4.8,1.3-9.7,3.2-13,7.1c-4,4.6-5.3,10.7-8,15.9c-6.5,13.4-17.9,23.5-28.9,33.2
	c-4.3,4-9.8,6.4-14.9,9.2c-2.8,1.4-3.1,4.8-3.1,7.6c-0.4,20.4-6.2,40.5-15.8,58.4c-4.6,8.4-9.9,16.5-16.8,23.2
	c-4,4.1-8.6,7.5-13.1,11.1c-2,1.6-4.1,3.6-4.5,6.3c-0.6,4.1,1.9,7.7,3.6,11.2c6.6,12.6,10,27.4,6.8,41.5
	c-2.1,10.1-7.6,19.5-15.6,26.1c-7,5.8-16.8,8.9-25.8,6.5c-10-2.4-17.8-10.4-22.2-19.4c-4.3-8.9-6.3-19.2-4.6-29
	c0.8-5.8,3.2-12,0.1-17.6c-11.6-23-14.4-51.4-3.1-75c7.4-18.6,21.2-33.8,36.2-46.8c3-2.7,6.5-5,9.1-8.1c2.5-3,2.2-7,2.3-10.6
	c0-8.3,1.2-17,5.7-24.2c10.4-17,28.7-28.3,48-32.2c9.7-2,19.6-0.9,29.3,0C377.6,339.1,381.7,336.7,385.1,334.1z"/>
<path class="st1" d="M507.4,352.5c22.8-0.7,45.8,0,68.2,4.2c15.1,2.7,29.6,8.1,43.8,14c28.9,12.4,54.3,33,72.1,58.8
	c5.9,8.4,11.1,17.2,15.5,26.5c1.5,3.2,2.8,7.4,0.6,10.6c-2.4,2.8-6.3,3.3-9.7,4.2c-17.6,3.6-33.6,14.7-43.1,30
	c-6.9,11-11,24.1-9.3,37.2c1.2,12.6,7,24.7,16.4,33.2c13.5,12.8,32.7,18.9,51.1,17c4.8-0.2,10.2-1.5,14.4,1.5
	c3.5,2.6,3.3,7.4,3.1,11.3c-1.3,17.5-4.3,35.1-10.8,51.5c-6.2,15-15.2,29-27.8,39.4c-10.6,8.7-23.2,14.6-36.2,18.8
	c-17.5,5.7-35.7,9.3-53.9,12.1c-24.8,3.7-49.7,6.4-74.7,7.7c-21.8,1-43.6,0.9-65.3-0.2c-26-1.3-51.9-5.1-77.4-10.4
	c-19-3.9-37.7-9.7-55.4-17.8c-14.3-6.3-27.6-15.3-38.2-26.8c-13.6-14.6-18.9-34.9-20-54.4c-0.3-2.3,0.7-5.2,3.3-5.7
	c4.6-0.7,9.4-0.1,13.9-1.1c16.8-2.4,31.2-15,37.6-30.5c5.7-14.2,5.4-30.3,1.6-45c-1.4-5.9-4.2-11.5-4.4-17.6
	c0.4-6.5,5.8-10.8,9.6-15.5c16.9-18.9,29.5-42.2,33.6-67.4c1-5.4,1.4-11,4.1-15.9c2.7-4.9,7.2-8.2,11.3-11.8
	c7.1-5.9,13.9-12.1,19.7-19.3c5.1-6,9.2-12.7,14.2-18.7c3.8-4.6,9.6-7,15.1-8.9c8.6-3.1,17.7-4.3,26.7-5.8
	C473.8,355.4,490.5,353.2,507.4,352.5 M466.3,459.2c-23.1,2.6-45.4,13.8-60.5,31.7c-11.7,13.9-18.8,31.9-18.4,50.1
	c-0.2,17.7,6.7,35.1,18,48.6c20.5,24.6,54.7,35.6,85.9,30.5c18.8-3,37-11.6,50.4-25.4c13.6-13.6,22-32.4,23.1-51.6
	c1-16.4-3.7-33.1-13-46.7C533.3,469,498.5,455.2,466.3,459.2 M607.2,642.3c-3.1,5-3.3,11.1-4,16.8c-16.2,0.8-32.5,2.5-48.6,4.8
	c-1.1-7.8-3.4-16.5-10.2-21.3c-7.8-5.7-19.7-2.8-24.7,5.2c-4.2,6.6-2.9,14.8-2.2,22.1c-5.8,1-11.6,2.1-17.3,3.2
	c-1.6-5.2-2.9-10.7-6.4-15c-3.3-4.2-8.4-7.2-13.8-7c-6.4-0.2-12.6,4-15.1,9.8c-3,6.5-1.7,13.8-0.8,20.6c-6.5,1.6-13,3.3-19.4,5.1
	c-2.6,0.8-5.4,1.7-7.2,4c-2.8,3.4-2.3,9,1.1,11.8c2.5,2.2,6.1,2.5,9.3,1.6c6.8-1.9,13.6-3.9,20.5-5.4c2,6.8,4.7,14.2,11.2,17.8
	c9.2,5.2,22.1-0.9,24.7-11c1-4.2,0.4-8.6-0.2-12.8c5.6-0.8,11.2-1.5,16.8-2.1c1.2,7,3.4,14.8,9.8,18.8c7.7,5.1,18.8,1.7,23.7-5.8
	c2.9-4.6,2.9-10.3,2.5-15.6c15-0.5,29.9,0.2,44.8,1.1c0.1,7.4,3.1,15.9,10.6,18.7c11.3,4.7,25-3.9,26.7-15.9c4.8-0.5,10-0.6,14-3.6
	c4.8-3.5,6.3-10.6,3.5-15.8c-3.1-6.1-9.6-9.1-15.8-11c0-6.4,0-13.2-3-19.1c-2.8-5.5-8.9-8.9-15-9
	C616.6,633.4,610.4,636.8,607.2,642.3z"/>
<path class="st2" d="M620.4,641.5c3.9-1,8.7,0.6,10.4,4.5c1.8,4,1.4,8.6,1.6,12.9c-0.2,9.9-0.1,19.9-1.1,29.8
	c-0.4,4.3-2.6,8.7-6.8,10.5c-5,2.6-12.6,0.3-13.9-5.6c-1.3-7.5,0-15.1,0.2-22.6c0.6-7.4,0.5-14.9,2.2-22.1
	C613.9,645.3,616.7,642.2,620.4,641.5z"/>
<path class="st2" d="M531.4,648.6c4.9-1.9,10,1.5,11.8,6.1c2.7,6.7,3.3,14.1,4.6,21.2c0.8,6.9,2.4,14,0.8,21c-1.5,6.6-10.9,9-15.5,4
	c-4.3-5-4.8-11.9-6-18.1c-1.1-8-3.2-15.8-3-23.9C524,654.3,526.7,649.5,531.4,648.6z"/>
<path class="st2" d="M476.4,659.5c4.6-2.1,9.8,1,12,5.2c3.2,6.1,4.4,12.9,6,19.6c1,6.2,3.1,12.3,2.3,18.6c-0.9,6-8.6,9.6-13.7,6.2
	c-4.2-3-5.5-8.3-7-13c-2.2-8.3-4.6-16.6-5.5-25.1C469.9,666.4,471.8,661.1,476.4,659.5z"/>
<path class="st3" d="M467.3,473.2c14-1.9,28.5,0.4,41.5,5.8c15.8,6.6,29.4,19,36.5,34.7c6.8,14.7,7.1,32.1,1.3,47.1
	c-6.1,16-18.7,29-33.8,36.8c-25.7,13.5-58.9,12.1-82.9-4.6c-13.5-9.3-23.8-23.6-27.1-39.8c-3.8-17.1,0.6-35.5,11-49.6
	C426.2,486.5,446.4,475.7,467.3,473.2"/>
<path class="st3" d="M700.4,484.7c11.6-2,24.1-2.1,34.9,3.1c14.1,6.1,24.6,19.7,27,34.8c2.3,12.2-2.2,25.2-10.5,34.2
	c-10.9,11.7-26.8,18.3-42.7,18.7c-13,0.4-25.7-4.7-35.6-12.9c-13-10.3-17.6-29.3-11.5-44.6C667.9,501.3,683,488.2,700.4,484.7"/>
<path class="st4" d="M438.4,504.7c6.2-1.3,13,0,18.2,3.7c7.8,5.3,11.6,15.6,9.3,24.7c-2,8.5-9,15.6-17.6,17.5c-8.8,2.2-18.8-1.5-24-8.9
	c-4.9-6.5-5.9-15.5-2.7-22.9C424.5,511.7,431,506.3,438.4,504.7z"/>
<path class="st4" d="M727.4,520.7c7.9-3.8,18.3,0.4,21.2,8.7c3.6,8.7-2.2,19.6-11.3,21.7c-7.8,2.2-16.8-2.8-18.9-10.6
	C715.8,532.8,720.1,523.9,727.4,520.7z"/>
</svg>
