<svg version="1.1" xmlns="http://www.w3.org/2000/svg" xmlns:xlink="http://www.w3.org/1999/xlink" x="0px" y="0px" viewBox="0 0 1000 1000" style="enable-background:new 0 0 1000 1000;" xml:space="preserve">
<style type="text/css">
	.st0{fill:#EDEDED;}
	.st1{fill:#000000;}
</style>
<path class="st1" d="M433.5,322.8c15-2,30.5,1.7,43.7,9c13.8,7.6,25.6,18.7,34.4,31.7c10.4,15.8,18.1,33.4,21.8,52c6.7,34.1,1.6,71.1-17.2,100.7
	c-9,14-21.3,26.2-36.2,33.8c-12.8,6.5-27.5,9.4-41.8,7.6c-16.2-1.8-31.3-9.4-43.4-20.2c-15-13.3-25.5-31.1-31.9-50
	c-6.8-18.9-9.5-39.2-8.5-59.2c0.5-23.3,7.3-46.7,20.7-65.9C388.3,342,409.1,325.7,433.5,322.8"/>
<path class="st1" d="M632.3,376.3c13.4-2.3,27.5,0.1,39,7.4c11.1,7.1,19.5,18,25.2,29.8c8.2,17.6,9.6,37.8,6.1,56.7
	c-3.1,19.8-14.6,38.1-31.1,49.5c-19.3,14.2-48.4,14.6-66.9-1.2c-15.3-12.2-23.7-31.3-25.8-50.4c-1.3-14-0.6-28.3,3.5-41.7
	c4-13.4,10.6-26.3,20.9-36C611.3,382.9,621.6,378.2,632.3,376.3"/>
<path class="st0" d="M443.6,341.9c15-0.6,29.7,4.9,41.4,14.1c15.3,11.9,25.9,29,32,47.2c10.8,32.8,8.5,70.2-8.2,100.7
	c-8,14.4-19.5,27.1-34.3,34.7c-12.2,6.3-26.5,8.6-39.9,5.7c-16-3.2-30.1-13-40.4-25.4c-11.5-13.7-18.9-30.6-22.7-48
	c-5.7-26.1-3.3-54.1,7.5-78.7c7.4-16.7,19-31.9,34.8-41.3C422.8,345.5,433.2,342.4,443.6,341.9"/>
<path class="st0" d="M634.4,391.7c10.7-2.3,22.3,0.3,31,6.9c10.1,7.4,16.7,18.7,20.1,30.6c5.2,18,3.4,37.8-4.3,54.8
	c-5.1,11.1-13.1,21.2-23.7,27.5c-8.8,5.2-19.5,7.4-29.5,4.8c-11.8-2.8-21.5-11.5-27.5-21.8c-9-15.1-11.3-33.5-8.4-50.7
	c2.6-15.3,9.6-30.1,21.1-40.7C619.1,397.6,626.4,393.5,634.4,391.7"/>
<path class="st1" d="M452.8,428.8c7.9-3.2,17.1-2.9,24.8,0.7c8.8,4,15.4,11.7,19.4,20.4c-10.7,6.6-21.5,13.2-32.2,19.9c-2.7,1.2-2.6,5.2,0.2,6.2
	c10.8,5.5,21.7,10.9,32.5,16.4c-4.7,11.1-13.7,20.9-25.6,24.1c-9.3,2.8-19.5,0.4-27.3-5.2c-9.8-7-15.6-18.5-17.5-30.2
	c-1.6-9.4-0.4-19.2,2.9-28.2C434,442.4,441.9,432.8,452.8,428.8z"/>
<path class="st1" d="M628.7,447.7c5.2-5.7,13.5-9.3,21.2-7.2c7.7,1.7,13.5,7.9,16.7,14.9c-7.2,4.6-14.6,9-21.8,13.7c-1.8,1.1-1.3,3.9,0.6,4.6
	c6.9,3.6,13.9,7,20.9,10.5c-3.3,7.2-9.4,13.6-17.3,15.6c-8.2,2.3-17.2-1.7-22.2-8.3C617.1,478.8,618.1,459.4,628.7,447.7z"/>
</svg>
