<svg version="1.1" xmlns="http://www.w3.org/2000/svg" xmlns:xlink="http://www.w3.org/1999/xlink" x="0px" y="0px" viewBox="0 0 1000 1000" style="enable-background:new 0 0 1000 1000;" xml:space="preserve">
<style type="text/css">
	.st0{fill:#EDEDED;}
	.st1{fill:#FF002C;}
	.st2{fill:#6089FF;}
	.st3{fill:#000000;}
</style>
<path class="st3" d="M458.1,394.2c21.2-6.9,43.6-10.4,65.9-8.9c16.8,0.9,33.4,4.7,49.3,10.4c16.9,6,33,14.6,46.8,26.2
		c19.1,16.4,33.2,38.2,42.5,61.5c7.5,20.7,12.1,42.6,12.8,64.7c1.3,26.4-1.8,53.1-10.3,78.1c-3.7,10.2-8.4,20-13.5,29.5
		c-9.1,15.9-21.2,30.1-35.5,41.5c-3.5,2.4-6.8,5.7-11.1,6.2c-4.9,0.4-7.2-6.9-3.1-9.5c6-4.3,12-8.6,17-13.9c2.4-2.7,5.9-5,6.3-8.8
		c-7.4,1.3-14.5,3.8-21.8,5.2c-27.8,5.4-56.1,8.1-84.4,7.8c-18.7-0.4-37.6-0.9-56.1-4c-25.3-4-50.6-8.7-74.8-17.4
		c-1.3-0.5-2.8-0.6-3.9,0.2c3.1,7.8,9.1,14,14.9,19.9c5.6,5.8,12.2,10.6,18.7,15.3c1.9,1.5,4.3,3.1,4.2,5.8c0.6,3.7-3.8,6.7-7.1,5.2
		c-4.1-1.6-7.6-4.4-11.2-6.9c-21.6-16.1-38.4-38.2-49.4-62.6c-7.4-16.3-11.5-33.9-13.5-51.6c-0.9-8.1-1.8-16.3-1.4-24.5
		c3.9,0.5,7.7,1,11.5,1.7c0.5,13,1.1,26.1,4,38.9c1.8,8.1,4.1,16.4,8.6,23.4c4.8,7.3,12.2,12.3,19.8,16.2c22.3,11,46.7,17,71.1,20.9
		c18.4,3,36.9,5.1,55.6,5.2c23.6,0.4,47.4,0,70.7-4.1c14.3-2.5,28.6-5.3,42.4-9.6c8-2.7,16.7-6,21.6-13.3
		c5.4-8.1,9.2-17.3,11.3-26.8c2.6-4.4,5.4-8.8,7.2-13.7c5.6-14,5.4-29.9,0.5-44.1c-0.1-7-0.3-13.9-1.3-20.8
		c-1.5-10.8-2.4-21.8-5.6-32.3c-1.2-3.6-3-7.9-7.1-9c-4.6-0.9-9.2,0.4-13.8,1c-31.8,4.9-64,5.8-96.1,5.6
		c-31.4-0.8-62.9-2.6-93.9-7.7c-19.6-2.6-38.9-6.6-58.2-10.8c-5.8-1.1-13-2.6-17.8,2c-5.8,5.8-8,14-10.6,21.5
		c-4.2,12.2-6.1,25-7.7,37.7c-3.8-0.5-7.5-1-11.2-1.7c1.3-24.1,8.4-47.9,19.8-69.2C381.1,436.3,417.7,408.5,458.1,394.2
		 M499.4,397.4c-35.8,3.3-70.3,18.8-97,42.9c-5.5,5.1-11.2,10.8-12.7,18.5c-1.3,5.2,1.8,10.8,6.7,12.8c5.6,2.4,11.7,3,17.6,4.4
		c40.8,8.9,82.5,12.2,124.1,13.3c22.4,1,44.8-0.5,67.2-1.9c9.2-0.7,18.4-1.3,27.5-2.9c3.6-0.7,7.7-1.9,9.5-5.5
		c1.9-4.1,0.2-8.7-1.7-12.5c-7.2-14.3-17.3-27.2-29.8-37.3c-19.4-15.9-43.5-25-67.9-30C528.5,396.8,513.8,395.8,499.4,397.4z"/>
<path class="st0" d="M399.6,543.6c11.2-15.6,30.2-25.2,49.4-25.3c20.2-0.1,40.2,10.5,51.2,27.5c1.7,2.6,3,5.4,4.9,7.8
		c3.9-0.7,7.5-2.3,11.4-3c9.1-1.7,18.7-1.4,27.6,1.4c2.1,0.6,4.2,1.4,6.4,1.5c1.7-2.4,2.9-5.1,4.5-7.5
		c11.3-17.6,32.2-28.3,53.1-27.6c16.6,0.6,33,8.1,44,20.6c5.1,5.6,8.9,12.3,11.8,19.2c4.9,14.2,5.1,30.1-0.5,44.1
		c-1.9,4.8-4.6,9.2-7.2,13.7c-6.1,7.6-13.5,14.4-22.4,18.7c-19.2,9.9-43.7,8.4-61.5-3.8c-16-10.5-26.5-28.8-27.3-47.9
		c-0.2-3.2,0.1-6.5-0.2-9.7c-10.5-5.1-23.8-5.3-34.1,0.2c-0.4,4.5,0.1,9-0.4,13.5c-2.2,20.7-15.9,39.6-34.8,48.3
		c-19.2,9.3-43.3,7.4-60.8-4.9c-16.2-10.9-26.6-29.9-26.7-49.5c-0.1-3.2,0.3-6.5,0-9.7c-12.2-2.3-24.6-3.9-36.9-6
		c-3.8-0.6-7.7-1.2-11.5-1.7c-16.6-2.9-33.3-5.4-49.9-8.1c-10.5-1.6-22-3.3-31.6,2.3c-7.9,4.3-11.5,13.3-18.8,18.3
		c-5.4,3.8-13.9,3.5-18.3-1.8c-4.4-6.4-2.4-15,1.2-21.3c7.2-12.2,20.9-20.5,35.1-21c8.1-0.3,16.1,0.8,24.1,1.9
		c19.8,3.5,39.7,6.6,59.5,9.6c3.7,0.7,7.5,1.3,11.2,1.7c11.7,2.2,23.5,3.7,35.2,5.8c2.4,0.3,4.9,1,7.4,0.5
		C396.4,549,397.8,546.2,399.6,543.6"/>
<path class="st1" d="M443.4,538.6c12.7-1.9,26.1,2.8,35.2,11.8c11,11,15.3,28.4,9.8,43c-4.6,13.7-16.8,24.4-31,27.1
		c-17,3.8-35.7-4.6-44.2-19.8c-7.6-12.8-7.5-29.6,0.2-42.3C419.8,547.8,431.1,540.4,443.4,538.6z"/>
<path class="st2" d="M600.4,538.6c12.1-1.8,24.6,2.3,33.7,10.4c11.8,10.7,17,28.5,11.6,43.7c-4.3,13.7-16.3,24.7-30.4,27.7
		c-17.1,4.2-36.4-4.2-45-19.6c-7-11.9-7.6-27.4-1.2-39.7C575,549,587.2,540.5,600.4,538.6z"/>
</svg>
