<svg version="1.1" xmlns="http://www.w3.org/2000/svg" xmlns:xlink="http://www.w3.org/1999/xlink" x="0px" y="0px" viewBox="0 0 1000 1000" style="enable-background:new 0 0 1000 1000;" xml:space="preserve">
<style type="text/css">
	.st0{fill:#FFFFFF;}
	.st1{fill:#FAFAFA;}
	.st2{fill:#000000;}
</style>
<path class="st2" d="M449.4,520.5c-11.7,1.5-21.9,8.8-28.9,18.1c-11.1,14.8-16,34-14.2,52.4c1.2,11.4,5.3,23,13.5,31.3
c6,6.2,14.5,10.1,23.3,9.8c9.1-0.3,17.7-4.6,24.4-10.7c12.3-11.2,19-27.5,21-43.8c1.7-16-1.2-33.5-12-45.9
C469.8,524,459.6,519.3,449.4,520.5z"/>
<path class="st2" d="M646.2,567.9c-2.2-9.7-6.7-19.2-14.4-25.6c-6.1-5.1-14.5-7.7-22.4-5.8c-12.4,3.3-20.7,14.7-24.4,26.5
c-4.8,15.8-3.6,33.8,5.1,48.1c5.1,8.5,14,15.4,24.1,15.7c9.7,0.3,18.6-5.8,24-13.5C647.2,600.1,649.2,583.2,646.2,567.9z"/>
<path class="st0" d="M459.4,535.4c2.8-0.9,5.4,0.9,7.1,3c8.1,9.7,13.2,22.5,12,35.3c-0.4,3.7-1,7.6-3,10.8
c-1.7,2.8-6.6,3.1-8.3,0.1c-1.8-2.5-0.2-5.6,0.2-8.2c2.2-8.1,0-16.8-3.9-24c-1.9-3.6-4.9-6.6-6.9-10.1
C455.3,539.8,456.6,536.2,459.4,535.4z"/>
<path class="st0" d="M616.5,548.5c2.8-1.7,5.9,0.2,8.1,1.9c9,7,13.8,19.2,12.2,30.4c-0.8,4.3-7.8,4.6-8.9,0.3c-1-5-0.5-10.4-3-15
c-1.9-4.5-6-7.3-9.4-10.6C613.4,553.6,614.1,549.8,616.5,548.5z"/>
<path class="st0" d="M626.5,593.4c2.1-0.8,5-0.1,6.1,2c1.4,2.4,0.4,6-2.3,6.9c-2.3,1-5.4-0.2-6.3-2.6
C623,597.4,624.2,594.4,626.5,593.4z"/>
<path class="st1" d="M462.4,595.3c3.6-1,7.2,3,5.8,6.5c-1,4.1-7.2,4.8-9.2,1.2C457.2,600.1,459,595.8,462.4,595.3z"/>
</svg>
