<svg version="1.1" xmlns="http://www.w3.org/2000/svg" xmlns:xlink="http://www.w3.org/1999/xlink" x="0px" y="0px" viewBox="0 0 1000 1000" style="enable-background:new 0 0 1000 1000;" xml:space="preserve">
<style type="text/css">
	.st0{fill:#E94000;}
	.st1{fill:#FF5400;}
	.st2{fill:#000000;}
</style>
<path class="st2" d="M507.3,35.5c4.1-2,9,0.4,10.7,4.4c22.1,43.9,44.2,87.8,66.3,131.7c1.7,3,1.5,6.6-0.2,9.6c-22,43.7-44,87.4-66,131.1
	c-1.4,3.2-4.6,5.7-8.1,5.4c-3.2-0.1-5.9-2.5-7.2-5.3c-22-43.7-44-87.4-66-131.1c-1.6-2.9-1.9-6.5-0.2-9.5
	c21.3-42.4,42.7-84.8,64-127.2C502.4,41.3,503.6,37,507.3,35.5"/>
<path class="st0" d="M502.1,74.1c1.7-3.3,3.1-7,5.9-9.5c1.4,1.8,2.2,3.8,2.6,6c7,29.9,14.4,59.7,21.3,89.7c1,2.6-1.5,4.3-3.8,4.4
	c-21.3,2.8-42.7,5.3-64.1,7.6c-2.6,0.1-6.6,0.8-7.6-2.4c-0.3-3.7,1.3-7.3,2.9-10.6C473.5,130.9,487.8,102.5,502.1,74.1z"/>
<path class="st1" d="M514.8,67.5c0.8,0.7,1.5,1.6,2.1,2.6c16.2,32.2,32.4,64.4,48.6,96.6c0.7,1.4,1.9,3.8,0.2,4.9
	c-3.2,0.1-6.2-1.2-9.3-2c-5.3-1.8-11-2.5-16.1-4.9c-2.8-1.4-3.8-4.5-4.5-7.3c-6.1-25.6-12.2-51.2-18.3-76.8
	C516.5,76.2,515,71.9,514.8,67.5z"/>
<path class="st1" d="M464.4,176.8c20.2-2.4,40.4-4.9,60.7-7.2c2.2-0.2,5.9-0.5,6.1,2.5c0.4,3.2-0.4,6.4-0.8,9.5
	c-4.8,27.8-10,55.6-15,83.4c-1.9,9-2.8,18.2-5.3,26.9c-1.1-1-2.2-1.8-2.8-3.2c-16.7-33.3-33.5-66.5-50.2-99.8
	c-1.2-2.8-3.1-6.3-1.2-9.2C458,177.4,461.5,177.3,464.4,176.8z"/>
<path class="st0" d="M538.5,170.5c2.4-0.7,4.9,0.3,7.3,0.8c6.5,1.9,13.1,3.2,19.5,5.5c2.2,0.6,2,3,1.3,4.7
	c-2.1,5.8-4.6,11.4-7.4,16.9c-10.7,21.2-21.4,42.5-32.1,63.8c-3.2,6.1-6,12.5-9.5,18.4c0-1.8,0.1-3.7,0.4-5.5
	c5.9-32.4,11.7-64.8,17.6-97.2C536.2,175.3,536.6,172.4,538.5,170.5z"/>
</svg>
