<svg version="1.1" xmlns="http://www.w3.org/2000/svg" xmlns:xlink="http://www.w3.org/1999/xlink" x="0px" y="0px" viewBox="0 0 1000 1000" style="enable-background:new 0 0 1000 1000;" xml:space="preserve">
<style type="text/css">
	.st0{fill:#007600;}
	.st1{fill:#00A900;}
	.st2{fill:#EDEDED;}
	.st3{fill:#000000;}
</style>
<path class="st3" d="M621.3,309.1c-2.4-15.6-10.1-30-20.7-41.6c-10-11-23.5-19.3-38.3-21.6c-4.3-0.8-8.9-0.1-13.1-1.7c1.3-4.7,5-9.4,3.1-14.4
	c-2.1-3.4-6.6-4.1-10.3-4.4c-10-0.6-19.7,2.4-29,5.7c-2,0.6-4.5,1.6-6.4,0.3c-2-1.8-0.8-4.6-0.2-6.8c3.5-10.3,9.1-19.8,11.5-30.5
	c1-3.8,0.5-8.5-3.1-10.9c-5.7-4.1-13.4-2.8-19.7-1c-6.9,2-12.2,7.6-14.6,14.2c-4.4,11.3-4.9,23.7-4.8,35.7c-0.1,2.7,0.3,5.8-1.5,8.1
	c-2.2,3-6.1,3.7-9.5,4.7c-9.6,2.4-19.3,5.1-28,10c-3.9,2.4-8.4,6-8.1,11.2c0.3,4.1,4.2,6.2,6.6,9c0.2,1.7-1.4,2.7-2.3,3.8
	c-8.7,7.9-15.8,17.9-18.7,29.4c-3.9,14.9-2.9,30.9,1.9,45.5c9.9,32.1,36.3,58.2,68,68.8c16.9,5.7,35.3,7.4,52.7,3
	c30.5-7.5,58.9-27.2,73.2-55.6C619.4,351.3,625.1,330,621.3,309.1z"/>
<path class="st0" d="M491,202c1.6-4.1,3.9-9.2,9-9.6c2.7-0.4,8.3-0.6,7.5,3.6c-2.9,7.4-7.1,14.3-9.5,21.9
		c-3.2,9.9-5.2,20.5-3.5,30.9c0.7,3.8,1.7,7.4,2.7,11.1c-1.7,0.2-3.4,0.5-5.1,0.8C484.9,242.1,483.9,220.7,491,202z"/>
<path class="st0" d="M502,247.2c9.2-6,20.1-9.6,30.9-11.2c2.5-0.6,7.4,0.2,5.9,3.9c-4.5,6.8-11.7,11.6-15.3,19.1
		c6.6,4.8,15,6.7,20.9,12.5c1.6,2-0.6,4.1-2.6,4.2c-8.2,1.4-16.6,1.6-24.9,2.6c-0.9,8.9,1.6,17.8,0.8,26.7c-0.8,3-4.5,1.9-6.1,0.4
		c-8.2-6.2-14.2-14.6-20.3-22.7c-0.9-1.2-2.5-2.8-4.1-1.6c-2.5,1.9-4.2,4.6-6.2,7c-4.1,5.5-9.1,10.2-14.3,14.7
		c-1.4,1.2-3.7,2.4-5.2,0.8c-1.3-1.9-1-4.4-1-6.5c0.5-6.7,1.4-13.3,1.8-20c0.1-2.2-0.2-4.9-2.5-5.9c-4.4-1.9-9.4-1.4-13.8-3.2
		c-1.7-0.6-2.8-2.9-1.3-4.3c2.6-2.4,6-3.5,9.2-4.8c7.2-2.6,14.5-5.5,22.3-6.1c1.9-0.1,4.3-0.1,5.6,1.6c2.8,3.9,2.5,9.5,5.9,13
		c4.4,1.8,9.5,0.9,13.7-1.2c1.7-0.9,3.6-2.1,4.1-4.1C504.9,256.9,501.5,252.3,502,247.2z"/>
<path class="st1" d="M546.5,261.1c4.1-1.7,8.7-0.4,12.9,0.3c12.7,2.5,24.8,8.9,32.9,19.2c10.1,12.4,15.2,28.5,14.6,44.4
		c-0.5,16.9-6.5,33.7-16.9,47c-9.5,12.3-22.2,22-36.1,28.8c-15.4,7.5-33,10.6-50,8.2c-20.6-2.7-40.1-12.7-54.5-27.6
		c-11.4-11.8-18.5-27.5-20.2-43.7c-1.3-14.1,0.6-29.5,9.5-41c3.2-3.7,6.5-7.7,11.3-9.4c1.5,7.9-0.3,16.3,2.5,24c1.2,3.3,5,5.1,8.4,4
		c10.8-3.3,20-10.4,28-18.1c6.7,7.9,14.2,15.3,23.2,20.6c3.2,1.7,7,3.5,10.7,2.3c2.8-0.9,3.8-3.9,4.5-6.5c1.7-7.1,1.9-14.4,0.8-21.6
		c-0.2-1.5-0.2-3,0.1-4.5c8.1-0.3,16.4-1.7,23.8-5.2c3.4-1.5,5.8-5.4,4.6-9.1C555,268,550.2,264.8,546.5,261.1"/>
<path class="st2" d="M568.5,283.6c5.7-1.4,11.4,1.7,15.5,5.4c7.4,7,11.5,18,8.8,28c-1.3,5.1-5.4,9.7-10.8,10.6
		c-6.4,1.1-12.6-2.5-16.7-7.1c-6.1-6.8-9.4-16.5-7.4-25.6C559.1,289.7,563,284.8,568.5,283.6z"/>
<path class="st2" d="M580.3,335.2c5.3-2,10.3,2.9,11.2,7.9c1.4,5.6-1,13.3-7.4,14.4c-5.4,0.6-9.3-4.7-9.7-9.5
		C573.8,343.2,575.4,337.1,580.3,335.2z"/>
</svg>
