<svg version="1.1" xmlns="http://www.w3.org/2000/svg" xmlns:xlink="http://www.w3.org/1999/xlink" x="0px" y="0px" viewBox="0 0 1000 1000" style="enable-background:new 0 0 1000 1000;" xml:space="preserve">
<style type="text/css">
	.st0{fill:#FFD400;}
	.st1{fill:#E94000;}
	.st2{fill:#000000;}
</style>
<path class="st2" d="M648.8,307c-4.3-14.6-13.2-27.4-22.9-38.9c-11-13.1-24.5-23.9-39-32.9c-3.8-2.5-8.4-1.6-12.5-0.5
	c-24.6,6-49.7,9.8-74.5,14.7c-24.5,4.8-49.1,8.7-73.6,13.4c-2,0.6-4.8,0.7-5.6,3c-2.6,5.8-5,11.7-7.6,17.5c-0.7,1.9-2.4,4.4-0.3,6
	c4.8,4.1,9.2,9.4,9.9,15.8c0.7,4.7-1.9,9.7-6.3,11.6c-3.2,1.7-6.9,1.3-10.4,1.7c-2,0.1-2.2,2.4-2.7,3.9c-3.3,13-6.6,26-9.9,39
	c-0.5,2.3-1.5,5.8,1.1,7.2c5.5,2.3,11.3,3.5,17,5.2c38.4,10.8,76.7,22.1,115,33.1c22.3,6.5,44.5,13.5,66.9,19.7
	c2.2,0.5,4.7,1.1,6.7-0.2c1.9-1.3,3.3-3.3,4.6-5.2c7.3-10.5,13.2-22,18.5-33.7c7.6-17.6,15.1-35.3,21.9-53.3
	C648.2,325.4,651.5,316.1,648.8,307z"/>
<path class="st0" d="M566.8,250.6c3.4-0.6,6.8-1.6,10.2-1.6c3.2,0,5.9,1.7,8.5,3.4c15.7,10.2,29.3,23.7,39.6,39.4
		c2.6,4.3,5.8,8.5,6.9,13.5c-1.7,0.2-3.3,0.4-5,0c-31.1-5.5-62.2-10.7-93.2-16.3c-4.8-0.2-4.7-5.9-7-8.9
		c-6.8-9.9-21.2-12.4-31.7-7.3c-3.4,1.4-6.1,4.1-8.7,6.6c-2.2,2.2-5.5,0.8-8.2,0.4c-9.7-2.2-19.6-3.5-29.2-6.1
		c1.5-0.7,3-1.2,4.5-1.5C491.3,265.1,529.1,257.8,566.8,250.6z"/>
<path class="st0" d="M429.4,281.4c1.5-1.4,3.6-0.6,5.3-0.4c15,3.1,30.1,5.8,45,9c2.8,0.4,3.5,3.4,4.5,5.6c2.1,6,7.7,10.2,13.6,12.1
		c8,2.7,17.3,1.2,24.1-3.9c2.1-1.5,3.7-3.7,5.7-5.3c1.5-0.9,3.4-0.2,5.1-0.1c31.8,5.5,63.6,11,95.3,16.5c2.1,0.4,5.3,1.1,4.9,3.9
		c-0.7,4-2.3,7.9-3.5,11.8c-9,26.8-19.3,53.4-34.7,77.2c-1.2,2-3.9,1.7-5.8,1.1c-58-17.3-116.1-34.7-174.1-52
		c-2.3-0.6-5.6-1.9-4.9-4.9c1.3-6.3,2.8-12.6,4.4-18.9c0.7-3.6,4.4-4.9,7-6.8c7.2-4.6,12.4-12.8,12.2-21.5
		c0.2-5.9-2.7-11.2-5.7-16.1C426.2,286.5,427.8,283.4,429.4,281.4 M454.4,321.7c-8.1,1.8-14.7,9.9-13.6,18.3c1,7.5,7.7,13.4,15.1,14
		c10.4,1.3,21.1-8.2,19.6-18.9C474.5,325.4,463.5,319.1,454.4,321.7 M568.3,332.6c-10.1,2.5-17.3,12.2-17.8,22.5
		c-1,13.3,8.4,26.6,21.4,29.8c10.1,3,21.8-1.9,26.8-11.2c4.5-7.6,4.5-17.3,0.8-25.2C594.5,337.1,580.8,328.9,568.3,332.6z"/>
<path class="st1" d="M503.2,280.2c5.7-1,12.7,0.4,15.9,5.7c2.1,3.3,0.6,7.6-2.2,10c-5.1,4.2-12.8,4.7-18.7,1.8
		c-3.2-1.6-6.1-5-5.4-8.8C493.6,284,498.7,281,503.2,280.2z"/>
<path class="st1" d="M455.3,331.4c4.4-1.9,10.5,0.4,10.8,5.6c0,7.1-10.6,10.2-14.7,4.6C448.8,337.9,451.3,332.7,455.3,331.4z"/>
<path class="st1" d="M569.3,342.2c7.2-2.6,15.4,0.7,19.6,6.8c5.5,7.3,5.2,19.5-2.9,24.8c-7.8,5.1-18.7,0.9-23-6.9
		C557.7,359,559.6,345.8,569.3,342.2z"/>
</svg>
