<svg version="1.1" xmlns="http://www.w3.org/2000/svg" xmlns:xlink="http://www.w3.org/1999/xlink" x="0px" y="0px" viewBox="0 0 1000 1000" style="enable-background:new 0 0 1000 1000;" xml:space="preserve">
<style type="text/css">
	.st0{fill:#FFD400;}
	.st1{fill:#E94000;}
	.st2{fill:#000000;}
</style>
<path class="st2" d="M596,367.9c-2.9-11-11.5-19.2-20.5-25.6c-2.6-5.4-6.3-10.1-10.5-14.3c-10.8-10.9-20.6-22.7-30.9-34.1c-15-17-30-34-45-51
	c-11.6-12.8-22.4-26.3-33.8-39.3c-5-5.7-9.6-11.8-15.7-16.4c-2.7-2.2-7.4-2.2-9.2,1.1c-2.2,4.5-1.4,9.8-1.4,14.7
	c1.9,35,5.5,69.8,8.1,104.8c2.3,27,4.4,54.1,5.7,81.1c0,3.1,0.8,6.3,3,8.6c-5.4,9.9-9.8,21.1-8.8,32.5c0.9,8.2,5.6,16.1,13.1,19.8
	c8.7,4.5,20.1,3.3,27.6-3.1c3.4-2.9,4.4-7.3,5.8-11.2c1-3.1,5.4-4.5,7.6-1.8c2.4,3.1,0.8,7.2,0,10.5c-2.3,7.5,0.2,15.6,4.7,21.8
	c5.5,7.3,15.2,10.5,24.1,9.4c10.5-0.7,20.2-6.9,25.9-15.7c4.8-7.3,4.9-16.5,3.9-24.8c-0.5-6.5-1.3-14.3,3.9-19.3
	c8.6-8.1,21.8-7,31.2-13.9C595.2,394.3,599.8,380.1,596,367.9z"/>
<path class="st0" d="M446.7,217.2c19.2,22.5,38.5,44.9,57.8,67.4c-5.7,6.6-11.5,13.1-17.1,19.8c-2.7,2.9-2.1,8,1.5,9.8
		c2.8,1.8,6.5,0.5,8.4-1.9c5.2-5.9,10.4-11.9,15.6-17.8c9.1,10.6,18.2,21.2,27.3,31.9c-4.6,5.4-9.2,10.7-13.8,16.1
		c-2,2.2-2.8,5.5-1.1,8.2c2,3.6,7.6,4,10.2,0.9c4.5-5,8.8-10.2,13.2-15.4c2.7,3.1,5.4,6.3,8.1,9.5c-10,11.8-23.2,20.6-37.4,26.8
		c-16.1,7-33.6,10.9-51.2,10.7c11.7-12.7,23.5-25.2,35.1-38c3.3-3.4,1.5-9.9-3.3-10.6c-4.3-0.8-7,3.1-9.6,5.8
		c-10.4,11.3-20.9,22.5-31.3,33.8c-1.8-23.2-3.6-46.4-5.5-69.5c7.1-8.3,14.2-16.6,21.3-24.9c2-2.1,3-5.5,1.4-8.1
		c-1.8-3.7-7.2-4.3-10-1.3c-4.9,5.3-9.4,11-14.2,16.4C450.4,263.5,448.5,240.4,446.7,217.2z"/>
<path class="st1" d="M520.6,389.7c18.8-7.1,36.5-18.2,49.8-33.5c4.2,3,8.1,6.8,9.7,11.8c2.9,7.7,0.6,17.1-6,22.2
		c-9.6,8.1-23.6,6-33.4,13.5c-4.5,3.3-6,9.1-6.8,14.3c-1.6,10.6,4.6,20.9,1.7,31.5c-2.4,8.7-12.2,13.6-20.8,12.3
		c-5.3-0.6-10.9-3.6-12.5-9c-3.5-11.1,5.9-22.3,1-33.2c-2.5-6.3-10.6-9.5-16.8-6.9c-6,2.4-9.7,8.4-11.4,14.4
		c-1.2,3.9-2.6,8.4-6.6,10.3c-4.6,2.4-10.5,0.4-13.2-3.9c-2.4-3.7-3-8.4-2.2-12.7c1.3-7.5,4.1-14.7,7.7-21.4
		C481.2,399.7,501.6,396.9,520.6,389.7z"/>
</svg>
