<svg version="1.1" xmlns="http://www.w3.org/2000/svg" xmlns:xlink="http://www.w3.org/1999/xlink" x="0px" y="0px" viewBox="0 0 1000 1000" style="enable-background:new 0 0 1000 1000;" xml:space="preserve">
<style type="text/css">
	.st0{fill:#EDEDED;}
	.st1{fill:#000000;}
</style>
<path class="st1" d="M381.6,444.5c34.8-38.3,86.5-61.4,138.5-59.4c20.8,0.6,41.3,5.5,60.6,13.3c13,5.3,25.3,12.2,36.4,20.8
	c11.7,9.2,21.5,20.7,29.7,33c8.5,13.3,15.6,27.7,19.9,42.9c6.2,20.3,9.1,41.6,9.1,62.8c-0.1,24.3-3.4,48.9-11.9,71.8
	c-5.9,14.7-12.8,29.1-22.6,41.6c-9,11.5-19.3,22.3-31.6,30.3c-2.3,1.6-5.5,2.6-7.9,0.6c-3-2.2-2.4-7,0.6-8.8
	c7.8-5.3,15.3-11.3,21.4-18.7c0.9-1.2,1.4-2.6,2.1-3.9c-11.6,2.8-23,6.1-34.9,7.8c-29.4,4.7-59.3,6.6-89,5
	c-17.4-0.4-34.8-2.5-51.9-5.6c-20.7-3.7-41.5-7.8-61.2-15.1c-1.5-0.5-3-0.7-4.5-0.8c0.8,4.6,3.9,8.3,6.7,11.9
	c7.8,10,17.9,17.8,28,25.1c2.7,1.6,4.1,5.2,2.2,8c-2,3.2-6.5,2.8-9.2,0.7c-22.6-13.9-40.2-35-52.9-58.2c-10-18.4-15.7-39-18.2-59.8
	c-2.7-20.5-2-41.4,1.2-61.8C347.1,497.4,360.4,467.6,381.6,444.5 M506.5,396.8c-37.7,1.8-74.3,17.2-102.6,42.1
	c-6.3,5.8-13.3,12.2-14.5,21.1c-0.8,6.1,4,11.4,9.7,12.7c52.5,13,106.9,16.8,160.9,16.8c21.7-0.4,43.5-1.7,65.1-3.9
	c5.3-0.9,11.5-0.8,15.8-4.7c3.7-4,1.9-10.1-0.4-14.4c-6.9-13.6-16.4-26-28.1-35.9c-15.2-13-33.8-21.6-52.9-27.3
	C542.3,398.2,524.4,396,506.5,396.8 M374.4,483.6c-5.5,1.8-8.3,7.4-10.6,12.3c-8.8,21.2-12.4,44.3-12.7,67.1
	c-0.1,16.1,1.2,32.3,5.4,47.8c2.2,8.1,5.5,16.2,11.5,22.3c5.5,5.5,12.3,9.4,19.4,12.6c14,6.4,28.7,11.2,43.8,14.5
	c24,5.3,48.4,8.8,73,9.6c24.4,0.4,49,0.5,73.1-3.4c15.9-2.6,31.9-5.7,47.2-10.6c7.1-2.5,14.7-5.5,19.4-11.7c3.8-5.3,6.7-11.1,9-17.1
	c4.3-11.5,7.6-23.5,9.2-35.7c2.2-18.8,2.7-37.9,0.1-56.7c-1.3-9.4-2.2-18.9-4.8-28.1c-1.1-3.4-2.4-7.2-5.4-9.4
	c-2.9-2.1-6.7-1.3-9.9-0.9c-25.2,4-50.6,6.2-76.1,6.3c-30,1.3-60-0.8-89.9-3.4c-17.8-2-35.6-4.7-53.3-7.7c-12-2.1-23.8-4.9-35.8-7.3
	C382.8,483.3,378.5,482.3,374.4,483.6z"/>
<path class="st1" d="M446.4,513.5c2.5-1.1,5.5,0.9,5.8,3.5c0.4,4-0.1,8.1,0.2,12.1c0.3,7.6,2.8,15.1,7.6,21.1c5.2,6.8,12.9,10.8,20.5,14.5
	c9.3,4.3,18.6,8.8,27.9,13.2c2.1,1,4.6,2,5.6,4.3c1.2,2.2,0.1,4.8-0.9,6.9c-9.6,18-28.3,31.8-49,32.8c-3.5,0.2-7.6,0.1-10,3.2
	c-3.3,3.3-2.2,8.3-3.9,12.2c-1.7,2.8-6.4,1.6-6.7-1.6c-0.7-5.7-0.4-12.1-4.2-16.9c-3.8-4.7-9.5-7.2-13.8-11.2
	c-19.4-16.9-27.5-44.5-23.1-69.5c0.4-2.6,2.1-5.2,4.8-5.7c2.8-0.9,5.5,0.6,8,1.7c5.3,2.5,10.5,5.3,16.1,7.1c3.4,1.2,8,0.4,9.7-3.2
	c2.8-6.2,2.1-13.2,2.6-19.9C443.5,516.1,444.5,514,446.4,513.5"/>
<path class="st1" d="M607.3,528.3c2.7-1.8,6.6,0.5,6.7,3.6c0.4,5-0.2,10.3,2,15c1.2,2.7,3.7,5.2,6.9,5.1c5.4-0.4,9.7-4.5,15.1-4.7
	c3.3,0.2,4.8,3.7,5.1,6.6c2.3,16.9-3.2,34.9-15.2,47c-4.5,4.6-10.8,7.7-13.3,13.9c-2.1,4.8-0.7,10.1-1.4,15.1
	c-0.8,3.6-6.2,3.8-7.4,0.4c-1.3-4.4-0.2-9.4-2.8-13.4c-2-2.9-6-2.5-9-3.1c-14.6-1.7-27.4-11.9-33.8-25c-1.3-2.6-1-6.5,1.8-7.9
	c10.9-5.8,23.2-9.1,33.1-16.7c7.9-6.1,9.3-16.9,9.7-26.2C605,534.8,604,530.3,607.3,528.3"/>
<path class="st0" d="M413.2,545.8c29.2,13.7,58.4,27.5,87.5,41.2c-7,10.8-17.8,19.4-30.6,21.9c-13,2.8-27-1.5-36.9-10.2
	C418.3,585.8,411.4,565.2,413.2,545.8z"/>
<path class="st0" d="M570.4,587.5c21.1-9.6,42.3-19.1,63.4-28.6c0.6,13-3.8,26.5-13.3,35.6c-6.4,6.3-15.4,10.1-24.5,9.3
	C585.3,603.3,575.9,596.3,570.4,587.5z"/>
</svg>
