<svg version="1.1" xmlns="http://www.w3.org/2000/svg" xmlns:xlink="http://www.w3.org/1999/xlink" x="0px" y="0px" viewBox="0 0 1000 1000" style="enable-background:new 0 0 1000 1000;" xml:space="preserve">
<style type="text/css">
	.st0{fill:%%ST0%%;}
	.st1{fill:%%ST1%%;}
</style>
<path class="st1" d="M719.2,908.5c-2.2-23.9-5.6-48.1-15.5-70.2c-12.5-28.1-33.5-51.5-57.2-70.7c-26.6-21.4-56.9-38.4-89.6-48.5
	c-19.6-6.1-40-9.2-60.5-9.6c-36.1-1.4-71.9,7.4-104.7,22.1c-31.9,14.6-62.2,32.6-89.6,54.6c-15.9,12.6-31,26.7-42,43.9
	c-9.3,14.1-13.9,30.8-17.6,47.1c-8.8,40.4-4.8,82.2,0.4,122.8h21.7h431.8h19.8C719.3,969.6,721.4,939,719.2,908.5z"/>
<path class="st0" d="M422.7,736.7c19.2-7.6,39.7-11.8,60.3-12.3c17.6-0.4,35.4,0.2,52.6,3.9c20.4,4.1,39.9,11.8,57.9,22.1
	c12.8,7.4,25.4,15,37.3,23.7c21.5,16.4,41,36.3,53.6,60.4c9.8,17.8,15.4,37.5,19,57.3c4.8,36.1,0.3,72.6-7,108H264.5
	c-6.5-29.6-10.6-59.7-11.5-90c0.1-18.6,2-37.5,8.9-54.9c5.7-14.5,15-27.3,25.8-38.5c13.8-14.2,30.3-25.5,47.1-35.9
	C362.8,763.7,392.1,748.5,422.7,736.7z"/>
</svg>
