<svg version="1.1" xmlns="http://www.w3.org/2000/svg" xmlns:xlink="http://www.w3.org/1999/xlink" x="0px" y="0px" viewBox="0 0 1000 1000" style="enable-background:new 0 0 1000 1000;" xml:space="preserve">
<style type="text/css">
	.st0{fill:#EDEDED;}
	.st1{fill:#000000;}
</style>
<path class="st1" d="M732.5,201.6c-3.5-6-10-9.6-16.4-11.7c-9.6-3.3-20.6-2.4-29.4,2.8c-7.8,4.5-13.3,12-17.1,19.9c-5.4,11.4-9.4,24.2-19.3,32.7
	c-7.8,7-20.4,10-29.6,4c-5.9-4-9.3-10.7-11.8-17.2c-3.6-9.6-2.4-20.1-3.1-30.1c-0.3-15.9-4.3-31.5-10.7-46
	c-8-17.1-21.1-31.8-37.3-41.7c-10.7-6.7-22.6-11.1-34.7-14.5c-4.1-1.2-8.8-2.8-10.9-6.9c-1.6-3.4-1.1-7.3-1.2-10.9
	c0.1-27.3,0-54.7,0-82h-16c0,29,0,58,0,87c0,3.4-0.2,7.5-3.3,9.7c-6.1,4.8-13.6,7.2-20.6,10.3c-10.1,4.2-19.6,10-27.9,17.3
	c-3.8,3.4-7.2,7.3-11.2,10.4c4.9-11,12-21.5,13.9-33.6c1.2-7.5-0.8-16.2-6.9-21.1c-6-4.9-16.1-4-20.6,2.5c-1.7,2.3-1.8,6.5,1.2,7.8
	c4.6,1.5,9.4-4,13.8-0.7c4.1,3.5,3.8,9.7,3.1,14.5c-1.9,8.6-6.7,16.1-10.6,23.9c-12.7,23.8-18.6,51.2-16.4,78.1
	c2.2,25.7,15.1,50.2,35,66.5c19.2,16,44.7,24.1,69.6,22.1c32-2.3,62.7-21.4,77.5-50c1.6-2.7,3.1-6.1,6.4-7.1c2.3-0.5,4,1.6,5.2,3.2
	c3.6,5.1,6.1,11.1,11.1,15c8.6,6.7,20.8,7.3,30.6,3.2c11.1-4.4,19.2-14.1,24.4-24.5c5.4-10.1,8.2-22.1,16.8-30.3
	c6.5-6.4,17.3-8.2,25.2-3.4c5,2.9,7.6,8.5,12.1,12c2.5,2.1,6.8,2.4,9-0.3C735.1,209.4,734.4,204.8,732.5,201.6z"/>
<path class="st0" d="M521.6,126.5c1.6-2.3,4.3-4.6,3.9-7.7c-5.7-2.9-12.9-2-18.7,0.1c-8.5,4-14.2,12-19.2,19.7
		c-21.5,34.1-33.2,74.2-34.2,114.4c-0.1,1.8,0.1,3.7,0.5,5.5c3.9-12.4,7.7-24.8,12.5-36.9C479.7,187.3,498.1,154.8,521.6,126.5z"/>
<path class="st0" d="M476,144.3c1.5-1.3,2.5-3,3.6-4.7c3.7-6.2,7.7-12.2,12.2-17.8c1.1-1.3,1.9-2.8,2.4-4.4c-9.2,1-18,4.3-26.1,8.6
	c-2.9,2-7,3.4-8.3,6.9c3.4,3.2,7.5,5.5,11.1,8.3C472.4,142.3,473.9,144,476,144.3z"/>
<path class="st0" d="M539.8,139.8c3.2-3.3,7.3-5.8,9.7-9.9c-0.1-0.4-0.4-1.2-0.6-1.6c-4.1-3.7-10.5-5.4-15.6-2.8
	c-4.7,2.4-8.1,6.6-11.3,10.6c-27.3,34.4-47.1,74.5-59.6,116.5c-0.8,3.4-2.4,6.8-2.2,10.4c0.8,2.5,3.8,2.9,5.8,3.8
	c2.7-3.9,3.3-8.6,4.7-13C483.8,210.9,507.3,170.8,539.8,139.8z"/>
<path class="st0" d="M563.5,148.4c1.6-1.5,4.3-3.5,2.9-6c-2.7-3.6-7-8-11.9-5.8c-3.1,1.2-5.7,3.4-8.2,5.7
	c-33.7,31.4-57.7,72.6-70.4,116.7c-1,3.7-2.4,7.7-1.3,11.6c1.7,2.9,7.7,5.2,8.7,0.6c5.7-16.3,12.1-32.3,20.2-47.6
	C518.6,195.1,538,168.5,563.5,148.4z"/>
<path class="st0" d="M440.6,164.2c7.8,0.6,15.8,1,23.5-0.4c3.4-0.4,4.6-4.1,5.9-6.8c1-2.3,2.3-5.3,0.4-7.5c-2.5-2.9-6-4.8-9.1-6.9
	c-3.5-2.2-8-4.7-12-2.4c-3.2,2-5.3,5.3-7.7,8.2c-2.9,4.1-6.4,8.4-6.2,13.6C436.4,164,438.8,163.9,440.6,164.2z"/>
<path class="st0" d="M573.3,194.3c3.4-3.5,7.2-6.8,10-10.9c2-2.9,2.1-6.6,1.1-9.8c-1.4-4.9-3.4-9.7-5.9-14.2
	c-1.7-2.7-4-5.7-7.4-5.9c-4.1,0.6-7.6,3.2-10.8,5.8c-7.5,6.4-14.4,13.7-20.7,21.2c-9.7,11.9-19.3,24.4-25,38.9
	c-3.7,10.2-1.2,21-0.1,31.4c0.8,4.5,0.3,9.6,3.2,13.4c1.7-1.9,3.2-3.9,4.5-6.1C536,234.5,553.9,213.5,573.3,194.3z"/>
<path class="st0" d="M434.9,179.8c7.5,0,14.9,0.1,22.4-0.2c3.5,0.2,5.2-3.7,5.2-6.6c-3-2.2-7-1.2-10.5-1.4
	c-6.9,0.3-13.9-0.7-20.7,1c-2.7,0.4-3.5,3.1-3.5,5.5C429.5,180.1,432.6,179.6,434.9,179.8z"/>
<path class="st0" d="M456,188.1c-3.4-2.6-8-2-12-2c-5.1,0.5-10.6-0.5-15.5,1.6c-2.9,1.6-2.8,5.4-3.1,8.2
	c-0.6,16.1,4.2,32.3,13,45.8c2.3,3.4,4.5,7,7.9,9.4c1.2-4.1,1.1-8.4,1.5-12.6c1.3-14.9,4-29.6,7.9-44
	C456,192.4,456.8,190.2,456,188.1z"/>
<path class="st0" d="M587,193c-2.7,0.6-5.1,2-7.1,3.9c-5.2,4.8-10.1,10-15,15.1c-2.5,2.7-5.2,5.3-6.3,8.9c5.5,0.9,11-0.3,16.5-0.5
	c3.2-0.4,7-0.2,9.5-2.7c2-2.4,2.1-5.8,2.6-8.7C587.8,203.6,588.9,198.1,587,193z"/>
<path class="st0" d="M570,227.1c-5.7,0.6-11.7,0.3-17.1,2.7c-4.7,2.1-7.8,6.3-10.9,10.2c-6.3,7.9-11.7,16.5-16.5,25.4
	c-1.2,2.5-2.6,4.9-3.2,7.6c-0.4,1.3-0.1,3.1,1.5,3.2c3,0.2,5.9-0.8,8.7-1.6c15-5,28.5-14.5,38.2-27c4.4-5.7,8.5-12,10.1-19.1
	C577.8,225.8,573.6,227,570,227.1z"/>
<path class="st0" d="M507.6,245.9c-0.2-2.2-0.8-4.4-1.7-6.5c-1.9,1.3-3.4,3.1-4.5,5.1c-4.7,7.9-7.8,16.6-10.6,25.3
	c-0.6,2.3-1.4,5.9,1.5,6.9c5,1.9,10.5,2,15.8,1.3c2.6,0,2.7-3.2,2.5-5.1C509.7,263.9,508.5,254.9,507.6,245.9z"/>
</svg>
