<svg version="1.1" xmlns="http://www.w3.org/2000/svg" xmlns:xlink="http://www.w3.org/1999/xlink" x="0px" y="0px" viewBox="0 0 1000 1000" style="enable-background:new 0 0 1000 1000;" xml:space="preserve">
<style type="text/css">
	.st0{fill:#FFD400;}
	.st1{fill:#000000;}
</style>
<path class="st1" d="M395.4,463.7c4.8-1,9.8-0.6,14.6-0.6c29.1,1,58.3,3.1,87.1,7.3c39.8,6.1,79.6,12.4,118.4,23.2c15.6,3.9,31.1,8.5,46.4,13.4
	c3.3,1.1,7.5,2.5,8.4,6.3c1.4,5.4,1.3,11.1,1.6,16.7c0.8,15.3-0.7,31.2-7.9,45c-6.5,12-16.4,22.8-29.4,27.7c-12,4.5-25.6,3.1-37-2.5
	c-10.9-5.1-19.7-13.7-30.9-18.1c-8.4-3.3-17.7-2.1-26.2,0.1c-16.1,4.1-31.5,10.7-48.1,13c-23.3,3.5-47.9,0.6-69.1-9.7
	c-14-6.8-26.2-17.3-34.1-30.7c-8.6-14.2-12.3-31.4-10.2-47.9c1.4-12.2,4.5-24.3,9.5-35.6C390.1,468.4,391.7,464.5,395.4,463.7"/>
<path class="st0" d="M400.2,474c1.5-0.6,3.2-0.5,4.8-0.6c46.4,0.5,92.5,6.4,138,14.9c38.2,6.9,75.8,16.2,112.8,27.9
	c1.8,0.5,3.7,1.7,3.9,3.8c2.6,14.8,2.7,30.5-2.7,44.7c-4.1,10.6-11.4,20.2-21.3,25.9c-8.8,5.1-19.7,5.3-29.1,1.8
	c-14.4-5.3-25.2-17.7-40.3-21.6c-13.2-3.6-26.8,0.4-39.4,4.3c-12.8,4-25.5,8.5-38.9,10c-22.5,2.6-46.1-0.7-65.8-12.3
	c-13.4-7.8-24.1-20.2-29.3-34.8c-6.8-18.4-3.7-38.9,3.4-56.7C397.4,478.8,398,475.8,400.2,474"/>
<path class="st1" d="M468.1,496.2c7-5.3,16.3-8.4,25-6.3c10.8,2.5,18.4,12.4,20.6,23c-10.1,3.8-20.2,7.5-30.3,11.4c-2.8,0.7-3.8,4.7-1.5,6.6
	c7,6.7,14.3,13.1,21.4,19.7c-5.3,6-12.4,10.7-20.4,12c-7.8,1.5-16.3-1-22.1-6.5c-5.1-4.8-8.2-11.5-9.4-18.3
	C449.2,522.3,455.7,505.8,468.1,496.2z"/>
<path class="st1" d="M605.9,527.9c6.9-7.1,17.4-11.5,27.2-8.9c8,2,14,8.8,16.4,16.5c-8.5,3.9-17.1,7.7-25.7,11.5c-1.4,0.7-3.3,1.4-3.5,3.2
	c-0.5,2,1.1,3.7,2.7,4.8c6,4.4,12.1,8.8,18.1,13.3c-6.2,6.6-15,11.3-24.2,10.5c-8.4-0.7-16-6.4-19.2-14.2
	C592.4,552.2,596.7,537.3,605.9,527.9z"/>
</svg>
