<svg version="1.1" xmlns="http://www.w3.org/2000/svg" xmlns:xlink="http://www.w3.org/1999/xlink" x="0px" y="0px" viewBox="0 0 1000 1000" style="enable-background:new 0 0 1000 1000;" xml:space="preserve">
<style type="text/css">
	.st0{fill:#FF002C;}
	.st1{fill:#EDEDED;}
	.st2{fill:#000000;}
</style>
<path class="st2" d="M665.9,303.9c-1.8-14.6-10.3-28.2-23-35.8c-9.5-6-20.9-8.1-32-7.1c-6.5-8.4-12.8-17.1-19.7-25.2
	c-22-26.4-49.1-48.5-79.5-64.6c-44.3-23.7-95.6-33.9-145.7-29.4c-40.5,3.5-80.1,16.6-115,37.2c-23.2,13.6-44.3,30.7-62.9,50
	c-3.5,3.5-6.7,7.6-11.5,9.3c-5,1.7-10.4,1.2-15.5,2.3c-13.1,2.8-24.9,11.1-31.7,22.7c-6.3,10.6-8.2,23.7-5.2,35.7
	c3.2,13.1,12.2,24.5,24.2,30.7c12.9,6.8,29,7.1,42.2,0.8c12.2-5.6,21.6-16.7,25.4-29.5c1.8-5.3,1.9-11.1,3.9-16.3
	c1.5-4.1,5.1-6.8,8.5-9.3c7.2-5.2,15.1-9.7,23.8-12c6.9-1.8,14.8-1.5,20.8,2.7c7.7,5.2,11.8,14.1,14.4,22.7
	c3.5,12.1,4.9,24.8,4.6,37.3c-17.2,7.4-29.1,25.2-29.4,43.9c-0.5,14.7,6.3,29.3,17.7,38.7c9.3,7.8,21.6,12,33.7,11.3
	c15.8-0.7,30.8-9.5,39.7-22.5c1.7-2.4,4-5.3,7.3-4.7c3.8,0.7,7.3,2.5,11,3.3c19.4,5.1,41.2-3.2,52.5-19.7c2.1-2.6,3.6-6.6,7.4-7.1
	c4.5,0.8,8.3,3.6,12.6,4.8c20.7,7,45.2,0.4,59.5-16.1c2-2,3.7-5.2,6.8-5c2.5,0.3,4.5,1.9,6.7,3c11.9,6.9,26.8,8.5,39.9,4.2
	c7.7-2.4,14.6-6.9,20.5-12.4c1.9-2.1,5.1-2.1,7.2-0.3c8,6.1,17.5,10.5,27.7,11.2c13.9,1.3,28.3-3.9,38.3-13.6
	C662.2,334.8,667.9,319,665.9,303.9z"/>
<path class="st0" d="M371.5,157.7c48.5-3.7,97.9,7.7,140,31.9c29.7,17.1,55.7,40.3,76.1,67.8c2,2.9,4.6,5.7,5.2,9.3
	c-2.3,2.1-5.1,3.6-7.5,5.6c-2.1,1.6-3.8,3.7-6.3,4.8c-2.6-1.3-4.7-3.4-7.1-5.1c-8.1-5.8-17.9-9.5-28-9.7
	c-13.4-0.5-26.9,4.7-36.5,14.1c-1.4,1.2-2.6,2.7-4.5,3.1c-3-0.8-5.2-3.2-7.7-4.9c-11.3-8.1-25.5-12-39.4-10.4
	c-18.8,1.9-36.2,14.1-44.5,31.1c-1.4,3-3.4,7.3-7.4,6.5c-5.9-1.6-11.7-3.7-17.9-3.7c-18.4-1.1-36.8,9.2-45.6,25.3
	c-1.2,1.7-2.2,5.2-4.9,3.9c-6.1-2.1-12.2-4.5-18.6-5.2c-2.6-0.4-5.3-0.2-7.8-1.2c-1.6-4.4-1-9.3-1.7-13.9
	c-1.9-16.8-6-34.3-17.3-47.3c-7.9-9.2-20.1-14.5-32.2-13.7c-14.5,0.9-27.9,7.9-39.5,16.3c-1.6,1-3.1,2.5-5.1,2.3
	c-2.1-1.2-3.2-3.6-4.7-5.5c-3-4.4-7.1-7.8-11.2-11c-2.4-1.5-0.6-4.5,0.8-6C242.8,193.9,305.7,162.3,371.5,157.7z"/>
<path class="st1" d="M164.2,257.1c15.4-3.7,32.1,6.7,36,21.9c4.6,14.6-3.8,31.7-18.1,37.3c-13,5.6-29.4,0.8-37.3-11
	c-6.3-8.9-7.3-21.2-2.6-31C146.3,265.5,154.7,258.8,164.2,257.1z"/>
<path class="st1" d="M582.1,299.3c5.2-17.1,24.5-28.1,41.9-23.9c15.1,3,27.2,17.2,27.1,32.7c0.7,15.9-11.2,30.8-26.4,34.7
	c-14.3,4.2-31-1.9-38.9-14.6c-1.9-2.7-2.7-6.6-6-8c-3.3-1.6-7.8,0.4-8.6,4c-1.1,2.9,0.7,5.8,1.9,8.4c-6.4,6.9-14.5,12.6-24,14
	c-11.7,1.9-23.2-3.1-32.6-9.6c0.2-2.1,0.8-4.4-0.2-6.4c-1.4-2.9-5.2-4.6-8.2-3.1c-2.9,1.1-3.9,4.3-4.8,6.9
	c-6,16.8-23.3,28.9-41.2,28.7c-12.5,0.4-25-5.6-32.6-15.5c-2.3-3.5-7.9-4.1-10.5-0.6c-2.4,2.6-1.4,6.3,0.1,8.9
	c-3.6,10-10.5,19.2-20.4,23.6c-11.8,5.5-25.8,3.3-36.8-3c0.2-4.2-3.3-8.6-7.9-7.6c-4,0.7-5.5,4.9-5.8,8.5
	c-2.9,16.7-19.3,29.5-36.2,28.4c-15.2-0.3-29.3-11.7-32.6-26.5c-4-15.3,4.2-32.4,18.2-39.4c13.6-7.3,31.9-4.3,42.1,7.4
	c2.3,2.3,3.9,6,7.4,6.6c4,1,8.2-2.7,7.6-6.8c-0.5-3.8-3.6-6.5-5.9-9.4c3.6-10.1,11.5-18.5,21.5-22.4c11.8-4.7,25.7-2.6,35.9,4.9
	c0.1,2.5,0.2,5.3,2.2,7.1c2.5,2.6,7.1,2.4,9.3-0.4c2.2-2.4,1.4-5.9,1.9-8.9c1-13.2,8.3-25.8,19.5-32.8c10.5-6.7,24-8.2,35.8-4.3
	c9.9,3.2,18.6,10,24.2,18.8c1.4,2.2,2.9,4.9,5.7,5.5c3.5,1,7.4-1.6,7.9-5.2c0.4-2.3-0.8-4.3-1.7-6.4c9.4-14.1,28.7-20.6,44.6-14.4
	c6.2,2.1,11.2,6.6,15.7,11.2c-1.6,3.8-3.9,9-0.3,12.4C574.7,306.7,581.2,304.1,582.1,299.3z"/>
</svg>
