<svg version="1.1" xmlns="http://www.w3.org/2000/svg" xmlns:xlink="http://www.w3.org/1999/xlink" x="0px" y="0px" viewBox="0 0 1000 1000" style="enable-background:new 0 0 1000 1000;" xml:space="preserve">
<style type="text/css">
	.st0{fill:#F23DB6;}
	.st1{fill:#000000;}
</style>
<path class="st1" d="M383.4,528.5c1.9-1.3,3.2,0.9,3.6,2.4c3,7.8,8.9,15.3,17.3,17.6c9.6,2.2,19.1-1.6,28.7-1.3c23.6-0.3,47.5,11.6,59.9,31.9
	c2.2,3.8,4.8,7.5,5.8,11.9c1.2,4.5-3.1,9.1-7.6,8.7c-4,0.1-6.6-3.3-8.3-6.4c-6.9-11.5-18.1-20.3-30.9-24.2
	c-16.6-5.2-35.3-2.4-49.8,7.1c-4.3,2.9-9.3,6.3-14.7,4.3c-8.3-2.9-14.3-10.2-18.3-17.8c-1.3-1.5-0.3-4.1,1.8-3.5
	c2.7,2.3,5.3,5.2,9,5.7c6.1,0.9,11.9-5.7,9.9-11.6c-2-6.6-5.8-12.5-7-19.3C382.6,532.1,382,530,383.4,528.5z"/>
<path class="st1" d="M643.5,548.4c0.7-1.3,3.2-0.5,3.1,1c0.3,6.4-4,11.7-7.6,16.6c-3.6,4.9,2.5,11.9,7.9,10.3c3-0.4,4.7-3,7.1-4.6
	c3.3-0.2,2.3,4.1,1.8,6.1c-2.3,7.5-7,15.6-14.9,18c-4.3,1.3-8-2-11-4.5c-6.1-5.6-14.1-8.6-22.1-10c-17.7-3.1-36.8,3.5-48.5,17.2
	c-1.6,1.7-3.1,3.8-5.4,4.5c-4.1,1.5-8.9-1.6-9.4-5.9c-0.2-3.4,1.4-6.6,3.1-9.5c6.5-10.8,16.9-19.1,28.7-23.4
	c12.7-4.9,26.7-4.7,40-2.8c5.9,0.9,12.4,1,17.6-2.5C637.9,556.3,640.6,552.2,643.5,548.4z"/>
<path class="st0" d="M395.6,597.8c13.9-1.7,28.1,1.9,40.4,8.3c5.3,3,11.1,6.7,13,12.8c1.2,4.7-2.2,9.2-6.5,10.6
	c-8.6,3-18,1.6-26.6-0.3c-9.3-2.3-18.5-5.8-25.9-12c-3.3-2.9-6.5-7.2-5.3-11.8C385.9,600.6,391.1,598.5,395.6,597.8z"/>
<path class="st0" d="M602.5,616.8c7.8-1.6,16.2-2,23.8,1.1c3.7,1.5,7.1,4.9,6.7,9.2c-0.6,5-5.1,8.3-9.2,10.4
	c-8.6,4.1-18.4,5.5-27.8,4.3c-4.7-0.9-10-2.7-12.3-7.3c-1.8-3.5,0-7.6,2.7-10.2C590.7,620.2,596.7,618.1,602.5,616.8z"/>
</svg>
