<svg version="1.1" xmlns="http://www.w3.org/2000/svg" xmlns:xlink="http://www.w3.org/1999/xlink" x="0px" y="0px" viewBox="0 0 1000 1000" style="enable-background:new 0 0 1000 1000;" xml:space="preserve">
<style type="text/css">
	.st0{fill:#EDEDED;}
</style>
<path class="st0" d="M472.3,507.3c1.6-2.2,3.9-3.9,6.7-4.4c4.5-0.9,9.3,2.2,10.4,6.6c0.9,3-0.1,6.3-1.9,8.8
	c-3.1,4.5-6.4,8.8-9.5,13.3c4.1,3,8.3,6,12.4,9c2.7,1.9,4.7,5,4.7,8.4c0,3.8-2.6,7.5-6.3,8.7c-3.1,1.2-6.5,0.3-9.1-1.5
	c-4.3-3-8.5-6.2-12.8-9.2c-6.7,9.3-13.3,18.5-20,27.8c-1.5,2.1-3.4,4.1-6,4.9c-4.6,1.8-10.2-1.1-11.6-5.8c-1.3-3.2-0.1-6.8,1.8-9.5
	c6.8-9.5,13.6-19,20.5-28.4c-3.6-2.7-7.3-5.2-10.9-7.9c-2.1-1.5-4-3.7-4.6-6.3c-1.3-4.4,1.5-9.4,5.8-10.9c3.2-1.3,6.8-0.3,9.4,1.6
	c3.8,2.6,7.5,5.4,11.3,8.1C465.9,516.2,469.1,511.7,472.3,507.3z"/>
<path class="st0" d="M593.1,535c-1.1-5.3,5.7-9.3,9.8-5.8c3.3,3.3,5,7.8,7.6,11.6c4.2-2.2,7.7-6.2,12.6-6.8c5-0.5,8.3,6.1,5,9.8
	c-3.2,3.2-7.5,5.1-11.2,7.8c3.7,6.2,7.4,12.4,11,18.7c1.5,2.4,1.4,5.8-0.6,7.8c-2.7,3.1-8.1,2.2-10-1.4c-3.8-6.1-7.3-12.3-11-18.4
	c-3.8,2.2-7.2,5.3-11.4,6.7c-5.2,1.3-9.6-5.3-6.2-9.5c3.1-3.4,7.6-5.2,11.2-8C597.7,543.3,594.3,539.6,593.1,535z"/>
</svg>
