<svg version="1.1" xmlns="http://www.w3.org/2000/svg" xmlns:xlink="http://www.w3.org/1999/xlink" x="0px" y="0px" viewBox="0 0 1000 1000" style="enable-background:new 0 0 1000 1000;" xml:space="preserve">
<style type="text/css">
	.st0{fill:#FFD400;}
	.st1{fill:#FF002C;}
	.st2{fill:#6089FF;}
	.st3{fill:#000000;}
</style>
<path class="st3" d="M675.3,544.9c-1.1-21.3-5.6-42.4-13-62.4c-10.1-25-25.7-48.2-47.2-64.7c-16.2-12.3-35-20.7-54.5-26.2
	c-35.6-10.4-74.4-8.2-108.9,5.1c-30.6,11.9-58.2,31.7-78.4,57.7c-19.6,25.4-30.2,56.9-33.1,88.7c-20.9-3.5-41.9-6.7-62.9-10.1
	c-13-1.6-27-2.9-39,3.6c-9.5,5.2-18.1,13.8-20.1,24.8c-0.7,4.8-0.8,10.5,2.7,14.3c4.9,4,12.4,4.5,17.7,1.1c4.7-3,7.7-7.7,11.2-11.8
	c5.3-6.5,13.6-10.6,22-10.6c10.5-0.4,20.8,2.1,31.1,3.8c12,2,24.2,3.7,36.2,5.9c0.2,29.5,5.7,59.5,19.8,85.6
	c12.3,22.6,29.3,43,51.1,57.1c2.5,1.5,5.6,3.8,8.6,2.3c4-1.4,4.1-7.4,0.7-9.5c-12.5-9-24.9-18.9-33.2-32c-1.1-1.7-1.6-3.6-2-5.5
	c0.9,0.2,2.6,0.5,3.5,0.7c27,9.6,55.3,14.5,83.6,18.7c43.5,4.8,87.8,3.5,130.8-4.8c8-1.5,15.8-4,23.7-5.8c-1.7,4.6-5.6,7.8-8.9,11.2
	c-4.6,4.5-9.9,8.1-15.1,11.9c-3,2.1-2.8,7.1,0.5,8.8c3.1,2,6.5-0.4,9.1-2.1c15.7-11.1,28.7-25.9,38.7-42.3
	c6.4-11.1,11.8-22.8,16-34.9C674.2,598.1,676.7,571.3,675.3,544.9z M389.4,460c1.2-9,8.3-15.3,14.5-21.1
	c28.3-24.9,64.9-40.2,102.6-42.1c18.1-0.9,36.3,1.5,53.6,6.8c19.1,5.7,37.6,14.4,52.7,27.5c12,10.3,21.8,23.2,28.5,37.4
	c1.9,4,2.7,9.7-1.1,12.9c-4.6,3.6-10.8,3.4-16.3,4.3c-21.6,2.1-43.3,3.4-65,3.8c-53.6-0.1-107.6-3.9-159.8-16.8
	C393.5,471.4,388.6,466.1,389.4,460z"/>
<path class="st0" d="M363.8,495.8c2.5-5.6,6.2-12.2,13-12.8c7.1-0.4,14,1.9,21,3.2c24.5,5.5,49.4,9.2,74.3,12.3
	c25.2,2.4,50.6,4.2,75.9,4.2c14.7-0.4,29.4-0.4,44.1-1.2c15.3-0.8,30.6-2.7,45.8-4.8c4-0.5,8-1.7,12-0.8c3.9,1.2,5.8,5.3,7,8.9
	c2.6,8.4,3.6,17.3,4.8,26c1.1,8.5,2,16.9,2.3,25.5c-6.4-14.1-17.3-26.2-31.4-32.8c-12.7-5.9-27.2-6.9-40.8-4.1
	c-18.1,4.1-33.8,16.9-41.7,33.7c-7.4-2.8-15.2-4.1-23.1-3.7c-7.4-0.5-14.8,1-21.7,3.6c-7.5-14.7-20.4-27-36.2-32
	c-11-3.7-23-3.9-34.3-1.6c-17.7,3.9-32.7,16.4-41.2,32.2c-13.8-2.7-27.7-4.4-41.5-6.9C353.6,528.1,357.4,511.4,363.8,495.8z"/>
<path class="st0" d="M351,565.8c12.2,2,24.5,4,36.7,5.8c-1.3,13.1,0.5,26.9,7.1,38.5c8.9,15.4,24.3,27.4,42,30.5
	c12.6,2,25.9,1.3,37.6-4c18.7-8.3,33.1-26.3,35.9-46.7c0.4-5.2,1.1-10.5,0.3-15.8c7.1-3.2,15.1-5.6,22.9-3.8c3.8,0.7,7.4,2,11,3.3
	c-0.8,13.4,1.4,27.4,8.8,38.8c9.8,15.5,26.4,27.1,44.9,28.7c15.5,1.9,31.9-1.6,44.4-11c5.1-3.6,9.2-8.4,13.5-12.8
	c-2.9,9.6-6.6,19.2-12.7,27.3c-6.3,7.5-16.1,10.2-25,13c-22.3,6-45.3,10.3-68.4,11.6c-18.6,1.1-37.3,1-55.9,0
	c-23.1-1.5-46.1-5.1-68.7-10.5c-12.8-3.1-25.3-7.3-37.3-12.7c-8.1-3.7-16.2-8.2-22-15c-5.5-6.5-8.3-14.7-10.3-22.7
	C352.4,594.4,351.2,580.1,351,565.8z"/>
<path class="st1" d="M440.3,539.3c10.3-2.2,21.4-0.5,30.4,5.1c12.6,7.5,20.6,22,20,36.6c-0.2,16.5-11.4,32.1-26.9,37.7
	c-11.5,4.3-24.9,3.2-35.4-3c-9.9-5.7-17.2-15.6-19.6-26.8c-2.6-11-0.2-22.9,6-32.2C420.6,547.9,430,541.5,440.3,539.3z"/>
<path class="st2" d="M599.2,539.1c10.6-1.8,22,0.7,30.8,7c10.4,7.2,17,19.4,17.5,32c1,18-11.3,35.5-28.4,41
	c-11.7,4-25.1,2.2-35.4-4.6c-11.8-7.5-19.1-21.4-18.9-35.4C565,559.8,580.2,542.1,599.2,539.1z"/>
</svg>
