<svg version="1.1" xmlns="http://www.w3.org/2000/svg" xmlns:xlink="http://www.w3.org/1999/xlink" x="0px" y="0px" viewBox="0 0 1000 1000" style="enable-background:new 0 0 1000 1000;" xml:space="preserve">
<style type="text/css">
	.st0{fill:%%ST0%%;}
	.st1{fill:#000000;}
</style>
<path class="st1" d="M462.7,392.8c32.3-10,67.6-10.6,100-0.6c17.4,5.1,34.2,12.6,49,23.2c14.2,9.9,25.9,23.2,35.4,37.6
	c7.9,12.5,14.6,25.9,18.9,40.1c5.5,17.5,8.8,35.7,9.5,54c1.1,24.9-1.3,50.1-8.6,73.9c-9.9,30.9-28,60.1-54.8,79.1
	c-2.8,1.9-6.3,4.7-9.7,2.6c-3.6-1.8-3.4-7.2,0-9.2c7.9-5.3,15.3-11.4,21.4-18.7c1-1.2,1.5-2.6,2-3.9c-11.5,2.7-23,6.1-34.7,7.7
	c-38.3,6.3-77.5,7.1-116.1,3.2c-17.8-2.2-35.4-5.4-52.8-9.2c-11-2.6-21.9-5.3-32.5-9.3c-1.7-0.7-3.5-1-5.3-1.1c0.2,2,0.9,3.8,2,5.5
	c8.3,13.2,20.7,22.9,33.1,32c3.5,2,3.3,8.1-0.7,9.5c-3.1,1.4-6.1-0.8-8.6-2.3c-21.7-14-38.8-34.5-51-57.1
	C349,631,343.3,610.1,340.8,589c-2.5-19.9-1.9-40.1,1.2-59.9c4.6-30,17.1-58.9,37.1-81.9C401.3,421.8,430.6,403,462.7,392.8
	 M495.5,397.8c-18.2,2.2-36,7.2-52.4,15.4c-16.4,8-31.9,18.2-44.8,31.2c-4.7,4.7-9,10.7-8.9,17.7c0.2,5.4,4.8,9.5,9.8,10.8
	c46.2,11.4,94,15.7,141.5,16.6c20.8,0.7,41.6-0.4,62.3-1.8c10.2-0.8,20.5-1.4,30.6-3.2c3.7-0.7,7.9-2.5,9-6.5
	c1.5-5.2-1.5-10.2-3.9-14.6c-8.6-15.9-21.1-29.8-36-40c-13.8-9.5-29.5-16-45.6-20.6C537.2,397,516.1,395.3,495.5,397.8"/>
<path class="st0" d="M390.3,511.3c1.7-0.9,3.7-0.5,5.5,0c17.3,5.5,34.5,11.2,51.6,17.1c19.6,6.7,38.8,14.2,58.4,21
	c14.4,4.9,29.7,9.6,45.1,7c16-2.6,31-9.5,46-15.2c13.1-5.2,26.4-9.9,39.7-14.8c3-1,7.1-2.3,9.5,0.6c3.4,4.6,3.6,10.7,4.2,16.2
	c0.3,19-4.9,38.1-14.7,54.5c-8.7,14.5-22.5,26.1-38.8,31.1c-14.2,4.5-30.1,2.5-43.4-4c-4.9-2.3-9.3-5.5-14.3-7.6
	c-4.7-1.8-9.9-0.7-14.3,1.5c-8.3,3.9-16.2,8.7-25.1,11.2c-17.7,5.1-37.2,3.9-53.9-3.8c-16.3-7.2-29.4-20.2-38.6-35.3
	c-9.4-15.2-14.8-32.4-18.2-49.8c-1.4-7.9-2.6-15.9-1.5-23.9C387.9,514.9,388.4,512.5,390.3,511.3z"/>
</svg>
