<svg version="1.1" xmlns="http://www.w3.org/2000/svg" xmlns:xlink="http://www.w3.org/1999/xlink" x="0px" y="0px" viewBox="0 0 1000 1000" style="enable-background:new 0 0 1000 1000;" xml:space="preserve">
<style type="text/css">
	.st0{fill:#FF002C;}
	.st1{fill:#EDEDED;}
</style>
<path class="st0" d="M441.6,497.5c0.6-4.5,6.8-6.3,9.8-3c5.3,5.4,10.1,11.1,15.3,16.6c3.6-4.9,7.2-9.8,10.9-14.6
	c1.4-1.9,4-3.2,6.3-2.2c2.5,0.7,3.6,3.4,3.9,5.7c0.8,5.7,1.5,11.4,2.2,17.1c7.2-3.4,14-7.5,21.2-10.9c4.3-2.3,9.4,2.9,7.1,7.2
	c-3.6,7.9-7.6,15.6-11.3,23.4c7.3,3.2,14.6,6.2,21.8,9.6c2.8,1.2,4.6,4.8,3,7.6c-0.9,2-3.1,2.9-5,3.8c-5,2.1-10,4.2-15,6.3
	c3.5,6.1,7.3,12.1,10.7,18.3c2.5,3.8-1.1,9.5-5.6,8.8c-6.7-1-13.2-2.7-19.8-3.9c0,4.6,0.2,9.2,0,13.8c0,2.8-2.2,5.6-5.1,5.7
	c-2.4,0.2-4.2-1.6-5.8-3.1c-3.6-3.5-7.3-6.8-10.9-10.4c-2,6.8-3.7,13.6-5.8,20.3c-0.8,3.1-4.4,5.1-7.4,3.9c-2.4-0.8-3.4-3.2-4.3-5.3
	c-2.6-6.5-5.3-12.9-7.9-19.3c-4.4,2-8.6,4.4-13,6.3c-2.9,1.3-6.7-0.2-7.7-3.2c-0.7-1.8-0.3-3.6,0-5.4c1.1-5.9,2-11.9,3.1-17.8
	c-6.6-2.5-13.3-4.6-19.8-7.3c-4-1.6-4.6-7.6-1.1-10c5-3.4,10.2-6.4,15.3-9.6c-3.2-6.3-6.8-12.3-10-18.6c-1.8-3.4,0.7-7.6,4.4-8.1
	c6.1-0.6,12.2-0.1,18.3-0.3C440.3,511.7,440.7,504.5,441.6,497.5"/>
<path class="st0" d="M638.7,508.6c3-3,9-1.2,9.3,3.2c0.6,6.8,0.6,13.7,0.8,20.6c4.4-0.8,8.8-1.7,13.2-2.5c2.9-0.6,6.3,1.1,6.8,4.1
	c0.6,2.2-0.5,4.3-1.5,6.2c-2.7,5-5.4,10.1-8.1,15.1c4.7,2,9.5,3.9,14.3,5.8c2.9,1,4.9,4.7,3.5,7.6c-0.8,2.3-3.2,3.3-5.2,4.2
	c-5.3,2.4-10.6,4.7-15.9,7.1c1.3,6,3.3,11.8,4.6,17.8c0.6,4.2-4.2,8-8.1,6.1c-5.9-2.9-11.5-6.3-17.2-9.4c-1.4,5.9-1.9,12-3.7,17.8
	c-1.4,3.8-6.9,4.2-9.3,1.2c-3.7-4.8-6.6-10.1-10.1-15.1c-2.4,3.4-4.6,7-7.2,10.2c-2.5,2.9-7.8,1.7-8.7-2c-1.2-4.8-1.3-9.9-2-14.8
	c-6.4,0.2-12.8,1.1-19.2,1.3c-4.1,0-7-5.2-4.4-8.6c3.8-5,8.1-9.5,12.1-14.3c-4.2-1.8-8.5-3.1-12.6-5c-2.7-1.1-4.4-4.7-2.9-7.4
	c0.8-1.9,2.7-2.8,4.5-3.6c5.6-2.5,11.2-5,16.8-7.5c-3.3-7.4-6.9-14.6-10-22.1c-1.8-4.3,3.2-8.9,7.3-6.8c6.2,2.7,12.2,5.7,18.4,8.5
	c1-4.2,1.4-8.5,2.9-12.6c1.4-3.3,6-4.4,8.6-1.8c3.4,3.4,6.6,7.2,9.7,10.9C630.2,518.5,634.1,513.2,638.7,508.6"/>
<path class="st1" d="M451,509.8c4.2,4.2,8,8.9,12.2,13.1c2.2,2.3,6.2,2.1,8.2-0.4c2.6-3.2,5-6.5,7.3-9.9c0.8,4.5,0.9,9.2,2.1,13.7
	c0.9,3.3,5,5.1,8.1,3.5c4.4-2.1,8.6-4.6,13-6.8c-2.3,4.8-4.7,9.5-6.9,14.2c-1.4,2.6,0.3,5.9,2.9,7c5.4,2.5,10.9,4.8,16.4,7.2
	c-4.1,1.9-8.4,3.3-12.4,5.4c-2.7,1.3-3.4,5-2,7.5c2.6,4.8,5.6,9.5,8.3,14.2c-5.1-1-10.1-2.1-15.2-3.1c-3-0.8-6.3,1.6-6.5,4.7
	c-0.2,3,0,6-0.1,9c-3.6-3.2-6.8-6.9-10.7-9.7c-2.9-2-7.2-0.4-8.2,3c-1.6,4.8-2.8,9.8-4.3,14.7c-1.8-4.3-3.4-8.7-5.4-13
	c-1-2.6-4-4.4-6.8-3.5c-3.5,1.3-6.7,3.2-10.1,4.8c0.7-5.2,1.9-10.2,2.5-15.4c0.4-2.5-1.4-4.8-3.7-5.7c-4.7-1.9-9.5-3.4-14.3-5.2
	c3.5-2.3,7.2-4.3,10.7-6.7c2.5-1.6,3.4-5.1,2-7.6c-2.6-5.1-5.4-10-8.1-15c4.5-0.1,9,0.1,13.6-0.1c2.8-0.1,5.4-2.1,5.8-4.9
	C450.3,519.7,450.5,514.7,451,509.8z"/>
<path class="st1" d="M628,535.3c4-2.4,6.6-6.6,9.8-10c1.1,5.3-0.6,11.2,1.7,16.2c3.5,4.9,10,1,14.7,0.8c-2.4,4.6-5.1,9-7.1,13.8
	c-1.1,2.4,0,5.4,2.2,6.6c3.1,1.8,6.7,2.7,9.9,4.4c-4.1,2.2-8.9,3.4-12.6,6.3c-4.2,4.6-0.1,10.7,0.8,15.9c-4.5-2.3-8.8-5.1-13.4-7.2
	c-2.9-1.4-6.7,0.3-7.6,3.4c-1.1,3.8-1.6,7.8-2.4,11.8c-2.5-3.6-4.8-7.3-7.2-10.9c-1-1.7-3-2.5-4.9-2.5c-3.7,0.6-5.3,4.3-7.2,7.1
	c-0.3-3.6-0.4-8.7-4.8-9.6c-4.3-0.4-8.7,0.4-13,0.7c2.8-3.5,6-6.7,8.6-10.4c1.9-2.6,0.7-6.5-1.9-8.1c-2.5-1.4-5.2-2.2-7.8-3.2
	c3.9-2.8,8.9-3.7,12.9-6.5c1.9-1.6,2.5-4.5,1.5-6.7c-1.8-4.6-4.1-8.9-6.1-13.5c4.6,1.9,8.9,5.1,13.9,5.7c6.1-0.4,5.8-7.9,6.9-12.3
	C618.5,530.5,621.8,537.3,628,535.3z"/>
</svg>
