<svg version="1.1" xmlns="http://www.w3.org/2000/svg" xmlns:xlink="http://www.w3.org/1999/xlink" x="0px" y="0px" viewBox="0 0 1000 1000" style="enable-background:new 0 0 1000 1000;" xml:space="preserve">
<style type="text/css">
	.st0{fill:#EDEDED;}
	.st1{fill:#000000;}
</style>
<path class="st1" d="M833.5,458.8c33.7-4.1,69.1,1.8,98.5,19.2c16.4,9.7,30.7,23.3,39.8,40.1c5.7,10.7,10.4,22,12,34.1
	c2.8,19.6-2.5,39.9-13.3,56.3c-14.1,21.6-36.3,36.8-60.2,45.7c-20.2,7.6-41.8,10.4-63.3,10.5c-9.1,0.1-18.4-2.2-27.2,0.9
	c-32.5,10.5-65,21.2-97.5,31.7c-2.4,1-5.6,0.2-6.5-2.4c-1.1-2,0.2-4.1,1.2-5.9c9.9-15.4,19.8-30.9,29.7-46.3
	c1.7-2.7,3.8-5.5,3.8-8.8c-0.1-3.8-2.7-6.9-5.2-9.4c-14-14.4-23.2-33.3-25.7-53.3c-1.7-14,0.5-28.4,6.1-41.4
	c5.8-13.5,15-25.4,26-35.1C774.6,475,803.6,462.7,833.5,458.8"/>
<path class="st0" d="M771.9,498.8c29.7-20.6,67.5-27.6,103-22.7c15.5,2,30.5,7.5,44.2,14.8c12.8,6.9,24.2,16.4,33,28.1
	c10,13.1,15.4,29.6,15.1,46.1c-0.3,17-9.4,32.3-20,45c-9.9,12-23.1,20.8-37.3,26.9c-20.7,8.9-43.3,13.1-65.8,12.4
	c-6.7-0.2-13.2-2-19.9-2.1c-6.7,0.5-12.9,3.4-19.2,5.5c-20,6.9-40.1,13.6-60.1,20.5c7.9-12.7,15.7-25.3,23.6-38
	c2.2-3.4,3.4-8.6-0.4-11.5c-13.4-9.8-24.4-23.3-29.8-39.1c-4.9-14-4.9-29.6,0.1-43.6C744.3,523.8,756.9,509.3,771.9,498.8"/>
<path class="st1" d="M817.5,522.2c0.6-4.5,4.9-8.4,9.5-7.6c4.7,0.6,7.8,5.6,6.8,10.1c-3.2,19.8-6,39.6-9.5,59.3c-0.9,4.3-1.5,8.8-3.2,12.9
	c-1.5,3.5-5.1,6.2-9,5.9c-3.8-0.2-6.9-3-8.4-6.4c-2.5-5.7-4.6-11.4-6.9-17.1c-2.1,5.7-3.9,11.6-6.4,17.2c-1.5,3.7-5.4,6.6-9.5,6
	c-4.2-0.4-7.1-4.2-8.1-8c-5.1-16-9.5-32.2-13.7-48.4c-1.3-4.3,1.4-9.3,5.8-10.3c4.4-1.3,9,1.9,10.1,6.2c2.6,9.3,4.9,18.7,7.6,27.9
	c1.6-4.7,3.2-9.4,5.1-14c1.4-3.7,5.3-6.4,9.3-6c3.3,0.3,6.2,2.7,7.7,5.6c2.2,4.3,3.9,8.9,5.5,13.4
	C812.6,553.2,815,537.7,817.5,522.2z"/>
<path class="st1" d="M846.9,525.9c4.9-6.7,13.8-11.4,22-8.5c8,2.8,12.3,11.4,13,19.5c0.5,8.4,0.1,16.8-1.1,25.1c-0.6,4.3-4.5,7.8-8.8,7.9
	c-7.1,0.5-14.2,0.9-21.4,1.2c-0.2,6.1-0.7,13,3,18.3c1.8,2.6,5.6,1.8,7.4-0.4c2.3-2.1,1.3-5.6,2.8-8.2c2-3.9,7.5-5.4,11.2-3
	c3.5,2,4.6,6.4,4,10.2c-1.2,8.9-8.4,16.7-17.1,18.9c-5.3,1.2-11.1,0.6-15.7-2.3c-6.5-3.9-10.1-11.2-11.4-18.4
	c-1.8-10.4-0.4-21,1.3-31.2C838,544.8,840.7,534.4,846.9,525.9 M858.8,537.7c-2.9,5.2-4.5,11.1-5.8,16.9c4-0.2,8.1-0.5,12.1-0.6
	c0.2-7,1.8-14.5-1.4-21C861.6,534,859.9,535.7,858.8,537.7z"/>
<path class="st1" d="M894,520.9c3.2-2.8,8.6-2.2,11.2,1.1c2.2,2.5,2,6.1,1.9,9.2c6.9-3.7,15.4-6.1,22.9-2.8c8,3.3,12.1,12,13.4,20.1
	c2.4,16.2-0.9,32.5-4.9,48.1c-0.8,4.3-4.7,8-9.2,7.4c-4.8-0.4-8.3-5.6-7-10.2c3.2-13,6.2-26.3,5.2-39.8c-0.5-3.6-0.9-7.6-3.6-10.3
	c-2.1-0.9-4.4-0.1-6.4,0.7c-4.5,1.9-8.3,4.9-12,8c-1.2,14.5-2.1,29.1-3.3,43.6c-0.1,4.6-4.3,8.8-9,8.2c-4.5-0.3-7.8-4.8-7.3-9.2
	c1.6-22.4,3.3-44.7,4.9-67.1C890.8,525.3,891.8,522.5,894,520.9z"/>
</svg>
