<svg version="1.1" xmlns="http://www.w3.org/2000/svg" xmlns:xlink="http://www.w3.org/1999/xlink" x="0px" y="0px" viewBox="0 0 1000 1000" style="enable-background:new 0 0 1000 1000;" xml:space="preserve">
<style type="text/css">
	.st0{fill:#FFD400;}
	.st1{fill:#D15B31;}
	.st2{fill:#8D3D21;}
	.st3{fill:#F32525;}
	.st4{fill:#000000;}
</style>
<path class="st4" d="M435.5,329.4c5.2-12.9,16.9-23,30.6-26c14.8-3.3,30.5,2.8,41,13.2c15.4,2.6,30.9,5.9,45.5,11.8c16.2,6.6,32,15.1,45.2,26.9
	c10.4,9.3,20.2,19.6,27.2,31.7c7.4,12.4,11.7,26.6,12.1,41c0,9-2.3,18.1-7.5,25.5c-5,7.3-13.6,12.3-22.6,12.1
	c-5.9-0.1-11.8-2.6-15.7-7c-4.3-4.7-5.9-11.5-5.3-17.7c0.5-4.8,2.3-9.2,4-13.7c-3.1-3-6.3-5.8-9.9-8.2c-5.2,4.1-12.4,6.4-18.7,3.5
	c-7.7-2.6-11.5-11.6-9.2-19.2c-11.8-4.5-24.2-7.4-36.8-7.4c-1,6.8-4.9,13.3-11.3,16.2c-7.2,3.9-17.3,3.1-22.5-3.6
	c-2.5-3-2.9-7-2.6-10.7c-8.7,2.5-17,6.3-24.8,10.8c-1.1,8.3-6.7,15.8-14.5,19c-12.6,5.9-28.6,1.8-37.3-9c-6.3-7.5-8.5-18.3-5.5-27.6
	c1.9-7.3,6.4-13.6,11.6-19c-1.7-7.7-0.8-16.2,3.7-22.8c4.3-7,11.7-11.1,19.2-14C434,334.5,434.5,331.6,435.5,329.4"/>
<path class="st0" d="M620.8,406.4c-4-10.2-9.5-19.9-16.5-28.3c-9.3-10.5-20.8-18.8-32.6-26.2c-9.9-6-20.5-10.9-31.5-14.4
	c-10.3-3.2-20.7-6.7-31.5-7.6c-13.2-1.5-25.4,5.5-35.3,13.5c-7.8,6.8-14.5,15.5-16.8,25.8c-0.5,1.9-0.3,5.3,2.4,5
	c6.5-0.8,12.6-3.4,19-4.7c-1.3-1.1-3-2.4-2.8-4.3c0.2-2.6,3.4-4.2,5.5-2.8c5.6,2.7,8.9,8.7,10,14.7c1.2,7-2.6,13.4-3.8,20.1
	c-0.9,4.1,3,7.8,7,7.6c6.4,0.6,12.4-5.2,11.9-11.6c-0.7-8-7.2-13.8-8.6-21.6c-0.6-4.1-1.1-9,1.6-12.5c2-2.3,6-0.9,6.3,2.1
	c-0.4,2.4-0.9,4.8-0.9,7.2c1.5,0,3,0,4.5,0c7.3,0.2,14.6,0.9,21.9,2.1c1.8,0.3,3.7,0.7,5.5,1c-0.8-1.9-2.5-4.1-1.2-6.2
	c1.2-2.2,4.4-2.4,6-0.5c2.5,3.5,3.8,8.6,1.1,12.4c-1.8,2.2-2.8,6.6,0.8,7.7c6.1,1,10-5.6,15.9-5.5c5,0.7,8.5,5.8,8.1,10.7
	c-0.1,6-4.8,10.4-6.5,15.9c-1.6,5.6,5.4,10.3,10.2,7.9c3-1.4,4.6-4.6,5.5-7.7c1.2-5,1.3-10.4,4.1-14.8c2.4-3.7,6.2-6.9,10.8-7.4
	c1.9-0.5,4.1,1,4.1,3c0.2,3.7-2.7,7.3-0.8,10.9c2.8,6.2,9.9,10,10.8,17.2c1.7,7.4-3.8,13.5-5.9,20.2c-1.6,4.2-0.7,9.1,1.8,12.7
	c3.1,3.8,8.6,4.5,13.1,3.2c5-1.9,7.5-7.1,9-11.9C626.1,428.4,624.4,416.8,620.8,406.4z"/>
<path class="st1" d="M471.2,318.2c8.5-1.5,17.8-0.6,25,4.5c-13.5,4.6-26.4,11.8-35.5,23c-10.1,12.3-14.4,28.6-13.9,44.3
	c0.2,6.4,0,13.4-4.1,18.7c-5,6.8-14.8,9.4-22.5,5.9c-6.5-2.8-10.6-9.6-11-16.6c-0.3-6.3,2.2-12.6,6.4-17.3c2.4-2.7,5.2-5.8,4.9-9.7
	c-0.3-7.5,2.4-15.4,8.2-20.3c2.9-2.6,6.6-4,9.8-6.2c2.8-2,4.2-5.2,6-8C450.5,327.2,460.2,320.2,471.2,318.2z"/>
<path class="st2" d="M506.9,375.8c9.1,0,18.2,1,27.1,3c-1,2.4-1.7,4.9-2.2,7.5c-6.8-1.3-13.6-1.8-20.5-2.2
	C509.9,381.4,508.4,378.6,506.9,375.8z"/>
<path class="st2" d="M459,384c7.6-3.8,15.9-5.9,24.1-7.6c0.5,3.8,0,7.5-1.2,11.1c-9.4,2.2-18.5,5.7-27,10.2
	C454.2,392.9,454,386.5,459,384z"/>
<path class="st2" d="M549.7,391c2.7-1.4,5.1-3.8,8.2-4.3c3,1.5,1.3,5.3,0.2,7.5C555.3,393.1,552.5,392,549.7,391z"/>
<path class="st2" d="M586,402.8c3.9,2.4,8.2,4.6,10.8,8.5c2,3,0.6,6.6-0.7,9.5c-4.2-2.9-8.3-5.9-12.5-8.8
	C584.5,409,585.3,405.9,586,402.8z"/>
<path class="st3" d="M473.4,343.3c9.9-8,22.1-15,35.3-13.5c1.8,3.8,2.8,8.2,1.2,12.2c-4.5,12-21.6,16.5-31.5,8.6
	C476,348.8,474.7,346,473.4,343.3z"/>
<path class="st3" d="M540.3,337.4c11,3.5,21.6,8.4,31.5,14.4c-1.9,3.6-4.3,7.1-7.9,9c-7.4,4.3-17.7,1.9-22.4-5.2
	C537.5,350.4,537.6,343.2,540.3,337.4z"/>
<path class="st3" d="M511.7,358.7c4.9-5.6,15.1-4.7,18.7,1.9c1.9,3,1.4,6.6,0.5,9.8c-7.2-1.2-14.6-2-21.9-2.1
	C508.7,364.9,509.2,361.3,511.7,358.7z"/>
<path class="st3" d="M604.4,378c7,8.4,12.5,18.1,16.5,28.3c-7.3,0.3-15.3-2.7-18.5-9.7C599.2,390.6,601.2,383.6,604.4,378z"/>
</svg>
