<svg version="1.1" xmlns="http://www.w3.org/2000/svg" xmlns:xlink="http://www.w3.org/1999/xlink" x="0px" y="0px" viewBox="0 0 1000 1000" style="enable-background:new 0 0 1000 1000;" xml:space="preserve">
<style type="text/css">
	.st0{fill:%%ST0%%;}
	.st1{fill:%%ST1%%;}
</style>
<path class="st1" d="M307,406.2c4.1-1.7,9.4-2.2,13.1,0.7c3.5,3.1-1.9,8.9,2.5,11.5c3.7,1.1,7.7-0.1,11.4,0c52-3.8,104.2-2.5,156.1,2.9
	c41.5,4.7,82.6,12.5,123.1,22.4c18.5,4.6,36.8,10.1,54.9,16c10.8,3.5,21.4,7.7,32.3,10.9c2.5,0.9,5.8,1.7,6.6,4.6
	c0.9,3.3,0,6.8-0.6,10.1c-1.9,8-4.1,16-6.3,23.9c-1.5,5.7-2.1,11.8-5.2,16.9c-1.4,2.5-4.7,3.4-7.2,2.1c-15.4-7.2-31.8-11.8-48-16.8
	c-46-13.8-93.3-23.3-140.8-30.3c-22.9-3.3-45.9-5.7-68.9-6.8c-25.4-1.5-50.8-0.8-76.2,0.3c-16.1,1.4-32.5,2.6-48.1,7.6
	c-3.4,1.2-6.8,2.9-8.9,5.8c-2.8,4.2-2.2,9.8-5,13.9c-5,4.2-12,2.7-17.9,2.3c-7.6,0.1-14.8,3.6-20.5,8.4
	c-12.8,10.2-22.1,23.8-32.9,35.9c-10.2,11.5-21.3,22.8-35.3,29.7c-15.6,8-34.4,10.2-51.2,4.9c-4.9-1.5-10.5-5.2-9.5-11
	c2.6-12.9,8-25,11.5-37.6c-19.9-3.2-39.5-9.3-56.9-19.6c-5.5-3.4-11.6-7.8-12.5-14.7c-0.7-8.6,2.4-16.8,4.4-25
	c4.2-15.8,6.5-31.9,11.2-47.5c1.2-3.9,2.4-8,4.9-11.3c2-2.6,5.4-4.5,8.7-3.5c4.5,1.4,7.7,5,11.1,8c14.3,13.3,31.3,24.6,50.8,28.1
	c24.4,4.6,49.1-1.9,72.1-9.8c17-6,34.3-11.1,51.9-15.2c4.6-1,9.5-1.8,13.4-4.7C300.2,415.8,301.3,408.7,307,406.2"/>
<path class="st0" d="M327,431c21.3-1.8,42.6-2.7,64-2.9c27.9-0.3,55.8,1.4,83.6,3.6c40.4,3.7,80.5,10.8,120,19.8
	c34.2,7.8,67.8,18.1,100.7,30.3c-1.7,10.9-4.5,21.7-7.3,32.3c-38.9-13.2-78.4-24.6-118.7-32.9c-44.7-9-89.9-16.4-135.4-18.8
	c-34.4-1.6-68.9-2.1-103.2,1.3c-7.3,0.6-14.4,2.1-21.7,2.2c-2.4-0.1-6-0.3-6.7-3.1c0-3.8,1.7-7.4,2.7-11c2-5.6,3.5-11.7,7.5-16.4
	C316.1,431.4,322,431.6,327,431z"/>
<path class="st0" d="M96,431.8c9.8,11.2,23,19,36.6,24.7c19.7,8.3,41.7,10,62.7,6.8c19.5-3,37.9-10.5,56.7-16.2
	c12.3-3.6,24.6-7.5,37.3-9.1c-1.7,4.8-3.4,9.7-4.9,14.7c-15.4,5.4-30,12.7-44.5,20.2c-19.7,10.3-38.4,22.4-58.6,31.6
	c-16.3,7.5-34.3,12.6-52.5,11c-17.5-1.4-35.6-7.2-48.6-19.4C85.5,474.6,90.8,453.2,96,431.8z"/>
<path class="st0" d="M243.7,482.8c12.2-6.4,24.7-12.5,37.5-17.6c-1.3,5.5-2.4,11-3.5,16.6c-12.4,6.3-23.5,14.9-33.7,24.3
	c-15,14.4-28.1,30.5-43.5,44.5c-11.6,10.5-26.1,17.9-41.5,20.6c-6.3,1-12.9,1.3-19.1-0.2c4.2-15.5,9.5-30.8,14-46.2
	C186.9,518,214.5,498,243.7,482.8z"/>
</svg>
