<svg version="1.1" xmlns="http://www.w3.org/2000/svg" xmlns:xlink="http://www.w3.org/1999/xlink" x="0px" y="0px" viewBox="0 0 1000 1000" style="enable-background:new 0 0 1000 1000;" xml:space="preserve">
<style type="text/css">
	.st0{fill:#EDEDED;}
	.st1{fill:%%ST1%%;}
	.st2{fill:#000000;}
</style>
<path class="st2" d="M801.1,527.3c29.5-18.8,69.4-19.8,99.6-2c14.9,8.7,27.1,22.6,31.9,39.3c5.3,17.7,1.1,37.5-9.8,52.2c-1.3,1.9-3.3,3.7-3,6.2
	c-0.3,16.5-6.8,32.7-18,44.8c-12.3,13.3-29.8,21.4-47.7,23.1c-4.1,0.6-8.4-2.7-8.4-6.9c-0.2-2.8,1.7-5,3.5-6.9
	c7-7.2,10.8-16.9,12.3-26.7c-19,2.1-38.8-1-55.8-10c-13.8-7.2-25.8-18.6-32.3-32.9c-6.7-14.2-7.2-31.2-1.5-45.8
	C777.4,547.4,788.2,535.5,801.1,527.3"/>
<path class="st2" d="M789.2,687.1c2.7-3.9,7.3-0.8,10.6,0.3c29.3,11.6,58,24.6,87,36.8c2.4,1.1,5.6,1.9,6.3,4.9c0.5,1.7-0.5,3.3-1.4,4.7
	c-14,20.8-27.9,41.6-41.8,62.5c10.2,10.7,13,27.4,7.1,40.9c-3.3,7.9-9.5,14.4-17,18.2c-2.1,16.4-7.2,32.5-16.5,46.2
	c-8.4,13.1-20.5,24-34.9,30c-16.3,7-35,7.9-51.9,2.8c-15.2-4.6-28.9-13.8-39.3-25.8c-13.1-14.6-18.5-34.4-19.8-53.6
	c-2.6-1.2-5.4-2.1-7.9-3.7c-2.5-1.7-3.2-5.5-1.2-7.8c6.5-8.4,13.4-16.6,20-25c-3.3-9.5-3.2-19.7-2.2-29.5
	c1.3-13.2,5.5-26.4,13.9-36.9c6.6-8.4,16.2-14.5,26.8-16c7.5-1.2,15.1,0.3,22.1,3C762.5,721.8,775.8,704.3,789.2,687.1"/>
<path class="st0" d="M820.2,533c25.8-10.5,57.4-8.4,79.9,8.7c10,7.6,17.8,18.5,20,31c2.6,13.1-1.6,27.1-10,37.4
	c-1.8,2.4-4.9,4.4-4.6,7.8c0.1,6.2,0,12.5-1.9,18.5c-4.6,17-18.3,30.6-34.6,36.7c4.6-9.4,6.7-19.8,7.2-30.1
	c-0.1-2.8,0.1-5.7-1.1-8.2c-1-1.3-2.7-0.7-4-0.4c-19.4,4.9-40.8,3.1-58.6-6.2c-12.4-6.4-23.1-16.8-27.9-30
	c-4.2-11.2-3.4-24.1,1.8-34.8C793.1,549.3,806,538.9,820.2,533"/>
<path class="st2" d="M851,536.9c7.4-1.6,14.9,4.6,15.2,12c0.3,11,0.1,22,0.2,33c0.2,5-1.5,10.5-6,13.4c-5.5,3.9-13.8,2.4-17.5-3.1
	c-2.5-3.2-2.8-7.3-2.7-11.2c0.1-10.4-0.1-20.8,0.1-31.1C840.2,543.8,844.8,537.9,851,536.9z"/>
<path class="st2" d="M849.3,602.5c7.5-2.5,16.4,3.4,16.5,11.4c0.8,7.2-5.7,14-12.9,13.9c-7.7,0.4-14.5-7.4-12.8-15
	C840.9,608,844.7,603.9,849.3,602.5z"/>
<path class="st0" d="M798,702.3c24.8,10.6,49.5,21.3,74.3,31.9c-12.7,19-25.4,38-38.1,57c-9.7-6-20.7-10.4-32.2-11
	c-7.7-0.5-16.4,2.3-20.6,9.2c-2.8,4.1-3.6,9.1-3.4,14c-6.1,1.1-12,3.8-16.2,8.4c-7.3,7.7-10.1,19.5-6.2,29.5c-4,2-7.4,5.1-9.1,9.3
	c-2.7,6-2.1,12.8-0.3,19c-19.4-8.6-38.8-17.1-58.1-25.6C724.7,796.7,761.4,749.5,798,702.3"/>
<path class="st2" d="M800.4,717.7c3.7-1.3,7.5,0.5,10.8,2c11.2,4.9,22.4,9.7,33.6,14.6c3.6,1.4,6.5,4.7,6.6,8.7c0.3,4.6-3.6,8.9-8.2,9.3
	c-3.7,0.3-7-1.7-10.3-3c-11.3-5.1-22.9-9.7-34.1-15.1C792,730.8,793,719.7,800.4,717.7z"/>
<path class="st2" d="M783.5,741.8c3.7-1.5,7.5,0.2,10.9,1.7c11.4,5,22.9,9.9,34.2,14.9c4.1,1.7,7,6.2,5.9,10.7c-0.9,5.5-7.5,8.7-12.5,6.5
	c-12.1-5-24.1-10.5-36.2-15.6c-3-1.2-6.2-3-7.5-6.2C776.2,749.3,778.8,743.4,783.5,741.8z"/>
<path class="st1" d="M725.4,752.7c6.2-2.5,13.5-1.3,18.8,2.7c-12.8,17.4-26.4,34.2-39.6,51.3c-5-11.2-2.8-24.2,2.2-35
	C710.7,763.6,716.9,756,725.4,752.7z"/>
<path class="st1" d="M792.9,790.9c6-2.7,12.7-1.4,18.8,0.2c10.8,3.2,21.5,8.6,28.1,17.9c3.7,5,5.1,11.8,3.2,17.8
	c-1.8,5.4-5.7,9.9-10,13.6c-7.1-19.5-25.8-33.6-45.9-37.1C787,798.7,788.3,793.1,792.9,790.9z"/>
<path class="st1" d="M770.4,816.4c5.4-4.3,13-4.7,19.5-3.1c8.6,2.2,16.5,6.9,22.9,12.9c6,5.5,10.8,12.7,12.4,20.8
	c2,11.1-0.5,22.6-5.7,32.5c-7.6,14.6-18.6,27.9-33.1,36.1c-9.5,5.5-20.7,8.6-31.7,6.8c-15.9-2.6-29.9-11.8-41-23
	c-10.6-10.1-19.2-23.4-19.6-38.5c20.4,8.6,40.9,17.2,61.2,26c5.2,4.2,9.3,10.1,15.8,12.6c3.7,0.9,6.9-3.9,4.5-6.9
	c-2.2-2.5-5.2-4-7.6-6.3c-6.9-6.4-12.7-14.7-14-24.2c-0.6-4.5,0.7-10,5.1-12c5.3-2.4,11.5-0.9,16.6,1.3
	c10.8,4.9,19.6,13.9,24.3,24.7c0.8,2.3,3.1,4.2,5.7,3.5c3-0.6,4-4.4,2.8-6.9c-3.9-9.6-10.9-17.8-19.1-23.9c-7.1-5.2-15.5-9-24.3-9.2
	C761.1,831.8,763.7,821.7,770.4,816.4z"/>
</svg>
