<svg version="1.1" xmlns="http://www.w3.org/2000/svg" xmlns:xlink="http://www.w3.org/1999/xlink" x="0px" y="0px" viewBox="0 0 1000 1000" style="enable-background:new 0 0 1000 1000;" xml:space="preserve">
<style type="text/css">
	.st0{fill:%%ST0%%;}
	.st1{fill:%%ST1%%;}
	.st2{fill:%%ST2%%;}
</style>
<path class="st0" d="M491.4,466.4c21.4-0.7,43,1.4,63.8,6.7c21.5,5.7,42,15.1,60.9,26.9c13.5,8.4,25.3,19.3,35.6,31.4
	c8.4,9.8,14.8,21.3,18.6,33.7c6,17.2,6.2,36.1,1.7,53.6c-4,15.7-14.3,29.7-28.2,38c-10.8,6.4-24,7.8-36.2,5.6
	c-13.1-2.3-25.8-6-38.8-8.6c-22.8-5.5-46.8-3.4-69.5,1.9c-20.9,4.5-40.8,13-62.1,15.9c-17.2,2.7-35.3,1.7-51.6-5
	c-13.6-5.4-25.2-15.3-33.4-27.5c-10.4-15.4-14.3-34.6-12.7-53c1.2-17.6,8-34.4,17.3-49.2c8.8-13.5,19.7-25.7,32.4-35.7
	C418.1,478.6,454.9,467.7,491.4,466.4"/>
<path class="st1" d="M482.5,479.7c20.4-1.9,41.2-1.7,61.4,2.4c17.5,3.5,34.3,9.7,50.2,17.9c17.3,9.1,33.6,20.7,46.4,35.6
	c8.4,9.9,15.2,21.3,19.4,33.6c5,16,5.4,33.9-1.2,49.5c-4.2,9.6-10.8,18.9-20.5,23.4c-12.9,6.3-27.8,5.2-41.5,2.6
	c-13.3-2.2-26.1-6.3-39.4-8.3c-21.9-3.5-44.4-3.3-66,1.8c-19,4.4-36.7,12.8-55.7,17.1c-13.8,3-28.5,3.9-42.1-0.5
	c-14.6-4.7-26.5-16-33.8-29.4c-6.8-14.2-8.6-30.4-6.2-45.8c3-17.6,11.1-34.2,22.3-48c11.4-13.9,26.2-24.6,41.8-33.3
	C437.3,487.2,459.9,481.9,482.5,479.7"/>
<path class="st2" d="M428.3,523.2c8.9-3.3,19.2-1.7,27.1,3.4c9.1,5.8,15.2,15.2,18.7,25.2c-11.1,5.7-22.2,11.3-33.3,17
	c-1.9,1-4.1,2-4.9,4.2c-1.2,2.4,0,5.6,2.4,6.8c11.8,6.2,23.6,12.4,35.4,18.6c-3.9,10.2-10.5,19.8-20.2,25.2
	c-8.9,5.1-20.4,5.4-29.5,0.5c-10.5-5.4-17.6-15.8-21.4-26.8c-5.5-16.3-4.8-34.8,2.2-50.5C409.5,536.5,417.5,527.2,428.3,523.2z"/>
<path class="st2" d="M587.7,532.8c7.3-2.3,15.4-0.5,21.5,3.9c6.9,4.9,11.5,12.4,14.1,20.3c-9.8,5-19.6,9.9-29.4,15
	c-3.4,1.4-3.3,6.5,0,8c9.4,5.2,19,10.1,28.5,15.2c-3.6,9.5-10.2,18.5-19.9,22.4c-7.6,3.2-16.7,2-23.4-2.7
	c-9.1-6.2-14.3-16.8-16.3-27.3c-2.4-13.3-0.6-27.6,6.4-39.4C573.3,541.2,579.7,535.1,587.7,532.8z"/>
</svg>
