<svg version="1.1" xmlns="http://www.w3.org/2000/svg" xmlns:xlink="http://www.w3.org/1999/xlink" x="0px" y="0px" viewBox="0 0 1000 1000" style="enable-background:new 0 0 1000 1000;" xml:space="preserve">
<style type="text/css">
	.st0{fill:#464B4B;}
	.st1{fill:#FF002C;}
	.st2{fill:#000000;}
</style>
<path class="st2" d="M538.3,586.3c12.4-9.7,29.5-12.1,44.5-8c14,3.6,26.1,12.8,34.8,24.2c2.1,3.4,5.2,7.3,3.6,11.5c-1.4,4.1-7.3,5.2-10.2,2.1
	c-2.2-2.7-3.5-6-5.8-8.7c-4.1,4.8-8.3,9.6-12.3,14.4c7.3,14,4,32.6-7.9,43c-6.2,5.6-14.6,8.7-23,8.8c-13,0.6-26.5-4.5-35.1-14.5
	c-6.2-7.2-9.2-16.7-9.8-26.1C515.9,615.2,524.4,597.3,538.3,586.3"/>
<path class="st0" d="M558.6,590.5c11.4-3.1,23.8-0.3,33.8,5.8c-3.8,4.6-7.7,9.1-11.6,13.6c-13.2-7.7-29.5-7.4-43.9-3.3
	C542.1,599,549.5,592.6,558.6,590.5z"/>
<path class="st1" d="M553.3,617.2c9.5-1,20.2,1.4,26.8,8.8c6.3,8.3,4.4,21-2.7,28.4c-5.4,5.7-13.9,7.4-21.4,6.3
	c-8.1-1-16.3-4.9-20.7-11.9c-3.2-5.9-3.9-13.4-1.4-19.6C537.1,621.5,545.7,618.3,553.3,617.2z"/>
</svg>
