<svg version="1.1" xmlns="http://www.w3.org/2000/svg" xmlns:xlink="http://www.w3.org/1999/xlink" x="0px" y="0px" viewBox="0 0 1000 1000" style="enable-background:new 0 0 1000 1000;" xml:space="preserve">
<style type="text/css">
	.st0{fill:#000000;}
	.st1{fill:#EDEDED;}
</style>
<path class="st0" d="M612.6,160c-2.6-13.8-11.5-25.8-22.7-33.8c-14.5-10.4-32.2-15.8-49.9-17.5c-15.8-18.7-37.8-32.4-62-37
	c-21.5-4.2-44.2-0.9-63.9,8.4c-26.4,12.3-47.4,34.7-60,60.8c-22.5-0.6-45.2,2.8-66.3,11c-13.8,5.4-26.9,12.9-37.5,23.3
	c-8.4,8.3-15.1,18.9-16.6,30.8c-1.6,11.2,2.8,22.5,10.1,30.9c-10.6,3.7-20.8,9-29.3,16.5c-9.1,7.9-16.4,18.5-18.2,30.6
	c-1.8,11.1,1.8,22.5,8.6,31.3c8.6,11.1,21.2,18.3,34.4,22.5c21.5,6.8,45,6.5,66.5,0c2.6-1,6.1-1.1,7.7,1.6
	c3.8,6.5,6.4,13.6,10.1,20.2c1.2,2.3,4.1,2.4,6.4,2.6c40.5,2.7,81-4.7,119.9-15.4c37.2-10.5,73.2-24.7,107.4-42.6
	c2.7-1.3,5.8-3.7,4.8-7.1c-4.3-13.5-9.7-26.7-13.9-40.2c-1.2-3.3-1.3-7.5,1.8-9.9c6.4-5.2,14.1-8.5,20.9-13.1
	c14.1-9.2,26.9-21.2,35-36.1C612.1,186.4,615.3,172.9,612.6,160z"/>
<path class="st1" d="M402.9,102.9c20.5-14.2,46.5-20.3,71.1-16.6c22.4,3.2,43.8,14.8,57.7,32.7c1.8,2.4,4,4.9,7.2,5.1
	c13.7,0.6,27.5,3.4,39.4,10.4c8.5,5,15.9,12.5,19.1,21.9c3.4,10.2,1.7,21.5-3,31c-6.4,12.9-17,23.2-28.7,31.3
	c-6.1,4.1-12.4,7.9-19.3,10.6c-3.1,1.1-6.6,2.3-9.8,0.9c-2.3-1.7-3.9-4.2-6.2-5.9c-3.6-2.8-8.5-3.3-11.9-6.4c1.9-4,5.8-6.6,8.8-9.7
	c11.3-11.5,20.6-25.6,24.1-41.6c0.7-2.6,0.6-6-2-7.5c-3-2.1-7.1,0.4-7.4,3.8c-2.9,15.2-11.8,28.6-22.8,39.1
	c-5.9,5.6-12.5,11.2-20.6,13.2c-6.2,1.5-12.7,1.9-18.9,0.8c-2.3-0.5-5-1.3-5.9-3.7c-1.7-5-1.7-10.3-3.1-15.3
	c-5-20-17.7-37.4-33.3-50.5c-2.6-2.5-7.7-1.1-8.1,2.7c-0.7,3.8,3.1,5.9,5.4,8.2c12.3,11.6,22.5,26.5,25.2,43.4
	c0.9,5.7,0.8,12.9-4.3,16.7c-4.9,2.9-10.9,3.1-16.4,4.2c-5.2,0.7-10.6,2.8-15.9,1.1c-8.4-2.6-15.3-8.3-23.4-11.6
	c-15.5-6.4-32.6-7.4-49.1-5.9c-13.1,1.2-26.1,4-38.8,7.9c-2.6,0.6-5.2,3-4.6,6c0.4,3.3,4.3,4.8,7.2,3.6c17.6-5.2,36-8.7,54.5-7.9
	c7.1,0.6,14.8,0.9,20.9,4.9c2.7,1.8,5.3,4.7,5,8.2c-1,3.8-5.2,5.1-8.3,6.6c-28.1,11.4-55.2,26.8-76.6,48.6
	c-4.6,4.9-9.5,10.7-9.1,17.8c-0.1,4.4,2.5,8.1,3.5,12.2c0.6,2.3-1.2,4.2-2.9,5.4c-8.1,5.8-18.2,7.4-27.9,8.4
	c-16.1,1.2-33.1-1.3-47.1-9.8c-8.1-5-15.4-12.6-17.3-22.2c-2-9.2,1.8-18.8,8-25.5c9.5-10.4,23-16.9,37-18.3c3.4-0.5,7-0.3,10.3-1.3
	c1.7-0.6,3.6-2,3.5-4c0.1-3.2-2.6-5.4-4.6-7.5c-7.7-7.7-13.1-18.3-12.4-29.5c0.5-12.7,8.6-23.8,18.3-31.4
	c15.9-12.4,35.9-18.4,55.7-20.7c11.6-1.4,23.2-1.2,34.8,0c2.9,0.5,5.9-1.3,6.5-4.2C372.4,132.4,385.7,114.8,402.9,102.9z"/>
<path class="st1" d="M457.4,231.8c15.2-1.3,30.5-0.5,45.5,1.8c6,1,12.3,1.7,17.5,5.1c5.1,3.5,6.7,9.9,8.2,15.6
	c0.8,3.4,1.7,7.6-1,10.5c-2.7,2.9-6.4,4.5-9.9,6.1c-11.9,5.1-24.4,8.7-36.9,11.9c-1.7,0.5-4.2,1.1-4.3,3.3c-0.6,2.3,2.4,4,4.4,3.2
	c14.4-3.3,28.3-8.4,42.5-12c3.7-0.8,8.2-1.9,11.3,1c2.8,2.9,4.4,6.9,5.4,10.8c0.7,2.8,0.6,6.4-2,8.1c-6.6,5.2-14.5,8.3-22.1,11.8
	c-34.2,15.1-70.3,26-107.1,32.6c-20.1,3.6-40.6,5.6-61,6c-4.8,0.1-10.7-0.5-13.4-5.1c-5.1-8.9-9.5-18.1-13.6-27.4
	c-2-4.8-4.2-9.8-4.6-15.1c0.1-4.8,4.2-8.1,7.3-11.3c20-18.1,43.2-32.9,68.4-42.7C413,238,435.1,233.4,457.4,231.8 M347.1,299.1
	c-3.4,8-7,15.8-10.4,23.8c-0.7,1.4-0.2,2.9,0,4.4c2.1,1.3,5.1,1.1,6-1.5c4-8.7,7.9-17.5,11.6-26.4c1.1-2.2-0.7-5.3-3.3-5
	C348.8,294.8,348,297.2,347.1,299.1 M360.5,313.4c-2,0.6-2.5,3-3.4,4.6c-1.9,5.1-4.4,9.9-6,15.1c-0.9,3.6,4.6,5.3,6.2,2.2
	c2.6-5.5,4.8-11.2,7.1-16.9C365.9,315.9,363.4,312.4,360.5,313.4z"/>
</svg>
