<svg version="1.1" xmlns="http://www.w3.org/2000/svg" xmlns:xlink="http://www.w3.org/1999/xlink" x="0px" y="0px" viewBox="0 0 1000 1000" style="enable-background:new 0 0 1000 1000;" xml:space="preserve">
<style type="text/css">
	.st0{fill:#000000;}
	.st1{fill:#FFD400;}
	.st2{fill:#EDEDED;}
</style>
<path class="st0" d="M681.2,191c-1.8-3.4-7.1-4.9-9.7-1.5c-2.5,3.5-0.2,7.8,0.5,11.5c2.4,9.8-1,19.8-5.7,28.3
	c-6.2,10.7-15.4,20.2-27,24.9c-11.7,4.7-24.9,2.9-36.6-0.9c-17.9-5.9-35.8-12.9-54.7-14.5c-9.7-0.7-19.5-1.2-29.1,0.5
	c-5.1,0.8-9.6,3.3-14.3,5.3c-8.7-28.5-17.2-57.1-25.8-85.6c7.4-5.2,13.8-12.6,15.3-21.8c1.6-8.3-2.4-16.9-9.1-21.9
	c-8.6-6.4-19.5-8.7-29.9-10c-27.1-2.9-54.4,2-80.6,8.5c-18.1,4.8-36.2,10.6-52.4,20.3c-7.2,4.5-14.3,9.7-19.3,16.7
	c-3.7,5.2-6.2,11.8-4.7,18.2c1.4,6.3,6.5,11.2,12.2,14c7.8,3.8,16.5,5.5,25.1,6.3c10.5,35.2,21.1,70.4,31.6,105.5
	c-7.8,5.8-15.4,12.5-19.8,21.4c-3,6.1-3.6,13.8,0,19.7c4,6.8,11.3,10.8,18.5,13.5c14.2,5,29.5,5.7,44.4,5.4
	c21.2-0.9,42.2-4.8,62.4-11.1c16.8-5.3,33.3-12.3,48-22.1c9.1-6.3,18.1-13.7,23-23.8c3.5-7,3.2-16.1-2-22.1
	c-7.3-8.7-18.8-12-29.4-14.2c-2.7-0.2-3.6-4.1-1.6-5.8c3.6-3.6,8.7-4.9,13.6-5.6c8.8-1.1,17.6-1,26.4-0.1
	c15.1,1.6,29.4,7.2,43.7,11.9c12.3,4,25.3,7.1,38.2,5c13.2-2,25-9.7,33.7-19.6c8.9-9.9,14.9-22.3,17.4-35.3
	C684.6,204.9,684.8,197.2,681.2,191z"/>
<path class="st1" d="M423.5,118.9c14.2-1,28.8-1.3,42.8,2c4.7,1.3,9.9,2.8,13.2,6.6c2.5,2.9,0.5,6.9-1.5,9.4
	c-5.3,6.5-12.8,11-20.1,15c-15.4,8-31.9,13.4-48.7,17.5c-21.6,5.1-44,8-66.2,6.9c-8.5-0.6-17.2-1.6-25-5.4c-2.8-1.4-6.1-3.5-6.2-6.9
	c0.2-4.7,4-8,7.2-11c9.7-8.1,21.3-13.4,33-18C374.9,126.3,399.1,121,423.5,118.9 M406.2,133.1c-12.9,1.6-25.9,4.6-37.6,10.5
	c-4,2.2-8.8,5.4-8.8,10.5c0.5,4.3,4.7,6.5,8.5,7.2c6.6,1.1,13.5,0.7,20.1-0.1c11.7-1.6,23.5-4.4,34.2-9.4c4-2,8.5-4.4,10.2-8.8
	c1.4-3.8-1.5-7.6-5-8.8C421,131.7,413.4,132.5,406.2,133.1z"/>
<path class="st1" d="M509.6,278.5c7,1.5,14.8,2.6,19.9,8c3,3.7-0.2,8.3-2.9,11.1c-9.3,9.5-21.7,15.2-33.8,20.2
	c-24.8,9.8-51.2,15.5-77.9,17.4c-12.7,0.5-25.6,0.8-38-2.1c-4.8-1.3-10-2.8-13.7-6.5c-2.3-2.2-1.7-5.9,0-8.3
	c3.2-4.9,8-8.3,12.7-11.6c1.8,4.9,2,12.4,8.3,13.7c19.2,4.3,39.2,3.2,58.5,0.1c18.8-3.3,37.5-8.8,53.9-18.8
	c4.9-3.2,10-6.6,13.4-11.5C512.8,286.6,510.5,282.3,509.6,278.5z"/>
<path class="st2" d="M459.6,162.6c3.4-1.4,5.8,2.6,6.4,5.4c1.1,3-0.7,6.2-3.6,7.3c-24,11.9-50,19.5-76.6,22.8
	c-8.9,1-17.9,1.7-26.8,1.1c-5.5-1-8.1-7.6-5.9-12.4c14.4,0.1,28.8-1.6,43-4.2C418.1,178.6,439.6,172.3,459.6,162.6z"/>
<path class="st2" d="M456,184.4c3.9-2.4,8.2-4,12.3-5.9c3,3.8,3.8,8.9,4.7,13.5c0.6,1.6-1.8,2.8-3,2c-4.2-1.7-8.4-3.6-12.5-5.5
	C456.1,187.8,454,185.6,456,184.4z"/>
<path class="st2" d="M434.2,192.4c3.8-1.3,7.8-2.7,11.9-2.6c3.6,0.3,6.9,2.2,9.7,4.4c-2.2,2.7-5.5,3.7-8.5,5
	c-16.4,6.6-33.6,11.3-51.1,13.5c-4,0.4-8.1,1.2-12.1,0.2c-1.1-0.2-1.8-0.9-2-2c1.8-2.7,4.2-5.2,7.1-6.8c4-1.8,8.3-2.5,12.5-3.4
	C412.7,198.7,423.6,196,434.2,192.4z"/>
<path class="st2" d="M461.4,198.8c4-1.4,8,0.8,11.6,2.3c3.9,1.4,5.1,6.1,5.3,9.9c-0.2,4.7-4.7,7.2-8.4,9
	c-30.1,14.9-63.4,23.6-97,25.3c-4.5,0.4-6.3-4.7-7.3-8.1c-2.1-5.6,1.6-11.2,5.8-14.6c2.9-2.6,6.8-3.1,10.5-3.2
	c24.3-1.4,48.3-7.2,70.7-16.7C455.6,201.3,458.4,199.8,461.4,198.8z"/>
<path class="st2" d="M357.8,208c1.5-1.3,3.1-2.7,5.2-2.8c5.2-0.5,10.4-1.1,15.6-0.3c-1.5,4.6-5.6,7.5-8.6,11.2c-2.1,1.9-3.9,5-7,5.1
	C359.4,217.8,358.7,212.6,357.8,208z"/>
<path class="st2" d="M477.7,221.6c2.1-1.8,4.4,0.6,5,2.6c1.5,3.3,2,8.5-1.8,10.5c-22.5,12.1-47,20.2-72,24.9
	c-8.6,1.4-17.2,3.1-25.9,2.8c1.5-4.5,5.7-7.2,9-10.3c3.9-3.5,9.1-4.6,14.1-5.6C431,241.7,455.4,233.8,477.7,221.6z"/>
<path class="st2" d="M482.6,239.7c3.5-2,5.6,2.6,6.3,5.3c1.6,3.4,0.6,8.2-3.3,9.5c-32.5,13.8-67.1,24.4-102.7,25.1
	c-3,0.5-5.3-1.9-5.8-4.7c-0.9-2.2-1.5-6.5,1.9-6.7C415,266.3,450.7,256.5,482.6,239.7z"/>
<path class="st2" d="M372.4,251.3c3.8-1.7,8.2-1.4,12.3-1.6c-2.3,4.7-6.3,9-11.3,10.6C372.2,257.7,369.7,253.8,372.4,251.3z"/>
<path class="st2" d="M485.4,260.7c2-0.7,4.4-2.1,6.5-0.9c1.4,1.7,2.6,3.9,2.2,6.1c-1.2,3.3-4.4,5.2-7.1,7.1
	c-25.8,16.3-56.6,24.4-87,22.9c-4.3-0.2-8.6-0.2-12.8-1.2c-3.3-0.7-5.7-4.4-4.5-7.6c1.6-2.4,4.8-2.1,7.3-2.4
	c15.1-0.7,30.2-2.5,44.8-6.3C452.2,274,469.3,268.6,485.4,260.7z"/>
<path class="st2" d="M488.3,279.2c2.2-1.3,4.2-2.9,6.7-3.6c3.1,1.3,3.7,5.4,4,8.4c0.7,4.3-4,7.3-7.8,6.7c-4.3-0.7-8.2-2.9-11.3-5.8
	C482.3,282.3,485.5,281,488.3,279.2z"/>
<path class="st2" d="M464.4,291.1c6.7-2.7,15.6-1.5,20.6,3.8c-1.1,1.5-2.4,3-4.2,3.6c-19.1,8.5-40,12.9-60.9,14.1
	c-9.3,0.3-18.7,0.3-27.9-1.3c-4.2-0.2-6.2-5.6-4.5-9c2.1-1.6,5-0.6,7.4-0.6C418.5,303.9,442.5,299.9,464.4,291.1z"/>
</svg>
