<svg version="1.1" xmlns="http://www.w3.org/2000/svg" xmlns:xlink="http://www.w3.org/1999/xlink" x="0px" y="0px" viewBox="0 0 1000 1000" style="enable-background:new 0 0 1000 1000;" xml:space="preserve">
<style type="text/css">
	.st0{fill:#000000;}
	.st1{fill:#464B4B;}
	.st2{fill:#FF002C;}
</style>
<path class="st0" d="M483,516.1c16.4-0.9,32.8-1.5,49.2-2.3c1.8-11,0.9-23.1-5.7-32.4c-4.7-6.7-12.2-11.5-20.5-12.2
	c-13.9-1.5-27.3,5.3-37.2,14.5c-11.9,11.1-20.2,26.3-22.5,42.5c-1.4,10.6,0.2,22.1,6.7,30.8c5.1,6.9,13.4,11.1,22,11.4
	c12,0.6,23.3-4.9,32.4-12.3c-8.7-11.6-17.4-23.1-26-34.7C479.5,519.7,480.3,516.1,483,516.1z"/>
<path class="st0" d="M673,584.7c10.3-0.4,20.5-0.9,30.8-1.3c1.5-9.3-0.2-20.2-7.7-26.5c-6.4-5.7-16-5.5-23.4-2
	c-12.1,5.5-20.7,16.8-24.8,29.2c-2.9,8.9-3.5,19.3,1.3,27.8c3.3,6,9.9,10,16.7,10.1c7.9,0.2,15.3-3.7,21.2-8.7
	c-5.7-7.4-11.4-14.8-17.2-22.1c-0.7-1.1-1.9-2.3-1.4-3.7C668.7,585.1,671.3,584.8,673,584.7z"/>
<path class="st0" d="M569.9,618.1c-8.9-4.2-19.4-5.3-28.8-2c-9.3,3-17.1,9.8-21.8,18.2c-5.1,8.7-7.5,19.2-5,29.1
	c2.6,10.8,10.8,20.2,21.4,23.7c13.1,4.7,29.7-0.4,36.4-13c4.5-7.8,3.8-17.7-1.1-25.1c3.1-3.6,6.2-7.2,9.4-10.8
	c2.2,2.9,3.5,7.6,7.7,8c3.9,0.3,6.1-4.5,4.3-7.7C587.7,629.3,579.2,622.5,569.9,618.1z"/>
<path class="st1" d="M546.2,625.2c8.7-2.4,17.8,0.5,25.2,5.2c-3,3.5-6,7-9,10.4c-9.9-6.1-22.4-7-33.3-3.2
	C533.1,631.7,539,626.7,546.2,625.2z"/>
<path class="st2" d="M536.4,646.5c9.4-2.6,20.9,0.3,26.4,8.7c3.8,5.9,2.2,14.2-3.1,18.6c-10.1,9.3-29,4.9-33.3-8.3
	C523.4,657.7,528.1,648.1,536.4,646.5z"/>
</svg>
