<svg version="1.1" xmlns="http://www.w3.org/2000/svg" xmlns:xlink="http://www.w3.org/1999/xlink" x="0px" y="0px" viewBox="0 0 1000 1000" style="enable-background:new 0 0 1000 1000;" xml:space="preserve">
<style type="text/css">
	.st0{fill:#000000;}
	.st1{fill:#FF002C;}
	.st2{fill:#EDEDED;}
</style>
<path class="st0" d="M476.8,51.2c-2.4-3.7-0.1-9.3,4.2-10.1c4.9-1,8.8,2.8,12.7,5.2c27.2,18.7,44.3,50.3,46.8,83.1
	c5.5-6.5,8.8-14.9,8.6-23.5c-0.4-4.3,3.7-8.1,8-7.5c4.3,0.3,6.9,4.3,9.1,7.5c8.2,12.6,13,27,16.7,41.5c4.6,18.1,5.8,37.3,0.9,55.4
	c-4.6,18.5-15.8,35.4-31.3,46.5C527.7,266.9,495,271.9,466,264c-17.2-4.6-33.2-14.8-43.5-29.4c-7.9-10.8-10.6-24.6-9.1-37.8
	c2.3-23.9,15.3-45.2,17.9-69c0.5-6.3,1.1-12.7-0.3-18.9c-0.4-2.2-1.2-4.5-0.6-6.7c1.1-4.4,6.5-7,10.7-5.3
	c11.1,4,21.2,10.7,29.5,19.1c7.4-12.4,13-26.4,12.7-41C483.1,66.7,480.7,58.5,476.8,51.2"/>
<path class="st1" d="M496.2,65.9c20.6,19.4,31.7,48,30.8,76.2c-0.6,4.9,4.7,9.2,9.4,7.2c11.1-5.1,19.3-15.2,23.6-26.4
	c6.1,13.6,10.3,28.1,12.4,42.9c2.5,18.7-0.8,38.6-11,54.6c-7.5,11.7-18.9,20.8-31.7,26.2c-20.3,8.7-43.8,10-64.7,2.8
	c-13.3-4.5-25.4-13.2-32.8-25.2c-6.3-10.1-6.1-22.8-3.7-34.1c3.8-17.3,11.6-33.5,15.1-50.9c1.7-8.2,2.4-16.6,2.1-25
	c7.3,4.2,14.2,9.5,19,16.6c2.3,3.6,7.6,4.2,10.9,1.7c2.6-2.1,4.1-5.3,6-8C492.2,107.1,499.2,86.4,496.2,65.9"/>
<path class="st0" d="M485.9,142c1.2-1.3,3.3-1.6,4.9-0.7c15,7.4,25.8,22.8,27.2,39.5c2.4-2.8,4.2-6.1,4.3-9.8
	c-0.1-1.9,0.7-3.9,2.8-4.2c3.4-0.7,5.5,2.7,7.1,5.1c5,8.2,8.1,17.6,9.1,27.2c1.1,11.5-3.1,23.6-11.8,31.5
	c-9.3,8.5-22.1,12.3-34.5,12.5c-12.4,0.1-25.6-3.4-34.5-12.5c-4.4-4.3-7.1-10.3-7-16.5c0.2-13,9-24,9.5-37c0.3-2.7-0.5-5.3-0.8-7.9
	c0-2.3,2.8-3.7,4.9-3.2c5.8,1.6,11,4.9,15.6,8.7c4.8-7.3,8.4-16.6,5.1-25.2C487,146.9,484.2,144.5,485.9,142"/>
<path class="st2" d="M495.6,152c10.1,8.2,16,21.1,15.6,34.1c-0.4,2.4,2.3,4.3,4.5,3.5c5.5-2,9.5-6.8,12.1-11.9
	c5.2,10.6,8.8,23,5.3,34.6c-2.3,8.2-8.2,15.1-15.8,19c-12.1,6.3-26.8,7.4-39.7,2.9c-6.3-2.3-12.2-6.3-15.6-12.2
	c-3.4-6.6-1.4-14.2,1.1-20.7c3.5-8.9,7.1-18,6.7-27.7c3.8,2,7.3,4.5,10,7.8c1.5,1.9,4.6,1.5,6-0.3C492.5,172.9,497,162.6,495.6,152z
	"/>
</svg>
