<svg version="1.1" xmlns="http://www.w3.org/2000/svg" xmlns:xlink="http://www.w3.org/1999/xlink" x="0px" y="0px" viewBox="0 0 1000 1000" style="enable-background:new 0 0 1000 1000;" xml:space="preserve">
<style type="text/css">
	.st0{fill:%%ST0%%;}
	.st1{fill:#EDEDED;}
	.st2{fill:%%ST2%%;}
	.st3{fill:#BE2D2B;}
	.st4{fill:#000000;}
</style>
<path class="st4" d="M724,588c-2.6-4.5-3.3-9.7-5.5-14.4c-1.8-4.6-5-8.6-6.1-13.5c1.7-3.4,5.1-5.4,7.7-8.1c6.1-5.6,9.9-13.4,11.5-21.5
	c1.3-7.6,8.1-12.3,10.8-19.2c5.5-11.7,3.2-26.6-6-35.8c-2.9-3.1-7.1-5.5-7.9-10c-1.2-6.2-2-12.6-4.6-18.5
	c-6.8-16.3-21.7-28-37.9-34.1c-6.6-2.8-13.9-3.6-20.4-6.5c-3.4-1.5-5.5-4.6-7.4-7.6c-5.2-8.5-11.5-16.4-19.3-22.6
	c-22.7-17.8-53.9-21.4-81.3-14.6c-11.6,2.7-22.5,7.8-33.1,13c-3.8,1.7-8.1,3.6-12.3,2.3c-5-1.5-9.3-4.6-13.9-7.1
	c-17.2-10.5-37.7-15.5-57.8-14.2c-17.2,1.2-33.9,6.6-48.8,15.2c-29.7,16.6-53.8,43.5-65.3,75.6c-2.3,6.1-3.9,12.5-6.5,18.5
	c-2.2,5.4-7.5,8.5-11.7,12.3c-24.3,21.1-44.2,48.2-53.7,79.2c-8.9,29.9-9.3,62.8,1.9,92.2c12.7,33.2,38.2,60.4,68.3,78.7
	c17.7,10.9,37.2,18.5,56.8,25.2c28.9,9.9,59,16.1,89.4,18.7c41.7,3.8,84.1,2.6,125.3-5.3c21.5-4.3,42.9-10.5,62.5-20.6
	c11.9-6.1,24-12.8,32.9-23c4-4.4,6.2-9.9,8.9-15.2c1.8-3.7,5.2-6.2,8.4-8.7c6.6-5.2,12.3-11.8,15.3-19.6c3.5-8.6,3.7-18.3,1.2-27.2
	c-0.7-2.8-1.7-5.7-1.5-8.7c0.8-1.6,2.1-2.8,3.3-4c5.6-5.2,10.6-11,14.1-17.8c4-8.1,3.9-19-3-25.5C734.5,591.5,728.4,591.1,724,588z"
	/>
<path class="st0" d="M441.5,374.6c9.1-0.7,18.4-0.6,27.3,1.6c20.7,3.9,39.4,16.2,52.1,32.9c1.1,1.8,2.8,4.1,1.4,6.2
	c-1.8,0.7-3.9,0.4-5.7,0.2c-38.4-7.3-78.4,0.3-113.6,16.5c-2.6,1.3-5.6,2.4-7.1,5c-1.9,3.3,1.3,7.9,5.1,7.4c4.9-1,9.1-3.9,13.7-5.6
	c30.8-12.8,65.2-18.7,98.3-12.8c18.1,3.4,36.5,11,48.1,26c2.8,4,6,8.2,6,13.2c-2.3,0-4.6-0.6-6.8-1.3c-15.5-5.2-32.2-5-48.2-2.6
	c-19.6,3.2-38.7,9.1-56.7,17.3c-14,6.3-27.5,13.8-39.4,23.6c-2.7,2.2-5.7,5.5-4.5,9.3c1.8,5.4,7.1,8.4,11.5,11.6
	c26.7,17.3,58.1,27.8,90,28.4c12.8,0.4,25.7-1.6,37.8-5.6c4.6-1.5,8.8-3.9,13.4-5.5c-2.1,3.2-5.1,5.6-8.2,7.7
	c-14.8,11-32.8,16.8-51,18.9c-18.5,1.5-37.4,0.2-55.1-5.8c-2.9-0.8-6.4-2.4-9.1-0.3c-2.9,2.1-2.4,7.1,0.7,8.7
	c3.5,1.9,7.4,2.8,11.1,3.9c31.2,8.4,65.9,7,95.1-7.6c13.5-6.7,25.6-16.4,34.3-28.8c1.8-2.2,3.4-4.9,6.2-6c3.1-0.4,6.2,0.8,9.2,1.5
	c39.3,11.1,81.8,10.3,120.6-2.4c-0.1,2.1-0.5,4.3-1.8,6c-5.4,7.4-13.8,11.7-22.3,14.7c-13.5,4.8-27.7,7-41.9,7.9
	c-2,0.2-4.1,0.3-6,1.1c-3,1.4-3.8,6.1-1.3,8.3c1.9,2,4.9,1.5,7.4,1.5c11.3-0.8,22.7-2.3,33.7-5.2c2.9-0.6,6-1.7,8.9-0.5
	c2.6,1.3,4.3,3.9,5.9,6.2c2.8,4.4,5.2,9,7.2,13.8c0.9,2.6,2,5.6,0.8,8.3c-1.2,2-3.7,2.5-5.8,3.3c-11.2,3.2-22.3,6.5-33.6,9.3
	c-28.6,6.6-57.9,10-87.2,9.7c-42.6,0.2-85-5-127-11.8c-18.5-2.8-37.2-6.4-56-5.2c-9.8,0.6-20,4.1-26.4,11.8
	c-6.7,7.9-7.7,19.3-5.1,29c4,13.6,13.8,24.7,24.8,33.2c19,14.6,41.6,23.7,64.4,30.5c38.1,11.3,77.7,17.6,117.4,20
	c30.7,1.5,61.9,1,92-6.4c1.9-0.3,4.2-1.1,5.9,0.2c-0.6,1.5-1.8,2.8-3.1,3.7c-20.4,13.3-43.9,21.3-67.6,26.5
	c-24.5,5.1-49.3,8.1-74.3,9.3c-22.7,0.3-45.4,0.1-68-2.6c-35.7-4-70.7-13.6-103.3-28.7c-19.4-9.1-37.9-20.6-53.1-35.9
	c-16.1-15.7-27.9-36-32.9-58c-2.6-10.9-4.2-22.1-3.9-33.4c1.1-25.7,8.5-51.2,22.5-72.8c6.7-10.7,14.8-20.4,24-29
	c2.6-2.4,5.2-5.1,8.6-6.2c2.1,3.7,0.2,8.3,2.1,12.1c2,3.5,8.1,2.9,9.2-1c1-3.8,0.9-7.8,1.4-11.7c3.9-37.2,24.6-72.2,55.2-93.8
	C404.2,383.6,422.5,376.6,441.5,374.6z"/>
<path class="st0" d="M573.4,375.4c11.8-1.7,24-0.6,35.5,2.7c14.7,4.3,28.1,13.5,36.5,26.5c1,1.5,1.8,3.3,1.6,5.1
	c-6.5,1.1-13.1,0.2-19.7,0.7c-13.1,0.9-26.1,2.9-38.9,6c-2.5,0.6-5.1,1.2-7.3,2.7c-2.9,1.9-2.5,6.7,0.3,8.5c2.2,1.5,4.9,0.6,7.2,0.2
	c19.7-5.2,40.3-7.6,60.7-6.2c14.9,1.3,30,4.3,43,12c10.3,6,19.9,16,20.5,28.5c-2.4,0.1-4.8-0.3-7.1-0.9c-11.4-2.8-23.2-2.9-34.9-2.3
	c-16.1,1-32.2,3.6-47.6,8.5c-10.1,3.2-19.8,7.2-29.4,11.6c-2.3,0.9-4.8,2.2-7.3,1.3c-2.1-1-2.9-3.5-3.5-5.5
	c-1.2-4.8-1.8-9.7-3.7-14.3c-4-10.4-11.7-18.9-20.1-25.9c-4.2-3.6-9.1-6.2-13.5-9.5c-5.8-4.5-8.4-11.6-12.5-17.5
	c-2.3-3.7-5.6-6.8-7.4-10.8c-0.9-2.8,2.1-4.6,4-5.9C543.1,382.8,558,377.3,573.4,375.4z"/>
<path class="st1" d="M663.4,470.4c15.1-1.4,30.7-1.6,45.4,2.7c7.9,2.3,15.4,7.4,19.1,14.9c4.2,8,3,18.9-3.8,25.1
	c-5.1,4.6-11.6,7.5-18.3,9.1c2-4.6,4.8-9,5.4-14.1c2.2-13.2-5.7-27.2-18.1-32.3c-10.7-4.9-24-2.3-32.5,5.8
	c-9.9,9-12.4,24.9-5.8,36.5c2.1,4.4,6.1,7.4,9.2,11c-25,1.4-50.2-2.2-74-10.2c-1.3-0.6-3.6-1-3.2-3c0.5-3.5,2-6.8,2.6-10.3
	c0.8-3.9,0.2-8,1.1-12c0.8-1.2,2.1-1.9,3.3-2.6C615.8,480.3,639.2,472.5,663.4,470.4z"/>
<path class="st1" d="M518.4,471.4c14.1-1.5,28.9-1.3,42.2,4.1c6.9,2.7,13.5,7.4,16.7,14.3c3,6.4,2.4,14-0.1,20.4
	c-3.9,9.9-12.3,17.7-21.9,22c3-3.8,6.3-7.4,8-12c5-11.6,2.4-25.9-6.2-35.1c-8.3-9.3-22.2-13.2-34.1-9.3
	c-11.5,3.4-20.6,13.5-22.8,25.2c-2.7,12.3,2.7,25.8,12.8,33.2c3.2,2.7,7.2,3.8,11,5.4c-1.4,1.2-3.4,0.8-5.1,1
	c-31.5,0.3-62.7-9.3-89.2-26.2c-1.6-1.1-3.2-2.2-4.5-3.6c-0.6-2.2,1.9-3.2,3.2-4.5c8.8-6.2,18.1-11.7,27.9-16.1
	C475.8,480.9,496.8,474.2,518.4,471.4z"/>
<path class="st2" d="M717.3,603.4c4.7-0.9,10.6-0.8,13.7,3.6c2.8,4.4,1,10.1-2.4,13.7c-6.5,7.2-15.7,11.3-24.8,14.3
	c-22.6,7.3-46.3,10.7-69.9,12.9c-17.3,1.7-34.7,2.2-52,2.4c-49.2-0.9-98.5-4.6-147-13.2c-9.7-1.6-19.2-4-28.7-6.3
	c-2.3-0.5-4.7-1.1-7.1-0.8c-2.9,0.6-4.4,4.2-3.1,6.7c0.9,1.5,2.5,2.4,3.9,3.3c32,17.4,67.1,28.3,102.4,36.6
	c26.3,6,53,10.1,79.9,11.9c24.1,1.3,48.8,1.5,72.3-4.9c9.9-3,20.7-7.5,25.8-17.2c2.4-4.2,1.5-9.3,3.2-13.7c3-1.9,6.5-2.3,9.8-3.3
	c3.8-0.9,7.6-2.5,11.5-2.5c2.8,0.4,4.6,3,5.9,5.3c5.2,9.8,3.1,22.4-3.9,30.8c-8.9,10.9-22.5,16.2-35.6,20.3
	c-33.5,9.6-68.9,9.6-103.4,7.6c-39.4-3-78.6-9.5-116.3-21.6c-18-6-35.7-13.5-51.1-24.9c-7.8-5.8-15.1-12.7-19.6-21.4
	c-3.2-5.9-4.7-12.9-3.3-19.5c1.1-5.1,4.6-9.5,9.3-11.7c6.2-3.2,13.3-3.4,20.1-3.3c13.5,0,26.8,2.4,40.2,4.3
	c33.4,5.5,67,10.2,100.8,12.1c17,1.1,34,0.8,51,0.7c31.3-1.3,62.4-6.2,92.4-15.1C700.1,608.2,708.5,605.1,717.3,603.4z"/>
<path class="st3" d="M457.8,652.1c3.7,0,7.3,0.6,10.9,1.1c22.5,3,45.1,4.8,67.7,6.2c41.5,2.7,83.3,2.3,124.4-3.8
	c3.3-0.3,7-1.4,9.9,0.7c1.6,4.8-2.4,8.9-6.2,11.2c-9.1,5.5-19.8,7.4-30.1,8.9c-15.1,1.9-30.4,2.3-45.5,1.3
	c-42.9-2.1-85.4-10.6-126.4-23.3C460.9,654,459.2,653.2,457.8,652.1z"/>
<path class="st1" d="M669.5,484.4c2.3-0.8,5.2-0.6,6.8,1.4c2.1,2.3,2.1,6.2-0.1,8.4c-2.5,2.6-7.4,2.1-9.3-1
	C665.1,490.3,666,485.7,669.5,484.4z"/>
<path class="st1" d="M520.4,486.4c2.7-0.6,5.8,0.6,7.3,2.9c2.2,3,1.6,7.7-1.5,10c-3.4,2.8-9.3,1.5-11-2.6
	C513,492.6,515.8,487,520.4,486.4z"/>
<path class="st1" d="M695.4,496.3c2-0.5,4.4-0.1,5.8,1.5c2,2.4,1.4,6.6-1.4,8.1c-2.6,1.6-6.3,0.5-7.5-2.3
	C690.8,500.9,692.4,497.1,695.4,496.3z"/>
<path class="st1" d="M546.4,500.4c2.8-1.5,6.6-0.8,8.5,1.7c2,2.4,1.8,6.3-0.4,8.5c-2.8,2.8-8.1,2.4-10.3-0.9
	C542.1,506.7,543.1,502,546.4,500.4z"/>
<path class="st1" d="M675.3,515.3c2.9-0.9,5.9,2.2,5.1,5.1c-0.6,2.4-3.4,4-5.8,2.9C671.1,522.1,671.5,516,675.3,515.3z"/>
<path class="st1" d="M524.5,521.4c3.6-1.6,7.9,1.5,7.2,5.4c-0.5,4.5-7.4,5.8-9.5,1.8C520.4,526.2,521.7,522.5,524.5,521.4z"/>
</svg>
