<svg version="1.1" xmlns="http://www.w3.org/2000/svg" xmlns:xlink="http://www.w3.org/1999/xlink" x="0px" y="0px" viewBox="0 0 1000 1000" style="enable-background:new 0 0 1000 1000;" xml:space="preserve">
<style type="text/css">
	.st0{fill:#FFD400;}
	.st1{fill:#FFFFFF;}
	.st2{fill:#000000;}
</style>
<path class="st2" d="M381.6,444.5c34.6-38,85.8-61.1,137.4-59.4c21.7,0.6,43,5.7,63,14c12.9,5.3,25.1,12.4,36,21.1
	c12.9,10.5,23.5,23.6,32.1,37.7c17.2,28.5,24.8,62.1,25.5,95.2c0.4,26-2.8,52.4-11.9,76.8c-6,14.9-13.1,29.4-23,42.1
	c-9,11.5-19.4,22.2-31.8,30.2c-2.5,1.9-6.5,1.9-8.3-0.9c-2-2.5-0.8-6.2,1.7-7.8c5.9-4,11.6-8.3,16.6-13.5c2.6-2.8,5.7-5.4,6.8-9.2
	c-10.8,2.5-21.5,5.7-32.5,7.4c-24.5,4-49.4,6.2-74.3,5.9c-20.6-0.3-41.2-1.2-61.5-4.8c-20.9-3.5-41.8-7.4-62-14
	c-3.7-1.1-7.2-3.2-11.2-3c0.9,4.6,4,8.2,6.7,11.8c7.8,10,17.9,17.8,28.1,25.2c1.8,1.1,2.6,3,3.4,4.8c-0.5,3.8-4.5,7-8.3,5
	c-9.9-5.3-18.6-12.7-26.5-20.6c-13-13.2-23.8-28.6-31.8-45.2c-8.2-17-12.8-35.5-15-54.2c-2.6-20.1-1.8-40.6,1.4-60.7
	C347.1,497.4,360.4,467.6,381.6,444.5 M495.5,397.8c-33.3,3.9-65.2,18.4-90.5,40.2c-5.9,5.5-12.5,11-14.9,19
	c-1.5,4.1-0.6,9.1,2.6,12.2c2.8,2.7,6.6,3.7,10.3,4.6c21.1,4.7,42.4,8.7,63.8,11c23.6,2.5,47.4,4.2,71.2,4.5
	c23.7,1,47.5-0.4,71.2-2.1c8.4-0.7,16.9-1.2,25.1-2.9c3.4-0.8,7.3-2.6,8.3-6.3c1.5-5.5-1.8-10.6-4.2-15.3
	c-8.9-16.3-21.9-30.3-37.4-40.5c-13.6-9-28.9-15.2-44.6-19.6C536.7,397,515.9,395.3,495.5,397.8"/>
<path class="st0" d="M374.3,483.6c4.1-1.3,8.5-0.3,12.6,0.4c11.9,2.4,23.8,5.2,35.8,7.3c18,3.1,36,5.8,54.2,7.8
	c29.6,2.5,59.3,4.6,89,3.3c25.5-0.1,50.9-2.3,76.1-6.3c3.3-0.4,7.1-1.2,10,0.9c3,2.2,4.3,6,5.3,9.4c2.7,9.6,3.6,19.6,5,29.5
	c2.1,15.9,2,32,0.5,48c-1,11.3-3.2,22.5-6.7,33.3c-3.1,9.8-6.8,19.6-13.1,27.8c-6.3,7.1-15.9,9.8-24.6,12.5
	c-22.4,6.1-45.4,10.2-68.5,11.7c-25.9,1.1-51.9,1.2-77.7-2c-28.7-3.8-57.6-9.1-84.1-21.2c-10-4.5-20.2-10.5-25.8-20.4
	c-5.8-10.3-7.9-22.2-9.6-33.7c-3.8-31.6-1.4-64.3,10.2-94.1C365.3,492.3,368.2,485.7,374.3,483.6"/>
<path class="st2" d="M595.5,539.8c10.6-2,21.9,1.7,29.7,9c15,14.1,17.4,38.4,7.8,56.2c-4.8,9.2-13,16.8-23,20c-8.5,2.8-18.1,2.2-26.1-1.9
	c-9.6-4.8-16.6-14-19.8-24.1c-5.2-16.2-1.4-35.1,10.3-47.5C580,545.5,587.5,541.3,595.5,539.8"/>
<path class="st2" d="M442.4,548.6c13.8-3,28.6-0.1,40.5,7.5c12.8,8,22.1,20.8,27,34.9c0.8,2.6,2.2,5.4,1.2,8.1c-1.1,3.6-5.7,5.6-9,3.8
	c-3-1.3-3.6-4.7-4.6-7.4c-5.2-15.7-17.8-29.6-34.2-33.6c-14-3.6-29.2,1.2-39.8,10.7c-5,4.2-8.7,9.5-12.2,14.9
	c-2.5,3.9-9.1,3.6-11-0.7c-1.9-3.5,0.4-7.2,2.4-10C411.8,562.8,426,551.9,442.4,548.6z"/>
<path class="st1" d="M594.4,553.6c6.1-2,13.2-1.2,18.6,2.5c18.6,12.7,15.9,44.8-3.8,55.2c-7.7,4.2-17.9,2.9-24.3-3.1
	C568.4,593.3,573.2,561.4,594.4,553.6z"/>
</svg>
