<svg version="1.1" xmlns="http://www.w3.org/2000/svg" xmlns:xlink="http://www.w3.org/1999/xlink" x="0px" y="0px" viewBox="0 0 1000 1000" style="enable-background:new 0 0 1000 1000;" xml:space="preserve">
<style type="text/css">
	.st0{fill:#FFD400;}
	.st1{fill:#EDEDED;}
	.st2{fill:#000000;}
</style>
<path class="st2" d="M675.3,545c-0.9-17.6-4.1-35.1-9.4-51.9c-4.2-14-10.8-27.2-18.5-39.5c-9.5-14.7-21.4-28.2-35.8-38.2
	c-14.4-10.2-30.7-17.6-47.5-22.7c-18.4-5.7-37.9-8.4-57.1-7.4c-49.7,2-97.6,26.3-129.6,64.2c-22.2,26.4-34.2,60.1-37.1,94.2
	c-12.8-2-25.5-4.1-38.3-6.1c-11.6-1.8-23.2-4.4-35-5.2c-9.5-1.1-19.6-0.1-28.1,4.6c-9,5-17.1,12.8-19.9,23
	c-1.3,5.2-1.4,11.5,2.7,15.5c4.6,4,11.7,4.3,16.8,1.1c6.6-4,9.9-11.5,15.9-16.2c6-4.9,14-6.8,21.7-6.3c9.4,0.6,18.7,2.4,28,3.9
	c11.8,1.9,23.6,3.8,35.4,5.6c0.1,28.3,5.1,57.1,17.9,82.5c12.2,23.9,29.8,45.6,52.4,60.4c2.8,1.6,5.9,4.3,9.3,2.7
	c3.9-1.4,4.1-7.4,0.6-9.5c-12.6-9.2-25.2-19.1-33.5-32.6c-0.9-1.5-1.4-3.2-1.6-4.8c4.2,0.1,7.9,2.3,11.8,3.4
	c21.8,6.9,44.4,11,66.9,14.6c18.1,2.9,36.5,3.5,54.9,3.9c26.8,0.3,53.6-2.1,80-6.8c9.4-1.6,18.5-4.4,27.7-6.6
	c-0.4,1.4-0.9,2.9-1.9,4c-6.1,7.3-13.5,13.4-21.4,18.7c-2.8,1.8-3.6,6-1.1,8.4c2.1,2.2,5.5,1.9,7.8,0.2c13-8.4,23.8-19.8,33.2-32
	c9.8-13.1,16.9-28,22.7-43.2C674,600.6,676.8,572.6,675.3,545z M395.9,447c11.8-12.9,26.5-23,41.9-31.2c17.9-9.5,37.6-15.6,57.8-18
	c20.6-2.5,41.7-0.8,61.6,5c17.2,4.9,34,12,48.5,22.6c13.9,10.1,25.4,23.4,33.5,38.6c2.3,4.4,5.2,9.5,3.3,14.6
	c-1.5,3.8-5.8,5.3-9.5,6c-13.3,2.2-26.7,2.8-40.1,3.7c-23.2,1.7-46.5,1.6-69.8,0.6c-21.3-0.8-42.6-2.5-63.9-5
	c-19.2-2.4-38.2-6.1-57-10.3c-4.7-1-9.9-3.1-11.8-7.8C387.6,459.1,391.6,452,395.9,447z"/>
<path class="st0" d="M368.2,488.1c2.5-3.4,6.6-5.5,10.8-5.2c6.8,0.4,13.5,2.3,20.1,3.6c24.4,5.4,49.1,9,73.9,12.1
	c25.6,2.3,51.2,4.2,76.9,4.1c17-0.5,34-0.4,51-1.8c14.4-1.2,28.8-3,43-5.2c2.7-0.3,5.7-0.5,8,1.1c2.8,2.1,4.1,5.5,5.2,8.8
	c1.8,5.9,2.7,12.1,3.6,18.2c1.5,11.8,3.4,23.5,3.1,35.4c-8.1-25.6-35.2-43-61.8-40.8c-22,1.3-42.5,15.4-51.6,35.4
	c-14.5-5.8-31.1-5.9-45.5,0.1c-6.8-14.7-19.6-26.5-34.9-32c-14.1-5.2-30.1-4.9-43.9,0.8c-13.7,5.5-25.1,16.1-31.8,29.3
	c-14.1-2.3-28.2-4.5-42.3-6.7c1.1-12.6,3.4-25.2,7.3-37.3C361.6,501.2,363.8,494.1,368.2,488.1z"/>
<path class="st0" d="M351,565.3c12.4,1.9,24.9,3.9,37.3,5.9c-1.9,13.8,1,28.3,8.2,40.2c7.3,12.3,19.2,21.8,32.7,26.4
	c16.1,5.6,34.5,4,49.4-4.3c14.3-7.8,25.2-21.6,29.6-37.3c2.2-7.5,2.5-15.3,2-23c10.8-5.2,23.8-5.1,34.7-0.1
	c-1.2,13.7,1.8,27.9,9.3,39.5c10.5,16.9,29.8,28,49.7,28.5c21,1,41.8-9.8,53.3-27.3c-3.5,10.9-7.1,22.1-14.2,31.2
	c-6.3,7.1-15.9,9.8-24.7,12.5c-25.4,6.9-51.6,11.3-77.9,12.1c-23.9,0.5-47.8,0.5-71.5-2.9c-22.3-3.1-44.7-7.1-66-14.8
	c-11.4-4.3-23.1-8.7-32.6-16.7c-6.5-5.4-10.5-13.1-13-21C352.6,598.5,351.3,581.8,351,565.3z"/>
<path class="st1" d="M442.5,538.8c7.4-1,15.2-0.4,22.1,2.5c10.2,4,18.6,12.3,22.8,22.4c4.7,11,4.3,24.2-1.2,34.9
	c-5.6,11.3-16.8,19.8-29.2,22.1c-9.8,1.9-20.2,0.2-28.8-4.8c-10.8-6.2-18.4-17.4-20.2-29.7c-1.8-11.3,1.5-23.3,8.7-32.2
	C423.1,545.8,432.5,540.4,442.5,538.8z"/>
<path class="st1" d="M599.5,538.8c8.7-1.2,17.8-0.1,25.6,4c13.1,6.6,22.1,20.5,22.5,35.1c0.6,10.7-3.2,21.4-10.3,29.4
	c-7.1,8.1-17.6,13.3-28.4,13.9c-11.1,0.8-22.4-3.1-30.6-10.6c-7.3-6.6-12.2-15.8-13.4-25.6c-1.5-11.3,2-23.1,9.3-31.8
	C580.5,545.6,589.7,540.3,599.5,538.8z"/>
</svg>
