<svg version="1.1" xmlns="http://www.w3.org/2000/svg" xmlns:xlink="http://www.w3.org/1999/xlink" x="0px" y="0px" viewBox="0 0 1000 1000" style="enable-background:new 0 0 1000 1000;" xml:space="preserve">
<style type="text/css">
	.st0{fill:#EDEDED;}
	.st1{fill:#FF002C;}
</style>
<path class="st0" d="M721.7,821.4c-5.8-6.7-13.8-11-20.8-16.2c-26.2-17.6-51.8-35.8-78.4-52.7c-28.3-17.9-58.9-32.6-91.4-41.2
	c-21.3-5.4-43.2-8.2-65-10.8c-22.9-2.3-46.1-2.7-68.8,1.6c-18,3-35.6,9.1-50.9,19.2c-24.9,16.3-43.4,40.5-57.6,66.2
	c-26.7,48.6-40,104.1-39.9,159.5c0,17.7,0.1,35.4,2,53h21.2h95.4h25.3h278.9H690c-5.3-20.1-11.6-40-18.1-59.7
	c-4.6-13.9-9.1-27.8-14.2-41.5c13.3,6.4,27.5,11,42.2,12.9c5,0.1,10.8,1.3,15.1-1.9c1.9-2.9,0.7-6.8,0.5-10c-3.3-23-4.1-47.7,6-69.2
	C722.9,827.8,724.3,824.1,721.7,821.4z"/>
<path class="st1" d="M381.9,726.6c21.5-6.2,43.9-8.4,66.2-8.6c22-0.4,43.9,2.5,65.2,7.8c16.8,4.2,33.3,10.5,47.5,20.6
	c13.1,9.2,22.8,22.3,30.7,36.1c14.3,25.5,25.4,52.7,35.9,80c17.4,45,30.4,91.5,44.4,137.6H392.8c-9.6-46.6-19.1-93.3-28.7-139.9
	c-0.5-4.7-5.5-8.3-10-6.6c-4.1,1.1-5.8,5.7-4.9,9.6c6.1,45.6,12.1,91.3,18.4,136.9h-95.4c-3.4-22.5-5.1-45.3-5.6-68
	c0.6-37.5,8.8-75,24.3-109.2c6.6-14.6,13.9-28.8,22.9-42.1c9.8-14.2,21.7-27,35.3-37.6C358.8,735.4,370,730,381.9,726.6z"/>
<path class="st1" d="M625.2,800.9c0.9-4.3,3.4-8.7,7.9-10c6.5-1.9,13.2,1,18.8,4.2c11.6,6.4,22,14.8,32.9,22.2
	c7.7,5.6,16.2,10.4,22.6,17.6c-3.1,11.1-4.3,22.6-4.6,34.1c-0.6,8.4-0.5,16.9,0.2,25.3c-17.4-2.3-33.9-9.1-48.7-18.5
	c-4.9-3.1-9.4-7.3-11.3-13c-5.6-14.8-11.4-29.6-17.7-44.1C623.6,813,623.9,806.8,625.2,800.9z"/>
</svg>
