<svg version="1.1" xmlns="http://www.w3.org/2000/svg" xmlns:xlink="http://www.w3.org/1999/xlink" x="0px" y="0px" viewBox="0 0 1000 1000" style="enable-background:new 0 0 1000 1000;" xml:space="preserve">
<style type="text/css">
	.st0{fill:#EDEDED;}
	.st1{fill:#FFD400;}
	.st2{fill:#000000;}
</style>
<path class="st2" d="M381.6,444.5c34.8-38.3,86.5-61.4,138.5-59.4c20.2,0.6,40.3,5.3,59.1,12.7c15.7,6.2,30.5,14.7,43.2,25.9
	c23.1,20.9,39,49.2,46.5,79.3c5,18.6,7,37.8,6.9,57c-0.3,23.7-3.6,47.5-11.9,69.7c-6.1,15.3-13.5,30.3-23.8,43.2
	c-9,11.3-19.2,21.8-31.6,29.4c-2.6,1.8-6.6,1.1-8-1.8c-1.7-2.7,0-6.1,2.5-7.6c7.5-5,14.5-10.8,20.4-17.7c1.2-1.3,1.9-2.9,2.4-4.5
	c-11.8,2.9-23.6,6.3-35.7,7.9c-28.5,4.5-57.3,6.4-86.1,5c-15.4-0.4-30.9-1.7-46.1-4.3c-2,6.3-5.8,12.3-11.6,15.8
	c-7.5,4.5-16.6,6.9-25.3,5.3c3.6,4.4-1.6,11.3-6.8,8.5c-9.9-5.3-18.6-12.7-26.6-20.6c-13-13.2-23.8-28.5-31.8-45.2
	c-8.2-17-12.8-35.6-15-54.3c-2.6-20.1-1.8-40.6,1.4-60.6C347.1,497.4,360.4,467.6,381.6,444.5 M495.5,397.8
	c-33.3,3.9-65.2,18.4-90.5,40.2c-5.9,5.5-12.5,11.1-14.9,19.1c-1.5,4.1-0.5,9.1,2.7,12.2c2.8,2.6,6.6,3.7,10.3,4.5
	c18.6,4.1,37.3,7.7,56.3,10.1c21.1,2.5,42.4,4.2,63.7,5c22.4,0.9,44.8,1.1,67.1-0.5c14.3-0.9,28.6-1.5,42.8-3.9
	c3.9-0.7,8.6-2.4,9.8-6.6c1.5-5.5-1.8-10.6-4.2-15.2c-8.9-16.3-21.9-30.3-37.4-40.6c-13.6-9-28.9-15.2-44.5-19.6
	C536.7,397,515.9,395.3,495.5,397.8 M384.4,662.1c1.1,6.7,6.6,11.4,10.5,16.6c-0.8-4.5-0.9-9-0.4-13.6
	C391.2,663.9,387.9,662.3,384.4,662.1z"/>
<path class="st2" d="M602.4,528.4c7.4-2.9,15.5,1.2,20,7.2c8.1,10.5,11,23.9,12.1,36.9c0.9,15.4-0.9,31.4-7.9,45.3c-3.6,6.9-9.4,13.9-17.6,14.9
	c-7.9,0.9-14.5-4.9-18.4-11.1c-7.6-12-9.8-26.6-10.2-40.5c0.2-13.9,2.3-28.2,9.3-40.4C592.5,535.5,596.7,530.6,602.4,528.4z"/>
<path class="st0" d="M423.2,630.2c0.7-1.8,1.9-3.5,3.5-4.7c2.8,3.4,4.2,7.6,6.2,11.5c4,7.9,9,15.3,12.4,23.5
	c2.6,6.2,3.2,13.7-0.1,19.8c-1.9,3.7-5.6,6.2-9.4,7.5c-7.8,2.7-17.1,2.4-23.9-2.7c-4.4-3.2-6.6-8.8-6.4-14.1
	c-0.2-7.4,3.6-14.1,7.2-20.4C416.6,644,420.2,637.2,423.2,630.2z"/>
<path class="st1" d="M369.1,487.1c2.7-3.2,7-4.5,11.1-4.1c7,0.7,13.9,2.5,20.8,3.9c23.8,5.3,47.9,8.7,72.1,11.8
	c25.3,2.3,50.7,4.2,76.1,4.1c20-0.5,40-0.4,59.9-2.5c11.4-1.2,22.8-2.5,34-4.3c3.4-0.5,7.5-0.9,10.1,1.9c3.3,3.6,4.4,8.5,5.5,13.1
	c6,30.7,7.8,62.7,1.2,93.4c-3.3,13.3-7.3,26.8-15,38.4c-4.7,7.1-13.1,10.3-20.8,13c-15.4,4.9-31.3,7.9-47.2,10.5
	c-24.1,3.8-48.5,3.8-72.8,3.3c-15.2-0.5-30.4-2-45.4-4.4c-2-10.8-8.3-19.8-13.8-29c4.8,2.9,10.8,3.9,15.9,1.5
	c9.3-4.2,14.6-13.9,18.1-23c6.9-19.2,7.9-40.4,4.1-60.4c-2.3-11.2-6.1-22.7-14-31.2c-5-5.4-13.3-8.6-20.4-5.4
	c-7.5,3.4-12.5,10.6-16,17.9c-5.9,12.9-8.2,27.3-8.4,41.4c-0.1,9.9,0.8,19.7,3.2,29.3c-7.6,1-9.9,9.3-12.6,15.2
	c-3.8,10.4-9.8,19.7-15.2,29.3c-11.4-4.5-23.3-9.3-32.1-18.2c-7.3-7.7-10.4-18.2-12.6-28.2c-4.2-20.5-4.7-41.7-2.5-62.5
	c1.3-11.9,3.7-23.7,7.4-35.1C362.1,499.9,364.3,492.7,369.1,487.1 M602.4,528.4c-5.7,2.2-9.9,7-12.7,12.2c-7,12.2-9.1,26.5-9.3,40.4
	c0.4,14,2.6,28.5,10.2,40.5c3.9,6.2,10.6,12,18.4,11.1c8.2-1,14-8,17.6-14.9c7-13.9,8.8-29.9,7.9-45.3c-1.1-12.9-4-26.4-12.1-36.9
	C617.9,529.6,609.8,525.5,602.4,528.4z"/>
</svg>
