<svg version="1.1" xmlns="http://www.w3.org/2000/svg" xmlns:xlink="http://www.w3.org/1999/xlink" x="0px" y="0px" viewBox="0 0 1000 1000" style="enable-background:new 0 0 1000 1000;" xml:space="preserve">
<style type="text/css">
	.st0{fill:#EDEDED;}
	.st1{fill:#FFD400;}
	.st2{fill:#FFFFFF;}
	.st3{fill:#FAFAFA;}
	.st4{fill:#000000;}
</style>
<path class="st0" d="M494.3,386.2c33.4-4.2,67.8,2.6,97.9,17.5c15.4,7.7,29.7,18,41.1,31.1c12.3,13.8,21.8,30,28.8,47.1
	c6.7,17.7,11,36.3,12.7,55.1c2.1,25.5,0.8,51.5-5.8,76.2c-3.5,14.5-9.7,28.2-16.7,41.3c-8.3,14.9-19.4,28.3-32.3,39.5
	c-4.2,3.3-8.2,6.9-13,9.1c-3.7,1.6-8.2-2.1-7.1-6c1-3.8,5.1-5,7.8-7.3c6.8-5.3,13.8-10.9,18.3-18.4c-1.8-0.5-3.5,0.2-5.2,0.6
	c-22.3,6.5-45.5,9.2-68.5,11.2c-27,1.8-54.2,1.3-81.1-1.8c-28.5-4.2-57-9.1-84.2-18.9c-0.6-0.1-1.9-0.2-2.5-0.2
	c0.1,3.5,2.5,6.3,4.3,9c8.1,11.2,19,19.9,30.1,27.9c1.9,1.1,2.8,3,3.5,5c-0.4,3.8-4.5,6.9-8.2,5c-9.9-5.4-18.6-12.8-26.6-20.6
	c-13.2-13.4-24.1-29-32.1-46c-8.1-17.1-12.6-35.7-14.8-54.4c-2.6-21.3-1.6-43,2.2-64.1c5.9-32.3,21.3-63,44.9-86
	C416.4,409.7,454.3,390.7,494.3,386.2 M506.5,396.8c-23.2,1.3-46.1,7.2-66.8,17.9c-15.6,7.9-30.3,18-42.4,30.6
	c-4.3,4.5-8.1,10.2-7.9,16.6c0.2,5.4,4.8,9.4,9.7,10.7c52.9,13,107.6,16.8,161.9,16.8c21-0.4,42.1-1.7,63-3.7
	c5.5-0.9,11.8-0.7,16.3-4.4c3.7-3.2,2.9-8.9,1-12.9c-7-14.7-17.1-27.9-29.5-38.3c-14.5-12.2-31.9-20.5-49.9-26.1
	C544.1,398.5,525.2,395.9,506.5,396.8"/>
<path class="st1" d="M374.3,483.6c4.9-1.5,10,0,14.9,0.8c16.5,3.6,33.1,7.1,49.8,9.5c14.8,2.1,29.6,4.6,44.6,5.7
	c25.1,1.9,50.2,3.8,75.4,2.9c19.7-0.3,39.4-0.7,58.9-3.2c8.4-1,16.8-2,25.1-3.4c3.4-0.5,7.5-0.9,10,1.9c3.7,4.1,4.7,9.8,5.9,15
	c3.9,21.5,6.2,43.4,4.4,65.2c-1,19-5.4,37.8-13.2,55.2c-3,5.9-6.2,12.3-11.9,16.1c-6.4,4.2-13.9,6.5-21.2,8.6
	c-17.9,4.8-36.1,8.3-54.5,10.2c-22.8,2.2-45.7,2-68.5,1.1c-20.9-1.3-41.6-4.5-62-8.9c-16.8-3.6-33.3-9-48.8-16.6
	c-7.4-3.8-14.6-8.6-19.4-15.6c-5-7.3-7.3-16-9.2-24.6c-3.5-17.3-4.2-35.1-3.1-52.6c1.2-18.8,5-37.6,12.2-55
	C366,491,368.9,485.5,374.3,483.6"/>
<path class="st4" d="M445.5,517.7c9.4-2.5,19.8,0.5,27.1,6.8c9.1,7.8,13.9,19.5,15.5,31.1c2.3,17.5-1.5,35.7-10.9,50.6
	c-5.6,8.7-13.4,16.3-23.1,20.1c-7.4,3-16,3.2-23.4,0c-9.8-4-16.8-12.9-20.5-22.5c-6-15.3-5.4-32.5-0.4-48
	C415.4,538.8,427.5,522.2,445.5,517.7"/>
<path class="st4" d="M607.4,533.5c6.7-2.5,14.5-1,20.5,2.5c8,4.8,13.3,13,16.3,21.6c5.2,15.1,4.3,32.4-3,46.7c-4.3,8.4-11.7,16-21.2,18.1
	c-8,2-16.5-0.8-22.5-6.1c-8.2-7.1-12.8-17.6-14.5-28.2c-2.1-13.2-0.3-27.2,6.4-38.9C593.4,542.3,599.6,536.2,607.4,533.5"/>
<path class="st2" d="M458.4,532.4c2.2-1.6,5.2-0.6,6.9,1.3c9.4,10.4,15,24.8,12.9,38.9c-0.6,3-1.1,6.2-2.9,8.8
	c-1.3,1.7-3.5,2-5.5,2.1c-1.8-1.3-3.9-2.9-3.6-5.4c0.6-3.7,2.1-7.3,2-11.1c0-9.6-4.2-18.9-10.4-26.1
	C455.5,538.7,455.3,534.1,458.4,532.4z"/>
<path class="st2" d="M617.5,544.5c2.5-0.8,4.9,0.7,6.8,2.2c9,6.8,13.5,18.4,12.8,29.5c-0.2,2.5-2.4,4.9-5.1,4.5
	c-3.4,0.1-5-3.7-4.6-6.6c0.1-8.2-3.7-16.5-10.7-20.9C613.2,551.3,613.6,545.5,617.5,544.5z"/>
<path class="st2" d="M626.2,590.2c2.5-1.5,6.1,0,6.8,2.8c1.6,3.8-3.3,8-6.8,5.8C622.8,597.2,622.8,591.7,626.2,590.2z"/>
<path class="st3" d="M461.2,592.2c3.6-2.1,8.4,2,7.1,5.9c-0.8,3.4-5.3,4.9-8,2.8C457.2,598.8,457.8,593.5,461.2,592.2z"/>
</svg>
