<svg version="1.1" xmlns="http://www.w3.org/2000/svg" xmlns:xlink="http://www.w3.org/1999/xlink" x="0px" y="0px" viewBox="0 0 1000 1000" style="enable-background:new 0 0 1000 1000;" xml:space="preserve">
<style type="text/css">
	.st0{fill:#000000;}
	.st1{fill:#EDEDED;}
</style>
<path class="st0" d="M492.3,315.7c-3.8-23.9-8-47.8-11.4-71.7c-2.7-17.2-15-31.3-28.9-40.9c-17.8-13-40.1-18.7-62-18.7
	c-23.9-0.3-47.6,7.7-66.8,21.8c-13,9.1-24.5,20.7-32.5,34.6c-10.1,17.5-15.9,38-13.8,58.3c1.7,20.6,12.7,39.5,27.6,53.5
	c14,13,32.6,20.7,51.5,22.6c14.3,1.5,28.9,1.2,43-1.6c2.6,4.6,4.6,9.6,7.4,14.1c2.6,3.1,7.2,1.6,10.6,1.5
	c21.3-2.5,41.4-12.4,57.3-26.8c8.5-8,16-17.8,19-29.2C495,327.3,493.1,321.4,492.3,315.7z"/>
<path class="st1" d="M313.3,234.2c24-27.6,63.1-41.9,99.1-34.4c17.4,3.6,33.8,12.8,44.8,26.9c4.9,6.1,8.5,13.3,9.8,21.1
	c4.5,25.3,8.3,50.7,12.5,76.1c0.7,3.7-1.3,7.2-2.5,10.7c-1.3-4.1-1.5-8.9-4.1-12.5c-2.9-3.2-8.2-0.1-7.7,3.9
	c0.7,6.8,3.6,13.1,4.5,19.8c-2.6,2.6-5.2,5.2-7.9,7.6c-1.5-4.9-2.7-9.9-4.4-14.7c-1-2.7-4.6-4.3-6.9-2.2c-2.4,1.7-2.4,5.1-1.5,7.6
	c1.6,5,2.8,10.2,4.5,15.2c-3.9,2.8-8.3,4.9-12.7,6.8c-1.6-4.7-3-9.4-4.5-14.1c-0.6-2-2-4.4-4.4-4.6c-3.6-0.7-6.2,3.5-5.2,6.7
	c1.5,5.2,3.2,10.3,4.9,15.4c-5.7,1.9-11.7,3.3-17.7,3.6c-4-8.6-8-17.1-12-25.7c-0.9-1.9-2.5-4-4.8-3.9c-3.2-0.2-5.3,3.4-4.6,6.3
	c0.8,3,2.5,5.7,3.7,8.6c-20.7,5.6-43.5,4.7-63.2-4.2c-13.4-6-25-15.9-32.5-28.5c-6.1-10.4-9.6-22.5-9.3-34.6
	C290.5,270.1,299.7,249.8,313.3,234.2 M442.4,246.4c-3.2,0.7-5.2,3.8-5.7,6.9c-1.7,11.4,2.6,23.4,9.9,32.1c2.6,2.8,6.5,5.4,10.5,3.9
	c4.5-2.2,5.2-7.9,5.1-12.3c-0.6-8.7-3.5-17.4-8.8-24.4C450.8,249.3,447.1,245.5,442.4,246.4 M397.1,266.1c-4.1,1.4-7.3,4.7-9.7,8.3
	c-8.4,13.9-7.5,33.1,2.3,46c3.6,4.6,9.4,7.9,15.4,7.2c6.6-0.8,11.7-6.2,14.5-11.9c4.9-10.4,5.1-22.7,1.2-33.4
	c-2.1-5.6-5.5-11.1-10.8-14.3C406.3,265.4,401.4,264.7,397.1,266.1 M436.1,290.1c-1.5,1.2-2.3,3.2-2.6,5.1c-0.9,8.6-2.1,17.4-0.8,26
	c0.5,3,2.4,7,6.1,6.6c4.4-0.2,6.1-5.3,10-6.7c2.1-0.9,4.7-1.6,5.2-4.2c1-4.2-1.4-8.3-3.1-12c-2.6-4.9-4.7-10.3-8.9-14
	C440.6,289.3,437.9,288.7,436.1,290.1z"/>
</svg>
