<svg version="1.1" xmlns="http://www.w3.org/2000/svg" xmlns:xlink="http://www.w3.org/1999/xlink" x="0px" y="0px" viewBox="0 0 1000 1000" style="enable-background:new 0 0 1000 1000;" xml:space="preserve">
<style type="text/css">
	.st0{fill:#000000;}
	.st1{fill:#FFFFFF;}
</style>
<path class="st0" d="M480.9,520.8c-1.5-1.7-0.2-4.7,2.1-4.7c16.4-0.8,32.8-1.6,49.1-2.3c2.5-13.1,0.1-28.5-10.3-37.7
	c-7.4-6.9-18.4-8.4-28-6.2c-12,2.8-22.4,10.3-30.4,19.5c-10.2,11.8-17,26.9-17.5,42.7c-0.2,9.4,2.2,19.3,8.5,26.6
	c5.3,6.2,13.5,9.9,21.7,9.9c11.6,0.3,22.6-5.1,31.4-12.4C498.6,544.3,489.6,532.6,480.9,520.8z"/>
<path class="st0" d="M671.5,584.8c10.8-0.6,21.6-1,32.3-1.5c1.7-9.5-0.2-20.7-8.2-27c-6.4-5.2-15.7-4.9-22.9-1.6
	c-11.5,5.2-19.9,15.9-24.2,27.6c-3.3,9.1-4.2,19.8,0.4,28.7c3.2,6.4,10,10.7,17.1,10.8c7.9,0.1,15.3-3.7,21.1-8.7
	c-6-7.7-12-15.4-18-23.2C667.3,588.1,668.9,584.8,671.5,584.8z"/>
<path class="st0" d="M625.5,644.7c-9.7-6.8-21.9-7.9-33.4-9.3c-12.9-1.5-25.5-5.3-36.9-11.6c-8.6-4.7-16.7-10.4-25.6-14.6
	c-8.4-4.1-18.3-4.8-27.3-2.7c-9.2,2.4-17.6,8.4-22,16.8c-5.7,10.4-4.7,23.8,1.8,33.6c6.7,11.3,18.3,18.5,29.8,24.2
	c17.8,8.7,37.4,13.4,57,15.5c13,1.4,26.2,2.6,39.2,0.5c10-1.5,20.3-6,26-14.7C641.7,670.1,637.2,652.7,625.5,644.7z"/>
<path class="st1" d="M489.2,628.9c3.3-6.8,10.7-10.4,17.8-11.9c9.3-1.4,18.9,1.2,26.7,6.2c6.9,4.1,13.3,9.1,20.4,12.8
	c10.5,5.3,21.8,9.6,33.6,10.7c10.2,1.3,21.1,0.8,30.2,6.2c5.6,3.4,8.2,10.2,7.3,16.5c-23.6,0-47.3-3-70-10
	C532,652.4,509.9,641.8,489.2,628.9z"/>
<path class="st1" d="M487.6,634.8c31.5,19.5,66.6,33.5,103.4,38.3c10.8,1.4,21.7,2.1,32.6,2.1c-3.6,7.3-11.5,10.9-19.2,12.1
	c-20.3,3.5-41.1,0.1-60.9-4.6c-17-4.3-34.1-11-47-23.3C490,653.2,486.2,643.8,487.6,634.8z"/>
</svg>
