<svg version="1.1" xmlns="http://www.w3.org/2000/svg" xmlns:xlink="http://www.w3.org/1999/xlink" x="0px" y="0px" viewBox="0 0 1000 1000" style="enable-background:new 0 0 1000 1000;" xml:space="preserve">
<style type="text/css">
	.st0{fill:#000000;}
	.st1{fill:%%ST1%%;}
	.st2{fill:%%ST2%%;}
</style>
<path class="st0" d="M427.6,289.4c-10.7-2-21.4-3.9-32-6.1c-7.1-1.6-14.4-3.3-20.5-7.5c-5.3-3.7-8.4-9.6-12.4-14.5
	c-6.3-7.7-13.2-15-21.7-20.3c-12.3-7.7-27-12.1-41.5-10.5c-17.8,2.4-34.9,11.7-45.4,26.5c-11.9,16.3-18.5,36.8-17.1,57
	c1.1,16,5.5,31.6,10.3,46.8c3.1,9.4,6.7,19,6.2,29.1c0,10.1-5.7,19.9-14.4,24.9c-15.1,8.5-35.9,4.5-46.7-9.1c-2.2-2.4-3.8-6-7.4-6.4
	c-4-0.2-7.1,3.6-7,7.5c-1,19.6,4.6,39.4,15.5,55.7c10.6,15.8,24.7,29.7,41.9,38.1c9.9,4.2,20,8.7,30.7,10.4c5.6,1,10.3-3.8,11.1-9
	c5-26.9,13.6-53,23.7-78.3c10.3-25.2,23.2-49.9,42-70c11.9-12.2,25-23.3,39.2-32.8c12.3-8.4,26.5-13.4,40.4-18.5
	c3.8-1.5,8.2-3,10.2-6.8C433.9,292.2,430.6,289.8,427.6,289.4z"/>
<path class="st0" d="M788,439.8c-8,1.3-15.8,4.3-24,4c-11.6,0-24.2-2.6-32.6-11.1c-5.4-5.5-6-13.8-4.9-21.1
	c2-11.7,6.3-22.9,9.8-34.2c6.4-20.5,11.3-42.1,9.1-63.7c-1-7.2-2.9-14.4-5.9-21.1c-12.1-26.2-41.2-43.8-70.1-41.1
	c-10,1-19.6,4.5-28.1,9.8c-15.8,9-28.1,22.6-40.2,35.8c-3.7,3.8-8.3,8-14,7.6c-6.2-0.5-12.5-2.5-18.8-1.3c-2.4,0.5-5.1,1.7-5.8,4.2
	c-0.8,2.4,0.9,4.7,2.8,6.1c3.6,2.7,8,4.1,12.2,5.8c25.7,11.1,50.7,24.6,72,43c14.2,12,26.6,26.3,35.2,42.8
	c10.9,20.4,17.3,43,21.4,65.7c2.5,13.9,3,28,3.2,42.1c0,4.8,1,13.2,7.5,12.6c37.3-9.9,69.7-40,78.7-78.1
	C796.5,443.3,792.4,438.9,788,439.8z"/>
<path class="st1" d="M300.4,245.4c10.2-1.2,21,0.9,29.6,6.6c8.5,5.7,15.4,13.3,21.6,21.4c2.4,3.5,5.3,7.1,6.2,11.4
	c-2.1,2.4-5.6,3-8.4,4.5c-12.1,6.2-23.2,15.1-30.2,26.8c-6.3,10.2-10.4,21.7-12.4,33.6c-1.5,8-1.5,16.2-2.7,24.2
	c-1.6,11.4-6,22.3-11.5,32.4c-12.2,25.1-21.2,51.9-26.9,79.2c-0.6,2.1-1.3,4.8-3.8,5.2c-5.3,0.9-10.6-0.6-15.8-1.9
	c-22.5-6.8-40.8-25-49.4-46.6c-1.5-4-3-8-3.3-12.2c0.6-2.1,2.6-1.2,3.9-0.4c25,14.2,60.1,0.7,70.9-25.6c4.3-10.5,4.1-22.5,1-33.3
	c-2.9-10.3-7.6-20-10.8-30.2c-4.3-12.9-6.6-26.9-4.1-40.4c3.1-15.3,9.7-30.1,20.7-41.4C281.6,251.8,290.5,246.5,300.4,245.4z"/>
<path class="st1" d="M667.4,267.5c19.9-3.5,41.8,5.2,53.1,22c6.1,9.7,8.9,21.1,9.5,32.5c0.7,13.4-2,26.7-5.4,39.6
	c-3.4,13.8-8.1,27.3-12.1,41c-0.8,2.6-2.6,6.7-6.1,5.1c-2.2-2.3-3.5-5.3-5.1-8c-4.7-8.4-9.7-16.7-15.8-24.2
	c-5.2-6.3-10.1-13-13.4-20.6c-4.3-10-7.4-20.6-13.2-29.8c-5.2-8.5-12-16.3-20.6-21.4c-3.8-2.4-8.2-3.5-12-6c-0.5-2.8,1.8-4.9,3.3-7
	C639.7,279.6,652.5,270.3,667.4,267.5z"/>
<path class="st1" d="M718.2,447.2c1.5-0.1,3,0.5,4.1,1.5c13.3,10.5,31.3,12.8,47.6,10.3c2-0.1,4.4-1.3,6.1,0.2c0,4-2.4,7.4-4.4,10.6
	c-10.2,15.1-24.8,26.9-41.1,34.9c-1.4,0.5-3.4,1.9-4.6,0.1c-1.1-2.8-1.1-5.9-1.4-8.9c-0.7-13.3-2.2-26.6-5-39.7
	C719,453.3,718.2,450.3,718.2,447.2z"/>
<path class="st2" d="M372.4,300.5c5.6-0.7,11.5-1.2,17,0.6c-1.6,1.6-3.7,2.6-5.7,3.7c-22.9,12.6-42.6,30.6-58.9,51
	c-0.7,0.9-1.7,1.6-2.6,2.4C322.3,330.2,344.8,304.5,372.4,300.5z"/>
<path class="st2" d="M607.4,311.5c20.6-3.3,42,12.3,45.8,32.6c-3.1-1.1-5.3-3.6-8-5.3c-11.8-8.1-23.9-15.8-36.6-22.4
	c-2.2-1.3-5.1-1.9-6.6-4.2C603.8,311.9,605.6,311.6,607.4,311.5z"/>
</svg>
