<svg version="1.1" xmlns="http://www.w3.org/2000/svg" xmlns:xlink="http://www.w3.org/1999/xlink" x="0px" y="0px" viewBox="0 0 1000 1000" style="enable-background:new 0 0 1000 1000;" xml:space="preserve">
<style type="text/css">
	.st0{fill:#000000;}
	.st1{fill:%%ST1%%;}
	.st2{fill:#00A900;}
</style>
<path class="st0" d="M756.2,475c-2.3-35.9-15-70.7-34.1-101.1c-15.3-23.7-33.6-45.6-54.6-64.4c-14.7-13.2-31.4-24.2-49.1-33
	c-30.8-15.5-65.3-24.6-99.9-22.9c-35.9,2.2-70.3,16.2-100.3,35.4c-6.3,3.9-12.3,9.4-20.1,9.7c-5-0.1-7.8-5.3-7.5-9.8
	c0.4-7.1,4.3-13.5,8.6-18.9c7-8.6,15.1-16.2,22.7-24.2c9.4-9.9,17.5-21.3,21.4-34.5c4-13.2,2.2-28-4.5-40
	c-5.6-10.3-12.6-19.8-20.7-28.4c-2.2-2.2-4.7-4.7-8-4.8c-2.4-0.2-4.4,1.6-5.2,3.7c-1.6,3.8-1.7,7.9-2.5,11.9
	c-1.7,11.4-7,22.2-14.8,30.8c-9.2,10.2-20.2,18.5-30.5,27.5c-14.2,12.1-27.6,25.5-37.1,41.8c-21.3-15.4-46.2-27.5-72.9-28.4
	c-4-0.1-9.5,0.3-11.1,4.7c-1.4,3.3,1,6.6,3.7,8.3c7.9,5.8,13.6,14.3,16.4,23.7c6.2,19.7,3.6,40.8,7,61c2,12.9,7.1,25.5,15.5,35.6
	c9.4,11.6,22.6,19.6,36.5,24.5c5.7,2.4,12.1,4.9,15.3,10.5c3,6.7,0.7,14.2-1.6,20.8c-9.7,31.3-16.5,63.8-16.9,96.6
	c-0.4,20.5,2.1,41.3,9.6,60.5c6.5,17.2,16.9,32.6,28.7,46.5c9.8,11.5,20.9,21.9,32.9,31c23.9,18.3,50.7,32.5,78.6,43.5
	c34.7,13.8,71.3,22.4,108.3,27.3c26,3.2,52.8,4.5,78.2-2.7c18.3-4.5,35.4-13.8,48.4-27.5c11.4-11.4,18.8-26.5,21.7-42.3
	c3.2-17.4,4-35.2,8.8-52.3c5.8-20.3,14.7-39.6,21.3-59.7C754.7,516,757.4,495.4,756.2,475z"/>
<path class="st1" d="M417,159.1c7.7,9.9,11.3,22.5,11.7,34.9c0.3,8.8-1.3,17.7-5.2,25.6c-4.4,9.1-11.3,16.5-18.3,23.6
	c-8.3,8.4-16.7,17-23,27.1C374.6,282,370.4,296,371,310c0.2,5.7,2,11.2,4.8,16.1c-2.5,3-4.9,6-7.3,9c-13.1-3.3-26.3-8.7-35.6-18.8
	c-8.9-9.8-11.5-24.2-8.5-36.9c3.4-14.5,12.4-26.9,22.5-37.5c11.7-12.4,26.1-21.9,38.8-33.2c8.6-7.5,16.5-15.9,22.3-25.7
	C412.3,175.6,416.2,167.7,417,159.1z"/>
<path class="st1" d="M264,241.9c14.5,5,29.1,10.4,41.6,19.4c4.5,3.2,8.6,7.9,8.8,13.7c0.3,9.2-1.2,18.6,1.1,27.7
	c3.8,15,15.3,27.2,29.4,33.3c5.6,2.8,12.4,3.7,16.5,8.8c-3.8,5.8-7.5,11.8-10.8,17.9c-1.2,3.1-4.9,3.5-7.6,4.5
	c-12.1,3.3-25.5,1.2-36.5-4.7c-15.5-8.7-25.8-24.9-29.8-41.9c-2.8-11-2.2-22.4-1.4-33.7C276.2,271.3,273.5,254.8,264,241.9z"/>
<path class="st1" d="M509.2,271.2c17.9-1.6,36.1-0.7,53.8,2.8c13.8,3.1,26.8,8.6,39.6,14.5c27.7,13.6,52.7,32.5,74.3,54.6
	c13.4,13.9,25.1,29.5,34.9,46.2c18.1,29.6,27.3,64.2,27.8,98.7c-0.4,19.6-4.4,39.1-10.8,57.6c-5.7,16.4-12.4,32.6-16.5,49.5
	c-2.1,8.6-3.7,17.3-4.9,26c-0.7,5.5-2,11-4.1,16.1c-1.6,4.1-6.1,6.1-10.2,6.4c-7.4,0.5-14.8-1-22-2.6c-13.4-3.1-26.1-8.9-37.7-16.4
	c-16.8-10.9-33.2-23.1-52.4-29.5c-22.3-8.1-46.4-8.1-69.9-8c-18.4,0.3-37.1-1-54.4-7.7c-27.7-10-49.4-31.3-67-54.1
	c-12.2-15.9-22.8-32.9-32.4-50.4c-5.5-10.6-11.3-21.3-14.1-33c-1.6-6.5-0.9-13.2,0.4-19.6c8.8-32.6,25.4-63,47.3-88.6
	c20.7-24.1,48-42.3,77.9-53C481.7,276,495.4,272.5,509.2,271.2"/>
<path class="st2" d="M334.5,466.5c1.3-0.8,2.8,0.4,3.7,1.2c3.3,3.3,5.2,7.6,7.6,11.5c15.8,27.6,33.2,54.6,55.4,77.6
	c11.3,11.8,24.6,21.7,39.5,28.4c18,8.1,37.7,11.5,57.3,12.5c19,1.2,38.2,0.1,57.2,2.8c18.4,2.6,35.5,10.3,51.2,20.1
	c14.4,8.6,27.6,19,42.8,26.1c10.5,5,22.2,7.5,33.8,7.8c4.1,0.2,8.9,0.2,11.9,3.4c2.8,3.1,1.3,7.8-0.7,11
	c-6.8,11-17.3,19.2-28.5,25.5c-17.8,10-38.4,13.9-58.7,14c-22.9-0.1-45.7-3.9-68-8.8c-30.4-6.8-60.8-15.3-89-28.8
	c-28-12.9-53.3-31.3-75.3-52.7c-14.1-14-26.9-29.6-35.5-47.5c-6.9-14.2-10.1-30-11.1-45.6c-0.8-17.2,1.1-34.3,3.3-51.3
	C331.9,471.2,331.9,467.9,334.5,466.5z"/>
<path class="st0" d="M493.3,373.2c1.4-0.9,3.1-0.9,4.7-0.6c16,2.8,31,10.5,42.7,21.6c18.5,17.6,28.9,42.1,33.7,66.8
	c0.8,3.4-3,6.7-6.2,5c-3.2-1.6-3-5.7-3.9-8.7c-4.4-19-12.3-37.6-25.5-52.1c-10.6-11.8-25-20.3-40.7-23.3c-2-0.5-4.3-0.6-5.7-2.3
	C490.6,377.8,491,374.5,493.3,373.2z"/>
<path class="st0" d="M676.4,485.6c7.1-0.6,14.4-0.3,21.2,1.7c2.3,0.7,5.2,2,5.3,4.8c0.4,2.7-2.2,5.2-4.8,4.7
	c-3.7-0.7-7.3-2-11.1-2.1c-15-0.8-30,2.8-43.6,8.7c-2.3,1-5.1,2.3-7.3,0.6c-2.8-2-1.9-6.6,1.2-7.8
	C649.5,490.3,662.9,486.8,676.4,485.6z"/>
</svg>
