<svg version="1.1" xmlns="http://www.w3.org/2000/svg" xmlns:xlink="http://www.w3.org/1999/xlink" x="0px" y="0px" viewBox="0 0 1000 1000" style="enable-background:new 0 0 1000 1000;" xml:space="preserve">
<style type="text/css">
	.st0{fill:#EDEDED;}
	.st1{fill:#FFD400;}
	.st2{fill:#000000;}
</style>
<path class="st0" d="M490,386.7c31.1-4.7,63.2,0.1,92.1,12.3c17.8,7.4,34.5,17.9,47.9,32c10.4,11,19.2,23.7,26,37.2
	c8.1,15.4,12.9,32.4,16.3,49.4c4.7,25.5,4.6,51.8,0.7,77.4c-2.6,15.8-6.9,31.5-13.9,46c-10.1,23-26,43.8-46.4,58.6
	c-2.9,2-6.5,5.1-10.2,3c-3.3-1.7-3.5-6.7-0.6-8.9c8.9-6.4,18.2-13.1,24.1-22.5c-1.8-0.5-3.5,0.2-5.2,0.6c-22,6.4-44.9,9.2-67.7,11.1
	c-25.6,1.9-51.4,1.3-77-1.1c-19.6-2.4-39.1-5.9-58.3-10.4c-9.4-2.3-18.9-4.8-28-8.2c-1.7-0.7-3.5-1.2-5.4-1.2
	c0.2,3.7,2.7,6.7,4.8,9.6c8,10.9,18.7,19.4,29.7,27.3c1.8,1.1,2.8,3,3.5,4.9c-0.4,3.8-4.4,6.9-8.1,5c-9.9-5.3-18.6-12.7-26.6-20.6
	c-13.2-13.4-24.1-29-32.1-46c-8.1-17.1-12.6-35.7-14.8-54.5c-2.5-21-1.6-42.4,2.1-63.3c5.7-32.1,20.8-62.8,44.1-85.9
	C414.5,411.2,451.1,392.2,490,386.7 M495.5,397.8c-33.3,3.9-65.1,18.4-90.5,40.2c-5.9,5.5-12.5,11-14.9,19
	c-1.6,4.3-0.5,9.7,3.2,12.7c2.8,2.3,6.3,3.3,9.8,4.1c21.4,4.7,43.1,8.8,64.9,11.1c23,2.4,46,4.1,69.1,4.4c24,1.1,48.1-0.4,72.1-2.1
	c8.4-0.7,16.8-1.2,25.1-2.9c3.7-0.8,7.9-3,8.5-7.1c1-5.5-2.4-10.5-4.8-15.2c-9-16.2-22.1-30.1-37.6-40.2
	c-13.5-8.8-28.6-15-44.2-19.3C536.6,397,515.8,395.3,495.5,397.8"/>
<path class="st1" d="M374.3,483.6c4.9-1.4,10,0,14.9,0.9c16.8,3.6,33.7,7.2,50.7,9.7c14.3,2,28.5,4.4,42.9,5.5
	c21.7,1.7,43.4,3.3,65.1,3.2c23.8-0.5,47.7-0.5,71.3-3.6c9.3-0.9,18.5-2.7,27.7-3.5c4.8-0.5,8.1,3.8,9.4,7.9
	c3.4,9.7,4.2,20.1,5.7,30.2c2.7,19,2.3,38.4,0,57.5c-1.6,12.2-4.9,24.1-9.2,35.6c-2.3,6-5.2,11.8-8.9,17
	c-4.6,6.2-12.1,9.1-19.2,11.7c-15.4,5-31.3,8-47.3,10.7c-24.3,3.9-49,3.9-73.5,3.5c-24.6-0.8-49.1-4.3-73.1-9.6
	c-15-3.3-29.7-8-43.6-14.4c-7.3-3.3-14.4-7.4-19.9-13.2c-5.9-6.2-9.1-14.4-11.2-22.5c-4-15.6-5.2-31.9-5.1-47.9
	c0.4-22.6,4-45.3,12.7-66.2C366,491,368.9,485.4,374.3,483.6"/>
<path class="st2" d="M421,516c3.4-4.4,10.1-5.6,14.9-2.9c3,1.6,5,4.6,6.2,7.7c3.7,9.4,7.5,18.7,11.2,28.1c5.2-7.7,10.3-15.5,15.4-23.2
	c2.6-4,7.3-6.9,12.2-6.3c5.7,0.5,10.5,5.7,10.6,11.5c0.2,3.7-1.7,7-3.7,9.9c-7.9,11.8-15.7,23.6-23.6,35.4
	c5.9,15.2,12.1,30.3,18.1,45.5c2.5,6-0.3,13.7-6.5,16.1c-6,2.7-13.5-0.8-15.9-6.8c-4.1-10-8-20.1-12.1-30.1
	c-5,7.4-9.8,14.8-14.9,22.2c-2.7,4.1-7.9,6.9-12.9,5.7c-4.7-0.9-8.7-4.9-9.4-9.7c-0.7-3.7,0.7-7.4,2.8-10.5
	c7.8-11.7,15.6-23.5,23.4-35.1c-5.8-14.9-11.9-29.8-17.7-44.7C417.5,524.6,418,519.5,421,516z"/>
<path class="st2" d="M586.1,532c4.6-3.5,11.9-1.8,14.8,3.2c3.3,6,5.8,12.4,8.8,18.5c2.4-5.6,4.9-11.1,7.5-16.6c1.6-3.5,4.9-6.5,8.9-6.8
	c4.6-0.6,9.2,2.4,10.6,6.8c1.2,3.1,0.4,6.5-1,9.4c-4.8,10.7-9.8,21.5-14.5,32.2c4.7,10.3,9.5,20.5,14.2,30.8
	c2.3,4.8,0.7,11.2-4,13.8c-4.9,3-11.7,0.8-14.3-4.2c-2.6-5-4.8-10.2-7.2-15.3c-3.6,7.7-6.9,15.6-10.7,23.3
	c-2.3,4.8-8.5,7.5-13.4,5.2c-5.2-2.1-7.7-8.7-5.4-13.8c5.8-13.3,12-26.4,17.9-39.7c-5-11.2-10.4-22.3-15.4-33.5
	C580.6,540.8,581.8,534.8,586.1,532z"/>
</svg>
