<svg version="1.1" xmlns="http://www.w3.org/2000/svg" xmlns:xlink="http://www.w3.org/1999/xlink" x="0px" y="0px" viewBox="0 0 1000 1000" style="enable-background:new 0 0 1000 1000;" xml:space="preserve">
<style type="text/css">
	.st0{fill:#00A900;}
	.st1{fill:#FF002C;}
	.st2{fill:#EDEDED;}
	.st3{fill:#000000;}
</style>
<path class="st3" d="M420.2,158c1.4-1.6,4-0.9,5.1,0.6c11.9,13,18.4,31.1,16.4,48.7c10.7-4.8,22.6-7.6,34.4-5.7c11.6,2.6,21.3,10.8,28.2,20.2
	c10.6,14.3,16.2,31.9,17.4,49.5c0.8,13.4-1.5,26.9-5.6,39.7c-3.9,11.6-11.9,22.6-23.4,27.5c-7.7,2.8-17.1,3.8-24.4-0.8
	c-3.4,5.5-7.3,11.3-13.5,13.9c-8.7,4-18.8,1.6-27.1-2.4c-4.4,4.8-7.1,11-12,15.4c-8.8,7.9-21.9,9.7-33,6.6
	c-15.3-4.2-29.4-13.1-38.8-26.1c-8.9-11.9-12.9-26.5-15.9-40.9c-2.6-13.5-4.3-27.9,0.4-41.1c6.1-16.1,20.4-27.7,36.1-33.8
	c12.5-5.1,26.3-6,39.6-4.6c-4.1-7.2-10-13.3-16.1-18.8c-7.3-6.5-16.3-10.9-25.2-14.9c-3.6-1.7-7.8-3.5-9.2-7.6
	c-1.5-3.8,1.1-8,4.8-9.2c7-2.6,14.9-0.7,21.1,3.1c9.2,5.7,15.7,14.7,21.7,23.5C404,185.5,409.3,169.8,420.2,158"/>
<path class="st0" d="M417.3,226.7c-3.8-15.7-4.3-34.4,6.8-47.4c4.5,7.4,5.2,16.5,4.1,25C427,212.7,423.9,221.2,417.3,226.7z"/>
<path class="st1" d="M460.5,219.6c10-1.7,20.4,2.4,27.2,9.8c8.3,8.9,12.2,20.8,14.5,32.4c2.5,15.4,2,31.7-4,46.2
	c-2.4,5.2-5.3,11-10.9,13.3c-5.5,1.9-11.2-0.3-16.1-2.6c-4.7-2.3-10.6-0.5-13.6,3.6c-3.5,4.7-5.9,11-11.7,13.5
	c-4.3,1.8-8.6-0.7-12.5-2.4c-4.4-2.1-10.1-2.2-14.2,0.7c-5.4,3.7-7.5,10.4-12.4,14.7c-4.9,4.6-12.2,6.2-18.7,4.7
	c-13.9-2.9-25.5-13.1-32.4-25.3c-6.2-11.1-10.1-23.6-11.7-36.2c-1.5-9.6,0-19.8,4.6-28.4c5.9-10.8,16.7-18.9,28.8-21
	c10.7-1.9,21.9-2.4,32.5,0.3c3,0.7,6.3,1.7,9.3,0.4c4.5-1.9,7.2-6.2,10.8-9.3C438.6,226.7,449.3,221.6,460.5,219.6"/>
<path class="st2" d="M372.4,280.5c5.9-2.2,12.3,0.4,16.8,4.3c8.8,8,13.6,20.4,12.2,32.2c-0.7,5.8-4.1,11.5-9.8,13.6
	c-5.7,2.2-12,0-16.5-3.7c-7.2-6-11.5-15-12.9-24.2C360.8,294.3,363.6,283.6,372.4,280.5z"/>
</svg>
