<svg version="1.1" xmlns="http://www.w3.org/2000/svg" xmlns:xlink="http://www.w3.org/1999/xlink" x="0px" y="0px" viewBox="0 0 1000 1000" style="enable-background:new 0 0 1000 1000;" xml:space="preserve">
<style type="text/css">
	.st0{fill:#000000;}
	.st1{fill:#FF3CAE;}
</style>
<path class="st0" d="M569.7,322.9c-1.4-11.7-8.7-21.3-14.5-31.1c-1-2-2.9-4.6-1.1-6.6c2.3-3.3,5.1-6.8,4.6-11.1
	c-0.9-6-6.1-10.1-7.5-16c-0.7-4.2,2-7.7,3.6-11.3c5.1-10.2,6.4-22.7,1.9-33.4c-5.2-13-17-23.1-30.7-26.3c-16.2-4-33.1,0.8-47.4,8.6
	c-19.9,11.3-35.3,29.1-47.4,48.3c-3.2-2-7-3.7-10.8-2.4c-4.8,1.5-7,6.7-8.4,11.1c-3-3-6.6-5.6-10.9-5.9c-5.6-0.5-10.7,2.6-14.4,6.5
	c-20.8-7.1-42.5-13.1-64.7-12.4c-16.5,0.4-33.4,5.2-46,16.1c-11.4,9.5-18.7,24.1-18.2,39.1c0.2,11.2,4.9,21.8,11.7,30.6
	c4.1,5.6,9.3,10.3,12.5,16.5c3,5.5-0.3,12,2.4,17.6c3.4,7.3,12.4,9.7,16.1,16.9c4.6,9.5,3.4,20.7,7.8,30.2
	c4.4,9.1,13.5,15.2,23.1,17.7c10,2.6,20.6,0.8,30-3c12.6-5.1,22.6-14.9,30.8-25.4c10.1-13.2,17-28.7,22.2-44.4
	c4,1.1,8.4,1.9,12.3,0.1c2.5-1.1,4.2-3.3,5.9-5.3c4.8,2.4,10.9,3.8,15.8,1c3.4-1.7,5.4-5.1,7-8.4c15.2,13.3,33.4,24,53.5,27.4
	c16.9,2.9,35.5-1.4,48-13.5C565.4,346.1,571.2,334.6,569.7,322.9z"/>
<path class="st1" d="M489.3,204.3c12.6-4.4,26.8-6.1,39.5-1.3c6.9,2.5,12.7,8.1,15,15.2c2.9,8.6,0.9,18-2.3,26.3
	c-2.4,6.9-5,14.7-1.6,21.7c1.6,4.5,6.3,8.8,4,13.9c-2.1,4.6-4.1,10-1.7,14.9c4.7,9.5,11.2,18.4,12.8,29.1c1.2,6.9-0.5,14.5-5.5,19.6
	c-7.8,8.2-19.6,11.1-30.5,11.1c-19.7-0.5-38.3-9.2-53.8-21c-4.9-3.6-8.8-9-9.2-15.3c9.2,0.3,19.1-1.1,26.4-7
	c2.3-1.6,2.4-5.5-0.3-6.7c-1.9-1-3.7,0.3-5.2,1.3c-6.2,4.3-14.1,5-21.5,4.6c-0.1-4.3-0.4-8.6-0.8-12.8c11.1-6.5,24.4-11.6,37.4-8.4
	c3.1,1,5.8-2.9,4-5.5c-1.9-2.4-5.3-2.6-8.1-3.1c-12.1-1-23.9,3.2-34.4,8.8c-0.4-2.3-0.9-4.6-1.3-6.9c15.6-14.9,38.1-24.4,59.7-19.6
	c2.6,1,5.7-1.1,5.4-4c-0.8-3.4-4.7-3.6-7.4-4.1c-21.4-3.4-43.2,5.2-59.3,19c-1.8-6.3-5-12.3-5-19c0.1-10.3,4.5-20.3,11.5-27.7
	C466.3,217.7,476.6,208.7,489.3,204.3z"/>
<path class="st1" d="M301.4,256.5c11-3.9,23-3.8,34.5-2.9c10.8,1.3,21.4,4.2,31.6,8.1c6.7,2.6,13.1,6.7,16.9,12.9
	c3.7,5.6,5.9,12.1,8.1,18.4c-15.8-6.6-33.6-9.2-50.4-5.5c-4.7,1.1-9.4,2.5-13.4,5.2c-2.2,1.4-2.1,5.2,0.4,6.3c1.4,1,3.1,0.2,4.5-0.4
	c10.9-5.4,23.6-5.8,35.5-4.2c9.2,1.3,18.3,4.1,26.4,8.8c0.4,1.2,0.7,2.5,1.1,3.8c-16.4-2-34,0.6-48,9.8c-2,1.5-5.1,3.2-4.5,6.2
	c0.2,2.7,3.9,3.8,5.9,2.1c13.7-10.4,32-12.7,48.6-10c0.6,2.8,1.2,5.6,1.8,8.5c-6.4,5.2-15.4,7.1-23.4,5c-1.8-0.6-4.2-0.2-4.9,1.7
	c-1.5,2.4,0.8,5.1,3.2,5.7c8.8,2.7,18.5,0.6,26.4-3.8c1.7,10.1,0.1,20.5-3.9,29.8c-5.2,15.6-15.6,29.5-29.4,38.6
	c-8.3,5.4-18.4,8.6-28.3,7.9c-7.4-0.8-15.6-4.2-18.7-11.5c-3.7-8.7-2.8-18.9-8.1-27c-2.5-4.4-6.8-7.2-10.1-10.9
	c-3.1-3.5-2.4-8.5-2.8-12.8c-0.1-4.4-1.2-8.9-3.8-12.6c-4.9-7.3-11.6-13.2-16-20.9c-5.7-9.1-7.9-20.5-4.6-30.9
	C279.5,269.7,289.6,260.3,301.4,256.5z"/>
<path class="st1" d="M425.4,254.4c2.5-1.9,6-1,8.2,0.9c4.1,3.5,6.3,8.8,8.1,13.8c5.8,17.6,8.2,36.3,6.6,54.8
	c-0.7,4.2-0.8,9.1-4,12.3c-4,2.7-9.2,0.3-11.8-3.2c1.4-14.6-1.3-29.4-6.2-43.2c-1-2.2-1.5-5.3-4.2-6c-2.6-0.5-4.5,2.5-3.4,4.8
	c4.8,12.2,7.6,25.3,7.4,38.5c-0.4,4.6-0.4,9.8-3.5,13.6c-2.7,3.5-9.2,3.1-11-1.1c-3.4-8.8-3.1-18.4-5-27.6
	c-2.8-13.8-7.8-27.1-13.4-40c-1.2-3-2.4-6.5-1-9.6c1.1-2.6,4.2-3.5,6.7-3.7c5.3,0,10.3,2.9,13.2,7.3c1.1,1.2,1.9,3.2,3.9,3.1
	c2.3,0.3,3.9-1.9,4.2-4C421,261.1,422.2,257,425.4,254.4z"/>
</svg>
