<svg version="1.1" xmlns="http://www.w3.org/2000/svg" xmlns:xlink="http://www.w3.org/1999/xlink" x="0px" y="0px" viewBox="0 0 1000 1000" style="enable-background:new 0 0 1000 1000;" xml:space="preserve">
<style type="text/css">
	.st0{fill:%%ST0%%;}
	.st1{fill:#000000;}
</style>
<path class="st1s" d="M561.8,847.8c24.8-16.3,47.9-35.1,68.7-56.3c8.8-9.3,17.5-18.7,24.9-29.1c2.5-3,2.8-7.8-0.6-10.2
	c-12.2-10.2-26.1-18-40.5-24.6c-3.9-1.5-7.7-3.8-12-4.2c-2.5,1.6-3.5,4.6-5,7C580.6,758,559,782.5,535,804.1
	c-3.8,3.2-7.3,6.8-11.5,9.3c-2.4,1.2-4.6-1.3-6.3-2.6c-15.9-14.5-32.3-28.5-49.3-41.8c-14.7-10.9-28.6-22.8-43.6-33.3
	c-3.8-2.5-7.2-5.9-11.5-7.4c-2.7-0.1-5.3,0.7-7.9,1.3c-29.2,6.5-58.1,14.5-86.1,25.2c-4,1.6-8.5,2.4-11.8,5.3
	c-1.7,1.8-0.2,4.5,1.9,5c50.8,19.7,98.2,47.7,142.2,79.6c25.3,18.4,49.4,38.4,72.3,59.7c31.1,28.9,58,62.1,84,95.5h25.3
	c-0.4-19.8-0.5-39.6-1.3-59.3c0.1-7.2-5.7-12.1-9.8-17.3c-18.3-22.6-37.3-44.6-57.6-65.4c-1.8-1.9-3.9-3.7-5.1-6
	C558.6,850,560.5,848.8,561.8,847.8z"/>
<path class="st0" d="M606.4,739.2l0.7-0.3c12.7,3.8,24.5,10.4,35.1,18.4c-6.6,10.9-15.8,20.1-24.6,29.2
		c-19.6,19.3-41.2,36.7-64.4,51.7c-1.7,0.9-3.3,2.5-5.3,2.4c-3.5-2.7-6.3-6.1-9.4-9.1c-2.2-2.4-5.1-4.5-6.4-7.6
		c8.3-8,17.4-15.1,25.4-23.5C575.9,781.9,593.2,761.9,606.4,739.2z"/>
<path class="st0" d="M337.7,762.5c23.2-9.9,48.2-14.2,72.9-18.2c53,35.1,100.9,77.4,144.6,123.4c17.8,18.9,34.9,38.5,51,58.9
		c4.4,5.9,9.3,11.5,13.3,17.6c1.4,16.3,1.5,32.8,1.7,49.2c-28.7-37.5-60.7-72.3-95.6-104.1c-55.7-50.6-118.3-93.9-186.7-125.5
		C338.7,763.5,338.1,762.8,337.7,762.5z"/>
</svg>
