<svg version="1.1" xmlns="http://www.w3.org/2000/svg" xmlns:xlink="http://www.w3.org/1999/xlink" x="0px" y="0px" viewBox="0 0 1000 1000" style="enable-background:new 0 0 1000 1000;" xml:space="preserve">
<style type="text/css">
	.st0{fill:#000000;}
	.st1{fill:%%ST1%%;}
	.st2{fill:%%ST2%%;}
</style>
<path class="st0" d="M421.9,344.3c-3.6,0-6.5,2.4-9.7,3.8c-9.4-17-18.5-34.4-24.6-52.9c-11.3-33.7-17.3-68.8-25.4-103.3
	c-4.9-20.9-8.4-42.8-19.7-61.5c-5-8.3-13.4-15.7-23.6-15.7c-9.6-0.2-17.8,5.6-25.2,11.1c-13.3,10.2-25.5,21.8-37.1,34
	c-20,21.1-36.3,45.4-49.9,71c-17.3,33-29.4,68.5-37,104.9c-4.2,20.1-6.1,40.8-6,61.4c0.3,22.7,4.4,45.3,11.2,66.9
	c5.3,17,12.1,33.6,15.9,51.1c3.4,14.1,4.5,28.8,9.4,42.6c4.1,10.9,13.3,21,25.4,22.4c15,1.8,29.4-5.4,41.1-14.2
	c13.3-10.3,24.2-23.5,33.3-37.7c20.5-32.7,29.2-71.8,28.9-110.2c0.4-19.6-1.8-39.1-5.2-58.4c12.1,11.3,25.3,21.7,40.6,28.2
	c-1.8,2.9-4.3,5.7-4.9,9.2c-0.6,4.2,4,8,8,6.6c3.9-1.2,5.1-5.6,7.5-8.5c11.4-15.7,27.5-27.5,44.6-36.4c2.9-1.6,6.6-2.6,7.8-6
	C429,348.9,425.9,344.3,421.9,344.3z"/>
<path class="st0" d="M855.5,201.2c-2.3-13-7.7-26.1-17.5-35.3c-5.7-5.3-13.9-8.2-21.6-6.4c-9.5,2.5-17.1,9.3-24.4,15.5
	c-15.6,14-30.4,28.9-46.6,42.3c-23.4,19.5-48.2,37.6-68.8,60.2c-11.5,12.9-23.1,25.8-32.7,40.2c-2.8,3.8-5.1,8.3-9.4,10.7
	c-5.1,1.2-9.6-3.2-14.7-2.8c-2.6,0.2-4.8,2.6-4.5,5.2c0.5,2.9,2.6,5,4.6,6.9c5.7,5.1,12.3,9,18.3,13.9c14,10.8,26.9,23.2,37.5,37.3
	c7.8,10,14.4,21.1,18.7,33.1c4.7,12.4,6.1,25.8,9.6,38.6c0.8,3.1,2.2,6.4,5.4,7.7c3.4,2,8.7,1.3,10.2-2.6c1.5-5-0.2-10.4,1.6-15.3
	c3.4-10.9,13.2-17.7,21.7-24.4c12.6-9.6,25.2-19.2,36.5-30.4c14.1-13.8,26.1-29.5,37.4-45.6c19-27.5,30.5-59.5,37.2-92.1
	C857.7,239.3,858.8,220,855.5,201.2z"/>
<path class="st1" d="M295.3,144.3c5.4-4.5,11.7-8,18.7-8.8c4.4-0.5,9.1,1.2,12,4.5c3.4,3.9,5.4,8.8,7.3,13.5
	c4,11.1,6.6,22.6,9.3,34.1c7.6,32.5,15,65.2,26.3,96.6c8.5,24.4,19,48.1,32,70.4c-10.1,6.4-19.5,13.9-27.8,22.6
	c-9.7-3.2-18.3-8.9-26.4-15c-12.4-9.6-23.5-20.7-32.7-33.4c-0.9-1.1-1.2-2.6-1.5-3.9c-1.1-5.2-2.4-10.4-3.5-15.7
	c14.9,19.9,33.6,36.8,54.5,50.2c2.7,1.4,5.4,4.1,8.6,3.1c3.3-1.3,3.2-5.4,2.8-8.3c-2.5-14-7.6-27.5-13.6-40.4
	c-7.4-16-16.3-31.2-26.6-45.5c-6.8-9.4-14.2-18.3-22.7-26.1c-1.4-1.3-2.9-2.6-3.9-4.3c1.9-6.6,5.9-12.4,10.5-17.4
	c2.1-2.1,3.7-5.3,2.4-8.2c-1.4-4-7-5.2-10-2.3c-11.6,10.9-17.9,26.4-20.1,41.9c-2.4,19.3,1.3,38.6,4.8,57.5
	c6,34.4,13.5,68.6,15,103.6c1,14.2-0.4,28.5-3.2,42.5c-3.9,19.2-9.4,38.2-18.8,55.5c-8.3,15.5-19.6,29.8-34.4,39.4
	c-6.4,4.2-13.6,7.9-21.4,8.2c-4.9,0.3-10.1-1.6-13.2-5.5c-3.1-4-4.4-8.9-5.6-13.7c-3-12.9-4.1-26.1-7.6-38.9
	c-4-14.4-8.7-28.7-13.3-42.9c-4.9-16.2-8.7-32.8-10.8-49.6c-3-20.7-0.4-41.6,3.3-62c5.5-32.5,14.5-64.6,28.7-94.5
	c13.5-28.6,30.1-56,51.7-79.3C275.3,162.3,284.8,152.8,295.3,144.3z"/>
<path class="st1" d="M812.1,178.1c4-2.6,9.2-4.1,13.6-1.8c5.5,2.8,8.5,8.6,11,14.1c4.2,9.9,5.8,20.8,5.8,31.6
	c0.7,23-4.9,45.6-12.2,67.2c-5.5,16.9-14.3,32.5-23.5,47.6c-15.2,23.8-33.5,45.8-55.8,63.3c-12.2,9.6-25.4,17.8-38.9,25.4
	c-2-6.4-4.5-12.8-7.4-18.9c15.7-10.5,30.7-22.3,43.4-36.4c22-24.5,38.5-54,47.5-85.8c4.4-14.6,5.7-30.4,14.2-43.4
	c5-8.2,9.9-16.5,14-25.2c1.8-2.9-0.3-7.3-3.8-7.1c-2.8,0-4.2,2.8-5.2,5c-8.4,17.2-21.5,31.7-35.9,44.1c-13.7,11.7-28,22.7-41.4,34.7
	c-23.8,20.6-45,44.4-61.6,71.1c-7.2-7.5-15.2-14.2-23.6-20.3c8-16.1,17.3-31.5,28.8-45.3c20-24.7,45.9-43.5,69.9-64
	c13.3-11.7,26.2-23.8,38.6-36.4C796.7,190.7,803.7,183.4,812.1,178.1z"/>
<path class="st2" d="M304.4,249.3c9.2,7.9,17,17.4,24.1,27.2c10.1,14,19,29,26.2,44.8c4.1,9,7.7,18.3,9.9,28
	c-12.4-8.3-23.8-18-34.1-28.8c-8.4-8.8-16.2-18.2-22.2-28.8c-1.6-3.1-3.5-6.2-4-9.7C302.9,271.2,302.3,260.1,304.4,249.3z"/>
<path class="st2" d="M779.4,269.4c2.3-1.7,4.7-3.9,7.7-4c2.2,1.1,1.7,3.8,1.5,5.8c-1.3,12.2-5.8,23.8-10.4,35.1
	c-13.3,31.4-34.2,59.8-61.4,80.5c-5.2,4.1-10.6,7.9-16.1,11.6c-5.4-9.8-11.6-19.1-18.6-27.8c16.5-26.8,37.5-50.7,61.3-71.3
	C755.1,289,767.3,279.3,779.4,269.4z"/>
</svg>
