<svg version="1.1" xmlns="http://www.w3.org/2000/svg" xmlns:xlink="http://www.w3.org/1999/xlink" x="0px" y="0px" viewBox="0 0 1000 1000" style="enable-background:new 0 0 1000 1000;" xml:space="preserve">
<style type="text/css">
	.st0{fill:#000000;}
	.st1{fill:#FFD400;}
</style>
<path class="st0" d="M527.1,325c-2.2-6.1-6-11.5-8.9-17.3c-12-24.1-21.9-49.1-31.8-74.1c-6.9-17.7-13.7-35.5-19.3-53.7
	c-4.2-13.7-6.8-27.9-10-41.8c-0.8-2.9-1.5-6.3-4.3-7.9c-2-1.2-4.3-0.5-6.4-0.1c-14.9,4.9-29.8,10.3-43.9,17.3
	c-16.7,7.6-33.1,15.9-49.1,24.9c-26.4,15-52.3,31.2-76.3,49.8c-3.4,2.9-7.2,5.4-9.8,9.1c-1.5,2-0.9,4.6-0.1,6.8
	c8.4,25.3,17.7,50.3,27.9,74.9c13.5,32,29.3,63,47.5,92.5c1.5,3,5.2,5.6,8.4,3.3c34.2-19.3,69.8-36.2,105.7-52.1
	c16.2-6.9,32.3-14,49.3-18.7c5.8-1.9,12-2.9,17.6-5.4C526.4,331.4,528.2,328,527.1,325z"/>
<path class="st1" d="M362.1,219.1c23.3-26.1,50.9-48.2,80.8-66.2c2.3,14.2,7.3,27.8,12,41.3c12.7,35.3,26.6,70.2,41.2,104.7
	c3.3,7.6,6.5,15.2,10.2,22.6c-20.5,6.1-40.2,14.5-59.6,23.3c-32,14.7-63.6,30.4-95.5,45.5c-11.9-16.7-21.1-35.2-29.8-53.7
	c-11.6-25.5-22.3-51.4-31.2-77.9c-0.9-2.6-1.8-5.9,0.3-8.1c2-2.5,5.6-2.5,8.4-1.3c6.9,2.8,13.2,7.2,18.6,12.3
	c2.5,2.4,4.8,5.9,8.6,5.6c4.4-0.6,5.6-5.4,7.4-8.7C341.3,244.1,351.3,231.2,362.1,219.1"/>
<path class="st1" d="M329,206c26.2-17.1,53.6-32.6,82.3-45c-26.5,19.2-50.9,41.5-70.8,67.5c-5.9,7.9-11.6,16-16.3,24.7
	c-9.7-8.7-21.3-15.5-34.1-18.4C302.1,224,315.5,214.9,329,206z"/>
<path class="st0" d="M431.8,241c-0.4-2,0.1-4.8,2.4-5.6c2.1-0.9,3.8,0.9,5.1,2.2c7.4,7.3,15,14.4,22.5,21.6c3.6,2.3,0.1,8.2-3.5,5.6
	c-2.5-1.9-4.5-4.2-6.8-6.3c-3.4,1.6-6.8,3.1-10.1,4.7c0.1,3,1.5,6.3-0.1,9.1c-1.6,2.3-5.4,1.1-5.7-1.6
	C434,260.8,433.1,250.9,431.8,241 M439.4,246.9c0.3,3.1,0.7,6.2,1.1,9.3c1.9-0.9,3.9-1.8,5.8-2.7C444,251.3,441.7,249.1,439.4,246.9
	z"/>
<path class="st0" d="M398.2,251.2c5-2.3,9.9-4.9,14.9-7.1c2.3-1.1,5.2,1.2,4.5,3.8c-1.2,9.7-2.4,19.5-3.6,29.2
	c4.1-1.9,8.2-4,12.4-5.7c2.2-1,5,1.1,4.4,3.5c-0.2,2.2-2.6,2.8-4.2,3.7c-4.8,2.2-9.5,4.6-14.4,6.6c-2.3,1.4-5.8-0.5-5.5-3.2
	c0.9-9.7,2.4-19.4,3.5-29.1c-4.2,1.9-8.2,4.2-12.5,5.8c-2.2,0.8-4.6-1.5-4.1-3.7C394.2,252.8,396.5,252.1,398.2,251.2z"/>
<path class="st0" d="M386.5,258.5c2.2-1.1,4.6,1,4.5,3.3c-0.9,9.4-2.2,18.8-3.2,28.2c3.8-1.8,7.4-4,11.3-5.7
	c1.9-0.9,4.5,0.4,4.6,2.5c0.4,2.2-1.8,3.4-3.4,4.3c-5.2,2.6-10.3,5.4-15.5,7.9c-2.2,1.2-5.2-1-4.5-3.5c1.3-9.4,2.3-18.9,3.4-28.3
	c-3.9,1.8-7.7,4.1-11.8,5.7c-2.3,1-4.9-1.7-4.1-3.9c0.5-1.8,2.4-2.4,3.9-3.3C376.6,263.4,381.5,260.9,386.5,258.5z"/>
<path class="st0" d="M359.3,270.2c1.9-1.3,4.3,0.2,5,2.2c4.1,9,8.1,18,12.1,27c1.2,2,0,4.9-2.4,5.1c-2.2,0.2-3.4-1.8-4.1-3.5
	c-3.9-8.8-7.9-17.5-11.7-26.3C357.2,273.3,357.7,271.1,359.3,270.2z"/>
<path class="st0" d="M330,283c5.3-3.6,11.5-6.5,18.1-5.6c8.3,0.3,13.7,11,9.3,17.9c-2.8,4.5-7.7,6.8-12.3,8.9
	c1.5,3.3,3.3,6.5,4.4,9.9c0.3,3.5-4.8,4.9-6.2,1.7c-4.4-8.7-8.4-17.7-12.6-26.5C329.7,287.4,328.3,285,330,283 M336.8,286.7
	c1.8,3.8,3.6,7.6,5.4,11.5c3.1-1.4,6.4-2.8,8.7-5.3c2.4-2.3,1.2-6.7-1.4-8.3C345.1,283.1,340.5,284.6,336.8,286.7z"/>
</svg>
