<svg version="1.1" xmlns="http://www.w3.org/2000/svg" xmlns:xlink="http://www.w3.org/1999/xlink" x="0px" y="0px" viewBox="0 0 1000 1000" style="enable-background:new 0 0 1000 1000;" xml:space="preserve">
<style type="text/css">
	.st0{fill:#FFD400;}
</style>
<path class="st0" d="M439.5,84.8c25.5-2.4,51.3-0.3,76.4,4.7c23.6,4.9,46.6,12.4,68.1,23.4c15.3,7.9,29.9,17.7,41.7,30.4
		c9.5,10.1,17,22.6,19.3,36.4c2.8,14.9-2.6,30.5-12.5,41.6c-10.2,11.4-24.2,18.6-38.6,23.2c-21.2,6.7-43.7,8.3-65.8,7.4
		c-24-1.1-47.9-5.2-70.9-12.2c-24.6-7.6-48.5-18.2-69-34c-14.1-11.1-26.9-25.2-32-42.8c-3.9-12.8-2.5-27.2,4.2-38.8
		C368,110.4,381.7,101,396,95C409.8,89.3,424.6,86.3,439.5,84.8 M454.2,125.2c-13.5,0.5-27.2,2.2-39.9,7
		c-6.1,2.4-12.3,5.3-16.6,10.4c-2.2,2.4-3,5.8-1.9,8.9c2.2,6.9,7.3,12.4,12.5,17.3c12.2,11,27,18.7,42,25
		c22.8,9.2,47.1,14.7,71.6,16.7c20.1,1.3,40.7,0.8,60-5.3c7.4-2.6,15.2-5.8,20.2-12.1c2.9-3.5,2-8.5,0-12.2
		c-4.4-8.3-11.6-14.5-19-20c-15.9-11.5-34.1-19.3-52.8-25C505.7,128.4,480,124.5,454.2,125.2z"/>
</svg>
