<svg version="1.1" xmlns="http://www.w3.org/2000/svg" xmlns:xlink="http://www.w3.org/1999/xlink" x="0px" y="0px" viewBox="0 0 1000 1000" style="enable-background:new 0 0 1000 1000;" xml:space="preserve">
<style type="text/css">
	.st0{fill:%%ST0%%;}
	.st1{fill:#000000;}
</style>
<path class="st1" d="M453.2,366.4c26-7,53.5-8.2,79.9-3.4c30.1,5.8,59.2,17.3,84.8,34.2c12.3,8.3,23.5,18.8,31.2,31.6
	c10.4,17,15.8,36.6,18.7,56.2c3.1,20.1,1.8,40.6-0.5,60.8c-2.5,20.4-6.5,40.8-15.2,59.5c-2.9,6-6.1,12.1-10.8,16.9
	C636,628,629.8,633,623,637.1c-7.2,4.8-15,8.8-21.3,14.7c-5.2,4.8-7.8,11.5-9.8,18c-3.2,11.4-5.3,23.4-11.3,33.8
	c-2.3,3.9-6.5,7.6-11.3,6.8c-5.2-1.5-8.9-6.1-11.2-10.8c-2.2-3.8-3.1-8.9-7.3-11c-5.1,6-6.8,14.7-13.5,19.6c-3.5,3-9.2,3-12.3-0.5
	c-6.4-7.2-7-17.3-11.4-25.5c-1.4-2.5-4.6-1.4-5.8,0.6c-6.1,8.7-9,19.6-17.4,26.6c-5,4.3-13.4,5-18-0.1c-6.3-7.2-9.2-16.6-12.8-25.3
	c-1.1-2.1-2.1-4.6-4.3-5.7c-2.5-0.5-4.1,2.2-5.3,3.9c-5.8,9.5-9,20.9-17.7,28.3c-4.8,4.3-12.3,5.1-17.8,1.6
	c-4.1-2.2-6.6-6.5-8.2-10.8c-3.2-8.5-4.9-17.5-8.1-26c-3.9-10.4-11.8-18.8-20.9-25c-12.4-8.7-27.1-15-36.1-27.8
	c-9.6-13.1-11.8-29.8-12-45.6c-0.5-24.2,3.2-48.3,8.2-72c7.2-31.2,18.7-62.2,39-87.4C396.3,393.5,422.9,374.6,453.2,366.4"/>
<path class="st0" d="M652.1,479.8c-3.9-19.6-11.1-39.2-24.3-54.5c-19.1-22.2-45.9-36.5-73.7-44.5c-22.2-6.5-45.6-8.6-68.5-6
	c-18.5,2-36.9,6-53.9,13.7c-14.9,6.7-28.4,16.5-39.4,28.6c-10.6,11.7-18.7,25.4-25.3,39.7c-8.6,18.5-14.2,38.3-18.4,58.3
	c-4.5,21.4-7.5,43.2-6.2,65.1c0.4,11,2.8,22.4,9.3,31.5c6.1,8.5,14.9,14.8,23.7,20.3c11.2,7,23.4,13.9,30,25.9
	c6.4,10.6,7.2,23.3,11,34.9c1,2.9,2.5,6.5,6,7c4.2,0.1,6.5-4,8.3-7.2c4.8-9.2,8-19.4,14.6-27.5c2.8-3.4,7.3-6.2,11.8-4.9
	c4.7,1.6,7.9,5.8,10,10.1c3.5,7.6,5.4,15.8,8.5,23.6c1.1,2.6,2.7,5.6,5.7,6.3c3.5,0.3,5.8-3,7.7-5.5c5.3-8.5,8.7-18.1,14.9-25.9
	c2.1-2.6,4.9-5,8.3-5.7c4-0.8,7.9,2,9.7,5.5c3.7,6.8,4.8,14.5,7.2,21.8c0.6,1.9,1.8,4.3,4.2,4.3c2.4-0.4,3.8-2.6,5-4.4
	c3.9-6.5,6.9-13.5,11.7-19.4c2.8-3.5,6.8-6,11.3-6.8c2-0.5,4,1.2,3.9,3.2c-0.3,3.8-6,4-5.8,8c0.3,3.1,1.9,6,2.9,9
	c1.4,3.3,2.8,7.2,6.2,8.9c3,0.9,5.4-1.8,6.5-4.3c2.5-5.6,3.4-11.7,5-17.6c2.6-9.8,6.2-19.6,12.9-27.3c4.3-5.2,10.2-8.7,16-12
	c8.6-5.1,17.4-10.3,24.1-17.8c6.3-7,10.4-15.6,13.4-24.4c6.7-20.7,9.2-42.6,9.7-64.3C655.8,509.9,654.9,494.7,652.1,479.8z"/>
<path class="st1" d="M455.5,453.6c11.2-2.2,23.1,1.7,31.5,9.2c9,8,14.5,19.3,17.1,30.9c4.6,20.8,0.8,43.1-9.9,61.5
	c-7.3,12.4-18.5,23.2-32.6,27.1c-9.7,2.8-20.4,1.2-28.9-4c-10.5-6.3-17.6-17.1-21.4-28.5c-6.5-19.7-4.5-41.7,3.9-60.6
	C422.7,472.5,436.8,457.1,455.5,453.6"/>
<path class="st1" d="M591.4,483.6c7.4-1.8,15.4,1,20.7,6.3c7.9,7.6,11.5,18.6,13.1,29.2c2,15.9-0.2,32.7-8.2,46.7c-4.4,7.7-11.1,14.8-20,16.8
	c-7.8,2-16-1.7-21.3-7.4c-7.5-8.2-10.9-19.3-12.2-30.1c-1.5-16,1.1-32.9,9.7-46.7C577.5,491.6,583.7,485.8,591.4,483.6"/>
<path class="st1" d="M524.5,573.8c3.5-1.8,7.9-0.5,10.1,2.6c3.9,5.2,4.8,11.9,6,18.1c1.5,9.2,4.2,18.1,5,27.4c0.4,4.2-0.1,8.7-2.5,12.3
	c-2.1,3.2-6.5,4.9-10.1,3.5c-4.8-1.3-7.8-6.4-13-6.7c-6.9-0.3-13.2,3.6-20.1,3.8c-4.5,0.1-9.2-2.6-10.7-7
	c-1.9-5.3,0.5-10.9,3.2-15.5c6-9.8,13.2-18.8,20.2-27.9C516,580.4,519.6,576,524.5,573.8"/>
<path class="st0" d="M447.3,466.8c7.6-3.6,16.6-5,24.6-1.7c10.8,4.4,17.7,15,21,25.8c5.7,19,3,40.2-6.4,57.6
	c-5.8,10.4-14.6,19.9-26.2,23.7c-4.4,1.5-9.2,1.4-13.8,1.1c12-2.6,21.6-11.5,28.3-21.4c11.4-17.5,14.2-40.4,7.3-60.1
	c-3.5-10-10.8-19.1-20.8-23.2C456.9,466.6,452,466.6,447.3,466.8z"/>
<path class="st0" d="M585.9,498.3c3.8-3.7,9.7-6.5,15-4.1c6.1,2.9,9.5,9.3,11.7,15.3c4.7,14,4.1,29.6-0.7,43.5
	c-2.7,7.1-6.7,14.5-13.5,18.3c-3,1.8-6.7,1.7-10,1c8.2-1.6,14.2-8.5,17.1-16c4.3-10.8,5.5-22.7,4.3-34.3
	c-1.1-8.1-3.9-17.2-11.5-21.5C594.7,498.2,590.2,498.2,585.9,498.3z"/>
<path class="st0" d="M520.3,586.6c2.2-2.1,5-6,8.5-4.4c3.2,3,3.5,7.8,4.4,11.8c1.5,9.4,4.3,18.5,5.1,28c0,2.5,0.8,6.2-2.2,7.4
	c-2.6,0.6-4.7-1.3-6.7-2.6c2.5-2.2,3.8-5.5,3.7-8.8c-0.1-6.8-1.7-13.4-3.3-19.9C528.5,593.2,525.7,587.8,520.3,586.6z"/>
</svg>
