<svg version="1.1" xmlns="http://www.w3.org/2000/svg" xmlns:xlink="http://www.w3.org/1999/xlink" x="0px" y="0px" viewBox="0 0 1000 1000" style="enable-background:new 0 0 1000 1000;" xml:space="preserve">
<style type="text/css">
	.st0{fill:#6089FF;}
</style>
<path class="st0" d="M437.4,723.2c5.5-2,10.7-4.9,16.6-5.3c6.7-0.5,13.4-0.1,20.1,0c10.3,0.4,20.7-0.5,31,0
	c6.3,0.2,11.9,3.3,17.7,5.4c18.3,7.6,37.1,14.3,54.9,23.2c15,7.5,29.6,15.9,43.2,25.9c24.5,17.8,45.1,41.3,58.3,68.6
	c13.7,27.3,19.2,57.8,20.4,88.1c0.8,23.7-0.1,47.3-0.8,71h-37.9c0.9-23.7,1.5-47.4,0.9-71.1c-0.8-17-2.8-33.9-7-50.4
	c-5-19.1-13.2-37.5-24.2-53.9c-14.2-20.9-33.9-37.4-55.2-50.8c-29.5-19.2-61.9-33.9-95.2-45.1c-35.2,11.8-69.1,27.5-100,48.2
	c-23.8,15.6-45.2,35.9-58.6,61.3c-9,16.5-15.5,34.4-18.8,53c-3.3,17.4-4.6,35.2-4.5,52.9c-0.2,18.7,0.4,37.4,1.1,56h-37.9
	c-0.8-34.6-3.1-69.5,2.4-103.8c5.3-35.1,20.3-68.8,44-95.3c20.5-23.4,47-40.7,74.6-54.4C400.2,737.5,419,730.8,437.4,723.2z"/>
</svg>
