<svg version="1.1" xmlns="http://www.w3.org/2000/svg" xmlns:xlink="http://www.w3.org/1999/xlink" x="0px" y="0px" viewBox="0 0 1000 1000" style="enable-background:new 0 0 1000 1000;" xml:space="preserve">
<style type="text/css">
	.st0{fill:#FFD400;}
	.st1{fill:#000000;}
</style>
<path class="st1" d="M433.1,405.1c33.8-17.8,73.6-24.3,111.2-17.4c28.1,5.5,55.7,16.7,77.5,35.5c14.5,12.9,26.1,28.9,34.7,46.3
	c7.1,13.8,11.5,28.8,14.8,43.9c5.2,25.1,5.6,51.2,2.3,76.6c-2.4,17.5-6.9,34.9-14.6,50.9c-5.7,12.9-13,25.2-22.2,35.9
	c-8.2,9.7-17.5,18.8-28.4,25.5c-2.6,1.8-6.6,1.1-8.1-1.8c-1.6-2.7,0.1-6.1,2.6-7.5c7.7-5.1,14.9-11.1,20.8-18.2c1-1.1,1.4-2.6,2-3.9
	c-11.5,2.7-22.9,6.1-34.7,7.7c-29.1,4.7-58.6,6.6-88.1,5.1c-17.8-0.3-35.5-2.4-53-5.6c-20.4-3.7-40.9-7.6-60.4-14.8
	c-1.7-0.4-3.5-1.6-5.2-0.7c-0.1,1.8,1,3.5,1.9,5c7.8,12.3,19.1,21.8,30.8,30.2c2.1,1.6,5,3.2,4.9,6.2c0.5,3.7-3.6,6.5-7,5.3
	c-3.7-1.5-6.9-4-10.2-6.2c-21.9-16-39-38.2-50.3-62.8c-9.6-21.1-13.8-44.2-15.1-67.2c-1.2-33.2,4.2-67.2,19.8-96.8
	C375.4,445.4,402.4,421,433.1,405.1 M495.6,397.8c-33.6,3.9-65.6,18.5-91.1,40.7c-5.7,5.3-12.1,10.8-14.4,18.6
	c-1.5,4.1-0.5,9.1,2.7,12.2c2.8,2.6,6.6,3.7,10.3,4.5c21.5,4.7,43.1,8.8,65,11.1c23.3,2.4,46.7,4.1,70.1,4.4c23,1,46-0.4,69-1.9
	c9.1-0.8,18.3-1.3,27.3-3.1c3.7-0.8,7.9-3,8.5-7.1c1-5.8-2.6-10.9-5.1-15.8c-9.4-16.9-23.3-31.1-39.8-41.2
	C567.4,401.9,530.9,393.5,495.6,397.8"/>
<path class="st0" d="M374.4,483.6c5.2-1.5,10.5,0.1,15.6,1c20.2,4.4,40.4,8.4,60.9,11.1c22.5,3.7,45.4,5.1,68.1,6.3
	c15.9,1,31.9,0.9,47.9,0.3c20.5-0.1,41-1.5,61.3-4.2c6.3-0.6,12.5-2.1,18.7-2.4c3.9-0.4,7.1,2.4,8.5,5.8c2.8,6.2,3.7,13,4.9,19.7
	c1.6,11.9,3.5,23.8,3.5,35.8c0.2,18.6-1,37.5-6.2,55.4c-3.3,11-7,22.1-13.7,31.5c-2.9,3.9-7.1,6.6-11.4,8.6
	c-8.3,3.8-17.3,6-26.2,8.2c-18.9,4.3-38.1,7.6-57.4,8.6c-23.6,1-47.3,1.1-70.8-1.3c-30.7-3.7-61.7-9-90-21.9
	c-10-4.5-20.2-10.5-25.8-20.4c-5.8-10.3-7.9-22.2-9.6-33.8c-3.8-31.6-1.4-64.3,10.2-94.1C365.3,492.3,368.2,485.7,374.4,483.6"/>
<path class="st1" d="M444.5,513.8c8.6-2.2,17.7,0.9,24.4,6.4c10.1,8.2,16,20.4,19.5,32.7c5.1,18.2,5.4,37.7,0.4,55.9
	c-3.2,11.2-8.8,22.4-18.3,29.6c-7,5.4-16.7,7.3-25.1,4.2c-10.4-3.7-17.7-12.8-22.7-22.2c-9.2-18.1-11.7-39.1-9.1-59.1
	c2-14.3,6.8-29,17.3-39.4C434.6,518,439.3,515.1,444.5,513.8"/>
<path class="st1" d="M608.5,527.6c9.2-2,18.1,3.4,23.7,10.2c8.2,10.1,11.1,23.4,11.6,36.2c0.3,15.3-2.7,31-10.5,44.3
	c-4.9,8.1-12.5,15.6-22.3,16.9c-8.8,1.4-17.4-3.7-22.3-10.8c-7.5-10.5-10-23.7-10.8-36.4c-0.4-14.9,2.4-30.2,9.9-43.2
	C592.4,536.9,599.2,529.5,608.5,527.6"/>
<path class="st0" d="M440.4,534.6c6.7-1.5,13.3,2.6,17.4,7.6c7.3,9,10.6,20.5,12.1,31.7c1.6,13.6,0.6,28-5.5,40.4
	c-3.2,6.3-8.8,12.7-16.5,12.9c-7.4,0.2-13.3-5.3-17.1-11.1c-7.5-11.5-10.1-25.6-10.3-39.2c0.1-11.2,1.7-23,7.7-32.7
	C431.1,539.9,435.1,535.8,440.4,534.6z"/>
<path class="st0" d="M600.3,547.5c5-1.8,10.3,1,13.4,4.9c5.8,7.2,8,16.6,8.7,25.7c0.4,11.2-1.1,22.8-6.7,32.7
	c-2.9,5.2-8.3,10.2-14.7,9.1c-6.4-1.3-10.8-7.2-12.9-13c-4.1-11.5-4.9-24.2-2.6-36.2C587.4,561.7,591.1,551.1,600.3,547.5z"/>
</svg>
