<svg version="1.1" xmlns="http://www.w3.org/2000/svg" xmlns:xlink="http://www.w3.org/1999/xlink" x="0px" y="0px" viewBox="0 0 1000 1000" style="enable-background:new 0 0 1000 1000;" xml:space="preserve">
<style type="text/css">
	.st0{fill:#000000;}
	.st1{fill:#FFFFFF;}
</style>
<path class="st0" d="M530.1,549.4c-0.4,4.9-1.9,9.6-1.7,14.5c0.6,4.9,7,7.9,10.8,4.4c4.1-4.2,7.2-9.4,12.2-12.7
	c1.9-1.3,4.3-2.3,5.2-4.6c1.7-3.2-0.4-7.5-3.8-8.5c-3.4-1.3-6.6,0.9-9.4,2.5c1.1-20.6-2.4-41.8-12.2-60.2c-8-15-20.3-27.8-35.5-35.5
	c-18.3-9.5-40.1-11.2-59.9-6.3c-4.5,1.1-6.6,7.2-3.2,10.6c3.1,3.4,8,1.7,11.9,0.9c-15.6,13.5-20.9,35.9-17.5,55.7
	c2.6,16.8,12.4,32,26.2,41.8c11.2,8.3,25.1,12.5,38.9,12.7C506,564.6,520,559.1,530.1,549.4z"/>
<path class="st0" d="M728.7,564.2c-0.3-3.4-3.6-5.2-6.3-6.5c-13.7-6.9-29.5-7.8-44.5-6.4c-19.8,2-39.1,8.5-56.3,18.5
	c-1.2-3.7-2.5-8.1-6.2-10.1c-3-1.9-7.5,0-8.2,3.5c-1,4,3,6.8,3.3,10.6c1.1,3.7-0.7,9.1,3.7,11.1c4.6,2.2,8.5-2.5,12.2-4.5
	c2.3,5.8,6,11.2,11,15c12.4,9.5,29.4,12.6,44.5,8.4c9.6-2.6,19.1-7.6,24.6-16.2c3.9-6.6,5.6-14.5,4.8-22c3.4,1.2,6.5,3,9.8,4.5
	C724.8,571.7,729.2,568.1,728.7,564.2z"/>
<path class="st0" d="M624.9,644.2c-10.3-6.8-23.1-7.6-35-9.2c-11.9-1.6-23.5-5.3-34-10.9c-8.8-4.8-17.1-10.6-26.1-14.9
	c-8.5-4.1-18.3-4.9-27.4-2.7c-10.9,2.8-20.6,10.8-24.1,21.7c-3.4,10-1.4,21.3,4.6,29.9c7.9,12.2,21.1,19.4,33.9,25.3
	c19,8.3,39.7,12.4,60.3,14c12.6,1.2,25.5,1.6,37.8-1.8c8.3-2.4,16.3-7.4,20.3-15.3C641.2,667.9,636.3,651.7,624.9,644.2z"/>
<path class="st1" d="M467.3,455.6c1.5-0.4,3.1-1.2,4.8-0.8c16.1,3,30.8,12.4,40.7,25.4c11.2,14.5,16.6,32.8,17.7,50.9
	c0.2,2.2-1.8,3.8-2.9,5.4c-9.4,11.6-24.9,17.4-39.7,16.1c-14.4-1.1-28.1-8.2-37.6-19c-9.4-10.4-14.7-24.6-13.7-38.7
	C437.4,477.2,450.3,460.8,467.3,455.6z"/>
<path class="st1" d="M635,575.8c20.3-10,43.4-15.5,66.1-12.6c1.9,5.6,1.2,11.9-1.9,16.9c-5,8.2-14.1,13-23.2,14.8
	c-10.8,2.1-22.7,0.4-31.7-6.2C639.8,585.6,636.4,581,635,575.8z"/>
<path class="st1" d="M489.2,628.9c3.4-6.7,10.7-10.4,17.8-11.9c9.3-1.5,18.9,1.2,26.8,6.2c6.9,4.1,13.3,9.1,20.4,12.8
	c10.5,5.4,21.8,9.7,33.7,10.7c10.2,1.3,21.1,0.8,30.2,6.2c5.6,3.4,8,10.2,7.3,16.5c-23.3,0-46.7-3-69.1-9.7
	C532.6,652.7,510.1,641.9,489.2,628.9z"/>
<path class="st1" d="M487.6,634.8c32.9,20.3,69.8,34.8,108.4,38.9c9.2,1,18.5,1.5,27.8,1.5c-3.5,7-11,10.7-18.5,11.9
	c-20.3,3.7-41.1,0.3-61-4.3c-17.2-4.3-34.6-10.9-47.6-23.4C490,653.2,486.2,643.9,487.6,634.8z"/>
</svg>
