<svg version="1.1" xmlns="http://www.w3.org/2000/svg" xmlns:xlink="http://www.w3.org/1999/xlink" x="0px" y="0px" viewBox="0 0 1000 1000" style="enable-background:new 0 0 1000 1000;" xml:space="preserve">
<style type="text/css">
	.st0{fill:#000000;}
	.st1{fill:#D15B31;}
	.st2{fill:#FFD400;}
	.st3{fill:#8D3D21;}
	.st4{fill:#F32525;}
</style>
<path class="st0" d="M635.7,318.1c-5.9-18.8-18.6-34.7-33.1-47.8c-11.9-11.1-26.1-19.6-40.9-26.1c-16.5-7.5-34.3-11.8-52.1-14.5
	c-11-11.2-28.1-17.2-43.5-12.6c-12.5,3.6-23,13.1-27.9,25.1c-1.1,2.1-1.5,5-4.1,5.9c-7.4,2.9-14.9,6.8-19.3,13.8
	c-4.7,6.7-5.5,15.3-3.9,23.2c-5.1,5.5-9.7,11.8-11.6,19.1c-2.9,9.2-0.8,19.8,5.3,27.2c9,11.4,26.2,15.5,39,8.5
	c7.1-3.4,11.8-10.5,12.9-18.2c7.8-4.6,16.1-8.2,24.8-10.9c-0.3,4.5,0.6,9.5,4.3,12.5c7.7,6.9,20.4,4.7,27-2.7
	c3-3.2,4.3-7.5,5.3-11.7c12.5,0.2,24.9,3,36.6,7.4c-0.5,3.5-1,7.1,0.4,10.5c2,5.8,7.8,9.5,13.8,10c5.1,0.6,9.8-1.9,13.8-4.7
	c3.5,2.4,6.8,5.2,9.8,8.1c-2.4,6.3-4.9,12.9-3.9,19.8c0.7,7.1,5.3,13.7,11.8,16.7c7.4,3.5,16.4,2.5,23.2-1.9
	c7.6-4.6,12.3-12.9,14.5-21.4C641.1,341.7,639.1,329.4,635.7,318.1z"/>
<path class="st1" d="M470.1,232.1c9.5-2.7,20.4-2,28.8,3.6c-13.1,4.5-25.9,11.4-34.9,22.2c-10.6,12.4-15.1,29-14.6,45
	c0.2,7.2-0.2,15.4-5.8,20.7c-6.8,7.1-19.6,7.4-26.4,0c-7-7.1-6.9-18.9-1.4-26.8c2.6-4.1,7.5-7.3,7.2-12.7
	c-0.1-6.7,1.8-13.6,6.5-18.7c2.9-3.3,7-5.1,10.7-7.3c3.1-1.8,4.8-5.2,6.7-8.2C452.1,241.5,460.4,234.8,470.1,232.1z"/>
<path class="st2" d="M623.4,319.5c-4-10.3-9.6-20-16.6-28.5c-9.3-10.4-20.7-18.7-32.5-26.1c-10-6-20.6-10.9-31.7-14.5
	c-10.2-3.2-20.5-6.6-31.3-7.6c-13.3-1.5-25.4,5.7-35.5,13.5l0.1,0.2c-7.4,6.2-13.6,14.3-16.4,23.7c-0.6,2.2-1.4,5.1,0.6,6.9
	c7,0,13.4-3.3,20.2-4.5c-1.1-1.3-2.7-2.5-2.7-4.3c0.3-2.4,3-4.1,5.3-3c5,2,8.1,7.1,9.7,12c2.1,6.4-0.2,13-2.3,19
	c-1.2,3.2-1.7,7.7,1.6,9.9c6,3.9,15-0.2,16.3-7.2c1.4-6.7-3.4-12.3-6-18c-2.6-5.5-3.9-12.3-1.3-18c1.3-3,6-2.6,6.8,0.5
	c0.1,2.6-0.7,5.2-0.8,7.9c1.5,0,2.9,0,4.4,0c7.5,0.2,14.9,1,22.3,2.2c1.8,0.3,3.5,0.7,5.2,1c-0.6-1.9-2.3-4-1.1-6
	c0.9-1.7,3.5-2.8,5.1-1.4c2.2,1.6,2.9,4.4,3.4,6.9c0.8,3.4-1.8,6.2-2.9,9.2c-0.9,2,0.4,4.6,2.6,4.7c6,0.6,9.9-5.9,15.8-5.5
	c5.9,1.1,9.1,7.9,7.4,13.4c-1.2,5.4-6.1,9.5-6.3,15.2c0.2,5.5,7.9,8.5,12,4.9c4.7-4,4.2-10.7,5.7-16.1c1.4-6.1,6.2-11.6,12.5-12.7
	c1.8-0.5,4.1,0.4,4.5,2.4c0.6,3.7-2.5,7.3-0.9,10.9c2.6,6.5,9.9,10.3,11,17.6c1.8,7.4-3.6,13.6-5.8,20.2c-1.7,4.3-0.9,9.4,2,13.1
	c3.2,3.7,8.8,4.3,13.2,2.9c4.7-2,7.2-6.9,8.7-11.6C628.6,341.6,627,330,623.4,319.5z"/>
<path class="st3" d="M509.4,288.8c9.1,0,18.1,1.1,27,3c-0.8,2.5-1.5,5-2.1,7.5c-6.7-1.2-13.5-1.8-20.4-2.1
	C512.4,294.4,510.9,291.6,509.4,288.8z"/>
<path class="st3" d="M461.1,297.2c7.6-4.1,16.2-6.1,24.5-7.9c0.2,3.7-0.1,7.5-1.1,11.1c-9.5,2.3-18.6,5.8-27.2,10.3
	C456.9,306.1,456.3,299.9,461.1,297.2z"/>
<path class="st3" d="M552.1,303.9c2.7-1.6,5.5-3.2,8.3-4.8c2.5,2.2,1.5,5.4,0.6,8.1C558,306.2,555,305,552.1,303.9z"/>
<path class="st3" d="M588.5,315.8c3.9,2.5,8.3,4.7,10.8,8.7c1.9,3,0.3,6.4-0.7,9.4c-4.2-2.9-8.4-6-12.6-8.9
	C587,322,587.8,318.9,588.5,315.8z"/>
<path class="st4" d="M475.8,256.2c10.1-7.8,22.2-15,35.6-13.5c1.5,3.9,2.8,8.4,1,12.5c-4.5,11.5-20.6,15.9-30.6,9
	c-2.8-1.8-4.4-4.9-5.8-7.8L475.8,256.2z"/>
<path class="st4" d="M542.6,250.4c11.1,3.6,21.7,8.5,31.7,14.5c-2.4,4-5.2,8-9.8,9.7c-8,3.5-18.3-0.2-22-8.2
	C539.8,261.4,540.8,255.5,542.6,250.4z"/>
<path class="st4" d="M514,272c4.7-5.7,15-5,18.8,1.4c2.1,3,1.2,6.7,0.8,10.1c-7.4-1.2-14.8-2-22.3-2.2
	C511.5,278.1,511.5,274.5,514,272z"/>
<path class="st4" d="M605,310c-3.4-6.1-1.3-13.3,1.8-19c7,8.5,12.6,18.2,16.6,28.5C616.2,319.5,608.3,316.9,605,310z"/>
</svg>
