<svg version="1.1" xmlns="http://www.w3.org/2000/svg" xmlns:xlink="http://www.w3.org/1999/xlink" x="0px" y="0px" viewBox="0 0 1000 1000" style="enable-background:new 0 0 1000 1000;" xml:space="preserve">
<style type="text/css">
	.st0{fill:#EDEDED;}
	.st1{fill:#FF5400;}
</style>
<path class="st0" d="M799.8,768.8c5.2-4.8,11.8-8.4,19-8.7c12.2-0.7,24,6.7,29.8,17.3c4.5,8.3,6.9,18.1,5.6,27.5
	c-0.7,6.3-3.3,12.2-6.5,17.5c10.4,4.4,19.9,10.9,27.4,19.4c7.3,8.2,12.4,19,11.8,30.2c-0.3,10.6-6.1,20.3-13.5,27.6
	c1.7,14.4-5.5,30.1-18.9,36.6c-2.8,1.4-5.8,2.3-8.7,3.1c-4.8,16.7-23.9,27.3-40.6,23c-7.4-1.8-14-6.3-18.2-12.6
	c-10.1,2.1-20.9,2.3-30.6-1.5c-9.5-3.7-18-10.7-21.9-20.3c-8.9,0.8-19.2-1.2-24.9-8.8c-5.8-8.2-5.3-18.7-5.8-28.3
	c0-14.7-0.5-29.5,2-44c1.8-9.2,5.4-18.3,11.6-25.5c4.3-5.4,11.5-8.5,18.4-7.1c5.3,0.8,10.7,3.8,16.1,1.6c9.2-4.1,16.1-11.8,22.9-19
	C783.4,787.7,790.6,777.4,799.8,768.8"/>
<path class="st1" d="M815.2,777.1c4.2-2.8,10-3.5,14.3-0.6c7.5,4.7,10.7,14,10.5,22.5c0.2,8.6-4.8,16.4-10.9,22
	c-9.8,9-23.3,11.8-36,14c-4.4,0.6-4.6,7.5-0.1,8.2c8.7,0.1,17.3-2,25.8-3.7c9.8-2,19.9-4.9,29.8-2.4c8.7,2.6,16,8.7,21,16.1
	c4.7,6.8,7.2,15.6,5.1,23.8c-1.6,6.5-7.1,11.8-13.6,13.4c-10.1,2.6-21.3,0.1-29.6-6.2c-5.1-3.8-8.8-9.8-8.9-16.3
	c-0.1-4.2,1.6-8.7,5.4-10.8c3.2-1.8,7.1-1.6,10.7-1.1c7.6,1.3,14.6,4.9,20.7,9.5c2.9,2.3,6.4-0.5,7-3.6c-1.8-4.3-6.1-6.5-9.9-8.7
	c-7.6-3.9-16-7-24.7-6.2c-6.2,0.5-12.2,4.2-15.1,9.8c-3.2,5.5-3.3,12.2-1.9,18.2c-8.3,3.5-16.4,9.8-18.6,19c-1.2,4-0.4,8.1,0.5,12
	c0.6,2.3-2.2,3-3.5,4.2c-8.3,5.3-12.9,15.7-10.6,25.4c-9.7,3.2-20.2,0.4-28.7-4.7c-5.5-3.4-10.7-8.2-12.5-14.5
	c-0.9-3.4-1.4-7.3,0.5-10.5c1.4-2.6,4.1-4.7,7.1-4.3c4.4,0.6,8.3,3.7,12.8,3.3c2-0.4,4.5-1.1,5.2-3.2c1-2.1-0.3-4.7-2.4-5.5
	c-8.4-3.7-15.7-10.3-19.3-18.8c-5.2-11.2-4.9-24.9,1.5-35.5c5.4-8.6,14.3-13.9,22.4-19.7c10.2-6.9,19.5-15.2,27.2-24.8
	C802.4,790.5,807.2,782.2,815.2,777.1z"/>
<path class="st1" d="M731.3,828.3c4.3-2.3,9.5-1.1,13.5,1.3c-6.5,5.8-11,13.8-12.4,22.4c-1.8,9.7-0.7,19.5,1.6,29
	c1.6,6-2.6,11.3-4.1,16.8c-1.2,3.4-1.4,7.1-1.6,10.6c-3.2-0.2-6-2.2-6.8-5.3c-2.6-8.5-2.7-17.5-3-26.3c-0.1-11.7-0.1-23.7,3.3-35
	C723.7,836.7,726.3,831.1,731.3,828.3z"/>
<path class="st1" d="M805.4,894.3c2.4-5.6,7.9-9,13.3-11.3c9.2,13.1,26.6,19.3,42.2,16.5c1.3,6.5,1,13.8-2.7,19.5
	c-4.3,6.4-12.8,8.6-20.1,7.5c-11-1.6-21.7-7.1-28.8-15.8C805.5,906.3,803.1,900,805.4,894.3z"/>
<path class="st1" d="M791,932c-1.1-7.3,4.3-14.1,10.9-16.6c7.9,10,19.7,16.6,32.1,19.3c-0.4,5.6-3.4,11.1-8.4,13.7
	c-6.8,3.5-15.2,2.1-21.7-1.4C798,943.9,792.1,939,791,932z"/>
</svg>
