<svg version="1.1" xmlns="http://www.w3.org/2000/svg" xmlns:xlink="http://www.w3.org/1999/xlink" x="0px" y="0px" viewBox="0 0 1000 1000" style="enable-background:new 0 0 1000 1000;" xml:space="preserve">
<style type="text/css">
	.st0{fill:#000000;}
	.st1{fill:#6089FF;}
	.st2{fill:#FFD400;}
</style>
<path class="st0" d="M406.2,101.2c11.5-8,25.3-15,39.8-13.2c13.9,2,24.7,12.2,33.3,22.7c12,14.9,21.3,31.7,30.8,48.2
	c14.1,25.6,27.5,51.7,40.6,77.8c19.2-3.8,39.2-5.3,58.5-1.4c19.4,3.8,38.1,10.2,56.9,15.9c11,3.5,22.5,6.9,31.8,14
	c5.2,3.9,8.9,10.1,8.6,16.8c-0.5,8.5-5.3,15.9-10.8,22.1c-10.3,11.4-23.8,19.7-38.3,24.5c-23.6,8.1-48.6,10-73.3,10.9
	c-14.7,0-29.5,0.9-44.2,2c-22.5,1.7-44.4,8-65.3,16.2c-17.3,6.8-32.9,17.4-50.8,22.8c-20.7,6.5-42.6,6-63.9,8
	c-24.7,1.1-49.8,5.8-71.6,17.9c-9.4,5.2-18.2,11.5-28,16c-6.6,3-14.6,3.8-21.3,0.7c-7.5-3.4-12.2-11-14.2-18.8
	c-3.3-13.2-0.7-27.3,4.7-39.7c6.9-15.9,18.2-29.5,30.9-41.1c20.4-18.3,45-31.8,71.2-39.7c0.7-5,1.5-9.9,2.4-14.9
	c-14.6,3.9-28.1,11.8-43.1,14.2c-9.8,1.8-20.8,0.1-28.5-6.7c-7.9-6.9-11.2-17.4-13.1-27.3c-2.8-16.3-4.2-32.8-6.5-49.1
	c-1.2-7.9-2.6-15.8-5.7-23.2c-1.8-4.2-4.3-8.3-8.4-10.5c-4.5-2.3-9.8-2-14.6-1c-10.3,2.3-19.7,7.4-30.1,9.6
	c-4.9,1.1-10.4,1.6-15-1.1c-4.2-2.2-6.4-7.4-5.6-12c1-6.6,4.6-12.5,8.4-17.9c6.4-8.6,14.1-16.2,22.5-22.7
	c9.4-7.2,20.6-12.7,32.6-13.6c14.1-1.2,27.9,2.7,41.1,7.3c28.6,10.2,56.2,22.9,84.2,34.7c4.6-3.5,8.1-8.2,12.5-11.9
	C378.6,125.5,391,111.7,406.2,101.2"/>
<path class="st1" d="M542.1,257.6c-4.1-9.9-9.4-19.1-14.1-28.7c-10.7-21.5-21.8-42.8-32.8-64c-9.2-18-19.7-35.7-33.6-50.4
	c-5.3-5.6-12.6-9.6-20.5-9.1c-15.2,0.6-28,10-39,19.6c-26.9,24-52.7,49.4-77.6,75.5c-1.7,1.8-4,3.1-6.5,2.7c-3-0.4-5.2-3.3-5-6.3
	c0.7-4,4.2-6.4,6.5-9.5c4.8-6,11-11.5,12.6-19.3c1-5.5-3.9-9.7-8.4-11.7c-7-3-14-6.1-21-9.1l-0.1-0.2c-9.4-4.1-18.6-9-28.2-12.8
	c-12.4-6-25.4-12-39.4-12.4c-15.1,0.1-28.4,9-38.9,19.1c-3.1,3.2-7.1,6.3-7.6,11c0.3,2.6,3.3,3.5,5.5,3.2c9.9-1.7,19.1-6.3,29.1-7.6
	c8.5-1.2,17.4,3.1,22,10.4c5.6,8.6,7.9,18.9,10.1,28.8c4.5,20,5.1,40.7,8.7,60.9c1.5,7.3,3.9,15.8,11.1,19.5
	c6.7,3,14.7,2.9,21.7,0.7c5.6-1.1,10.6-4.1,15.7-6.4c5.5-2.7,11.5-4.8,16.5-8.5c7.3-5.2,11.6-13.6,14.1-22
	c3.8-12.4,7.7-24.7,12.1-36.9c1.1-2.9,4.2-5.2,7.4-4.6c4,0.6,6.1,4.8,5.9,8.6c-0.5,7.5-4.6,14.4-4.5,22c-0.1,1.6,1,4.3,3.1,3.3
	c4.8-1.9,7.7-6.5,11.1-10.2c2.2-2.4,4.3-5.8,7.9-6c4.1-0.4,7.6,4,6.4,7.8c-1,2.8-3,5.2-4.6,7.7c-14.5,21.9-27.5,45.4-32.7,71.3
	c-1.5,5.6-1.1,11.6,0.7,17.1c2,6,7.6,10.1,13.7,11.3c9.7,2,19.7,1.5,29.5,1c22.8-1.7,45.6-4.3,67.9-9.2c18.2-4.2,36.2-9.1,53.7-15.6
	c9.2-3.3,19.3-8.1,23.1-17.8C547.2,273.3,544.7,265,542.1,257.6z"/>
<path class="st2" d="M436.2,132.3c0.5-1.4,1-3.2,2.7-3.6c1.8-0.4,3,1.3,3.7,2.7c3.7,7.3,6,15.2,9.1,22.7c8.6,0.2,17.2,1.1,25.8,2.6
	c1.8,0.5,4.2,0.7,5.2,2.6c0.9,2.1-1.3,3.6-2.8,4.6c-6.9,4.5-13.9,8.7-20.5,13.7c2.9,9.2,5.5,18.5,8.3,27.7c0.4,1.7,1.3,3.8,0,5.4
	c-2.1,1.5-4.3-0.4-6.1-1.4c-6.9-4.4-13.5-9.2-20.1-14c-0.9-0.4-1.9-1.9-2.8-0.7c-6.1,4.9-12.1,9.9-17.9,15.1
	c-1.5,1.2-3.5,3.2-5.6,1.9c-1.3-1.2-1-3.2-0.9-4.8c1.4-9.1,5.1-17.6,7.5-26.4c-6.7-4.7-13.4-9.6-20.3-13.9c-1.6-1-3.7-2.3-3-4.6
	c1-1.8,3.1-1.9,4.9-2.4c8.4-1.5,16.9-2.5,25.4-3.8C431.4,148,433.8,140.1,436.2,132.3z"/>
<path class="st2" d="M274.4,134.3c9.5,3.7,18.7,8.6,28.1,12.8l0.1,0.2c2.6,6.1,6.6,11.5,9.9,17.2c1.1,1.5-0.6,3.9-2.4,3
	c-6.5-2.2-12.4-5.8-18.9-7.6c-6.9,4.8-11.4,12.1-17.2,17.9c-0.5-0.4-1.5-1.4-2.1-1.8c0.1-8.3,2.4-16.5,2-24.8
	c-5.5-3.5-12-5.3-17.5-8.8c-2-1.3-0.5-4.2,1.7-4.1C263.6,137.6,269.2,136.5,274.4,134.3z"/>
<path class="st2" d="M281.3,223.4c0.9-2.2,4.4-2.2,4.9,0.3c2.2,7.2,2.5,15.2,5.8,22c7.7,0.8,15.4,0.8,23,2.4c1.8,0.2,2.6,2.9,1,3.9
	c-6.2,5.6-12.7,10.9-19.4,15.8c-7,2.1-14.9,2.3-21.7-0.7c-7.2-3.7-9.5-12.2-11.1-19.5c2.3-0.3,4.6-0.6,6.9-0.9
	C273.9,238.8,276.9,230.7,281.3,223.4z"/>
<path class="st2" d="M510.1,245c0-1.8-0.3-4.7,2-5.2c1.7-0.3,2.9,1.2,4.1,2.1c6.9,6.7,14.7,12.5,22.6,18c1.1-0.7,2.2-1.5,3.4-2.2
	c2.6,7.3,5.1,15.6,1.6,23.1c-3.8,9.7-13.9,14.5-23.1,17.8c-0.8-2.8-1.7-5.6-2.7-8.4c-9.4-2.4-19-4.1-28.3-6.7
	c-2.6-0.2-4.2-3.9-1.5-5.2c8.2-4.2,17.1-6.8,25.7-9.9C512.2,260.7,510.6,252.9,510.1,245z"/>
<path class="st2" d="M424,249c1.8-1.5,4.8-0.3,4.7,2.1c-0.3,6.6-2,13-3.4,19.4c5.4,4.3,11,8.4,15.6,13.6c1.6,1.4,1.5,4.6-0.9,5
	c-6.7,0.4-13.5,0-20.2,0.1c-1.6,7.5-2.5,15.1-5,22.3c-0.4,1.4-1.5,2.2-2.7,2.9c-1.9-0.8-2.9-2.5-3.3-4.4c-2-7-4.1-14-7.6-20.4
	c-6.4,1.1-12.7,3.1-19.1,3.5c-2.6,0.1-2.8-3.2-1.2-4.6c4.3-4.8,8.9-9.2,13.6-13.7c-1.3-5.9-4.2-11.3-5.9-17.1
	c-0.8-1.8,0.1-4.6,2.5-4.3c6.2,1.6,11.9,5,17.4,8.2C413.8,257.7,418.5,252.8,424,249z"/>
<path class="st1" d="M580.3,248.4c11.2-0.5,22.6-0.2,33.6,2.2c18.4,3.8,35.5,11.6,53.3,17.2c6.3,2.1,12.8,3.8,18.4,7.3
	c2.9,1.8,5.8,5.1,4.4,8.7c-1.9,5.8-6.2,10.4-10.7,14.4c-11.8,10-26.5,15.8-41.3,19.6c-17,4.5-34.5,6.2-52,6.9
	c-24.3,1.3-49-0.8-73.1,4.2c-18.1,3.5-35,10.8-51.9,17.9c-17.5,8-35.1,16.1-54,20.2c-23.5,4.9-47.6,5-71.2,9.3
	c-15,2.7-29.9,6.3-43.8,12.6c-10.7,4.6-20.6,10.7-30.9,16.1c-4.1,1.8-8.5,4.7-13.1,3.6c-4.7-2.4-6.1-8.2-6.7-13
	c-1.1-16,6-31.4,15.8-43.7c12.7-15.7,28.4-28.9,45.8-39.3c2.2-1.3,5.4-2.6,7.5-0.5c1.2,2.8-0.9,5.6-2,8c-3,5-5.5,11.4-2.8,17.1
	c1.4,3.4,5,5.1,8.5,5.1c24,0.8,48-1,71.9-2.9c26.9-2.2,53.6-6.8,80.2-11.5c38.5-7.5,75.8-21.3,110.5-39.5c5.8-3.1,11.8-6,16.7-10.4
	c2.8-2.6,4.2-7.7,0.9-10.5c-4.4-3.3-10.2-1.2-15.2-1c-7.1,1-14.3-3.5-16.8-10.1c-0.9-2.4,0.8-4.7,3-5.7
	C569.9,248.9,575.2,248.8,580.3,248.4z"/>
</svg>
