<svg version="1.1" xmlns="http://www.w3.org/2000/svg" xmlns:xlink="http://www.w3.org/1999/xlink" x="0px" y="0px" viewBox="0 0 1000 1000" style="enable-background:new 0 0 1000 1000;" xml:space="preserve">
<style type="text/css">
	.st0{fill:#464B4B;}
	.st1{fill:#959898;}
	.st2{fill:#000000;}
</style>
<path class="st2" d="M496.3,41.2c2.7-1.5,5.8-0.9,8.6,0c14.7,4.7,29.5,9.1,44.2,13.8c3,0.7,4.6,3.6,5.6,6.3c12.1,32.5,24.2,65.1,36.4,97.6
	c0.9,2.5,2.3,5.1,1.5,7.9c-0.5,2.1-2.3,3.5-4,4.6c-25.1,16.9-50.2,33.8-75.3,50.8c-2.4,1.8-5.5,2.4-8.3,1.6
	c-17.6-4.1-35.2-8.1-52.8-12.2c-3-0.5-4.8-3.3-5.9-5.9c-14.6-34.7-29.4-69.3-44-104c-1.8-3.4,0.8-6.9,3.8-8.4
	C436.2,76,466.2,58.5,496.3,41.2"/>
<path class="st0" d="M498.9,54.8c1.2-0.6,2.6-1.8,4-1c10.8,3.4,21.5,6.9,32.3,10.3c-24,15.1-48,30.2-72.2,45.1
	c-13.4-3.6-26.9-7.1-40.3-10.7C448.1,83.9,473.6,69.5,498.9,54.8z"/>
<path class="st1" d="M469.8,117.1c24.9-15.6,49.7-31.1,74.6-46.7c11.4,30.8,22.8,61.7,34.1,92.5c-23.6,15.5-47.1,31-70.7,46.4
	C495.2,178.6,482.4,147.9,469.8,117.1"/>
<path class="st0" d="M418.5,108.1c13.1,3.4,26.3,6.9,39.4,10.4c1.6,0.1,2.1,1.7,2.6,2.9c12,29.4,24.3,58.8,36.3,88.2
	c-13.2-3.3-26.6-6.5-39.8-9.9c-4.7-9.7-8.5-20-12.8-29.9C435.8,149.2,427.1,128.6,418.5,108.1z"/>
<path class="st2" d="M511.7,101c1.1-3.4,5.7-4.3,8.1-1.8c2.1,2.5,3,5.7,4.3,8.6c7-0.7,14.8,2.6,17.4,9.5c2,4.2,0.8,8.9-1,12.9
	c5.8,1.2,11.3,5,13.2,10.9c2.7,6.8-0.4,14.2-5,19.4c1.3,2.3,3.5,4.5,3.2,7.4c-0.2,3.1-3.9,5.4-6.8,4c-2.1-0.9-3.1-3.1-4.4-4.8
	c-1.5,0.8-3,1.7-4.5,2.5c0.9,3.2,3.3,6.7,1.4,10c-1.6,3.1-6.6,3.1-8.4,0.1c-1.1-1.9-1.8-4-2.5-6c-3.8,1.2-8,3.3-11.9,1.5
	c-3.1-1.5-3.6-6.3-0.8-8.3c1.9-1.2,4.2-1.3,6.3-1.7c-4.7-11.4-9.5-22.7-14.3-34c-1.8,2.6-3.3,6.3-7,6.5c-3.3,0.1-5.7-3.4-4.7-6.5
	c1.6-4.5,5-8,8.2-11.4c-1.5-2.5-3.5-4.9-4.4-7.8c-1-3.4,2.6-7.1,5.9-6c3.3,1,4.6,4.6,6.4,7.2c1.3-0.8,2.6-1.5,4-2.3
	C513.2,107.7,510.6,104.5,511.7,101 M513.8,123.2c1.6,4.6,3.7,8.9,5.5,13.4c5.1-3.1,10.4-6.9,12.7-12.6c1.3-2.7-1.3-5.7-4-5.8
	C522.7,117.6,517.9,120.3,513.8,123.2 M523.4,146.3c2.1,5.1,4.2,10.1,6.3,15.1c5.6-2.9,11.7-6.4,14.1-12.5c1.5-3.7-1.1-8.2-5.1-8.5
	C533.1,140,528.1,143.5,523.4,146.3z"/>
</svg>
