<svg version="1.1" xmlns="http://www.w3.org/2000/svg" xmlns:xlink="http://www.w3.org/1999/xlink" x="0px" y="0px" viewBox="0 0 1000 1000" style="enable-background:new 0 0 1000 1000;" xml:space="preserve">
<style type="text/css">
	.st0{fill:#000000;}
</style>
<path class="st0" d="M493.7,470c9.9-2.3,21.2-0.7,28.7,6.7c10.1,9.3,12.1,24.2,9.9,37.2c-16.4,0.8-32.8,1.4-49.2,2.3
	c-2.7,0-3.6,3.6-1.7,5.3c8.7,11.6,17.4,23.1,26.1,34.7c-8.8,7.2-19.8,12.7-31.4,12.4c-8.2,0-16.3-3.6-21.7-9.9
	c-6.3-7.2-8.8-17.2-8.5-26.6c0.6-15.4,7.2-30.3,17.1-42C470.9,480.5,481.5,472.8,493.7,470z"/>
<path class="st0" d="M673.5,554.5c7.2-3.1,16.5-3.1,22.7,2.3c7.6,6.3,9.3,17.2,7.7,26.5c-10.3,0.4-20.6,1-30.9,1.4
	c-1.8,0-4.2,0.5-4.5,2.6c-0.4,1.5,0.7,2.7,1.5,3.7c5.8,7.3,11.5,14.7,17.2,22.1c-5.9,5-13.3,8.8-21.2,8.7
	c-6.8-0.1-13.4-4.1-16.7-10.1c-4.9-8.7-4.2-19.4-1.1-28.6C652.4,570.9,661.3,559.7,673.5,554.5z"/>
</svg>
