<svg version="1.1" xmlns="http://www.w3.org/2000/svg" xmlns:xlink="http://www.w3.org/1999/xlink" x="0px" y="0px" viewBox="0 0 1000 1000" style="enable-background:new 0 0 1000 1000;" xml:space="preserve">
<style type="text/css">
	.st0{fill:#EDEDED;}
	.st1{fill:%%ST1%%;}
	.st2{fill:#000000;}
</style>
<path class="st2" d="M454.4,395.6c26-9.4,54.3-12.9,81.7-9.2c17.8,2.4,35.2,7.6,51.5,15c17.2,7.9,33.2,18.9,45.7,33.3c12.4,14,22,30.4,29,47.7
	c8.7,23.1,13.2,47.9,13.4,72.6c-4-1.1-7.9,0.9-11.9,1.3c0.1-6.2-0.6-12.3-1.2-18.4c-1.4-10.3-2.3-20.7-5-30.7
	c-1.1-3.7-2.4-7.7-5.5-10.1c-2.3-1.7-5.3-1.4-8-1.2c-18.2,2.8-36.6,5-55,6c-20,0.5-40,1.4-60,0.7c-19.4-0.9-38.7-2.1-58-4.1
	c-24.3-3.2-48.6-6.7-72.5-12.1c-7.2-1.3-14.3-3.6-21.6-3.4c-6.8,0.6-10.6,7.2-13,12.8c-6.9,16.6-10.7,34.3-12,52.2
	c-1.4,18-0.8,36.2,2.6,54c2.2,10.6,5.1,21.8,12.5,30c7.6,8.2,18,12.9,28.2,17c21.9,9,45.4,13.6,68.7,17.1
	c30.9,4.5,62.2,4.6,93.3,2.6c18.9-1.7,37.6-5.1,56-9.8c8.5-2.3,17.1-4.7,24.6-9.3c6.7-4.1,10-11.6,13.4-18.4
	c3.4,1.7,7.8,4.2,11.3,1.2c-8.9,24.4-24.4,46.7-44.6,63.2c-3.5,2.6-6.9,5.6-10.9,7.4c-3.3,1.3-7.4-1.5-7.2-5.1c0-2.2,1.5-4,3.2-5.1
	c7.7-5.1,14.9-11.1,20.8-18.2c0.7-1.1,2.2-2.4,1.5-3.9c-9.1,2.3-18.2,4.9-27.4,6.6c-23.4,4.1-47.1,6.5-70.9,6.7
	c-22.8,0-45.6-0.7-68.1-4.6c-22.7-3.8-45.4-7.9-67.1-15.5c-2.4-0.6-4.7-2.5-7.2-1.6c-0.6,1.6,0.7,3.1,1.4,4.5
	c8.3,13.5,20.9,23.5,33.6,32.6c2.4,1.6,3,5,1.7,7.5c-1.7,2.6-5.4,3.2-7.9,1.5c-13.8-8-25.5-19-35.6-31.2
	c-10.9-13.5-20.3-28.4-26.4-44.7c-12.5-33.6-14.8-70.5-8.9-105.7c3.1-18.6,9.2-36.7,18.2-53.3C381,437.3,415.6,410.1,454.4,395.6
	 M506.6,396.8c-24.2,1.3-48.2,7.8-69.5,19.4c-15.2,8.1-29.6,18.1-41.2,30.9c-4.1,4.8-7.9,11.4-5.8,17.9c1.4,4.4,5.7,6.9,9.9,8
	c33.1,7.9,67,12.7,101,14.7c30,1.9,60.1,2.7,90.1,0.6c14.2-0.9,28.5-1.5,42.5-3.9c3.9-0.7,8.5-2.9,9.2-7.2
	c1.1-5.8-2.6-10.9-5.1-15.8c-10.3-18.4-25.9-33.6-44.2-43.9C567,403,536.7,395.4,506.6,396.8z"/>
<path class="st2" d="M569.5,538.2c-0.1-3.5,3-6.3,6.4-6.2c10.9-0.2,21.8,0,32.7-0.1c-0.7,3.5-1.1,7.1-1.4,10.7c-9,0-18,0-27,0
	c-0.1,2.5,0.1,4.9-0.1,7.4c-0.2,1.2-0.2,2.4,0,3.6c0.2,3.3,0,6.6,0.1,9.9c1.9,0,3.9,0,5.8,0c1.9,3.2,3.8,6.5,5.8,9.8
	c-3.9,0-7.8,0-11.6,0c0,2,0,4,0,6c-3.6,1.6-7.2,3.1-10.8,4.6C569.4,568.7,569.3,553.4,569.5,538.2z"/>
<path class="st2" d="M618.8,532.1c7.9-0.1,15.8-0.1,23.6-0.1c-2.7,3.7-5.5,7.3-8.5,10.7c-2.9,0-5.8,0-8.7,0C623,539.2,621,535.6,618.8,532.1z"/>
<path class="st2" d="M415.9,539.9c0.1-3.3,2.8-6,6.1-6.1c9.1,0,18.2,0,27.3,0c-0.6,3.6,0.4,7.3,0.2,11c-5.7,0.5-11.4,0.1-17.2,0.2
	c-2.1-1.2-4.6-3.1-7.1-1.9c-2.7,0.8-4.2,4.1-3.2,6.8c1.3,3.7,2.9,7.4,4.4,11.1c1.2,3,0.4,6.4,0.6,9.6c1.1,0,2.2,0.1,3.2,0.1
	c0.7,2.4,2.5,4.7,2.4,7.2c-5.6,0.9-11.1,2.3-16.6,3.4C415.8,567.5,415.9,553.7,415.9,539.9z"/>
<path class="st2" d="M460.5,533.9c7.5,0,15.1,0,22.6,0c2,0.3,4.1,1,5.2,2.8c1.7,3,0.9,6.5,1,9.8c-3.6,2.6-7.3,5.2-11,7.8c0-3,0-6.1,0-9.2
	c-3.6,0-7.2,0-10.8,0C465.1,541.4,462.8,537.6,460.5,533.9z"/>
<path class="st2" d="M663.8,584.1c3.9-5.7,7.9-11.4,11.9-17.1c-0.5,6.9-0.9,13.9-1.8,20.8C670.5,586.6,667.1,585.4,663.8,584.1z"/>
<path class="st2" d="M569.2,595.5c3.5,0.8,7,1.7,10.5,2.5c0,0.9,0,2.6,0,3.5c2.3-0.1,4.8,0.4,7.1-0.3c-2.7,3.6-5.3,7.3-8,10.9
	c-3.5,0.4-8.1-0.5-9.3-4.3C568.9,603.8,569.4,599.6,569.2,595.5z"/>
<path class="st2" d="M415.8,596.2c5,2,10.1,4.2,15.1,6.1c-1.4,3.8-4,7.2-6.2,10.7c-3,0-6.8-0.2-8.2-3.3C415.1,605.3,416.2,600.6,415.8,596.2z"/>
<path class="st2" d="M660.7,609.9c3.3-1,6.6-1.9,9.9-2.9c-2.2,8.1-4.1,16.3-7.3,24.1c0.4-1.7,0.5-3.4,0.2-5C662.5,620.7,661.7,615.3,660.7,609.9
	z"/>
<path class="st0" d="M363.8,495.8c2.5-5.6,6.2-12.2,13-12.8c7.4-0.3,14.5,2.1,21.6,3.4c23.9,5.4,48.2,8.9,72.5,12.1
	c19.3,2,38.6,3.2,58,4.1c20,0.7,40-0.2,60-0.7c18.4-1,36.8-3.1,55-6c2.7-0.3,5.7-0.5,8,1.2c3.2,2.4,4.4,6.4,5.5,10.1
	c2.7,10.1,3.6,20.5,5,30.7c0.6,6.1,1.4,12.3,1.2,18.4c-3.2,0.6-6.4,1.3-9.7,1.8c-0.1-7.4,0.1-14.8,0-22.1c-0.2-2.8-0.3-6.6-3.4-7.8
	c-3.4-1.8-6.4,1.3-8.3,3.8c-7.9,0-15.8,0-23.6,0.1c-1.7-1.8-4.1-4-6.7-2.9c-1.6,0.3-2.5,1.7-3.5,2.8c-10.9,0.1-21.8-0.1-32.7,0.1
	c-3.4-0.1-6.5,2.7-6.4,6.2c-0.2,15.2-0.1,30.5-0.2,45.8c-2.7,0.9-5.7,2.8-5.6,6.1c0,3,2.8,5,5.6,5.5c0.2,4.1-0.3,8.3,0.3,12.4
	c1.2,3.9,5.8,4.7,9.3,4.3c-2.7,4-6.1,7.6-8.2,11.9c-1.5,4,3,8.1,6.8,6.6c6.9-2.3,13.6-5,20.4-7.5c0.4,4.9-0.5,9.9,0.5,14.7
	c0.8,3.6,5.6,5.1,8.3,2.7c3.8-3.3,7.3-6.9,10.8-10.5c1.2,0.4,1.1,1.8,1.5,2.8c1.4,4.3,2.6,8.6,4.3,12.8c1.7,3.8,7.6,3.5,9.3-0.2
	c3-6.2,5.5-12.7,8.4-18.9c3.5,1.1,6.7,3.2,10.2,4.7c-3.3,6.8-6.7,14.2-13.4,18.4c-7.5,4.7-16.1,7.1-24.6,9.3
	c-18.4,4.6-37.1,8-56,9.8c-31.1,2-62.4,1.9-93.3-2.6c-23.4-3.5-46.8-8.1-68.7-17.1c-10.1-4.2-20.6-8.8-28.2-17
	c-7.5-8.2-10.4-19.4-12.5-30c-3.4-17.8-4-36-2.6-54C353.1,530.1,357,512.4,363.8,495.8 M449.2,533.9c-9.1,0-18.2,0-27.3,0
	c-3.3,0.1-6,2.8-6.1,6.1c0,13.8,0,27.6,0,41.4c-2.3,0.5-4.7,0.8-6.9,1.7c-2.8,1.2-4,4.8-2.5,7.4c1.7,3.6,6.1,4.1,9.3,5.7
	c0.4,4.5-0.7,9.2,0.8,13.5c1.4,3.2,5.2,3.3,8.2,3.3c-2.4,4.5-5.3,8.7-7.8,13.1c-1.9,4.1,3,8.9,7,7c6.1-2.6,12.1-5.2,18.2-7.8
	c1.1-0.4,2.2-1.2,3.4-0.9c0.5,7.6,1.3,15.1,1.9,22.7c0.2,2.8,2.5,5.3,5.4,5.4c2.7-0.2,4.4-2.4,5.7-4.5c3.9-7,7.1-14.5,11.2-21.4
	c5.5,5.8,10.6,11.9,16.2,17.6c2.8,2.9,8.3,1,8.6-3c0.2-7.3-2.2-14.6-2.2-21.8c6.7-0.5,13.4-1.1,20-1.7c2.3-0.4,4.4-2.1,4.8-4.5
	c0.5-2.6-1.5-4.6-3.2-6.1c-5.3-4.8-10.8-9.3-16.2-14.1c4.8-6.7,10.5-12.9,15.3-19.6c2-3.3-0.3-8-4.2-8.1c-4.6,0.2-9.1,1.7-13.6,2.5
	c1.9-6.3,4.7-12.2,6.7-18.5c1-3.2-1.7-6.8-5-6.6c-3,0.3-5.3,2.4-7.7,4c-0.1-3.3,0.7-6.8-1-9.8c-1.2-1.8-3.2-2.5-5.2-2.8
	c-7.5,0-15.1,0-22.6,0c-1.2-2-3.1-3.9-5.6-4.3C452.3,529.2,449.7,531.3,449.2,533.9z"/>
<path class="st0" d="M580.2,542.7c9-0.1,18,0,27,0c-0.4,3.5-0.8,7.1-1.2,10.6c-6.8-1.5-13.2-4.9-20.1-6.5c-2.5-0.5-4.6,1.4-5.9,3.3
	C580.2,547.6,580.1,545.1,580.2,542.7z"/>
<path class="st0" d="M625.3,542.6c2.9,0,5.8,0,8.7,0c-1.5,2.2-3.1,4.3-4.9,6.3C627.7,546.9,626.5,544.8,625.3,542.6z"/>
<path class="st0" d="M432.2,545.1c5.7-0.1,11.5,0.3,17.2-0.2c0.2,4.3,0.6,8.6,0.5,12.9C444,553.5,437.9,549.6,432.2,545.1z"/>
<path class="st0" d="M467.6,545.1c3.6,0,7.2,0,10.8,0c0,3.1,0,6.1,0,9.2c-1.1,0.8-2.3,1.6-3.5,2.4C472.3,552.9,470,549,467.6,545.1z
	"/>
<path class="st0" d="M631.3,562.3c4.8-3.7,7.3-9.8,12-13.5c0.3,5.1-0.1,10.2,0.1,15.2c0,2.2,1.5,4.4,3.7,5.1
	c5,1.5,10.2-1.9,15.1-1.3c-3.5,5.5-7.6,10.6-11,16.2c-1.7,2.8,0.1,6.6,3,7.7c4.5,1.8,9,3.4,13.6,4.9c-4.9,2-10.3,2.8-15.2,4.9
	c-1.7,0.8-2.7,2.6-3,4.4c0.1,4.5,1.8,8.9,1.8,13.4c-4.2-1.7-7.9-4.5-12.4-5.5c-7.3,0.4-6.7,10.2-10.8,14.1
	c-1.6-4.1-1.7-9.6-5.6-12.2c-6.4-2.3-9.4,5.7-14.1,8.2c-0.2-4.5,1.4-11.8-4.5-13.2c-4.8-0.1-9,2.8-13.6,3.8
	c3.2-5.1,7.2-9.7,10.5-14.8c1.9-2.7,0.6-6.8-2.5-8c-4-1.3-8.3-2.1-12.4-3.1c5-2.8,10.6-4.4,15.7-7c1.9-1.1,3.1-3.4,2.7-5.6
	c-0.6-5.4-5.1-9.3-6.8-14.2c5.2,0.9,10.2,5.3,15.6,3.4c4.7-3.5,2.3-10.4,4.2-15.2c2.4,3.6,4.3,7.4,6.8,11
	C625.7,563.1,629,564,631.3,562.3z"/>
<path class="st0" d="M460.4,554c3.4,3.9,5.5,8.9,8.7,12.9c1.6,2,4.4,3.1,6.8,1.8c3.7-1.9,6.6-5,10.2-6.7c-1.2,3.7-2.9,7.2-4,11
	c-1,2.8,1,6.3,4,6.8c3.2,0.6,6.2-1.3,9.4-1c-2.9,4-6.3,7.6-9.1,11.7c-1.4,2.1-0.9,4.8,0.6,6.7c3.6,4,8.5,6.9,11.9,11
	c-5,0.8-10.3,0.2-15.2,1.7c-4.9,3-1.8,9.3-1.8,13.9c-3.9-2.9-6.4-7.5-10.3-10.4c-2.7-1.9-6.8-0.8-8.2,2.2c-2.4,4.4-4.6,9-7,13.5
	c-0.4-4.7-0.8-9.4-1.2-14.1c-0.4-3.3-4.3-5.2-7.2-3.9c-4.1,1.5-8,3.4-12,5c1.4-4.9,5.6-8.8,7.2-13.7c1.3-2.5,0.2-5.8-2.3-7.1
	c-3.7-1.8-7.7-3.2-11.5-4.9c-0.2-0.2-0.5-0.7-0.7-1c4-0.9,8.1-1.5,12.1-2.6c3.3-0.7,5.3-4.6,3.9-7.7c-2.1-5.6-4.6-11.1-6.6-16.8
	c4.2,3.1,8.4,6.1,12.7,9.1c2.1,1.5,5.1,2.3,7.5,1.1c2.2-1.3,2.8-4.1,2.6-6.5C460.6,562,460.8,558,460.4,554z"/>
<path class="st0" d="M580.1,553.6c2,3.3,3.9,6.6,5.9,10c-1.9-0.1-3.9,0-5.8,0C580.1,560.2,580.2,556.9,580.1,553.6z"/>
<path class="st0" d="M426.2,561c1.1,3.3,2.6,6.4,3.9,9.7c-1.1,0-2.2-0.1-3.2-0.1C426.6,567.4,427.4,564.1,426.2,561z"/>
<path class="st0" d="M580.1,573.4c3.9,0,7.8,0,11.6,0c0,0.3,0,0.9-0.1,1.2c-3.9,1.5-7.7,3.2-11.6,4.8
	C580.1,577.3,580.1,575.3,580.1,573.4z"/>
<path class="st0" d="M579.7,598c2.7,0.7,5.4,1.2,8,2l-0.9,1.2c-2.2,0.7-4.7,0.1-7.1,0.3C579.8,600.6,579.7,598.9,579.7,598z"/>
<path class="st1" d="M642.5,531.9c1.9-2.5,4.9-5.5,8.3-3.8c3.1,1.3,3.2,5,3.4,7.8c0,7.4-0.1,14.8,0,22.1c3.3-0.5,6.5-1.2,9.7-1.8
	c3.9-0.4,7.9-2.4,11.9-1.3c5.1,2.3,3.1,8.8-0.1,12c-3.9,5.7-8,11.3-11.9,17.1c3.3,1.3,6.7,2.5,10.1,3.7c4.8,2,10,3,14.3,6
	c2.8,2.4,1.8,7.2-1.6,8.5c-5.2,1.9-10.6,3.1-16,4.7c-3.3,1-6.6,1.9-9.9,2.9c1,5.4,1.8,10.8,2.8,16.1c0.4,1.7,0.2,3.4-0.2,5
	c-0.2,0.4-0.7,1.1-0.9,1.5c-3.5,3-7.9,0.4-11.3-1.2c-3.4-1.5-6.6-3.6-10.2-4.7c-2.9,6.3-5.4,12.7-8.4,18.9c-1.6,3.7-7.6,4-9.3,0.2
	c-1.6-4.2-2.8-8.6-4.3-12.8c-0.5-1-0.4-2.4-1.5-2.8c-3.5,3.5-7,7.2-10.8,10.5c-2.8,2.4-7.6,0.9-8.3-2.7c-1-4.8-0.2-9.8-0.5-14.7
	c-6.8,2.5-13.5,5.2-20.4,7.5c-3.9,1.4-8.3-2.6-6.8-6.6c2.2-4.3,5.5-7.9,8.2-11.9c2.7-3.7,5.3-7.3,8-10.9l0.9-1.2
	c-2.6-0.8-5.3-1.4-8-2c-3.5-0.9-7-1.7-10.5-2.5c-2.7-0.5-5.6-2.4-5.6-5.5c-0.1-3.2,2.9-5.1,5.6-6.1c3.6-1.5,7.2-3,10.8-4.6
	c3.9-1.5,7.7-3.3,11.6-4.8c0-0.3,0-0.9,0.1-1.2c-2-3.2-3.9-6.5-5.8-9.8c-2-3.3-3.9-6.6-5.9-10c-0.2-1.2-0.2-2.4,0-3.6
	c1.3-1.9,3.3-3.8,5.9-3.3c6.8,1.6,13.2,5,20.1,6.5c0.3-3.5,0.8-7.1,1.2-10.6c0.4-3.6,0.7-7.2,1.4-10.7c1-1.1,1.9-2.5,3.5-2.8
	c2.7-1.1,5.1,1.1,6.7,2.9c2.2,3.5,4.2,7.1,6.5,10.6c1.2,2.1,2.4,4.3,3.8,6.3c1.8-2,3.4-4.1,4.9-6.3
	C636.9,539.2,639.8,535.6,642.5,531.9 M631.3,562.3c-2.3,1.7-5.6,0.8-7.2-1.4c-2.5-3.5-4.4-7.4-6.8-11c-1.9,4.8,0.5,11.8-4.2,15.2
	c-5.3,1.9-10.4-2.5-15.6-3.4c1.6,5,6.2,8.8,6.8,14.2c0.4,2.2-0.8,4.5-2.7,5.6c-5.1,2.7-10.7,4.2-15.7,7c4.1,1,8.4,1.8,12.4,3.1
	c3.1,1.2,4.4,5.3,2.5,8c-3.3,5.1-7.3,9.7-10.5,14.8c4.6-1,8.8-3.9,13.6-3.8c5.9,1.4,4.3,8.7,4.5,13.2c4.8-2.5,7.7-10.5,14.1-8.2
	c3.9,2.7,4,8.1,5.6,12.2c4.1-3.9,3.4-13.7,10.8-14.1c4.4,1.1,8.2,3.9,12.4,5.5c0-4.5-1.6-8.9-1.8-13.4c0.3-1.8,1.2-3.6,3-4.4
	c4.9-2.1,10.3-2.8,15.2-4.9c-4.6-1.5-9.1-3.2-13.6-4.9c-3-1.1-4.7-4.9-3-7.7c3.4-5.6,7.6-10.7,11-16.2c-4.9-0.6-10.1,2.8-15.1,1.3
	c-2.2-0.7-3.7-2.9-3.7-5.1c-0.2-5.1,0.2-10.2-0.1-15.2C638.6,552.5,636.1,558.6,631.3,562.3z"/>
<path class="st1" d="M449.2,533.9c0.5-2.6,3.1-4.7,5.7-4.3c2.4,0.4,4.3,2.2,5.6,4.3c2.3,3.8,4.6,7.5,7.1,11.2
	c2.4,3.9,4.7,7.8,7.3,11.6c1.2-0.8,2.3-1.6,3.5-2.4c3.6-2.6,7.3-5.2,11-7.8c2.4-1.6,4.7-3.7,7.7-4c3.4-0.2,6.1,3.5,5,6.6
	c-2,6.2-4.8,12.2-6.7,18.5c4.6-0.7,9-2.2,13.6-2.5c3.9,0.1,6.2,4.8,4.2,8.1c-4.8,6.7-10.5,12.9-15.3,19.6
	c5.3,4.8,10.9,9.3,16.2,14.1c1.7,1.6,3.7,3.6,3.2,6.1c-0.4,2.4-2.5,4.1-4.8,4.5c-6.7,0.6-13.4,1.1-20,1.7c0,7.2,2.4,14.5,2.2,21.8
	c-0.4,4-5.8,5.9-8.6,3c-5.6-5.7-10.7-11.8-16.2-17.6c-4.1,6.9-7.3,14.3-11.2,21.4c-1.3,2.1-3,4.3-5.7,4.5c-2.9-0.1-5.2-2.6-5.4-5.4
	c-0.6-7.6-1.4-15.1-1.9-22.7c-1.2-0.3-2.3,0.5-3.4,0.9c-6.1,2.6-12.1,5.2-18.2,7.8c-4.1,2-8.9-2.9-7-7c2.5-4.4,5.4-8.6,7.8-13.1
	c2.1-3.5,4.8-6.9,6.2-10.7c-5.1-2-10.1-4.1-15.1-6.1c-3.2-1.6-7.6-2.1-9.3-5.7c-1.5-2.6-0.3-6.2,2.5-7.4c2.2-1,4.6-1.2,6.9-1.7
	c5.6-1.1,11.1-2.5,16.6-3.4c0-2.5-1.7-4.8-2.4-7.2c-1.2-3.2-2.7-6.4-3.9-9.7c-1.4-3.7-3.1-7.3-4.4-11.1c-1-2.6,0.5-6,3.2-6.8
	c2.5-1.2,5,0.7,7.1,1.9c5.7,4.5,11.8,8.4,17.6,12.7c0.1-4.3-0.3-8.6-0.5-12.9C449.6,541.2,448.6,537.5,449.2,533.9 M460.4,554
	c0.4,3.9,0.2,7.9,0.5,11.9c0.3,2.4-0.4,5.1-2.6,6.5c-2.5,1.2-5.4,0.4-7.5-1.1c-4.3-3-8.5-6-12.7-9.1c2,5.7,4.5,11.1,6.6,16.8
	c1.4,3.1-0.6,7-3.9,7.7c-4,1.1-8.1,1.8-12.1,2.6c0.2,0.2,0.5,0.7,0.7,1c3.8,1.7,7.8,3,11.5,4.9c2.5,1.2,3.6,4.6,2.3,7.1
	c-1.6,5-5.8,8.8-7.2,13.7c4-1.6,7.9-3.5,12-5c2.9-1.3,6.8,0.6,7.2,3.9c0.5,4.7,0.9,9.4,1.2,14.1c2.4-4.4,4.5-9,7-13.5
	c1.5-2.9,5.5-4.1,8.2-2.2c3.9,2.9,6.4,7.5,10.3,10.4c0-4.6-3.1-10.8,1.8-13.9c4.9-1.5,10.1-1,15.2-1.7c-3.5-4.2-8.3-7-11.9-11
	c-1.6-1.8-2.1-4.6-0.6-6.7c2.8-4.1,6.2-7.7,9.1-11.7c-3.2-0.3-6.2,1.6-9.4,1c-3-0.4-5-4-4-6.8c1.1-3.7,2.8-7.3,4-11
	c-3.7,1.8-6.6,4.9-10.2,6.7c-2.3,1.3-5.2,0.2-6.8-1.8C465.8,562.9,463.8,558,460.4,554z"/>
</svg>
