<svg version="1.1" xmlns="http://www.w3.org/2000/svg" xmlns:xlink="http://www.w3.org/1999/xlink" x="0px" y="0px" viewBox="0 0 1000 1000" style="enable-background:new 0 0 1000 1000;" xml:space="preserve">
<style type="text/css">
	.st0{fill:#6089FF;}
	.st1{fill:#000000;}
	.st2{fill:#F4F7FF;}
</style>
<path class="st0" d="M724.4,536.4c-4.8-19.1-14.4-36.5-25-53c4-12.3,5.7-25.4,5-38.4c-0.9-17.9-7.4-35.6-19.2-49.2
	c-10.2-12.4-26-20.6-42.2-20.3c-13.2-0.4-26.4,4.2-36.9,12.2c-17.9-12.1-37.6-21.4-57.9-28.9c-15.9-5.6-32.3-10.2-49.1-12
	c-1.8,0-3-1.5-4.2-2.5c-12.5-11.3-28.2-19.5-45-21.6c-17.3-2.3-35,3-49.2,12.9c-17.5,12.2-30,30.5-38.1,50c-2.5,3.4-6,5.9-8.8,9.1
	c-18.7,19.1-30.3,43.8-38.9,68.8c-11.1-2.1-21.8-6.2-31.9-11.3c-17-8.8-31.8-21.3-45.6-34.5c-4.4-3.9-8.6-8.5-14.2-10.6
	c-5.9-1.5-11.4,2.6-15,6.9c-7.4,8.8-11.5,19.8-15.5,30.5c-3.8,10.2-6.1,20.9-8.2,31.5c-1.1,5.3-1.2,11.5,2.9,15.6
	c5.6,5.7,13.2,8.6,20.3,12.1c-5.1,3.1-10.8,5.5-15.2,9.7c-5.3,5.8-3.3,14.4-1,21c4.9,13.5,13.2,25.8,23.9,35.3
	c3.5,2.9,7.7,6.7,12.6,5.3c4.9-1.7,7.8-6.4,11-10.1c10.4-13.2,22.4-25.5,36.7-34.5c-11.4,16.8-19.5,36.1-21.5,56.4
	c-2.5,22.2,3.1,44.8,13.6,64.4c13.8,24.6,34.9,44.4,58.5,59.5c17,10.9,35.3,20,54.7,26.2c18.4,5.9,37.1,10.7,56.1,14.4
	c22.1,4,44.6,6.9,67.1,6.3c40.3-0.8,81.5-6.7,117.9-24.8c12.6-6.3,25-13.2,36.8-21.1c11.3-7.5,21.3-16.6,30.9-26.2
	c12.6-12.5,23-27.1,30.9-43c8.1-17.3,13-36.4,13-55.6C733.7,569.7,729,552.9,724.4,536.4z"/>
<path class="st1" d="M431.7,343.6c16.3-4.3,34.1-0.5,48,8.6c20.2,13.1,33.2,35,39.4,57.9C469,422.1,418.8,434,368.6,445.9
	c-0.5-25.4,6.1-51.5,21-72.4C399.8,359.3,414.4,347.6,431.7,343.6z"/>
<path class="st1" d="M513.9,367c20.5,4.3,40.3,11.7,59,21.1c7.4,3.7,14.3,8.2,21,13c-12,18.2-17,40.5-15.5,62.2
	c-14.2-2.5-28.6-3.9-43-5.7C538.8,426.1,530.8,393.8,513.9,367z"/>
<path class="st1" d="M631.5,392.5c11.7-3.6,24.9-0.9,34.5,6.6c12.3,9.4,19.1,24.4,21.5,39.4c-28.5-7.2-57-14.4-85.6-21.6
	C608.6,405.8,618.8,396.2,631.5,392.5z"/>
<path class="st1" d="M325.8,492.5c6.4-24.6,14-49.5,28.9-70.5c-1.2,18.6,0,37.5,5.1,55.5C348.3,482,337,487.1,325.8,492.5z"/>
<path class="st2" d="M369.4,457.4c50.7-12.1,101.4-24.1,152.1-36.1c4,23.2,2,47.6-6.7,69.6c-5.9,14.8-14.9,28.5-27.1,38.7
	c-9.2,7.7-20.4,13.2-32.3,15c-17.9,3-36.4-3.5-50.1-14.9C384,511.9,372.4,484.6,369.4,457.4z"/>
<path class="st1" d="M210.2,438.3c1.8-3.6,3-8.3,6.8-10.3c2,0.4,3.2,2.2,4.5,3.5c14.5,16.2,32.7,29.2,52.9,37.2
	c11,4.5,22.4,7.8,33.9,11c-1.7,6.8-2.9,14.4-8,19.7c-3.3,3.2-7.7,5.2-12.3,5.4c-26.9,2.7-54.8-1.6-78.7-14.3
	c-3.9-2.1-7.2-5.8-7.4-10.4C200.5,465.7,205,451.5,210.2,438.3z"/>
<path class="st2" d="M596.8,427.3c30.5,7.7,61.1,15.4,91.6,23.1c-0.4,16.1-4.8,32.5-14.4,45.6c-7.2,9.9-17.6,18.1-29.8,20.5
	c-11.8,2.7-24.5-1.4-33.3-9.4c-11-9.7-17.1-23.9-19.2-38.2C589.9,454.9,591.5,440.4,596.8,427.3z"/>
<path class="st1" d="M535,479c4-5.1,10.9-6.3,17-6.2c6.1,0.3,12.2,0.8,18.1,2.1c4.1,0.9,7.8,3.4,9.9,7.1c4,6.6,6.3,14.1,10.5,20.6
	c7.9,12.4,20,22.8,34.5,26.3c13.6,3.5,28.4,1.3,41-5c5.9-2.9,12.2-7,19.1-5.6c8.1,1.9,14.2,8.4,18.5,15.2c4.3,6.6,6.5,14.3,7.8,22
	c-8.2-2.4-16.9-3.5-25.5-3.1c-17.4,0.5-33.3,10-50.9,9c-16.5-1.1-30.6-10.8-45.7-16.5c-13.6-5.2-29.1-4.5-42.4,1.2
	c-16.1,6.8-30.2,17.4-45.7,25.3c-17.6,9.2-37.4,14.7-57.3,15.1c-16.5-0.2-32.8-3.9-47.9-10.4c-20.9-8.8-39.7-21.9-60-31.9
	c-8.1-4-16.6-7.5-25.6-9.2c-5.1-0.9-10.3-0.3-15.2,1c9.2-10.7,19.9-20.2,32-27.6c8-4.9,16.1-9.8,25-12.8c4.1-1.5,9.1-1,12.4,2.1
	c3.2,3,5.2,7,7.3,10.8c8.4,15.5,20.3,29.3,35.5,38.6c13,8,28.5,12.2,43.7,11.2c15.7-0.9,30.7-7.3,43-17c14.8-11.7,25.6-27.8,32.9-45
	C529.4,490.2,531.2,484,535,479z"/>
<path class="st1" d="M212.7,521.7c6.7-3.3,13.5-6.5,20.5-9c1.5-0.7,3.2-0.1,4.7,0.2c10.2,2.2,20.6,3.7,31,4.7
	c-14.5,7-27.4,17.3-38.1,29.3c-2.1,2.2-3.9,4.8-6.5,6.5c-1.8,1.2-3.7-0.4-4.8-1.8c-5.9-7.2-10.2-15.7-12.8-24.7
	C207.6,524.2,210.5,523,212.7,521.7z"/>
<path class="st1" d="M301.3,549.3c10.3-1.8,20.5,1.6,29.9,5.6c15.4,6.9,29.3,16.9,44.4,24.5c17.2,9.1,35.7,16.3,55.1,18.8
	c19.3,2.7,39.3-0.7,57.1-8.4c18-8.2,34.4-19.2,52.2-27.7c11.5-5.2,24.3-9.4,37-7c16.5,2.9,31,12.1,47.3,15.7
	c11.4,2.5,23.4,2.2,34.8-0.3c12.8-2.6,25.7-6.8,38.9-5c5.6,0.7,10.9,3.7,13.7,8.7c4.1,6.5,4.4,14.4,3.9,21.9
	c-0.8,18.1-7.6,35.4-16.8,50.9c-15.8,26.1-39.7,46.5-66.5,60.6c-17.6,10.1-36.6,17.6-56.4,22.2c-20.2,4.6-40.8,8.2-61.6,8.8
	c-19.7,0.6-39.5-0.2-58.9-3.3c-34.9-6.1-69.6-15.4-101.4-31.3c-13.5-7-26.7-14.8-38-25c-13-11.8-23.6-26.2-30.9-42.1
	c-6.4-13.7-10.5-28.7-10.9-43.9c0-10.3,1.2-21.1,6.9-29.9C285.5,555.9,293.1,550.8,301.3,549.3z"/>
</svg>
