<svg version="1.1" xmlns="http://www.w3.org/2000/svg" xmlns:xlink="http://www.w3.org/1999/xlink" x="0px" y="0px" viewBox="0 0 1000 1000" style="enable-background:new 0 0 1000 1000;" xml:space="preserve">
<style type="text/css">
	.st0{fill:#000000;}
	.st1{fill:#EDEDED;}
	.st2{fill:#FF5400;}
	.st3{fill:#464B4B;}
	.st4{fill:#959898;}
</style>
<path class="st0" d="M949.1,668.9c-12.5-33.5-25-67-37.4-100.5c-1-2.7-2.6-5.5-5.6-6.3c-14.7-4.7-29.5-9.2-44.2-13.8
	c-2.8-0.9-5.9-1.5-8.6,0c-29.7,16.9-59.2,34.2-88.9,51.2c-2.2,1.3-4.8,2.8-5.5,5.5c-0.5,1.8,0.3,3.5,0.9,5.1
	c14.4,34,28.8,67.9,43.2,101.9c1.1,2.8,2.8,6,6.1,6.6c17.6,4.2,35.2,8.1,52.9,12.2c2.8,0.8,5.9,0.2,8.2-1.5
	c25.3-17.1,50.6-34.1,75.9-51.2C949.5,676.3,950.7,672.2,949.1,668.9z"/>
<path class="st1" d="M766.7,773.8c8.2-8.3,19.5-13.9,31.2-13.9c6.4,0.2,13.1,1.8,18.2,5.9c6.1,4.7,9,13,7.5,20.5
	c-1.2,6.9-5,13-8.4,19c-1.8,3.4-4.1,7.3-2.7,11.3c1.5,3.1,5.4,4,8.5,3c13.1-2.8,26.5-4.7,39.9-4c14.5,0.8,30.1,4.1,40.7,14.9
	c8.5,8.4,12,21,9.9,32.6c3.9,5.3,7.2,11.3,8.4,17.9c2.6,11.7-1.6,25.4-12,32.1c-4.9,3.2-10.9,3.1-16.5,2.9
	c0.1,7.5-1.9,15.6-7.9,20.6c-7.8,6.8-19.6,6.7-28.5,2.3c-7.7-3.8-14.8-9.2-23.2-11.3c-10.2-2.8-20.8-0.7-30.8,1.8
	c-12.5,3.2-25.3,5.4-38.2,4c-11.4-1-22.8-4.8-31.2-12.8c-5.6,4.2-13.3,6-20.1,4c-6.5-2-10.4-8.1-12.9-14.1
	c-4.8-13.3-7.4-27.4-6.9-41.5c0.5-14.7,1.5-29.7,6.9-43.5c3.6-7.9,8.8-16.4,17.4-19.2c9.8-2.6,19.4,2.9,26.9,8.8
	c2.4-1.2,4.9-2.3,7.4-3.4C751.6,797.7,756.6,783.8,766.7,773.8"/>
<path class="st2" d="M773.9,783c5-6,12.3-10,20-11.1c5.3-0.7,11.3,0.1,15.3,4c2.9,2.7,3,7.3,1.5,10.8c-2,4.5-4.9,8.6-7.2,12.9
	c-4.8,9-7.9,19.6-5.9,29.9c-2.2,1-5.2,1.8-5.9,4.5c-0.8,3.2,2.9,5.9,5.8,4.5c13-4.7,26.6-8,40.4-9.2c14.8-1.2,30.4-0.8,44.1,5.5
	c8.8,4,17,12.4,16.2,22.8c-9.7-7.2-21.6-10.5-33.4-11.9c-19.6-2.4-39.5-0.1-58.7,4.2c-2.7,0.3-5.3,3.2-3.8,5.9
	c1,2.7,4.5,2.8,6.8,2.1c15.6-3.4,31.6-5.4,47.5-4.4c9.3,0.7,18.8,1.9,27.4,5.5c6.8,2.9,13,7.6,17,13.9c3.8,6.2,5.5,13.9,3.7,21
	c-0.8,2.9-2.6,6.1-5.8,6.9c-4.9,1.1-10-0.4-14.7-1.5c-4.9-13.9-17.1-24.4-31-28.6c-14.6-4.4-30.5-4.5-45.2-0.7
	c-3.9,0.9-3.8,7.2,0.3,7.8c4.2,0.3,8.4-1.4,12.6-1.6c13.1-1.2,27-0.2,38.7,6.4c8.6,4.9,15.4,13.2,17.7,23c1.4,5.9,1.5,12.7-1.8,18
	c-1.9,3.2-6,4.3-9.5,3.5c-6.1-1.4-11.2-5.3-16.6-8.2c-13.9-8.1-30-13.7-46.2-12.5c-4.4,0.1-5.6,6.2-1.6,8.1
	c-11.2,3.1-22.8,5.5-34.4,3.7c-12.8-1.8-26.5-6.9-33.8-18.2c-1.6-2.2-2.8-5.9-6.2-5.7c-2.8-0.1-4.7,3.1-3.6,5.5
	c1.2,2.8,3.1,5.3,4.7,7.9c-3.9,1.8-7.9,3.8-12.3,3.9c-2.7,0-4.4-2.5-5.5-4.7c-4.7-10.2-6.4-21.5-6.3-32.7c-0.2-13.9,1.2-28,6-41.1
	c2-4.6,4.4-10.7,10-11.5c4.8,0.1,8.7,3.6,12.5,6.1c-7.6,7.3-13.2,16.9-14.6,27.4c-1.3,9.3,0.7,19.3,6.1,27.1c1.5,2.4,5.7,2.5,7-0.1
	c1.4-2,0-4.2-1-5.9c-5.6-9.4-5.2-21.5-0.3-31.1c7.9-15.8,27-25.3,44.3-20.9c2.7,0.5,5.8,2.5,8.3,0.5c2.3-1.8,1.6-5.7-1-6.8
	c-5.3-2.5-11.2-3-16.9-3.2C763.7,803.3,766.7,791.6,773.9,783 M781.5,838.5c-1.8,0.9-2.7,3.4-1.8,5.3c5.6,12.5,8.1,27,3.8,40.2
	c-0.9,4.5,6.1,6.4,7.8,2.2c3.6-8.2,3.4-17.5,2.1-26.2c-1.1-6.7-2.9-13.4-6-19.5C786.4,838.5,783.6,837.4,781.5,838.5z"/>
<path class="st3" d="M779.7,605.5c26.3-15,52.6-30.3,79-45.2c11.2,3.6,22.3,7.2,33.5,10.7c-24,15.1-48,30.2-72.2,45.1
	C806.6,612.7,793.1,609.2,779.7,605.5z"/>
<path class="st4" d="M826.8,624.1c24.9-15.5,49.7-31.1,74.6-46.7c11.4,30.8,22.8,61.7,34.1,92.5c-23.6,15.5-47.1,31-70.7,46.4
	C852.2,685.6,839.4,654.9,826.8,624.1 M868.7,608c-1,3.5,1.5,6.7,2.7,9.8c-1.3,0.8-2.7,1.5-4,2.3c-1.9-2.6-3.1-6.2-6.5-7.2
	c-3.4-1.1-6.9,2.6-5.9,5.9c1,2.9,2.9,5.3,4.5,7.8c-3.2,3.5-6.6,6.9-8.2,11.4c-1,3,1.4,6.6,4.7,6.5c3.7-0.2,5.1-3.9,7-6.5
	c4.8,11.4,9.6,22.7,14.3,34c-2.1,0.5-4.5,0.5-6.3,1.8c-2.7,2-2.3,6.8,0.8,8.2c3.9,1.8,8.1-0.2,11.9-1.5c0.9,2.2,1.5,4.7,3,6.6
	c2.2,2.7,7.2,1.9,8.3-1.5c1.1-3.2-1-6.3-1.8-9.3c1.5-0.8,3-1.7,4.5-2.5c1.3,1.7,2.3,3.9,4.4,4.8c2.8,1.4,6.4-0.8,6.7-3.9
	c0.4-2.9-1.8-5.2-3.2-7.5c4.3-5,7.5-11.9,5.3-18.5c-1.6-6.2-7.3-10.5-13.4-11.8c1.9-4.2,3-9.2,0.8-13.5c-2.8-6.6-10.4-9.6-17.2-8.9
	c-1.4-2.9-2.3-6.1-4.3-8.6C874.4,603.6,869.7,604.6,868.7,608z"/>
<path class="st3" d="M775.5,615c13.1,3.4,26.3,6.9,39.4,10.4c1.6,0.1,2.1,1.7,2.7,2.9c12,29.4,24.3,58.8,36.3,88.2
	c-12.7-3.1-25.3-6.3-38-9.4c-1.3-0.2-2.4-0.9-2.7-2.2C800.6,675,788.1,645,775.5,615z"/>
<path class="st4" d="M870.8,630.3c4.1-3,9-5.8,14.3-5.1c2.7,0.1,5.2,3,4,5.7c-2.2,5.8-7.5,9.6-12.7,12.7
	C874.5,639.2,872.6,634.8,870.8,630.3z"/>
<path class="st4" d="M880.4,653.3c4.7-2.8,9.6-6.3,15.3-5.9c4,0.2,6.7,4.7,5.2,8.5c-2.5,6.1-8.6,9.6-14.1,12.5
	C884.6,663.4,882.5,658.3,880.4,653.3z"/>
</svg>
