<svg version="1.1" xmlns="http://www.w3.org/2000/svg" xmlns:xlink="http://www.w3.org/1999/xlink" x="0px" y="0px" viewBox="0 0 1000 1000" style="enable-background:new 0 0 1000 1000;" xml:space="preserve">
<style type="text/css">
	.st0{fill:#959898;}
	.st1{fill:#FF002C;}
	.st2{fill:#000000;}
</style>
<path class="st2" d="M432.4,405.5c29.8-15.8,64.3-22.9,97.9-19.7c16.5,1.6,32.7,5.8,48.2,11.8c18.5,7.3,36.1,17.7,50,32
	c20.1,20.7,34.1,47.1,40.8,75.1c6.4,24.8,7.8,50.8,5.4,76.2c-1.4,16.4-4.9,32.6-10.5,48.1c-6.2,15.6-13.6,30.9-24.2,44.1
	c-9,11.2-19.2,21.8-31.5,29.4c-2.6,1.8-6.6,1.1-8.1-1.8c-1.7-2.7,0-6.1,2.5-7.6c6-4,11.6-8.4,16.6-13.6c2.5-2.6,5.2-5.1,6.3-8.6
	c-10.8,2.5-21.5,5.8-32.5,7.4c-24.9,4.1-50.1,6.2-75.3,5.9c-19.1-0.4-38.2-1.1-57-4.3c-21.8-3.5-43.6-7.5-64.6-14.3
	c-4-1.2-7.7-3.3-12-3.4c0.5,4.2,3.4,7.5,5.8,10.8c7.5,9.8,17.1,17.7,27.1,24.9c2.1,1.6,5,3.2,4.8,6.2c0.5,3.6-3.6,6.5-6.9,5.3
	c-3.7-1.5-6.9-4-10.2-6.2c-21.9-16-38.9-38.2-50.2-62.7c-9.5-20.8-13.8-43.8-15.1-66.5c-1.3-33.5,4-67.8,19.8-97.6
	C375.3,445.7,402,421.4,432.4,405.5 M495.5,397.8c-33.7,3.9-66,18.7-91.5,41.1c-6.5,6-14,12.7-14.6,22.2c-0.3,6.5,5.4,11,11.3,12.2
	c22.5,5.2,45.3,9.4,68.3,11.8c22.9,2.4,46,4,69,4.3c23.7,1,47.5-0.4,71.1-2.1c8.4-0.7,16.9-1.2,25.1-2.9c3.7-0.8,7.8-3,8.5-7.1
	c1-5.8-2.6-10.9-5.2-15.7c-9.4-16.9-23.4-31.1-39.8-41.2C567.4,401.9,530.8,393.5,495.5,397.8"/>
<path class="st0" d="M373.4,483.6c3.8-1.4,7.9-0.8,11.7-0.2c6.4,1.1,12.7,2.6,19.1,4c22.4,4.9,45.1,8,67.8,11
	c25.6,2.3,51.2,4.3,76.9,4.2c25-0.5,50.2-0.7,75-4.2c8-0.7,15.9-2.7,24-2.9c4.8-0.1,7.5,4.6,8.9,8.6c3.3,10,4.1,20.6,5.6,31
	c2.2,15.7,2,31.7,0.8,47.4c-1.1,15.8-4.9,31.4-10.8,46.1c-2.3,5.7-5.1,11.2-8.8,16.1c-5.1,6.3-13.1,9.2-20.6,11.7
	c-16,5-32.6,8.1-49.2,10.7c-26.8,3.7-54,3.6-81,2.3c-21.5-1.4-42.9-4.7-63.9-9.5c-15.9-3.6-31.5-8.8-46.1-16
	c-7.6-3.9-15-8.9-19.7-16.1c-5.3-8.1-7.5-17.6-9.4-27c-3.6-19.7-3.9-39.8-1.7-59.7c1.2-11,3.3-21.9,6.7-32.4c2-6.3,4-12.8,7.5-18.5
	C368,487.5,370.3,484.8,373.4,483.6"/>
<path class="st2" d="M457.2,514.2c7.1-1.2,14.2,2.8,18,8.6c7.6,11.3,7.2,27-0.1,38.4c-3.8,5.8-10.1,10.3-17.1,10.3c-6.5-0.4-12.2-4.5-15.5-10
	c-7.5-12.4-6.2-29.6,3.3-40.5C448.8,517.6,452.8,515.1,457.2,514.2"/>
<path class="st2" d="M600.4,525.6c6.3-2.3,13.2,1,17,6.1c7,9.2,7,22.8,0.9,32.5c-2.9,4.5-7.6,8.2-13.1,8.8c-5.8,0.6-11.3-2.8-14.6-7.5
	c-5.2-7.5-6.2-17.6-3.1-26.1C589.6,533.3,594,527.6,600.4,525.6"/>
<path class="st2" d="M453.4,583.5c5.1-1.9,10.8-0.7,15.4,1.7c6.9,3.6,11.5,10.7,13.5,18.1c3,10.4,1.2,22.1-4.8,31.2c-3.8,5.7-9.7,10.1-16.5,11.2
	c-7.4,1.2-15-2.4-19.8-8c-9.4-11.2-10.2-28.2-3.3-40.9C441.2,590.8,446.6,585.6,453.4,583.5"/>
<path class="st2" d="M599.3,585.6c6.8-2.5,14.6,0.5,19.5,5.6c8.1,8.8,9.6,22.5,4.7,33.2c-2.8,6.5-8.3,12.2-15.3,14.1c-7.5,2.1-15.6-1.6-20.1-7.6
	c-8.8-11.5-7.8-29.1,2.2-39.6C592.8,588.7,595.9,586.7,599.3,585.6"/>
<path class="st1" d="M457.3,524.5c2.4-0.7,5.2-0.6,7.2,1c4.3,3.4,6,9.1,6.3,14.4c0.4,6.7-1.3,13.9-6.2,18.7
	c-2.1,2.2-5.5,3.5-8.5,2.4c-3.5-1.4-5.7-4.9-6.9-8.3c-2.5-6.9-1.9-14.8,1.3-21.3C452,528.5,454.2,525.7,457.3,524.5z"/>
<path class="st1" d="M602.2,534.2c3.7-1.6,7.6,1.1,9.3,4.4c3.5,6.7,3.1,15.4-1.2,21.7c-2,3.1-6.4,5.4-9.8,3.1
	c-4.9-3.3-6.2-9.8-5.9-15.3C595,542.7,597.1,536.7,602.2,534.2z"/>
<path class="st1" d="M454.5,593.7c7-3.3,14.5,2.1,17,8.7c3.4,7.9,3,17.5-1.1,25.1c-2.3,4.3-6.3,8.1-11.3,8.7
	c-4.8,0.5-9.2-2.5-11.7-6.4c-4.7-7.2-5.2-16.7-2.3-24.7C446.7,600.3,449.8,595.8,454.5,593.7z"/>
<path class="st1" d="M600.4,594.5c4.9-2.3,10.8,0,13.6,4.5c5.9,9,4.5,23.1-4.6,29.5c-4.5,3.3-11,1.7-14.2-2.7
	C588,616.5,589.7,600.3,600.4,594.5z"/>
</svg>
