<svg version="1.1" xmlns="http://www.w3.org/2000/svg" xmlns:xlink="http://www.w3.org/1999/xlink" x="0px" y="0px" viewBox="0 0 1000 1000" style="enable-background:new 0 0 1000 1000;" xml:space="preserve">
<style type="text/css">
	.st0{fill:#FFD400;}
	.st1{fill:%%ST1%%;}
	.st2{fill:#FFFFFF;}
	.st3{fill:#000000;}
</style>
<path class="st3" d="M433.1,405.1c33.8-17.8,73.6-24.3,111.2-17.4c28.1,5.5,55.7,16.7,77.5,35.5c14.5,12.9,26.1,28.9,34.7,46.3
	c7.1,13.8,11.5,28.8,14.8,43.9c5.2,25.1,5.6,51.2,2.3,76.6c-2.4,17.5-6.9,34.9-14.6,50.9c-5.7,12.9-13,25.2-22.2,35.9
	c-8.2,9.7-17.5,18.8-28.4,25.5c-2.6,1.8-6.6,1.1-8.1-1.8c-1.6-2.7,0.1-6.1,2.6-7.5c7.7-5.1,14.9-11.1,20.8-18.2c1-1.1,1.4-2.6,2-3.9
	c-11.5,2.7-22.9,6.1-34.7,7.7c-29.1,4.7-58.6,6.6-88.1,5.1c-17.8-0.3-35.5-2.4-53-5.6c-20.4-3.7-40.9-7.6-60.4-14.8
	c-1.7-0.4-3.5-1.6-5.2-0.7c-0.1,1.8,1,3.5,1.9,5c7.8,12.3,19.1,21.8,30.8,30.2c2.1,1.6,5,3.2,4.9,6.2c0.5,3.7-3.6,6.5-7,5.3
	c-3.7-1.5-6.9-4-10.2-6.2c-21.9-16-39-38.2-50.3-62.8c-9.6-21.1-13.8-44.2-15.1-67.2c-1.2-33.2,4.2-67.2,19.8-96.8
	C375.4,445.4,402.4,421,433.1,405.1 M495.6,397.8c-33.6,3.9-65.6,18.5-91.1,40.7c-5.7,5.3-12.1,10.8-14.4,18.6
	c-1.5,4.1-0.5,9.1,2.7,12.2c2.8,2.6,6.6,3.7,10.3,4.5c21.5,4.7,43.1,8.8,65,11.1c23.3,2.4,46.7,4.1,70.1,4.4c23,1,46-0.4,69-1.9
	c9.1-0.8,18.3-1.3,27.3-3.1c3.7-0.8,7.9-3,8.5-7.1c1-5.8-2.6-10.9-5.1-15.8c-9.4-16.9-23.3-31.1-39.8-41.2
	C567.4,401.9,530.9,393.5,495.6,397.8"/>
<path class="st0" d="M374.4,483.6c5.2-1.5,10.5,0.1,15.6,1c20.2,4.4,40.4,8.4,60.9,11.1c22.5,3.7,45.4,5.1,68.1,6.3
	c15.9,1,31.9,0.9,47.9,0.3c20.5-0.1,41-1.5,61.3-4.2c6.3-0.6,12.5-2.1,18.7-2.4c3.9-0.4,7.1,2.4,8.5,5.8c2.8,6.2,3.7,13,4.9,19.7
	c1.6,11.9,3.5,23.8,3.5,35.8c0.2,18.6-1,37.5-6.2,55.4c-3.3,11-7,22.1-13.7,31.5c-2.9,3.9-7.1,6.6-11.4,8.6
	c-8.3,3.8-17.3,6-26.2,8.2c-18.9,4.3-38.1,7.6-57.4,8.6c-23.6,1-47.3,1.1-70.8-1.3c-30.7-3.7-61.7-9-90-21.9
	c-10-4.5-20.2-10.5-25.8-20.4c-5.8-10.3-7.9-22.2-9.6-33.8c-3.8-31.6-1.4-64.3,10.2-94.1C365.3,492.3,368.2,485.7,374.4,483.6"/>
<path class="st1" d="M652,461c116-49.9,232.1-99.6,348-149.6v17.2c-184,79.2-368.2,158.1-552.2,237.2c-3,1.2-5.6,3.8-6.1,7.1
	c-1,4.6,2.7,9.6,7.4,10c3.6,0.5,6.8-1.4,10-2.7c180.3-77.5,360.6-154.8,540.9-232.4v16.1c-110.1,47.4-220.3,94.7-330.4,142.1
	c-3.4,1.5-6.9,2.9-10.2,4.4c-56,24-112,48.1-168,72.2c-2.5,10.5-9,20-18.1,25.7c-9.9,6.4-22.7,8.2-34,4.7
	c-11.3-3.3-21-11.8-25.7-22.6c-4.7-10.3-4.8-22.5-0.3-32.9c5.1-12.4,16.7-21.8,29.9-24.3c10-2.3,20.5,0.1,29.3,5.1
	c27.6-11.8,55.1-23.6,82.6-35.5c11.3-4.7,22.5-9.7,33.8-14.5c17.1-7.4,34.3-14.7,51.4-22.1C644.1,464.4,648.1,462.7,652,461
	 M417.2,571c-1.4,16.4,10.6,32.7,26.8,36c16.2,4,34.3-5.6,40-21.3c-7.3,3.1-14.5,6.3-21.8,9.4c-5.7,2.4-12.3,3.1-18.2,1
	c-8-2.6-14.3-9.8-15.9-18.1c-1.8-8.6,1.7-17.9,8.6-23.3c3.8-3.1,8.6-4.8,13.1-6.8c5.2-2.2,10.3-4.3,15.5-6.7
	c-6.3-2.7-13.4-3.5-20.2-2.1C430.1,542,417.9,555.6,417.2,571z"/>
<path class="st1" d="M674.4,533.3C782.9,492.6,891.5,452,1000,411.2v16.4c-130.1,48.8-260.3,97.3-390.4,146c-3.5,1-6.3,4.5-5.3,8.2
	c0.8,4.2,6,5.9,9.6,4.1c128.7-48.1,257.4-96.2,386.1-144.4v15.6c-108.4,40.7-216.8,81.3-325.2,122c-4,1.5-7.9,3-11.9,4.5
	c-5.9,2.2-11.8,4.4-17.7,6.6c-3.4,9.9-11,18.3-20.9,22c-14.7,6-32.9,0.2-41.5-13.1c-8.6-12.3-7.9-30.2,1.8-41.7
	c7.4-9.2,19.8-14.3,31.5-12.7c5.1,0.6,10,2.5,14.6,5c10.7-4,21.3-8,32-12C666.5,536.3,670.5,534.8,674.4,533.3 M601,551.9
	c-13.3,4.8-21.6,20.1-18.3,33.9c2.6,13.4,15.7,23.7,29.3,23.3c10.9,0.1,21.1-6.6,26-16.1c-6.2,2.1-12.2,4.6-18.3,6.7
	c-6.3,2.1-13.7,1.5-19.3-2.2c-7.3-4.6-11.2-14-9.1-22.4c1.4-7,6.8-12.8,13.3-15.5c6.2-2.6,12.6-4.7,18.8-7.2
	C616.3,549.6,608.2,548.9,601,551.9z"/>
<path class="st2" d="M447.8,565.8C631.8,486.7,816,407.7,1000,328.5v19.2c-180.3,77.5-360.6,154.9-540.9,232.4
	c-3.2,1.3-6.4,3.2-10,2.7c-4.7-0.4-8.4-5.3-7.4-10C442.2,569.6,444.7,567,447.8,565.8z"/>
<path class="st2" d="M609.6,573.6c130.1-48.7,260.3-97.3,390.4-146v14C871.3,489.8,742.6,537.8,613.9,586c-3.6,1.8-8.8,0.1-9.6-4.1
	C603.2,578.1,606.1,574.6,609.6,573.6z"/>
<path class="st2" d="M417.2,571c0.6-15.4,12.9-28.9,27.8-31.8c6.8-1.4,13.8-0.6,20.2,2.1c-5.1,2.3-10.3,4.5-15.5,6.7
	c-4.5,2-9.2,3.6-13.1,6.8c-6.9,5.4-10.4,14.7-8.6,23.3c1.5,8.3,7.8,15.5,15.9,18.1c5.9,2.1,12.5,1.4,18.2-1
	c7.3-3.1,14.5-6.3,21.8-9.4c-5.7,15.7-23.8,25.3-40,21.3C427.9,603.6,415.8,587.4,417.2,571z"/>
<path class="st2" d="M601,551.9c7.2-3,15.3-2.4,22.4,0.4c-6.2,2.6-12.6,4.6-18.8,7.2c-6.5,2.7-11.8,8.5-13.3,15.5
	c-2.1,8.4,1.8,17.8,9.1,22.4c5.6,3.8,13,4.4,19.3,2.2c6.2-2.1,12.2-4.6,18.3-6.7c-5,9.6-15.2,16.2-26,16.1
	c-13.7,0.4-26.7-9.9-29.3-23.3C579.5,572,587.7,556.8,601,551.9z"/>
</svg>
