<svg version="1.1" xmlns="http://www.w3.org/2000/svg" xmlns:xlink="http://www.w3.org/1999/xlink" x="0px" y="0px" viewBox="0 0 1000 1000" style="enable-background:new 0 0 1000 1000;" xml:space="preserve">
<style type="text/css">
	.st0{fill:#EDEDED;}
	.st1{fill:#FFD400;}
	.st2{fill:#F23DB6;}
	.st3{fill:#000000;}
</style>
<path class="st0" d="M493.6,386.3c34.4-4.5,69.8,2.8,100.6,18.4c13.6,7.1,26.3,16.1,36.7,27.4c13.4,14.4,23.8,31.5,31.2,49.7
	c14.4,37.5,16.9,78.9,10,118.3c-3.8,20.9-11.7,41-22.6,59.2c-8.2,13.3-18.5,25.4-30.5,35.5c-3.8,2.9-7.5,6.2-12,8.2
	c-3.7,1.6-8.2-2.1-7.1-6c1.1-4,5.6-5.3,8.4-7.8c6.6-5.2,13.5-10.7,17.7-18.1c-2.6-0.3-5,0.8-7.5,1.4c-17.4,5-35.4,7.4-53.4,9.4
	c-28.5,3-57.2,2.7-85.8,0.3c-20-2.1-39.7-5.8-59.3-10.2c-10.2-2.4-20.4-5-30.2-8.8c-1.7-0.7-3.5-1.1-5.2-1.2c-0.1,3.3,2.1,6,3.9,8.5
	c8.1,11.5,19.2,20.3,30.5,28.4c1.8,1.1,2.8,3,3.5,4.9c-0.4,3.8-4.4,7-8.1,5c-10-5.3-18.7-12.8-26.7-20.7
	c-13-13.2-23.8-28.6-31.8-45.2c-7.8-16.2-12.4-33.8-14.7-51.6c-3.2-23.1-2.2-46.6,2.1-69.5c6.2-32.4,22.1-63,46.1-85.7
	C417.6,409.2,454.6,390.9,493.6,386.3 M495.6,397.8c-33.8,3.9-66.1,18.7-91.6,41.1c-6.5,6-13.9,12.7-14.6,22.1
	c-0.3,6.5,5.4,11.1,11.2,12.2c22.2,5.1,44.7,9.3,67.4,11.7c24,2.5,48,4.2,72.1,4.4c22.8,0.9,45.6-0.5,68.3-2.1
	c8.7-0.8,17.4-1.3,25.9-3c3.8-0.8,7.9-3,8.5-7.2c1-6-2.9-11.2-5.5-16.2c-9.6-16.8-23.6-31-40.1-41.1
	C566.9,401.8,530.7,393.5,495.6,397.8"/>
<path class="st1" d="M374.3,483.6c4.9-1.4,10,0,14.8,0.9c16.5,3.5,33.1,7.1,49.8,9.5c14.6,2.1,29.2,4.5,43.9,5.6
	c22.7,1.8,45.4,3.4,68.1,3.2c14-0.4,28-0.4,42-1.2c14.7-0.8,29.3-2.6,43.9-4.6c4.3-0.5,8.6-1.9,12.9-1c4,1.2,5.9,5.4,7.1,9
	c3,9.5,3.9,19.6,5.2,29.4c2.5,18.3,2.2,37,0.1,55.3c-1.5,13-5,25.7-9.7,37.9c-2.2,5.7-5.1,11.3-8.6,16.3
	c-4.3,5.8-11.2,8.7-17.7,11.1c-15.3,5.2-31.3,8.2-47.2,11c-24.8,4.2-50,4.1-75,3.7c-24.6-0.8-49-4.3-73-9.6
	c-15-3.3-29.8-8.1-43.8-14.5c-7.2-3.3-14.3-7.4-19.8-13.1c-6.5-6.8-9.6-15.9-11.8-24.9c-4-16.9-5-34.4-4.3-51.7
	c0.9-20.5,4.6-41.1,12.5-60.1C366,491,368.9,485.4,374.3,483.6"/>
<path class="st3" d="M383.3,531.6c1.5-1.1,3.1,0.1,3.4,1.7c3.1,8,8.9,15.8,17.5,18.2c9.6,2.3,19.2-1.5,28.8-1.2c23.6-0.3,47.5,11.6,59.9,31.9
	c2.3,4.1,5.2,8.1,5.9,12.8c0.6,4.9-4.8,8.9-9.4,7.6c-3.8-0.8-5.6-4.5-7.5-7.5c-7.7-12.2-20.5-21.1-34.6-24.2
	c-15.6-3.5-32.5-0.2-45.8,8.7c-4.1,2.8-9,5.8-14.1,3.9c-8.3-2.9-14.3-10.2-18.3-17.8c-1.3-1.5-0.4-4.1,1.8-3.5
	c2.7,2.4,5.3,5.3,9.1,5.8c6.1,0.9,11.8-5.8,9.8-11.7c-2.5-7.7-7.2-14.8-7.1-23.1C382.9,532.7,383.2,531.9,383.3,531.6z"/>
<path class="st3" d="M643.5,551.3c1.2-1.3,3.4-0.1,3.2,1.7c-0.3,5.4-3.2,10.2-6.5,14.2c-1.9,2.2-3.4,5.4-1.5,8c2,4.3,8.2,5.5,11.8,2.3
	c1.6-1,3.3-4.2,5.3-2.3c1.3,3.8-0.7,7.9-2.3,11.3c-3,5.7-7.6,11.8-14.5,12.4c-5.5-0.1-8.9-5.2-13.2-8c-20.1-13-49-8.8-65.2,8.8
	c-2.3,2.3-4.1,5.5-7.5,6.3c-4.6,1.2-9.7-3.3-8.7-8c1.3-6.2,5.3-11.5,9.5-16.1c8.1-9.1,19.4-14.9,31.1-17.5
	c7.9-1.8,16.1-1.6,24.2-1.1c7.2,0.6,14.9,2.9,21.9-0.3C636.7,560.8,640.2,555.9,643.5,551.3z"/>
<path class="st2" d="M392.4,601.6c11.5-2.8,23.6-0.4,34.5,3.5c7.6,3,15.7,6.7,20.6,13.5c2.9,3.9,1.9,10-2.3,12.5
	c-6,3.7-13.5,3.4-20.2,2.7c-11.2-1.4-22.3-4.8-31.8-11.1c-4.1-2.8-8.3-6.6-8.9-11.9C383.9,606.2,388.2,602.7,392.4,601.6z"/>
<path class="st2" d="M603.4,619.6c7.7-1.4,16-1.7,23.3,1.6c3.7,1.6,7,5.5,6,9.8c-1.1,4.9-5.6,7.9-9.8,10c-8.6,3.9-18.3,5.2-27.7,3.8
	c-4.5-0.9-9.6-2.8-11.7-7.3c-1.8-3.5,0.1-7.6,2.8-10.1C591,623,597.3,620.9,603.4,619.6z"/>
</svg>
