<svg version="1.1" xmlns="http://www.w3.org/2000/svg" xmlns:xlink="http://www.w3.org/1999/xlink" x="0px" y="0px" viewBox="0 0 1000 1000" style="enable-background:new 0 0 1000 1000;" xml:space="preserve">
<style type="text/css">
	.st0{fill:#000000;}
	.st1{fill:#FF5400;}
	.st2{fill:#FFD400;}
	.st3{fill:#00A28A;}
	.st4{fill:#00A900;}
</style>
<path class="st0" d="M532.5,259.9c-5.2-19.5-12.1-38.7-22.2-56.2c-8-14.2-22.2-24.2-37.6-29.1c3.1-6.2,7.2-12,13.1-15.8
	c4.1-2.9,9-4.2,13.1-7c3.5-2.3,6-6.5,5.4-10.8c-0.7-5.3-4.4-9.7-8.7-12.7c-6.7-4.8-14.5-7.9-22.4-10.3c1.8-5.3,4.5-10.3,8.3-14.5
	c3.4-4,8.1-7.2,9.9-12.4c1.4-4-0.8-8.2-3.8-10.8c-5.6-5-13.4-6.5-20.7-6.8c-12.5-0.6-24.7,3.6-35.9,8.8C419.8,73,406,65.5,391,65.4
	c-6.2,0.2-12.8,1.1-18.2,4.5c-3.3,2.1-5.1,6.3-3.9,10.1c1.7,5.5,5.1,10.4,7.6,15.6c-12.3-0.6-25.4,0.5-36.3,6.6
	c-5.7,3.4-11,9-11.7,15.9c0.1,5.6,5.6,8.3,9.5,11.1c6,4,11.1,9.2,15.6,14.9c-7.5,5.2-14.9,11.4-18.4,20c-2.7,6.1-3.4,13.7,0.5,19.4
	c2.9,4.2,8,5.8,12.6,7.4c8.7,3,17.2,7.7,23.2,15c-6.1,9.8-10.4,20.7-12.5,32.1c-5.8,32.2-2.1,66,9.8,96.5
	c3.9,9.5,8.7,18.8,15.7,26.4c8.2,8.8,19.5,14.1,31.2,16.7c19.8,4,40.5,2.8,60.1-2c16.6-4.8,32.8-12.5,45.1-24.8
	c9.2-9.3,14.7-21.9,16.8-34.7C541,297.2,536.9,278.1,532.5,259.9z"/>
<path class="st1" d="M523,272.1c-4.3-18.5-10.3-36.6-18.5-53.7c-6.3-13.2-16.8-24.8-30.6-30.2c-13.2-5.8-28.2-5.7-42-2.3
	c-16.8,3.6-33.8,10.5-45.7,23.4c-10.6,12.2-14.4,28.8-16.2,44.5c-0.8,8.3-0.7,16.8,0,25.1c0.3,5,1,10,2,14.9
	c1.6,9.2,3.8,18.3,6.6,27.2c4.7,15.3,12.9,30.8,27.4,38.9c12,7.9,27,8.8,41,7.8c7.5-0.5,15-1.7,22.3-3.7c20.8-4.6,41.7-16.3,51.5-36
	C528.8,310.4,527,290.4,523,272.1z"/>
<path class="st2" d="M386.2,209.2c11.9-12.8,28.9-19.8,45.7-23.4c7-0.4,14,0.4,20.7,2.6c6.7,2.2,12.5,6.6,17.3,11.7
	c10.8,11.4,18.2,25.5,24.1,39.9c1.7,4.5,3.8,9,3.9,13.9c0.1,1.8-1,3.8-3,3.8c-5.8,0.2-11.1-2.6-16.6-4.1
	c-15.2-4.8-30.4-10.5-46.3-12.7c-2.7-0.9-4.8,2-3.2,4.3c3.4,1.9,7.5,1.9,11.2,2.9c12.4,2.9,24.7,6.6,36.4,11.5
	c6.8,3.1,14.1,6.3,18.8,12.2c2.4,2.8,0.3,6.4-1.8,8.6c-3.2,3.1-6.6,6.2-10.4,8.7c-3,2-6.8,1.7-10.1,0.8c-5.9-1.6-11.8-3.4-17.7-5.3
	c-23.2-7.7-47-13.4-71.3-16.5c-4.1-0.7-8.9-1.1-12-4.2c-2.1-3-1.8-6.9-1.9-10.3C371.8,238,375.6,221.4,386.2,209.2z"/>
<path class="st2" d="M370,278.8c1-2.1,2.5-4.4,5.1-4.6c6.4-0.9,12.9,0.3,19.3,1.1c20.2,3.2,40.1,8.1,59.4,14.9
	c5.2,2.1,10.9,3.9,15,8c2.3,2.5,0,5.8-1.5,8.1c-3.3,4.3-6.8,8.7-11.1,12c-3.7,2.9-8.6,1.2-12.7,0.2c-19.8-5.7-40.1-10-60.5-12.5
	c-6.3-0.6-9.9-6.6-11-12.3C371.1,288.8,370.3,283.8,370,278.8z"/>
<path class="st2" d="M497.4,285.4c1.9-1.2,4.1-2.6,6.5-2.3c2.5,1.1,2.9,4.2,3.6,6.5c0.7,3.9,1.9,7.9,1,11.8c-0.7,3-4.5,2.6-6.7,1.8
	c-5-2-10-4.3-13.8-8.1C489.9,290.9,493.7,288,497.4,285.4z"/>
<path class="st2" d="M479.4,304.5c6.6-2.3,13.3,1.1,19.2,3.8c3.8,2,8.8,3.9,9.5,8.7c0.5,4.6-0.9,9.3-2.5,13.6
	c-1.6,3.6-4.4,7.4-8.5,7.7c-4.8,0.2-9.1-2.2-13.4-4.1c-5.4-2.6-11-4.9-16.6-7.3c-1.9-0.8-4.3-2.3-3.8-4.7c1-3.8,3.9-6.7,6.4-9.5
	C472.6,309.6,475.4,306.2,479.4,304.5z"/>
<path class="st2" d="M379.2,315.4c3-3.3,7.9-2.6,11.9-2.5c11.8,1.2,23.5,3.8,35,6.9c5.5,1.6,11.1,3.2,16,6c2.5,1.4,4.7,4.5,3.2,7.4
	c-2.7,6.6-7.1,12.3-10.7,18.4c-2.6,4-4.6,9.1-9.5,10.8c-6.4,2.4-13.3,0-19.2-2.6c-14.4-8.2-22.6-23.6-27.4-38.9
	C378.4,319,377.7,316.9,379.2,315.4z"/>
<path class="st2" d="M449.4,339.4c3-3.9,7.4-7.5,12.6-7.2c6.4,0.3,11.9,3.8,17.6,6.3c4.1,2.1,8.8,3.6,12.1,6.9
	c1.8,1.9-0.1,4.4-1.7,5.7c-6.4,5.1-13.4,9.3-20.7,12.9c-7.3,1.9-14.8,3.1-22.3,3.7c-3.3-0.9-7.4-1.5-9.2-4.7
	c-1.4-2.8,0.4-5.8,1.7-8.3C442.6,349.4,445.7,344.2,449.4,339.4z"/>
<path class="st3" d="M385.7,77.8c2.9-1.6,6.3-0.9,9.4-0.4c8.7,1.6,16.9,5.4,24,10.6c1.8,1.2,3,3.1,3.9,5.1
	c-4.2,3.5-8.5,7.1-12.3,11.1c-1.3-0.7-2.4-1.5-3-2.9c-3.3-6.1-7.2-12-12.4-16.6C392.4,82.1,389,80,385.7,77.8z"/>
<path class="st3" d="M452,88.2c4.7-1.4,9.6-2,14.5-1.8c-2.2,2.5-5.6,3.1-8.3,4.8c-9.2,5.3-15.2,14.9-18,24.9
	c-0.9,2.8-1.4,6.2-4.2,7.8c-3.7,2-7.4,4.1-11.3,5.8c-2.1,1.2-3.9-0.8-5.3-2.2c-2.3-2.6-5.1-4.9-6.7-8.1c-1.2-2.4,0.5-4.9,2-6.8
	C424.5,101.2,437.6,92.5,452,88.2z"/>
<path class="st3" d="M355.1,108.8c9.9-1.9,20.4-0.7,29.6,3.5c9.5,4.2,18,10.5,25.3,17.8c1.8,1.9,3.9,4,4,6.8
	c-2.6,3.4-6.5,8.6-11.4,6.3c-4.2-1.6-8.6-2.6-12.8-4.2c-6.2-3.2-9.8-9.6-15.1-13.8c-8.3-7.4-19-11.3-30-12.2
	C347.5,110.4,351.4,109.5,355.1,108.8z"/>
<path class="st3" d="M449.5,129.3c9.5-1.4,19.4-0.1,28.2,3.9c3.4,1.7,7.1,3.2,9.7,6.1c-6.9,0.8-13.8,1-20.5,2.8
	c-10.5,2.6-19.9,8.9-26.5,17.3c-1.9,2-3.4,4.9-6.4,5.2c-3.3-1.4-5.4-4.4-8.1-6.6c-3.1-2.9-7.5-5.4-8.1-10.1
	c-0.5-1.4,0.9-2.5,1.8-3.4C428.1,137.2,438.2,131.1,449.5,129.3z"/>
<path class="st3" d="M375.7,148.4c13-3.1,26.3,2.7,36.7,10.2c5.8,4.5,12.2,8.9,15.5,15.7c-2.5,2.3-6.1,2.6-9.2,3.6
	c-2.5,0.6-5.1,1.8-7.7,1.3c-2.6-1.5-3.8-4.4-5.4-6.8c-4.9-8.5-11.5-16.4-20.6-20.5C382,150.5,378.7,149.9,375.7,148.4z"/>
<path class="st3" d="M355.6,157.6c3.3-1.7,7.6-1.2,10.4,1.2c5.6,4.4,11.4,8.9,14.9,15.3c-8-1.7-15.5-6.2-23.9-6
	c-4.6-0.5-8.8,1.9-13.4,2.1C345.8,164.7,350.4,160.4,355.6,157.6z"/>
<path class="st4" d="M383.7,82.3c9.6,4.6,16.7,13.5,20.8,23.1c0.9,2.1,0.7,6.4-2.4,6c-3.6-1.3-6.9-3.3-9.9-5.7
	c-1.3-2.3-1.2-5.2-1.9-7.7C389,92.4,386,87.5,383.7,82.3z"/>
<path class="st4" d="M462.2,94.1c4.5-2.1,9.5-3.8,14.5-3.2c-2.7,3.5-6.3,6.2-8.9,9.9c-3.6,4.7-5.8,10.1-7.5,15.7
	c-1,4.3-6.3,3.2-9.5,3.9c-2.1,0.1-6.8,1.3-6.4-2.2C446.7,108.3,452.9,98.8,462.2,94.1z"/>
<path class="st4" d="M346.7,118.5c8.8-0.4,16.8,4.2,23.8,9.1c3.5,3.1,7.6,6.4,8.7,11.2c-4.2,0.6-8.1,2.3-12.1,3.5
	c-1.3-0.5-1.6-2-2.4-3C360.3,131.1,354.1,124.1,346.7,118.5z"/>
<path class="st4" d="M445.1,161.1c9-11.1,23.9-17.4,38.1-15.9c-6.7,4.5-13.4,9.3-17.7,16.3c-2.9,3.8-3.9,9.3-8.2,11.8
	c-4,1.3-8.3,0.4-12.5,0.4c-2.1-0.1-5.6-0.1-5.6-3C439.7,166.9,442.9,164.1,445.1,161.1z"/>
<path class="st4" d="M374.5,153.7c11.4,1,20.4,9.5,26,18.9c1.7,3.1,3.9,6.4,3.2,10.1c-1.4,2.2-4.2,3.3-6.6,3.7
	c-2.1-1.6-2.8-4.4-3.9-6.7c-2.9-7.9-7.6-15.2-13.9-20.9C377.5,157.2,375.9,155.5,374.5,153.7z"/>
<path class="st4" d="M345.8,175.2c9.2-4.2,20-1.9,28.8,2.2c4.8,2.4,10.7,5.1,12.2,10.7c1.5,4-0.8,8.9-4.8,10.4
	c-1.8,0.3-2.6-1.8-3.7-2.8c-6.5-8.5-15.8-15-26.2-17.6C349.8,177.5,347.1,177.4,345.8,175.2z"/>
</svg>
