<svg version="1.1" xmlns="http://www.w3.org/2000/svg" xmlns:xlink="http://www.w3.org/1999/xlink" x="0px" y="0px" viewBox="0 0 1000 1000" style="enable-background:new 0 0 1000 1000;" xml:space="preserve">
<style type="text/css">
	.st0{fill:#FFD400;}
	.st1{fill:#000000;}
</style>
<path class="st1" d="M618.1,360c-1.1-5.7-5.9-9.6-10.2-12.9c-9.4-7.1-20.1-12.3-29.9-18.8c12.1-8.8,23.7-19,31-32.2c4.1-7.4,6.4-16.2,4.5-24.6
	c-1.1-5-5.2-9.6-10.5-10c-6.7-0.6-12.8,2.7-19,4.7c-11.8,4.1-24.5,4.9-36.9,4.1c-9.1-0.7-18.3-2.4-26.4-6.7
	c-7.2-3.8-12.9-9.8-18.5-15.5c-17-17.8-34.6-35.4-55.8-48.2c-24.5-14.5-54.1-18.9-82.1-15c-11,1.8-22.5,5.3-30.7,13.3
	c-13.1-9-28.3-16.3-44.6-16c-7.5,0.2-15.3,1.3-21.8,5.3c-3.7,2.2-5.7,7.2-3.4,11.1c4,7.7,14.1,12.8,22.4,8.9
	c5.1-2.3,10.1-5,15.8-5.2c9.7-0.8,18.5,4,26.5,8.9c-0.6,8.3,1.9,16.5,6.1,23.7c8,14.1,19.9,25.5,30.1,37.9c2.9,3.6,6,7.1,7.6,11.5
	c1.8,5,0.6,11.1-3.4,14.7c-4.1,4.2-10,5.9-15.7,6.1c-13.1,0.5-25.9-2.9-38.8-5.1c-4.4-0.6-9.3-1-13.3,1.4c-4.8,2.6-7.4,8.4-6.5,13.8
	c0.9,6.7,4.8,12.5,9.2,17.5c11.2,12.5,25.7,22,41.6,27.5c3.1,1.1,6.3,2,9.1,3.7c1,0.6,2.4,1.9,1.6,3.2c-2.2,4-5.6,7.2-8.2,11
	c-5.2,7.3-10.5,14.9-11.9,24c-1.3,6.4-0.5,14,4.7,18.6c6.9,6,16.8,6.2,25.4,5.2c10.4-1.8,20.1-6.2,29.3-11.2
	c15.7-8.9,30.1-20.4,41.6-34.3c9.8-12.3,18.8-25.8,23-41.1c1.1-3.9,3.1-9.2,8-9c5.6,0.8,10.1,4.6,15,7.2
	c31.1,19.5,66.1,34.6,103.1,37c8.4,0.3,17.2,0.6,25-3C615.3,369.1,619.1,364.9,618.1,360z"/>
<path class="st0" d="M362.6,199.9c20.3-1.9,41.2-1.9,60.7,4.9c23.2,8,42.6,24.1,58.9,42c13.7,14.8,25,31.6,37.7,47.2
	c10.5,13.1,22.2,25.3,35.3,35.8c10,8.1,21.5,14.2,32.9,20c4.8,2.6,9.8,4.9,13.9,8.6c0,0.3,0,1-0.1,1.3c-3.8,1.2-7.9,1.4-11.9,1.4
	c-20.5-1-40.4-6.8-59.4-14.4c-12.8-5.2-25.5-10.9-37.6-17.5c-17.7-10-34.1-22.2-48.9-36.2c-11.6-10.8-22.2-22.5-34.1-33
	c-17.5-15.7-36.7-29.4-55.8-43.1c-3.1-2.5-6.5-5.3-7.6-9.3c-0.6-2.1,0.5-4.7,2.7-5.2C353.6,201,358.1,200.5,362.6,199.9
	 M370.4,215.4c-2,1.7-1.1,4.9,1,6.1c5.5,3.9,11,7.8,16.5,11.6c2,1.6,5.7,0.8,5.9-2.1c0.5-2.2-1.4-3.8-3-4.9
	c-5.1-3.5-10.2-7.2-15.3-10.7C374,214.3,371.8,213.9,370.4,215.4z"/>
<path class="st0" d="M343.4,221.4c1.6-1.6,3.9-0.1,5.6,0.6c4.8,2.7,9,6.3,13.5,9.4c25.6,19,51.3,38.6,71.9,63.1
	C443,305,450.1,318,448.9,332c-2.4,13.9-10.4,26-19.2,36.8c-10.6,13.5-24.6,24.2-39.8,32.1c-8.4,4.4-17.5,7.9-27,8.7
	c-3.4,0.1-7.4,0-10-2.5c-1.9-2.3-0.6-5.5,0.4-7.9c3.4-7.1,8.5-13.3,12.9-19.8c9.4-13.5,20.3-26.3,26.2-41.9
	c6-15.2,5.6-32.8-1.1-47.8c-7.4-16.8-20.1-30.5-32.1-44.1c-5.4-6-11-11.8-15.5-18.6C342.6,225.5,342.3,223.2,343.4,221.4 M416.2,291
	c-1.9,1.1-2.3,3.9-0.7,5.5c6.3,7.8,12.6,16.3,14.5,26.5c0.8,3.3-0.2,6.7,0.1,10c0.6,3.1,5.3,3.5,6.6,0.6c1.7-4.1,1.2-8.7,0.4-12.9
	c-2.3-10.5-8.4-19.6-15.1-27.8C420.7,291.2,418.3,289.5,416.2,291z"/>
<path class="st0" d="M582.4,279.5c6.3-1.8,12-4.8,18.2-6.9c0.2,11-5.9,21-12.9,29c-6.4,6.8-14,12.8-22.9,16
	c-4.1,1.7-8.3-0.5-11.2-3.3c-8.6-7.7-16.5-16.2-23.9-25.2c-1.3-1.7-2.9-3.8-2.1-6c1.4-2,4.1-1.1,6.2-1.1
	C550,283.8,566.7,284.5,582.4,279.5z"/>
<path class="st0" d="M372,311c2.9-1.6,5.5-4.4,9-4.5c2.6,0.9,2.6,4.2,3.1,6.4c0.9,11.1-2.9,22.2-8.3,31.8c-2,3.6-5.1,7.4-9.6,7.4
	c-10,0-19.6-3.4-28.4-7.8c-8.9-4.6-17-10.8-23.5-18.4c-3.3-4.1-6.8-8.8-6.1-14.4c7.5-0.3,14.5,3,21.8,4.4
	C343.9,319.1,359.5,318.7,372,311z"/>
</svg>
