<svg version="1.1" xmlns="http://www.w3.org/2000/svg" xmlns:xlink="http://www.w3.org/1999/xlink" x="0px" y="0px" viewBox="0 0 1000 1000" style="enable-background:new 0 0 1000 1000;" xml:space="preserve">
<style type="text/css">
	.st0{fill:%%ST0%%;}
	.st1{fill:%%ST1%%;}
</style>
<path class="st0" d="M650.2,236.8c-12-13-26.1-24.1-41.8-32.2c-2.4-1-5.1-4.1-7.6-1.9c-9.4,7.2-18.3,15.1-26.4,23.8
	c0.4-11.5,0.9-23,1.5-34.5c0.4-2.2-1.3-3.8-3.2-4.4c-6.1-2.3-12.5-3.9-18.9-5.5c-2.2-0.9-4.2,0.6-5.1,2.5c-3.4,6.3-5.8,13-8.6,19.6
	c-0.3-7.1,0.1-14.1-0.2-21.2c0-2-2.4-2.1-3.8-2.1c-15.4-0.6-30.8,1-45.9,3.5c-20.4,3.7-40.6,9.3-59.3,18.5
	c-13.6,6.5-26.8,14-38.6,23.3c-20.2,15.7-36.3,36.9-45.1,61c-6.4,18.1-8.7,37.6-7.3,56.7c0.5,3.5,0.5,7.5,2.7,10.5
	c2,0.9,3.7-0.5,5-1.8c9-8.7,18.2-17.4,28.6-24.4c18-12.2,37.8-21.8,58.5-28.5c5.3-1.5,10.6-3.2,16.2-3.4
	c14.9,6.7,28.5,16.2,41.1,26.6c11.9,9.7,21.9,21.4,31.1,33.7c20.4-0.4,40.6,3.8,60.1,9.3c1.3-4.2,1.4-8.6,2.2-12.9
	c1.6-9.3,3.7-18.7,7.2-27.5c11.9-31.1,34-58.1,61.9-76.1c1.1-0.9,3-1.7,2.8-3.4C655.6,242.5,652.7,239.7,650.2,236.8z"/>
<path class="st1" d="M508.4,208c0.4-3.3,0.7-8.1,4.7-9c5.1-0.6,10.3-0.1,15.4,0c1.7,9.9,3.3,19.9,4.9,29.8c0.3,2,1.2,4.6,3.6,4.5
	c2,0.3,3.1-1.8,3.9-3.3c4.1-9.3,8.2-18.7,12.4-28c3.8,0.7,7.7,1.5,11.5,2.5c-0.4,12.2-0.8,24.4-1.2,36.5c0.1,2-0.5,4.9,1.8,6
	c1.9,1.3,3.9-0.3,5.2-1.5c10.2-9.2,20.5-18.4,30.7-27.6c7,3.5,13.7,7.7,20.2,12.2c-1,5.8-7.6,7.5-10.4,12.1
	c-0.9,1.6,1.2,3.4,2.8,2.6c4.8-2.7,8.5-7.6,14.2-8.4c3.9,0.9,6.2,4.6,9.2,7.1c-23.8,18.6-42.4,43.7-54.3,71.5
	c-4.9,11.4-8.5,23.5-10.1,35.8c-14.7-3.2-29.6-5.1-44.6-5.2c-9.5-12-20.6-22.6-32-32.7c-15.4-13.4-32.5-24.9-51.6-32.4
	c-10-3.8-20.8-6.6-31.6-6c-6.9,0.5-14.2,2.5-19.5,7.3c-2.5,2.1-0.9,6.6,2.4,6.8c2.4-0.2,4.5-1.8,6.8-2.6c5-1.9,10.7-3.3,15.9-1.5
	c2.1,0.8,5.1,2.9,3.7,5.5c-3,1.7-6.4,2.5-9.5,3.9c-22.6,9.2-43.4,22.6-60.7,39.8c-1.8-22.6,5-45.4,17.4-64.2
	c15.6-23.7,39-41.6,64.6-53.2c15.7-7.2,32.5-12.1,49.6-14.9c5.8-1.1,11.7,2.9,13.6,8.3c3.2,8.5,3.3,17.8,4.2,26.7
	c2.7,31.4,8,62.9,19.9,92.3c0.6,2.1,3.4,3.5,5.1,1.8c1.6-1.3,0.8-3.5,0.3-5.2c-9.2-25.2-14.4-51.8-16.8-78.4
	C508.9,234,507.5,221,508.4,208 M558.2,268.9c-2.1,2.3-3,5.4-4.3,8.2c-3.3,8.4-5.6,18-3,26.9c1,2.4,4,0.7,4.6-1.2
	c5-10.4,6.4-22.4,5.3-33.9c-0.5-0.1-1.5-0.4-2-0.5L558.2,268.9z"/>
</svg>
