<svg version="1.1" xmlns="http://www.w3.org/2000/svg" xmlns:xlink="http://www.w3.org/1999/xlink" x="0px" y="0px" viewBox="0 0 1000 1000" style="enable-background:new 0 0 1000 1000;" xml:space="preserve">
<style type="text/css">
	.st0{fill:#000000;}
	.st1{fill:#EDEDED;}
	.st2{fill:#FF002C;}
	.st3{fill:#BE2D2B;}
</style>
<path class="st0" d="M734.3,592.8c-3.2-2.1-7.2-2.5-10.3-4.7c-2.6-4.5-3.3-9.8-5.5-14.5c-1.8-4.7-5.2-8.7-6-13.7
	c1.3-2.4,3.6-4.1,5.6-5.9c5.1-4.5,9.4-10.1,11.7-16.5c1.1-3.1,1.7-6.3,2.6-9.4c1.3-4.8,5.3-8,7.7-12.1c5.9-8.9,7.2-20.8,2.9-30.6
	c-2.2-5.7-6.6-10.2-11.1-14.1c-3.8-3-3.6-8.2-4.5-12.5c-1.6-9.3-5.5-18.1-11.7-25.3c-9.5-11.5-23.1-18.9-37.2-23
	c-4.8-1.4-9.8-2.2-14.1-4.7c-3-1.7-4.7-4.8-6.4-7.6c-6.9-11.1-15.9-21.1-27.3-27.7c-18.1-10.7-40-13.8-60.6-11.1
	c-14.8,1.7-28.8,7-42,13.6c-4.9,2.3-10.1,5.6-15.7,4.1c-5.7-1.8-10.6-5.5-15.9-8.3c-16.5-9.6-35.9-14.1-55-13
	c-20.2,1-39.7,8.4-56.6,19.4c-26.2,16.3-47.1,41.2-57.9,70.2c-2.7,6.8-4.3,14-7.4,20.6c-2,4.4-6.2,7.1-9.7,10.2
	c-21.3,18.2-39.3,40.9-50.3,66.8c-13.4,32.4-15.8,69.8-4.3,103.1c6.5,18.5,17.2,35.4,30.5,49.8c19,21,43.4,36.6,69.5,47.3
	c35.6,14.8,73.4,24.7,111.9,28.2c29.3,2.9,58.8,3.5,88.1,0.8c33.5-3.1,67.3-9.3,97.9-23.6c13.4-6.5,27.1-13.6,37.5-24.7
	c4.3-4.4,6.9-10,9.4-15.5c1.5-3.6,4.5-6.2,7.6-8.4c8.1-6,14.9-14.3,17.7-24.2c2.6-8.6,1.7-17.7-0.7-26.2c-0.6-2.7-2.1-6.1,0.6-8.1
	c8-7.5,16.3-16,18.5-27.2C745.3,605.7,741.5,596.9,734.3,592.8z"/>
<path class="st1" d="M657.2,471.9c6-2.2,12.5-1.9,18.8-2.2c3.9,0.1,8-0.8,11.6,1.1c-2,3.6-4.3,7-6.5,10.4c-1.2,1.7-2.4,3.6-4.4,4.5
	c-2.3,0.8-4-1.5-5.7-2.5C666.5,479.2,661.2,476.3,657.2,471.9z"/>
<path class="st1" d="M496,475.9c12.6-3.4,25.6-5.9,38.7-4.9c-2.4,6-7.7,10.2-11.4,15.4c-2,2.2-4.4,6.6-8,4.4
	c-5.7-3.2-10.8-7.2-16.3-10.8C497.4,479,496.5,477.6,496,475.9z"/>
<path class="st1" d="M700.3,479.3c1.8-2.4,3.2-6.3,6.7-6.5c11.6,2.2,22.8,11.8,23.4,24.2c0.7,7.9-3.8,15.8-10.8,19.6
	c-2,1.1-4.3-0.1-5.9-1.3c-8-6.1-16.1-12.1-24.1-18.2C692.2,490.6,696.8,485.3,700.3,479.3z"/>
<path class="st1" d="M556.2,476.1c3-1.1,6.2,0,8.9,1.4c5.9,3.2,11.2,8.3,13.1,14.9c2.7,8.7-0.3,18.2-5.4,25.5
	c-1.7,2.2-3.4,4.8-6,6.1c-2.7,0.3-5.1-1.5-7.3-2.7c-7.4-4.8-14.7-9.9-22-14.9c-1.2-1-3-1.8-3.4-3.5c0.2-2.2,1.7-3.9,3-5.5
	c4.6-5.5,9.2-10.9,13.8-16.4C552.6,479.2,554,477.2,556.2,476.1z"/>
<path class="st1" d="M630.6,476.8c3.1-0.8,6.6-0.7,9.2,1.5c8.7,6.6,17.5,13.1,26.1,19.8c2.4,1.6,1.3,4.7,0,6.7
	c-4.2,6.8-8.6,13.4-13,20.1c-1.6,2.7-4.7,4.2-7.8,4.2c-18.2-0.5-36.2-4.2-53.5-9.7c-1.6-0.6-3.4-1.2-4.6-2.4c-0.2-2,0.9-3.8,1.4-5.7
	c1.8-4.9,2-10.2,2-15.3c-0.2-3.1,2.9-4.4,5.1-5.5C606.7,485,618.4,480,630.6,476.8z"/>
<path class="st1" d="M466.4,485.7c4.7-2.1,9.7,0.4,13.7,2.9c6.7,4.4,13.2,9,19.8,13.5c1.7,1.4,4,2.6,4.6,4.9c-0.5,2.6-2.4,4.6-4,6.6
	c-4.9,5.8-9.6,11.7-14.7,17.4c-2.4,2.7-5.9,5.5-9.8,4.2c-14.3-3.9-28.1-9.9-41-17.3c-3.4-2.2-7.2-4.1-10-7c-1-1.6,0.9-2.7,1.9-3.6
	C439.1,498.3,452.5,491.3,466.4,485.7z"/>
<path class="st1" d="M677.9,514c0.9-1.6,2.3-2.8,3.8-3.9c5.8,4.6,12.4,8.4,17.4,13.9c-5.8,2-12,2.6-18,3.5c-3.9,0.4-8.1,1.8-11.8,0
	C672.1,522.9,675,518.4,677.9,514z"/>
<path class="st1" d="M519.9,518.8c2.5-1.8,5.2,0.6,7.3,1.9c5.8,4.2,12.1,7.9,17.7,12.4c1.4,0.8,1.4,3-0.4,3.1
	c-11.5,3.5-23.6,4.8-35.6,4c-1.9,0-3.6-0.8-5.3-1.4c2-4.5,5.6-7.9,8.6-11.7C514.8,524.5,516.9,521.2,519.9,518.8z"/>
<path class="st2" d="M715.5,603.7c4.7-1.1,10.2-1.6,14.1,1.6c3.8,3.2,3.5,9.2,0.7,13c-4.8,7.1-12.7,11.3-20.5,14.4
	c-14.4,5.6-29.7,8.7-44.9,11.3c-28.4,4.4-57.2,6.3-86,6.1c-49-1-98.1-4.9-146.4-13.6c-10.3-1.7-20.4-4.7-30.6-6.7
	c-3.2-0.9-6.8,1.8-6.5,5.2c0.3,2.4,2.6,3.8,4.5,4.9c28.5,15.6,59.6,25.9,91,33.9c22.7,5.7,45.7,10,68.9,12.6
	c22.8,2.5,45.9,3.8,68.8,1.7c11.8-1.2,23.6-3.1,34.6-7.7c7-3,14-7.6,17.3-14.7c1.9-3.9,1.5-8.4,2.4-12.5c2-2.1,5.2-2.4,7.9-3.2
	c4.4-0.9,8.6-2.6,13.1-3.2c3.1-0.2,5.1,2.5,6.5,4.9c5.3,9.2,3.9,21.2-2.3,29.6c-6.7,9.4-17.3,15-27.9,19
	c-20.2,7.5-41.8,10.2-63.3,11.4c-43.3,1.6-86.8-3-129-12.4c-21.5-5-43-11-63-20.4c-13.2-6.3-26-14-36.1-24.7
	c-6.8-7.3-12.5-16.8-11.8-27.1c0.1-6.4,4-12.5,9.8-15.1c9-4.3,19.4-3.6,29.1-3.1c18.2,1.6,36.2,5,54.2,7.7c30,4.6,60.1,7.9,90.4,9.1
	c19.4,0.3,38.9,0.6,58.3-1.3c22.2-2.1,44.2-5.9,65.7-11.9C694.9,609.7,705.1,606.2,715.5,603.7z"/>
<path class="st3" d="M456.7,652.1c6.1,0.1,12.2,1.3,18.3,2c25.9,3.1,52,5.1,78.1,6.3c36.9,1.8,74,0.4,110.5-5.1
	c2.5-0.2,6-0.9,7.3,1.8c1.2,3.8-1.8,7.2-4.5,9.2c-6.8,5-15.3,7.1-23.4,8.8c-22.1,4.1-44.7,3.6-67,1.9c-34.7-2.9-69.1-9.5-102.6-19.3
	C467.8,656,462,654.7,456.7,652.1z"/>
</svg>
