<svg version="1.1" xmlns="http://www.w3.org/2000/svg" xmlns:xlink="http://www.w3.org/1999/xlink" x="0px" y="0px" viewBox="0 0 1000 1000" style="enable-background:new 0 0 1000 1000;" xml:space="preserve">
<style type="text/css">
	.st0{fill:#EDEDED;}
	.st1{fill:#AAAAA9;}
	.st2{fill:#464B4B;}
	.st3{fill:#FF5400;}
	.st4{fill:#000000;}
</style>
<path class="st4" d="M951.6,640.4c-0.5-2.2-3-2.7-4.9-3.1c-27-5.3-54.1-10.7-81.1-16.1c-1.7-15.4-3.3-30.9-5-46.3c-0.2-1.9-0.8-4.2-2.8-4.8
	c-2.5-1.1-4.9,0.8-6,2.9c-13.3,21.9-26.5,43.8-39.8,65.7c-18.7-3.5-37.4-7.3-56.1-10.8c-3.1-0.8-5.9,2.8-4.4,5.7
	c1.4,2.5,3.7,4.2,5.6,6.3c19.4,19.6,38.9,39.1,58.2,58.7c-8.2,14.5-16.2,29-24.4,43.5c-1.3,1.9-1.5,4.8,0.6,6.2c2.2,1.4,4.7,0,6.7-1
	c23.6-12.2,47.2-24.2,70.8-36.4c12,12.6,23.7,25.6,35.6,38.3c1.2,1.3,3.1,2.3,4.9,1.5c2.3-0.8,2.7-3.6,2.2-5.7
	c-4.2-26.5-8.4-52.9-12.7-79.4c16.4-6.7,32.9-13.4,49.3-20.1C950.7,644.8,952.5,642.6,951.6,640.4z M851.2,672.8
	c-3.1-1.4-3.1-6.3,0-7.7c2.4-1.1,5.7,0.1,6.2,2.9C858.4,671.4,854.3,674.6,851.2,672.8z"/>
<path class="st0" d="M765.3,775.3c8.5-9.4,20.8-15.8,33.7-15.4c7.9,0.4,16.5,3.2,21.2,10c4.4,6.1,4.9,14.3,2.2,21.2
	c-2.3,7.4-7.8,13.4-10,20.8c-1.5,4.2,2.4,8.8,6.7,7.9c7.4-1.1,14.6-2.9,22-3.6c15.2-1.6,31.1-1.2,45.5,4.3c11.1,4.3,20.7,13.4,24,25
	c1.6,5.3,1.8,10.8,1,16.3c-0.4,1.5,1,2.6,1.6,3.8c6.5,9.1,9.4,21.2,5.9,31.9c-2.1,6.9-6.6,13.3-13.2,16.5c-4.5,2.2-9.7,1.9-14.5,1.8
	c0.1,7.5-2,15.6-7.9,20.6c-7.8,6.8-19.5,6.6-28.4,2.3c-7.7-3.8-14.8-9.2-23.3-11.3c-10.2-2.8-20.9-0.7-30.9,1.8
	c-12.3,3.1-25.1,5.3-37.9,4c-11.4-0.9-23-4.8-31.5-12.8c-5.6,4.2-13.3,6-20.1,4c-6.4-2-10.4-8.1-12.9-14c-4.7-13-7.3-26.8-6.9-40.6
	c0.4-14.5,1.4-29.3,6.4-43c3.5-8.2,8.6-17,17.3-20.4c10-3.2,20,2.5,27.6,8.6c2.4-1.2,4.9-2.3,7.4-3.4
	C751.6,798.5,756.1,785.2,765.3,775.3"/>
<path class="st1" d="M821.5,653.1c9.6-18.3,19.6-36.3,29.2-54.6c0,10.2,0.6,20.4,0.5,30.6c-0.5,3.1-2.1,5.8-3.6,8.5
	c-3.5,6.5-6.8,13.1-10.3,19.7C832,655.9,826.6,655,821.5,653.1z"/>
<path class="st1" d="M854.4,633.7c21.8,2.8,43.5,6.3,65.2,9.4c-10.6,4-21.3,8-32,12c-11.1-0.8-22.1-3.1-33.1-4.5
	C854.2,644.9,854.3,639.3,854.4,633.7z"/>
<path class="st1" d="M782.5,646.8c10.2,2.5,20.3,4.9,30.5,7.3c1.3,0.4,2.8,0.5,3.8,1.5c7.6,7.7,15.3,15.3,22.9,23.1
	c-3.1,4.7-6.3,9.4-9.3,14.1C814.3,677.6,798.5,662.1,782.5,646.8z"/>
<path class="st1" d="M871.1,664.2c4.5-1.5,9.1-2.8,13.6-4.3c4.1,21.3,7.6,42.7,11.6,64c-6.4-7.7-12.6-15.5-19-23.2
	c-0.6-0.9-1.7-1.7-1.8-2.9C874.3,686.6,872.6,675.4,871.1,664.2z"/>
<path class="st1" d="M830.4,699.2c10.1-4.8,20.2-9.4,30.4-14.1c3.1,3.8,6,7.7,9.2,11.4c-18.9,10.2-38.1,19.9-57,30
	C818.9,717.5,824.2,708,830.4,699.2z"/>
<path class="st2" d="M851.2,629.1c0.6,1.8,1.4,3.6,3.2,4.6c-0.1,5.6-0.2,11.2,0.2,16.9c11,1.4,22,3.7,33.1,4.5
	c-1.5,1.2-2.5,2.9-2.9,4.8c-4.5,1.5-9.1,2.9-13.6,4.3c1.4,11.2,3.2,22.3,4.3,33.6c-1.7-0.8-3.6-1.3-5.5-1.3
	c-3.2-3.7-6.2-7.6-9.2-11.4c-10.1,4.7-20.3,9.3-30.4,14.1c0.8-2.1,0.8-4.4,0-6.5c3-4.7,6.2-9.4,9.3-14.1
	c-7.6-7.7-15.2-15.4-22.9-23.1c1.5-0.7,3.2-1.3,4.4-2.5l0.2,0.1c5.2,1.8,10.6,2.8,15.9,4.2c3.5-6.5,6.8-13.1,10.3-19.7
	C849.1,634.9,850.7,632.2,851.2,629.1 M849.3,659.2c-3.2,1.3-5.6,4.3-6.2,7.7c-1.5,6.4,4.5,13,11,12.2c6.2-0.3,11.1-7.1,9.2-13.1
	C861.8,660.2,854.8,656.8,849.3,659.2z"/>
<path class="st3" d="M773.9,782.9c5-6,12.3-10,20-11.1c5.3-0.7,11.3,0.1,15.3,4c2.9,2.8,3,7.4,1.5,10.9c-2.5,5.6-6.3,10.6-8.8,16.2
	c-3.8,8.2-6,17.5-4.2,26.6c-2.2,1-5.2,1.7-5.8,4.5c-0.9,3.3,2.9,6,5.8,4.5c15.8-5.7,32.5-9.3,49.4-9.7c13.3-0.1,27.4,1.1,39,8.2
	c7.1,4.3,12.9,11.9,12.2,20.6c-10.1-7.6-22.7-10.8-35.1-12c-18.8-2.1-37.7,0.2-56.1,4.2c-1.7,0.4-3.9,0.8-4.7,2.6
	c-1.7,2.5,0.7,6.1,3.6,6c2.7-0.2,5.4-0.9,8.1-1.4c17.9-3.5,36.4-5,54.5-2.1c9.5,1.5,19.2,4.6,26.5,11.1c7.6,6.5,11.9,17.1,10,27.1
	c-0.7,3.2-2.5,7-6,7.8c-4.9,1.1-9.9-0.4-14.7-1.6c-4.7-13.3-16.1-23.6-29.4-28.1c-14.6-5-30.6-5-45.6-1.7c-1.9,0.4-3.8,1.5-4.1,3.6
	c-0.7,2.7,2.1,5.2,4.7,4.7c5.7-0.8,11.3-2.1,17-2.1c12.5-0.3,25.8,1.6,36.2,9.1c9.3,6.5,15.4,17.7,15,29.1
	c-0.3,4.2-1.2,8.8-4.5,11.6c-3.1,2.4-7.4,1.8-10.8,0.5c-5.9-2.4-11.1-6.2-16.8-9.2c-9.9-5.5-20.8-9.2-32-10.5
	c-4.3-0.2-8.9-1.1-13,0.5c-3.1,1.6-2.4,5.8,0.4,7.4c-11.1,3.1-22.8,5.5-34.3,3.7c-12.9-1.8-26.6-6.9-33.9-18.3
	c-1.6-2.2-2.8-5.9-6.2-5.7c-2.8-0.1-4.6,3.1-3.5,5.6c1.2,2.8,3.1,5.3,4.7,7.9c-3.9,1.8-7.9,3.8-12.2,3.8c-2.8,0.1-4.5-2.5-5.6-4.7
	c-6.9-14.6-6.8-31.1-5.9-46.8c1-10.3,2.7-20.8,7-30.2c1.9-3.7,4.7-8.4,9.5-8.2c4.4,0.6,7.9,3.7,11.5,6.1
	c-7.1,6.8-12.4,15.6-14.3,25.4c-1.9,9.9-0.1,20.8,5.8,29.1c1.5,2.4,5.7,2.5,7-0.2c1.4-2,0-4.2-1-5.9c-5.8-9.8-5.1-22.6,0.4-32.3
	c8.4-15.3,27.6-24.3,44.6-19.4c2.2,0.4,4.6,1.9,6.8,0.6c2.9-1.4,2.5-6.1-0.4-7.2c-5.3-2.5-11.2-3-16.9-3.2
	C763.7,803.3,766.7,791.6,773.9,782.9 M781.4,838.6c-1.8,1-2.6,3.5-1.6,5.3c4.5,10,6.8,21,5.6,32c-0.3,3.1-1.6,6-1.9,9.1
	c0.1,3.7,5.5,5,7.4,1.9c2.5-4.5,2.9-9.9,3.3-14.9c0.1-10.5-2-21.1-6.5-30.7C786.8,838.8,783.8,837.2,781.4,838.6z"/>
</svg>
