<svg version="1.1" xmlns="http://www.w3.org/2000/svg" xmlns:xlink="http://www.w3.org/1999/xlink" x="0px" y="0px" viewBox="0 0 1000 1000" style="enable-background:new 0 0 1000 1000;" xml:space="preserve">
<style type="text/css">
	.st0{fill:#EDEDED;}
	.st1{fill:#FF5400;}
	.st2{fill:#959898;}
	.st3{fill:#000000;}
</style>
<path class="st3" d="M831.1,495.4c15.3-3.5,31.4-1.5,46.5,2.2c18.8,5.2,36.7,14.4,50.9,27.9c11.1,10.3,20.3,23.5,23,38.6
	c2.2,13.7-1.5,27.4-6.3,40.1c-5,13.2-10.4,26.2-15.9,39.2c-8.2,18.6-15.6,37.5-24.1,56c-5,10.9-12.3,21.2-23.2,26.8
	c-10.5,5.7-22.9,5.4-34.4,4c-2.9,6.9-5.8,13.7-9.3,20.4c-2.2,3.9-4.7,8-9,9.9c-4.2,1.9-9,1.5-13.5,1.1c-2.5,13.3-5.1,26.7-7.6,40
	c-1,5.1-1.9,10.1-2.9,15.2c-0.9,4.7-1.8,9.5-2.7,14.2c-7-1.7-14.4-1.1-21.3,1.1c-2.5-8.7-6.3-17.5-13.3-23.5
	c3.8-20.2,7.7-40.4,11.5-60.7c-6.1-3.5-12.2-9.1-11.8-16.8c0.6-9.3,5.3-17.6,9.2-25.9c-7.3-4.8-14.3-10.3-20-17
	c-6.5-7.2-10.7-16.4-11.9-26c-1.8-12.1,2.7-23.9,7.1-35c12.1-29.1,24.7-58,37.1-86.9c3.6-9.8,7.5-19.7,13.9-28.1
	C809.8,503,820.3,497.9,831.1,495.4"/>
<path class="st3" d="M740.7,951.7c6.7,0.6,13.3-0.6,19.5-3.2c5.1,5,11.1,9,17.8,11.7c-2.5,13.3-5,26.6-7.6,39.9h-38.9
	C734.7,983.9,737.6,967.8,740.7,951.7z"/>
<path class="st0" d="M857.5,842.2c-2.1-10.4-8.6-19.4-16.3-26.4c-9.1-8.2-20.9-13.2-33-14.4c-1,5.1-1.9,10.1-2.9,15.2
	c-0.9,4.7-1.8,9.5-2.7,14.2c-7-1.7-14.4-1.1-21.3,1.1c-2.5-8.7-6.3-17.5-13.3-23.5c-8.4-7-20-8.3-30.5-6.7
	c-9.8,1.4-18.8,7.2-24.6,15.2c-6.3,8.7-8.5,19.5-10.6,29.9c-3.9,20.3-2.9,41.3,0,61.7c1.9,10.3,5.3,20.8,12,28.9
	c6.6,7.9,16.3,12.8,26.4,14.2c6.7,0.6,13.3-0.6,19.5-3.2c5.1,5,11.1,9,17.8,11.7c8.8,3.4,18.6,4.8,27.9,2.4c9.8-2.5,19-9,23.2-18.3
	c3-6.2,3.6-13.3,2.4-20c8.1-3.7,14-11,17.8-19c4-8.4,4.2-18.2,2.1-27.1C857.6,867.4,860.3,854.4,857.5,842.2z"/>
<path class="st1" d="M726.1,825c4.1-5.6,10.8-9.5,17.9-9.2c8.1,0,15.1,5.2,19.7,11.5c8.7,12.1,11.8,27.7,9.8,42.3
	c-0.9,4.3-2.1,8.7-4.9,12.1c-2.5,3-6.8,4.3-10.5,3.1c-6.5-1.8-10.8-7.7-13.1-13.7c-1.2-2.8-0.8-6.5-3.4-8.6
	c-2.2-2.1-6.2-1.3-7.6,1.4c-1.5,2.8-0.4,6,0.3,8.8c3.5,11.3,12.8,21.9,25.1,23.1c-7.1,7.2-10.5,18-8.4,28c0.3,1.6,0.9,3.3,0.9,5
	c-1.1,3.3-4.5,5-7.7,5.6c-7.3,0.8-14.8-2.7-19-8.6c-6-8-7.6-18.3-8.8-28c-1.3-13.9-1.7-28-0.5-41.9
	C716.8,845.1,719.4,833.9,726.1,825z"/>
<path class="st1" d="M805.3,816.6c11.6,0.3,23.4,5,31.3,13.7c5.1,5.6,8.7,13,8.4,20.7c0.7,14.7-12.2,28.5-27,28.7
	c-12.2,0-23.6-5.6-33.5-12.2c1-8.3,0.6-16.7-0.8-24.9c9.2-4.2,19.9-1.3,28.3,3.4c2.6,1.3,5.4,4,8.5,2.6c3.6-1.1,4.3-6.5,1.4-8.7
	c-5.7-4.5-12.4-7.5-19.4-9.1C803.5,826.1,804.4,821.3,805.3,816.6z"/>
<path class="st1" d="M772.6,892.3c4.6-3.4,7.6-8.4,9.5-13.8c8.6,5.3,18.1,9.5,28.1,11.2c10.1,1.7,20.8-0.6,29.1-6.6
	c1.5,7.8,0.9,16.5-4,23c-4.5,5.8-12,8.5-19.1,9.1C798.7,916.8,781.6,906.9,772.6,892.3z"/>
<path class="st1" d="M762.9,927c-3.5-7.9-2.1-17.9,4.2-24.1c12.2,15.3,32.1,25.5,51.9,22.7c0.2,8.3-5.6,16-13.2,19.1
	C789.9,951.3,769.5,942.9,762.9,927z"/>
<path class="st2" d="M822.7,516.6c7.9-4.7,17.3-6.4,26.4-6.1c20,0.4,39.8,7,56.4,18.1c11.9,8.4,23.1,19.1,28,33.1
	c3,8.3,1.8,17.5-0.6,25.9c-3.5-2.9-6.9-6-10.6-8.7c-2.8-2.1-7.1-1.4-8.9,1.5c-1.8,2.5-1.2,6.1,1,8.1c4.6,4.2,9.5,7.9,14.2,12
	c-1.4,3.5-2.7,6.9-4.1,10.4c-4-3.2-7.7-6.6-11.7-9.6c-3.5-2.6-9.1-0.6-9.8,3.8c-0.9,3.3,1.7,6.1,4.1,7.9c4.1,3.4,8.2,6.8,12.4,10.3
	c-1.4,3.5-2.8,6.9-4.3,10.3c-4-3.2-7.8-6.7-11.9-9.7c-2.8-2.1-7.1-1.4-8.9,1.5c-2,2.8-1,6.7,1.6,8.7c4.6,3.9,9.2,7.8,13.9,11.5
	c-1.3,3.6-3,7.1-4.5,10.7c-4-3.2-7.8-6.6-11.8-9.7c-2.7-2.2-7-1.8-9,1c-2.1,2.6-1.4,6.7,1.2,8.8c4.8,4.2,9.7,8.1,14.5,12.2
	c-1.4,3.3-2.7,6.6-4.2,9.8c-4.5-3.3-8.3-7.6-13.2-10.3c-5.6-2.7-11.4,4.9-7.4,9.6c4.7,4.8,10.2,8.6,15.2,13.1
	c-1.7,3.5-3.5,7.1-5.7,10.4c-17-13.3-33.9-26.9-50.9-40.3c-2.1-1.6-4.5-3.2-7.2-3.6c-21.2-4.1-42.3-8.1-63.5-12.1
	c1.2-3.7,2.6-7.3,3.9-11c9.3,0.8,18.4,3.3,27.6,4.8c13.7,2.6,27.4,5.2,41.1,7.9c1.3,0.2,2.3,1.1,3.3,1.9c5.8,4.8,11.6,9.8,17.5,14.5
	c2.7,2.3,7.2,2.1,9.3-0.9c2.2-2.8,1.2-6.9-1.5-8.9c-5.2-4.5-10.6-8.8-15.8-13.2c-3-2.5-6-5.3-10-5.9c-22-4.3-44.1-8.4-66.1-12.7
	c1.3-3.8,3-7.4,4.5-11c22.8,4.7,45.6,8.9,68.4,13.8c7,5.3,13.4,11.3,20.4,16.7c3,2.5,8,1.5,9.6-2c1.6-2.9,0.2-6.4-2.2-8.2
	c-5.6-4.8-11.3-9.4-16.9-14.1c-2.4-2-4.8-4.3-8-4.8c-22-4.4-44.1-8.7-66.1-13.2c1.4-3.3,2.9-6.7,4.3-10c21.7,4.2,43.4,8.4,65.2,12.5
	c1.8,0.4,3.9,0.4,5.4,1.8c6.2,5.1,12.3,10.3,18.6,15.4c2.8,2.5,7.8,1.9,9.7-1.5c1.7-2.7,0.6-6.4-1.8-8.3
	c-5.6-4.8-11.3-9.4-16.9-14.1c-2.4-2-4.8-4.3-8-4.7c-22.3-4.3-44.7-8.5-67-12.9c1.5-3.6,3-7.1,4.6-10.7c22.2,4.2,44.4,8.9,66.6,13.2
	c1.4,0.3,3,0.4,4.2,1.5c6.1,5,12,10.1,18.1,15c2.7,2.3,7.2,2.1,9.3-1c2.2-2.7,1.2-6.9-1.4-8.9c-5.9-5.1-12-10-18-15
	c-2.3-2-5.1-3.2-8.1-3.8c-21.8-4.4-43.7-8.8-65.6-13.2c1.5-3.4,2.9-6.8,4.4-10.3c23,4.5,46,8.6,68.9,13.2c7,5.3,13.5,11.4,20.5,16.7
	c3.1,2.3,8.1,1,9.5-2.6c1.2-2.7,0-5.9-2.2-7.6c-5.6-4.8-11.2-9.4-16.8-14.1c-2.6-2.2-5.4-4.4-8.8-5c-22.1-4.2-44.1-8.4-66.2-12.6
	C813.6,525.8,817,520,822.7,516.6z"/>
</svg>
