<svg version="1.1" xmlns="http://www.w3.org/2000/svg" xmlns:xlink="http://www.w3.org/1999/xlink" x="0px" y="0px" viewBox="0 0 1000 1000" style="enable-background:new 0 0 1000 1000;" xml:space="preserve">
<style type="text/css">
	.st0{fill:#000000;}
</style>
<path class="st0" d="M438.7,722.7c5.3-2,10.5-4.7,16.2-4.8c10.3-0.5,20.7,0.4,31,0.1c6.3-0.1,12.7-0.4,19-0.1c6.3,0.2,11.9,3.3,17.7,5.4
		c18.1,7.5,36.6,14.1,54.2,22.8c16.5,8.2,32.6,17.5,47.2,28.8c23.9,18,43.7,41.6,56.2,68.9c12.7,26.4,17.8,55.7,19.1,84.8
		c0.8,23.8,0,47.7-0.8,71.5h-37.9c0.9-24.6,1.7-49.3,0.7-74c-0.9-16.5-3-33-7.2-49c-5.3-19.5-13.9-38.1-25.4-54.7
		c-17.5-24.7-42.6-42.6-68.4-57.7C534.9,750,508,737.8,480,728.8c-13.4,4.1-26.4,9.4-39.3,14.9c-18.7,8.4-37,17.6-54.1,28.8
		c-24.3,15.2-47,34.4-61.7,59.4c-9.9,16.7-17.2,34.9-21.3,53.9c-3.9,18.8-5.6,38-5.5,57.2c-0.2,19,0.4,38,1.1,57h-37.9
		c-0.9-35.7-3.2-71.7,3-107c5.7-34.4,21-67.4,44.4-93.2c22.8-25.5,52.5-43.6,83.2-57.9C407.4,734.9,423.2,729.1,438.7,722.7z"/>
</svg>
