<svg version="1.1" xmlns="http://www.w3.org/2000/svg" xmlns:xlink="http://www.w3.org/1999/xlink" x="0px" y="0px" viewBox="0 0 1000 1000" style="enable-background:new 0 0 1000 1000;" xml:space="preserve">
<style type="text/css">
	.st0{fill:#FFD400;}
	.st1{fill:#FF002C;}
	.st2{fill:#FFFFFF;}
	.st3{fill:#000000;}
</style>
<path class="st3" d="M660.9,479.1c-7.8-18.2-18.6-35.3-32.5-49.5c-19.8-20.2-46.3-32.6-73.4-39.5c-40.4-10.4-84.4-4.6-121.3,14.7
	c-29.5,15.2-55.5,38-71.9,67c-17.5,30.5-23.6,66.4-22.3,101.3c1,18.7,4,37.4,10.2,55c5.9,16.8,14.8,32.4,25.8,46.4
	c10.1,12.8,22.1,24.4,36,33c2.2,1.3,4.9,2.9,7.4,1.6c3.9-1.4,4.1-7.4,0.7-9.5c-12.5-9-24.9-18.8-33.2-32c-1.1-1.6-1.8-3.5-2-5.4
	c3.9-0.2,7.4,2,11,3c22.1,7.1,44.9,11.2,67.8,14.9c17.8,2.9,35.9,3.5,53.9,3.9c27.1,0.4,54.2-2,80.8-6.7c9.4-1.6,18.5-4.4,27.7-6.6
	c-0.4,1.4-0.9,2.8-1.9,3.9c-5.8,6.9-12.8,12.9-20.3,17.9c-1.9,1.2-3.7,3-3.7,5.4c-0.2,3.2,3.1,6,6.3,5.4c2.7-0.7,4.9-2.5,7.2-4.1
	c15.3-11.3,28-26,37.7-42.3c10.6-18.5,18.2-38.8,21.6-59.9C678.9,557.7,676,516.3,660.9,479.1z M395.8,447
	c12.2-13.3,27.3-23.6,43.2-31.9c17.6-9.2,36.8-15,56.5-17.3c20.6-2.5,41.6-0.8,61.5,4.9c17.2,4.9,34,12,48.5,22.7
	c13.9,10.1,25.4,23.4,33.5,38.6c2.2,4.3,5,9.1,3.5,14.1c-1.2,4.1-5.8,5.8-9.6,6.5c-13.9,2.3-27.9,2.9-41.9,3.8
	c-23.3,1.6-46.7,1.4-70,0.4c-37.6-1.5-75.1-5.4-111.9-13.7c-6.3-1.6-14.3-2-18.1-8.1C387.1,460.2,391.3,452.3,395.8,447z"/>
<path class="st0" d="M374.3,483.6c5.1-1.5,10.5,0.1,15.5,1c20.2,4.4,40.5,8.4,60.9,11.1c24.5,4,49.4,5.3,74.2,6.7
	c21,0.9,42,0.1,63-0.5c16.4-0.7,32.7-2.6,49-4.9c4.3-0.5,8.6-1.9,12.9-0.9c4,1.2,5.8,5.4,7,9.1c2.9,9.6,3.9,19.6,5.2,29.5
	c2.5,18.3,2.2,36.9,0.1,55.2c-1.6,13-5,25.7-9.7,37.8c-2.2,5.7-5,11.2-8.6,16.3c-4.8,6.4-12.6,9.4-19.9,11.9
	c-14.7,4.7-29.9,7.6-45,10.2c-20.8,3.5-41.9,4.1-63,3.8c-25.3,0.1-50.6-2.8-75.4-7.7c-19-3.7-37.8-9-55.2-17.4
	c-9.5-4.5-18.8-10.8-23.7-20.4c-5.7-11-7.7-23.4-9.2-35.5c-3.2-30.8-0.6-62.7,10.8-91.7C365.5,491.9,368.4,485.6,374.3,483.6
	 M460.6,521.7c-5.4,11.1-9.9,22.7-14.1,34.4c-11.3-3.1-22.5-6.5-33.8-9.5c-4.9-1.6-10.2,3.4-8.5,8.4c1.5,4.9,7.2,5.3,11.4,6.6
	c-0.9,4.1-1.4,8.3-1.3,12.5c-0.3,14.1,6.6,28.6,18.7,36.2c-1,8.9-1.6,17.8-1.7,26.8c0.2,2.6,0.1,6.3,2.9,7.6
	c3.2,1.3,5.6-1.9,7.1-4.2c5-7.8,8.6-16.4,12.1-24.9c18.5-0.5,34.1-15,40-32c2.5,0.7,4.9,1.5,7.5,1.8c3.9,0.2,7.4-3.6,6.8-7.5
	c-0.2-3.1-2.9-5.3-5.6-6.1c-10.7-3.1-21.3-6.1-32-9.1c2.8-14.1,5.1-28.5,4.4-42.9c-0.1-3.2-1.7-7.8-5.7-7.4
	C464.6,513.5,462.6,518.1,460.6,521.7 M563,573.2c-2.1,0.6-4.4,1.3-5.6,3.2c-2.2,2.9-1.3,7.6,2,9.3c2.6,1.7,5.8,0.5,8.5-0.1
	c3.4,9.7,10.4,18.3,19.8,22.8c7.4,3.6,16.3,4.2,24,1.1c8-3.1,14.1-9.8,17.3-17.6c3.2-7.6,3.5-16.2,1.9-24.2c3.4-0.9,7.9-2.4,8.1-6.6
	c0.9-4.9-4.6-8.6-9-6.8C607.6,560.5,585.3,566.9,563,573.2z"/>
<path class="st1" d="M460.6,521.7c2-3.6,4-8.2,8.3-9.2c4-0.4,5.6,4.2,5.7,7.4c0.7,14.4-1.7,28.8-4.4,42.9
	c-7.9-2.2-15.8-4.5-23.7-6.7C450.8,544.4,455.2,532.8,460.6,521.7z"/>
<path class="st1" d="M433.1,610.2c6.1,3.8,13.3,5.7,20.5,5.3c-3.5,8.5-7.1,17.1-12.1,24.9c-1.5,2.3-3.9,5.5-7.1,4.2
	c-2.8-1.3-2.7-5-2.9-7.6C431.5,628.1,432.1,619.1,433.1,610.2z"/>
<path class="st2" d="M428.5,565.2c17.5,4.9,34.9,9.9,52.4,14.8c-3.9,10.2-12.2,19.2-23,21.8c-7.1,1.9-15.1-0.1-20.6-5
	C428.5,589.1,425.9,576.2,428.5,565.2z"/>
<path class="st2" d="M580.4,581.9c12.6-3.5,25.2-7.2,37.8-10.6c1.1,7.2,0.2,15.2-4.6,21c-3.8,4.8-10.5,7.3-16.5,5.6
	C589.1,595.9,583.3,589.2,580.4,581.9z"/>
</svg>
