<svg version="1.1" xmlns="http://www.w3.org/2000/svg" xmlns:xlink="http://www.w3.org/1999/xlink" x="0px" y="0px" viewBox="0 0 1000 1000" style="enable-background:new 0 0 1000 1000;" xml:space="preserve">
<style type="text/css">
	.st0{fill:#EDEDED;}
	.st1{fill:#FFD400;}
	.st2{fill:#FFFFFF;}
	.st3{fill:#000000;}
</style>
<path class="st0" d="M439.7,401.8c34.9-16.6,75.5-21.4,113.2-12.3c28.1,6.8,55.6,19.5,76,40.5c14,14.5,24.8,31.9,32.6,50.4
	c7.1,18,11.5,37.1,13.3,56.5c2.1,25.8,0.7,52.1-6,77.2c-3.4,13.7-9.2,26.6-15.8,39.1c-7.9,14.7-18.6,27.8-30.9,39
	c-4.5,3.8-9.1,7.7-14.3,10.6c-2.7,1.7-6.7,0.3-7.7-2.7c-1.2-2.7,0.6-5.7,2.9-7c7.7-5.1,14.8-11.1,20.7-18.2c1-1.1,1.6-2.5,1.8-4
	c-18.4,5.3-37.3,8.8-56.4,10.8c-27.6,3.3-55.5,3.2-83.2,1.3c-19.2-1.4-38.1-5-56.9-8.8c-12.1-2.6-24.2-5.5-36-9.6
	c-2.9-0.9-5.6-2.5-8.8-2.3c0.2,1.9,0.9,3.7,2,5.3c8.2,12.9,20.2,22.7,32.5,31.5c1.9,1.1,2.8,3,3.6,4.9c-0.6,2-1.3,4.4-3.5,5.1
	c-2.6,1.3-5.3-0.2-7.5-1.6c-13.5-8.4-25.1-19.5-35.1-31.8c-10.5-13.2-19.2-27.9-25.2-43.6c-7.5-19.5-10.7-40.3-11.7-61.1
	c-0.4-21.1,1.6-42.4,7.3-62.8c5.1-17.7,12.9-34.7,23.7-49.7C388,433.9,412.4,414.6,439.7,401.8 M506.6,396.8
	c-37.9,1.9-74.8,17.4-103.1,42.6c-6.3,5.8-13.4,12.5-14,21.6c-0.3,5.8,4.4,10.4,9.7,11.8c50.3,12.5,102.2,16.4,153.9,16.8
	c23.7,0,47.5-1.5,71.1-3.8c5.7-1,12.3-0.7,16.8-4.9c3.9-4.3,1.7-10.6-0.8-15c-7-13.6-16.6-25.9-28.4-35.7
	c-15.3-12.9-33.9-21.4-53-27C541.9,398.2,524.2,396,506.6,396.8"/>
<path class="st1" d="M658.1,511.4c-1-4.4-1.6-9.2-4.5-12.9c-1.7-2.4-4.9-2.6-7.5-2.2c-8.4,0.1-16.7,2-25.1,2.8
	c-24.5,3.3-49.3,3.3-73.9,3.8c-25.1-0.1-50.1-1.9-75.1-4.2c-23.4-3-46.9-6.3-69.9-11.4c-7.3-1.4-14.6-3.5-22-4.1
	c-4-0.4-8.2,1.1-10.7,4.4c-3.2,4.1-5.2,9-7.2,13.8c-2,5.3-3.6,10.8-5.2,16.2c-6.5,24.9-7.2,51.2-3.8,76.7c1.7,10.9,3.8,22,9.3,31.6
	c4.4,7.8,11.8,13.3,19.6,17.4c14.6,7.4,30.1,12.7,46,16.4c24.9,5.8,50.4,9.5,76,10.3c24.7,0.5,49.6,0.5,74.1-3.5
	c16-2.7,32.1-5.7,47.5-10.9c6.6-2.4,13.5-5.2,18-10.8c5.9-7.9,9.5-17.2,12.5-26.5c5.9-17.7,7.9-36.4,7.9-54.9
	C664.4,545.7,661.5,528.4,658.1,511.4z"/>
<path class="st3" d="M646.1,496.2c2.6-0.4,5.8-0.2,7.5,2.2c2.9,3.7,3.5,8.5,4.5,12.9c-47.8,18.5-95.6,36.9-143.4,55.4c-2.1,15.2-9.5,29.7-21,40
	c-12.5,11.3-30,17.5-46.9,14.8c-13.9-2-26.8-10-34.9-21.5c-10.5-14.6-13.2-34-8.4-51.2c-15.5-10.6-31-21.1-46.7-31.6
	c1.6-5.4,3.3-10.9,5.2-16.2c17.3,11.7,34.5,23.3,51.7,35.2c3.2,2.4,7.4,2.5,11.2,3.3c24.1,4.3,48.1,8.5,72.2,12.8
	c1.6,0.3,3.3,0.3,4.9-0.4C550,533.4,598.1,514.8,646.1,496.2"/>
<path class="st3" d="M563,569.6c23.3-4.5,46.7-8.7,70.1-13c3.8-1,8.2,2.2,7.5,6.4c-0.3,3.8-4.3,5.2-7.5,5.8c-0.1,7.6-1.6,15.3-5.4,22
	c-4.3,7.8-11.8,14.1-20.7,16.1c-9.4,2.3-19.5-1-26.7-7.3c-5.8-4.9-9.7-11.7-12.1-18.8c-3.3,0.7-7.7,1.2-9.7-2.2
	C556.2,574.9,559.1,570.1,563,569.6"/>
<path class="st0" d="M432.3,567.5c3.9-2.2,10.1-0.6,10.1,4.5c0.1,4.6-4.9,6-8.5,7c-4.6,1.1-9,3.5-13.8,3.6c-4.9-0.3-6.7-7.5-2.5-10
	C422.2,570.2,427.5,569.3,432.3,567.5z"/>
<path class="st0" d="M445.1,582.2c3.7-1.5,8.4,1.8,7.7,5.9c-0.4,3.8-4.5,5.1-7.6,6.1c-5.1,1.5-10.1,3.5-15.3,4.8
	c-3.6,1-7.6-2.2-6.9-6c0.1-3.2,3.3-4.8,6-5.6C434.5,585.7,439.8,583.8,445.1,582.2z"/>
<path class="st2" d="M580.2,578.4c13.6-2.6,27.2-5.1,40.8-7.6c-0.1,8-3.4,16.4-10,21.3c-4.8,3.6-11.5,4.4-17,2
	C587.3,591.3,582.8,585,580.2,578.4z"/>
</svg>
