<svg version="1.1" xmlns="http://www.w3.org/2000/svg" xmlns:xlink="http://www.w3.org/1999/xlink" x="0px" y="0px" viewBox="0 0 1000 1000" style="enable-background:new 0 0 1000 1000;" xml:space="preserve">
<style type="text/css">
	.st0{fill:#6089FF;}
	.st1{fill:#AAAAA9;}
	.st2{fill:#4A4F4F;}
	.st3{fill:#FFD400;}
	.st4{fill:#EDEDED;}
	.st5{fill:#000000;}
</style>
<path class="st5" d="M830.1,317.2c1.7-2.6,5.5-2.7,7.8-0.9c3.6,2.7,5.8,6.7,8.5,10.3c10.6,14,22,27.4,32.8,41.1c2.4,2.9,4.6,6.3,4.5,10.2
	c0.6,14,1.6,28.1,1.4,42.1c-0.6,19-0.2,38-1,56.9c-0.9,31-3.8,62-6.8,92.9c-3.5,34.2-8,68.2-14,102c-6.6,35.7-13.5,71.4-22.1,106.7
	c8.3,4.1,16.4,8.8,23.9,14.3c8.8,6.4,17.3,13.9,22.1,23.8c3.5,7.1,3.7,16.1-0.5,22.9c-5.8,9.6-17.5,13.2-28,14.5
	c-4.5,0.5-9.1,1-13.6,1.1c-21.2,0.7-42.3-3.2-62.1-10.5c-4.2-1.5-8.4-3.2-12.5-4.9c-12.9-5.6-25.3-12.8-35.8-22.2
	c-3.7-3.4-7.1-7.2-10-11.4c-3.8-5.7-6.8-12.3-6.9-19.3c0-6.3,3.8-12,8.9-15.4c8.7-5.8,19.3-7.4,29.5-8.3c9.8-1,19.7-0.8,29.5,0.1
	c6.2-28.6,13.5-57,18.8-85.8c6.2-33.7,10.8-67.7,16.1-101.5c6-38.1,8.8-76.6,10.6-115c2.8-44.3,2.4-88.7-1.6-132.9
	C829.2,324.5,827.9,320.4,830.1,317.2"/>
<path class="st5" d="M736.7,951c7.9,1.6,16.2,0.6,23.5-2.9c9.2,8.5,20.8,14.7,33.5,15.7c-1.7,5.9-3,12-5.2,17.8c-1.5,3.9-5.3,6.4-9.4,6.4
	c-13.9,0.5-28.3-2.4-40.1-10.2c-3.6-2.3-6.5-6.5-5.6-11C734.3,961.5,735.5,956.3,736.7,951z"/>
<path class="st0" d="M858.6,854.2c-4.5,0.5-9.1,1-13.6,1.1c-21.2,0.7-42.3-3.2-62.1-10.5c-4.2-1.5-8.4-3.2-12.5-4.9
	c-12.9-5.6-25.3-12.8-35.8-22.2c-3.7-3.4-7.1-7.2-10-11.4c-8.9,5.2-15.2,14.1-18.1,23.9c-5.5,18-7.5,37-6.3,55.8
	c0.9,13.7,1.8,27.7,7.6,40.4c4.9,12.3,16.2,21.6,29,24.6c7.9,1.6,16.2,0.6,23.5-2.9c9.2,8.5,20.8,14.7,33.5,15.7
	c11.4,0.7,23.2-3.9,30.8-12.5c6.4-7.4,8.9-17.7,7-27.2c7.9-3.5,13.7-10.6,17.5-18.3c4.2-8.6,4.6-18.6,2.3-27.8
	C855.6,870.9,858,862.6,858.6,854.2z"/>
<path class="st1" d="M843.1,346.4c9.3,11.6,19,23,28.1,34.7c2.4,61-1.6,122.1-8,182.8c-9.1,82-23.1,163.6-44,243.5
	c-4.4-0.3-8.8-0.8-13.1-1.9c6.9-23.1,13-46.5,18.2-70c3.8-18.5,7.8-37.1,11.2-55.7c5.6-31.8,10.5-63.8,13.8-95.9
	c3.4-33.8,6.6-67.7,8.2-101.7c1.1-23.8,2.5-47.5,2.5-71.3c-0.1-8.5,0.2-17.2-3.1-25.2c-3.2-7.3-8.2-13.6-12.8-20.1
	C843.3,359.3,843.4,352.8,843.1,346.4z"/>
<path class="st2" d="M844.3,365.7c4.6,6.5,9.6,12.8,12.8,20.1c3.3,7.9,3,16.7,3.1,25.2c0,23.8-1.4,47.5-2.5,71.3
	c-1.6,34-4.8,67.9-8.2,101.7c-3.4,32.1-8.2,64.1-13.8,95.9c-3.5,18.6-7.4,37.1-11.2,55.7c-5.3,23.5-11.4,46.9-18.2,70
	c-4.9-1.5-9.9-2.9-14.4-5.4c14-53.1,24.7-107,33.3-161.2c10.7-68.8,17.8-138.3,19.7-208c-0.2-12,0.8-24,0.1-36
	C844.9,385.3,844.5,375.5,844.3,365.7z"/>
<path class="st3" d="M745.7,781.8c12.5-4.2,25.9-3.7,38.8-2.1c-1.8,7.4-4,14.7-5.5,22.1c-0.5,3.9,2.4,7.1,5.7,8.5
	c12.3,6.4,26.2,9.7,40.1,9c2.7-0.4,4.8-2.8,5.3-5.4c1.7-6.4,3.4-12.9,5-19.3c10.5,5.1,20.7,11.3,28.5,20c3.1,3.7,6.3,8.2,5.8,13.3
	c-0.9,5-5.9,7.7-10.2,9.4c-10.8,3.8-22.5,3.8-33.7,2.9c-16.9-1.6-33.6-5.9-49.2-12.5c-12.4-5.4-24.6-12-34.1-21.8
	c-3.7-4.1-7.7-9.1-6.8-15C736.2,786,741.4,783.5,745.7,781.8z"/>
<path class="st4" d="M717.2,846.3c2.2-11,7-22.8,17.3-28.6c10.5,9.5,22.9,16.6,35.8,22.2c4.2,11.7,5.7,24.9,1.2,36.7
	c-1.5,4.2-4.8,8.2-9.5,8.6c-5.5,0.4-10.5-3.2-13.6-7.6c-3.2-3.9-4-8.9-5.6-13.5c-1.8-4.3-8.6-3.4-9.5,1.1
	c-0.6,5.8,2.1,11.4,4.9,16.3c4.4,7.5,12.1,13.2,20.9,14.4c-7.6,8-10.8,20-7.6,30.7c1.4,4.1-3.2,7-6.6,7.7c-8,1.5-16.4-2.8-20.7-9.6
	c-6-9-7.2-20.2-8.3-30.7C715,878.1,714.3,862,717.2,846.3z"/>
<path class="st4" d="M782.8,844.8c19.9,7.2,41,11.2,62.1,10.5c-1.4,7.2-5.2,14-11.1,18.6c-6.2,5-14.7,6.7-22.5,5.3
	c-9.7-1.7-18.6-6.2-26.8-11.6C785,860,784.6,852.3,782.8,844.8z"/>
<path class="st4" d="M772.6,892.3c4.5-3.5,7.6-8.4,9.5-13.8c9.1,5.6,19.2,10.1,29.8,11.5c9.6,1.2,19.5-1.3,27.3-6.8
	c1.3,7.6,0.9,16-3.7,22.5c-4.4,6.2-12.2,9.1-19.5,9.7C798.7,916.8,781.6,906.9,772.6,892.3z"/>
<path class="st4" d="M762.9,927c-3.4-7.9-2.1-17.8,4.2-24c12.2,15.3,32.1,25.4,51.9,22.7c0.1,8.4-5.6,16-13.3,19.1
	C789.8,951.3,769.5,942.9,762.9,927z"/>
</svg>
