<svg version="1.1" xmlns="http://www.w3.org/2000/svg" xmlns:xlink="http://www.w3.org/1999/xlink" x="0px" y="0px" viewBox="0 0 1000 1000" style="enable-background:new 0 0 1000 1000;" xml:space="preserve">
<style type="text/css">
	.st0{fill:#EDEDED;}
	.st1{fill:#FFD400;}
	.st2{fill:#000000;}
</style>
<path class="st0" d="M675.3,544.9c-1.1-21.1-5.4-41.9-12.7-61.7c-6.9-17.4-16.5-33.9-28.9-48c-19.9-23.2-48.4-37.3-77.6-44.9
	c-32.1-8.5-66.5-6.6-97.8,3.9c-31.6,11-60.5,30.4-81.8,56.2c-21.6,26.2-33.3,59.5-36.2,93.1c3.9,0.6,7.8,1.2,11.8,1.9
	c14.1,2.2,28.2,4.5,42.3,6.7c7.4-14.7,20.9-26.1,36.6-30.9c15.1-4.8,32-3.3,46.1,3.9c12.2,6.2,22.1,16.6,27.9,29
	c14.4-6,31-5.9,45.5-0.1c7.5-16.3,22.5-28.9,39.8-33.5c16.6-4.6,35-1.6,49.4,7.8c11.2,7.2,19.9,18.3,24.4,30.9
	c6.5,18,3.8,38.9-6.8,54.8c-7.9,11.7-19.9,20.6-33.5,24.6c-16.3,4.9-34.7,2.7-49.2-6.2c-13.8-8.2-24.1-22.2-28-37.8
	c-1.8-7-2.1-14.3-1.6-21.5c-10.9-4.9-23.8-5.1-34.7,0.1c1.2,13.5-1.7,27.4-9,38.9c-8.3,13.4-21.9,23.4-37.2,27.1
	c-17,4.3-35.8,0.9-50.1-9.3c-18.7-12.8-28.9-36.5-25.6-58.8c-12.4-2-24.9-4-37.3-6c-3.9-0.6-7.8-1.2-11.7-1.9
	c0,21.4,3,42.9,9.8,63.2c6,17.8,15.5,34.3,27.2,49c10,12.4,21.6,23.5,35.2,31.9c2.2,1.4,4.9,2.8,7.4,1.5c2.2-0.7,2.9-3.1,3.4-5.1
	c-0.6-2-1.7-3.9-3.5-5c-11.1-8-22-16.7-30-27.9c-1.8-2.7-4.1-5.4-4.4-8.8c0.6,0,1.8,0,2.5,0c7.6,2.7,15.2,5.3,23,7.2
	c21.5,5.5,43.4,9.5,65.4,12.3c25.8,2.5,51.8,3.1,77.7,1.2c23.1-1.9,46.2-4.7,68.5-11.3c1.4-0.2,3.1-1.3,4.4-0.2
	c-4.7,7.5-11.8,13.3-18.8,18.6c-2.6,2.1-6.3,3.4-7.2,6.9c-1,3.9,3.4,7.6,7.1,6c4-1.8,7.4-4.7,10.8-7.3c13-10.7,24.1-23.8,32.8-38.2
	c6.6-11.6,12.3-23.8,16.3-36.6C674.4,596.4,676.7,570.5,675.3,544.9z M392.9,450.8c3.3-4.9,7.7-8.9,12.1-12.9
	c28.1-24.3,64.3-39.4,101.5-41.2c17.8-0.9,35.8,1.4,52.9,6.5c18.7,5.5,36.8,13.8,51.8,26.4c11.8,9.7,21.5,21.9,28.5,35.4
	c2,3.9,4.2,8.3,2.8,12.7c-1,3.7-4.9,5.6-8.4,6.3c-8,1.6-16.1,2.1-24.3,2.8c-24.6,1.8-49.3,3.2-73.9,2.1
	c-45.7-0.9-91.6-5.4-136.1-16.2c-4.2-1.1-8.5-3.6-9.9-8C388.3,460.1,390.4,455,392.9,450.8z"/>
<path class="st1" d="M368.2,488.1c2.5-3.4,6.6-5.5,10.8-5.2c7.5,0.5,14.7,2.6,22,4c22.9,5.1,46.2,8.4,69.5,11.5
	c19.1,2,38.3,3.2,57.5,4.1c17,0.7,34,0,51-0.3c20-0.4,39.8-2.6,59.6-5.4c3.7-0.5,7.5-1.5,11.3-0.7c4,1.2,5.9,5.4,7.1,9
	c3,9.8,3.9,20.1,5.3,30.3c1.1,7.9,1.5,15.9,1.8,23.9c-4.5-12.6-13.2-23.6-24.4-30.9c-14.4-9.4-32.8-12.5-49.4-7.8
	c-17.4,4.5-32.3,17.2-39.8,33.5c-14.5-5.8-31-5.9-45.5,0.1c-5.8-12.4-15.7-22.8-27.9-29c-14.1-7.2-31-8.7-46.1-3.9
	c-15.7,4.8-29.2,16.3-36.6,30.9c-14.1-2.1-28.2-4.5-42.3-6.7c1.2-12.6,3.4-25.1,7.3-37.2C361.6,501.3,363.7,494.1,368.2,488.1z"/>
<path class="st1" d="M351,565.3c12.4,2,24.9,3.9,37.3,6c-3.3,22.4,6.9,46,25.6,58.8c14.3,10.2,33.1,13.6,50.1,9.3
	c15.3-3.8,29-13.7,37.2-27.1c7.3-11.5,10.2-25.4,9-38.9c10.8-5.2,23.8-5.1,34.7-0.1c-0.5,7.2-0.2,14.5,1.6,21.5
	c3.8,15.7,14.1,29.6,28,37.8c14.6,8.9,32.9,11.1,49.2,6.2c13.6-4,25.5-12.9,33.5-24.6c-3.3,10.7-7,21.5-13.8,30.5
	c-3.8,4.8-9.6,7.6-15.2,9.8c-15.1,5.5-31,8.5-46.8,11.3c-25.8,4.6-52,4.6-78.1,4.1c-22.7-0.7-45.3-3.9-67.6-8.5
	c-17.1-3.5-34-8.7-49.9-16.1c-10.9-4.9-21.4-12.5-26-24C352.8,603.4,351.4,584.1,351,565.3z"/>
<path class="st2" d="M430.9,521.2c15.1-4.8,32-3.3,46.1,3.9c12.2,6.2,22.1,16.6,27.9,29c14.4-6,31-5.9,45.5-0.1c7.5-16.3,22.5-28.9,39.8-33.5
	c16.6-4.6,35-1.6,49.4,7.8c11.2,7.2,19.9,18.3,24.4,30.9c6.5,18,3.8,38.9-6.8,54.8c-7.9,11.7-19.9,20.6-33.5,24.6
	c-16.3,4.9-34.7,2.7-49.2-6.2c-13.8-8.2-24.1-22.2-28-37.8c-1.8-7-2.1-14.3-1.6-21.5c-10.9-4.9-23.8-5.1-34.7,0.1
	c1.2,13.5-1.7,27.4-9,38.9c-8.3,13.4-21.9,23.4-37.2,27.1c-17,4.3-35.8,0.9-50.1-9.3c-18.7-12.8-28.9-36.5-25.6-58.8
	c-12.4-2-24.9-4-37.3-6c-3.9-0.6-7.8-1.2-11.7-1.9c-11.8-1.9-23.6-3.8-35.4-5.6c-9.3-1.5-18.5-3.2-27.9-3.9
	c-7.9-0.5-16.2,1.5-22.2,6.8c-5.7,4.7-8.9,11.9-15.4,15.8c-5.1,3.2-12.2,2.8-16.7-1.1c-4-4-4-10.4-2.7-15.5
	c2.8-10,10.5-17.7,19.3-22.7c8.6-5,19-6,28.7-4.9c11.8,0.7,23.3,3.4,34.9,5.2c12.8,2,25.6,4.1,38.4,6.1c3.9,0.6,7.8,1.2,11.8,1.9
	c14.1,2.2,28.2,4.5,42.3,6.7C401.8,537.5,415.2,526,430.9,521.2"/>
<path class="st0" d="M442.5,538.8c8.7-1.2,17.8-0.1,25.6,4c13.1,6.5,22.1,20.5,22.6,35.1c0.6,10.7-3.2,21.4-10.3,29.4
	c-7.1,8.1-17.6,13.3-28.4,13.9c-11.1,0.8-22.5-3.1-30.7-10.6c-7.1-6.3-11.8-15.2-13.2-24.6c-1.8-11.6,1.6-23.8,9.1-32.8
	C423.5,545.6,432.7,540.3,442.5,538.8z"/>
<path class="st0" d="M599.5,538.8c7.7-1.1,15.7-0.4,22.9,2.8c10.4,4.3,18.8,13.1,22.7,23.6c3.9,10.2,3.5,21.9-1,31.8
	c-4.3,9.5-12.2,17.2-21.9,21.2c-11.6,4.9-25.3,4.1-36.3-2.1c-11.1-6.1-19-17.5-20.8-30.1c-1.9-11.6,1.6-23.8,9.1-32.8
	C580.5,545.6,589.7,540.3,599.5,538.8z"/>
</svg>
