<svg version="1.1" xmlns="http://www.w3.org/2000/svg" xmlns:xlink="http://www.w3.org/1999/xlink" x="0px" y="0px" viewBox="0 0 1000 1000" style="enable-background:new 0 0 1000 1000;" xml:space="preserve">
<style type="text/css">
	.st0{fill:#EDEDED;}
	.st1{fill:#B65F40;}
	.st2{fill:#FFD400;}
</style>
<path class="st0" d="M766.7,252.4c-0.4-10.3-4.8-21.8-14.8-26.2c-8-3.6-17.2-0.8-24.3,3.7c-20.6,14.3-40.2,30.4-62.5,42.2
	c-11.1,5.5-23.1,9.3-35.3,10.9c-4.2,0.4-8.2-1.8-10.1-5.6c-4-7.9-5.7-16.6-9-24.7c-5.5-16.5-12.4-32.5-20.6-47.7
	c-7.5-13.1-16.1-26.1-28.7-34.7c-13.7-9.8-32.1-14.1-48.4-8.8c-14.3,4.7-25.4,15.5-35.4,26.3c-4.1,4.9-9,9.5-15.1,11.7
	c-5.7,2-11.8-0.1-16.8-2.9c-13.3-8.4-26.7-18.8-43-19.9c-11.9-1.3-23.9,3.7-32.5,11.9c-12.8,12.3-18.2,30.3-18.6,47.7
	c0.1,5.5-0.1,11,0.1,16.5c0.8,3,0,6.2,0.8,9.2c0,3.4,0.7,6.7,0.7,10l0.4,0.8c0.6,12.6,3.7,25,4,37.6c-0.1,4.6-1.3,9.5-4.7,12.8
	c-6.3,7.4-16.2,9.8-25.2,12c-11.4,3.2-23.4,2.9-35.1,2.5c-4.7-0.7-9.5-0.9-14.2-1.8c-14.3-1.7-27.9-7.2-42.3-8.6
	c-5.9-0.1-12.1-0.6-17.6,2.2c-9.1,3.5-14.5,13.3-14.6,22.8c-0.7,16.2,6.4,31.4,14.3,45.1c8.2,14.9,20.1,27.8,33.9,37.7
	c13.9,9.6,30.6,14.3,47.2,15.9c30,3.4,59.8-4,88.7-11.1c23.1-6,46.1-12.6,69.4-17.8c21.4-4.9,43.1-8.3,64.9-10.5
	c3.3-0.5,6.7-0.7,10-1c2-0.3,4.1-0.4,6.2-0.7c4-0.4,8-0.5,12-1c1.6-0.1,3.2-0.1,4.8-0.2c2.3-0.6,4.8-0.2,7.2-0.8
	c9-0.6,18-1.9,27-2.7l0.8-0.4c19.3-2,38.4-5.8,57-11.3c32.2-9.9,62.2-27.9,84.4-53.4c11.7-12.6,21.4-27.1,27.8-43
	C765.1,282.7,768,267.5,766.7,252.4z"/>
<path class="st1" d="M517.6,175.9c10.6-2.5,21.5,1.3,30.1,7.5c12,8.3,21,20.1,28.4,32.5c8.2,13.7,14.2,28.6,19.5,43.7
	c2.4,6.1-3.1,11.2-7.4,14.5c-13.8,10.4-29.1,18.6-45.2,24.9c-21.2,8.3-43.4,13.9-66,16.3c-28.6,3.3-57.5,0.5-85.8-4.2
	c-4.9-1-10-1.6-14.5-3.8c-3.8-1.9-4.1-6.6-4.7-10.3c-2.3-21.2-5.7-42.7-2.8-64.1c1.5-11.5,3.9-24,12.8-32.1c6-6.4,15.3-9.8,24-7.6
	c11.4,3.1,20.6,10.9,29.1,18.6c9.4,8,19.3,15.9,31.1,19.9c9.2,3.2,19.2,5.6,29,3.6c5.8-1,11.8-3.1,15.5-7.9c2.5-3.1,3.1-8.2,0-11.1
	c-2.8-2.9-7.2-2.5-10.7-1.4c-5.2,1.8-10.1,5.1-15.8,4.8c-3.8,0.1-8.6-1.5-9.4-5.7c0.5-6.8,6.7-10.9,10.6-15.8
	C494.3,188.9,504.1,178.3,517.6,175.9z"/>
<path class="st1" d="M740.3,245.4c3-0.8,6.4,0.7,7.8,3.5c2.2,4,1.7,8.8,1.5,13.1c-1.7,15.1-7.6,29.4-14.9,42.6
	c-10.4,19-24.7,35.9-42,49c-14.3,10.9-30.9,18.5-48,24c-40.6,13-83.4,15.4-125.5,19.8c-26,2.6-51.9,7.2-77.3,13.5
	c-21.7,5.1-43.1,11.5-64.8,16.8c-20.3,4.8-41.1,9.1-62.1,8.2c-22.1-0.9-44.4-8.2-61.5-22.6c-13.3-11.6-24.4-26.3-29.7-43.4
	c-1.8-6.4-3.2-13.8,0.5-19.8c2-3.8,6.7-5,10.6-4.5c8.9,1,17.5,4,26.3,5.8c10.4,2.4,21.1,3.2,31.7,3.6c21.3-0.6,42.9-3.8,62.4-12.8
	c2.2-1,4.4-1.7,6.8-2.2c1.2,1,2.6,1.9,2.9,3.6c2.3,8.3,2.3,17.3,5.6,25.3c3.3,7.4,11.7,10.3,19.1,11.9c23.4,4.6,47.4,6.9,71.3,5.6
	c39.5-2.6,78.4-11.8,115.3-26.2c9.8-3.8,19.4-7.9,28.9-12.2c6.7-3,13.3-6.4,18.7-11.4c2.7-2.5,4.4-6.1,4.7-9.8
	c0.6-7.2-2-14.1-2.9-21.2c-0.4-1.7,0.9-3.3,2.5-3.6c5.2-1.5,10.6-2.5,15.7-4.3c17.6-6.1,34.8-13.6,50.4-23.7
	c9.8-6,18.9-13,28.3-19.6C728.1,250.9,733.8,247,740.3,245.4z"/>
<path class="st2" d="M597.4,284.4c1.3-0.9,3.4-2,4.7-0.4c2.9,3.1,3.9,7.5,5.3,11.5c2.6,9.1,5.8,18.1,6.9,27.5
	c0.7,5.2-4.8,7.7-8.4,9.9c-15.6,8.1-32.1,14.4-48.7,20.4c-27.1,9.3-55.2,15.9-83.7,18.7c-3.6,0-7.2,0.3-10.7,0.9
	c-16.8,1.4-33.8,0.5-50.4-1.9c-4.5-1-9.1-1.6-13.8-2c-5.7-1.2-12.5-1.5-16.8-5.8c-2.4-4.3-2.7-9.3-3.4-14.1
	c-0.6-7.3-2.1-14.9-0.4-22.1c0.9-3.4,5.1-3.8,7.9-3.1c17.7,3.3,35.7,5.2,53.6,6.2c7.2,1.3,14.6,1.3,21.8,0
	C509.6,327.6,558,312.9,597.4,284.4z"/>
</svg>
