<svg version="1.1" xmlns="http://www.w3.org/2000/svg" xmlns:xlink="http://www.w3.org/1999/xlink" x="0px" y="0px" viewBox="0 0 1000 1000" style="enable-background:new 0 0 1000 1000;" xml:space="preserve">
<style type="text/css">
	.st0{fill:#EDEDED;}
	.st1{fill:#FF5400;}
</style>
<path class="st0" d="M450.4,281.8c20.8-2.6,41.9-1.3,62.4,2.7c36.5,7.4,72.7,18.8,105.1,37.5c23.4,13.7,46.5,29.1,64.2,49.9
	c11.7,13.9,20.7,30,27.3,46.9c7.1,18.4,10.7,37.8,13.3,57.2c3.4,23.5,3.7,47.3,2.2,70.9c-1.5,24.5-4.8,48.8-10.6,72.7
	c-4.4,17.9-10.1,35.7-18.5,52.2c-13,25.9-34.1,47.5-59.3,61.7c-16.9,9.5-35.2,16.3-53.9,20.8c-16.2,4-32.9,6-49.4,8.1
	c-24.3,2.9-48.8,4.3-73.2,2.2c-22.8-1.7-45.4-5.2-67.6-10.9c-19.8-5.1-39.3-12.5-56.4-23.9c-24.9-16.8-46.4-39.6-58.7-67.2
	c-17-36.6-20.8-77.9-18.8-117.8c1.8-38.4,8.8-76.8,22.8-112.7c8.9-23.8,21.3-46.2,36.1-66.9c17.1-23.7,38.4-44.6,63.8-59.3
	C402.4,293.6,425.9,284.9,450.4,281.8"/>
<path class="st1" d="M450.5,301.7c31.3-3.3,62.9,1.3,93.2,9.5c14.2,3.7,28.2,8.4,41.5,14.6c29,13.4,57.5,29.9,79.3,53.8
	c13.3,14.8,23,32.6,29.5,51.4c6.4,18.1,9,37.3,10.9,56.3c4.4,42.6,0.8,85.8-8,127.6c-4,16.2-8.3,32.6-16.6,47.3
	c-8,14.6-18.5,28-31.2,38.8c-11.2,9.4-23.9,16.9-37.2,22.8c-37,16.1-77.5,23.4-117.8,24.2c-43.3,0.6-86.9-7.4-126.9-24.2
	c-25.7-10.6-48.8-28.6-63.5-52.5c-9-14.6-15.3-30.8-19.8-47.2c-5.8-21.2-7.6-43.2-7.4-65.1c0.2-37.4,7-74.5,18.6-110
	c6-18,13.7-35.3,22.9-51.9c11.5-20.4,25.4-39.7,43-55.2C385.9,320,417.3,304.9,450.5,301.7z"/>
</svg>
