<svg version="1.1" xmlns="http://www.w3.org/2000/svg" xmlns:xlink="http://www.w3.org/1999/xlink" x="0px" y="0px" viewBox="0 0 1000 1000" style="enable-background:new 0 0 1000 1000;" xml:space="preserve">
<style type="text/css">
	.st0{fill:#000000;}
	.st1{fill:#00A900;}
	.st2{fill:#FF002C;}
	.st3{fill:#EDEDED;}
</style>
<path class="st0" d="M525.3,251.5c-2.2-14-8.7-27.1-17.7-38c-10.8-13.3-26.4-23.4-43.6-25.3c-3.6-0.5-7.6,0.3-10.9-1.8
	c1.6-4.2,4.4-8.5,3.5-13.2c-0.9-2.9-4-4.1-6.7-4.8c-8-1.6-16.3,0.1-24,2.2c-4.4,1.1-8.5,3.3-12.9,3.9c-2.4,0.3-4.1-2.3-3.4-4.4
	c1.7-7.5,5.6-14.2,8.3-21.4c2-5.4,4.5-10.9,4.4-16.8c-0.1-3.9-3.4-7-7-8.1c-5.4-1.8-11.2-0.6-16.5,0.9c-6.4,1.9-11.4,7-13.9,13.1
	c-5.3,12.7-5.2,26.7-5.3,40.2c0.2,4.3-3.6,7.4-7.4,8.3c-8.7,2.4-17.5,4.4-25.7,8.1c-5.2,2.4-10.9,5.2-13.4,10.7
	c-1.5,3.5,0.4,7.4,3.2,9.6c1.2,1.3,4.3,2.9,2.3,4.9c-8.2,7.7-15.8,16.7-19.3,27.5c-5.5,16.8-4.2,35.3,1.7,51.8
	c10.1,29.9,34.6,54.1,64.1,65.1c17.8,6.6,37.6,8.8,56.1,4.1c28.9-7.2,55.7-25.2,70.6-51.3C522.6,297,529.4,274,525.3,251.5z"/>
<path class="st1" d="M402.2,135.2c2.7-0.7,5.8-1,8.3,0.3c2.3,2,0,5-0.8,7.1c-6,11.7-11,24.1-11.8,37.3c-0.7,7.6,1.1,15.1,3.3,22.3
	c-1.8,0.4-3.5,0.7-5.3,0.9c-6.9-18.5-8-39.6-1.1-58.2C396.4,141.2,398,136.5,402.2,135.2z"/>
<path class="st1" d="M408.9,187.8c9.1-4.7,18.9-8.3,29.1-9.5c2.3-0.4,5.9,0.5,5.1,3.6c-4.3,7-11.5,11.8-15.4,19.1
	c2.1,2.6,5.4,3.4,8.3,5c4.1,2.1,8.3,4.2,11.9,7.1c1.8,1.2,1.3,4.4-1,4.7c-8.5,2-17.5,1.5-26.1,3.1c-0.4,6.7,0.9,13.3,1,20
	c-0.1,2.6,1,5.9-1,8.1c-1.9,1.1-4-0.3-5.5-1.3c-6.3-4.8-11.2-11-16-17.1c-1.9-2.4-3.4-5.2-5.8-7.2c-2.6-0.7-4.1,2.1-5.6,3.6
	c-4.4,5.9-9.2,11.4-14.8,16.2c-2,1.8-4.5,4.7-7.5,3.2c-2.6-5.4-0.3-11.6-0.2-17.4c0-4.7,2.1-10-0.3-14.4c-4.6-3.6-11.2-1.7-16.2-4.7
	c-1.5-0.9-1.4-3.1-0.1-4.1c2.5-2,5.5-3.1,8.5-4.3c7-2.6,14.1-5.3,21.5-6.2c2.4-0.2,5.5-0.4,7,1.8c2.5,3.9,2.4,9,5.4,12.6
	c5.9,2.5,14.2,0.7,17.9-4.7c-0.2-4.8-3-9.2-3.5-14C405.8,189.2,407.6,188.6,408.9,187.8z"/>
<path class="st2" d="M450.5,203.3c5.5-1.4,11.1,0.2,16.4,1.4c12.2,3,23.5,10.1,31,20.3c9.8,13.1,14.2,29.8,12.9,46
	c-1.2,16.7-7.8,33.1-18.7,45.9c-10.5,12.6-24.3,22.4-39.4,28.8c-18.4,7.7-39.5,8.8-58.6,3c-17-5.2-32.7-15-44.2-28.7
	c-11.4-13.5-17.5-31.3-17-49c0-12.4,3.6-25.5,12.4-34.7c2.5-2.6,5.1-5.2,8.6-6.5c2,8-0.4,16.7,2.9,24.4c1.3,3.1,5.1,4.7,8.3,3.5
	c10.8-3.3,19.9-10.5,27.9-18.1c6.4,7.7,13.7,14.7,22.2,20c3.4,2,7.5,4,11.5,2.9c3-0.9,4.1-4.2,4.8-7c1.6-7.1,1.8-14.5,0.7-21.6
	c0-1.2-1-3.8,0.9-4c8-0.8,16.1-1.9,23.4-5.5c3.4-1.6,5.4-5.6,4.1-9.2C458.8,210.2,453.8,207.3,450.5,203.3"/>
<path class="st3" d="M471.3,226.4c5.1-1.9,10.7,0.4,14.8,3.5c7.5,5.9,12,15.5,11.5,25.1c-0.3,5.9-3.3,12.2-9.1,14.5
	c-5.6,2.3-11.9,0-16.3-3.6c-7.2-6-11.4-15.6-10.8-24.9C461.7,234.8,465.2,228.4,471.3,226.4z"/>
<path class="st3" d="M484.4,277.6c5.8-1.9,10.8,3.9,11.2,9.3c1,5.6-2.3,13.1-8.7,13.2C476.4,298.9,475.1,281.5,484.4,277.6z"/>
</svg>
