<svg version="1.1" xmlns="http://www.w3.org/2000/svg" xmlns:xlink="http://www.w3.org/1999/xlink" x="0px" y="0px" viewBox="0 0 1000 1000" style="enable-background:new 0 0 1000 1000;" xml:space="preserve">
<style type="text/css">
	.st0{fill:#000000;}
	.st1{fill:#8D3D21;}
	.st2{fill:#B65F40;}
	.st3{fill:#EDEDED;}
	.st4{fill:#FFD400;}
	.st5{fill:#AAAAA9;}
</style>
<path class="st0" d="M692.5,109.5c-6.7-9.3-15.6-17.7-26.6-21.5c-6.5-2.3-13.6-0.1-18.8,4.2c-27.1,20.5-53.8,41.6-80.8,62.2
	c-2.3,1.8-5.7,1.8-8,0.1c-13.1-9.2-27.2-18.4-43.3-21c-8.6-1.5-18.8,1.2-23.4,9.3c-6.1,10.8-3.3,23.9,0.1,35.1
	c0.9,3.3,3.4,7.5,0.5,10.5c-4.5,4.4-10.2,7.3-15.3,10.7c-24,14.4-48.1,28.7-72.3,42.8c-25.4,14.6-51,29-76.4,43.6
	c-23.4,13.4-46.2,27.8-69.5,41.4c-17.7,10.7-35.3,21.6-53.4,31.7c-4.8,2.8-9.7,5.4-14,8.9c-2.3,2-4.6,5.4-3.1,8.5
	c1.5,3.8,6,4.8,9.6,5.6c17,3.6,34.1,6,51.2,8.9c21,3.5,42,7,62.9,10.6c1.4,0.1,3.3,0.7,4.1-0.8c5.1-7.8,10.1-15.7,16.3-22.6
	c10.1-11.5,23.3-20,37.5-25.6c38.8-15.3,84.3-8.2,118.7,14.5c3.1,2.6,7.1,0.7,9.1-2.4c21.5-28.5,43.6-56.5,65.5-84.7
	c1.4-1.9,3.1-3.6,5-5c8.6,4,17.1,8.8,26.8,9.8c7.7,1,16.2-0.8,21.6-6.5c5.4-5.7,7.1-14,6.6-21.6c-0.9-13.2-6.6-25.5-12.4-37.2
	c-1.6-2.9,1-5.3,3.1-6.9c26.8-21.2,53.3-42.8,80.3-63.8c4.2-3.5,7.6-8.5,7.5-14.2C701.6,125.1,697.7,116.6,692.5,109.5z"/>
<path class="st1" d="M663.5,101.4c2.3-2.4,5.7-0.3,7.7,1.4c6.7,5.8,12.1,12.9,16.6,20.5c1.4,2.6,3.4,6,1.3,8.8
	c-2.6,2.5-6.2,0.2-8.3-1.8c-6.5-5.9-12-13-16.4-20.6C663,107.3,661.5,103.9,663.5,101.4z"/>
<path class="st2" d="M646.4,112.3c2.7-2.1,7-6.9,10.1-2.8c5.6,9.1,11.7,18.1,19.5,25.6c1.5,1.6,3.9,3.3,3.1,5.8c-1,3-4,4.5-6.3,6.4
	C662.2,137.1,653.5,125.1,646.4,112.3z"/>
<path class="st2" d="M554.5,185.6c3.3-4.6,8.3-7.7,12.6-11.2c6.9,13.5,13.8,27,20.6,40.5c-2.7,1.8-5.4,3.9-8.7,4.2
	c-2.9-0.1-5.4-1.8-7.6-3.4c-6.6-5.1-12.2-11.5-16.2-18.8C553.4,193.5,552.2,188.9,554.5,185.6z"/>
<path class="st3" d="M621.3,131.9c6.8-5.3,13.5-10.6,20.3-15.9c2.4,4.3,5.1,8.5,7.7,12.7c0.6,4.1-0.1,8.3,0,12.4
	c0,8.4-0.1,16.7-0.2,25.1c-2.3,1.8-4.6,3.6-6.8,5.4C635.3,158.3,628.3,145.1,621.3,131.9z"/>
<path class="st3" d="M588.1,157.9c9.5-7.5,19-14.9,28.4-22.3c5.2,9.8,10.4,19.7,15.6,29.5c-11.2,0.8-22.3,1.7-33.5,2.6
	C595.2,164.4,591.7,161.2,588.1,157.9z"/>
<path class="st3" d="M655.4,136.7c3.9,5.1,8.1,9.9,12.7,14.4c-4.3,3.4-8.6,6.8-12.9,10.2C655.2,153.1,655.3,144.9,655.4,136.7z"/>
<path class="st3" d="M571.9,170.6c3.8-3,7.7-6,11.5-9.1c10.9,10.2,22,20.4,32.9,30.6c-7.9,6.3-15.9,12.6-23.8,18.9
	C585.6,197.6,578.7,184.1,571.9,170.6z"/>
<path class="st3" d="M604.6,173.3c10.2-1.1,20.4-1.5,30.6-2.6c0.8,1.5,1.6,3,2.4,4.6c-5.5,4.4-11.1,8.8-16.6,13.2
	C615.5,183.4,610.2,178.2,604.6,173.3z"/>
<path class="st3" d="M463.1,335.7c26.6-30.4,53.1-60.8,79.6-91.1c4.3,4.6,9.7,8.3,12.6,14.1c1.5,3.2-1.4,6-3,8.6
	c-10.4,14.2-21.8,27.6-32.6,41.5c-10.5,13.2-21.1,26.5-31.6,39.7C480.1,343.4,471.8,339.1,463.1,335.7z"/>
<path class="st4" d="M505.3,148.4c4.3-1.5,8.9-0.2,13,1.4c11.5,4.7,21.4,12.4,30.7,20.4c-4.3,4.4-11.6,7.7-11.7,14.7
	c2.9,14.5,12.2,27,22.8,36.9c5.1,4.3,10.2,9.4,16.9,11.2c7.1,1.3,12.6-4.3,18-7.9c5.2,8.8,9.9,18.1,12.5,28.1c1,4.4,1.9,9.1,0,13.4
	c-1.2,2.8-4.6,3.9-7.5,3.7c-7.3-0.6-13.9-4.3-20.1-8c-14.7-9.3-27.4-21.3-39-34.1c-12.1-13.6-23-28.4-31.3-44.6
	c-3.9-8.3-8-17-8.3-26.4C501.2,153.8,502,149.8,505.3,148.4z"/>
<path class="st5" d="M502,206.1c1.7-0.9,3.6-2.1,5.6-1.6c2.5,0.9,4.1,3.1,5.7,5.1c-9.9,7.3-20,14.4-29.9,21.8
	c-3.2,1.9-3.1,7.5,0.7,8.7c2.7,1.3,5.3-0.9,7.5-2.4c9.2-6.7,18.4-13.3,27.5-20c7.4,9.4,15.2,18.4,23.6,26.9
	c-26.5,30.4-53,60.8-79.6,91.1c-34.5-13.9-75.1-12.9-108.3,4.2c-20.3,10.4-36.4,27.4-49.3,46c-27.4-4.3-54.7-8.7-82.1-13.1
	C316.3,317.2,409.1,261.6,502,206.1 M470.5,240.6c-3.7,1.6-4.1,7.4-0.5,9.4c3.5,2.4,8.8-0.8,8.3-5
	C478.2,241.3,473.7,238.9,470.5,240.6z"/>
</svg>
