<svg version="1.1" xmlns="http://www.w3.org/2000/svg" xmlns:xlink="http://www.w3.org/1999/xlink" x="0px" y="0px" viewBox="0 0 1000 1000" style="enable-background:new 0 0 1000 1000;" xml:space="preserve">
<style type="text/css">
	.st0{fill:%%ST0%%;}
	.st1{fill:%%ST1%%;}
</style>
<path class="st1" d="M667.7,938.3c-0.7-2.1-2.4-3.6-4.2-4.8c-17.1-9.7-33.8-20.2-50.7-30.2c-23.5-14.2-47-28.3-70.5-42.5
	c19.2-24.9,38.6-49.7,58.1-74.4c1.9-2.7,4.7-5.1,5.2-8.5c-0.3-3.8-2.4-7.2-4.1-10.5c-5-8.9-11.1-17.3-18.9-23.9
	c-2.9-2.6-7.2-1.2-9.5,1.5c-26.7,28.7-53.4,57.4-80.1,86c-49.1-29.5-98.2-59.1-147.3-88.7c-3.8-2.1-7.2-5.4-11.6-5.8
	c-4.1,0.5-6.6,4.3-9.5,6.9c-11.9,12.7-22.6,26.5-31.6,41.5c-1.5,2.8-3.6,5.7-3.1,9c0.2,2,1.8,3.6,3.5,4.6
	c50.8,27.6,101.3,55.7,152,83.5c-23.9,25.8-48,51.5-71.9,77.3c-2.7,2.5-2.4,6.4-1.7,9.7c2.2,10.3,4.3,20.6,6.6,30.9h12.5h25.8h18
	c22.4-28.9,44.7-57.9,67.1-86.8c52.6,28.9,105.1,57.9,157.7,86.8h27C679.9,979.5,674.2,958.8,667.7,938.3z"/>
<path class="st1" d="M383.9,966.2c1.9,11.3,4.7,22.5,7,33.8h-12.5"/>
<path class="st1" d="M654.5,943.5c-38.1-22.8-76-46-114.2-68.6c-8,10.6-16.2,21-24.2,31.6"/>
<path class="st0" d="M305.2,790.2c8.5-14.1,18.4-27.7,30.8-38.6c49.3,29.6,98.6,59.4,147.9,89.1c-9.9,10.5-19.6,21.3-29.7,31.7
	C404.6,844.9,354.8,817.7,305.2,790.2z"/>
<path class="st0" d="M383.9,966.2c63.9-68.6,127.8-137.3,191.8-205.9c5.3,5.8,9.8,12.3,13.9,19c-25,32.7-50.5,65.1-75.9,97.5
	c-32.4,41.1-64.6,82.3-97.1,123.3h-25.8C388.6,988.7,385.8,977.5,383.9,966.2z"/>
<path class="st0" d="M540.3,874.9c38.2,22.6,76.1,45.8,114.2,68.6c4.9,15.5,9.6,31.1,14.3,46.7c-15.5-7.9-30.6-16.7-45.9-25
	c-35.6-19.6-71.1-39.2-106.8-58.7C524.1,895.8,532.3,885.4,540.3,874.9z"/>
</svg>
