<svg version="1.1" xmlns="http://www.w3.org/2000/svg" xmlns:xlink="http://www.w3.org/1999/xlink" x="0px" y="0px" viewBox="0 0 1000 1000" style="enable-background:new 0 0 1000 1000;" xml:space="preserve">
<style type="text/css">
	.st0{fill:#EDEDED;}
	.st1{fill:#FFD400;}
	.st2{fill:#6089FF;}
	.st3{fill:#000000;}
</style>
<path class="st0" d="M658.5,473.6c-7.8-16.6-18.1-32.1-31.1-45.1c-9.5-9.5-20.7-17.2-32.6-23.5c-32.8-16.9-71-24-107.6-17.9
	c-38.6,6-74.8,25.4-101.9,53.3c-22.7,23.1-37.2,53.5-42.7,85.3c3.3,4.2,6.7,8.4,10.1,12.6c6.8,8.5,13.6,17,20.4,25.5
	c4.1-3.5,8-8.6,13.9-8.2c6.5,0.5,13,1.8,19.3,3.1c-1-2.3-1.9-5.3,0-7.3c1.8-2.4,5.1-2.2,7.6-1.4c28.9,8.2,57.8,16.4,86.7,24.5
	c2.2,0.7,5,1.4,6.1,3.8c1.8,3-0.6,7.3-4,7.6c-2.6,0.2-5.1-0.7-7.6-1.3c-1.6,4.7-3.5,9.3-6.4,13.3c-7.6,10.8-20.5,17.8-33.7,17.9
	c-10.3,0.3-20.6-3.5-28.4-10.3c-14.2,6.5-28.4,13-42.6,19.5c-4.3,2.2-9.8,1.7-13.5-1.5c-4.7-4-9.2-8.2-14-12.2c-2.3-2-4.7-4.1-7-6.1
	c-1.8,1.3-3.5,2.6-5.2,4c4.5,21.3,13.7,41.4,26.4,59.1c10.9,15.2,24.3,29,40.2,39c2.3,1.4,5.2,3.3,8,1.9c2.2-0.8,2.9-3.2,3.5-5.1
	c-0.8-1.9-1.8-3.8-3.7-4.9c-12.3-8.8-24.3-18.6-32.5-31.5c-1.1-1.6-1.7-3.5-2-5.4c0.7,0.1,2,0.2,2.6,0.2
	c27.2,9.8,55.8,14.8,84.2,18.9c40.9,4.6,82.5,3.6,123-3.3c10.7-1.6,21.2-4.8,31.7-7.3c-0.7,1.6-1.4,3.2-2.5,4.5
	c-5.9,6.8-12.8,12.7-20.4,17.7c-2.5,1.5-4.3,4.9-2.6,7.7c1.5,2.9,5.5,3.6,8.1,1.7c13.3-8.3,24.2-19.9,33.7-32.3
	c10.7-14.5,18.5-31,24.3-48.1c-3.2-2.2-6.5-4.4-9.7-6.6c-0.4-0.3-1.2-0.8-1.6-1.1c-2.3,2.1-4.3,4.7-7.3,5.8c-3.5,1.1-7-0.6-10-2.2
	c-6.6-3.6-13-7.7-19.5-11.5c-10.9,6.7-25.6,6.4-36.2-0.8c-6.9-4.4-11.6-11.5-14.1-19.2c-2.8,0.4-6,1.9-8.6,0.1
	c-2.8-1.6-3.2-5.8-1.1-8.1c1.3-1.3,3.1-1.9,4.8-2.4c21.1-6.1,42.3-12.2,63.4-18.4c3.4-0.8,7.2-2.9,10.7-1c2.6,1.4,2.6,4.6,2.3,7.2
	c1,0.8,1.9,1.7,2.9,2.5c7.1-3.4,14.3-6.7,21.4-10c3.5-1.8,7.2-3.4,11.2-3.9l0.6-0.1C675,525.5,669.7,498.3,658.5,473.6z
	 M396.9,445.9c12.4-13.1,27.5-23.3,43.5-31.4c20.2-10.4,42.6-16.2,65.2-17.6c18.4-1,36.9,1.3,54.5,6.7c18.7,5.6,36.8,14,51.7,26.7
	c12.5,10.4,22.5,23.6,29.5,38.2c2,4,2.7,9.7-1,12.9c-4.6,3.7-10.9,3.5-16.4,4.4c-25.3,2.4-50.6,4-76,3.7
	c-41.1-0.7-82.4-3.3-122.9-11.2c-8.4-1.7-16.8-3.2-25.1-5.4c-4.5-1.1-9.2-4.1-10.2-9C388.3,457.2,392.4,450.7,396.9,445.9z"/>
<path class="st1" d="M353.2,577.6c-4.9-5.5-9.3-11.4-13.9-17.1c-0.1,7.1,0.2,14.2,0.7,21.3C343.7,578.5,348.4,577.2,353.2,577.6z"/>
<path class="st1" d="M411.8,585.5c-7.1-1.5-14.2-2.9-21.3-4.3c-5.2,4.7-9.4,11-16.5,13c2.1,1.9,4.3,3.7,6.3,5.6
	C390.9,595.2,401.3,590.2,411.8,585.5z"/>
<path class="st1" d="M657.9,586.1c1.5,1,3,2.1,4.4,3.1c3.4,2.4,6.9,4.8,10.3,7.2c0.9-5.9,1.7-11.9,2.1-17.9c-4,1.5-8,3.3-11.8,5.2
	C661.2,584.5,659.6,585.3,657.9,586.1z"/>
<path class="st1" d="M372.4,484.4c4.5-2.5,9.8-1.2,14.6-0.4c14.8,3,29.4,6.4,44.3,8.8c18.5,2.8,37,5.9,55.6,7.2
	c26,2,52,3.6,78.1,2.5c25.2-0.1,50.3-2.1,75.2-6c3.2-0.4,6.5-1.1,9.7-0.4c3.5,1,5.3,4.5,6.5,7.6c2.2,6,3.1,12.3,4.1,18.6
	c1.5,11.4,3.2,22.8,3.4,34.2c-7.1,3.4-14.3,6.7-21.4,10c-1-0.9-2-1.7-2.9-2.5c0.3-2.6,0.3-5.8-2.3-7.2c-3.4-1.9-7.2,0.2-10.7,1
	c-21.1,6.2-42.3,12.3-63.4,18.4c-1.7,0.6-3.5,1.1-4.8,2.4c-2.1,2.3-1.7,6.5,1.1,8.1c2.6,1.8,5.8,0.3,8.6-0.1
	c2.5,7.7,7.2,14.8,14.1,19.2c10.6,7.2,25.3,7.5,36.2,0.8c6.5,3.8,12.9,7.9,19.5,11.5c3,1.6,6.5,3.3,10,2.2c3-1.1,5-3.7,7.3-5.8
	c0.4,0.3,1.2,0.8,1.6,1.1c-3.3,10.1-6.8,20.5-13.3,29.1c-5.6,6.9-14.5,9.7-22.7,12.4c-18.2,5.2-36.9,8.8-55.8,11.1
	c-18.2,2.1-36.6,2-55,1.9c-18.4-0.2-36.7-2-54.9-5c-21-3.5-42-8.1-61.6-16.4c-10-4.2-20.3-9-27.5-17.5c-4.8-5.7-7.5-12.7-9.5-19.7
	c4.7,4,9.3,8.2,14,12.2c3.7,3.2,9.2,3.7,13.5,1.5c14.2-6.5,28.4-13,42.6-19.5c7.8,6.7,18.1,10.6,28.4,10.3
	c13.2-0.1,26.2-7,33.7-17.9c2.9-4,4.8-8.6,6.4-13.3c2.5,0.6,5,1.5,7.6,1.3c3.4-0.3,5.8-4.6,4-7.6c-1.1-2.4-3.8-3.1-6.1-3.8
	c-28.9-8.1-57.8-16.3-86.7-24.5c-2.6-0.8-5.8-1-7.6,1.4c-1.9,2.1-1,5.1,0,7.3c-6.4-1.4-12.8-2.7-19.3-3.1c-5.9-0.4-9.8,4.8-13.9,8.2
	c-6.8-8.5-13.6-17-20.4-25.5c1.9-14.3,5.3-28.5,10.8-41.9C365.5,491.9,367.9,487,372.4,484.4z"/>
<path class="st1" d="M390.5,581.2c7.1,1.4,14.2,2.8,21.3,4.3c-10.5,4.7-20.9,9.6-31.5,14.3c-2.1-1.9-4.2-3.7-6.3-5.6
	C381.1,592.3,385.4,585.9,390.5,581.2z"/>
<path class="st3" d="M406.4,551.4c1.8-2.4,5.1-2.2,7.6-1.4c28.9,8.2,57.8,16.4,86.7,24.5c2.2,0.7,5,1.4,6.1,3.8c1.8,3-0.6,7.3-4,7.6
	c-2.6,0.2-5.1-0.7-7.6-1.3c-1.6,4.7-3.5,9.3-6.4,13.3c-7.6,10.8-20.5,17.8-33.7,17.9c-10.3,0.3-20.6-3.5-28.4-10.3
	c-1.4-1.3-2.8-2.6-4.1-4c3.5-1.6,7.1-3.3,10.6-5c8.9,7.8,22.1,10.3,33.1,5.6c8.9-3.6,15.5-11.6,18.3-20.7c-20-5.7-40.1-11.4-60.1-17
	c-0.4,1.6-0.7,3.2-1,4.8c-3.7-0.7-7.3-1.5-11-2.2c0.4-1.8,0.8-3.7,1.2-5.5c-2.4-0.9-4.8-1.8-7.2-2.8
	C405.4,556.5,404.4,553.5,406.4,551.4z"/>
<path class="st3" d="M626.6,557.8c3.4-0.8,7.2-2.9,10.7-1c2.6,1.4,2.6,4.6,2.3,7.2c-1.3,1-2.7,1.9-4.1,2.7c-18.9,5.6-37.9,11-56.8,16.6
	c2.4,7.7,8.5,14.3,16.5,16.1c6.2,1.9,12.8,0.2,18.4-2.8c3.5,1.9,7,3.9,10.5,5.8c-1.8,1.4-3.6,2.7-5.5,4c-10.9,6.7-25.6,6.4-36.2-0.8
	c-6.9-4.4-11.6-11.5-14.1-19.2c-2.8,0.4-6,1.9-8.6,0.1c-2.8-1.6-3.2-5.8-1.1-8.1c1.3-1.3,3.1-1.9,4.8-2.4
	C584.3,570,605.5,563.9,626.6,557.8z"/>
<path class="st3" d="M412.2,579.5c4,0.8,8,1.6,12,2.4c0.5,1.5,1.1,3,1.7,4.5c-3.4,1.6-6.8,3.1-10.2,4.7C414.2,587.3,413,583.5,412.2,579.5z"/>
<path class="st3" d="M623.2,582.9c3.1-1,6.1-2,9.2-3.1c0.7,0.9,1.5,1.9,2.3,2.8c-0.8,3.5-1.9,6.8-3.2,10.2c-3.3-1.8-6.6-3.6-9.8-5.5
	C622.1,585.8,622.7,584.4,623.2,582.9z"/>
<path class="st2" d="M714.7,611.9c-0.3-6.8-7.1-12.1-13.7-11c-5.8,0.8-11.5,2.2-17.2,3.3c-3.7-2.5-7.4-5.2-11.1-7.7
	c-3.4-2.4-6.9-4.8-10.3-7.2c-1.5-1-3-2.1-4.4-3.1c1.7-0.8,3.3-1.5,5-2.3c3.9-1.9,7.8-3.7,11.8-5.2c4.2,2.7,9,5.8,14.3,4.6
	c4.5-0.8,7.6-4.3,11-7c3.5-2.9,7.6-5.7,8.8-10.4c2.1-6.7-2.9-14.4-9.9-15.1c-5.4-1-9.9,2.6-13.7,5.9c-3.2-1.8-6.5-3.7-10.2-4
	c-4,0.5-7.7,2.1-11.2,3.9c-7.1,3.4-14.3,6.7-21.4,10c-1-0.9-2-1.7-2.9-2.5c-1.3,1-2.7,1.9-4.1,2.7c-18.9,5.6-37.9,11-56.8,16.6
	c2.4,7.7,8.5,14.3,16.5,16.1c6.2,1.9,12.8,0.2,18.4-2.8c3.5,1.9,7,3.9,10.5,5.8c-1.8,1.4-3.6,2.7-5.5,4c6.5,3.8,12.9,7.9,19.5,11.5
	c3,1.6,6.5,3.3,10,2.2c3-1.1,5-3.7,7.3-5.8c0.4,0.3,1.2,0.8,1.6,1.1c3.2,2.2,6.5,4.4,9.7,6.6c5,3.2,10,8.2,16.5,7
	c7.3-1.3,14.5-2.7,21.8-4.3C710.7,623.6,715.3,618,714.7,611.9z M621.6,587.3c0.5-1.5,1.1-3,1.6-4.4c3.1-1,6.1-2,9.2-3.1
	c0.7,0.9,1.5,1.9,2.3,2.8c-0.8,3.5-1.9,6.8-3.2,10.2C628.1,591,624.8,589.1,621.6,587.3z"/>
<path class="st2" d="M423.3,569.2c-3.7-0.7-7.3-1.5-11-2.2c0.4-1.8,0.8-3.7,1.2-5.5c-2.4-0.9-4.8-1.8-7.2-2.8
	c-6.4-1.4-12.8-2.7-19.3-3.1c-5.9-0.4-9.8,4.8-13.9,8.2c-6.8-8.5-13.6-17-20.4-25.5c-3.4-4.2-6.7-8.4-10.1-12.6
	c-2.4-2.9-4.6-6.3-8.1-8c-3.5-1.9-7.6-1.9-11.4-1.2c-8.4,1.7-16.7,3.4-25.1,5.1c-3.4,0.7-6.9,1.6-9.3,4.1
	c-4.1,3.8-4.8,10.6-1.6,15.2c2.8,4.1,8.1,6.2,12.9,5.2c8-1.5,16-3.3,24-4.8c5.1,6.4,10.2,12.8,15.3,19.2c4.6,5.7,9.1,11.6,13.9,17.1
	c-4.8-0.4-9.6,1-13.2,4.2c-7.4,5.7-14.9,11.2-22.3,17c-4.5,3.3-6.6,9.6-4.2,14.8c2.5,6.2,10.7,9.1,16.6,5.8c5-2.9,9.4-6.9,14.1-10.3
	c1.8-1.3,3.5-2.6,5.2-4c2.4,2,4.7,4,7,6.1c4.7,4,9.3,8.2,14,12.2c3.7,3.2,9.2,3.7,13.5,1.5c14.2-6.5,28.4-13,42.6-19.5
	c-1.4-1.3-2.8-2.6-4.1-4c3.5-1.6,7.1-3.3,10.7-5c8.9,7.8,22.1,10.3,33.1,5.6c8.9-3.6,15.5-11.6,18.3-20.7c-20-5.7-40.1-11.4-60.1-17
	C424,566,423.6,567.6,423.3,569.2z M380.4,599.8c-2.1-1.9-4.2-3.7-6.3-5.6c7.1-1.9,11.3-8.3,16.5-13c7.1,1.4,14.2,2.8,21.3,4.3
	C401.3,590.2,390.9,595.2,380.4,599.8z M415.6,591.1c-1.5-3.8-2.6-7.7-3.5-11.6c4,0.8,8,1.6,12,2.4c0.5,1.5,1.1,3,1.7,4.5
	C422.4,588,419,589.5,415.6,591.1z"/>
<path class="st0" d="M304.5,526.6c7.9-1.5,15.6-3.8,23.5-5c3.1-0.6,5.5,2,7.3,4.2c12.6,16,25.3,31.8,38,47.7c3.2-3.3,6-6.9,9.5-9.7
	c2.7-2.2,6.3-1.4,9.4-0.8c6.7,1.4,13.4,2.8,20.2,4.1c3.6,0.7,7.3,1.5,11,2.2c0.3-1.6,0.7-3.2,1-4.8c20,5.7,40.1,11.3,60.1,17
	c-2.8,9.1-9.3,17.1-18.3,20.7c-11,4.7-24.2,2.2-33.1-5.6c-3.5,1.7-7.1,3.3-10.6,5c-13.2,6.1-26.4,12.2-39.6,18.4
	c-2.9,1.5-6.5,1.9-9-0.6c-8.1-7.2-16.1-14.6-24.3-21.9c-6.8,5-13.5,10-20.2,15c-2.6,1.9-6,4.4-9.3,2.6c-3.6-1.6-4.5-6.9-1.5-9.5
	c5.1-4.7,11.1-8.3,16.5-12.6c4.3-2.9,8.1-6.8,13-8.8c3.3-1.2,6.4,1,8.7,3.1c7.6,6.9,15.2,13.8,22.8,20.6c12-5.6,24.1-11.1,36.1-16.7
	c3.4-1.6,6.8-3.2,10.2-4.7c-0.6-1.5-1.1-3-1.7-4.5c-4-0.8-8-1.6-12-2.4c-6.1-1.2-12.1-2.4-18.2-3.7c-1.8-0.2-3.6-0.9-5.4-0.4
	c-5,3.7-8,9.9-13.8,12.6c-3.6,1.6-6.8-1.3-8.8-4c-13.2-16.6-26.4-33.3-39.7-49.8c-8.4,2-16.9,3.8-25.3,5.7c-2.8,0.5-6,1.4-8.5-0.4
	c-3.3-2.2-3.2-7.8,0.2-9.8C296.4,527.9,300.5,527.5,304.5,526.6z"/>
<path class="st0" d="M696.3,556.4c4.6-1.7,9.3,3.8,7,8.1c-2.4,3.8-6.4,6.2-9.7,9.1c-2.6,1.9-5.2,4.8-8.7,4.3
	c-4.2-1.1-7.5-4.1-11.2-6.3c-8.6,4.4-17.2,8.7-25.7,13.2c-2.2,1.1-4.5,2.3-7,2.3c-2.8-0.2-4.7-2.6-6.4-4.6c-0.8-0.9-1.5-1.9-2.3-2.8
	c-3.1,1-6.1,2-9.2,3.1c-0.5,1.5-1.1,3-1.6,4.4c3.3,1.8,6.5,3.6,9.8,5.5c3.7,2.1,7.4,4.1,11.1,6.1c2.3-2.8,4.2-6.3,7.5-8
	c3.1-1.4,6.1,0.8,8.4,2.5c6.3,5,12.6,10.1,18.8,15.2c1.3,0.8,2.5,2.2,4.2,2.1c7.6-0.8,14.9-3.5,22.5-3.9c4.2-0.2,7.2,4.9,5.2,8.5
	c-1.2,2.7-4.3,3.4-6.9,4c-5.8,1.2-11.7,2.2-17.5,3.5c-3.3,0.7-7.2,1.7-10-0.7c-7.3-5.5-14.3-11.4-21.5-17c-2.7,3.2-5.4,8.4-10.4,7.4
	c-6.8-2.4-12.6-6.8-19-9.9c-3.5-2-7-3.9-10.5-5.8c-5.6,3-12.2,4.6-18.4,2.8c-8-1.9-14-8.5-16.5-16.1c18.9-5.6,37.9-11,56.8-16.6
	c3.4,1.2,5.6,4.1,7.8,6.8c9.2-4.5,18.2-9.5,27.4-13.9c5.5-2.8,10.3,2.4,14.7,5C689,561.8,692.1,558.3,696.3,556.4z"/>
</svg>
