<svg version="1.1" xmlns="http://www.w3.org/2000/svg" xmlns:xlink="http://www.w3.org/1999/xlink" x="0px" y="0px" viewBox="0 0 1000 1000" style="enable-background:new 0 0 1000 1000;" xml:space="preserve">
<style type="text/css">
	.st0{fill:#000000;}
	.st1{fill:#464B4B;}
</style>
<path class="st0" d="M687,634c-1.1-34.6-2.2-69.3-6.6-103.8c-1.7-12.6-2.4-25.4-6.2-37.5c-2.3-8-6.3-15.7-12.3-21.6
	c-6.5-6.3-15.2-9.5-24-11.1c-19.9-4-40.3-3-60.4-3.6c-50.4-1.5-100.8-3.1-151.2-2.1c-11,0.5-22.1,0.7-32.8,3.3
	c-9.9,2.2-19.7,6.6-26.5,14.3c-7.5,8.4-10.6,19.5-12.8,30.3c-4.1,22.2-4.4,44.8-6.4,67.3c-2.4,28.7-3.3,57.6-2.1,86.4
	c0.7,12.2,1.7,25.2,8.9,35.5c6.1,9.1,16.8,14,27.4,15.8c17.5,3.1,35.4,2.6,53.1,2.6c11.3,0.1,22.6-0.5,34-0.6
	c49.9-1.9,99.9,0.8,149.8-1c15.8-0.9,32.2-1.8,46.5-9.2c8.6-4.4,15.5-12.2,18.2-21.5C687.6,663.5,687,648.5,687,634z"/>
<path class="st1" d="M623.2,485.3c7.8-1,16.3,1.2,22.8,5.8c7,5,8.9,14.1,9.8,22.2c0.2,3.9,1.9,8.9-1.5,11.9c-3,2.9-8.5,1.1-9.5-2.8
	c-1.7-6.5-0.7-13.9-4.3-19.8c-4.3-5.3-11.8-4.7-17.8-6.2C617.9,494.4,618.2,486.6,623.2,485.3z"/>
<path class="st1" d="M384.5,521.6c3.6-1.6,7.9,1.5,8.1,5.4c0,4-0.4,7.9-0.9,11.9c-0.3,2.2-1.7,4.3-3.8,5.1c-3.5,1.6-7.9-1.2-8.1-5
	c-0.1-4,0.4-8,0.8-11.9C380.7,524.7,382.2,522.5,384.5,521.6z"/>
<path class="st1" d="M381.3,555.2c4.2-1.9,8.9,2.4,8.1,6.8c-2.4,26-4.5,52-5.8,78c-0.1,7.3-1.4,14.7,0.5,21.9c0.7,3,3.1,5.3,6.1,6
	c5,1.8,10.4,0.4,15.6,1.4c3.7,0.9,5.8,5.8,3.4,9c-2.2,3.4-6.7,2.8-10.2,2.9c-7.8,0-16.3-1.4-21.9-7.4c-5.5-5.8-6.3-14.2-6.3-21.8
	c1.1-29.7,3.5-59.4,6.2-89C377.2,559.9,378.1,556.3,381.3,555.2z"/>
</svg>
