<svg version="1.1" xmlns="http://www.w3.org/2000/svg" xmlns:xlink="http://www.w3.org/1999/xlink" x="0px" y="0px" viewBox="0 0 1000 1000" style="enable-background:new 0 0 1000 1000;" xml:space="preserve">
<style type="text/css">
	.st0{fill:%%ST0%%;}
	.st1{fill:#000000;}
</style>
<path class="st1" d="M700.7,372c-3.2-17-10.6-33.4-22.3-46.3c-5.2-5.6-11.5-11-19.3-12.3c-9.3-1.4-18.8-0.8-28.2-0.6c-5.7,0-9.8-4.6-13.5-8.3
	c-20.5-20.6-45.1-37.3-72.3-47.7c-29.5-11.5-61.7-15.5-93.1-12.4c-2.7,0.1-7,0.8-7.9-2.6c-1.3-6.1-3-12.2-6.6-17.3
	c-6-9.3-17.3-15.3-28.4-13.9c-4.5,0.3-8.6,2.4-13,3.4c-2.1-0.7-3-3.2-4.3-4.9c-8.7-13.9-26.4-21.5-42.4-17.6
	c-14.1,3-25.8,14.3-29.9,28c-1.1,2.4-1.3,6.4-4.5,6.9c-5.6,0.3-11.2-0.6-16.8,0.2c-14.2,1.6-28,9.9-34.8,22.7
	c-5.7,10.3-6,23.5-0.7,34c0.7,1.8,2.1,3.6,1.8,5.7c-1.2,2.4-3.3,4.3-4.8,6.5c-5.2,6.9-7.6,16-5.8,24.5c1.6,8,6.8,15.1,13.8,19.3
	c2,1.4,5.3,2.7,4.7,5.8c-1.1,5.1-4.1,9.4-6.1,14.2c-11.2,24.2-13.2,51.5-11.1,77.8c0.2,5.2,2.4,11.3-1.1,15.8
	c-5.4,5.7-13.3,8.8-17.5,15.6c-3.3,7.2-0.8,15.2,1.1,22.5c4.2,14.8,11.5,28.6,20.9,40.7c3.2,4,7.2,8.3,12.5,8.9
	c4.2,0.3,7.4-2.7,10.4-5.2c23.8-21.9,50.8-40,78.7-56.2c31.1-18,63.7-33.2,97.2-46c71.6-27.1,147.3-43.7,223.8-47.5
	c5.6-0.4,11.8,0.2,16.6-3.1C700.9,380.2,701.6,375.7,700.7,372z"/>
<path class="st0" d="M353.3,207.2c9.7-2.2,20.2,2.8,25.3,11.2c3.1,4.5,3.6,10.1,5,15.2c0.9,4.2,6.1,7.2,10.1,5.1
	c3.5-1.7,5.4-5.4,8.3-7.9c3.9-3.4,9.7-5.5,14.7-3.4c6.4,2.4,9.9,9.1,10.7,15.6c0.5,2.3-0.8,4.6-3,5.5c-4.9,2.2-10.4,2.9-15.5,4.6
	c-25.7,7.8-50.1,19.7-72.8,34.1C320,297.7,304.6,309.4,291,323c-2.6,2.5-5.8,5.3-9.7,4.7c-6-1.2-11.5-6.3-11.8-12.7
	c-0.3-7.1,4.3-13.9,10.5-17.1c2.4-1.5,5.7-2.3,6.9-5.1c0.8-3.7-2.7-6.3-4.7-8.9c-5.4-5.9-8.9-14.4-6.5-22.4
	c2.9-10.3,13-17.2,23.3-18.6c7.7-1.2,15.7,0.8,22.4,4.8c2.8,1.5,5.4,3.6,8.6,4.4c2.9,0.7,6-1.8,5.8-4.8c-0.1-7.1-3.1-14.1-1.2-21.1
	C336.5,216.8,344,209,353.3,207.2z"/>
<path class="st0" d="M396.4,274.5c22.2-8.5,45.8-13.7,69.6-14.8c44.7-1.8,89.8,13.5,124.2,42c3.9,3.5,8.6,6.5,10.7,11.5
	c-1.6,1.6-3.7,2.2-5.9,2.4c-74.1,8.6-146.6,29.9-214.1,61.5c-35.7,16.7-70,36.3-102.3,58.7c-1.7,0.9-4,3-5.8,1.5
	c-1.9-3-1.8-6.8-2.2-10.2c-0.6-20.5,1.4-41.6,10.1-60.4c6.7-14.1,15.9-27,27.4-37.5C333.8,305.5,364,287.2,396.4,274.5z"/>
<path class="st0" d="M632.5,327.8c8.2-0.5,16.5-1.5,24.7-0.1c6.8,1.1,11.5,6.5,15.4,11.7c4.2,6.1,7.7,12.8,9.9,19.9
	c0.7,2.7,1.5,5.6,0.2,8.3c-1.8,2.7-5.3,3-8.2,3.5c-10.1,1.1-20.3,1.3-30.4,1.3c-2.7,0.3-4.7-1.9-5.4-4.3
	c-4.4-12.4-10.5-24.2-17.7-35.2c-0.6-1-1.7-2.5-0.1-3.2C624.4,328,628.6,328.3,632.5,327.8z"/>
<path class="st0" d="M593.2,331.2c4.5-0.3,9.2-1.3,13.7-0.2c2.5,0.5,4,2.7,5.5,4.7c6,8.7,11.2,18.1,15.2,27.9c0.9,2.8,2.8,6.1,1.2,9
	c-2.4,2.2-5.9,2.4-9,3.1c-13.3,2.1-26.6,4.2-39.8,6.7c-3.2,0.9-6.1-1.4-7-4.3c-3.9-10-8.1-19.9-13.8-29.1c-1.8-3.2-4.2-6.2-4.9-9.9
	c1.1-1.7,3.2-2,5-2.5C570.4,334.1,581.8,332.6,593.2,331.2z"/>
<path class="st0" d="M536.8,340.7c2.2-0.3,4.9-1,6.8,0.8c3,2.8,4.8,6.6,7,10c4.9,7.8,8.7,16.3,12.2,24.9c0.8,2.1,1.6,4.3,1.2,6.6
	c-1.3,2.7-4.6,3.2-7.1,4c-15.4,3.8-30.7,7.5-45.8,12.1c-2.5,0.7-6.3,1.9-7.6-1.3c-4.4-10.1-8.5-20.3-14.1-29.7
	c-2.1-4.2-5.8-8-5.8-12.9c6.2-3,12.9-4.5,19.5-6.3C514.1,345.8,525.3,342.8,536.8,340.7z"/>
<path class="st0" d="M431.1,372.1c11.9-4.4,23.8-8.9,36-12.7c2.7-1.1,6-0.8,7.7,1.8c7.6,11,13.9,22.9,18.4,35.5
	c0.7,2,1.5,4.6-0.2,6.3c-2.6,2.4-6.2,3.3-9.4,4.5c-14,4.6-27.8,9.9-41.6,14.8c-3.4,1.6-5.4-2.1-6.6-4.6c-4.3-9.4-9.2-18.5-14.7-27.2
	c-2-3.4-4.6-6.5-5.7-10.4C419.6,376.2,425.6,374.5,431.1,372.1z"/>
<path class="st0" d="M399.4,385.5c2.1-0.8,4.9-1.5,6.9,0.1c2.5,2.3,4.1,5.3,5.9,8.2c5.7,9.6,11.9,19.3,14.8,30.2
	c1.3,3-1.7,5-4.1,6.1c-12.9,6-25.8,12.1-38.6,18.4c-2.7,1.2-5.3,3-8.3,3.1c-2.3-0.6-3.5-2.9-4.7-4.8c-6.1-10.2-12.5-20.3-18.4-30.7
	c-0.9-1.8-2.3-4-1-6c1.5-2,3.8-3,5.8-4.3C371.3,398.4,385.2,391.5,399.4,385.5z"/>
<path class="st0" d="M337.3,417.3c2.6-1.2,5.9-0.5,7.3,2.1c6.6,10.4,12.9,21.1,19.3,31.7c1.2,2.1,3.2,5.3,0.4,7.2
	c-7.6,5.6-16.3,9.8-24.3,15c-7.9,4.7-15.5,9.9-23.4,14.7c-3.5,2.2-6.5-1.6-8.4-4.1c-7-9.6-12.7-20.2-16.5-31.4
	c-1.3-3.2-0.3-7,2.8-8.9c9.4-6.7,19.3-12.7,29.2-18.7C328.1,422.1,332.5,419.2,337.3,417.3z"/>
<path class="st0" d="M278.4,454.5c1.8-1,4-0.6,4.7,1.4c3.1,6.5,5.8,13.2,9.4,19.5c2.9,5.7,6.7,11,9.3,16.9c1.2,2.4,1.1,5.6-1.3,7.3
	c-6.9,5.4-14.1,10.5-20.9,16.1c-2.6,2-6,4.8-9.4,2.9c-5.4-3-8.3-8.8-11-14.1c-3.7-7.7-7-15.9-7.4-24.6c-0.4-6.5,5.6-10.4,10-14.1
	C267.4,462,272.4,457.3,278.4,454.5z"/>
</svg>
