<svg version="1.1" xmlns="http://www.w3.org/2000/svg" xmlns:xlink="http://www.w3.org/1999/xlink" x="0px" y="0px"
	 viewBox="0 0 1000 1000" style="enable-background:new 0 0 1000 1000;" xml:space="preserve">
<style type="text/css">
	.st0{fill:%%ST0%%;}
	.st1{fill:%%ST1%%;}
</style>
<path class="st1" d="M717,919c-1.6-26.5-3.2-53.1-8.5-79.1c-5.2-26.2-14.6-52.1-31.2-73.3c-18.3-24.1-45.5-40.4-74.3-48.8
	c-19.2-5.4-39.2-7.2-59-7.6c-25.1,0.1-50.1,3.2-75.1,5.6c-42.1,5.1-84.2,11.3-125.1,22.9c-15.8,4.6-31.8,9.9-45.3,19.6
	c-15.5,10.7-27,26.3-34.9,43.3c-14.5,31-19,65.5-21.1,99.4c-1.3,22.3-1.7,44.7-2.7,67c-0.3,10.7-1,21.3-1,32h23.4h99.3h13.3h246.7
	h13.5h64.8h19.1C719.1,973,718.5,946,717,919z"/>
<path class="st0" d="M482.5,734.7c23.4-2.2,47-4,70.5-3.7c17.5,0.4,35.2,2.2,52,7.2c14.9,4.4,28.9,12,40.7,22.1
	c21.3,18,34,44.2,40.9,70.8c7.8,31,9.6,63.1,11.2,94.9c1,24.7,1.8,49.3,1.8,74h-64.8c-0.3-30.7,0.9-61.7-5.3-91.9
	c-4.5-20.5-13.1-41.2-29.5-55c-3.2-3-9.4-1.5-10.4,2.9c-0.9,3.9,2,7.2,4.2,10.1c8,9.4,14.1,20.5,18,32.2c5.7,16.6,7.3,34.3,8.4,51.7
	c0.8,16.6,1.3,33.3,1.2,50H374.7c0-14.3-0.6-28.7-0.5-43c0.1-19.7-0.3-39.9,5.8-58.9c3.3-10.1,8.5-19.6,15.3-27.8
	c2.1-2.7,4.4-5.2,5.7-8.4c1.4-3.2-0.7-7.3-4.1-8c-2.5-0.8-4.9,0.7-6.6,2.4c-13.5,13-22.5,30.3-26.3,48.5c-4.3,21.1-3.7,42.7-3.7,64
	c0.4,10.3,0.3,20.7,0.9,31h-99.3c-0.8-10.7-1.2-21.3-1.1-32c-0.4-37.1,0.1-74.5,7.3-111.1c3.3-15.8,7.9-31.6,15.9-45.7
	c7.2-13.1,16.9-24.9,28.8-34.1c12.8-10.1,27.9-16.6,43.4-21.4c16.7-5,33.9-8.1,51-11C432.3,740.5,457.4,737.2,482.5,734.7z"/>
</svg>
