<svg version="1.1" xmlns="http://www.w3.org/2000/svg" xmlns:xlink="http://www.w3.org/1999/xlink" x="0px" y="0px" viewBox="0 0 1000 1000" style="enable-background:new 0 0 1000 1000;" xml:space="preserve">
<style type="text/css">
	.st0{fill:%%ST0%%;}
	.st1{fill:%%ST1%%;}
	.st2{fill:%%ST2%%;}
	.st3{fill:%%ST3%%;}
	.st4{fill:%%ST4%%;}
	.st5{fill:%%ST5%%;}
	.st6{fill:%%ST6%%;}
	.st7{fill:none;}
	.st8{fill:#000000;}
</style>
<path class="st8" d="M882.8,802.9c-1.9-10-4.7-20.3-11.5-28.3c-7.2-8.5-17.4-13.6-27.1-18.8c-7.9-4.2-16-8-24-11.8c-1.6-7.3-6.7-13.2-12.1-18.2
	c-7.5-6.9-15.8-13-24.1-18.8c-8.4-5.8-17-11.5-26.4-15.6c-4.9-2.1-10.2-3.8-15.5-2.9c-5.6,0.9-10.3,4.1-15,7.1
	c-15.3-5.4-30.9-9.7-46.8-12.3c-33.9-5.7-68.4-5.2-102.6-4.9c-15.9-26.1-34.3-52-60.5-68.7c-14.4-9.3-30.3-16-46.7-21.1
	c-21.8-6.7-44.4-11.4-67.3-12.3c-34-1.1-68.6,3.3-100.1,16.8c-15.4,6.4-30.1,14.5-44.7,22.8c-5.7-5.2-11.6-10.7-18.9-13.6
	c-7.8-3.2-17.1-0.5-22.8,5.4c-6.6,6.6-9.6,15.7-12.4,24.4c-5.7,19-11.2,38.1-18.4,56.6c-4.1,11.4-8.7,22.7-13.1,34
	c-2.7,7.1-5.3,15.3-2.4,22.8c3.9,6.8,11.4,10.1,17.8,14.2c-2.9,20.7-6.7,41.3-7.5,62.2c-2.3,38.3,3.7,76.4,12,113.6
	c-4.2,3.2-8.3,6.8-10.3,11.8c-3.8,9-2.3,19.1-0.2,28.3c2,8.2,4.6,16.3,7.6,24.3h82.3v0.1h252.4h25.4h70.6v-0.1h5.4
	c5.5-14.4,10-29.1,13.9-43.9c5.9-2.2,11.4-6,14.8-11.4c4.7-7.2,6.5-15.7,8.2-24c1.6-9,3.2-18.1,3.6-27.3c2.3,5.4,5.3,10.9,10.5,13.8
	c5.9,3.3,13,2.8,19.6,2.5c3,9,5.4,18.7,11.6,26.1c6.8,7.8,17.9,9.4,27.7,10c14,0.4,28.2-0.1,42-2.6c7.5-1.2,13.9-5.9,18-12.1
	c6.5,8,17.6,8.7,27.1,7.9c12.2-1.2,24.5-2.7,36-7c7.1-2.6,13.1-7.6,16.9-14.1c8.8-14.2,9.7-31.5,10.8-47.8
	C887.8,847.6,886.8,825,882.8,802.9z M691.4,832.1c-8.1,3.3-16.9,5.9-23.6,11.8c-7.1,6.6-6.9,17.1-6.2,26c-2.2-2.9-4.7-5.4-7.5-7.6
	c-0.3-23.8-4-47.6-11.8-70.1c8.5,0.3,17,2,25,5.3c0.9,6.8,4.3,12.8,7.9,18.5c3.8,5.8,10,9.6,16.2,12.4
	C691.4,829.6,691.4,830.8,691.4,832.1z"/>
<path class="st0" d="M405,840.9c19.2-2.7,38.7-1.5,58,0c37,3.5,73.7,9.5,110,16.9c18.4,4.1,37.1,6.6,55.3,11.6
	c5.1,1.5,10.5,3.2,14.3,7c3.2,3.3,3.6,8.2,3.8,12.6c0.1,10.4-1.4,20.8-3.6,31c-1.5,5.9-3,12.1-6.9,16.9c-2.3,2.9-6.3,3.9-9.9,3.4
	c-6.7-0.8-13.1-3.1-19.5-4.9c-25.1-7.6-50.4-15-76.3-19.5c-37.7-6.7-76.9-6.3-114.1,3.3c-17.9,4.7-35.2,11.4-52.3,18.7
	c-14.8,6.1-29.4,12.8-43.5,20.4c-25.7,14-51.2,28.3-77.2,41.8h-33.7c-4.1-10.8-8.2-21.7-10.3-33.1c-1-5.5-1.1-11.8,2.4-16.5
	c4.2-5.8,10.5-9.6,16.2-13.8c13.4-9.1,27.1-17.6,40.6-26.5c30.5-19.3,62.1-37,95.1-51.8C369.9,850.8,386.9,843.6,405,840.9z"/>
<path class="st1" d="M374.7,945.6c1.9-1,4.6-1.3,5.9,0.8c3.1,4.6,5.2,9.8,7.3,14.9c5.3,13.5,11.2,26.9,19.8,38.7H294.5
	c-2.3-3.3-4.1-7-4.8-11C317.6,973.6,345.5,958.3,374.7,945.6z"/>
<path class="st2" d="M401.4,651.3c8.7-9.2,20.7-15.8,33.6-16.1c22,1.7,43.9,5.8,64.9,13c13.2,4.7,26.4,9.9,37.9,18
	c15,9.9,28.5,22.2,39.5,36.5c9.8,13.2,18.9,27,26.4,41.6c7.6,15,14.8,30.2,19.6,46.4c6.7,22.3,11.7,45.4,11.5,68.8
	c-12-3.7-24.5-5.4-36.8-7.8c-49.4-10.8-99.4-19.9-150-23.2c-14.7-0.5-29.5-1.1-44,0.9c-8.1,1.1-16,3.1-23.8,5.4
	c-3,0.8-6.4,1.8-9.3,0.4c-3.3-2.1-4.3-6.2-5.2-9.7c-1.5-7.4-2.4-14.9-2.7-22.4c-0.1-15.6,0.8-31.2,3.2-46.6
	c10.9-8.7,19.8-20.3,23.8-33.7c5.1-16.3,2.6-34.3-5-49.5C389.2,665.2,395.1,658,401.4,651.3 M508.3,721.4c-2.5,1.2-2.8,4.6-1.6,6.8
	c3.9,7.5,6.9,15.4,9.3,23.5c0.6,2,1,4.1,0.7,6.2c-0.5,2-2.9,2.3-4.6,2.6c-10.7,1-21.5,0.4-32.2,1.6c-3,0.2-5.7,2.8-5.4,5.9
	c0.3,3.2,3.5,5.3,6.6,5.1c10.6-0.6,21.3-1.5,31.9-0.5c4.2,0.3,8.2,3,9.2,7.2c2.2,8.2,2.9,16.8,3.8,25.2c0.2,4.1,6.1,6,8.4,2.4
	c2-4.2,0.1-9,0-13.5c-0.2-5.2-2.7-10.8-0.2-15.8c1.5-2.8,5.1-2.8,7.8-2.4c8.7,1.5,17.1,4.1,25.5,6.6c2.7,0.9,6,0,7.2-2.7
	c1.7-3-0.5-6.9-3.8-7.7c-11.4-4-23.2-6.6-35-8.9c-6.6-1.4-8.5-8.5-10.2-14c-3.6-8.4-6.2-17.2-10.8-25.2
	C513.9,721.6,510.8,719.8,508.3,721.4z"/>
<path class="st2" d="M399,936.2c35.7-13,74.5-16,112.1-11.7c32.4,3.8,63.8,13,94.8,22.6c4.5,1.6,9.5,3.8,11.7,8.4
	c2.2,4.7,0.6,9.9-0.5,14.6c-2.8,10.4-6.7,20.5-11.8,30H550c-6.2-3.2-6-11-6.2-17c0.5-12.5,0.7-25.1-0.6-37.6
	c-0.2-2.4-1.7-4.9-4.3-5.1c-3.1-0.4-5.5,2.7-5,5.6c0.9,13.2,1,26.6-1.6,39.6c-1.1,5.3-2.9,11.2-7.6,14.5h-97.4
	c-13.5-14.8-24.2-32.3-31.1-51.1C394.3,944.7,394.2,938.3,399,936.2z"/>
<path class="st3" d="M227.5,617.5c2.1-2.3,5.4-0.8,7.6,0.5c5.7,3.4,11,7.5,15.5,12.5c2.9,3.2,5.6,7.1,5.2,11.6
	c-0.4,7.8-4,14.9-6.9,22.1c-7.8,17.8-13.9,36.2-20.6,54.5c-3.3,8.9-5.9,18.1-10.4,26.5c-1.8,3.2-4,6.9-7.9,7.7
	c-4.7,0.5-8.9-2.2-12.9-4.2c-5.1-2.9-10.6-6.1-13.4-11.5c-1.8-3.5-1-7.5,0-11.1c2.1-7.1,5-13.9,7.6-20.8
	c5.1-13.4,9.7-26.9,14.7-40.3c3.9-10.4,6.4-21.4,11.4-31.5C220.1,627.7,222.9,621.9,227.5,617.5z"/>
<path class="st3" d="M741.2,703.2c5.6-1.8,11.4,0.5,16.2,3.5c13.7,8.3,27,17.3,39.2,27.8c4.6,4.2,9.9,9,10.3,15.7
	c-0.6,4.9-4.3,8.9-8.1,11.7c-13.2,8.9-28.2,14.5-42.4,21.6c-11.1,5.2-21.7,11.2-31.8,18.2c-7.4,4.8-14.7,9.7-22.9,12.9
	c-3.3,1.4-7.2,1.1-10.1-1c-5.1-3.5-9.6-8.4-11.7-14.3c-1.8-5.5,0.8-11,3.1-15.9c7.3-14.8,15.3-29.2,24.3-43
	c6.5-9.7,12.9-19.6,21-28.1C731.9,708.4,736.1,704.7,741.2,703.2z"/>
<path class="st4" d="M729.2,810.3c26.2-1.1,52.6-0.8,78.7,1.5c15,1.4,30,3.4,44.5,7.7c8.2,2.6,17.2,7,20.3,15.7
	c0.8,4.9,0.8,10,1.1,15c-12.8-4.5-26.4-5.8-39.8-6.8c-27.4-1.8-55.3-3.2-82.5,2c-16.8,3.3-33.3,8.4-48.7,15.9
	c-1-11.7-1.6-23.5-0.8-35.3C712.8,824.3,720.3,815.5,729.2,810.3z"/>
<path class="st5" d="M320.4,608.3c39-11.1,80.5-15.7,120.7-9c20.9,3.5,41.3,10.4,59.6,21.1c13.9,7.9,25.8,19.1,34.9,32.2
	c-36.9-16.5-76.9-26.9-117.4-26.6c-20.2-0.1-40.5,2.7-59.6,9.3c-16.3,5.7-31.8,14.8-42.7,28.5c-14.5-3.8-29-7.9-42.7-14.1
	c1.5-6,0.4-12.2-2.5-17.6C285.4,621.1,302.6,613.4,320.4,608.3z"/>
<path class="st6" d="M246.6,702.6c5.4-15.2,11.2-30.2,18-44.9c29.3,12.9,60.8,20.9,92.6,24c4.6,0.6,9.3,0.8,13.7,2.3
	c3.7,1.2,6.7,4.3,7.6,8.1c4.2,16.5-1,34.7-12.1,47.4c-9,10.5-21.7,17.3-34.9,21c-17.4,4.8-35.9,4.8-53.7,2
	c-16.4-2.7-32.4-7.8-47.5-14.9C237.2,733.1,241,717.5,246.6,702.6z"/>
<path class="st5" d="M206.4,765.8c6.2-0.5,12.2-2.8,16.7-7.2c13.4,6.7,27.7,11.5,42.2,14.9c-12.8,38.1-18.4,78.5-16.8,118.6
	c0.2,4.9-1.3,10-5.1,13.3c-6.4,5.7-14,9.9-21,15c-2.8,1.8-5.8,4.6-9.4,4c-3.8-1.9-4.2-6.7-5.3-10.4
	C197.6,865.3,197.9,814.7,206.4,765.8z"/>
<path class="st1" d="M363.1,644.3c11.7-3.8,23.8-6.1,35.9-7.7c-4.2,2.5-7.5,6.2-10.8,9.7c-6.9,7.8-12.8,16.5-17.7,25.7
	c-14.6-0.6-29.1-2.5-43.3-5.5C336.7,655.8,349.7,648.8,363.1,644.3z"/>
<path class="st1" d="M279.1,776c24.3,3.2,49.8,0.8,72-10.1c-1.2,9.6-1.9,19.3-2.3,29c-0.5,14.3,0.8,28.7,2.1,42.9
	c0.2,2.7,0.2,6-1.9,8c-3.8,3.5-8.9,5.1-13.4,7.5c-17.2,8.9-34.6,17.4-51.6,26.7c-4.2,2.1-8.2,5.2-13.1,5.2c-4.3-0.7-5-5.9-5.7-9.4
	c-1.6-12.6-0.4-25.4,0.7-38C268.1,817,271.1,795.8,279.1,776z"/>
<path class="st6" d="M588.6,694.7c20.8-1,41.6-0.8,62.4,0.6c22.7,1.7,45.5,4.7,67.1,12.5c-19,23.4-35.9,48.9-47.9,76.6
	c-12.2-4-25-6.4-37.8-7.3C622.2,747.5,607.8,719.4,588.6,694.7z"/>
<path class="st6" d="M814.1,756.9c13.9,5.8,27.8,12.6,38.8,23.1c9.7,9.2,13.9,22.4,16.7,35.1c-13.7-6.7-28.9-8.8-43.9-10.6
	c-26.6-2.9-53.3-4.5-80-5.1c13.6-7.8,28.2-13.6,42.3-20.5C798.4,774.1,808.4,767.2,814.1,756.9z"/>
<path class="st6" d="M683.4,851.4c3.7-2.3,8-3.2,12.1-4.3c0.8,16.3,2.5,32.5,6.2,48.4c-5.4,1-11.3,1.8-16.5-0.7
	c-4.1-1.9-5.6-6.6-6.3-10.7c-1.1-7.5-1.3-15.1-0.4-22.6C679.2,857.8,680.1,853.6,683.4,851.4z"/>
<path class="st6" d="M737.9,857.5c23.7-5.2,48-5.1,72.1-5.2c14.8,0.2,29.6,0.4,44.3,2.5c6.9,1.2,14.2,2.9,19.6,7.6
	c-0.2,12.3-1.3,24.8-4.7,36.7c-2.5,8.6-8.5,16.3-17,19.5c-10.5,4-21.9,5.9-33.1,6.2c-5-0.2-11.2,0.4-14.4-4.2
	c-4.5-6.1-4.9-14.1-5.5-21.4c-0.7-9.4-0.2-18.8-1.5-28.2c-0.7-3.2-1.7-7.8-5.6-8.3c-3.4-0.3-4.9,3.6-4.7,6.4
	c0.5,13.4,3.5,26.6,3.1,40c-0.1,5.9-1.6,12.2-6.3,16.1c-5,4.4-11.9,4.9-18.2,5.8c-11.2,1.2-22.5,2-33.7,0.9
	c-5.8-0.5-11.2-3.9-14.2-8.9c-5-8.2-7.2-17.7-9.6-26.9c-1.8-7.7-3.5-15.5-4.3-23.4C713.5,864.1,726,860.4,737.9,857.5z"/>
<path class="st7" d="M729.2,810.3c-9,5.3-16.4,14-27.1,15.6c-0.8,11.8-0.2,23.6,0.8,35.3c15.4-7.5,31.9-12.6,48.7-15.9
	c27.2-5.2,55-3.9,82.5-2c13.4,1,27,2.3,39.8,6.8c-0.3-5-0.3-10-1.1-15c-3.1-8.7-12-13.2-20.3-15.7c-14.5-4.3-29.5-6.2-44.5-7.7
	C781.8,809.5,755.4,809.2,729.2,810.3L729.2,810.3z"/>
</svg>
