<svg version="1.1" xmlns="http://www.w3.org/2000/svg" xmlns:xlink="http://www.w3.org/1999/xlink" x="0px" y="0px" viewBox="0 0 1000 1000" style="enable-background:new 0 0 1000 1000;" xml:space="preserve">
<style type="text/css">
	.st0{fill:#FFFFFF;}
	.st1{fill:#FF5400;}
</style>
<path class="st0" d="M478.5,41.1c3.3-1.2,7-0.8,9.9,1.3c18.2,11.2,32.9,27.8,42,47.1c5.7,12.4,9.1,25.8,10.2,39.3
	c3.8-5.4,7-11.4,7.9-18c0.6-2.9,0.3-5.9,0.9-8.8c1.6-4.4,7.5-5.1,11.3-3.1c3.4,2.9,6,6.5,8.2,10.3c8.3,14.9,13.4,31.5,16.5,48.3
	c3.2,19.1,2.3,39.4-5.2,57.5c-4.3,10.8-11.3,20.4-19.7,28.3c-14,13.1-32.5,20.8-51.3,23.5c-7.9,1.2-16,0.5-24,0.7
	c-17.6-1.1-35.4-6.9-49.1-18.2c-8.1-7.2-16-15.2-19.7-25.6c-3.6-8.7-3.4-18.3-3-27.6c2-21.1,12.5-40,16.5-60.6
	c1.6-7.3,2.3-14.8,1.7-22.3c-0.8-4-1.7-7.9-1.4-12c0.9-1.2,1.8-2.3,2.7-3.5c2.2-1.6,5.1-2.1,7.8-1.3c11.1,4.1,21.6,10.4,29.6,19.1
	c6.2-9.7,10.5-20.6,12.3-31.9c1.9-10.7-0.6-21.8-5.8-31.2c-1.7-2.6-1.3-5.9-0.5-8.7C476.9,42.7,477.7,41.9,478.5,41.1"/>
<path class="st1" d="M496.2,65.9c20.7,19.4,31.7,47.9,30.8,76.2c-0.7,4.9,4.6,9.1,9.2,7.3c11.1-5,19.2-15.2,23.7-26.3
	c4.6,9.5,7.6,19.7,10.1,30c3.7,15.3,4.5,31.6,0.2,46.9c-3.8,14.5-12.2,27.9-24.2,37c-15.1,11.6-34.2,16.9-53.1,17.1
	c-17.6-0.4-35.8-5-49.4-16.7c-8.8-7.3-16-17.6-16.6-29.4c-1.4-16.9,5.6-32.8,10.7-48.6c5-14.6,8.5-30,7.8-45.5
	c7.3,4.2,14.3,9.5,19.1,16.6c2.4,3.8,8.1,4.2,11.3,1.3c2.6-2.5,4.3-5.8,6.2-8.8C492.5,106.1,499.1,85.9,496.2,65.9"/>
<path class="st0" d="M486.3,141.4c2.8-2,5.9,0.4,8.4,1.9c13,8,21.9,22,23.5,37.1c2.6-2.9,4.1-6.6,4.2-10.5c-0.2-3.5,4.9-4.4,6.9-2.1
	c3.4,3.5,5.6,8,7.4,12.5c4,10,6.5,21.3,3.7,31.9c-2.4,10.3-9.6,19.1-18.9,24.1c-13.7,7.4-30.6,8.7-45.3,3.8
	c-8.2-2.8-16.1-8.1-20.3-15.9c-3.6-6.8-2.6-14.9-0.2-21.9c2.8-8.7,7.3-17.1,7.4-26.4c0.2-2.6-0.9-5.2-0.8-7.8
	c0.8-2.2,3.6-3.1,5.7-2.2c5.5,1.7,10.4,4.8,14.7,8.5c4.8-7.4,8.6-17,4.7-25.7C486.5,146.5,483.8,143.6,486.3,141.4z"/>
</svg>
