<svg version="1.1" xmlns="http://www.w3.org/2000/svg" xmlns:xlink="http://www.w3.org/1999/xlink" x="0px" y="0px" viewBox="0 0 1000 1000" style="enable-background:new 0 0 1000 1000;" xml:space="preserve">
<style type="text/css">
	.st0{fill:#EDEDED;}
	.st1{fill:#FFD400;}
	.st2{fill:#000000;}
</style>
<path class="st2" d="M675.5,549.7c-0.6-22.4-5-44.6-12.6-65.6c-7.1-18.2-17.2-35.3-30.1-49.9c-3.2-3.2-2.9-8-2.8-12.2c0.5-12.3,0.3-24.7,0.3-37
	c-0.2-4.4-0.4-10.2-5-12.4c-5.2-2-10.9-0.9-16.3-0.7c-39.4,3.3-78.8-0.6-118.1-2.9c-32-1.7-64.1-2.6-96.1-4.3c-1.9,0-3.8,0-5.5,0.6
	c-2.6,1.3-3,4.8-3.8,7.3c-5.6,24.2-8.7,49-10,73.8c-0.1,3.5-1.2,7-3.4,9.8c-14.8,19.6-24.4,42.9-29,67c-4,22-5.1,44.7-2.1,66.9
	c2.2,18.1,6.7,36,14.5,52.5c12,25,29.9,47.5,52.8,63.2c2.7,1.7,5.4,3.7,8.6,3.9c3.8,0.1,6.4-4.6,4.3-7.8c-1.8-2.6-4.5-4.2-7-6.1
	c-8.7-6.1-16.7-13.3-23.4-21.6c-2.8-3.5-5.4-7.2-6.9-11.4c5.4-0.4,10.3,2.5,15.3,3.9c21,6.3,42.7,10.3,64.3,13.7
	c14,2.2,28.1,3.1,42.3,3.5c32.3,1.3,64.7-1.2,96.5-7.3c7.8-1.4,15.3-4.2,23.1-5.3c-2.7,6.1-8,10.3-12.8,14.6
	c-3.7,3.4-8.3,5.6-11.8,9.3c-2.6,2.8-0.7,8,3.2,8.3c3.7,0.2,6.8-2.4,9.7-4.4c18.9-14.3,34-33.6,43.9-55.2
	C672,614.7,676.6,581.8,675.5,549.7z M631,451.8c5.1,6.7,10.3,14,11.9,22.4c1.1,6.7-5.9,10.4-11.6,10.6
	C630.5,473.8,630.6,462.7,631,451.8z"/>
<path class="st0" d="M372.5,484.5c0.4-0.2,1.2-0.6,1.6-0.9c0.3,3.1,0.3,6.2,0.3,9.3c-0.1,33.2,1.5,66.4,4.2,99.5
	c0.3,2.2,0.7,4.9,2.6,6.3c2.9,2,6.4,3.1,9.7,4.3c24.4,8.6,49.7,14.7,75,19.9c34.3,7,69.2,10.9,104.1,12.2c18.3,0.9,36.7,0.3,55,1.1
	c4.7-0.1,10,0.6,14.2-2.1c3.7-2.8,2.4-8,1.6-11.9c-7.7-31.5-8.8-64-9.1-96.3c0.1-9.3-0.8-18.6-0.5-27.8c5.4-1.6,11.2-2.4,16.8-2.4
	c3.5-0.1,6.1,2.7,7.5,5.7c2.7,5.8,3.6,12.2,4.7,18.4c2.1,14.6,4.2,29.3,3.7,44.2c0,23.9-4,48.1-14,69.9c-3,6-6.3,12.2-12.2,15.8
	c-8,5-17.2,7.4-26.3,9.8c-21.6,5.3-43.7,9.1-66,10c-10.8,0.6-21.6,0.4-32.4,0.4c-27.6-0.1-55.2-3.8-82.1-9.8
	c-15.2-3.3-30.1-8.2-44.3-14.7c-7.2-3.4-14.2-7.4-19.7-13.3c-5.5-6-8.5-13.7-10.6-21.4c-3-11.3-4.5-22.9-5-34.5
	c-1.1-25.7,1.7-51.9,10.7-76.1C364.4,494.3,366.8,487.7,372.5,484.5z"/>
<path class="st1" d="M435.3,556.4c4.1,2.2,7.5,5.4,11.3,8c31.7,22.3,67.8,37.8,104.7,49.3c7.5,2.4,15.4,4,22.8,7
	c-11.7-0.4-23.4-1.8-35.1-2.7c-41.3-3.5-82.2-11-122.1-21.8c-4-1.1-8.1-2.1-11.9-3.9c7.2-6.9,14.7-13.6,20.7-21.7
	C429.2,566.1,431.9,561,435.3,556.4z"/>
<path class="st1" d="M619.3,605.7c-3.6-25.1-4.7-50.4-5.2-75.7c-1.1-41-1.6-82-0.1-123.1c0.1-6.4,0.8-12.8,0.1-19.2
	c-5.3-0.5-10.6,0.2-16,0.5c-13.7,0.8-27.5,0.3-41.2-0.1c-27.3-0.8-54.6-1.5-81.8-3.6c-24.7-1.6-49.4-3.7-74.1-4.5
	c-1.6,2.5-2.2,5.4-2.8,8.2c-3.6,17.3-4.5,34.9-5.7,52.5c-2.6,37.9-2.8,76-1.1,114c0.4,4.3,1.1,8.7,2.8,12.8c0.9,2,2.3,4.3,4.7,4.6
	c3.3-0.3,5.8-2.8,8-5.1c7.5-8.1,13-17.7,17.1-27.9c1-1.9,1.6-4.6,4-5.1c3.7-0.7,7,1.8,9.8,3.8c8.1,6.3,15.8,13,24.4,18.6
	c19,12.2,39.1,22.7,60.2,30.9c27,10.6,54.8,19.3,83.3,24.7c4.6,0.9,9.3,2,14,2C620.1,611.2,619.7,608.4,619.3,605.7z"/>
<path class="st2" d="M419.4,444.4c8.9-1.8,19.2-0.2,26,6.1c7.1,7.2,4.7,20-3.3,25.7c-4.9,4.2-11.6,3.9-17.5,5.1c-0.6,3.6-0.2,7.4-1.4,10.9
	c-1.5,3.5-7.2,3.5-8.7,0.1c-1.1-3-0.7-6.3-0.7-9.4c0.6-10,0.6-20.1,1.2-30.1C415.4,449.8,415.8,445.5,419.4,444.4 M426.5,454.4
	l-0.8,0.1c-0.7,5.2-0.8,10.5-0.4,15.8c4.3,0.5,9.3-0.1,12.2-3.6c2-2.5,2.8-6.9,0.1-9.2C434.5,454.9,430.3,454.2,426.5,454.4z"/>
<path class="st2" d="M457.4,445.1c2.5-1.2,6.1,0.3,6.6,3.1c0.6,2.5,0.3,5.2,0.2,7.8c-0.7,10-1.4,20-1.8,30.1c-0.2,2.7-0.2,5.6-1.2,8.2
	c-1.4,3.5-7.1,3.6-8.8,0.3c-1.1-2.7-0.7-5.7-0.6-8.5c0.8-11,1.4-22,2-33C454.2,450.2,454.2,446.3,457.4,445.1z"/>
<path class="st2" d="M477.4,447.6c7.5-0.4,15.1-0.5,22.6-0.7c3.1-0.4,6.4,2.4,5.5,5.7c-1.6,4.9-5.2,8.8-7.8,13.1c-4.5,7.3-10.1,13.9-13.8,21.7
	c5.5,0.6,11.1,0.2,16.6,1.1c2,0.3,4.1,1.5,4.6,3.6c1,2.9-1.3,6.3-4.5,6.3c-6.9,0.4-13.9-0.7-20.8-0.8c-3.3-0.3-6.9,0-9.7-2
	c-2.1-1.8-1.7-4.8-0.3-6.8c6.5-10.5,14.2-20.3,20.2-31.1c-5.2-0.4-10.5,0.6-15.7-0.3c-3.5-0.7-4.5-5.8-2-8.2
	C473.7,448.1,475.6,447.9,477.4,447.6z"/>
<path class="st2" d="M514.4,448.4c4.8-1.2,9.8-0.5,14.6-0.7c5.2,0.2,10.5-0.5,15.7,0.6c3.3,0.8,4.1,5.1,2.3,7.7c-6.6,11-14.8,21-21.1,32.2
	c6.3,1.3,13-0.2,19.2,1.9c4,1.8,3.1,8.3-1.2,9c-4.9,0.8-9.9,0-14.8-0.1c-4.7-0.3-9.5,0.1-14.2-0.9c-2.9-0.5-4.8-3.9-3.5-6.6
	c2-4.7,5.4-8.6,8.2-12.9c4.4-6.8,9.4-13.2,13.4-20.3c-5.3-0.3-10.6,0.3-15.9-0.2c-2-0.2-4.3-0.9-5.2-2.9
	C510.5,452.6,511.7,449.2,514.4,448.4z"/>
<path class="st2" d="M571.4,449.3c3.6-1,6,2.4,7,5.3c4.2,11.8,8.2,23.7,12.5,35.5c0.9,2.7,2.1,5.5,1.7,8.4c-0.7,3.5-5.9,5-8.2,2.2
	c-2.6-3.3-3-7.6-5-11.3c-4.5-1.3-9.4-1-13.9-0.1c-2.5,2.8-2.8,6.9-5.3,9.8c-2.4,2.4-7.3,1-7.9-2.5c-0.4-3,0.9-5.8,1.8-8.6
	c4-10.5,7.7-21,11.5-31.5C566.7,453.7,568,450.1,571.4,449.3 M572.1,469.6c-1.5,2.7-2.5,5.7-3.2,8.7c2,0.1,4.1,0.1,6.2-0.1
	c-0.5-3.2-1.5-6.3-2.7-9.3L572.1,469.6z"/>
</svg>
