<svg version="1.1" xmlns="http://www.w3.org/2000/svg" xmlns:xlink="http://www.w3.org/1999/xlink" x="0px" y="0px" viewBox="0 0 1000 1000" style="enable-background:new 0 0 1000 1000;" xml:space="preserve">
<style type="text/css">
	.st0{fill:#000000;}
	.st1{fill:#FFD400;}
	.st2{fill:#FF3CAE;}
</style>
<path class="st0" d="M432.9,293.1c-0.8-2.4-3.5-3.4-5.8-3.9c-11.4-2-22.7-4.1-34-6.5c-6.5-1.5-13.1-3.3-18.5-7.3
	c-5.4-4-8.5-10.2-12.8-15.3c-5.3-6.3-11-12.4-17.8-17.2c-12.8-9-28.7-14.1-44.4-12.4c-13,1.6-25.5,7-35.4,15.5
	c-13.3,11.7-21.6,28.3-25.5,45.3c-4.5,20.7,0.5,42,6.4,61.9c3.5,12,9.2,23.9,8.6,36.7c-0.1,9.8-5.4,19.5-13.9,24.6
	c-14.9,8.9-35.8,5.1-46.9-8.2c-2.2-2.2-3.5-5.5-6.5-6.7c-3.9-1.2-8,2.1-8.1,6.1c-1.3,18.5,3.5,37.4,13.1,53.2
	c12.2,19.7,29.9,36.9,51.9,45c7.5,2.9,15,6,23,7.2c5.4,0.8,10.3-3.8,11-9c2.9-16.5,7.5-32.6,12.7-48.5c6.7-20.1,14.4-39.9,24.2-58.6
	c9.2-17.3,20.4-33.8,34.8-47.3c9.1-8.7,18.8-16.7,29-24c11.2-8,23.8-13.8,36.7-18.4c4.7-1.9,9.7-3.3,14.1-5.8
	C430.9,298.2,433.3,296,432.9,293.1z"/>
<path class="st1" d="M280,254.1c7.5-6.2,17.3-9.4,27-9c10.8-0.1,21.2,4.6,29.2,11.7c9.1,8.1,17.3,17.6,22.5,28.7
	c-14,4.8-26.8,13.6-35.9,25.3c-8.4,11.3-13.6,24.8-16,38.7c-1.6,9.1-1.5,18.4-3.2,27.5c-1.8,10.1-5.8,19.7-10.7,28.8
	c-13.3,27-22.8,56-28.3,85.6c-14.3,0.6-28.3-4.8-39.8-13.1c-17-12.2-29.3-31.2-32.2-52.1c8.8,7.7,21.1,10.1,32.5,9
	c15.2-1.7,29.8-10,38.6-22.7c5.4-7.7,8.1-17.2,7.8-26.6c0-11.5-4.4-22.2-8.6-32.7c-6.8-17.1-12.3-35.8-8.4-54.3
	C258.1,281.9,266.3,265.2,280,254.1z"/>
<path class="st2" d="M344.2,313.2c12.6-10.5,30-15.8,46.3-12.3c-27,13.7-50,34.2-68.4,58.1C322,341.4,330.7,324.3,344.2,313.2z"/>
</svg>
