<svg version="1.1" xmlns="http://www.w3.org/2000/svg" xmlns:xlink="http://www.w3.org/1999/xlink" x="0px" y="0px" viewBox="0 0 1000 1000" style="enable-background:new 0 0 1000 1000;" xml:space="preserve">
<style type="text/css">
	.st0{fill:#000000;}
	.st1{fill:%%ST1%%;}
</style>
<path class="st0" d="M665.9,311c-8.3-25.4-10.5-52.4-10.7-79c0.1-7.3,0.9-14.7,0.3-22c-0.4-3.8-2.3-8.2-6.4-9.2
	c-4.7-1-9,2.1-12.6,4.8c-11.1,9-22.2,18.4-35.1,24.8c-3.5,1.9-8.3,1.2-10.5-2.2c-9.3-13.8-16.1-29.1-22.8-44.3
	c-1.3-3.2-4.6-5.7-8.2-5.5c-3,0.1-5.3,2.2-7.5,3.9c-8.4,7-17,13.8-25.1,21c-3.7,2.8-7.5,6.2-12.3,6.4c-4.6,0-7.8-3.8-11-6.6
	c-15.7-14.8-32.4-28.3-48.7-42.4c-2.9-2.7-6.6-5.5-10.8-4.2c-2.6,0.7-4.5,2.8-5.8,5c-11.7,19.3-23.3,38.7-35,58
	c-2.1,3.4-4.4,7.1-8.3,8.7c-3.8,1.6-8,0.4-11.7-0.7c-11.6-3.7-22.6-9-34.2-12.9c-3.6-1.3-8.1,0.1-10.1,3.5
	c-2.4,4.1-2.9,8.9-3.6,13.5c-1.1,9.8-3,19.5-5.1,29.1c-1,4.2-2.4,9.1-6.5,11.3c-4.2,2.2-9.1,1.3-13.5,0.6c-14.4-2.6-28.6-6.4-43-9
	c-3.3-0.5-7-0.9-9.9,1c-3.4,2-4.6,6.5-3.3,10.1c11.2,34.8,22.6,69.5,33.8,104.3c0.7,2,1.4,4.1,3.1,5.6c2.8,2.9,7.3,2.3,10.7,1.2
	c54.4-20.7,111.5-33.8,169-42.4c50.6-7.4,101.8-11.3,153-10.7c11.7,0.1,23.4,1.5,35.1,1.6c4.3,0.2,9.4-1.5,10.7-6
	C671.1,322.4,667.7,316.7,665.9,311z"/>
<path class="st1" d="M410.4,240.4c12.3-21.5,25.5-42.6,38.2-63.9c9.5,8.1,19.2,16,28.4,24.5c9.9,9.5,20.4,18.4,31.1,27
	c2.9,2.6,7.3,3.8,10.9,1.9c5.1-2.7,9.1-6.9,13.5-10.5c7.9-6.5,15.9-12.8,23.8-19.2c7.1,14.7,15,29,23.7,42.8c2.5,3.6,5.3,8,10.1,8.8
	c5.5,0.8,10.5-2.1,15.3-4.4c11-6,21.6-12.9,32-20c-0.1,30.4,4.6,60.7,13.1,89.8c-54.2-2-108.6,0.7-162.4,7.6
	c-63.3,8.3-126.2,21.7-186.1,43.9c-9.3-28.5-18.5-57-27.8-85.5c19,3.9,37.9,7.8,56.9,11.6c5,1.4,10.4-2.1,11.2-7.2
	c3.6-18.1,7-36.3,10.6-54.4c13.4,4.2,26.2,10,39.6,14.3c3.3,1,6.8,1.9,10.2,0.9C406.2,247.1,408.5,243.6,410.4,240.4z"/>
</svg>
