<svg version="1.1" xmlns="http://www.w3.org/2000/svg" xmlns:xlink="http://www.w3.org/1999/xlink" x="0px" y="0px" viewBox="0 0 1000 1000" style="enable-background:new 0 0 1000 1000;" xml:space="preserve">
<style type="text/css">
	.st0{fill:#EDEDED;}
</style>
<path class="st0" d="M444.5,720.4c8.6-4,18.3-2.4,27.5-2.5c11,0.5,22-0.5,33,0c6.3,0.2,11.9,3.3,17.6,5.4
	c18.2,7.5,36.7,14.1,54.3,22.9c16.5,8.2,32.5,17.5,47.1,28.7c23.8,18,43.6,41.5,56.2,68.7c12.8,26.6,18,56.2,19.2,85.6
	c0.8,23.7-0.1,47.3-0.8,71h-37.9c0.9-26,1.8-52.1,0.5-78.1c-1-14.3-3-28.6-6.4-42.5c-5-19.4-13.3-38.1-24.4-54.8
	c-14.2-20.9-34-37.4-55.2-50.8c-29.5-19.2-61.9-33.9-95.2-45c-35,11.7-68.8,27.3-99.5,47.8c-14.5,9.4-28,20.6-39.5,33.5
	c-10.4,11.5-18.5,24.9-25,38.9c-13.9,29.6-18,62.8-17.9,95.2c-0.2,18.7,0.4,37.3,1.1,56h-37.9c-0.9-35-3.2-70.4,2.7-105.2
	c5.5-35,20.9-68.7,44.8-95.1c23.4-26.2,54.1-44.7,85.9-59.1C411.1,733.5,427.9,727.1,444.5,720.4z"/>
</svg>
