<svg version="1.1" xmlns="http://www.w3.org/2000/svg" xmlns:xlink="http://www.w3.org/1999/xlink" x="0px" y="0px" viewBox="0 0 1000 1000" style="enable-background:new 0 0 1000 1000;" xml:space="preserve">
<style type="text/css">
	.st0{fill:#000000;}
</style>
<path class="st0" d="M458.4,481.5c4.4-1.6,9,2,9.7,6.4c3.9,15.5,12.2,30.1,24.7,40.3c13.5,11.2,32,16.4,49.3,13.3
	c3.7-0.8,8.4-0.9,10.7,2.8c3,4.3-0.1,10.6-5.1,11.3c-17.9,3.7-37.2,0.9-53.1-8.2c-21-11.8-35.6-33.2-40.9-56.5
	C452.5,487.1,454.6,482.7,458.4,481.5z"/>
<path class="st0" d="M627.4,572.5c2.7-1.9,6.4-0.8,8.2,1.8c11.6,15,34.4,17.7,50.7,9.1c3.1-1.5,5.5-4.2,8.7-5.5
	c3.8-1.3,8,2.2,7.5,6.1c-0.3,3.5-3.5,5.5-6.1,7.4c-13,8.9-30,11.1-45,7c-10-2.8-19.5-8.5-25.5-17.2
	C623.8,578.5,624.5,574.2,627.4,572.5z"/>
</svg>
