<svg version="1.1" xmlns="http://www.w3.org/2000/svg" xmlns:xlink="http://www.w3.org/1999/xlink" x="0px" y="0px" viewBox="0 0 1000 1000" style="enable-background:new 0 0 1000 1000;" xml:space="preserve">
<style type="text/css">
	.st0{fill:#464B4B;}
	.st1{fill:#EDEDED;}
	.st2{fill:#E94000;}
	.st3{fill:#000000;}
</style>
<path class="st3" d="M668.8,503c-7.6-30.3-23.7-58.9-47.1-79.8c-12.6-10.9-27.2-19.3-42.7-25.4c-18.8-7.4-38.8-12.1-59.1-12.7
	c-51.9-2-103.6,21.1-138.4,59.4c-21.1,23.1-34.4,52.9-39.3,83.7c-3.2,20.1-4,40.6-1.4,60.8c2.5,21.1,8.1,42,18.3,60.7
	c12.3,22.6,29.3,43.1,51.1,57.1c2.7,1.7,6.2,4.1,9.4,1.9c3.4-1.9,3.1-7.1-0.1-9.1c-10.9-7.9-21.7-16.3-29.9-27.2
	c-2.2-3.1-5-6.2-5.2-10.2c1.5,0,3,0.3,4.4,0.8c20.6,7.6,42.4,11.7,64,15.5c16.6,3,33.3,4.8,50.1,5.1c30.2,1.5,60.5-0.5,90.4-5.5
	c11-1.6,21.7-4.9,32.5-7.4c-0.6,1.4-1,2.8-2,4c-6,7.1-13.1,13.1-20.8,18.2c-2.5,1.5-4.2,4.9-2.5,7.6c1.4,2.9,5.4,3.6,8,1.8
	c12.5-7.7,22.9-18.5,32-30c10-12.6,17.1-27.1,23.1-41.9c8.5-22.2,11.8-46,12.2-69.6C675.9,541.5,673.9,521.9,668.8,503z M395.8,447
	c11.8-12.9,26.5-23,41.9-31.2c18-9.5,37.7-15.6,57.8-18c20.3-2.5,41.2-0.8,60.9,4.7c16.1,4.5,31.8,11,45.7,20.4
	c15.2,10.3,27.9,24.2,36.6,40.4c2.3,4.4,5.4,9.4,3.9,14.6c-1.2,4.2-5.8,6-9.7,6.6c-13.8,2.3-27.9,2.9-41.8,3.8
	c-22.7,1.6-45.5,1.4-68.2,0.5c-20.2-0.7-40.3-2.3-60.4-4.6c-20.3-2.4-40.4-6.2-60.3-10.7c-4.7-1-9.9-3.1-11.8-7.9
	C387.6,459.1,391.6,452,395.8,447z"/>
<path class="st0" d="M375.3,483.3c6-1.1,11.9,0.9,17.7,1.9c19.6,4.4,39.3,8,59.1,10.6c22.1,3.6,44.6,4.9,66.9,6.2
	c16.3,1,32.6,0.9,49,0.3c24.8-0.1,49.6-2.4,74.1-6.2c3.3-0.4,7-1.2,10,0.9c3,2.2,4.2,5.9,5.3,9.3c2.2,7.9,3.2,16,4.3,24.1
	c3.4,22.9,3.1,46.4-1,69.2c-3.2,14.8-7.4,29.7-15.6,42.5c-4.6,7.5-13.2,10.9-21.2,13.6c-15.2,4.8-30.9,7.8-46.6,10.5
	c-24.2,3.9-48.9,3.8-73.3,3.4c-24.5-0.8-49-4.3-72.9-9.6c-15-3.3-29.7-8-43.7-14.4c-7.3-3.3-14.4-7.4-19.9-13.2
	c-6.5-6.8-9.7-15.9-11.8-24.9c-3.9-16.5-5-33.7-4.4-50.6c0.8-20.9,4.5-41.9,12.6-61.2C366.2,490.6,369.3,484.7,375.3,483.3
	 M430.5,510.6c-9.4,1.9-17.9,7.7-23.6,15.4c-15.6,21-15,53,2.3,72.8c6.7,7.5,16.6,12.7,26.8,12.5c11.2,0,21.5-6.2,28.3-14.8
	c10.3-13,13.7-30.7,11-47c-2.2-12.4-8.3-24.6-18.6-32.2C449.4,511.6,439.7,509,430.5,510.6 M610.4,523.5
	c-13.2,3.2-21.6,16-23.9,28.7c-3.3,16,2.1,35.1,16.8,43.7c7.7,4.6,17.8,4.6,25.6,0.1c9.3-5.2,15.2-15.1,17.4-25.4
	c3.1-14.4-0.6-31-11.9-41C628,523.8,618.8,521.1,610.4,523.5 M520,585.1c-13.1,5.3-22.1,18.2-24.5,31.9c-3,14.9,5.3,31.3,19.4,37.2
	c13.4,6.1,31.4,1.5,38.6-11.7c4.7-7.8,4-17.9-0.9-25.4c3.1-3.6,6.2-7.2,9.3-10.7c2.2,2.7,3.4,7,7.1,7.9c3.8,0.8,7-3.8,5.1-7.1
	c-4.7-9.9-13.9-17-23.7-21.4C540.9,581.4,529.6,580.9,520,585.1z"/>
<path class="st1" d="M435.7,521.8c6.9-0.3,13.5,3.3,18.2,8.3c7.2,7.8,10.5,18.5,10.8,28.9c0.2,11.4-3,23.3-10.8,31.9
	c-4.9,5.5-12.3,9.4-19.8,8.7c-7.8-0.6-14.5-5.6-18.9-11.9c-7.2-10.3-9.2-23.5-7.1-35.8c1.8-10,6.6-19.9,15-25.9
	C426.8,523.5,431.2,522.1,435.7,521.8z"/>
<path class="st1" d="M612.4,532.6c5.1-1.4,10.8-0.2,14.9,3.2c7.2,5.7,10.6,15.2,10.6,24.2c0.2,8.9-2.7,18.3-9.3,24.6
	c-3.8,3.7-9.3,5.9-14.7,5.1c-6.1-0.8-11.1-5.2-14.2-10.3c-5.2-8.6-6-19.5-3.2-29C599,542.7,604.4,535.2,612.4,532.6z"/>
<path class="st2" d="M517.4,614.6c9.6-2.9,21.6,0,27.1,8.9c3.9,6.2,1.6,14.7-4.1,19c-10.4,8.4-28.6,3.9-32.7-9.2
	C505,625.8,509.5,616.4,517.4,614.6z"/>
</svg>
