<svg version="1.1" xmlns="http://www.w3.org/2000/svg" xmlns:xlink="http://www.w3.org/1999/xlink" x="0px" y="0px" viewBox="0 0 1000 1000" style="enable-background:new 0 0 1000 1000;" xml:space="preserve">
<style type="text/css">
	.st0{fill:#EDEDED;}
	.st1{fill:#464B4B;}
	.st2{fill:#000000;}
</style>
<path class="st2" d="M371.3,470.2c4.8-1.1,9.8-0.5,14.5,0.3c26.6,5.2,53.1,11.4,80.1,14.2c44.2,4.7,88.8,6.5,133.1,3.2
	c12.7-0.8,25.5-1.8,38.1-3.8c6.5-0.7,13.2-2.8,19.6-0.5c5.3,1.9,7.5,7.5,9.4,12.3c7.2,19.9,9.5,41.2,9.7,62.2
	c-0.1,30.8-5.3,62.3-20.1,89.6c-4.1,8.1-10.2,15.7-19,19c-15,5.9-30.8,9.5-46.6,12.1c-29.1,4.6-58.6,6.4-88.1,4.9
	c-17.8-0.4-35.6-2.6-53.1-5.8c-21.2-3.9-42.6-8-62.8-15.9c-8.8-3.7-17.8-7.6-25-14.1c-8.2-7.8-11.2-19-14.3-29.5
	c-5.2-20-6.5-40.8-5.9-61.3c0.1-20.7,3.4-41.4,10-61c2.3-6.6,5-13.2,9.4-18.7C363,473.7,366.9,471.1,371.3,470.2"/>
<path class="st0" d="M374.3,483.6c4.1-1.3,8.4-0.3,12.5,0.4c10.1,2,20.1,4.3,30.2,6.2c19.1,3.5,38.2,6.3,57.5,8.6
	c28.8,2.5,57.6,4.7,86.5,3.7c20-0.3,40.1-0.9,60-3.5c8.7-0.9,17.3-2.6,26-3.3c4.8-0.5,8,3.7,9.4,7.7c3,8.5,4,17.6,5.2,26.4
	c3.5,23.3,3.2,47.2-0.9,70.3c-3.2,14.8-7.5,29.8-15.8,42.6c-4.7,7.2-13.1,10.4-20.9,13.1c-15,4.8-30.5,7.8-46,10.3
	c-20.8,3.4-41.9,3.9-62.9,3.7c-25.7,0.1-51.3-3-76.5-8.1c-18.8-3.7-37.3-9.2-54.6-17.7c-7.7-3.8-15.2-8.9-19.9-16.3
	c-3.9-5.9-5.6-12.9-7-19.7c-3.1-15.8-3.8-32-4.2-48.1c-0.4-21,3.1-42,10-61.9C365.3,492.5,368.1,485.8,374.3,483.6"/>
<path class="st2" d="M438.1,518.1c7.6-4.9,17.8-5.2,25.6-0.9c8,4.1,13.9,11.3,18,19.1c7.2,13.7,10,29.3,10.3,44.7c-0.4,15.5-3.1,31.4-11.3,44.8
	c-5.1,8.4-13,16-23.1,17.6c-9.2,1.6-18.3-3-24.7-9.4c-8.2-8.5-13.2-19.5-16.2-30.8c-4.8-18.9-4.6-39.1,1.6-57.7
	C422.2,534.8,428.2,524.2,438.1,518.1"/>
<path class="st2" d="M610.4,529.6c7.4-2.3,15.7,0.5,21.1,5.9c7.5,7.4,11.1,17.8,12.8,28c2.6,17.2,0.1,35.4-7.9,50.9
	c-4.6,8.8-11.6,17.3-21.5,20.2c-7.5,2.3-15.9-0.6-21.3-6.1c-7.6-7.7-11.2-18.5-12.8-29c-2.3-17.8,0.6-36.5,9.3-52.2
	C594.7,539.4,601.4,532.2,610.4,529.6"/>
<path class="st1" d="M446.1,523.2c6.8-2.4,14.5,0.3,19.5,5.3c11.1,10.8,15.9,26.3,17.7,41.2c1.6,17.3-0.1,35.5-8.7,50.9
	c-4,6.9-10.2,13.7-18.5,14.9c-6.1,0.9-11.7-2.3-16.2-5.9c6.5,0.9,13.4-0.8,18.3-5.3c9.5-8.4,12.9-21.5,14.3-33.7
	c1.6-14.9-0.6-30.6-8.3-43.7c-3.9-6.5-10.2-12.3-18-12.9c-6-0.6-11.4,2.3-16.2,5.3C433.6,532.5,438.6,525.8,446.1,523.2z"/>
<path class="st1" d="M600.8,543.8c3.9-4,8.4-7.9,14.2-8.2c6.7-0.5,12.4,4.3,15.8,9.7c5.9,9.4,7.7,20.8,7.8,31.8
	c-0.3,14.4-3.7,29.4-12.4,41.2c-4.1,5.5-10,10.6-17.2,10.5c-4.5,0-8.2-2.7-11.5-5.5c7.3,1,15-1.2,19.9-6.8
	c8.1-9.4,10.7-22.3,11-34.4c0-11.5-2.4-24.1-10.6-32.8C613.5,544.6,606.9,543.1,600.8,543.8z"/>
<path class="st0" d="M438.5,538.7c6.1-2.7,13.4-0.8,17.9,4c7.2,7.3,10.4,17.5,12.2,27.4c1.8,12.7,0.8,25.9-3.7,37.9
	c-2.7,7.1-7.5,14.1-14.7,17.1c-5.8,2.4-13.1,0.7-16.6-4.6c-7-9.9-10.2-22.1-11.3-34.1c-1.3-10.6-0.2-21.4,2.6-31.7
	C426.7,547.7,431.6,541.2,438.5,538.7z"/>
<path class="st0" d="M601.5,548.6c5.1-1.6,10.8,0.8,14.1,4.8c5.2,6.2,7.2,14.5,8.1,22.4c0.8,11.1-0.8,22.7-6.2,32.6
	c-3,5.6-8.8,10.6-15.5,10.3c-6.8-0.5-11.4-6.7-13-12.9c-3.6-13.6-2.8-28.2,1.2-41.6C592.1,558.1,595.3,551.4,601.5,548.6z"/>
</svg>
