<svg version="1.1" xmlns="http://www.w3.org/2000/svg" xmlns:xlink="http://www.w3.org/1999/xlink" x="0px" y="0px" viewBox="0 0 1000 1000" style="enable-background:new 0 0 1000 1000;" xml:space="preserve">
<style type="text/css">
	.st0{fill:#EDEDED;}
	.st1{fill:#FF5400;}
</style>
<path class="st0" d="M778.6,595.4c18.2-12.5,41-18.1,63-16c14.7,1.2,29,6.1,41.7,13.4c8.4,4.9,15.7,11.6,21.8,19.2
	c16.5,22.4,20.8,52.4,13.9,79c-5.4,21.9-21.7,40.3-42.1,49.5c-15.9,7.1-33.7,9-51,7.6c-15.1-2-30.1-7.5-42.1-17.1l-0.3,0.6
	c-0.4-1.2-1.5-1.9-2.4-2.7c-3.9-3-7.3-6.8-10.8-10.3c-2.8-3.6-6.6-6.8-11.2-7.3c-10-0.1-20,0-29.9,0c-4.8,0-10,1.8-14.4-0.8
	c-3.4-2.1-4.6-7-1.9-10.1c7.8-8.2,16.3-15.6,24.2-23.7c3.2-2.9,6.8-5.6,9.2-9.2c1.3-2.6,1.5-5.5,1-8.3c-1.2-14.6,3.9-29,11-41.5
	C763,608.9,770.4,601.4,778.6,595.4"/>
<path class="st0" d="M801.7,766.7c4.1-3.3,9-5.9,14.3-6.6c3.2-0.1,6.4-0.2,9.6,0.1c11.4,2,21.1,10.4,25.3,21c4,8.7,5.2,18.6,3.1,28
	c-0.9,4.8-3.4,9-5.5,13.3c10.2,4.2,19.5,10.8,26.8,19.1c6.6,7.4,11.4,16.7,12,26.7c0.9,11.9-4.8,23.5-13.4,31.5
	c0.5,7.6-0.4,15.4-4.2,22.2c-4.8,9-13.5,15.9-23.6,18c-5.1,17.4-25.5,28.1-42.8,22.7c-3.8-1.2-7.3-3.1-10.5-5.5
	c-2.6-1.9-4.3-4.8-6.7-6.8c-2.6,0.9-5.5,1.3-8.2,1.3c-6.2-0.2-12.5,0.6-18.4-1.4c-10.6-3.3-20.8-10.6-25.1-21.1
	c-3.1-0.1-6.1,0.2-9.2-0.4c-11-0.8-20-10.2-21-21c-1.3-7.2-0.8-14.5-0.8-21.7c0.1-12.2-0.6-24.4,1.2-36.4c1.7-12,6.8-23.8,15.8-32.2
	c5.5-3.3,12.1-4.3,18.3-2.8c3,0.7,5.9,2,9.1,2c4.8-0.4,8.8-3.4,12.5-6.1C776.4,798,786.6,780,801.7,766.7"/>
<path class="st1" d="M793.3,607.3c16.9-11.6,38.7-15,58.5-10.2c11.8,3,23,8.8,31.9,17.1c11.8,11.1,19.8,26.5,21.1,42.7
	c1.7,16.2-3.1,33-13,46c-10.9,14.7-27.9,24.5-45.9,27.2c-10.6,1.5-21.6,1.1-31.9-2c-6-1.7-11.5-5-16.7-8.4
	c-8.3-5.4-16.2-11.9-21.6-20.3c-1.8-2.5-3.2-6.2-6.8-6.1c-9.5,0.2-18.9,1.3-28.3,2.5c6.4-5.6,13.1-11.1,19.1-17.2
	c2.2-2.3,4.6-5.1,4.5-8.6c0-9.7-0.4-19.7,2.7-29C771.7,627.3,781,615.2,793.3,607.3 M796.4,637.4c-3.9,5-5.5,11.4-5.3,17.6
	c-0.2,7.9,3.7,15.3,9,21c7.5,8.1,17,14.3,23.5,23.4c3.9,5.6,12,7.6,17.8,4c4.6-3.1,7.2-8.1,11.1-11.9c8.8-8.5,19.9-15.6,24.4-27.5
	c3.1-9.8,1.5-21.6-5.9-29.1c-6-6.3-15.7-8.3-23.9-5.7c-4.8,1.4-8.8,4.5-12.5,7.7c-3.3-3.1-7.1-5.8-11.4-7.3
	C813.9,626.1,802.3,629.2,796.4,637.4z"/>
<path class="st1" d="M817.7,775.8c4.4-2.1,9.9-1.3,13.6,2c7.8,6.4,10,17.6,8.2,27.1c-2.5,9.1-9.2,16.6-17.1,21.4
	c-8.9,5.1-19.1,7.2-29.1,8.9c-3.2,0.5-4.5,4.7-2.3,7c2.7,2.1,6.2,0.8,9.3,0.7c13.4-1.3,26.3-6.1,39.8-6.7
	c11.2-0.5,21.4,6.2,28.1,14.8c5.2,6.4,8.3,14.7,7.5,23c-0.6,6.9-5.3,13.3-11.8,15.8c-12.8,4.5-28.5,0.4-37-10.4
	c-4.2-5.6-5.8-14.1-1.2-19.9c2.9-3.8,8.2-4.2,12.5-3.5c7.8,1.2,15.2,4.8,21.4,9.6c2.2,1.9,6.2,0.4,6.5-2.6c0.5-3.6-3.1-5.5-5.5-7.2
	c-8.2-5.1-17.7-9-27.5-8.5c-6.5,0.2-12.9,3.9-16,9.8c-3.2,5.5-3.3,12.2-1.8,18.3c-8.6,3.5-17,10.2-18.9,19.8c-1,4,0,8,0.8,12
	c-0.5,2-2.8,2.6-4.3,3.8c-8,5.4-12.3,15.6-10.1,25.1c-10.4,3.4-21.8,0-30.6-6c-6-4-11.3-10.3-11.5-17.9c-0.6-4.8,3.1-10.7,8.4-10.4
	c5.1,0.8,10,5,15.3,2.7c3.1-0.9,4-5.3,1.5-7.3c-3.4-1.8-7-3.3-9.8-5.9c-15.4-11.7-19.1-36.1-7.4-51.6c7-9.1,17.5-14.5,26.4-21.4
	c10.1-7.4,18.7-16.8,26.2-26.8C805.9,785.4,810.6,779,817.7,775.8z"/>
<path class="st1" d="M730.7,828.6c4.4-2.8,10.1-1.7,14.3,1c-5.3,4.8-9.4,10.8-11.3,17.8c-3,10.7-2.3,22.1,0.4,32.7
	c1.4,4.4-0.2,8.8-2,12.7c-2.3,4.9-3.4,10.3-3.5,15.7c-2.6-0.2-5.3-1.2-6.3-3.8c-2.9-6.8-2.8-14.4-3.5-21.7
	c-0.2-13.4-0.9-27.1,2.9-40.1C723.3,837.5,725.8,831.8,730.7,828.6z"/>
<path class="st1" d="M805.3,894.3c2.5-5.6,7.9-9.2,13.4-11.4c9.2,13.2,26.6,19.2,42.1,16.5c1.3,6.3,1,13.4-2.4,19.1
	c-4.2,6.8-13,9.2-20.6,8c-11.7-1.7-23-7.9-30-17.6C804.8,904.9,803.5,899.2,805.3,894.3z"/>
<path class="st1" d="M790.8,932c-1-7.3,4.4-14.2,11.1-16.6c7.9,10,19.6,16.6,32,19.3c-0.1,6.1-3.9,12.1-9.6,14.5
	c-6.2,2.6-13.3,1.5-19.2-1.4C798.8,944.6,792.2,939.5,790.8,932z"/>
</svg>
