<svg version="1.1" xmlns="http://www.w3.org/2000/svg" xmlns:xlink="http://www.w3.org/1999/xlink" x="0px" y="0px" viewBox="0 0 1000 1000" style="enable-background:new 0 0 1000 1000;" xml:space="preserve">
<style type="text/css">
	.st0{fill:#000000;}
	.st1{fill:#FFFFFF;}
	.st2{fill:#F78200;}
	.st3{fill:#F32525;}
	.st4{fill:#D15B31;}
</style>
<path class="st0" d="M530.1,549.4c-0.5,4.5-1.6,9-1.8,13.6c0,4.7,5.4,8.5,9.7,6.1c3.2-2.1,5.1-5.7,7.7-8.4c2.6-3.1,6-5.3,9.3-7.6
	c3.5-2.7,2.5-8.8-1.5-10.4c-3.5-1.8-7.1,0.5-10.1,2.2c0.5-11.9-0.1-23.8-3-35.4c-4.7-20.1-15.5-39.2-31.9-52
	c-20.2-16.1-48.1-20.8-72.9-14.5c-4.4,1.1-6.4,7.1-3.2,10.5c3.1,3.5,8.1,1.7,11.9,1c-15.6,13.5-20.9,35.9-17.4,55.7
	c2.5,16.5,12.1,31.5,25.6,41.3c11.3,8.6,25.4,12.9,39.5,13.1C506,564.6,519.9,559,530.1,549.4z"/>
<path class="st0" d="M610.8,575.3c0.5,3.3-0.3,8,3.5,9.6c4.6,2.1,8.5-2.5,12.2-4.5c2.2,5.4,5.4,10.4,10,14.1
	c17.9,14.8,46.1,14.7,64.1,0c8.4-6.9,11.8-18.4,10.9-29c3.3,1.4,6.4,3.1,9.8,4.5c3.7,1.6,8.1-1.9,7.5-5.8c-0.3-3.4-3.6-5.2-6.3-6.6
	c-13.7-6.8-29.5-7.8-44.5-6.4c-19.8,2-39.1,8.5-56.3,18.5c-1.4-3.9-2.7-8.6-6.8-10.3c-3.9-2-9,2.2-7.6,6.4
	C608.5,569,610.5,571.8,610.8,575.3z"/>
<path class="st0" d="M754.8,765c-3.2-9.8-9.4-19.4-18.9-24c-5.3-2.7-11.4-1.8-16.9-0.4c-10.6-14.7-22.9-28.2-36.5-40.1
	c-13.6-11.9-28.8-21.7-44.6-30.4c0.2-10.3-4.8-20.8-13.7-26.2c-12.1-7.6-26.8-7.2-40.3-9.8c-12.9-2.4-25.2-7.7-36.2-14.7
	c-8.3-4.8-16.4-10.6-25.8-13c-11.2-2.6-23.7-0.6-32.8,6.7c-7.9,6.1-12.7,15.9-12.3,25.9c0,10.5,5.7,20.2,13,27.4
	c8.7,8.3,19.6,13.8,30.6,18.4c20.2,8.2,42,11.7,63.7,13.1c5.1,22.9,7.9,46.4,6.5,69.8c-5.4,2.9-10.8,6.6-13.5,12.3
	c-4.1,8.2-2.5,17.7-2.1,26.5c0.8,8.7,2.9,18.9,11.2,23.5c8.5,4.3,18.6,2.6,27.6,0.8c14.2-3.3,27.8-9.3,40.2-16.9
	c2.9-2.2,6.8-1.1,10.2-1.4c15.8,0.1,31.1-6,43.9-15c13.8,5,30.6,2,41.1-8.4C755.4,783,757.6,773.3,754.8,765z"/>
<path class="st1" d="M467.3,455.6c1.5-0.4,3.1-1.2,4.8-0.8c16.1,3,30.8,12.4,40.7,25.4c11.2,14.5,16.6,32.7,17.7,50.9
	c0.2,2.5-2,4.2-3.4,6c-10.8,12.9-28.9,18.1-45.1,14.8c-25.5-4.6-46.4-28.7-45.4-54.9C436.5,478.4,449.6,461,467.3,455.6z"/>
<path class="st1" d="M635,575.8c20.3-10,43.4-15.5,66.1-12.6c1.1,4,1.5,8.2,0.1,12.2c-2.7,8.6-10.6,14.7-18.9,17.7
	c-11.8,4.2-25.6,3.5-36.4-3.1C640.7,586.8,636.7,581.8,635,575.8z"/>
<path class="st1" d="M489.1,628.8c3.5-6.7,10.7-10.3,17.8-11.8c9.1-1.4,18.5,1,26.2,5.8c7.1,4.2,13.7,9.3,21,13.2
	c10.7,5.5,22.3,9.8,34.4,10.8c9.9,1.2,20.6,0.8,29.5,6.1c5.4,3.2,7.8,9.6,7.4,15.7c-19.2,1.2-38.5-1.4-57.1-5.7
	C540.2,656.2,513.6,644.2,489.1,628.8z"/>
<path class="st1" d="M487.5,634.7c26.4,16.3,55.3,29,85.8,35.2c3.3,5.9,5.8,12.2,8.2,18.6c-18.5-1.1-36.9-4.7-54.3-10.9
	c-12.2-4.7-24.2-10.9-33-20.8C488.9,650.8,486.6,642.6,487.5,634.7z"/>
<path class="st2" d="M589.4,677.8c15.1,2.2,30.5,1.8,45.6-0.6c27.3,18.5,51.6,41.7,70.9,68.5c-4,2.1-7.9,4.5-11.7,7
	c-17.4-2-35.9,0.9-50.9,10.2c-12.5-4-26.1-2.7-38.5,1.1C606.9,734.6,602.5,704.3,589.4,677.8 M629.4,685.5
	c-5.6,1.2-10.4,6.5-9.8,12.4c1,8.5,10.2,14.5,18.5,12.9c6-0.9,11.3-6.5,10.6-12.8C647.7,689.2,637.7,683.4,629.4,685.5 M662.4,714.6
	c-5.7,1.8-9.6,7.5-9.6,13.4c-0.7,9.6,7.3,19.6,17.3,19.2c7.6-0.3,13.4-7.8,12.9-15.2C683.2,721.7,672.9,711.2,662.4,714.6
	 M623.3,717.1c-14.5,4.1-18.5,26.2-7.1,35.7c4.3,3.6,10.9,4,15.6,0.9c10.2-6.3,12.8-21.8,5.6-31.2
	C634.2,718.3,628.5,715.9,623.3,717.1z"/>
<path class="st3" d="M630.4,691.5c5.1-1.3,11.8,1.7,12.2,7.5c-0.1,3.8-4.2,6-7.6,5.7c-3.9-0.3-8.1-2.7-9-6.7
	C625.2,695,627.6,692.1,630.4,691.5z"/>
<path class="st3" d="M664.4,719.4c6.6-1.5,11.5,5.7,11.9,11.5c0.7,4.4-2.2,10-7.2,9.8c-7-0.5-11-8.4-9.9-14.8
	C659.5,723.1,661.4,720.1,664.4,719.4z"/>
<path class="st3" d="M624.4,722.6c3.8-1.5,7.9,0.9,9.5,4.4c3.3,6.9,1.4,16.4-4.9,21c-3.9,2.9-9.8,1-11.7-3.4
	C613.8,737.1,616.3,726,624.4,722.6z"/>
<path class="st4" d="M690,768c8.9-8.7,20.6-14.9,33-16.6c5.2-0.8,10.2,2.1,13.3,6.1c3.7,4.8,6.8,10.4,7.7,16.4
	c0.6,4-2.2,7.5-5.4,9.6c-8.1,5.2-18.8,6.4-27.7,2.6c-2.8-1.1-5.3-2.9-8-4c-3.2-0.4-3.2,3.6-3.1,5.8c0.4,3-2.9,4.4-5,5.7
	c-9.8,4.8-20.8,7.3-31.7,6.8c-3.9,0-7.3-1.8-10.8-3.2c-1.8,0.7-3.2,2-4.8,3.2c-13.7,10.3-30.6,15.8-47.6,17.1
	c4.1-9,2.6-19.4-1.1-28.2c-1.8-4.2-4.9-7.9-9.3-9.6c8.5-6.4,19.2-8.6,29.6-9.5c11.9-0.5,24.8,0.8,34.6,8.2c1.4,1.1,3.2,1.6,4.9,2
	c1.5-4.1-2.8-6.4-4.3-9.6c0-2.9,2.8-4.5,5.1-5.7c5-2.1,10.5-2.9,15.8-3.6c2.9-0.3,6.4-0.5,8.6,1.9c1.1,2.1,0.2,4.7,1.2,6.9
	C687,771.2,688.5,769.3,690,768z"/>
<path class="st4" d="M585.7,792c-0.1-2.1,1.2-3.7,2.1-5.4c1.7,1.5,3.5,3.1,4.2,5.3c2.4,6,4,12.6,3.7,19.2c0,2.3-1.3,4.2-2.6,6
	c-2-1.4-4.1-3-4.6-5.5C586.8,805.3,585.5,798.7,585.7,792z"/>
</svg>
