<svg version="1.1" xmlns="http://www.w3.org/2000/svg" xmlns:xlink="http://www.w3.org/1999/xlink" x="0px" y="0px" viewBox="0 0 1000 1000" style="enable-background:new 0 0 1000 1000;" xml:space="preserve">
<style type="text/css">
	.st0{fill:#FFD400;}
	.st1{fill:#FFFFFF;}
	.st2{fill:#000000;}
</style>
<path class="st2" d="M478.8,388.7c29.3-6.3,60.3-4.5,88.8,4.9c18.3,5.9,35.9,14.6,50.9,26.8c11.3,9.2,20.7,20.5,28.7,32.6
	c8.2,12.9,15,26.7,19.2,41.4c5.7,18.4,8.8,37.6,9.2,56.9c0.7,26.6-2.5,53.5-11.8,78.5c-6,14.9-13.1,29.5-23,42.2
	c-9,11.5-19.3,22.2-31.7,30.1c-2.5,1.9-6.4,1.8-8.2-0.8c-2-2.5-0.9-6.2,1.6-7.8c6.3-4.3,12.3-8.9,17.6-14.4c2.2-2.5,5-4.8,5.7-8.2
	c-11.5,2.8-22.9,6.1-34.6,7.8c-29.4,4.7-59.3,6.6-89.1,5.1c-19-0.4-37.9-2.9-56.5-6.4c-16.9-3-33.7-6.6-50.1-11.9
	c-3.7-1.1-7.1-3.1-11.1-3.1c0.5,4.4,3.6,7.9,6.2,11.3c8,10.4,18.5,18.4,29,26.1c3.5,2,3.3,8.1-0.7,9.5c-3.1,1.5-6.1-0.8-8.7-2.4
	c-21.3-13.7-38.1-33.7-50.3-55.7c-10.4-18.8-16.4-39.8-18.9-61.1c-2.8-21.2-2-42.8,1.6-63.9c5.4-31.9,20-62.5,42.8-85.6
	C410.5,414.6,443.4,396.1,478.8,388.7 M495.5,397.8c-33.3,3.9-65.1,18.4-90.5,40.2c-5.9,5.4-12.5,11-14.9,19
	c-1.5,4.1-0.6,9.2,2.6,12.3c2.6,2.4,6,3.5,9.3,4.3c23.4,5.2,47,9.6,70.9,11.8c41.2,4,82.7,5.6,124,2.6c12-0.8,24-1.4,35.9-3.4
	c3.9-0.7,8.5-2.4,9.7-6.6c1.5-5-1.3-9.8-3.5-14c-8.2-15.4-19.9-28.9-34.1-39c-14.4-10.4-30.9-17.4-47.9-22.2
	C537.2,397,516.1,395.3,495.5,397.8"/>
<path class="st0" d="M374.4,483.6c5.1-1.5,10.4,0.1,15.5,1c28.1,6.4,56.7,11,85.3,14.3c29.5,2.6,59.2,4.7,88.9,3.6
	c20.1-0.2,40.2-1.2,60.1-3.8c7.7-0.8,15.2-2.4,22.9-3c3.8-0.4,7.1,2.4,8.5,5.8c2.8,6.2,3.8,13.1,4.9,19.8
	c1.6,11.9,3.5,23.8,3.5,35.8c0.2,18.8-1,37.9-6.4,56.1c-3.2,10.8-6.9,21.6-13.5,30.9c-2.7,3.7-6.6,6.2-10.7,8.2
	c-7.1,3.4-14.7,5.5-22.3,7.4c-22.9,5.6-46.3,9.4-69.9,10.1c-24.4,0.5-49,0.5-73.2-3c-22.5-3.2-45.1-7.3-66.5-15.2
	c-11.2-4.3-22.8-8.8-31.9-16.9c-7.4-6.6-11.2-16.1-13.5-25.5c-4.4-17.6-5.4-36-4.6-54.1c0.9-20.2,4.7-40.4,12.4-59.1
	C366,491,368.9,485.4,374.4,483.6"/>
<path class="st2" d="M438.5,532.5c15,0,30,0,45,0c0,29.7,0,59.3,0,89c-15,0-30,0-45,0C438.5,591.8,438.5,562.2,438.5,532.5z"/>
<path class="st2" d="M595,532.5c14.9,0,29.9-0.1,44.8,0.1c-0.1,29.7,0,59.3,0,88.9c-14.9,0-29.8,0-44.8,0C595,591.8,595,562.2,595,532.5z"/>
<path class="st1" d="M394,532.5c14.8,0.1,29.6,0,44.5,0c0,29.7,0,59.3,0,89c-14.8,0-29.6,0-44.5,0C394,591.8,394,562.2,394,532.5z"
	/>
<path class="st1" d="M550.5,532.5c14.8,0,29.7,0,44.5,0c0,29.7,0,59.3,0,89c-14.8,0-29.7,0-44.5,0
	C550.5,591.8,550.5,562.2,550.5,532.5z"/>
</svg>
