<svg version="1.1" xmlns="http://www.w3.org/2000/svg" xmlns:xlink="http://www.w3.org/1999/xlink" x="0px" y="0px" viewBox="0 0 1000 1000" style="enable-background:new 0 0 1000 1000;" xml:space="preserve">
<style type="text/css">
	.st0{fill:%%ST0%%;}
	.st1{fill:%%ST1%%;}
</style>
<path class="st1" d="M467.4,280.5c23.3-0.8,46.3,3.4,68.8,9.3c30.9,7.7,60.9,19.3,88.2,35.9c24.7,15,48.9,32.3,65.6,56.3
	c11.5,16.3,19.9,34.7,25.1,54c4.2,15,6.5,30.4,8.5,45.8c3.3,26.9,2.7,54.1,0.2,81.1c-2.2,22.8-6,45.6-12.2,67.6
	c-4.6,16-10.3,31.8-18.4,46.4c-14.1,25.6-36.3,46.4-62.4,59.7c-16,8.3-33.2,14.2-50.8,18.2c-16.8,3.9-33.9,5.8-50.9,8
	c-25,2.9-50.3,3.8-75.4,1.2c-21.5-2-42.9-5.5-63.8-11c-19.6-5.3-38.7-12.8-55.5-24.4c-24-16.5-44.6-38.7-56.6-65.4
	c-17.4-37.1-21.1-78.9-19.1-119.3c1.9-39.9,9.6-79.7,24.7-116.8c9.2-23.3,21.8-45.2,36.7-65.4c16.9-22.6,37.8-42.6,62.4-56.5
	C408.1,290.5,437.5,281.1,467.4,280.5"/>
<path class="st0" d="M450.5,301.7c35.4-3.8,71,2.7,104.9,12.8c19.3,5.7,37.4,14.5,55,24.1c23.9,13.2,46.7,29.9,63,52.1
	c11.1,15.4,18.9,32.9,23.9,51.1c4.4,16,6.3,32.6,7.9,49.1c2.5,28.1,1.8,56.6-1.8,84.6c-2.5,18.8-5.4,37.7-10.9,55.9
	c-7.7,28.8-24.8,55.3-48.4,73.5c-13.4,10.2-28.6,17.9-44.3,23.7c-37.1,14-77.1,19.8-116.6,19.3c-21.5-0.5-43-2.9-64-7.7
	c-21.8-4.9-43.4-11.7-63.4-21.8c-23.7-12-44-31.1-56.4-54.7c-9.9-18.8-16.4-39.3-19.8-60.3c-3.2-20.6-3.5-41.7-2.3-62.5
	c1.4-23.8,5.4-47.3,11.6-70.3c8.2-31.7,21.3-62.3,39.2-89.8c11.7-18.1,26.2-34.5,43.5-47.4C394.4,316.2,421.8,304.4,450.5,301.7z"/>
</svg>
