<svg version="1.1" xmlns="http://www.w3.org/2000/svg" xmlns:xlink="http://www.w3.org/1999/xlink" x="0px" y="0px" viewBox="0 0 1000 1000" style="enable-background:new 0 0 1000 1000;" xml:space="preserve">
<style type="text/css">
	.st0{fill:#EDEDED;}
	.st1{fill:#FFD400;}
	.st2{fill:#f32525;}
	.st3{fill:#FFFFFF;}
</style>
<path class="st0" d="M662.9,583.6c-5.9,2.2-11.8,4.4-17.7,6.6c-2.7,7.3-7.2,14-13.8,18.2c-10.4,7.2-24.8,8.1-36,2.1
	c-13.1-6.7-20.9-22.2-18.3-36.6c2.1-14.5,14.3-26.7,28.8-28.9c8.4-1.5,17.2,0.5,24.5,4.7c10.7-3.9,21.4-8,32.1-12
	c4-1.5,7.9-3,11.9-4.5c-1-9.2-2.6-18.4-4.9-27.4c-3.7,1.6-7.4,3.2-11.1,4.8c-55.7,23.9-111.4,47.9-167.1,71.8
	c-2.5,10.4-9,19.9-18.1,25.7c-9.3,6-21.1,7.9-31.8,5.3c-11-2.6-20.7-9.9-26.2-19.7c-5.6-9.9-6.9-22.1-3.3-32.9
	c3.9-12.6,14.4-22.9,27.1-26.7c11.1-3.7,23.4-1.8,33.4,4c27.6-11.8,55.1-23.6,82.6-35.5c11.3-4.8,22.5-9.7,33.8-14.5
	c-15.7,1.7-31.6,1.5-47.3,1.2c-22.2-0.4-44.5-1.6-66.6-3.8c-24.5-2.2-48.7-6.6-72.7-12c-2.9-0.7-5.9-1.6-8.3-3.4
	c-3.5-2.4-5.1-7-4.3-11.1c0.9-4.8,3.5-9.1,6.8-12.6c5.4-6,11.6-11.2,18.1-16.1c28.5-21.3,63.8-33.7,99.5-33.7
	c16.8,0,33.6,2.8,49.6,8c17.8,5.8,35.1,14.1,49.3,26.5c11.3,9.7,20.5,21.7,27.3,34.9c3.9-1.7,7.8-3.4,11.8-5.1
	c-7.4-13-16.6-25.1-27.6-35.4c-13.7-12.6-30.1-22-47.4-28.6c-28.2-11-59.2-14.8-89.2-10c-36.9,5.6-71.6,23.5-98.5,49.3
	c-23.5,22.3-39.3,52.3-45.8,84c-7.3,36.5-5.7,75.1,6.9,110.2c6.4,17.2,15.9,33.2,27.6,47.3c10.1,12,21.7,22.9,35.4,30.8
	c3.4,2.4,8.9-0.2,8.5-4.5c0.2-3-2.7-4.7-4.8-6.3c-11.7-8.4-23-17.9-30.9-30.2c-1.1-1.7-1.9-3.6-1.9-5.6c4.1,0.3,7.8,2.3,11.8,3.5
	c20.7,6.6,42.1,10.6,63.5,14.1c21.5,3.6,43.5,4.3,65.3,4.5c24.5-0.1,48.9-2.5,73-6.8c9.4-1.6,18.5-4.4,27.7-6.6
	c-0.7,3.2-3.2,5.4-5.2,7.7c-5.2,5.5-11.2,10.3-17.5,14.5c-2.6,1.5-4.3,5-2.5,7.7c1.6,3.1,6,3.5,8.6,1.4
	c14.4-9.3,26.2-22.2,36.1-36.1c17.3-25.7,27.3-56,29.6-86.8C670.8,580.7,666.9,582.1,662.9,583.6z"/>
<path class="st0" d="M487.9,387c29.9-4.9,61-1,89.2,10c17.3,6.6,33.7,16,47.4,28.6c10.9,10.3,20.1,22.4,27.6,35.4
	c-3.9,1.7-7.8,3.4-11.8,5.1c-6.8-13.2-16-25.2-27.3-34.9c-14.2-12.4-31.5-20.8-49.3-26.5c-16-5.2-32.8-8-49.6-8
	c-35.7,0-71,12.4-99.5,33.7c-6.5,4.8-12.7,10.1-18.1,16.1c-3.2,3.5-5.8,7.8-6.8,12.6c-0.8,4.1,0.8,8.7,4.3,11.1
	c2.4,1.8,5.4,2.7,8.3,3.4c24,5.4,48.2,9.8,72.7,12c22.1,2.2,44.4,3.4,66.6,3.8c15.8,0.2,31.7,0.4,47.3-1.2
	c-11.3,4.8-22.5,9.8-33.8,14.5c-26.8,0.6-53.5-1.5-80.1-3.8c-18.5-2.2-37-4.9-55.3-8.2c-12-2.1-23.8-5.1-35.7-7.2
	c-4.7-0.9-10.1-0.9-13.8,2.6c-5.2,5.1-7.5,12.4-9.8,19.1c-6.5,18.9-9,38.9-9.2,58.8c0,14.9,1.2,29.8,4.7,44.3
	c2,8.3,5,16.7,10.7,23.2c7.9,8.8,19.1,13.7,29.9,18c18.8,7.6,38.6,11.9,58.5,15.2c20.5,3.5,41.3,5.3,62.1,5.1
	c19.9,0.2,39.9-0.4,59.5-3.5c14.9-2.4,29.7-5.3,44.1-9.5c8-2.6,16.6-5.3,22.3-11.8c6.1-7.8,9.7-17.1,12.7-26.4
	c3.8-11.3,6.2-23.1,7.2-35c4-1.5,7.9-3,11.9-4.4c-2.3,30.8-12.3,61.2-29.6,86.8c-9.9,13.9-21.7,26.8-36.1,36.1c-2.6,2-7,1.7-8.6-1.4
	c-1.7-2.7,0-6.2,2.5-7.7c6.3-4.2,12.3-9,17.5-14.5c2.1-2.3,4.6-4.5,5.2-7.7c-9.2,2.2-18.4,5-27.7,6.6c-24.1,4.2-48.5,6.6-73,6.8
	c-21.8-0.1-43.7-0.8-65.3-4.5c-21.4-3.5-42.8-7.5-63.5-14.1c-3.9-1.1-7.6-3.2-11.8-3.5c0,2,0.8,3.9,1.9,5.6
	c7.8,12.3,19.1,21.8,30.9,30.2c2.1,1.6,5,3.2,4.8,6.3c0.5,4.3-5.1,6.9-8.5,4.5c-13.6-7.8-25.3-18.8-35.4-30.8
	c-11.6-14.1-21.2-30.1-27.6-47.3c-12.6-35.1-14.1-73.8-6.9-110.2c6.4-31.7,22.2-61.7,45.8-84C416.2,410.5,451,392.7,487.9,387z"/>
<path class="st0" d="M658.5,510.7c3.7-1.6,7.4-3.2,11.1-4.8c2.2,9,3.9,18.1,4.9,27.4c-4,1.5-7.9,3-11.9,4.5
	C661.4,528.7,660.4,519.6,658.5,510.7z"/>
<path class="st1" d="M370.1,486c3.6-3.5,9.1-3.5,13.8-2.6c12,2.1,23.8,5.1,35.7,7.2c18.4,3.3,36.8,6,55.3,8.2
	c26.6,2.3,53.3,4.4,80.1,3.8c-27.5,11.9-55,23.7-82.6,35.5c-10-5.8-22.4-7.7-33.4-4c-12.7,3.8-23.1,14.1-27.1,26.7
	c-3.5,10.8-2.3,23,3.3,32.9c5.5,9.8,15.2,17.2,26.2,19.7c10.7,2.7,22.5,0.7,31.8-5.3c9.2-5.7,15.6-15.2,18.1-25.7
	c55.7-24,111.4-47.9,167.1-71.8c1.9,8.9,2.9,18,4.1,27c-10.7,4-21.3,8.1-32.1,12c-7.4-4.2-16.1-6.3-24.5-4.7
	c-14.5,2.2-26.7,14.4-28.8,28.9c-2.6,14.5,5.2,30,18.3,36.6c11.2,6,25.6,5.2,36-2.1c6.5-4.3,11.1-11,13.8-18.2
	c5.9-2.2,11.8-4.4,17.7-6.6c-1,11.9-3.4,23.7-7.2,35c-3,9.3-6.6,18.6-12.7,26.4c-5.7,6.5-14.3,9.2-22.3,11.8
	c-14.4,4.3-29.2,7.1-44.1,9.5c-19.7,3.1-39.6,3.7-59.5,3.5c-20.8,0.1-41.6-1.7-62.1-5.1c-19.9-3.3-39.8-7.6-58.5-15.2
	c-10.8-4.4-22-9.2-29.9-18c-5.7-6.5-8.7-14.9-10.7-23.2c-3.6-14.5-4.7-29.5-4.7-44.3c0.2-19.9,2.8-39.9,9.2-58.8
	C362.6,498.4,364.9,491.2,370.1,486z"/>
<path class="st2" d="M652,461c116-49.8,232-99.7,348-149.6v17.2c-184.1,79.2-368.2,158.1-552.3,237.3c-4.9,1.7-7.9,7.9-5.1,12.6
	c2.2,4.4,8.1,5.6,12.4,3.5c181.7-78.1,363.5-156,545.1-234.2v16.1c-110.1,47.4-220.3,94.7-330.4,142.1c-3.7,1.6-7.4,3.2-11.1,4.8
	c-55.7,23.9-111.4,47.9-167.1,71.8c-2.5,10.4-9,19.9-18.1,25.7c-9.3,6-21.1,7.9-31.8,5.3c-11-2.6-20.7-9.9-26.2-19.7
	c-5.6-9.9-6.9-22.1-3.3-32.9c3.9-12.6,14.4-22.9,27.1-26.7c11.1-3.7,23.4-1.8,33.4,4c27.6-11.8,55.1-23.6,82.6-35.5
	c11.3-4.8,22.5-9.7,33.8-14.5c17.1-7.4,34.3-14.6,51.4-22.1C644.1,464.4,648,462.7,652,461 M417.3,569.9
	c-1.9,16.4,9.7,33.1,25.9,36.8c16.4,4.5,35.1-5.1,40.9-21.1c-7.5,3.2-14.9,6.5-22.4,9.6c-7.8,3.3-17.3,2.5-24.2-2.7
	c-7.6-5.4-11.3-15.5-9.1-24.6c1.6-7.4,7.1-13.7,13.9-16.8c7.6-3.5,15.4-6.5,23-10c-5.4-2.2-11.3-3.3-17.2-2.6
	C432.2,540.3,418.5,553.9,417.3,569.9z"/>
<path class="st2" d="M674.4,533.3C783,492.6,891.5,452,1000,411.2v16.4C869.6,476.5,739.2,525.1,608.8,574c-4.3,1.2-6.3,7-3.3,10.4
	c2.2,2.8,6.2,2.7,9.1,1.3c128.4-48.1,256.9-96,385.3-144.1v15.6c-108.4,40.7-216.8,81.3-325.2,122c-3.9,1.5-7.9,3-11.9,4.4
	c-5.9,2.2-11.8,4.4-17.7,6.6c-2.7,7.3-7.2,14-13.8,18.2c-10.4,7.2-24.8,8.1-36,2.1c-13.1-6.7-20.9-22.2-18.3-36.6
	c2.1-14.5,14.3-26.7,28.8-28.9c8.4-1.5,17.2,0.5,24.5,4.7c10.7-3.9,21.4-8,32.1-12C666.5,536.3,670.5,534.8,674.4,533.3 M595,555.1
	c-10.6,7-15.6,21.2-11.6,33.3c3.7,12.5,16.5,21.5,29.6,20.7c10.5-0.3,20.3-6.9,25.1-16.1c-9,2.6-17.4,8.1-27,7.9
	c-9.4-0.3-18-7.6-19.8-16.8c-2-8.8,2.4-18.3,10.1-22.8c7-3.8,14.8-5.8,22.1-8.9C614.2,548.5,603.2,549.3,595,555.1z"/>
<path class="st3" d="M417.3,569.9c1.1-16,14.9-29.6,30.8-31.2c5.8-0.7,11.8,0.3,17.2,2.6c-7.6,3.5-15.4,6.5-23,10
	c-6.8,3.1-12.3,9.4-13.9,16.8c-2.2,9,1.5,19.2,9.1,24.6c6.9,5.2,16.4,5.9,24.2,2.7c7.5-3.2,14.9-6.4,22.4-9.6
	c-5.8,16-24.5,25.6-40.9,21.1C427,603,415.4,586.3,417.3,569.9z"/>
<path class="st3" d="M595,555.1c8.2-5.8,19.2-6.6,28.4-2.8c-7.3,3.2-15.1,5.1-22.1,8.9c-7.7,4.5-12.1,14.1-10.1,22.8
	c1.8,9.2,10.4,16.5,19.8,16.8c9.6,0.2,18-5.3,27-7.9c-4.8,9.3-14.6,15.8-25.1,16.1c-13,0.8-25.9-8.2-29.6-20.7
	C579.4,576.3,584.4,562.1,595,555.1z"/>
<path class="st3" d="M447.7,565.8c184.1-79.2,368.3-158.1,552.3-237.3v19.2c-181.7,78.1-363.4,156.1-545.1,234.2
	c-4.3,2.1-10.1,0.9-12.4-3.5C439.8,573.8,442.8,567.6,447.7,565.8z"/>
<path class="st3" d="M608.8,574c130.4-48.9,260.8-97.5,391.2-146.4v14c-128.4,48.1-256.9,96.1-385.3,144.1c-3,1.3-7,1.4-9.1-1.3
	C602.5,581,604.5,575.2,608.8,574z"/>
</svg>
