<svg version="1.1" xmlns="http://www.w3.org/2000/svg" xmlns:xlink="http://www.w3.org/1999/xlink" x="0px" y="0px" viewBox="0 0 1000 1000" style="enable-background:new 0 0 1000 1000;" xml:space="preserve">
<style type="text/css">
	.st0{fill:#EDEDED;}
	.st1{fill:#FF5400;}
</style>
<path class="st0" d="M569.8,323.9c-1-11.8-8.2-21.7-14.2-31.5c-0.9-2-2.7-4.1-2.1-6.4c2.4-3.6,5.7-7.3,5.2-12
	c-0.9-6-6.1-10.2-7.5-16c-0.7-3.9,1.7-7.3,3.3-10.6c4.9-9.7,6.6-21.4,3.1-31.8c-4.7-13.8-16.6-24.9-30.8-28.4
	c-15.9-4.2-32.7,0.2-46.9,7.8c-20.5,11.2-36.3,29.4-48.7,49c-3.2-2-7-3.7-10.8-2.4c-4.8,1.5-7.1,6.7-8.4,11.1c-3.1-3.3-7.3-6-12-6
	c-5.2-0.1-9.9,2.8-13.3,6.5c-20.8-7.1-42.5-13.1-64.7-12.4c-16.5,0.4-33.4,5.1-46,16.1c-11.4,9.5-18.8,24.1-18.2,39.1
	c0.2,11.2,4.9,21.8,11.6,30.6c4.1,5.6,9.4,10.4,12.6,16.6c2.9,5.4-0.4,11.8,2.3,17.3c3.5,7.6,13,10,16.4,17.6
	c3.5,8.1,3.5,17.1,5.9,25.5c2.9,9.7,11.2,17.1,20.5,20.5c9.8,3.9,20.9,3,30.7-0.4c11.6-3.8,21.4-11.6,29.4-20.7
	c13-14.4,21.3-32.3,27.3-50.5c4,1.3,8.5,1.9,12.4,0.1c2.5-1.1,4.1-3.3,5.8-5.3c5,2.6,11.5,3.9,16.5,0.7c3.1-1.7,5-4.9,6.4-8
	c14.6,12.9,32.1,23.2,51.4,27.1c16.8,3.5,35.6-0.2,48.7-11.7C564.5,347.6,571,336,569.8,323.9z"/>
<path class="st1" d="M489.3,204.3c12.6-4.4,26.9-6.1,39.6-1.3c6.9,2.5,12.7,8.1,15,15.2c2.9,8.6,0.9,17.9-2.3,26.2
	c-2.5,7.1-5.1,15.2-1.3,22.4c1.6,4.2,5.8,8.2,3.8,13c-2.1,4.7-4.3,10.2-1.8,15.2c4.7,9.5,11.2,18.4,12.8,29.1
	c1.2,7.1-0.7,14.9-5.9,20c-7.8,7.8-19.3,10.6-30.1,10.6c-19.6-0.5-38.3-9.1-53.7-20.9c-4.9-3.7-8.9-9-9.3-15.3
	c9.2,0.3,19.1-1.1,26.4-7c2.3-1.6,2.4-5.5-0.3-6.7c-1.9-1-3.7,0.3-5.2,1.3c-6.2,4.3-14.1,5-21.5,4.6c-0.1-4.3-0.4-8.6-0.8-12.8
	c9.2-5.4,19.6-9.5,30.3-9.5c3-0.1,6,1.4,9,1c3.2-0.8,3.5-5.6,0.5-6.9c-5.4-2.4-11.6-2.1-17.4-1.3c-8.3,1.3-16.2,4.4-23.6,8.4
	c-0.4-2.3-0.9-4.6-1.3-6.9c15.6-14.9,38-24.3,59.7-19.6c2.6,1,5.8-1.1,5.4-4.1c-0.8-3.4-4.7-3.6-7.4-4.1c-21.4-3.4-43.2,5.2-59.3,19
	c-1.8-6.2-5-12.2-5-18.9c0.1-10.6,4.7-20.8,12.1-28.3C466.8,217.4,476.9,208.6,489.3,204.3z"/>
<path class="st1" d="M300,257c10.9-4.2,22.8-4.3,34.4-3.5c10.8,1.1,21.4,3.9,31.5,7.6c6.4,2.3,12.7,5.7,16.9,11.2
	c4.7,6.1,7.3,13.5,9.8,20.8c-15.8-6.6-33.6-9.2-50.4-5.5c-4.7,1.1-9.4,2.5-13.5,5.3c-2.1,1.4-2.1,5.2,0.4,6.2
	c1.4,1.1,3.1,0.2,4.5-0.4c11.4-5.6,24.7-5.8,37-4c8.7,1.4,17.3,4.2,25,8.6c0.3,1.2,0.7,2.5,1,3.8c-16.4-2-34,0.6-48,9.8
	c-2.1,1.5-5.1,3.2-4.5,6.2c0.2,2.7,3.9,3.8,5.9,2.1c13.7-10.4,32-12.8,48.6-10c0.6,2.8,1.2,5.6,1.8,8.4c-6.4,5.3-15.4,7.1-23.4,5
	c-1.8-0.6-4.2-0.2-4.9,1.7c-1.5,2.4,0.8,5.1,3.2,5.7c8.8,2.7,18.5,0.6,26.4-3.8c1.7,10.1,0.1,20.5-3.9,29.9
	c-6,17.6-18.4,33.3-35.1,41.8c-9.9,4.7-22.1,6.9-32.3,1.9c-4.4-1.9-8.1-5.5-9.6-10.2c-3.2-9-2.5-19.5-8.7-27.4
	c-3.2-5-10-7.6-11.2-13.9c-0.9-6.2,0.1-13-3.3-18.7c-4.6-7.8-11.7-13.8-16.4-21.5c-5.8-8.8-8.5-19.9-5.9-30.3
	C278.4,271.2,288.2,261.3,300,257z"/>
<path class="st1" d="M421.7,259.6c1.3-2.7,3.1-5.8,6.3-6.2c3.3-0.4,6.1,2.1,8.1,4.5c3.8,4.9,5.6,11,7.4,16.9
	c4.5,16.2,6.4,33.3,4.7,50.1c-0.7,4-0.9,9-4.5,11.7c-4,2-8.7-0.3-11.2-3.7c1.4-14.9-1.4-30-6.5-44c-0.9-2.2-1.9-5.5-4.9-5.1
	c-2.5,0.4-3.3,3.3-2.2,5.4c4.8,12,7.4,24.9,7.2,37.9c-0.4,4.8-0.4,10.3-3.9,14c-2.9,3.1-8.9,2.4-10.5-1.6c-3.4-8.8-3.1-18.5-5-27.6
	c-2.8-13.8-7.8-27.1-13.4-39.9c-1.2-3-2.4-6.5-1.1-9.7c0.9-2.4,3.6-3.3,5.9-3.6c5.8-0.4,11.4,3,14.5,7.8c1,1.8,3,3.2,5.1,2.3
	C420.9,266.9,420.3,262.6,421.7,259.6z"/>
</svg>
