<svg version="1.1" xmlns="http://www.w3.org/2000/svg" xmlns:xlink="http://www.w3.org/1999/xlink" x="0px" y="0px" viewBox="0 0 1000 1000" style="enable-background:new 0 0 1000 1000;" xml:space="preserve">
<style type="text/css">
	.st0{fill:#FFD400;}
	.st1{fill:#FFFFFF;}
	.st2{fill:#464B4B;}
	.st3{fill:#FF002C;}
	.st4{fill:#000000;}
</style>
<path class="st4" d="M381.5,444.5c34.8-38.3,86.5-61.4,138.5-59.4c21.1,0.6,41.8,5.6,61.3,13.6c12.7,5.2,24.8,12.1,35.7,20.5
	c11.7,9.2,21.5,20.7,29.8,33.1c8.5,13.3,15.6,27.6,19.9,42.8c6.3,20.6,9.2,42.2,9.1,63.8c-0.2,24.3-3.5,48.8-12.2,71.6
	c-6,14.8-13.1,29.4-23.1,41.9c-9.1,11.5-19.5,22.2-32,29.9c-2.6,1.8-6.5,1.1-8-1.8c-1.7-2.7,0-6.2,2.5-7.7c6-4,11.6-8.4,16.6-13.6
	c2.4-2.6,5.2-5.1,6.3-8.6c-10.8,2.5-21.5,5.7-32.5,7.4c-38.7,6.6-78.3,7.5-117.4,3.7c-17.4-2-34.8-5.3-51.9-8.9
	c-11.6-2.7-23.2-5.5-34.3-9.7c-1.7-0.7-3.5-1-5.4-1.1c0.2,1.7,0.7,3.4,1.6,4.9c8.3,13.5,20.9,23.4,33.5,32.6
	c3.4,2.1,3.3,8.1-0.7,9.5c-3.1,1.5-6.1-0.8-8.7-2.3c-21.7-14-38.8-34.5-51-57.1C349,631,343.3,610.1,340.8,589
	c-2.6-20.2-1.8-40.7,1.4-60.7C347.1,497.4,360.4,467.6,381.5,444.5 M506.6,396.8c-37.9,1.8-74.8,17.4-103.1,42.5
	c-6.3,5.9-13.5,12.5-14.1,21.6c-0.3,5.8,4.4,10.4,9.8,11.7C448.8,485,500,489,551,489.5c24,0.1,48-1.4,71.9-3.6
	c5.7-0.9,12-0.7,16.9-4.1c4.2-3,3.6-9.1,1.6-13.2c-7-14.7-17.1-27.9-29.6-38.4c-14.7-12.4-32.5-20.8-50.8-26.4
	C543.5,398.4,525,395.9,506.6,396.8"/>
<path class="st0" d="M374.4,483.6c4.1-1.3,8.4-0.3,12.6,0.4c11.9,2.4,23.8,5.2,35.8,7.3c18,3.1,36.1,5.8,54.3,7.8
	c29.6,2.5,59.3,4.6,89,3.3c21.1-0.1,42.2-1.5,63-4.4c6-0.6,11.9-2,18-2.3c3.9-0.4,7.1,2.4,8.5,5.8c2.8,6.2,3.7,13.1,4.9,19.7
	c1.6,11.9,3.4,23.8,3.5,35.8c0.2,19.2-1.1,38.7-6.7,57.1c-3.3,10.8-7.1,21.9-14.1,31c-6.3,7.1-15.9,9.8-24.7,12.6
	c-22.4,6.1-45.3,10.2-68.4,11.7c-25.9,1.1-52,1.2-77.8-2c-29.5-3.9-59.2-9.4-86.3-22.2c-9.7-4.5-19.4-10.9-24.4-20.7
	c-5.7-11.2-7.7-23.8-9.3-36.1c-3.1-30.6-0.5-62.2,10.9-91C365.6,491.9,368.4,485.6,374.4,483.6"/>
<path class="st4" d="M430.5,510.6c8.7-1.5,17.9,0.8,25.1,5.8c10.3,7.1,16.7,18.8,19.3,30.8c3.1,14.8,1,30.8-6.8,43.8
	c-4.9,8.3-12.5,15.3-21.7,18.5c-9.1,3.2-19.6,2-27.9-3c-10.8-6.4-17.8-17.9-20.9-29.9c-4.3-17.1-1.4-36.3,9.3-50.6
	C412.6,518.3,421.1,512.5,430.5,510.6"/>
<path class="st4" d="M609.5,523.7c6.7-2.1,14.2-1.1,20.3,2.5c8.6,5,14.1,14.1,16.4,23.6c3.5,14.8-0.4,32-12,42.4c-6.4,5.8-15.6,8.6-24,6.4
	c-8.8-2.2-15.9-8.9-19.9-16.9c-7.6-15.1-6-34.6,4.5-48C598.5,529,603.6,525.2,609.5,523.7"/>
<path class="st4" d="M507,594c9.5-10.2,24.9-14.4,38.2-10.1c11,3.5,21.3,10.5,27.4,20.5c1.2,2,2.6,4.3,1.6,6.7c-1,3-5.1,4.2-7.5,2.1
	c-2.1-2-3.3-4.6-4.9-6.9c-3.2,3.6-6.3,7.2-9.4,10.8c3.3,5.3,5.2,11.8,3.7,18c-1.9,9.8-9.9,17.8-19.4,20.4
	c-11.8,3.8-25.5-0.4-33.5-9.8c-6.5-7.5-9.7-18-8-27.8C496.6,609,500.9,600.6,507,594"/>
<path class="st1" d="M435.7,521.8c6.9-0.3,13.5,3.3,18.1,8.3c7.2,7.8,10.5,18.4,10.8,28.9c0.2,10.7-2.6,21.9-9.4,30.4
	c-4.2,5.3-10.4,9.6-17.3,10.2c-7.4,0.9-14.7-2.6-19.6-7.9c-8.1-8.6-11.4-20.9-11-32.6c0.4-11.8,4.8-24,14.1-31.6
	C425.4,524,430.5,522.1,435.7,521.8z"/>
<path class="st1" d="M612.4,532.6c7.1-2,14.6,1.4,18.8,7.1c8.2,10.7,8.7,26.3,2.5,38c-3.3,6.2-9.4,11.7-16.7,12.1
	c-6.6,0.5-12.7-3.6-16.3-8.9c-6-8.7-7.2-20.1-4.4-30.2C598.8,542.9,604.3,535.3,612.4,532.6z"/>
<path class="st2" d="M528,593c8.6-2.2,17.5,0.7,24.8,5.3c-2.9,3.5-6,7-9,10.4c-9.9-6-22.3-7-33.2-3.2
	C514.7,599.4,520.8,594.6,528,593z"/>
<path class="st3" d="M517.4,614.6c5-1.8,10.5-1.2,15.6,0.2c6.7,2.1,13.2,7.7,13.5,15.2c0.4,7.6-5.7,14.1-12.8,15.9
	c-10.8,3.5-24.5-3.2-26.4-14.8C505.7,624,510.3,616.3,517.4,614.6z"/>
</svg>
