<svg version="1.1" xmlns="http://www.w3.org/2000/svg" xmlns:xlink="http://www.w3.org/1999/xlink" x="0px" y="0px" viewBox="0 0 1000 1000" style="enable-background:new 0 0 1000 1000;" xml:space="preserve">
<style type="text/css">
	.st0{fill:#EDEDED;}
	.st1{fill:#000000;}
</style>
<path class="st1" d="M371.2,470.2c4.2-1,8.7-0.6,12.9,0c24,4.5,47.8,10.2,72.1,13.3c38.7,4.8,77.7,6.7,116.7,5.8c21.7-1.1,43.6-2,65.1-5.4
		c6.4-0.7,13.1-2.7,19.3-0.1c4.8,2.1,6.9,7.5,8.7,12.1c7.7,21.1,9.8,43.8,9.6,66.1c-0.6,27.8-5.2,55.9-17.7,81
		c-2.8,5.7-5.8,11.3-10.1,16.1c-4.4,4.8-10.4,7.5-16.4,9.6c-19.9,6.8-40.7,10.5-61.6,12.8c-23.2,2.7-46.6,3.3-69.9,2.1
		c-24.3-0.6-48.2-4.9-72-9.7c-22.2-5-45.2-10.5-64.1-23.7c-5.5-4.1-9.3-10-11.9-16.2c-7.7-19-10.5-39.6-11.1-60
		c-0.6-20.4,0.4-40.9,5.1-60.8c2.7-10.9,5.7-21.9,11.4-31.7C360.4,476.2,365,471.4,371.2,470.2"/>
<path class="st0" d="M374.4,483.6c5.1-1.5,10.4,0.1,15.5,1c20.2,4.4,40.5,8.4,60.9,11.1c24.9,4.1,50.1,5.4,75.3,6.7
		c21.3,0.8,42.6,0,63.9-0.7c16-0.8,31.9-2.7,47.8-4.9c4-0.5,8.2-1.8,12.2-0.8c4.1,1.4,5.9,5.9,7.1,9.6c2.8,9.6,3.8,19.6,5.1,29.5
		c2.3,16.8,2.1,34,0.4,50.9c-1.2,12.4-4,24.6-8.2,36.3c-2.6,7.6-5.9,15-10.6,21.6c-2.6,3.4-6.2,6-10,7.8c-7.1,3.5-14.7,5.6-22.3,7.6
		c-23.1,5.7-46.7,9.6-70.5,10.3c-24.4,0.5-48.9,0.5-73.2-3c-29.5-4.1-59.3-10-86-23.7c-9.1-4.6-17.4-11.9-21.1-21.7
		c-3.7-10-5.1-20.7-6.2-31.2c-2.1-24.8-3.1-50.1,3.2-74.4c2.3-8.3,3.9-17,8.4-24.5C368.1,488,370.6,484.7,374.4,483.6"/>
<path class="st1" d="M421.4,518.5c3.8-4.4,11-5.1,15.6-1.7c2.7,1.8,4.3,4.8,5.4,7.8c3.6,9.1,7.3,18.2,10.9,27.3c5.5-8.1,10.7-16.3,16.3-24.3
	c3.8-5.4,12.2-7,17.4-2.6c5.2,3.9,5.9,11.9,2.1,17c-8.2,12.4-16.4,24.8-24.8,37.1c5.8,15.3,12.1,30.4,18,45.6
	c1.8,4.6,0.9,10.3-2.8,13.7c-3.6,3.5-9.5,4.3-13.9,1.8c-3.1-1.6-5.1-4.6-6.3-7.8c-3.8-9.5-7.6-19.1-11.4-28.6
	c-5.1,7.6-10.1,15.3-15.3,22.8c-3.3,4.8-10.2,6.9-15.4,4.1c-6.3-2.9-8.5-11.5-4.7-17.3c8-12.4,16.4-24.6,24.5-37
	c-5.9-14.9-11.9-29.8-17.8-44.7C417.4,527.4,418.1,522,421.4,518.5z"/>
<path class="st1" d="M586,535c4.6-3.5,11.9-1.9,14.8,3.1c3.3,6,5.8,12.4,8.8,18.5c2.4-5.6,5-11.1,7.5-16.7c1.7-3.8,5.5-6.9,9.8-6.8
	c5.4-0.3,10.1,4.5,10.3,9.7c0.1,3.4-1.6,6.5-2.9,9.6c-4.4,9.7-8.9,19.4-13.2,29.2c4.7,10.2,9.5,20.4,14.2,30.7
	c2.3,4.8,0.7,11.2-4.1,13.8c-4.8,3-11.7,0.8-14.3-4.2c-2.6-5-4.9-10.2-7.2-15.3c-3.6,7.8-7,15.6-10.7,23.4
	c-2.2,4.6-7.9,7.3-12.8,5.4c-5.6-1.8-8.5-8.7-6-14c5.8-13.3,12-26.4,17.9-39.7c-5-11.2-10.4-22.3-15.4-33.5
	C580.6,543.8,581.8,537.9,586,535z"/>
</svg>
