<svg version="1.1" xmlns="http://www.w3.org/2000/svg" xmlns:xlink="http://www.w3.org/1999/xlink" x="0px" y="0px" viewBox="0 0 1000 1000" style="enable-background:new 0 0 1000 1000;" xml:space="preserve">
<style type="text/css">
	.st0{fill:#00A900;}
	.st1{fill:#FFD400;}
	.st2{fill:#000000;}
</style>
<path class="st2" d="M484,387.7c32.9-6.2,67.3-1.7,98,11.3c17.8,7.5,34.6,18,47.9,32.1c10.4,11,19.2,23.7,26,37.2c7.5,14.1,12,29.5,15.4,45.1
	c5,24.2,5.6,49.2,2.7,73.7c-2.3,18.6-6.9,37-15,53.9c-5.4,12-12,23.5-20.3,33.6c-8.7,10.6-18.5,20.6-30.3,27.9c-2.6,1.8-6.5,1-8-1.8
	c-1.7-2.7,0-6.1,2.5-7.6c5.9-4,11.6-8.4,16.6-13.5c2.5-2.6,5.2-5.1,6.3-8.7c-10.8,2.5-21.5,5.7-32.5,7.4c-24.6,4-49.4,6.2-74.3,5.9
	c-20.6-0.4-41.3-1.2-61.6-4.8c-20.6-3.5-41.2-7.3-61.1-13.7c-4-1.1-7.7-3.3-11.9-3.4c0.6,4.7,3.9,8.3,6.6,11.9
	c8,10.2,18.3,18,28.6,25.6c3.5,2.1,3.2,8.1-0.7,9.5c-3.9,1.6-7.3-1.7-10.4-3.5c-25.9-17.6-45.5-43.9-57.1-72.9
	c-12.8-34.2-14.9-71.9-8.6-107.7c5.7-32.2,20.8-63,44.1-86.1C413.1,412.6,447.3,394.1,484,387.7 M495.5,397.8
	c-33.3,3.9-65.1,18.4-90.5,40.2c-6.2,5.7-13.1,11.6-15.2,20.1c-1.4,4.8,0.8,10.5,5.2,12.9c5.6,3,12,3.5,18.1,5
	c36.1,7.9,73,11.5,109.8,12.9c22,0.8,44.1,1.1,66.2-0.4c14.6-1,29.3-1.5,43.8-3.9c3.9-0.7,8.6-2.4,9.8-6.7c1.6-6-2.4-11.5-5-16.5
	c-9.5-16.8-23.3-31-39.8-41.2C567.4,401.9,530.8,393.5,495.5,397.8"/>
<path class="st0" d="M374.3,483.4c6-1.5,12,0.4,17.9,1.5c19.6,4.4,39.4,8.1,59.3,10.7c25,4.1,50.4,5.3,75.7,6.7
	c14.2,0.4,28.5,0.3,42.7-0.2c24.5-0.1,48.9-2.5,73.1-6.3c3-0.4,6.4-0.9,9.1,1c3.1,2.2,4.4,6,5.4,9.5c2.2,7.8,3.2,15.9,4.2,24
	c3.5,23.7,3.1,48-1.3,71.5c-3.3,14.2-7.4,28.7-15.6,41c-4.5,7-12.6,10.2-20.2,12.9c-14.8,4.8-30.2,7.8-45.5,10.4
	c-21.5,3.6-43.4,4.2-65.1,3.9c-25.9,0-51.8-3.2-77.2-8.5c-17.8-3.6-35.3-8.9-51.7-16.7c-9.2-4.4-18.3-10.5-23.3-19.7
	c-5.4-10-7.5-21.5-9.2-32.7c-3.9-32-1.5-65.3,10.4-95.4C365.5,491.7,368.4,485.4,374.3,483.4"/>
<path class="st2" d="M445.4,513.7c8.8-2,17.9,1.7,24.4,7.4c9.6,8.3,15.1,20.3,18.6,32.3c5.2,19,5.2,39.5-0.7,58.3c-3.6,11-9.8,21.9-19.9,28.2
	c-7.2,4.5-16.7,5.2-24.5,1.7c-9.5-4.3-16.2-12.9-20.9-21.9c-8.9-17.8-11.3-38.5-8.8-58.1c1.9-13.9,6.4-28.2,16.3-38.6
	C434.1,518.5,439.4,515,445.4,513.7"/>
<path class="st2" d="M609.4,527.6c8.8-1.5,17.1,3.8,22.6,10.3c7.8,9.5,10.8,22.1,11.5,34.2c0.7,15.6-2.2,31.8-10,45.5
	c-4.9,8.4-12.5,16.1-22.5,17.5c-8.8,1.4-17.4-3.7-22.3-10.8c-7.8-11-10.2-25-10.7-38.2c0-15.8,3.4-32.3,12.7-45.3
	C595.1,534.3,601.6,528.8,609.4,527.6"/>
<path class="st1" d="M440.4,534.7c7.2-1.7,14.1,3.1,18.3,8.7c8.7,11.6,11.5,26.5,12,40.7c-0.1,11.8-1.9,24.1-8.4,34.2
	c-3.5,5.3-9.5,9.9-16.2,9c-7.6-1-13-7.2-16.6-13.5c-6.9-12.3-9.2-26.7-8.7-40.6c0.6-11.1,2.7-22.8,9.8-31.7
	C433,538.2,436.4,535.5,440.4,534.7z"/>
<path class="st1" d="M600.3,547.5c5-1.8,10.3,1,13.4,4.9c5.6,6.9,7.9,16,8.6,24.7c0.5,10.5-0.7,21.3-5.2,30.9
	c-2.5,5.1-6.3,10.3-12.1,11.7c-5,1.2-9.9-1.9-13-5.6c-4.9-6.2-6.2-14.3-7.5-21.9c-1-11.4-0.2-23.3,4.9-33.7
	C591.8,553.8,595.2,549.2,600.3,547.5z"/>
</svg>
