<svg version="1.1" xmlns="http://www.w3.org/2000/svg" xmlns:xlink="http://www.w3.org/1999/xlink" x="0px" y="0px" viewBox="0 0 1000 1000" style="enable-background:new 0 0 1000 1000;" xml:space="preserve">
<style type="text/css">
	.st0{fill:#000000;}
	.st1{fill:#00A28A;}
	.st2{fill:#FFD400;}
	.st3{fill:#FF3CAE;}
	.st4{fill:#6089FF;}
</style>
<path class="st0" d="M594.2,269c-0.7-10.1-2.9-20-3.5-30c-0.2-9,0.5-18-0.1-27c-0.4-10.4-2.6-20.6-4.8-30.7c-3.3-14.5-2-29.5-4-44.2
	c-2-16-5.7-32.2-13.4-46.6c-2-3.9-6.3-8.6-11.1-6c-4,2.7-6.5,6.9-9.2,10.8c-8.7,13.7-16.2,28.2-21.5,43.5
	c-5.5,15.3-8.8,31.1-12.3,46.9c-2.5,11.4-7.5,22-12,32.8c-5,11.9-8,24.6-9.5,37.4c-1,8.4-2,16.8-4.4,24.9
	c-3.9,13.2-9.3,26.4-9.6,40.3c0,14,8.5,26.5,19.1,35.1c16,13.2,37.5,18.8,58,17.1c10.4-1.3,21.7-5.1,27.8-14.2
	c6.8-9.9,7.7-22.3,7.9-33.9c0.3-7.6-1.4-15.3,0.1-22.9C593.8,291.2,595.1,280.1,594.2,269z"/>
<path class="st1" d="M552.4,119.3c2.1-3.5,3.7-7.7,7.5-9.8c3.4,4.6,4.6,10.2,6,15.6c2.8,11.7,4.9,23.7,4.8,35.8
		c-0.2,6.6-0.8,14-5.7,19c-5.4,5.6-13.2,7.7-20.2,10.5c-4.8,1.6-9.6,4-14.7,4.2c-3-0.1-2.9-3.7-2.3-5.8
		C533.5,165,540.5,141.1,552.4,119.3z"/>
<path class="st2" d="M566.5,187.7c1.6-0.7,3.9-0.9,5.1,0.7c2.3,2.7,2.8,6.4,3.6,9.7c2.4,11.4,4.4,23.4,1.7,34.9
		c-3.2,12.2-13.7,20.7-24.2,26.6c-10,5.5-21.2,7.9-31.5,12.6c-4,1.6-7.8,4-12.1,4.9c-1.9,0.5-3.7-1.3-3.8-3.1
		c-0.8-6.9,0.8-13.7,2-20.4c3-15.1,7.4-30.3,16-43.3c5-7.5,13.4-11.6,21.8-13.9C552.6,194.3,559.6,191.1,566.5,187.7z"/>
<path class="st3" d="M572.4,252.4c1.9-1.4,5-1.2,6.1,1.1c2,3.8,1.6,8.3,1.8,12.4c0.2,10,0.2,20.1-1.2,30.1
		c-1.2,8.4-6.3,16-13.3,20.7c-11.9,9-27.4,11.5-39,21c-4.3,3-7.7,7.5-12.8,9.3c-4.7,1.2-8.6-2.4-11.7-5.4
		c-7.2-7.1-11-17.5-10.3-27.6c1-11.8,7.4-23.3,17.6-29.5c11-6.8,23.9-9.3,35.7-14.3c9-3.6,17.6-8.6,24.4-15.6
		C570.5,253.8,571.4,253,572.4,252.4z"/>
<path class="st4" d="M573.4,318.3c2.5-2,4.5,1.4,4.3,3.7c0.2,9.6,0.7,20.8-6.4,28.2c-7.5,7.8-19.1,9-29.3,8.7
		c-5.5-0.5-11.4-0.7-16.2-3.7c-3.6-2.7-1.8-7.8,1.1-10.3c11-10.4,26.6-13,39-21C568.5,322.2,570.7,320,573.4,318.3z"/>
</svg>
