<svg version="1.1" xmlns="http://www.w3.org/2000/svg" xmlns:xlink="http://www.w3.org/1999/xlink" x="0px" y="0px" viewBox="0 0 1000 1000" style="enable-background:new 0 0 1000 1000;" xml:space="preserve">
<style type="text/css">
	.st0{fill:#EDEDED;}
	.st1{fill:#FF5400;}
</style>
<path class="st0" d="M717,920.1c-1.6-26.2-3.2-52.4-8.1-78.2c-5.1-26.6-14.4-53.1-31.1-74.7c-20.2-26.7-50.9-44-83.2-51.5
	c-24.1-5.2-48.9-6.3-73.5-4.6c-43.6,3.2-87,8.4-130,16.5c-21.1,4.2-42.2,9-62.7,16c-12.4,4.2-24.4,10-34.6,18.2
	c-12.9,10.1-22.6,23.8-29.6,38.5c-9,18.9-14.4,39.3-17.5,59.8c-5.8,37.7-5.3,75.9-7.1,113.9c-0.4,8.6-0.8,17.3-0.8,26h23.4h99.3
	h13.3h246.7h13.4h64.8h19.1C719.1,973.3,718.6,946.7,717,920.1z"/>
<path class="st1" d="M407.5,744.7c41.5-6.8,83.4-11.8,125.5-13.5c18.1-0.4,36.2-0.2,54.1,2.9c14.3,2.4,28.4,6.8,41,13.9
	c14.7,8.3,27.6,20.1,37.1,34.1c10.6,15.6,17.7,33.4,22.1,51.7c5.9,24.3,8.1,49.3,9.6,74.3c1.8,30.7,2.7,61.3,2.7,92h-64.8
	c-0.3-30.7,0.9-61.7-5.3-91.9c-4.5-20.5-13.2-41.2-29.5-55c-3.2-3-9.4-1.5-10.4,3c-1,4.2,2.3,7.6,4.7,10.7c9.6,11.3,16,25,19.8,39.3
	c3.9,14.7,5.2,29.9,6.1,45c0.7,16.3,1.2,32.7,1.1,49H374.7c-0.1-16.3-0.7-32.7-0.5-49c0.1-19.6,0.3-39.8,7.8-58.2
	c3.6-9,8.9-17.3,15.2-24.7c2.3-3.1,5.8-6.9,3.8-11c-1.5-3.7-6.7-4.4-9.5-1.7c-10.2,9.3-17.8,21.2-22.8,33.9
	c-6.6,17-7.7,35.5-8.2,53.6c-0.2,19,0.1,38,0.9,57h-99.3c-0.7-6.3-0.6-12.7-1-19c-0.3-33-0.8-66.2,3.3-99.1
	c2.3-18.9,5.8-37.9,12.7-55.7c7.1-17.7,18-34.1,32.6-46.4c9.3-8,20.1-14.1,31.4-18.6C362.3,752.4,385,748.5,407.5,744.7z"/>
</svg>
