<svg version="1.1" xmlns="http://www.w3.org/2000/svg" xmlns:xlink="http://www.w3.org/1999/xlink" x="0px" y="0px" viewBox="0 0 1000 1000" style="enable-background:new 0 0 1000 1000;" xml:space="preserve">
<style type="text/css">
	.st0{fill:#FFD400;}
</style>
<path class="st0" d="M434.1,678.8c26.1-1.7,52.3-0.5,78.1,3.6c20.7,3.3,41.4,8.5,60.6,17c13.5,6.2,26.9,13.8,36.2,25.7
	c6.7,8.3,10.8,19.3,8.8,30c-1.6,10.3-8.1,19.2-15.8,25.9c-10.6,9.1-23.5,15.1-36.6,19.6c-13.8,4.8-28.1,7.8-42.5,10
	c1.6,5.8,3.3,11.6,4.9,17.4c8.2,2.8,16.2,8,20,16.1c4.1,8.2,2.5,18.2-2.7,25.6c6.5,2.2,12.7,5.9,16.4,11.8
	c3.6,5.4,4.4,12.5,2.4,18.6c-2.1,7-7.1,12.6-12.5,17.3c1.5,6.6,4,13,5,19.7c0,5.2-7.6,7.1-10,2.4c-2.2-5.1-3-10.6-4.7-15.8
	c-2.6,1.4-5.3,2.6-8,3.8c1.4,4.9,3,9.7,4.1,14.7c0.7,3-1.6,6.3-4.8,6.5c-2.6,0.2-4.9-1.7-5.6-4c-1.5-4.6-2.7-9.3-4.1-13.9
	c-4,0.8-8.1,1.9-12.3,1.8c-4.6,0.1-8.9-3.9-8.8-8.5c-0.2-3.7,2.3-7.1,5.7-8.4c2.2-0.8,4.5-1,6.7-1.3c-6.5-22.9-13-45.7-19.5-68.6
	c-3.9,1.5-8.4,3.9-12.4,1.5c-5.4-2.6-6.2-10.6-1.6-14.3c4.2-3.3,9.7-4.5,14.8-5.9c-1.2-4.5-2.4-9-3.6-13.5c-23,1.2-46.2,0.1-69-3.2
	c-21.7-3.2-43.2-8.3-63.4-17c-13-5.8-25.8-13-35.4-23.7c-7.3-8-12.2-18.7-11.3-29.7c0.8-10.9,7.1-20.7,15.1-27.9
	c10.7-9.5,23.9-15.8,37.4-20.5C387.5,684,410.8,680.3,434.1,678.8 M431.6,701.8c-18.8,1.5-37.6,4.5-55.6,10.3
	c-11.7,3.9-23.4,8.8-32.7,17.1c-4.6,4.1-8.9,10.2-7,16.6c2.2,7,8.1,12,13.8,16.2c13.1,9.2,28.4,14.7,43.7,19
	c29.4,8,59.9,10.7,90.3,10c22.3-0.7,44.7-3.3,66.2-9.5c13-3.9,26.2-8.9,36.7-17.7c4.6-4,9.2-9.4,8.4-15.9
	c-1.1-6.2-5.7-11.1-10.4-14.9c-7.1-6-15.5-10.3-24-14c-16.8-7.1-34.7-11.4-52.7-14.2C482.9,700.9,457.1,700,431.6,701.8
	 M503.2,812.8c1.1,4.2,2.3,8.4,3.4,12.7c3-0.1,6.1,0,9.2,0.1c-1.3-4.5-2.6-9-3.8-13.5C509,812.3,506.1,812.6,503.2,812.8
	 M512.8,843.3c2.4,8.1,4.6,16.3,7,24.4c4.9-2.3,9.8-5.7,12-10.9c1.3-2.9-0.1-6.2-2.5-8.1C524.7,845,518.6,843.7,512.8,843.3
	 M524.7,885c2.3,7.9,4.5,15.9,6.8,23.9c5.6-2.9,11.2-6.5,14.5-12.1c1.4-2.2,1.6-5.5-0.7-7.1C539.6,885.2,531.8,884.8,524.7,885z"/>
</svg>
