<svg version="1.1" xmlns="http://www.w3.org/2000/svg" xmlns:xlink="http://www.w3.org/1999/xlink" x="0px" y="0px" viewBox="0 0 1000 1000" style="enable-background:new 0 0 1000 1000;" xml:space="preserve">
<style type="text/css">
	.st0{fill:#000000;}
	.st1{fill:#EDEDED;}
</style>
<path class="st0" d="M659.8,223c-0.2-6.1-2.4-12-5.8-17c-5.7-8.3-14.1-14.3-22.7-19.3c-15.9-9.1-33.8-14.1-51.7-17.5
	c-24-4-48.8-4.6-72.9-0.7c-11.6,2.1-23.8,4.9-33.2,12.3c-7.6,6-11,16.3-9,25.7c-29.6,8.8-60.8,8.1-91.4,9.3
	c-4.3,0.4-9.6,1.5-11.5,5.9c-1.8,4.9,1.1,9.9,3.8,13.9c5.9,8.2,13.8,16,14.9,26.5c1.4,8.6-4.6,16.4-3.5,24.9
	c0.9,6.9,5.8,12.2,9,18.1c3.6,6.5,4.8,14.2,3.4,21.5c-1.8,7.7-5.7,14.5-9.4,21.4c-1.9,3.6-3.4,7.8-2.5,11.9c0.8,3.8,4.2,6.7,7.9,7.7
	c5,1.5,10.2,0.4,15-1.2c9.3-3.1,18-7.9,26.7-12.4c14.9-7.6,30.3-14.7,46.9-17.5c10.4,13.9,26.6,22.1,43.3,25.7
	c25.2,5.5,51.6,7.2,77,1.8c11.6-2.7,23.5-5.7,33.7-12c8-4.8,13.1-13.3,16.2-21.9c3.1-9.4,4.2-19.4,6.1-29.1
	c2.7-13.9,3.5-28.1,5.6-42.2C657.4,246.9,660.4,235,659.8,223z"/>
<path class="st1" d="M516.5,181.9c23.8-2.1,48,0.8,71,6.9c15.8,4.3,31.6,10.1,44.9,19.8c4.5,3.6,9.4,7.8,10.6,13.7
	c0.9,4.9-3.5,8.4-7.4,10.3c-15,7.5-32.2,7.9-48.6,7.7c-20-0.8-40-4.2-59.1-10.4c-11.2-3.7-22.2-8.2-32-14.8
	c-5.4-3.8-11.1-8.1-13.3-14.6c-1.4-4.4,1.8-8.5,5.4-10.7C496.5,184.6,506.7,183,516.5,181.9 M534.4,195.6c-4,0.9-7.8,4.6-6.9,8.9
	c1.2,5.4,6.7,7.9,11.3,9.9c8.7,3.4,17.9,5.5,27.1,6.6c6.4,0.7,13.1,1.3,19.3-0.9c3.4-1.2,6.2-4.9,5.3-8.6c-1.2-4.7-5.9-7.1-10-9
	c-9.6-4.2-20-6.4-30.4-7.6C544.9,194.6,539.5,194.2,534.4,195.6z"/>
<path class="st1" d="M483.4,233.9c-0.4-4.1-1.6-8.4,0.4-12.2c2,0,4,0.5,5.7,1.8c9.8,6.7,20.7,11.4,31.9,15.4
	c0.7,7.4,0.4,14.9,1.7,22.1c1.2,4.1,7.7,3.2,8-0.9c0.1-6.2-0.7-12.3-0.9-18.5c31.9,9.2,66,12.3,98.8,5.8c2.4-0.3,5.3-1.6,7.5,0.1
	c2.2,3.1,0.8,7.1,0.5,10.5c-2.9,18.1-4.4,36.4-6.7,54.6c-1.1,6.9-2.1,14.3-6.7,19.8c-5,5.9-12.3,9.1-19.4,11.8
	c-23.8,8.6-49.8,9.7-74.5,4.9c0.4-7.1,1.2-14.2,1.5-21.3c0.3-3.1-3.4-5.8-6.1-4.1c-2.3,1-2.4,3.9-2.7,6c-0.4,5.8-0.9,11.6-1.3,17.4
	c-9.9-2.8-19.9-6.1-28.1-12.3c-3.6-2.7-6.9-6.4-7.5-11c-0.7-6.1,0.1-12.1,0.4-18.2C487.8,281.9,486.4,257.8,483.4,233.9 M526.1,276
	c-2.6,0.6-3.5,3.6-3.3,5.9c0.1,8.3,0.3,16.6,0.6,24.9c0.3,4.8,8.1,4.7,8.3-0.1c0.3-8.6,0-17.2-0.2-25.8
	C531.7,278.1,529.1,275,526.1,276z"/>
<path class="st1" d="M462.4,224.7c2.4-0.4,4.9-1.4,7.4-0.6c1.3,0.9,1.8,2.5,2.1,4c4.2,29.1,5.6,58.6,2.6,87.9
	c-0.2,3-3.2,4.5-5.9,4.8c-19.6,3.6-38.7,10.1-56.1,19.8c-3.4,1.6-7.1,4.7-11.1,3.2c-1.5-3.9,1.1-8.1,1.5-12
	c2.4-11.1,3.5-23.1-0.8-33.8c-2.2-6-7.5-11-7.3-17.7c-0.4-7.8,5.1-14.4,4.6-22.2c-0.1-8.3-5.5-14.9-10.1-21.3
	c-1.9-3.4,2.9-5.4,5.6-5.3C417.5,231.5,440.3,229.8,462.4,224.7z"/>
</svg>
