<svg version="1.1" xmlns="http://www.w3.org/2000/svg" xmlns:xlink="http://www.w3.org/1999/xlink" x="0px" y="0px" viewBox="0 0 1000 1000" style="enable-background:new 0 0 1000 1000;" xml:space="preserve">
<style type="text/css">
	.st0{fill:#000000;}
	.st1{fill:#EDEDED;}
</style>
<path class="st0" d="M426.3,454.3c24.6-0.4,49.1-0.4,73.7,0.1c31,0.5,62,1.9,93,2.3c13.8,0.3,27.8,0.1,41.5,2.7
	c9.4,1.4,19.1,4.3,26.3,10.8c6.6,6,11,14.1,13.4,22.6c3.8,12.1,4.5,24.9,6.2,37.4c3.3,26.8,4.8,53.9,5.8,80.9
	c0.4,20.3,2.3,40.8-1.3,60.9c-1.7,10.3-7.5,20-16.5,25.4c-14.6,8.9-32.2,10-48.8,11c-43.2,1.7-86.4-0.3-129.6,0.5
	c-19.3,0.2-38.7,1.1-58,1.1c-16.1,0-32.4,0.2-48.4-2.3c-10.4-1.7-21.1-5.8-27.7-14.4c-7.4-9.4-9.2-21.7-9.9-33.2
	c-1.6-30.4-0.6-60.8,1.9-91.1c2.1-23.2,2.3-46.7,7-69.6c2.6-12.7,7.9-25.8,19-33.3C389.1,455.4,408.5,455.2,426.3,454.3"/>
<path class="st1" d="M443.4,576.7c11.1-2.6,23.1-0.7,33,4.9c12.2,6.8,21.1,19,24.8,32.4c1.5,4.8-1.4,10.6-6.4,12
	c-4.7,1.5-10.1-1.6-11.6-6.2c-2.2-6.7-5.6-13.2-11-17.9c-6.6-6-16.2-8.8-25-6.5c-10.4,2.4-18.7,10.6-22.7,20.3
	c-1.5,4-3,8.9-7.6,10.3c-6.6,2.7-14-4.1-12.3-10.9C409.6,596.7,424.6,580.8,443.4,576.7z"/>
<path class="st1" d="M596.6,576.8c10.9-2.1,22.5,0.1,32,5.6c12.2,7,21.2,19.1,25.1,32.5c2.1,6.7-4.8,13.9-11.6,11.7
	c-5.3-1.3-6.8-7-8.5-11.4c-4.2-9.3-12.3-17-22.3-19.4c-8.3-2.1-17.3,0.2-23.9,5.6c-5.6,4.4-9.5,10.7-11.6,17.5
	c-1,3.5-3.5,6.7-7.1,7.6c-4.7,1.4-10.1-1.8-11.3-6.5c-1.2-4.5,1-8.9,2.6-13C566.5,591.9,580.2,579.7,596.6,576.8z"/>
</svg>
