<svg version="1.1" xmlns="http://www.w3.org/2000/svg" xmlns:xlink="http://www.w3.org/1999/xlink" x="0px" y="0px" viewBox="0 0 1000 1000" style="enable-background:new 0 0 1000 1000;" xml:space="preserve">
<style type="text/css">
	.st0{fill:#000000;}
	.st1{fill:#EDEDED;}
</style>
<path class="st0" d="M236.2,81.1c5.1-0.8,8.9,3.5,12.8,6.1c73.4,56.6,146.6,113.4,220,170c4.2,3.3,8.8,6.3,12.4,10.4
	c7.7,8.6,9.9,21,8,32.1c-2.5,15.1-10.6,28.7-20,40.6c-17.5,21.6-40.6,38.4-65.7,50.1c-17.7,8-37,13.7-56.6,13.3
	c-12.5-0.4-25.7-3.9-34.7-13.1c-5.2-5.1-8-12.1-9.9-19c-19.4-73.9-38.9-147.7-58.3-221.6c-4.6-17.5-9.3-34.9-13.5-52.5
	c-0.6-3.1-1.5-6.3-1.3-9.5C229.7,84.5,232.9,81.8,236.2,81.1"/>
<path class="st1" d="M256,115.8c4.2,1.4,7.4,4.6,10.9,7.2c60.3,46.7,120.7,93.3,181,140c6.1,4.9,12.6,9.4,17.7,15.4
	c4.6,5.3,7.1,12.6,5.9,19.6c-1.5,10-6.8,18.9-12.5,27c-10.5,14.4-24.1,26.4-38.9,36.3c-14.7,9.7-30.8,17.5-47.9,21.9
	c-10.8,2.7-22.2,4.2-33.2,2.2c-5.9-1.2-12-4-15.2-9.4c-4.3-7-6-15.2-8.3-23c-20.1-76-40-152-60-228C255,122,253.4,118.3,256,115.8"
	/>
<path class="st0" d="M337.3,230.4c2.1-4.3,8.4-4.7,11.5-1.2c2.8,3.5,4.2,7.9,6.4,11.8c9.9,0.1,20.2,4.8,25.3,13.6
	c3.4,5.6,3.7,12.5,2.4,18.8c12,0.4,22.3,10.8,23.3,22.6c0.8,7-2.1,13.9-6.2,19.5c2.1,3.9,4.9,7.4,6.3,11.5c1.6,5-3.2,10.4-8.3,9.1
	c-4.9-1.2-6.6-6.5-9.1-10.2c-1.3,0.9-2.7,1.8-4,2.6c1.9,3.9,4.6,7.4,5.7,11.6c1.3,5.4-4.8,10.6-9.9,8c-4.9-2.6-6.2-8.7-9-13
	c-3.1,1.1-6.3,2.9-9.6,2c-3.8-0.9-6.5-5.3-5.2-9.1c0.6-2.3,2.6-3.7,4.4-5c-10.4-19.2-20.8-38.4-31.1-57.6c-3.5,1.9-6.9,5.2-11.2,4.3
	c-4-0.8-6.7-5.4-5.3-9.3c1.5-4.2,6.2-5.7,9.5-8.1c-2.1-3.2-5.2-6.4-4.8-10.4c0.3-4.1,4.5-7.3,8.6-6.2c4.9,1.2,6.7,6.4,9.6,9.9
	c1.2-0.5,2.5-1,3.7-1.5C338.3,239.9,334.6,235.1,337.3,230.4 M343.5,258.8c4.1,7.6,8.2,15.3,12.4,22.9c5.1-3,11.4-6.3,12.8-12.7
	c1.4-4.8-1.8-9.7-6.2-11.5C356.4,254.4,349.4,256.6,343.5,258.8 M363.2,295c4.1,7.4,8.1,14.7,12.1,22.1c5.4-2.9,11-6.2,14.5-11.5
	c2.7-3.9,2.9-9.6,0-13.4c-2.4-3.3-6.9-4.7-10.9-3.9C373.3,289.4,368.2,292.3,363.2,295z"/>
</svg>
