<svg version="1.1" xmlns="http://www.w3.org/2000/svg" xmlns:xlink="http://www.w3.org/1999/xlink" x="0px" y="0px" viewBox="0 0 1000 1000" style="enable-background:new 0 0 1000 1000;" xml:space="preserve">
<style type="text/css">
	.st0{fill:#000000;}
	.st1{fill:#464B4B;}
	.st2{fill:#FF002C;}
</style>
<path class="st0" d="M493.7,519.3c10.7-1.9,21.5-3.6,32.3-5.5c3.4-0.5,6.6-2.6,7.9-5.8c1.8-3.8,0.4-8.5-2.9-11
	c-2.6-2.1-6.1-2.2-9.2-1.6c-10.8,1.8-21.7,3.7-32.5,5.5c-2.6-10.6-5-21.2-7.7-31.7c-1.1-5.3-7.2-9.2-12.4-7.1
	c-4.7,1.6-7,7.1-5.8,11.7c2.3,10.1,4.9,20.2,7.3,30.3c-11.3,2-22.6,3.8-33.9,5.8c-4.8,0.8-8.8,5.2-8.2,10.1
	c0.4,5.5,6.1,9.4,11.4,8.3c11.8-1.9,23.5-4,35.3-5.9c2.1,8.5,4.1,17,6.2,25.5c0.7,4.4,3.8,8.9,8.6,9.4c6.2,1,11.7-5.4,10.2-11.4
	C498.2,537,495.8,528.2,493.7,519.3z"/>
<path class="st0" d="M699.1,566.9c-2.3-3-6.7-3.5-9.8-1.7c-6.5,3.3-13,6.8-19.5,10.2c-3.2-5-6.1-10.1-9.3-15
	c-2.1-3.3-7-4.4-10.3-2.2c-3.2,2.1-4.2,6.6-2.2,9.9c2.7,4.8,5.8,9.4,8.7,14.2c-5.5,3-11.1,5.7-16.6,8.7c-3.5,1.7-5.7,6.1-3.9,9.8
	c1.6,3.8,6.6,5.6,10.3,3.6c6.1-3,12-6.3,18-9.4c3.3,5.3,6.5,10.6,9.8,15.9c1.4,2.4,3.8,4.5,6.8,4.5c3.7,0.2,7.2-2.8,7.5-6.5
	c0.4-2.6-1.1-5-2.4-7.2c-2.9-4.6-5.7-9.2-8.5-13.7c6.4-3.5,13-6.6,19.3-10.2C700.7,575.8,702,570.2,699.1,566.9z"/>
<path class="st0" d="M569.9,618.1c-9.4-4.5-20.7-5.3-30.5-1.4c-13.8,5.1-23.3,18.7-25.6,33c-2.4,13.8,4.7,28.8,17.2,35.4
	c9.6,5.3,22,5,31.4-0.7c6.8-4.1,11.7-11.3,12.7-19.2c0.8-5.6-1.1-11.3-4-16.1c3.1-3.6,6.2-7.2,9.3-10.8c2.1,2.7,3.2,6.7,6.8,7.8
	c3.8,1.2,7.3-3.5,5.5-6.8C588.2,629.6,579.3,622.6,569.9,618.1z"/>
<path class="st1" d="M546.1,625.1c8.7-2.4,17.8,0.5,25.2,5.2c-2.9,3.5-5.9,7-9,10.3c-9.9-6-22.4-7-33.3-3.1
	C533.1,631.6,539,626.8,546.1,625.1z"/>
<path class="st2" d="M536.5,646.5c8.3-2.3,18.1-0.3,24.2,5.9c2.8,2.8,4.6,6.7,4.3,10.7c0,7.6-6.7,13.7-13.8,15.1
	c-10.5,2.8-23.5-4-25.3-15.2C524.2,655.8,529.2,647.9,536.5,646.5z"/>
</svg>
