<svg version="1.1" xmlns="http://www.w3.org/2000/svg" xmlns:xlink="http://www.w3.org/1999/xlink" x="0px" y="0px" viewBox="0 0 1000 1000" style="enable-background:new 0 0 1000 1000;" xml:space="preserve">
<style type="text/css">
	.st0{fill:#EDEDED;}
	.st1{fill:#000000;}
</style>
<path class="st1" d="M433.8,404.8c35.2-18.3,76.7-24.5,115.6-16c27.5,6.1,54.3,17.7,75.2,37c23.9,22.6,39.5,53.2,46.2,85.3
	c6.1,27.6,6.3,56.2,2.1,84.1c-2.6,15.8-6.9,31.5-13.9,46c-10.2,23.3-26.3,44.2-47,59.2c-2.7,1.9-6.2,4.6-9.6,2.5
	c-3.6-1.8-3.4-7.3,0-9.2c5.9-4,11.6-8.4,16.6-13.5c2.6-2.8,5.6-5.4,6.8-9.1c-11.1,2.6-22,5.9-33.3,7.5c-29.6,4.8-59.7,6.8-89.6,5.3
	c-16.1-0.4-32.1-2-47.9-4.8c-22.1-3.8-44.2-7.9-65.3-15.6c-1.7-0.5-3.5-1.5-5.2-0.8c0,2.1,1.2,4,2.3,5.7c8,12.2,19.3,21.6,31,30
	c2.2,1.5,4.9,3.7,4.3,6.7c-0.3,3.2-3.9,5.4-7,4.4c-3.7-1.5-6.9-3.9-10.2-6.2c-21.9-16-39-38.2-50.3-62.8
	c-9.6-21.1-13.8-44.2-15.1-67.3c-1.2-33.4,4.3-67.8,20.2-97.5C375.9,444.9,403,420.6,433.8,404.8 M506.5,396.8
	c-37.9,1.9-74.7,17.4-103,42.5c-6.3,5.9-13.5,12.5-14.1,21.6c-0.3,5.8,4.4,10.4,9.7,11.7c52.6,13,106.9,16.8,160.9,16.8
	c21.7-0.4,43.4-1.7,65.1-3.9c5.4-0.9,11.6-0.8,15.8-4.7c3.7-4,1.9-10.1-0.4-14.4c-6.9-13.7-16.4-26-28.2-35.9
	c-15.2-13.1-33.8-21.6-52.9-27.3C542.3,398.2,524.3,396,506.5,396.8 M374.4,483.6c-5.5,1.8-8.4,7.4-10.6,12.3
	c-9.4,22.8-12.9,47.6-12.7,72.1c0.4,17.6,2,35.6,8.5,52.1c4,10.6,13.1,18.3,23,23.2c25.7,12.9,54.2,18.8,82.5,22.9
	c27.8,4.1,55.9,4.2,83.9,3c23.5-1.4,46.7-5.6,69.4-11.7c8.7-2.7,18.3-5.4,24.6-12.5c7.1-9.1,10.8-20.2,14.2-31
	c5.6-18.5,6.9-37.9,6.7-57.1c-0.1-12-1.9-23.9-3.5-35.8c-1.1-6.5-2-13-4.6-19.1c-1.3-3.2-4-6.4-7.8-6.4c-6.1,0-12,1.6-18,2.2
	c-21.2,2.9-42.6,4.4-64,4.5c-16,0.6-32,0.6-48-0.4c-22.3-1.3-44.7-2.6-66.8-6.2c-20.9-2.7-41.5-6.8-62.1-11.3
	C384.3,483.6,379.3,482.1,374.4,483.6z"/>
<path class="st0" d="M419,528.1c-2.5-6.3,1.2-14.3,7.9-16c5.9-1.9,12.4,1.7,14.6,7.3c4.1,9.8,7.9,19.7,11.8,29.5
	c5.5-8.1,10.7-16.3,16.3-24.3c3.7-5.2,11.6-7,16.8-3c5.4,3.6,6.7,11.5,3,16.8c-8.3,12.7-16.7,25.2-25.1,37.8
	c5.9,15.2,12.1,30.3,18.1,45.5c2.6,6-0.3,13.7-6.5,16.1c-6.1,2.8-13.6-0.9-16-7c-4.1-9.9-8-19.9-12-29.9c-5.1,7.5-10,15.2-15.2,22.7
	c-3.5,5.3-11.4,7.2-16.7,3.5c-5.7-3.6-7-11.9-3.1-17.3c8-12.1,16-24.2,24.1-36.3C431.1,558.3,424.8,543.3,419,528.1z"/>
<path class="st0" d="M586,532c4.6-3.5,11.9-1.9,14.8,3.1c3.4,5.9,5.5,12.4,8.9,18.3c2.5-5.5,4.9-11,7.4-16.4
	c1.6-3.5,4.8-6.5,8.8-6.8c4.6-0.7,9.4,2.4,10.8,6.8c1.3,3.1,0.4,6.5-1,9.4c-4.8,10.7-9.7,21.4-14.5,32.2
	c4.7,10.3,9.6,20.5,14.2,30.8c2.3,4.8,0.6,11.2-4.1,13.7c-4.9,3-11.7,0.8-14.3-4.2c-2.6-5-4.8-10.2-7.2-15.3
	c-3.6,7.8-7,15.6-10.7,23.3c-2.2,4.7-8.3,7.5-13.2,5.3c-5.3-2-7.9-8.7-5.6-13.9c5.8-13.3,12-26.4,17.9-39.6
	c-5.1-11.2-10.4-22.4-15.4-33.6C580.6,540.7,581.9,534.9,586,532z"/>
</svg>
