<svg version="1.1" xmlns="http://www.w3.org/2000/svg" xmlns:xlink="http://www.w3.org/1999/xlink" x="0px" y="0px" viewBox="0 0 1000 1000" style="enable-background:new 0 0 1000 1000;" xml:space="preserve">
<style type="text/css">
	.st0{fill:#000000;}
	.st1{fill:#464B4B;}
	.st2{fill:#EDEDED;}
</style>
<path class="st0" d="M440.5,197.7c16.5-2.6,33.6,0.4,49,6.8c21.8,9,41.6,21.9,62.4,32.6c15.5,7.9,31.2,15.7,48.1,20
	c9.4,2.5,19.3,2.5,29,2.1c13.4-1.1,26.3-5.8,38-12.3c2.6-1.3,5.1-3,8-3.4c2-0.3,3.6,1.4,4.3,3.1c1.5,3.6,1.8,7.5,2.2,11.3
	c1.1,12.8,1.2,25.8-0.3,38.6c-0.8,5.9-1.8,12.3-6,16.8c-5.2,5.8-12.3,9.4-19.2,12.9c-33.1,15.8-68.3,26.3-103.8,35.1
	c-23.2,5.7-46.7,10.2-70.2,14.3c-24.2,4.2-48.6,7.9-73,10.4c-20,2.1-40,3.2-60,4.6c-14,1-28.1,1.5-42.1,0.4
	c-6.8-0.5-13.9-3-17.9-8.9c-6.5-9-12.3-18.6-17.9-28.1c-2.5-4.6-5.4-9.4-5.8-14.7c0-3.1,3.3-4.3,5.7-5.1c14-4.3,28.2-8.5,40.6-16.6
	c17.3-10.6,29.9-26.9,42.4-42.5c16.2-20.4,28.5-44.4,49.4-60.6C414.2,205.9,426.9,199.9,440.5,197.7"/>
<path class="st1" d="M416.7,224.7c14.8-8.2,32.3-10.8,49-8.5c17.5,2.5,34.1,9.3,49.7,17.3c19,9.7,37.6,20.2,57.3,28.6
	c14.8,6.2,30.2,11.7,46.3,13c11.9,1,23.7-1.5,34.8-5.5c3-1.1,6.1-1.8,9.2-2.2c1.9,8.4,1.5,17,1.3,25.6c-0.2,5.1-1.2,10.7-4.8,14.6
	c-5.2,5.7-12.5,8.6-19.4,11.6c-39.5,16-80.7,27.5-122.3,36.9c-42.1,9.3-84.9,15.7-128,19.1c-19.3,1.4-38.6,2.5-57.9,2.3
	c-7.8-0.2-16.3,0.9-23.4-3.1c-5.8-3.4-10.1-8.6-14.2-13.8c-2.8-3.8-5.9-7.7-6.5-12.5c1.6-2.2,4.2-3.3,6.7-4.5
	c8.8-3.8,17.4-8.3,25.3-13.8c12.1-8.7,22.3-19.8,31.8-31.2c14-16.8,25.7-35.4,40-52.1C398.9,238.1,406.9,230.1,416.7,224.7"/>
<path class="st2" d="M435.5,244.5c10.3-4.2,21.8-4.8,32.6-2.6c8.4,1.9,16.7,6,22.2,12.8c5.2,6.4,7.6,15.3,5.6,23.4
	c-2.2,10-9.5,18-17.8,23.6c0.9,3.1,2.1,6.1,2.5,9.4c0.3,4-4.3,7.1-7.8,5.2c-3.4-1.8-3.7-6-4.9-9.2c-0.5,0.1-1.4,0.3-1.8,0.4
	c0.4,3.6,2.2,7.5,0.3,11c-2,3.5-7.6,3.3-9.4-0.3c-1.3-2.9-1.4-6.2-3.2-8.8c-0.8,3.3-0.7,6.7-1.6,9.9c-1.3,3.6-6.5,4.5-9,1.6
	c-2.7-3-1.2-7.4-1.6-11c-3.5,2.6-1.8,7.9-5,10.8c-2.5,2.4-7.2,1.5-8.6-1.7c-1.4-3.6,0.3-7.3,0.8-10.9c-8-3.1-15.6-8.4-19.5-16.2
	c-4-7.6-3.8-16.9-0.1-24.6C414.2,256.3,424.5,248.7,435.5,244.5"/>
<path class="st0" d="M465.5,257.6c10.1-2.9,19.7,8.8,16.3,18.3c-1.5,4.8-6.8,8.1-11.8,7.1c-6.9-1.2-12-8.1-11.8-15
	C458.2,263.5,461.1,259,465.5,257.6z"/>
<path class="st0" d="M429.5,262.7c4.8-1.6,10.5,0.3,12.9,4.8c4.3,7.8-1.1,18.3-9.4,20.6c-5.5,2-12.1-1.5-13.6-7.1
	C417,273.5,422.1,265,429.5,262.7z"/>
<path class="st0" d="M450.5,282.5c2.9-1.4,6.7,0,7.7,3.2c0.7,3,1.4,6.3,0.7,9.4c-0.7,3.5-5.4,5.5-8.3,3.2c-2.8-1.8-2.7-5.6-3.1-8.5
	C447,287.1,447.9,283.9,450.5,282.5z"/>
</svg>
