<svg version="1.1" xmlns="http://www.w3.org/2000/svg" xmlns:xlink="http://www.w3.org/1999/xlink" x="0px" y="0px" viewBox="0 0 1000 1000" style="enable-background:new 0 0 1000 1000;" xml:space="preserve">
<style type="text/css">
	.st0{fill:#EDEDED;}
	.st1{fill:#6089FF;}
	.st2{fill:#000000;}
</style>
<path class="st0" d="M862.1,178.3c9.3-2,19.6,2.8,24.2,11.2c3.2,5.5,3.6,12.1,2.5,18.3c-25,179.6-49.8,359.2-74.9,538.7
	c-1.8,8.1-1.3,16.7-4.8,24.3c-3.8,7.9-12.3,13.3-21,12.9c-9.9,0-19.1-7.3-21.6-16.9c-2.4-9.3,1.2-18.7,1.7-28
	c24.4-176.8,49.1-353.5,73.6-530.3c0.9-5.7,1.1-11.8,3.6-17.1C848.3,184.7,854.8,179.6,862.1,178.3"/>
<path class="st2" d="M764.6,741.6c1.2-0.9,2.4-1.8,3.6-2.7c-0.5,9.3-4.1,18.7-1.7,28c2.5,9.6,11.6,16.9,21.6,16.9c8.8,0.3,17.3-5,21-12.9
	c3.5-7.6,3.1-16.3,4.8-24.3c6.9,7.2,9.4,17.9,8.1,27.6c-1.1,9.1-2.6,18.1-3.6,27.2c-0.2,0.3-0.5,1-0.7,1.4c-1.3,5-1.6,10.2-2.3,15.3
	c9.1,2.4,17.9,7.4,23.5,15.2c4.7,6.2,7.1,14.2,5.9,22c-1.1,8.3-6.2,15.9-13.2,20.4c-6.4,4.1-14.3,5-21.6,3.4
	c-9-1.9-17.4-6.1-25-11.1c0.3-8.3-0.1-16.6-2.1-24.6c10.5-5.2,23-1.2,32.3,4.7c2.6,1.9,7,1.6,8.3-1.6c1.4-2.6-0.1-5.8-2.4-7.3
	c-12-8.3-27.7-12-41.8-7c-3.9-9.9-10-19.4-19.3-24.9c-4-2.6-8.6-3.5-13-5.1c-1-1.4-0.3-3.2-0.1-4.7c1.5-10.5,2.9-21,4.4-31.5
	C752.6,756.5,756.6,747,764.6,741.6z"/>
<path class="st1" d="M721.6,807.7c7.1-5.2,16.3-6.8,24.9-5.8l0.4,0.1c4.4,1.5,9,2.5,13,5.1c9.3,5.5,15.4,15,19.3,24.9
	c14-4.9,29.8-1.3,41.8,7c2.3,1.5,3.8,4.7,2.4,7.3c-1.4,3.2-5.8,3.5-8.3,1.6c-9.3-5.9-21.8-9.9-32.3-4.7c2,8.1,2.4,16.4,2.1,24.6
	c7.6,5,16,9.2,25,11.1c7.3,1.6,15.3,0.7,21.6-3.4c7-4.5,12.2-12.1,13.2-20.4c1.2-7.7-1.2-15.8-5.9-22c-5.6-7.8-14.3-12.7-23.5-15.2
	c0.7-5.1,1-10.3,2.3-15.3c19.9,4.9,37.5,21.2,40.8,41.9c0.2,4,1.1,8,0.2,12c-0.5,7.7-3.1,15.1-6.9,21.8c1.2,5.9,1.5,12,0.7,18
	c-2.2,11.7-9.4,23-20.4,28.1c1.1,9.2-0.4,19.2-6.5,26.5c-7.8,9.7-20.8,13.6-32.9,13.2c-12.6-0.6-24.7-6.5-33.1-15.9
	c-9.9,4.6-21.5,4.1-31.5,0.2c-6.7-3.1-12.8-7.8-16.6-14.1c-5.5-8.4-8.1-18.3-9.8-28.1c-0.3-3-0.5-6-1-9c-0.6-4.7-0.3-9.4-1-14
	c-0.2-5.6-0.2-11.2,0-16.8c1-12.6,2.9-25.3,6.8-37.5C709.1,820.7,714.1,812.7,721.6,807.7 M726.6,824.5c-7.2,9.2-9.8,21.1-10.7,32.6
	c-1,13.7-0.7,27.5,0.6,41.1c1.2,9.8,2.8,20.3,9.2,28.3c4,5.2,10.6,8.3,17.2,8.1c3.8-0.2,7.6-2.2,9.2-5.8c-3.9-11.2-1.3-24.3,7-32.8
	c-8.7-1.2-16.4-6.8-20.8-14.3c-2.9-4.9-5.7-10.7-5-16.5c1-4.8,8.4-5.2,9.8-0.4c1.2,5.7,3.2,11.4,7.5,15.6c3.6,3.8,9.5,6.3,14.5,4
	c4.3-2.1,6.2-6.9,7.4-11.3c3-11.9,1.2-24.8-3.7-36c-4.5-9.8-12.9-18.8-23.9-20.6C737.9,815.1,730.8,818.9,726.6,824.5 M782.1,878.7
	c-1.9,5.3-4.9,10.1-9.4,13.6c9.1,15.2,27.4,25.2,45.2,22.7c6.7-0.8,13.5-3.8,17.5-9.4c4.5-6.4,5-14.8,3.6-22.2
	c-8.2,5.6-18.4,8.2-28.2,6.6C800.7,888.3,791,884,782.1,878.7 M762.9,926.9c6.7,16.4,28.1,24.8,44.1,17.2c7-3.3,11.8-10.5,12-18.2
	c-19.8,2.6-39.6-7.5-52-22.7C760.9,909.2,759.6,919.1,762.9,926.9z"/>
<path class="st2" d="M726.6,824.5c4.2-5.6,11.3-9.3,18.4-8.1c11,1.8,19.4,10.8,23.9,20.6c4.9,11.2,6.7,24,3.7,36c-1.2,4.3-3.1,9.2-7.4,11.3
	c-5,2.4-11-0.1-14.5-4c-4.2-4.2-6.2-9.9-7.5-15.6c-1.4-4.7-8.8-4.4-9.8,0.4c-0.7,5.8,2.1,11.6,5,16.5c4.4,7.5,12.1,13.2,20.8,14.3
	c-8.3,8.5-10.9,21.6-7,32.8c-1.6,3.6-5.4,5.6-9.2,5.8c-6.6,0.1-13.1-2.9-17.2-8.1c-6.4-8-8-18.5-9.2-28.3
	c-1.3-13.7-1.6-27.4-0.6-41.1C716.8,845.6,719.4,833.7,726.6,824.5z"/>
<path class="st2" d="M782.1,878.7c8.8,5.4,18.5,9.7,28.8,11.3c9.8,1.6,20-1,28.2-6.6c1.4,7.5,0.9,15.8-3.6,22.2c-4,5.6-10.8,8.6-17.5,9.4
	c-17.8,2.5-36.1-7.5-45.2-22.7C777.2,888.8,780.3,883.9,782.1,878.7z"/>
<path class="st2" d="M762.9,926.9c-3.3-7.8-2.1-17.7,4.1-23.8c12.3,15.2,32.1,25.3,52,22.7c-0.2,7.7-5,15-12,18.2
	C791,951.8,769.7,943.3,762.9,926.9z"/>
<path class="st2" d="M728,948.6c10,3.9,21.6,4.3,31.5-0.2c8.4,9.4,20.5,15.2,33.1,15.9c-5.3,8.7-14.4,15.1-24.5,16.5
	c-13.4,2.3-27.8-4.2-34.8-15.9C730.1,960,728.4,954.4,728,948.6z"/>
<path class="st1" d="M863.3,191.5c6.9-2.5,13.6,4.7,11.7,11.5c-25.5,184.7-51.1,369.4-76.5,554.1c-0.4,4.8-1.5,10.9-6.8,12.7
	c-6.5,2.8-13.6-4-12.1-10.6c25.7-186.1,51.4-372.2,77.1-558.3C857.1,196.8,859.4,192.8,863.3,191.5z"/>
</svg>
