<svg version="1.1" xmlns="http://www.w3.org/2000/svg" xmlns:xlink="http://www.w3.org/1999/xlink" x="0px" y="0px" viewBox="0 0 1000 1000" style="enable-background:new 0 0 1000 1000;" xml:space="preserve">
<style type="text/css">
	.st0{fill:#000000;}
	.st1{fill:#B65F40;}
	.st2{fill:#8D3D21;}
</style>
<path class="st0" d="M507.1,173.2c2.7-2.3,5.1-5.5,8.8-6.3c3-0.6,6,1.1,7.9,3.4c75.5,82.9,151,165.7,226.5,248.6
	c2.4,2.6,4.7,5.5,7.7,7.6c3.6-0.5,7.5-0.2,10.3,2.4c5.4,4.8,9.2,10.9,13.4,16.7c1.8,2.3,2.9,5.6,1.3,8.3c-1.7,3.7-5.6,5.3-9,7.3
	c-30.6,16-64,26.1-97.7,33.1c-52.9,11-107.3,14.1-161.2,12.1c-51.7-2.1-103.1-9-153.5-20.8c-39.2-9.2-77.8-21.1-114.8-37.1
	c-7.2-3.4-14.7-6.3-21.4-10.6c-3.3-1.9-5.7-5.9-4.6-9.7c1.3-5.4,5.4-9.4,9.1-13.3c4.6-4.4,9.1-9.1,14.6-12.3
	c3.9-2.6,9.3,0.5,12.6-3.4C340.5,323.9,423.7,248.4,507.1,173.2"/>
<path class="st1" d="M755.5,447.6c-2.7-3.3-5.5-6.6-8.8-9.3c-2.8-2.3-6.3,0.3-9,1.4c-14.3,7-29.2,13-44.8,16.6
	c-4,0.8-4.7-5.3-0.9-5.9c14.1-3.8,27.9-8.8,41-15.3c1.9-1.1,4.2-2.1,5.2-4.2c0.3-2-1-3.6-2.2-4.9c-45.5-49.9-90.9-99.8-136.4-149.7
	c-23.8-25.9-47.1-52.2-71.2-77.8c-3.5-3.5-6.9-8-12.1-9c-5.1,1.5-9.4,4.9-13.4,8.4c-12.9,11.4-25.7,23-38.5,34.6
	C400.8,290.1,337,347.7,273.3,405.3c-1.4,1.2-2.7,2.8-2.8,4.7c1,2.5,3.8,3.4,6.1,4.4c32.1,13,65.3,23.4,99.1,31.2
	c21.2,4.8,42.7,8.6,64.4,9.9c2.2,0.1,5.3,0.7,5.4,3.5c0.5,2.9-2.9,4.4-5.3,4c-20.1-1.1-39.9-4.5-59.6-8.7
	C342,445.9,304.4,434,268,418.9c-2.9-1.1-6.5-2.5-9.2-0.1c-3.2,2.7-7,5.2-8.7,9.2c2.2,2,4.8,3.3,7.5,4.4
	c38.2,16.8,78.3,29.1,119,38.2C425,481.3,474.4,487.4,524,489c11.3-0.1,22.6,1.1,33.9,0.2c38.9-0.5,77.9-4.3,116-12.1
	c26.6-5.5,53-13.1,77.8-24.4C753.5,451.7,757.3,450.1,755.5,447.6z"/>
<path class="st2" d="M516.4,189.5c5.2,1,8.6,5.5,12.1,9c24.1,25.6,47.4,51.9,71.2,77.8c45.5,49.9,90.9,99.8,136.4,149.7
	c1.2,1.4,2.5,3,2.2,4.9c-1.1,2.1-3.3,3.1-5.2,4.2c-13.1,6.5-26.9,11.6-41,15.3c-3.8,0.6-3.1,6.6,0.9,5.9
	c15.5-3.6,30.4-9.6,44.8-16.6c2.7-1.2,6.1-3.7,9-1.4c3.3,2.7,6.1,6,8.8,9.3c1.9,2.5-2,4.2-3.8,5.1C727,464,700.7,471.6,674,477.1
	c-5.8-10.5-11.6-21.1-17.4-31.7c-1.4-2.4-3.2-5.5-6.5-4.6c-11.9,1.9-24,2.9-35.9,5.1c1.3,5.8,4.2,11.2,5.2,17.1
	c-0.2,2.7-4.2,3.6-5.4,1.1c-2.9-5.3-3.5-11.5-6.5-16.7c-2.2-1.3-4.9-0.8-7.3-0.7c-11.7,1-23.4,1.5-35.2,1.4c-2.8,0-5.5,0.2-8.2,0.6
	c-0.1,6.4,1.8,12.6,1.9,19c0.3,2.9-4.4,4.1-5.5,1.3c-2-6.6-1.7-13.7-3.5-20.5c-10.5-1.2-21.1-0.6-31.7-1.6c-1.1-0.3-2.9-0.1-3.5-1.4
	c-1.6-1.8,0.1-4.9,2.5-4.6c10.5-0.3,21.1,1.3,31.6,0.6c-0.2-6.6-1.5-13-2.2-19.5c-0.4-2.8-0.6-5.8-1.8-8.4c-1.1-0.6-2.4-0.8-3.6-0.9
	c-8.9-0.5-17.9-0.1-26.8-1c-2.2,0.1-2.9-2.1-3.8-3.6c1.3-1.2,2.7-2.7,4.7-2.4c9.4,0.1,18.8,0.9,28.1,0.4c1-7.8-1.6-15.4-2.1-23.1
	c-0.6-2.5-0.4-7.2-4-7.1c-9-0.6-18,0-26.9-1.1c-1.5-0.1-3.1-0.8-3.5-2.3c-0.8-2,1.3-4.2,3.4-3.7c9.4,0.3,18.9,1.2,28.4,0.5
	c0.7-8.5-2.2-16.8-2.4-25.3c-0.3-3.3,5.2-3.8,5.7-0.6c2.1,8.5,1.7,17.4,4.5,25.8c11.2,0.1,22.4-0.4,33.4-2c-1.7-8.8-5.8-17-8.1-25.6
	c-0.8-1.9,0.1-5,2.7-4.5c1.7-0.3,2.5,1.5,3.1,2.8c3.5,8.8,5.8,18.1,9.7,26.7c8.1-0.6,16.2-1.6,24.1-3.4c-2.3-6-5.9-11.4-8.9-17.1
	C573.5,293.8,544.7,241.8,516.4,189.5 M606.3,370.4c-5.7,1.1-11.6,1-17,3c1.2,6.1,3.7,11.8,5.6,17.7c1.4,3.8,2.3,8,4.5,11.5
	c1.5,2.1,4.5,1.1,6.7,1.1c8.3-1,16.7-1.6,24.9-3.3c-0.3-3.2-2.3-5.9-3.7-8.6c-3.6-6.4-7-12.9-10.7-19.3
	C614.5,368.8,609.7,370,606.3,370.4 M567.1,374.7c-6.7,0.5-13.5,0.4-20.2,1.2c0.3,9.9,2.2,19.8,3.6,29.6c2.1,0.5,4.3,0.8,6.5,0.8
	c11.8-0.1,23.6-0.3,35.4-1.6c0-1.8-0.4-3.5-1-5.2c-2.6-7.1-5-14.3-7.4-21.5c-0.7-1.5-1-3.7-3-4C576.3,373.6,571.7,374.5,567.1,374.7
	 M608.1,409.8c-1.9,0.5-4.7-0.2-5.6,2.1c1.1,5.2,3.2,10.1,4.8,15.1c1.3,3.6,2.2,7.3,4.1,10.7c0.8,1.8,3,1.2,4.6,1.3
	c9.2-0.8,18.2-2.1,27.3-3.4c2.2-0.4,4.8-0.4,6.5-2.2c-3.9-7.4-8-14.8-12-22.1c-1.2-1.7-2.2-4.5-4.8-4.2
	C624.7,407.5,616.4,409.1,608.1,409.8 M551.9,413c-0.2,5.4,1.1,10.7,1.7,16.1c0.6,3.8,0.7,7.7,2.1,11.3c1,1.9,3.5,1.5,5.3,1.7
	c14.5-0.1,29-0.5,43.4-2c0-3.5-1.5-6.7-2.6-9.9c-2-5.4-3.5-10.9-5.8-16.2c-1.5-3.7-6-2.4-9.1-2.4C575.3,412.5,563.5,412,551.9,413z"
	/>
</svg>
