<svg version="1.1" xmlns="http://www.w3.org/2000/svg" xmlns:xlink="http://www.w3.org/1999/xlink" x="0px" y="0px" viewBox="0 0 1000 1000" style="enable-background:new 0 0 1000 1000;" xml:space="preserve">
<style type="text/css">
	.st0{fill:#000000;}
	.st1{fill:#EDEDED;}
	.st2{fill:#FFD400;}
	.st3{fill:#FF002C;}
	.st4{fill:#464B4B;}
</style>
<path class="st0" d="M539.2,311c-2.8-12.9-11.5-23.6-21.6-31.5c-14.4-10.8-31.9-16.5-49.6-18.8c-13.2-1.6-26.7-2.4-40-1.4
	c-9.1,0.2-18,2-27,2.5c-3.6,0.1-7.6,0.1-10.7-2.1c-2.9-2.3-3.3-6.4-3.1-9.8c0.3-6,1.2-12.2,4.3-17.4c2.5-4.4,6.4-7.8,10-11.2
	c6.7-6,13.5-11.8,19.7-18.3c10.8-11.2,20.3-23.6,28-37.1c3.2-5.9,6.4-12.3,5.9-19.2c-0.7-6.6-5.4-11.7-9.7-16.3
	c-10.5-10.8-20.9-21.7-31.1-32.8c-24.3-25.4-48.2-51.2-71.7-77.3c-3.4-3.6-6.6-7.6-11-10c-4-2.3-8.9-1.6-13.3-0.7
	c-9.6,2.3-18.6,6.8-27.2,11.5c-30.6,17.3-55.4,44.2-71.9,75.2c-2.3,4.7-4.5,10.1-2.7,15.3c2.3,6.9,7.8,12,12.6,17.2
	c11.3,11.7,22.3,23.8,34,35.1c23.4,24.6,47,49.1,69.5,74.6c5.8,7,12.4,14.2,13.9,23.5c1.7,10.5-2.7,20.7-8,29.5
	c-15,23.9-36.6,43-50,67.9c-8.6,16-13.8,34.6-10.8,52.8c1.7,10.4,6.2,20.7,14,28.1c8.1,7.3,20.1,10.4,30.5,7
	c9.6-3.1,17.3-10.9,21.1-20.1c3.8-9.6,5.2-20.1,4.1-30.4c-0.4-3.7-0.3-8.2,3-10.6c2.2-1.8,5.4-0.8,7.1,1.2c3.1,3.5,5.5,7.8,9.6,10.3
	c4.8,3.3,11.2,2.7,16.4,0.8c9.1-3.4,16.1-11.1,20.2-19.8c5.4-10.8,6.2-23.3,12-33.9c4.9-8.6,13.9-15.7,24.2-15.6
	c6.5,0,12.6,3,17.2,7.5c7.6,7.4,13.5,16.6,22.4,22.7c7.7,5.3,17.5,8.1,26.7,5.9c11-2.5,20.3-10.2,26.5-19.4
	C539.8,335.9,542.2,322.9,539.2,311z"/>
<path class="st0" d="M344.2,505.9c-3.6-6.3-6.7-13-11.4-18.7c-2.2-2.7-6.1-4.7-9.3-2.8c-3.2,2-5.2,5.4-7.3,8.5
	c-5,8-9.3,16.4-13,25.1c-2.9,7.1-5.1,15.2-3,22.8c1.9,7.9,8.2,14.4,15.7,17.3c10,4,22.2,1,29.4-6.9c5.5-5.9,7.8-14.3,7-22.2
	C351.6,520.8,348.3,513,344.2,505.9z"/>
<path class="st1" d="M316.5,27.6c3.1-0.8,6.6-1,9.5,0.5c3.6,1.9,6.3,5,9.1,7.8c11.7,12.1,23,24.5,34.7,36.5c1.1,1.2,2.2,2.6,2.2,4.3
	c-1,2.7-3.9,3.8-6.3,5c-2.9,1.3-5.6,3-8.8,3.6c-4.2-0.2-7.9-2.7-11.8-4.2c-7.5-3.3-16-4.8-24.2-3.1c-16.3,3-31.1,15.9-34.2,32.5
	c-1.9,9.6,0.4,19.5,4.1,28.4c1.8,3.8,0.8,8.1-1.4,11.5c-2,3.1-4,6.9-7.7,8.3c-3.4-0.2-6.1-2.8-8.5-5c-11.5-12.2-22.9-24.5-34.3-36.8
	c-2.1-2.4-4.4-4.8-5.1-8c-0.8-3.8,0.6-7.6,2.3-10.9c8.3-15.8,19.4-30.2,32.9-42C282.9,43.8,298.6,33,316.5,27.6z"/>
<path class="st2" d="M319.4,83.7c7.3-1.7,15.3-1.4,22.3,1.4c10.6,4,19,13.2,22.2,24c5.5,17-3.5,37-19.8,44.2
	c-14.6,7.2-33.5,3-43.9-9.5c-10.2-11.7-11.8-29.9-3.6-43.1C301.6,92.2,310,86,319.4,83.7z"/>
<path class="st3" d="M374.5,85.6c4.9-1.5,9.2,2.3,12.5,5.4c12.5,13.1,25,26.4,37.4,39.6c2.9,3.4,6.4,6.5,8.6,10.5
	c1.8,3-1.3,5.8-3.8,7c-32.6,15.8-62.8,39.4-80.3,71.8c-1.6,2.4-3.2,6.4-6.7,5.8c-2.4-1.1-4.2-3.1-6.1-4.9
	c-14.7-15.6-29.5-31.1-44-46.9c-2.5-2.6-5.1-5.9-4.1-9.8c1.2-3.7,3.9-6.9,6.7-9.4c2.9-2.4,6.7-0.6,9.5,1c8.9,5.2,19.4,8.9,29.8,6.9
	c14-2,25.9-11.7,32.7-23.9c6.5-12.2,4.6-27.3-1.2-39.4c-0.9-2.5-3-5.4-1.4-8C366.7,88.2,370.7,86.7,374.5,85.6z"/>
<path class="st3" d="M371.3,204.1c4.3-2.2,7.1,3.3,7,6.8c0.5,15.2-5.9,29.7-4.9,45c0.5,5.6,2.3,11.3,6.4,15.3
	c3.6,3.2,8.6,4,13.2,4.3c7.4,0.3,14.6-1.6,22-2.5c17-2.4,34.3-1.3,51.2,0.9c15.3,2,30.8,6.2,43.2,15.7c7,5.5,13.2,12.6,15.4,21.4
	c3.1,12.2-0.9,26-10.6,34.2c-5.2,4.6-12.3,7.4-19.2,5.9c-6.6-1.3-11.2-6.8-15.5-11.6c-7.4-8.5-14.4-18.2-25.1-22.8
	c-11.3-4.9-24.5-3.3-35.1,2.5c-9.9,5.2-16.9,14.7-21.3,24.7c-3.6,8-5.4,16.6-6.9,25.1c-1,5.6-3.3,11.5-8.4,14.6
	c-3.8,2.4-9.2,2.5-12.5-0.7c-3.1-2.8-3.3-7.2-4.2-11c-0.8-4-3.7-7.6-7.6-9.1c-4.9-1.9-10.6-0.4-14.7,2.7c-6.2,4.7-9.3,12.6-8.9,20.3
	c0.4,10.1,2.3,20.4-0.4,30.4c-1.8,6.5-5.6,13.1-12.1,15.9c-7.9,3.4-17.7,0.4-22.9-6.3c-5.7-7.3-8.1-16.7-7.7-25.9
	c0.5-13.8,5.4-27.2,13-38.6c8-12.1,17.2-23.3,26.3-34.6c9.4-11.5,18.7-23.4,25.1-36.9c5.8-11.6,6.2-25.4,3.1-37.8
	c-1.4-6.4-6-12.2-5.4-19c0.9-7.2,5.3-13.3,9.2-19.3C365.3,210.4,367.5,206.3,371.3,204.1z"/>
<path class="st3" d="M324.6,498.5c0.7-1.3,3.2-1.4,3.7,0.1c3.3,5.8,6.4,11.8,9.3,17.8c2.4,5.5,4.9,11.5,3.7,17.6
	c-0.9,6.2-5,12.1-11.1,14.1c-6,2-13-0.7-16.4-6c-4-5.9-3.4-13.7-1-20.1C316,513.8,320.2,506.1,324.6,498.5z"/>
<path class="st4" d="M434.4,157.1c2-0.8,4.8,0.4,4.6,2.8c-0.7,4-3.3,7.2-5.4,10.6c-9.1,13.3-19.6,25.8-31.9,36.2
	c-2.5,2.1-7.2,4.7-9.5,0.9c-4.9-7.9-4.8-19.6,2.4-26.1c8.4-7.9,18.3-14.1,28.4-19.6C426.7,160.1,430.3,158.1,434.4,157.1z"/>
</svg>
