<svg version="1.1" xmlns="http://www.w3.org/2000/svg" xmlns:xlink="http://www.w3.org/1999/xlink" x="0px" y="0px" viewBox="0 0 1000 1000" style="enable-background:new 0 0 1000 1000;" xml:space="preserve">
<style type="text/css">
	.st0{fill:#000000;}
	.st1{fill:#EDEDED;}
	.st2{fill:#6089FF;}
	.st3{fill:#FF002C;}
	.st4{fill:#FFD400;}
	.st5{fill:#00A900;}
</style>
<path class="st0" d="M779.6,283.4c-9.5-8.1-21.7-12.1-33.6-15.3c-25.8-6.4-52.5-7.9-79-6.8c-6.3,0.1-12.6,1-18.9,0.2
	c-2.5-0.2-4.3-2.2-5.8-4c-10-12.1-23.2-21.6-37.8-27.1c-20.5-7.8-42.8-9.3-64.5-8.7c-24.1,0.8-48.2,2.4-72,6.5c-2,0.4-4,0.5-6,0.4
	c-0.8-3.8-1.6-7.6-1.5-11.5c6.1-0.8,12.3-0.6,18.5-0.9c13.3-0.6,26.7-1.3,40-2.1c12.9-0.9,25.9-1.7,38.7-4.1
	c9.2-1.8,18-5.3,25.7-10.6c5-3.5,8.6-9.2,8.8-15.4c0.6-7.7-4.2-14.8-10.5-18.7c-8.4-5.3-18.9-5.9-28.5-4.6
	c-14.7,2.3-28.7,7.8-42.8,12.7c-16.9,5.8-33,13.5-49.5,20.3c-14.9,6.2-31.2,5.1-47,5c-21-0.6-42.1-1.1-63,0.1
	c-10.8,0.8-22.4,2-31.4,8.6c-8.3,5.9-12.7,17-9.7,26.8c1.9,7.5,8.7,12.8,15.9,14.9c9.9,2.9,20.4,1.6,30.3-0.4
	c28.7-6.5,55.7-18.1,83.5-27.5c1.2-0.1,3.1-1.4,4-0.1c1.6,3.1,2.1,6.5,2.7,9.9c-2.7,1.3-5.6,2.2-8.5,2.7c-17.6,3.6-34.9,8.6-51.7,15
	c-18.7,6.5-36.6,15.8-52.2,28c-9.8,7.5-16.5,18.2-21.8,29.2c-6,12.5-9.3,26.2-12.1,39.7c-2.8,14.6-4.9,29.4-6.4,44.2
	c-0.7,8.4-1,17.1,1.1,25.3c0.9,3.4,2.8,7.3,6.5,8.3c4.6,1,8.9-1.5,12.9-3.4c25.8-13.8,52.3-26.4,79.9-36.1
	c19.1-6.9,38.5-13.1,58.3-17.8c40.5-9.4,82.1-13.2,123.6-14c19.4,0.1,38.8,0.8,58.1,2.7c10.9,0.9,21.9,2.3,32.8,2.8
	c17.6,0.4,34.4-5.5,51-10.6c17.5-5.8,35.1-11.7,51.1-21.1c8.4-5,16.8-12.1,19-22.1C789.8,296.1,785.5,288.4,779.6,283.4z"/>
<path class="st1" d="M520.9,182c14-4.5,28.1-10,43.1-9.9c5,0,10.5,1,13.9,4.9c2.7,3.4,2,8.2-0.1,11.7c-2.8,4.8-8.1,7.4-13.1,9.1
	c-9.9,3.3-20.4,4.2-30.8,5.2c-18.3,1.5-36.6,2.4-54.9,3.2c-5.5,0.1-11.1,1.2-16.5-0.2c1.7-3.2,5.6-3.5,8.6-4.9
	C487.5,194.3,504,187.6,520.9,182z"/>
<path class="st1" d="M343.5,210.9c15.8-1.2,31.7-1.2,47.5-1c13.6,0.7,27.3,0.1,40.9,0.1c1.8,0.1,3.9-0.3,5.4,1
	c-1.1,1.9-3.5,2.4-5.4,3.1c-21.5,6.6-43.1,12.8-64.6,19.6c-9.9,3-20,6-30.5,6.1c-5.8-0.2-12.6-1.4-16.3-6.4
	c-3.4-5.4-1.2-13.1,4-16.6C330.1,212.7,337,211.6,343.5,210.9z"/>
<path class="st2" d="M486.9,236.3c23.3-1.4,46.7-3.6,70.1-2.6c18.9,0.7,38.4,3.7,55,13.4c8,4.6,14.6,11.4,20.4,18.6
	c-21.9,3-43.5,7.7-64.7,14.1c-4.2,1.1-8.4,2.9-12.7,3.6c-2.5,0.1-3.7-2.6-4.9-4.3c-3.9-6.7-7.5-13.7-13.6-18.7
	c-6.9-5.7-15.5-9-23.9-11.8c-8.4-2.7-16.9-5.3-25.4-7.4c-1.9-0.5-3.8-1.1-5.4-2.1C481.7,236.1,485,236.6,486.9,236.3z"/>
<path class="st3" d="M457.4,246.5c5.7-1.6,11.6-0.3,17.1,1.1c7.2,2,14.4,4.1,21.5,6.2c10.2,3.1,20.6,5.8,29.9,11.2
	c7.2,4.1,11.7,11.6,14.9,19c1.6,3-2.1,4.7-4.3,5.6c-30.6,12.6-61,26.7-88.1,45.9c-8.2,5.7-16.2,11.8-24,18.1c-7,5.7-15,10-23.3,13.5
	c-2.2,0.7-4.7,2-7.1,1.1c-1.6-1.3-1.2-3.6-1.4-5.4c-0.6-15.9-2.2-31.8-2.5-47.8c-0.2-10.6,0.8-22.2,8.3-30.4
	c10.8-11.3,24-19.7,37.3-27.7C442.7,252.9,449.6,248.5,457.4,246.5z"/>
<path class="st4" d="M417.5,250.5c1.3-0.2,3-0.7,4,0.5c-0.5,2.1-2.4,3.3-3.9,4.5c-8.7,6.1-17.2,12.7-24.4,20.6
	c-4,4.3-7.5,9.2-9.3,14.9c-2.1,6.4-2.8,13.2-3.1,20c-0.3,16.7,1.5,33.3,2,50c0,3.8,0.3,7.9-1.5,11.4c-1.6,2.5-4.6,3.6-7.1,4.9
	c-16.1,7.2-32.4,14.1-48.3,21.9c-5,2.3-9.9,5-15.1,6.7c-2.5,0-2.5-2.8-2.6-4.6c-0.9-22.8,1.2-45.9,7.2-67.9
	c4.1-13.9,9.4-27.8,18.8-39c12.2-14.3,28.8-24.2,46-31.2C392.5,258.4,404.8,253.7,417.5,250.5z"/>
<path class="st5" d="M597.3,282.2c41.3-9.8,84.4-12,126.5-6.6c12.1,1.7,24.4,4,35.7,8.8c4.8,2.1,9.9,4.6,12.6,9.3
	c2.3,3.9,2.2,9.2-0.6,12.8c-4,5.2-9.9,8.4-15.6,11.3c-14.3,7-29.4,12.5-44.3,18c-9.9,3.4-19.7,7.3-30.2,8.3
	c-6.6,0.8-13.3,0.7-19.9,0c-24.1-2.3-48.3-4.6-72.6-4.9c-38.5-0.5-77.1,3.4-115,10.3c-7.4,1.3-14.7,3-22.1,4c-2.1,0.4-4.1,0-6.1-0.6
	c0.5-2,1.3-3.8,3.1-5c14.9-11.8,31.4-21.4,48.4-29.8C528.9,302,562.8,290.3,597.3,282.2z"/>
</svg>
