<svg version="1.1" xmlns="http://www.w3.org/2000/svg" xmlns:xlink="http://www.w3.org/1999/xlink" x="0px" y="0px" viewBox="0 0 1000 1000" style="enable-background:new 0 0 1000 1000;" xml:space="preserve">
<style type="text/css">
	.st0{fill:#000000;}
	.st1{fill:#FFFFFF;}
	.st2{fill:#F78200;}
	.st3{fill:#F32525;}
	.st4{fill:#D15B31;}
</style>
<path class="st0" d="M496.6,548.4c15.5,8.3,33.9,10.6,51,7.1c4.8-0.7,8-6.4,5.5-10.7c-1.8-3.8-6.5-4.4-10.2-3.5
	c-17.6,3.4-36.4-1.7-50.1-13.1c-12.5-10.2-20.9-24.8-24.8-40.3c-0.7-4.4-5.3-8-9.7-6.4c-3.8,1.2-5.8,5.7-4.7,9.4
	C459.2,514.9,474.6,537,496.6,548.4z"/>
<path class="st0" d="M650.7,598.1c16.2,4.6,34.6,2,48-8.5c2.1-1.6,4.1-3.9,3.8-6.7c-0.2-3.9-4.8-6.7-8.3-4.8c-3.6,2-6.7,5-10.6,6.5
	c-15.9,7-37,3.8-48-10.4c-1.8-2.5-5.5-3.6-8.2-1.8c-3,1.7-3.6,6-1.6,8.7C631.7,589.6,641,595.3,650.7,598.1z"/>
<path class="st0" d="M754.8,764.9c-3.2-9.8-9.4-19.3-18.8-24c-5.3-2.7-11.4-1.8-16.9-0.4c-12.4-17.2-27.1-32.7-43.6-46
	c-11.7-9.3-24.5-17.3-37.6-24.5c0.2-10.6-5.1-21.2-14.3-26.6c-12.7-7.6-28-6.7-42-9.9c-12.1-2.5-23.5-7.7-34-14.2
	c-8.3-4.8-16.3-10.6-25.8-13c-11.4-2.7-24.2-0.5-33.4,7.1c-7.6,6.1-12.1,15.8-11.8,25.5c0,10.3,5.5,19.7,12.5,26.9
	c8.6,8.4,19.4,14,30.4,18.7c20.4,8.4,42.5,12,64.5,13.4c5.1,22.9,7.9,46.4,6.5,69.9c-5.4,2.9-10.8,6.6-13.5,12.3
	c-4.1,8.2-2.5,17.7-2.2,26.5c0.9,8.7,3,18.9,11.2,23.5c8.6,4.3,18.6,2.6,27.7,0.8c14.2-3.3,27.8-9.3,40.2-16.9
	c2.9-2.2,6.8-1.1,10.2-1.4c15.8,0.1,31.1-6,43.9-15c13.8,5,30.6,2,41.1-8.4C755.5,783,757.6,773.2,754.8,764.9z"/>
<path class="st1" d="M489.2,628.9c3.5-6.7,10.7-10.3,17.8-11.8c9.3-1.5,18.9,1.2,26.8,6.2c6.9,4.1,13.2,9.1,20.4,12.8
	c10.7,5.5,22.3,9.8,34.4,10.8c9.9,1.2,20.6,0.8,29.5,6.1c5.4,3.2,7.9,9.6,7.5,15.7c-18.9,1.2-37.9-1.3-56.4-5.5
	C540.7,656.4,513.8,644.3,489.2,628.9z"/>
<path class="st1" d="M487.6,634.7c26.4,16.2,55.3,29,85.8,35.2c3.3,5.9,5.8,12.2,8.2,18.6c-18.5-1.1-36.9-4.7-54.4-10.9
	c-12.1-4.7-24.2-10.9-32.9-20.8C488.9,650.9,486.5,642.6,487.6,634.7z"/>
<path class="st2" d="M589.4,677.8c15.1,2.2,30.5,1.8,45.6-0.6c27.3,18.5,51.6,41.7,70.9,68.5c-2.9,1.5-5.7,3.1-8.4,4.9
	c-1.6,1-3.2,2.4-5.2,1.9c-15-1.4-30.7,0.8-44.2,7.7c-2.1,0.9-4.1,3.2-6.5,2.2c-12.1-3.4-25-2-36.8,1.6
	C606.9,734.6,602.5,704.3,589.4,677.8 M629.4,685.5c-5.6,1.2-10.4,6.5-9.8,12.5c1.1,8.5,10.2,14.5,18.5,12.8
	c6-0.9,11.2-6.5,10.5-12.8C647.7,689.2,637.7,683.3,629.4,685.5 M662.4,714.6c-5.7,1.8-9.6,7.5-9.6,13.4
	c-0.7,9.6,7.3,19.7,17.4,19.2c7.5-0.4,13.2-7.8,12.8-15.1C683.3,721.7,672.9,711.2,662.4,714.6 M623.2,717.1
	c-14.4,4.2-18.4,26.2-7.1,35.7c4.5,3.8,11.4,4,16.2,0.5c9.6-6.6,12-21.6,5-30.9C634.2,718.2,628.5,715.9,623.2,717.1z"/>
<path class="st3" d="M630.4,691.5c5.3-1.5,12.9,2.3,12,8.5c-2.4,7.3-13.9,5.2-16.2-1.2C624.7,695.7,627.3,692.2,630.4,691.5z"/>
<path class="st3" d="M664.3,719.5c6.3-1.5,11.1,5,11.9,10.5c1.1,4.6-1.7,11-7.1,10.8c-6.9-0.5-11-8.4-9.9-14.7
	C659.5,723.1,661.3,720.2,664.3,719.5z"/>
<path class="st3" d="M624.4,722.6c3.8-1.5,8,0.9,9.6,4.5c3.3,6.9,1.4,16.4-5,20.9c-3.7,2.7-9.3,1.2-11.3-2.8
	C613.6,737.7,616.2,726.1,624.4,722.6z"/>
<path class="st4" d="M690,768c8.9-8.8,20.7-14.9,33.1-16.6c5.4-0.8,10.6,2.4,13.7,6.6c3.5,4.7,6.4,10.1,7.2,15.9
	c0.6,4.1-2.3,7.5-5.5,9.6c-8.1,5.2-18.8,6.4-27.7,2.6c-2.8-1.1-5.2-2.9-8-4c-3.1-0.3-3.3,3.6-3.1,5.8c0.5,3-2.9,4.4-5,5.7
	c-10.1,4.9-21.5,7.5-32.7,6.7c-3.5-0.1-6.6-1.9-9.8-3.1c-4.3,2.2-7.6,5.9-12,8c-12.2,7.4-26.3,11.1-40.5,12.3
	c3.9-8.2,2.7-17.8-0.2-26.1c-1.8-5-5-9.9-10.2-11.7c8.5-6.4,19.2-8.6,29.6-9.5c12.1-0.5,25.3,0.9,35.1,8.7c1.2,1,3.1,2,4.3,0.5
	c1.7-4.2-5.3-6-4.1-10c2.1-4,7-5.1,11-6.2c5.5-0.9,11.6-3.1,17-0.8c3.1,1.5,1,5.4,2.5,7.9C687,771.2,688.5,769.3,690,768z"/>
<path class="st4" d="M585.7,792.1c-0.1-2,1.1-3.7,2.1-5.4c1.8,1.4,3.5,3,4.2,5.2c2.4,6,4,12.6,3.7,19.1c0,2.3-1.2,4.2-2.6,6
	c-2.1-1.3-4.1-2.9-4.6-5.4C586.8,805.3,585.6,798.7,585.7,792.1z"/>
</svg>
