<svg version="1.1" xmlns="http://www.w3.org/2000/svg" xmlns:xlink="http://www.w3.org/1999/xlink" x="0px" y="0px" viewBox="0 0 1000 1000" style="enable-background:new 0 0 1000 1000;" xml:space="preserve">
<style type="text/css">
	.st0{fill:#000000;}
	.st1{fill:%%ST1%%;}
</style>
<path class="st0" d="M735.7,650.9c-1.6-24.7-3.7-49.3-6-73.9c-4.5-48.4-11.3-96.6-17.4-144.8c-0.6-3.9-1-8.5-4.4-11.1
	c-4.8-3.7-11.1-4.4-16.9-5.5c-27.1-4-54.3-7.3-81.6-10.4c-2.2-0.3-4.8-0.5-6.2-2.5c-1.1-3.1,0.4-6.4,1.3-9.4
	c13.8-37.2,27.7-74.4,41.5-111.7c0.5-1.2,0.9-2.9,2.4-3.3c3.5-1,7.3-0.5,10.9-1.2c9.5-1.7,17.7-8,22.8-16.1
	c8.2-12.9,8.6-30.5,0.4-43.4c-5.1-8-13.8-14-23.4-14.8c-10.5-1.2-21,3.5-27.8,11.4c-12.3,13.7-13.8,36.2-2.5,51
	c2.3,2.6,3.8,6.2,2.2,9.6c-14,38.2-28.3,76.4-42.5,114.6c-1.4,3.6-2.7,7.6-5.8,10.1c-3,2.4-7,2.3-10.6,2.3c-35.4-1.9-71-2.5-106.4-1
	c-7.4,0.2-15,1.9-22.2-0.4c-5.3-2.2-7.6-8-10-12.8c-15.5-37.7-29.9-75.9-45.5-113.5c-1.1-3-2.8-5.9-3-9.2c0.3-3.6,3-6.2,4.7-9.2
	c9.7-16.1,5.9-38.8-8.4-50.9c-7.3-6.4-17.5-9.4-27-7.5c-9.5,1.7-17.6,8.5-22.1,16.9c-7.5,13.9-5.6,32.2,4.3,44.4
	c6.1,7.7,15.5,13.1,25.5,13.1c2.9,0.2,6.8-0.1,8.3,3c5.1,10,8.7,20.7,12.8,31.1c5.4,13.6,10.8,27.3,16.2,40.9
	c6.1,15.6,12.7,31,18,46.9c0.9,3.1,2.1,7.4-1.1,9.7c-5.6,3.6-12.5,3.7-18.9,4.9c-18,2.3-36,4-53.9,6.6c-11.2,1.6-19,10.6-26.8,17.9
	c-19.2,17.8-36.3,37.6-53.6,57.3c-5.2,6.2-10.8,12.5-13.6,20.3c-2.3,6.7-2.6,13.8-3.2,20.7c-1.1,15.7-1.5,31.3-2,47
	c-0.1,28.7-1.1,57.4-0.4,86.1c0.5,7.9,0.8,15.9,2.8,23.6c1.8,6.9,6.2,12.7,10.7,18c11.6,13.7,23.6,27.2,37.4,38.6
	c7.8,6.7,16.5,13.6,27.3,13.7c34.3,1.6,68.7,1.6,103,0.8c28-0.8,56-1.3,84-1.7c42.3-0.9,84.7-0.7,127-3.4
	c25.4-1.5,50.7-3.2,75.9-6.5c7.1-1,14.8-2.8,19.9-8.2c5.2-6,5.2-14.5,5.6-22C738.5,694.9,737,672.9,735.7,650.9z"/>
<path class="st1" d="M357.2,212.2c6.6-1.3,13.2,2.2,17.2,7.4c4.9,6.5,6.8,15.3,4.4,23.1c-1.6,5.9-5.9,11.4-11.9,13.2
	c-5.2,1.7-11.1-0.1-15.2-3.5c-9.3-7.7-11.6-22.6-5-32.7C349,215.9,352.9,213.2,357.2,212.2z"/>
<path class="st1" d="M651.3,218.6c5.8-2,12.3,0.3,16.3,4.8c9.9,11.2,6,31.4-7.7,37.7c-6.1,3-13.8,1.1-18.1-4
	C631.3,245.5,636.2,223.7,651.3,218.6z"/>
<path class="st1" d="M311.4,465.1c3.3-2.4,6.2,1.7,5.3,4.9c-2.7,21.2-6.1,42.4-8.4,63.7c-6.8,59.8-8.4,120.1-7.9,180.2
	c-0.2,2.9,0.4,6.4-1.8,8.7c-2.1,0.9-3.7-1-4.9-2.4c-7.9-9.2-15.9-18.4-22.4-28.6c-6.2-10.1-7.7-22.1-8.4-33.7c-0.7-15-1.3-30-1.7-45
	c0-27.3,0.2-54.6,2.5-81.7c0.4-5.5,1.4-10.9,3.7-15.9c3-6.9,8-12.6,12.8-18.2c7.7-8.6,15.8-16.9,23.8-25.2
	C306.4,469.6,308.5,466.9,311.4,465.1z"/>
<path class="st1" d="M494.5,422.6c42-0.9,84,0.8,125.8,5.3c15.8,1.6,31.6,3.7,47.3,6.7c7,1.4,14.2,2.9,20.7,6.2
	c3.8,1.9,6.2,5.6,7.2,9.6c2.1,8,3.2,16.3,4.6,24.5c3,23.7,6.9,47.2,8.9,71c4.2,46.2,7.7,92.7,6.8,139.1c-0.6,10.2,0.6,20.8-3.1,30.5
	c-2.2,6.1-8.6,9-14.6,10.1c-12.3,2.2-24.8,3.6-37.2,4.9c-33.6,3-67.3,4.1-101,5.1c-44.3,1-88.6,1-132.9-0.1
	c-30.7-0.8-61.4-1.9-92.1-4.5c-4.7-0.5-9.7-1.4-13.3-4.5c-3.5-3.1-4.3-8-4.7-12.5c-1.2-20.6,0.2-41.3,0.1-61.9
	c0.9-28,1.9-56.1,4.5-84.1c2.9-34.5,7.6-68.8,12.8-103.1c0.9-6.3,2.7-12.5,5.4-18.3c1.9-4.2,5.8-7.4,10.3-8.5
	c13.1-3.6,26.7-4.7,40.1-6.6C424.6,426.6,459.5,423.6,494.5,422.6"/>
<path class="st0" d="M487.3,459.4c19.2-0.5,38.5,0.3,57.7,0.4c23.4,0.7,46.8,1.4,70.1,3.7c13.2,1.5,26.6,3.5,39,8.5
	c6.7,2.7,12.6,7.8,15.3,14.7c3.8,9.4,4.4,19.6,5.8,29.5c3.4,33.9,6.2,67.8,7.8,101.8c0.7,19.3,2.5,38.9-1.1,58.1
	c-1.3,6.9-4.3,13.8-10,18.1c-7.4,5.7-16.9,7.3-25.9,8.5c-19.7,2.3-39.5,2.6-59.3,3.1c-26.6,0.3-53.2,1-79.8,0.8
	c-9.3-0.2-18.6,0.6-27.9,0.5c-22,0.8-44,0.2-66-0.6c-12.9-0.8-25.8-1.4-38.5-4.1c-7.4-1.7-15.2-4.7-19.5-11.3
	c-4.7-7.4-5.3-16.4-5.8-24.8c-0.7-25.7,2.1-51.3,3.4-77c1.7-28.1,3.3-56.2,6.5-84.2c1.3-11,3.2-23.1,11.4-31.4
	c9-8.3,21.8-9.8,33.4-11.3C431.6,459.6,459.5,459.7,487.3,459.4z"/>
</svg>
