<svg version="1.1" xmlns="http://www.w3.org/2000/svg" xmlns:xlink="http://www.w3.org/1999/xlink" x="0px" y="0px" viewBox="0 0 1000 1000" style="enable-background:new 0 0 1000 1000;" xml:space="preserve">
<style type="text/css">
	.st0{fill:#000000;}
	.st1{fill:%%ST1%%;}
</style>
<path class="st0" d="M423.3,329.7c-4.2-2.8-8.7-5.3-12.9-8.1c-19.4-12-36.6-27.2-51.7-44.3c-11-12.3-20.1-26.2-28.5-40.5
	c-4.4-7.6-7.6-15.8-11-23.9c-1.4-3.8-6.3-5.8-9.9-3.7c-3.6,1.9-4.3,6.3-5.5,9.8c-10.7,35.3-8.8,73.2-1.7,109
	c4.8,24.2,15.5,46.9,29.5,67.1c2.9,3.9,6.9,8.6,12.4,7.5c22.6-3.6,43.3-16.1,58.7-32.8c8.4-9.2,16.2-19.3,20.9-30.9
	C424.8,336,426.5,331.8,423.3,329.7z"/>
<path class="st0" d="M770.3,285.8c-2.1-2.1-5.5-1.7-7.9-0.3c-3.7,2.1-6.6,5.4-9.9,8.2c-12.8,11.8-25.6,23.9-40.4,33.5
	c-16.6,10.8-34.3,19.8-52.5,27.6c-1.4,1.5-0.3,3.6,0.9,4.8c6.2,6.9,12.2,13.9,17.3,21.7c9,13.5,14.9,28.8,20,44.1
	c1.4,3.6,2.3,7.9,5.4,10.5c1.2,1.1,2.8,0.3,3.6-0.8c22.8-22.7,39-51.1,51.5-80.5c7.3-18.4,13.8-37.6,14.4-57.5
	C772.7,293.2,773.1,288.8,770.3,285.8z"/>
<path class="st1" d="M315.4,246.3c11.8,25.8,30.8,47.7,51.4,66.9c12,10.9,25,20.7,39.1,28.8c-12.5,21.9-33.2,39.6-57.9,45.8
	c-15.1-24-25-51-30.3-78.8C313.8,288.4,312.4,267.1,315.4,246.3z"/>
<path class="st1" d="M757.8,310.9c-9.1,33.7-25.9,65.1-47.1,92.8c-6.5-15-14.4-29.6-24.4-42.6C711.7,346.8,737.9,332.7,757.8,310.9z
	"/>
</svg>
