<svg version="1.1" xmlns="http://www.w3.org/2000/svg" xmlns:xlink="http://www.w3.org/1999/xlink" x="0px" y="0px" viewBox="0 0 1000 1000" style="enable-background:new 0 0 1000 1000;" xml:space="preserve">
<style type="text/css">
	.st0{fill:#000000;}
	.st1{fill:#E94000;}
	.st2{fill:#FF5400;}
</style>
<path class="st0" d="M584.3,171.6c-22.1-43.9-44.2-87.7-66.3-131.6c-1.7-4-6.6-6.5-10.7-4.5c-3.3,1.3-4.6,4.9-6.1,7.8
	c-21.5,42.8-43.1,85.6-64.6,128.4c-1.7,3-1.5,6.6,0.2,9.6c22,43.7,44,87.4,66,131c1.3,2.8,3.9,5.2,7.2,5.4c3.6,0.3,6.8-2.2,8.2-5.4
	c22-43.7,44-87.4,66-131C585.8,178.3,586,174.6,584.3,171.6z"/>
<path class="st1" d="M502.4,73.4c1.5-3.2,3-6.5,5.6-8.9c1.1,1.6,2,3.4,2.4,5.3c7.1,29.8,14.3,59.6,21.3,89.4
	c0.9,2.4-0.1,5.1-2.9,5.2c-21.6,2.9-43.3,5.4-64.9,7.7c-2.6,0.1-6.6,0.8-7.6-2.3c-0.3-3.7,1.3-7.3,2.9-10.6
	C473.6,130.6,488,102,502.4,73.4z"/>
<path class="st2" d="M514.8,67.5c2,1.7,2.9,4.3,4.1,6.6c15.5,30.8,31,61.7,46.6,92.5c0.7,1.5,2,3.8,0.2,5c-2.9,0.2-5.7-1.1-8.5-1.8
	c-5.6-1.9-11.5-2.6-16.9-5.1c-2.8-1.3-3.9-4.5-4.5-7.4c-6.1-25.6-12.2-51.3-18.4-76.9C516.5,76.1,515.1,71.9,514.8,67.5z"/>
<path class="st2" d="M463.8,176.9c20.4-2.5,40.9-4.9,61.3-7.3c2.2-0.2,5.9-0.5,6.1,2.5c0.4,3.2-0.3,6.4-0.8,9.5
	c-5.9,34.5-12.4,68.8-18.5,103.3c-0.3,2.5-1,4.8-1.8,7.2c-1.1-1-2.2-1.9-2.9-3.2c-16.7-33.3-33.5-66.5-50.2-99.8
	c-1.2-2.8-3.1-6.3-1.2-9.2C457.8,177.6,461,177.4,463.8,176.9z"/>
<path class="st1" d="M538.4,170.6c2.4-0.9,5,0.3,7.5,0.8c6.5,1.9,13.1,3.2,19.4,5.5c2.6,0.7,1.7,3.6,1,5.4
	c-4.7,12.7-11.6,24.5-17.5,36.7c-9.8,19.5-19.7,39-29.4,58.5c-0.5,0.7-1.5,2.1-2,2.8c2.8-19.2,6.8-38.2,10-57.3
	c2.7-15,5.4-30.1,8.2-45.1C536.2,175.4,536.5,172.5,538.4,170.6z"/>
</svg>
