<svg version="1.1" xmlns="http://www.w3.org/2000/svg" xmlns:xlink="http://www.w3.org/1999/xlink" x="0px" y="0px" viewBox="0 0 1000 1000" style="enable-background:new 0 0 1000 1000;" xml:space="preserve">
<style type="text/css">
	.st0{fill:#000000;}
	.st1{fill:#B65F40;}
	.st2{fill:#FFD400;}
</style>
<path class="st0" d="M764.9,243.3c-2-7.8-7.5-15.4-15.5-17.7c-8.1-2.2-16.6,0.9-23.2,5.6c-15.5,10.9-30.4,22.5-46.3,32.6
	c-13.5,8.8-28.4,15.7-44.3,18.5c-4.4,0.7-9.7,1.6-13.5-1.3c-3.7-3.8-5.2-9-7-13.9c-7.8-24-16.7-47.8-29.9-69.3
	c-7.5-12.1-16.9-23.5-29.4-30.5c-11.7-6.9-26-9.7-39.3-6.5c-15.2,3.9-27.1,15-37.5,26.2c-4.5,4.7-9,10.2-15.4,12.4
	c-6.6,2.3-13.9,0.4-19.6-3.3c-12.4-7.9-24.9-17.3-40-19.1c-13.2-1.8-26.5,4.1-35.2,13.8c-11.5,12-16.2,28.9-16.7,45.2
	c-0.5,18.4,1.7,36.8,4,55c0.7,7.6,2.1,15.3,1.2,23c-0.7,6.9-5.9,12.5-12,15.4c-8.2,4-17.3,5.9-26.2,7.6c-22.3,2.9-44.9-0.7-66.5-6.5
	c-11.2-2.7-23.7-5.7-34.7-0.6c-9.5,4.3-14.1,15.2-13.7,25.2c0.6,15.4,7.3,29.7,15,42.8c8.8,15.3,21,28.7,35.8,38.2
	c17.2,11,37.9,14.6,58,15.2c22.2,0.1,44.1-4.4,65.6-9.8c39.2-10.2,78.2-22.2,118.5-27.5c44.3-6.3,89.4-6.2,133.1-16.5
	c28.6-6.5,56.3-18.5,79.4-36.8c12.5-10.1,23.7-21.8,33.3-34.7c11.3-15.3,19.6-33.1,22.6-52C767,263.8,767.5,253.3,764.9,243.3z"/>
<path class="st1" d="M520.3,175.3c13.1-1.9,25.3,5.3,34.6,13.7c15,13.6,25,31.8,32.9,50.2c2.9,7.2,6,14.4,8.2,21.9
		c1.2,6.6-5,10.9-9.5,14.5c-28.7,20.7-63,32.7-97.7,38.3c-29.5,4.8-59.6,3.3-89-1.2c-7.7-1.3-15.5-2-22.8-4.9
		c-4.4-1.8-4.8-7-5.4-11.1c-1.6-15.5-3.9-31.1-3.9-46.8c0.5-12.3,1.1-25,5.5-36.6c3.1-8.1,9.2-15.2,17.2-18.8c5.9-2.8,13-2.6,19-0.3
		c8.6,3.3,16.1,9,22.9,15.2c10.1,8.9,20.9,17.8,33.8,22.3c9.6,3.3,19.9,5.6,30,3.3c6.1-1.2,12.9-4.1,15.6-10.2
		c2-4.1-0.6-9.7-5.3-10.4c-7.4-1.3-13.4,4.9-20.6,5.3c-4,0.4-8.9-0.2-11.1-4.1c-1.4-3.5,0.9-7.2,3.1-9.8
		c6.3-7.4,12.9-14.4,20.3-20.7C504.5,180,512.1,176.1,520.3,175.3z"/>
<path class="st1" d="M738.5,245.7c3-1,7-1,9,1.9c3.1,4.3,2.3,10,2.1,15c-2.1,18.1-10.1,35-19.6,50.4c-15.7,25.2-38.8,46-66.2,57.7
		c-35.3,15.3-74,19.8-111.9,23.7c-22.7,2.2-45.4,4.1-67.9,7.9c-19,3.2-37.7,7.6-56.4,12.3c-24,6.1-47.8,13.5-72.2,18
		c-16.2,3-32.9,4.8-49.4,2.8c-23.1-2.5-45.6-12.8-61.4-30.1c-10.7-11.7-19.8-25.8-22.4-41.7c-1-5.9-0.2-13.5,5.4-16.9
		c6.2-2.6,13,0,19.2,1.2c16.3,4.4,33.1,7.5,50.1,6.9c20.5-0.8,41.1-4.5,59.7-13.3c2.4-1.2,6.4-2.6,8,0.6c3.1,8.4,2.5,17.7,5.9,26.1
		c2.4,5.8,8,9.4,13.8,11.1c9,2.6,18.4,3.7,27.7,5c21.2,3,42.7,3.1,63.9,0.8c34.3-3.8,68.1-12.3,100.3-24.9
		c10.2-4,20.2-8.2,30.2-12.8c6.6-3.1,13.2-6.5,18.3-11.8c3.5-3.6,4.3-8.9,3.7-13.6c-0.4-5.5-2.2-10.7-2.9-16.2
		c-0.3-2.1,1.3-3.9,3.4-4.1c16.3-3.6,31.8-10,46.7-17.2c15.2-7.6,29.1-17.4,42.8-27.4C724.8,252.9,731,248.1,738.5,245.7z"/>
<path class="st2" d="M599.3,283.3c2.9-0.9,4.4,2.7,5.5,4.8c3.7,9.4,6.2,19.2,8.6,29c0.6,3.7,2.2,8.4-1,11.3
		c-4.2,3.8-9.4,6-14.4,8.5c-38.1,17.6-78.8,30-120.5,34.8c-22,2.7-44.4,2.5-66.4-0.7c-7.6-1.1-15.3-2-22.8-4.1
		c-3.1-0.9-6.7-2.3-7.6-5.7c-2.2-7.3-2.6-14.9-3.4-22.5c-0.2-3.9-0.4-7.9,0.6-11.8c0.7-3,4.4-4,7.1-3.3c23.8,4.2,47.9,6.9,72,6.5
		c43.8-1.4,87.6-13.2,125.3-35.8C588.3,291,593.4,286.5,599.3,283.3z"/>
</svg>
