<svg version="1.1" xmlns="http://www.w3.org/2000/svg" xmlns:xlink="http://www.w3.org/1999/xlink" x="0px" y="0px" viewBox="0 0 1000 1000" style="enable-background:new 0 0 1000 1000;" xml:space="preserve">
<style type="text/css">
	.st0{fill:%%ST0%%;}
	.st1{fill:%%ST1%%;}
</style>
<path class="st0" d="M722.1,822c-3.9-5.2-9.7-8.5-14.8-12.3c-23.7-16-47.1-32.3-70.9-48.1c-23.5-15.8-48.3-30-74.8-40.2
	c-19.7-8.1-40.6-13-61.6-16.3c-20.9-3.2-41.9-6.2-63-6.2c-20.5-0.3-41.1,2.3-60.8,8.3c-29.6,9.2-54,30.5-71.8,55.4
	c-20.9,29.2-35.2,62.8-44.5,97.4c-9.7,35.8-12.3,73.2-10.8,110.1c0.2,10,0.4,20,1.7,30h21.3h95.4h25.3h279H690
	c-9.3-34.2-20.4-67.8-32.2-101.2c13.6,6.4,28.2,11.3,43.2,13c4.8,0.1,10.6,1.2,14.4-2.4c1.3-3.3,0.3-6.9,0-10.2
	c-3-21.6-3.9-44.7,4.7-65.2C721.3,830.2,724.9,825.8,722.1,822z"/>
<path class="st1" d="M376.6,728.3c22.7-7.5,46.7-9.9,70.4-10.3c22.9-0.4,45.8,2.5,68,8.2c16.1,4.2,32,10.4,45.7,20.1
	c12.9,9.1,22.6,21.9,30.5,35.5c14.9,26.5,26.4,54.7,37.2,83.1c17,44.2,29.7,89.9,43.5,135.1h-279c-9.7-46.6-19.1-93.3-28.7-139.9
	c-0.5-4.9-5.9-8.4-10.5-6.4c-3.9,1.3-5.2,5.8-4.4,9.5c6.1,45.6,12.2,91.3,18.3,136.9h-95.4c-3.4-21.8-5-43.9-5.6-66
	c0.1-18.1,2.1-36.2,5.8-54c6.3-31.4,18.7-61.4,34.9-89c9.9-16.8,22.6-31.8,37.5-44.4C354,738.6,364.8,732.1,376.6,728.3z"/>
<path class="st1" d="M631.5,791.5c5-2.4,11-1,15.8,1.3c13.2,6.5,24.7,15.9,36.9,24.1c7.9,5.8,16.5,10.7,23.2,17.9
	c-5,19.3-5.6,39.6-4.4,59.5c-14.8-2-28.9-7.2-41.9-14.4c-7-3.9-14.7-8.3-17.8-16.2c-5.4-14.1-10.8-28.2-16.8-42.1
	c-2.8-5.6-2.5-12-1.8-18C625.3,799,627,793.8,631.5,791.5z"/>
</svg>
