<svg version="1.1" xmlns="http://www.w3.org/2000/svg" xmlns:xlink="http://www.w3.org/1999/xlink" x="0px" y="0px" viewBox="0 0 1000 1000" style="enable-background:new 0 0 1000 1000;" xml:space="preserve">
<style type="text/css">
	.st0{fill:#000000;}
	.st1{fill:#AAAAA9;}
	.st2{fill:#4A4F4F;}
	.st3{fill:#FFD400;}
	.st4{fill:#EDEDED;}
	.st5{fill:#00A900;}
	.st6{fill:#B65F40;}
</style>
<path class="st0" d="M245.4,491.7c-1.9-2.8-5.5-3.6-8.6-4c-16.7-1.5-33.4-2.8-50.1-4.4c4.8-81.8,10.7-163.6,15.6-245.4
	c0.8-14,2-28,2.3-42c0.1-6.1-0.1-12.3-2.5-18c-2.8-7-8.3-12.3-13.2-17.8c-12.9-13.8-25.4-27.9-38.1-41.8c-2.6-2.7-5.1-5.7-8.1-7.9
	c-1.8-1.4-4.5-1.8-6.4-0.4c-2.4,1.8-2.5,5.1-2.8,7.8c-1.1,32.1-4.2,64-6.2,96c-3.6,55-7.7,110-11.1,165.1c-2,31.7-3.7,63.4-6.2,95.1
	c-12.6-1-25.2-1.6-37.8-2.3c-4,0-8.6-0.3-11.8,2.4c-3,2.8-2.2,7.2-2.3,10.8c0.1,7.8-2.1,15.3-3,23c-0.4,3.9,2.2,8,6.2,8.4
	c7,0.9,14.1,1.1,21.2,1.9c-8.1,10-7.4,23.5-7.8,35.6c0,19.6-1.3,40.1-10.7,57.8C58,622.3,53.4,633.9,52.7,646
	c-0.7,13.4,4,26.4,10.3,38c8,13.9,18.3,26.6,31.5,35.8c-0.6,8.1-1.7,16.1-2.1,24.2c-0.1,5.1-1.4,10.3,0.4,15.2
	c1.2,2.8,4.2,4.2,7.1,4.4c10.6,1.1,21.4,1.7,32,2.9c7.4,0.7,14.7,2,22.1,2.6c2.9,0.1,6.3,0.4,8.8-1.4c2.1-1.6,2.4-4.3,2.6-6.7
	c0.4-6.9,0.9-13.8,1.6-20.7c4.8-2,8.7-5.6,11.6-9.7c5.3-7.4,9.5-15.6,13-24.1c7.8-18.9,13.5-38.5,18.6-58.2
	c4.4-17.2,8.5-34.6,10.6-52.3c1.5-13.7,3.5-27.3,3.7-41.1c-0.1-9.8-1.9-20.3-8.7-27.8c7.8,0.6,15.6,1.5,23.3,1.1
	c3.3-0.2,6.6-2.8,6.6-6.3c0.2-7,0.9-14,1.2-21C246.9,497.9,247.3,494.4,245.4,491.7z"/>
<path class="st1" d="M143.3,148.8c0.2-6.5,0.7-13,1.3-19.5c12.1,12.3,24.3,24.4,35.9,37.2c6.6,7.2,12.6,16.3,11.6,26.5
	c-6.1,96.3-12.9,192.6-19.1,288.9c-5.4-0.5-10.7-1-16.1-1.4c1.2-16.5,2.2-33,3.4-49.5c-11.1-8.9-22.4-17.5-33.6-26.3
	c0.2-4.6,0.6-9.1,0.9-13.7c11.2,8.9,22.4,17.8,33.6,26.7c0.3-3.5,0.5-7,0.7-10.5c-11.2-8.8-22.5-17.5-33.6-26.3
	c0.3-4.7,0.5-9.4,0.9-14.1c11.2,8.4,22.4,16.9,33.8,25.3c4.2-60.4,8.2-120.8,12.4-181.2c0.4-6.1,0.9-12.3,0.1-18.4
	c-0.9-6.1-3.8-11.7-7.4-16.6C160.6,166.2,151.7,157.7,143.3,148.8z"/>
<path class="st2" d="M143.1,148.6l0.2,0.2c8.4,8.9,17.2,17.4,24.6,27.2c3.6,4.9,6.5,10.5,7.4,16.6c0.8,6.1,0.3,12.2-0.1,18.4
	c-4.1,60.4-8.2,120.8-12.4,181.2c-11.3-8.4-22.5-16.9-33.8-25.3c3.6-52.6,6.8-105.2,10.3-157.9C140.6,188.9,142.2,168.8,143.1,148.6
	z"/>
<path class="st2" d="M128.2,381c11.2,8.8,22.4,17.5,33.6,26.3c-0.2,3.5-0.4,7-0.7,10.5c-11.2-8.9-22.4-17.8-33.6-26.7
	C127.9,387.6,128.1,384.3,128.2,381z"/>
<path class="st2" d="M126.7,404.6c11.2,8.8,22.5,17.5,33.6,26.3c-1.2,16.5-2.2,33-3.4,49.5c-11.6-1-23.2-2.5-34.8-3
	C123.6,453.2,125.2,428.9,126.7,404.6z"/>
<path class="st3" d="M68.8,504.4c0.4-6.5,0.7-13,1.1-19.5c54.8,4.9,109.6,9.6,164.4,14.5c-0.1,6-0.6,12-0.8,18
	C178.7,513,123.7,508.7,68.8,504.4z"/>
<path class="st4" d="M101.9,522.1c8.3-3.2,17.4-1.2,26-0.6c-19.5,33.1-34.2,69.6-38.7,108c-2.7,22.1-3.6,44.8,0.7,66.7
	c-6.9-7.5-12.1-16.4-16.2-25.7c-4.6-10.5-7.4-22.1-5.9-33.5c1.1-8.8,6.2-16.3,10.1-24c4.3-8,7.5-16.8,9.1-25.8
	c3.5-17.6-0.1-35.9,5-53.3C93.4,528.9,96.7,523.9,101.9,522.1z"/>
<path class="st5" d="M142.5,524.5c2.7-1,5.6-1.1,8.5-0.7c10.6,1.2,21.3,1.3,31.8,3.6c7.2,1.6,14.4,4.9,19,10.8
	c4,5,5.3,11.5,5.8,17.7c0.8,11.7,0.6,23.4-0.1,35.1c-0.7,11.1-3.3,22.2-8.2,32.2c-2.1,4.1-4.6,8.2-8.7,10.5c-3.5,2-7.7,0.9-11.4-0.1
	c-14.9-3.8-29-9.8-43.2-15.6c-5.5-2.1-11.2-4.3-17.1-4c-3.2,0.2-5.3,4-3.9,6.8c1.7,3.4,5.7,4.7,9,6c15.1,4.7,30.5,8.3,45.5,13.2
	c4.1,1.4,8.3,2.8,12,5.2c6.9,4.7,10.6,13.5,9.3,21.8c-1.1,8.2-3.4,16.3-5.7,24.2c-2.7,8.9-5.9,17.9-11.3,25.6
	c-3.3,4.7-9,8.1-14.9,7.3c-8.4-1.1-16.1-4.7-24.1-6.9c-10.2-3-21.6-4.8-29.2-12.9c-7.7-8.5-10-20.4-10.7-31.4
	c-0.8-22,1.8-44.1,6.7-65.5c4.2-18.9,11.4-36.9,19.4-54.5c3.1-6.7,6.7-13.2,10.7-19.4C134.3,529.6,137.7,525.8,142.5,524.5z"/>
<path class="st6" d="M106,725.6c9.7,2.7,19.9,3.3,29.4,6.9c6.7,2.1,12.5,6.5,19.3,8.2c-0.3,5-0.7,10-1,15c-16.5-1.5-33-2.9-49.5-4.3
	C104.7,742.8,105.5,734.2,106,725.6z"/>
</svg>
