<svg version="1.1" xmlns="http://www.w3.org/2000/svg" xmlns:xlink="http://www.w3.org/1999/xlink" x="0px" y="0px" viewBox="0 0 1000 1000" style="enable-background:new 0 0 1000 1000;" xml:space="preserve">
<style type="text/css">
	.st0{fill:%%ST0%%;}
	.st1{fill:%%ST1%%;}
</style>
<path class="st0" d="M744.7,933.3c-0.6-27.6-2.8-55.3-8.6-82.4c-5.3-25.5-14.6-50.6-30.3-71.7c-11.4-15.5-25.7-28.8-42.2-38.8
	c-28.8-17.5-62.2-25.7-95.4-29.5c-50.1-5.7-100.8-8.8-151.1-3.4c-19.6,2.5-39.2,5.5-58.5,10.2c-33.3,8-65.9,21.5-92,44
	c-22.2,18.7-37.9,44.3-47.1,71.7c-6.9,21.9-11.1,44.7-12.4,67.6c-2.1,33-3.1,66-3.2,99H228h114.5h17.7h248.6h17.7h96.8h20.9
	C745,977.8,744.8,955.5,744.7,933.3z"/>
<path class="st1" d="M431.9,726.2c43-2.9,86.4-1.8,129.1,4.1c22.8,3.1,45.4,7.8,67,15.7c24.9,9.6,48.6,24.5,64.3,46.4
	c12.1,16.9,19.5,36.7,24,56.9c5.9,26.7,7.2,54.2,7.7,81.5c0.7,23,0.1,46-0.7,69h-96.8c0.6-29.2,1.1-58.9-6.2-87.4
	c-4.3-16.8-11.7-33.3-24.1-45.8c-3.4-3.3-6.8-7.1-11.4-8.8c-3.7-1.5-8.1,2.1-7.2,6c1,4.2,4.8,6.7,7.2,10.1
	c10.3,13.1,17.2,28.8,20.5,45.1c2.9,13.4,3.9,27.1,4.3,40.8c0.2,13.4,0.1,26.7-1,40H360.2c-1.6-22.3-1.6-44.7,1-66.9
	c2.6-21.4,9.7-42.7,23.4-59.5c2.2-2.9,5.3-5.2,6.6-8.7c1.1-2.7-0.5-5.9-3.2-6.8c-3-1.2-6.1,0.8-8.4,2.5
	c-13.8,11.1-23.1,26.9-28.4,43.6c-10,30.9-9.2,63.8-8.7,95.9H227.9c-1.1-42.1-1.3-84.3,3.5-126.2c2.7-20.5,7.2-41.1,17-59.4
	c14.7-28.3,40.3-49.7,68.9-62.9c17.4-8.3,36.1-13.3,54.9-17.3C392,730,412,727.8,431.9,726.2z"/>
</svg>
