<svg version="1.1" xmlns="http://www.w3.org/2000/svg" xmlns:xlink="http://www.w3.org/1999/xlink" x="0px" y="0px" viewBox="0 0 1000 1000" style="enable-background:new 0 0 1000 1000;" xml:space="preserve">
<style type="text/css">
	.st0{fill:#EDEDED;}
	.st1{fill:#FFD400;}
	.st2{fill:#FF002C;}
	.st3{fill:#000000;}
</style>
<path class="st0" d="M494.3,386.2c32.9-4.1,66.7,2.5,96.5,16.8c16.2,7.9,31.1,18.6,42.9,32.2c11.8,13.4,21,28.8,27.8,45.2
	c14,35.5,17.1,74.8,11.7,112.4c-2.7,18.6-8.2,36.7-16.7,53.5c-8.2,17.3-20.1,32.9-34.4,45.8c-4.5,3.9-9.1,7.7-14.4,10.6
	c-3.7,2.3-9-1.4-7.9-5.7c1.1-4,5.6-5.3,8.4-7.8c6.6-5.2,13.5-10.7,17.7-18.1c-1.8-0.2-3.6,0.3-5.3,0.8c-22,6.4-44.8,9.1-67.5,11.1
	c-25.6,1.8-51.4,1.3-77-1.1c-20.2-2.5-40.2-6.1-60-10.8c-8.9-2.2-17.8-4.6-26.3-7.8c-1.7-0.7-3.5-1.1-5.3-1.2
	c-0.1,3.3,2.1,5.9,3.8,8.5c8.1,11.5,19.2,20.3,30.5,28.5c1.8,1.1,2.8,3,3.5,4.9c-0.4,3.8-4.4,6.9-8.1,5c-10-5.3-18.7-12.8-26.7-20.7
	c-13.2-13.4-24.1-29-32.1-46c-8.1-17.1-12.6-35.7-14.8-54.4c-2.6-21.1-1.6-42.5,2.1-63.3c5.7-32.1,20.8-62.8,44.1-85.8
	C415.6,410.1,453.9,390.8,494.3,386.2 M495.5,397.8c-33.1,3.8-64.7,18.2-90,39.8c-4.5,4.1-9.2,8.2-12.6,13.4
	c-2.5,4.1-4.6,9.3-2.8,14.1c1.3,4.1,5.2,6.6,9.1,7.8c44.7,11,90.9,15.5,136.8,16.5c24.7,1,49.4-0.3,74.1-2.1
	c8.1-0.7,16.3-1.2,24.3-2.8c3.5-0.8,7.3-2.6,8.3-6.3c1.5-5-1.4-9.8-3.6-14.1c-8.2-15.3-19.9-28.8-34.1-38.9
	c-14.2-10.2-30.4-17.2-47.2-22C537.7,397,516.4,395.2,495.5,397.8"/>
<path class="st1" d="M374.3,483.6c4.9-1.5,10.1,0,15,0.9c16.8,3.6,33.6,7.2,50.6,9.6c14.3,2,28.6,4.5,43.1,5.5
	c22.7,1.8,45.4,3.4,68.1,3.2c15-0.5,30-0.4,45-1.4c13.3-0.8,26.6-2.5,39.9-4.3c4.3-0.5,8.7-1.8,13.1-1.3c3.6,0.5,5.9,3.9,7.1,7
	c2.4,6.1,3.3,12.8,4.4,19.2c1.5,11.6,3.3,23.2,3.4,34.9c0.2,19.2-1.1,38.6-6.7,57.1c-3.3,10.9-7.1,21.9-14.1,31
	c-6.3,7.1-15.9,9.8-24.7,12.5c-22.4,6.1-45.3,10.2-68.4,11.7c-26.7,1.2-53.5,1.2-80-2.3c-29.7-4-59.7-9.8-86.8-23.2
	c-9.9-4.9-19.2-12.3-23.3-22.8c-6.6-16.4-8.3-34.3-8.8-51.9c-0.4-24.2,3-48.6,11.8-71.2C365.3,492.3,368.2,485.8,374.3,483.6"/>
<path class="st3" d="M456.3,514.1c6.6-1.6,13.7,1.5,17.9,6.7c8.5,10.6,8.9,26.3,2.7,38.1c-3.4,6.7-10,12.4-17.9,12.8
	c-7.2,0.2-13.7-4.6-17.1-10.7c-6.9-12.1-5.7-28.3,2.8-39.3C447.6,518.1,451.7,515.2,456.3,514.1"/>
<path class="st3" d="M599.4,525.6c3.5-1.3,7.5-1.5,11,0.2c6.4,2.7,10.3,9.2,11.8,15.7c2,9.3,0,19.9-6.9,26.8c-4.3,4.4-11.1,6.5-16.9,4
	c-8.1-3.2-12.3-12.1-12.9-20.4C584.7,541.7,589.2,529.7,599.4,525.6"/>
<path class="st3" d="M455.5,582.7c8.5-1.6,17.2,3,22,9.9c8.7,12.2,8.5,29.8,0.2,42.2c-4.4,6.5-11.7,11.6-19.7,11.5c-8.1,0.1-15.4-5-19.6-11.7
	c-7.4-11.9-7-28,0.4-39.8C442.5,588.8,448.5,584.1,455.5,582.7"/>
<path class="st3" d="M602.5,584.5c6.8-0.8,13.8,2.6,17.9,8c9,11.5,8,29.4-1.9,40c-4.8,5.2-12.4,8.1-19.4,6.2c-6.9-1.8-12.3-7.5-14.9-14
	c-4.1-9.8-2.9-21.6,3.1-30.4C590.8,589.2,596.3,585.4,602.5,584.5"/>
<path class="st2" d="M457.4,524.5c2.4-0.7,5.2-0.6,7.1,1.1c4,3.2,5.7,8.4,6.2,13.3c0.6,6.8-0.9,14.1-5.6,19.3
	c-2.2,2.5-5.7,4.1-9,2.9c-3.5-1.4-5.7-4.9-7-8.3c-2.4-6.8-1.9-14.7,1.3-21.2C452,528.5,454.2,525.7,457.4,524.5z"/>
<path class="st2" d="M602.2,534.2c4.3-1.7,8.4,1.9,9.9,5.7c2.8,6.7,2.2,15.2-2.3,21c-2,2.8-6.1,4.5-9.3,2.5c-4.9-3.2-6.3-9.8-6-15.3
	C594.9,542.7,597.1,536.6,602.2,534.2z"/>
<path class="st2" d="M454.5,593.7c3-1.2,6.7-1.4,9.6,0.2c4.7,2.5,7.4,7.5,8.7,12.4c2,7.9,0.8,16.8-4,23.5c-2.7,3.8-7.1,6.7-11.9,6.3
	c-4.8-0.5-8.6-4.2-10.8-8.4c-3.8-7.4-3.8-16.5-0.6-24.1C447.4,599.5,450.3,595.5,454.5,593.7z"/>
<path class="st2" d="M600.4,594.5c3.7-1.6,8.3-1,11.2,1.9c6,5.6,6.9,14.8,4.7,22.3c-1.7,5.6-6.1,11.3-12.3,11.6
	c-6.3,0.1-10.8-5.6-12.2-11.2C589.3,610.3,591.8,599,600.4,594.5z"/>
</svg>
