<svg version="1.1" xmlns="http://www.w3.org/2000/svg" xmlns:xlink="http://www.w3.org/1999/xlink" x="0px" y="0px" viewBox="0 0 1000 1000" style="enable-background:new 0 0 1000 1000;" xml:space="preserve">
<style type="text/css">
	.st0{fill:#000000;}
	.st1{fill:#464B4B;}
	.st2{fill:#959898;}
</style>
<path class="st0" d="M623.2,282.7c-4.1-8.4-14-11.2-22.4-13.2c-24.3-4.7-49.3-4.2-73.8-2.1c-5.5-54.7,0.4-109.6,2.4-164.3
	c0.5-8,0.6-16.1,0.4-24.1c-0.1-4.5-5-6.2-8.8-6.5c-24.9-3.1-50-4.3-75-3.1c-28.4,1.8-56.6,6.4-84.1,13.3
	c-39.5,10.3-78,26.2-111.6,49.7c-2.7,1.6-4.5,5.2-2.5,8c10.1,16.7,20.1,33.5,29.2,50.8c10.8,20.7,21.7,41.5,31.1,62.9
	c8.7,18.9,15.9,38.4,23,57.9l-0.4,0.5c-14.2,5.6-28.3,11.6-41.9,18.5c-10.9,5.7-21.8,11.6-30.9,20c-5.7,5.2-9.6,13.3-7.4,21.1
	c2,7.7,9,12.8,16.1,15.5c11.2,4.4,23.5,5,35.5,5.3c26.7,0.4,53.4-2.6,79.8-7c63.5-10.4,126.7-25.8,185.4-52.7
	c16.6-8.2,34.4-15,48.3-27.7C621.5,299.9,626.9,291,623.2,282.7z"/>
<path class="st1" d="M374.9,94.6c34.1-7.2,69.1-10.1,103.9-9.5c-5.3,56.2-11.4,112.8-6.5,169.2c-20.6,7.8-41.9,13.8-63.5,17.8
		c-2.3-17.5-5.6-34.9-10.1-51.9c-0.5-2.2-2.7-3.2-4.7-3.5c-20.3,0.9-40.4,5.1-59.5,11.7c-2.6,0.6-5,3.3-4.1,6.1
		c6.8,14.3,12.8,29.3,17.2,44.5c-3.8,0-7.7,0.3-11.6,0c-2.3-0.1-3.3-2.3-4-4.1c-17.4-45.2-37.8-89.3-63.3-130.5
		c-2.1-3,1.1-5.8,3.3-7.4C302.6,115.4,338.5,102.4,374.9,94.6z"/>
<path class="st1" d="M525.6,298.7L525.6,298.7c0.3,0.1,1,0.4,1.3,0.6c10.6-1.2,21.4-2,32.1-1.4c5.7,0.5,11.5,1,16.7,3.3
		c1.8,0.9,4.1,2.4,3.6,4.7c-0.6,3.5-3.8,5.5-5.4,8.5l-0.3,0.4c-38.1,17.4-78.3,29.8-118.9,39.8c-40.6,9.8-81.9,17.3-123.6,20.2
		c-16.7,0.8-33.6,1.5-50.1-1.6c-4.5-1.1-9.6-1.9-12.8-5.5c-0.3-2,1.3-3.7,2.4-5.2c4.4-5,10.1-8.8,15.7-12.3
		c15.5-9.3,32.2-16.1,49-22.7c1.8,2.6,1.5,6.5,2.2,9.6c0.2,3.2,3,5.6,6,6.2c13.8,1.6,27.7,0.4,41.4-0.9c44.5-5.3,88.2-18,128.9-36.8
		C517.7,303.5,522.5,302.3,525.6,298.7z"/>
<path class="st2" d="M478.8,85.1c7.4-0.3,14.8,0.5,22.2,0.5c3.8,0.7,7.9,0.2,11.5,1.8c2.1,1,2.4,3.5,2.2,5.6c-2.5,33-4.6,65.9-5,99
		c-0.7,14.3,0.4,28.6,0.2,42.9c-0.3,1.5-1.2,2.8-2.6,3.3c-11.2,6.2-23,11.4-35,16C467.4,197.9,473.5,141.3,478.8,85.1z"/>
<path class="st2" d="M526.1,282.5c23.9-1.2,48.4-4.3,72,1.1c3.4,1,7.1,1.9,9.5,4.6c0.6,2.7-2,4.9-3.6,6.8
		c-8.7,8.4-19.5,13.9-30.2,19.4c1.6-2.9,4.8-5,5.4-8.5c0.4-2.3-1.8-3.8-3.6-4.7c-5.3-2.3-11.1-2.9-16.7-3.3
		c-10.7-0.6-21.5,0.2-32.1,1.4c-0.3-0.2-1-0.5-1.3-0.6C528.5,293.8,525.7,287.9,526.1,282.5z"/>
<path class="st2" d="M341.3,236c14.2-4.6,28.9-7.8,43.8-9.2c1.9,0.1,3.9-0.8,5.8-0.2c3.7,15.7,6.9,31.5,8.7,47.5
	c-13.9,2.3-27.9,4-42,4.8l-0.5-0.5C352.7,263.9,347.5,249.7,341.3,236z"/>
</svg>
