<svg version="1.1" xmlns="http://www.w3.org/2000/svg" xmlns:xlink="http://www.w3.org/1999/xlink" x="0px" y="0px" viewBox="0 0 1000 1000" style="enable-background:new 0 0 1000 1000;" xml:space="preserve">
<style type="text/css">
	.st0{fill:#000000;}
	.st1{fill:#2027EB;}
	.st2{fill:#6CED2D;}
</style>
<path class="st0" d="M426.4,454.4c44.9-0.6,89.8,0.1,134.6,1.7c8.3,0.1,16.6,0.4,25,0.5c16.6,0.4,33.3-0.1,49.7,3
	c8.6,1.4,17.2,4,24,9.6c7.2,6,12,14.6,14.5,23.6c3.9,12.4,4.5,25.4,6.2,38.2c3.2,26.3,4.7,52.9,5.7,79.4c0.4,16.2,1.6,32.4,0.4,48.6
	c-0.8,11-2.5,22.8-10.1,31.3c-8.7,9.9-22.2,13.8-34.8,15.8c-24.1,3.2-48.4,2.5-72.6,2.7c-23.3,0.1-46.6-0.7-69.9-0.3
	c-33.4,0.2-66.8,2.2-100.1,0.5c-13.4-1-28-2.4-38.6-11.5c-9.7-8.3-13.1-21.4-13.9-33.6c-2.5-35.3-0.6-70.8,2.3-106
	c1.1-13.4,1.5-26.9,3.2-40.2c1.6-13,3.5-26.4,9.7-38.2c4.6-8.8,12.8-15.5,22-19C397.2,455.3,412,455.1,426.4,454.4"/>
<path class="st1" d="M445.3,463.2c49.5-1,99,1.3,148.5,2.6c19.7,1,41,0,58.5,10.8c9.2,5.5,12.5,16.3,14.7,26.1
	c3.9,18.2,5.6,36.8,7.3,55.3c2.4,28.9,3.3,58,3.9,87c0,10.4,0.2,21.3-4.1,31c-4.7,9.5-14.3,15.9-24.4,18.6c-11,3.1-22.4,3.7-33.7,5
	c-26.7,0.9-53.4,0.7-80.1,0.2c-25.3-0.3-50.6,0-75.9,0.8c-14.7,0-29.4,0.7-44.1,0.2c-10.5,0-21-0.4-31.4-2.1
	c-7.1-1.2-14.4-3.5-19.7-8.6c-5.4-5.2-7.9-12.6-9-19.8c-1.9-13-1.7-26.2-1.6-39.4c1-36.8,4.3-73.4,7.9-110c1.6-13,2.5-26.8,9.6-38.1
	c5.2-8.6,14.5-14,24.2-15.8C412.2,463.7,428.9,463.6,445.3,463.2"/>
<path class="st2" d="M443.4,576.7c10.9-2.5,22.6-0.8,32.3,4.6c12.5,6.8,21.7,19.1,25.4,32.8c1.6,5.1-1.8,11.2-7.2,12.1
	c-4.9,1.1-9.8-2.4-11-7.1c-2.1-6.5-5.5-12.7-10.8-17.2c-6.6-5.9-16.2-8.8-24.9-6.5c-11.2,2.6-20,11.9-23.7,22.6
	c-1.1,4-4.1,8-8.5,8.5c-6.2,1.1-12-5.3-10.5-11.3C409.6,596.7,424.6,580.8,443.4,576.7z"/>
<path class="st2" d="M601.3,576.2c14.3-1.2,28.7,4.8,38.6,15c6.4,6.7,11.4,14.9,13.8,23.9c1.5,5.2-2.3,11.2-7.8,11.7
	c-4.8,0.8-9.3-2.7-10.5-7.2c-3.2-9.7-10.1-18.5-19.7-22.5c-6.7-2.9-14.6-2.9-21.3,0c-9.1,3.8-15.6,12.3-18.5,21.6
	c-1.1,4.1-4.5,7.8-9,8c-5.7,0.5-10.8-5.1-9.7-10.8C561.5,595.3,579.8,577.7,601.3,576.2z"/>
</svg>
