<svg version="1.1" xmlns="http://www.w3.org/2000/svg" xmlns:xlink="http://www.w3.org/1999/xlink" x="0px" y="0px" viewBox="0 0 1000 1000" style="enable-background:new 0 0 1000 1000;" xml:space="preserve">
<style type="text/css">
	.st0{fill:#FFD400;}
	.st1{fill:#EDEDED;}
	.st2{fill:#FF002C;}
	.st3{fill:#000000;}
</style>
<path class="st0" d="M488,387c36.1-5.9,73.8,1.1,106.2,17.7c12.7,6.6,24.7,15,34.6,25.3c10.9,11.3,19.9,24.2,26.9,38.2
	c7.9,14.9,12.6,31.3,16,47.8c4.6,23.8,4.9,48.4,2,72.4c-2.4,18.6-7.2,37-15.5,53.9c-9.7,21.6-24.5,41-43.3,55.5
	c-2.6,1.9-5.1,3.9-8.1,5.2c-3.3,1.4-7.4-1.5-7.2-5c0-2.2,1.5-4,3.2-5.1c7.7-5.1,14.9-11.1,20.8-18.3c1-1.1,1.5-2.5,2-3.9
	c-10.8,2.5-21.4,5.7-32.4,7.4c-39.7,6.7-80.3,7.6-120.4,3.4c-24.5-3.4-48.9-7.7-72.6-14.7c-5.4-1.3-10.3-4.2-15.8-4.7
	c-0.2,3.3,2.1,5.9,3.8,8.4c8.3,11.7,19.7,20.7,31.2,29c3.5,2.1,3.3,8.2-0.7,9.5c-2.5,1.2-5.2-0.3-7.4-1.6
	c-13.5-8.4-25.2-19.5-35.1-31.9c-11.7-14.7-21.1-31.2-27.2-49c-11-33.3-12.4-69.3-6-103.7c6-32,21.3-62.3,44.7-85.1
	C414.9,411.2,450.3,392.7,488,387 M505.5,396.9c-37.1,2-73.1,17.2-101,41.5c-5.7,5.3-12.1,10.8-14.4,18.6
	c-1.6,4.6-0.2,10.3,3.8,13.1c3.1,2.3,7,3.1,10.8,4c7.8,1.7,15.6,3.3,23.5,4.8c39.8,7.5,80.5,10,120.9,10.6
	c19.8,0.3,39.6-0.9,59.4-2.3c8.6-0.8,17.3-1.3,25.8-3c3.5-0.8,7.4-2.6,8.3-6.4c1.3-4.4-0.8-8.7-2.8-12.5
	c-7.1-13.6-16.8-25.9-28.6-35.6c-14.6-12.2-32.1-20.3-50.2-25.9C543.1,398.3,524.2,395.8,505.5,396.9"/>
<path class="st3" d="M430.4,510.6c8.5-1.4,17.4,0.6,24.5,5.4c10.1,6.7,16.6,17.8,19.5,29.4c3.6,15,1.8,31.6-6,45c-4.8,8.4-12.2,15.5-21.4,18.8
	c-9.3,3.5-20.1,2.3-28.5-2.8c-10.8-6.4-17.8-17.9-20.9-29.9c-4.3-17.1-1.4-36.3,9.3-50.6C412.6,518.3,421,512.6,430.4,510.6"/>
<path class="st3" d="M609.5,523.7c8.1-2.5,17.3-0.4,23.8,4.9c19.1,15.8,18.6,49.4-0.8,64.9c-6.4,5.1-15.2,7.2-23.2,4.9
	c-8.7-2.4-15.6-9.3-19.4-17.3c-7.3-15.2-5.5-34.8,5.2-47.9C598.9,528.7,603.8,525.2,609.5,523.7"/>
<path class="st3" d="M508,593c9.6-9.5,24.4-13.2,37.2-9.2c11.1,3.5,21.3,10.6,27.5,20.5c1.2,2,2.6,4.4,1.6,6.8c-1,3-5.1,4.2-7.5,2.1
	c-2.1-2-3.3-4.6-5-7c-3.1,3.6-6.2,7.2-9.4,10.8c3.1,5,5,11,3.9,16.8c-1.2,7.8-6.1,14.7-12.8,18.6c-9.5,5.6-21.9,5.8-31.4,0.3
	c-11.3-6.1-18.2-19.2-17.2-32C495.8,610.4,500.6,600.4,508,593"/>
<path class="st1" d="M435.8,521.8c6.9-0.3,13.5,3.3,18.1,8.3c7.2,7.8,10.5,18.5,10.8,28.9c0.3,11.4-3,23.3-10.8,31.9
	c-4.9,5.5-12.3,9.4-19.8,8.7c-7.8-0.6-14.5-5.6-18.8-11.8c-7-10-9.1-22.8-7.3-34.8c1.6-10.3,6.5-20.6,15.1-26.9
	C426.8,523.4,431.2,522.1,435.8,521.8z"/>
<path class="st1" d="M612.4,532.6c5.1-1.4,10.8-0.2,14.9,3.2c7.2,5.7,10.6,15.2,10.6,24.2c0.2,9.2-2.9,18.8-9.8,25.1
	c-4.2,3.9-10.2,5.8-15.8,4.3c-5.8-1.5-10.4-6.1-13.2-11.3c-4.4-8.3-5.1-18.3-2.6-27.3C598.8,542.9,604.3,535.3,612.4,532.6z"/>
<path class="st2" d="M517.4,614.6c5-1.8,10.5-1.1,15.6,0.2c6.7,2.1,13.2,7.7,13.4,15.2c0.4,7.5-5.7,14.1-12.7,15.9
	c-10.5,3.4-23.9-2.8-26.3-14C505.5,624.6,510,616.3,517.4,614.6z"/>
</svg>
