<svg version="1.1" xmlns="http://www.w3.org/2000/svg" xmlns:xlink="http://www.w3.org/1999/xlink" x="0px" y="0px" viewBox="0 0 1000 1000" style="enable-background:new 0 0 1000 1000;" xml:space="preserve">
<style type="text/css">
	.st0{fill:#EDEDED;}
	.st1{fill:#FF002C;}
</style>
<path class="st0" d="M450.5,281.8c20.8-2.6,41.9-1.3,62.4,2.7c37,7.5,73.6,19.1,106.4,38.2c23.5,13.8,46.7,29.5,64.2,50.8
	c11.1,13.5,19.6,29,26,45.2c7.1,18.4,10.8,37.8,13.4,57.2c3.4,23.5,3.7,47.3,2.2,70.9c-1.5,25.6-5.1,51.1-11.4,75.9
	c-4.6,18-10.6,35.8-19.4,52.2c-13.1,24.5-33.5,44.9-57.6,58.5c-16.9,9.5-35.2,16.3-54,20.8c-16.3,4-32.9,6-49.5,8.1
	c-25.3,3.1-50.8,4.4-76.2,2c-21.8-1.8-43.4-5.2-64.6-10.6c-19.8-5.2-39.2-12.5-56.3-23.9c-24.3-16.4-45.4-38.5-57.8-65.3
	c-15.8-33.1-20.7-70.2-20.1-106.6c0.7-41.3,7.1-82.8,21.6-121.6c8.6-24,20.6-46.8,35.2-67.7c14.7-21.1,32.7-40.2,53.9-54.9
	C393.2,297.3,421.1,285.5,450.5,281.8"/>
<path class="st1" d="M450.5,301.7c31.1-3.3,62.4,1.3,92.4,9.4c14.2,3.6,28.2,8.3,41.5,14.5c29.1,13.4,57.5,29.8,79.4,53.5
	c13.4,14.7,23.2,32.5,29.7,51.2c6.4,17.9,9.1,36.9,11,55.7c4.6,43.1,1,86.8-7.9,129.1c-4,16.2-8.3,32.6-16.6,47.2
	c-8,14.6-18.4,27.9-31.1,38.7c-11.4,9.6-24.4,17.1-37.9,23.2c-37.2,16-77.7,23.3-118.1,23.9c-38.4,0.6-76.9-6-113-19.1
	c-14.9-5.5-29.5-12.2-42.4-21.5c-15.7-11.3-28.9-26-38-43c-7.6-14.2-13.1-29.5-17-45.1c-4.9-20-6.4-40.7-6.1-61.2
	c0.3-39.1,7.8-77.9,20.6-114.8c5.6-15.7,12.5-30.9,20.6-45.5c12.2-21.8,27.2-42.4,46.5-58.5C388.5,318.8,418.7,304.7,450.5,301.7z"
	/>
</svg>
