<svg version="1.1" xmlns="http://www.w3.org/2000/svg" xmlns:xlink="http://www.w3.org/1999/xlink" x="0px" y="0px" viewBox="0 0 1000 1000" style="enable-background:new 0 0 1000 1000;" xml:space="preserve">
<style type="text/css">
	.st0{fill:#000000;}
	.st1{fill:#FFFFFF;}
	.st2{fill:#F78200;}
	.st3{fill:#D15B31;}
	.st4{fill:#F32525;}
</style>
<path class="st0" d="M481.4,521.5c-1.9-1.7-1.1-5.4,1.7-5.3c16.4-0.9,32.8-1.5,49.2-2.3c1.7-11,0.9-23-5.7-32.3
	c-4.7-6.8-12.2-11.6-20.5-12.2c-13.7-1.5-26.8,5.1-36.8,14c-12.2,11.2-20.8,26.6-23,43c-1.5,10.8,0.3,22.5,7.2,31.2
	c5.3,6.9,13.9,10.9,22.6,11c11.6,0.2,22.5-5.2,31.4-12.4C498.7,544.5,490,533,481.4,521.5z"/>
<path class="st0" d="M665.9,621.8c7.9,0.2,15.3-3.7,21.2-8.7c-5.7-7.4-11.5-14.8-17.2-22.1c-1-1.2-2.1-2.8-1.3-4.3
	c0.9-2.1,3.5-1.9,5.3-2.1c10-0.3,20-0.9,29.9-1.3c1.6-9.3-0.1-20.2-7.7-26.5c-6.4-5.7-16-5.4-23.4-2c-11.8,5.3-20.4,16.3-24.6,28.4
	c-3.2,9.2-3.9,19.9,1,28.6C652.5,617.8,659,621.7,665.9,621.8z"/>
<path class="st0" d="M754.8,765c-3.2-9.8-9.4-19.3-18.8-24c-5.3-2.7-11.4-1.9-16.9-0.4c-12.4-17.2-27.1-32.8-43.6-46
	c-11.7-9.3-24.5-17.3-37.6-24.5c0.3-10.5-5-21.2-14.2-26.6c-11.5-7-25.3-6.9-38.2-9.1c-13.2-2.2-25.8-7.5-37.2-14.6
	c-8.3-4.8-16.3-10.6-25.7-13.1c-11.6-3-24.7-0.8-34.1,6.9c-7.6,6.1-12.2,15.8-11.8,25.5c0,10.3,5.5,19.7,12.5,26.8
	c8.4,8.2,19,13.8,29.8,18.4c20.6,8.6,42.9,12.3,65.1,13.6c5.1,22.9,7.9,46.4,6.5,69.9c-4.4,2.4-8.8,5.1-11.7,9.2
	c-3.8,5.2-4.8,11.8-4.6,18.1c0.3,8.9,0.4,18.3,4.2,26.6c2.3,5.1,7,9,12.5,10.2c7.8,1.7,15.9,0.5,23.5-1.2c14.2-3.4,27.7-9.5,40-17.1
	c2.8-1.8,6.3-0.7,9.5-1c15.9,0,31.2-6,44-15.1c13.8,5.1,30.6,2,41.2-8.4C755.5,783,757.6,773.3,754.8,765z"/>
<path class="st1" d="M489.2,628.9c3.4-6.7,10.7-10.3,17.8-11.8c9.3-1.5,19,1.2,26.8,6.2c6.9,4.1,13.2,9.1,20.4,12.8
	c10.7,5.5,22.3,9.8,34.4,10.8c9.9,1.2,20.6,0.8,29.5,6.1c5.4,3.2,7.8,9.6,7.4,15.7c-18.9,1.2-37.9-1.3-56.3-5.5
	C540.8,656.4,513.9,644.3,489.2,628.9z"/>
<path class="st1" d="M487.6,634.7c26.4,16.2,55.3,29,85.7,35.2c3.3,5.9,5.8,12.2,8.2,18.6c-18.2-1.1-36.4-4.6-53.6-10.7
	c-12.2-4.6-24.3-10.8-33.2-20.5C489.1,651.3,486.5,642.8,487.6,634.7z"/>
<path class="st2" d="M589.4,677.8c15.1,2.2,30.5,1.9,45.6-0.6c27.4,18.5,51.6,41.7,70.9,68.5c-4.3,1.9-7.9,5-12.2,6.8
	c-17.3-1.7-35.5,0.9-50.4,10.3c-12.6-4-26.2-2.7-38.6,1.1C606.9,734.6,602.5,704.3,589.4,677.8 M629.3,685.5
	c-5.3,1.2-9.8,5.9-9.8,11.5c0.4,8.2,8.6,14.6,16.6,14c6.8,0,13.2-5.9,12.5-12.9C647.7,689.2,637.7,683.3,629.3,685.5 M662.4,714.6
	c-8.2,2.5-11.6,12.4-8.8,20.1c2.4,8.6,12.7,15.5,21.3,11.2c8.7-4.2,10.1-16.3,5-23.8C676.5,716.1,669.1,712.5,662.4,714.6
	 M623.3,717.1c-14.4,4.2-18.5,26.1-7.1,35.7c4.3,3.7,10.9,4,15.6,1c10.4-6.4,12.9-22.4,5.2-31.8C633.7,718,628.2,716,623.3,717.1z"
	/>
<path class="st3" d="M689.5,768.5c9-9,20.9-15.3,33.5-17c5.5-0.9,10.7,2.4,13.8,6.7c3.4,4.7,6.3,10,7.2,15.8c0.7,4.3-2.6,8-6.1,10
	c-9.2,5.6-21.3,6-30.6,0.5c-1.9-0.8-3.7-2.9-5.9-2.1c-2.5,1.6-1.4,4.9-1.7,7.3c-1.2,2.1-3.6,3.2-5.7,4.3c-7.9,3.8-16.5,5.9-25.1,6.5
	c-5.3,0.3-10.8,0-15.5-2.8c-1.3-0.9-2.7,0.2-3.7,1c-14.1,11.5-32,17.6-50,18.8c3.9-7.9,2.8-17.2,0.1-25.3
	c-1.8-5.2-4.9-10.6-10.5-12.4c8.4-6.5,19.2-8.7,29.6-9.6c9.9-0.5,20.1,0.5,29.1,4.8c2.9,1.3,5.2,3.6,8,5.1c1.4,0.5,2.9-0.7,2.7-2.2
	c-0.4-3.5-6.3-5.4-4.1-9.3c3.6-4.6,9.9-5.3,15.2-6.4c4.3-0.5,9.3-2.1,13.2,0.6c2.5,1.8,0.1,5.2,1.9,7.4
	C686.8,771.2,688.2,769.7,689.5,768.5z"/>
<path class="st3" d="M585.8,791c0-1.7,1.2-2.9,2.1-4.1c1.4,1,2.9,2.1,3.6,3.8c2.4,5.1,3.7,10.7,4.3,16.3c0.2,3.2,0.2,6.7-1.8,9.3
	c-2.9,1-4.7-2.3-5.4-4.6C586.7,804.9,585.3,798,585.8,791z"/>
<path class="st4" d="M630.4,691.5c5.3-1.5,12.9,2.3,12,8.5c-2.4,7.3-13.9,5.2-16.2-1.2C624.7,695.7,627.3,692.2,630.4,691.5z"/>
<path class="st4" d="M664.4,719.4c6.6-1.5,11.5,5.7,11.9,11.6c0.6,4.4-2.2,10-7.2,9.8c-7-0.5-11-8.4-9.9-14.8
	C659.5,723.1,661.4,720.1,664.4,719.4z"/>
<path class="st4" d="M624.4,722.6c4-1.6,8.4,1.2,9.8,5c2.9,7,0.8,16.6-5.9,20.8c-4.2,2.6-9.7,0-11.3-4.4
	C614,736.6,616.5,725.8,624.4,722.6z"/>
</svg>
