<svg version="1.1" xmlns="http://www.w3.org/2000/svg" xmlns:xlink="http://www.w3.org/1999/xlink" x="0px" y="0px" viewBox="0 0 1000 1000" style="enable-background:new 0 0 1000 1000;" xml:space="preserve">
<style type="text/css">
	.st0{fill:#EDEDED;}
	.st1{fill:#000000;}
</style>
<path class="st1" d="M726.7,195.3c-11-8-26.6-9.8-38.7-3.4c-9.2,4.7-15.3,13.5-19.4,22.7c-4.6,10.2-8.5,21.2-16.7,29.2
	c-5.7,5.7-13.7,9.3-21.8,8.6c-5.5-0.3-10.7-3.1-14.1-7.3c-6.6-8.1-9.9-18.6-9.9-29.1c-0.2-14.7-0.6-29.6-5.2-43.7
	c-4.2-15.3-12-29.7-22.9-41.3c-13.2-14.4-31-24-49.6-29.5c-5-1.7-10.8-2.4-14.7-6.3c-2.5-2.4-2.8-6-2.8-9.2c0-28.7,0-57.4,0-86h-16
	c0,29,0,58,0,87.1c0,3.4-0.2,7.4-3.3,9.6c-5.7,4.5-12.7,6.9-19.3,9.8c-10.8,4.4-21,10.4-29.7,18.3c-3.7,3.2-6.8,7-10.7,9.9
	c4.9-11,12-21.4,13.8-33.6c1.2-7.5-0.8-16.1-6.8-21c-6-4.9-16.1-4-20.6,2.4c-2,2.5-1.6,7.3,2,8.1c3.7,0.4,7-2.3,10.7-2.1
	c4.2,0.9,5.8,5.6,5.9,9.4c0.6,9.8-5.1,18.4-9.2,26.8c-11.3,20.3-18,43.1-18.5,66.4c-1.1,20.2,3.9,40.8,14.7,58
	c12.4,20.1,32.4,35.3,55.1,41.9c18.8,5.6,39.3,5.3,57.9-0.8c23.6-7.7,44.3-24.6,55.4-46.9c1.5-2.9,4.7-7.4,8.4-5.1
	c4,3.3,5.7,8.4,8.8,12.4c4.6,6.7,12.5,10.5,20.5,10.8c10.4,0.6,20.7-4,28.1-11.3c7.1-6.8,11.6-15.8,15.4-24.7
	c3.4-8,6.9-16.5,13.7-22.3c6.9-6,17.9-7.1,25.4-1.7c4.9,3.3,7.2,9.6,12.7,12.3c3.3,1.6,7.6-0.2,8.5-3.9
	C735.4,204.1,731.1,198.6,726.7,195.3z"/>
<path class="st0" d="M506.1,119.2c5.9-2.5,12.7-2.9,18.8-0.9c1.9,1.8-0.6,4.4-1.6,6c-9.3,11.5-18.3,23.3-26.1,35.9
	c-19.3,30.3-33.2,63.8-43.3,98.2c-0.5-1.8-0.6-3.6-0.5-5.4c1.1-40.5,12.9-80.8,34.6-115C492.7,130.7,498.2,123.2,506.1,119.2z"/>
<path class="st0" d="M471.2,124.3c7.2-3.4,14.8-6.1,22.8-7c-0.5,2.4-2.2,4.2-3.6,6.1c-3.9,5.2-7.5,10.6-10.9,16.1
	c-1,1.7-2.1,3.4-3.6,4.7c-3.9-1.3-6.9-4.7-10.4-6.9c-2-1.7-5-2.7-5.9-5.3C462.8,128.6,467.1,126.5,471.2,124.3z"/>
<path class="st0" d="M534.8,124.8c5.3-1.7,11.7,0.2,15.1,4.7c-1,1.4-2,2.8-3.3,4c-38.2,33.7-64.9,79.6-78.2,128.7
	c-0.5,1.7-1.4,3.1-2.4,4.6c-2.1-0.9-5-1.4-5.8-3.9c-0.2-3.5,1.3-6.9,2.1-10.3c12.9-43.4,33.6-84.8,62.3-119.9
	C527.5,129.5,530.7,126.3,534.8,124.8z"/>
<path class="st0" d="M554.4,136.7c3-1.4,6.6-0.1,8.8,2.2c1.5,1.6,4.1,3.3,3.5,5.9c-1.6,2.9-4.6,4.6-7.1,6.8
	c-23.2,19.3-41.2,44.2-55.4,70.7c-8.4,15.7-15,32.2-20.9,48.9c-1.1,4.5-7.1,2.2-8.7-0.7c-1.1-3.9,0.3-7.9,1.3-11.6
	c12.1-41.8,34.3-81,65.3-111.8C545.3,143.4,549.1,138.9,554.4,136.7z"/>
<path class="st0" d="M449.3,140.3c4-2.3,8.6,0.2,12,2.4c3.1,2.2,6.5,4,9,6.9c1.9,2.2,0.6,5.2-0.4,7.6c-1.3,2.7-2.5,6.3-5.9,6.8
	c-7.8,1.4-15.7,1-23.5,0.4c-1.8-0.3-4.2-0.2-5.1-2.1c-0.2-5.2,3.3-9.6,6.2-13.6C443.9,145.6,446.1,142.4,449.3,140.3z"/>
<path class="st0" d="M554,165c5.1-4.6,10.1-10.2,17-11.5c4.5,0.4,7,4.9,8.8,8.6c2.2,5.1,4.9,10.3,5.1,16c-0.2,5.4-4.8,9.1-8.2,12.8
	c-19.1,18.8-37.1,39-51.2,61.8c-2.5,3.9-4.5,8.2-7.8,11.6c-2.5-3.2-2.4-7.4-3-11.2c-0.8-8.3-2.6-16.6-2-25c0.5-8.5,5-15.9,9-23.2
	C531,190.4,541.7,176.9,554,165z"/>
<path class="st0" d="M431.3,172.6c6.8-1.7,13.8-0.7,20.7-1c3.5,0.2,7.5-0.8,10.5,1.5c0,2.6-1.4,6.2-4.4,6.5
	c-5,0.5-10.1,0.2-15.1,0.3c-4.4-0.1-8.9,0.4-13.3-0.5C426.1,178.5,428.3,172.8,431.3,172.6z"/>
<path class="st0" d="M425.9,191.8c0.4-5,6.3-5.4,10.1-5.4c6.2,0.2,12.8-1.3,18.7,0.9c2.5,1.1,1.4,4.4,1.1,6.5
	c-3.9,14.9-6.8,30.1-8.1,45.5c-0.4,4-0.2,8.1-1.5,11.9c-4.7-3.6-7.6-8.9-10.6-13.9C428.1,223.5,423.9,207.4,425.9,191.8z"/>
<path class="st0" d="M579.9,196.9c2-1.9,4.3-3.3,7-3.9c2.1,5.1,0.8,10.7,0.3,16c-0.7,3.3-0.6,7.4-3.6,9.5c-3.2,1.8-7,1.6-10.6,2
	c-4.8,0.2-9.6,1.3-14.3,0.3c1-3.6,3.9-6.2,6.3-8.9C569.8,206.8,574.7,201.7,579.9,196.9z"/>
<path class="st0" d="M562.5,227.7c4.5-0.3,9-0.9,13.5-0.9c1.7,0.1,3.9,0.2,4.6,2.1c-0.5,3.8-2.4,7.2-4.2,10.5
	c-10.2,17.2-27,30.3-46.2,36c-2.3,0.6-4.8,1.4-7.2,0.7c-2-2-0.1-5,0.7-7.2c6.1-12.3,13.7-24,22.8-34.3
	C550.5,229.9,556.6,227.9,562.5,227.7z"/>
<path class="st0" d="M501.8,243.8c1-1.7,2.4-3.2,4-4.3c0.9,2,1.6,4.2,1.7,6.4c1,9,2.1,18,2.9,27.1c0.2,2,0.1,5.1-2.5,5.1
	c-5.2,0.6-10.8,0.5-15.7-1.4c-2.9-1.1-2.1-4.7-1.5-7C493.6,260.8,496.9,251.8,501.8,243.8z"/>
</svg>
