<svg version="1.1" xmlns="http://www.w3.org/2000/svg" xmlns:xlink="http://www.w3.org/1999/xlink" x="0px" y="0px" viewBox="0 0 1000 1000" style="enable-background:new 0 0 1000 1000;" xml:space="preserve">
<style type="text/css">
	.st0{fill:#EDEDED;}
	.st1{fill:#FFD400;}
	.st2{fill:#E94000;}
	.st3{fill:#000000;}
</style>
<path class="st0" d="M452.5,396.3c32.8-12.4,69.5-15,103.5-6c27.5,7.1,54.2,20,73.9,40.8c13.7,14.4,24.3,31.6,31.8,50
	c14.2,36.4,17,76.6,11,115.1c-3,18-8.6,35.5-16.9,51.6c-8.1,16.6-19.5,31.5-33.1,43.9c-4.7,4.1-9.5,8.1-14.9,11.1
	c-3.7,2.4-9.1-1.4-8-5.7c1-3.8,5.1-5.1,7.8-7.4c6.8-5.3,13.9-10.9,18.3-18.4c-1.8-0.4-3.6,0.2-5.3,0.7c-22,6.4-44.8,9.1-67.6,11.1
	c-26.4,1.9-53,1.3-79.3-1.4c-24.5-3.3-49-7.7-72.7-14.6c-5.6-1.3-10.8-4.3-16.5-5c-0.1,3.3,2.1,5.9,3.8,8.5
	c8.1,11.5,19.2,20.3,30.5,28.5c1.8,1.1,2.8,3,3.5,4.9c-0.6,2-1.3,4.4-3.6,5.1c-2.5,1.2-5.2-0.3-7.3-1.6
	c-14.3-8.9-26.6-20.8-36.9-34.1c-9.7-12.6-17.8-26.5-23.5-41.4c-7.5-19.5-10.7-40.3-11.7-61.1c-0.4-21.2,1.6-42.6,7.3-63.1
	c5.2-17.9,13.1-35.1,24.1-50.2C391.2,429.8,420.3,408.8,452.5,396.3 M495.5,397.8c-33.3,3.9-65.1,18.4-90.5,40.2
	c-5.9,5.5-12.5,11.1-14.9,19.1c-1.6,4.3-0.4,9.7,3.2,12.6c2.8,2.3,6.3,3.3,9.8,4.1c21.4,4.7,43,8.8,64.9,11.1
	c22.9,2.4,46,4.1,69,4.3c24.1,1.1,48.2-0.4,72.2-2.1c8.4-0.7,16.8-1.2,25-2.9c3.5-0.8,7.4-2.6,8.3-6.3c1.5-5.3-1.6-10.2-4-14.7
	c-8.4-15.5-20.4-29-34.9-39.1c-14.1-9.9-30.2-16.7-46.8-21.4C537.1,397,516,395.3,495.5,397.8"/>
<path class="st1" d="M374.3,483.6c4.1-1.3,8.5-0.3,12.6,0.4c10.6,2.1,21.2,4.6,31.9,6.6c17.9,3.3,36,5.9,54.1,8.1
	c30.9,2.8,62,5,93.1,3.7c20.7-0.1,41.4-1.4,62-4.2c6.4-0.6,12.7-2.1,19.1-2.5c3.8-0.4,7,2.4,8.4,5.7c2.9,6.2,3.8,13.1,4.9,19.8
	c1.6,11.9,3.5,23.8,3.5,35.8c0.2,18.9-1,38.1-6.5,56.3c-3.4,11.1-7.1,22.4-14.3,31.7c-6.3,7.1-15.9,9.9-24.7,12.6
	c-22,6-44.6,10.1-67.5,11.6c-19.3,1-38.7,1-58,0c-21.7-1.4-43.2-4.8-64.4-9.7c-13.2-3-26.1-7.2-38.5-12.6
	c-8.4-3.7-16.8-8.1-23.1-14.9c-7-7.7-10-18-12.1-27.9c-3.9-18.6-4.5-37.7-3-56.6c1.1-12.8,3.2-25.6,7.1-37.9
	c2.1-6.6,4.1-13.2,7.7-19.1C368.4,487.5,370.9,484.7,374.3,483.6"/>
<path class="st3" d="M430.5,510.6c8.5-1.4,17.4,0.6,24.5,5.4c10.1,6.7,16.6,17.8,19.5,29.4c3.6,15,1.8,31.6-6,45.1c-4.8,8.4-12.2,15.5-21.4,18.8
	c-9.3,3.5-20.1,2.3-28.5-2.8c-11.1-6.6-18.1-18.4-21.1-30.7c-4-16.9-1.1-35.8,9.5-49.8C412.6,518.3,421.1,512.5,430.5,510.6"/>
<path class="st3" d="M609.5,523.7c6.5-2,13.7-1.1,19.7,2.2c8,4.3,13.4,12.3,16.1,20.8c4.8,15.4,1.4,33.8-10.5,45c-5.3,4.9-12.5,8-19.7,7.6
	c-8.7-0.3-16.7-5.5-21.6-12.5c-7.9-11.1-9.7-26-5.8-39C590.6,537,598.4,526.7,609.5,523.7"/>
<path class="st3" d="M507.5,593.5c9.4-9.7,24.1-13.7,37.1-9.9c11.3,3.4,21.9,10.6,28.1,20.8c1.2,2,2.6,4.3,1.6,6.7c-1,3-5.1,4.2-7.5,2.1
	c-2.1-2-3.3-4.6-5-6.9c-3.1,3.6-6.3,7.2-9.4,10.8c3.3,5.3,5.2,11.8,3.7,18c-1.9,9.8-9.9,17.8-19.5,20.5c-11.8,3.8-25.5-0.4-33.5-9.8
	c-6.5-7.5-9.7-17.9-8-27.8C496.6,608.8,501.1,600.2,507.5,593.5"/>
<path class="st0" d="M435.8,521.8c6.9-0.3,13.5,3.3,18.1,8.3c7.2,7.8,10.5,18.5,10.8,28.9c0.2,10.7-2.6,21.8-9.4,30.3
	c-4.2,5.3-10.4,9.6-17.3,10.2c-6.6,0.8-13.3-2-18-6.5c-7.3-6.7-11.1-16.4-12.2-26.1c-1.4-12.7,1.6-26.3,10.1-36.1
	C422.3,525.7,428.8,522,435.8,521.8z"/>
<path class="st0" d="M612.4,532.6c5.1-1.4,10.8-0.2,14.8,3.1c7.3,5.7,10.6,15.2,10.6,24.3c0.2,8.9-2.7,18.3-9.3,24.5
	c-3.8,3.8-9.3,6-14.7,5.2c-6.1-0.8-11.1-5.2-14.2-10.3c-5-8.5-6-19.2-3.3-28.6C598.8,542.9,604.3,535.3,612.4,532.6z"/>
<path class="st2" d="M517.4,614.6c5.3-1.8,11.1-1.1,16.4,0.5c6.7,2.4,13,8.4,12.6,16c-0.2,8.2-7.7,14.5-15.4,15.4
	c-10.2,1.9-22-4.8-23.7-15.4C505.7,624,510.4,616.3,517.4,614.6z"/>
</svg>
