<svg version="1.1" xmlns="http://www.w3.org/2000/svg" xmlns:xlink="http://www.w3.org/1999/xlink" x="0px" y="0px" viewBox="0 0 1000 1000" style="enable-background:new 0 0 1000 1000;" xml:space="preserve">
<style type="text/css">
	.st0{fill:#000000;}
	.st1{fill:#FFD400;}
	.st2{fill:#EDEDED;}
</style>
<path class="st0" d="M475.9,48.1c-1.5-6.7,7.4-11.2,12.6-7.4c27.8,20.4,48.7,51.6,52.2,86.4c4.1-5.2,7.1-11.3,8.1-17.9
	c0.7-3.4,0.2-7.7,3.2-10.2c3.3-3.2,9.1-1.9,11.2,1.9c10.2,15.4,17.7,32.8,21,51.1c3.8,20.2,3,41.6-4.3,61
	c-5.6,15.4-16.2,28.9-29.7,38.2c-26.3,17.8-61.3,21.8-91.1,11c-17.5-6.8-33.4-19.4-41.5-36.7c-4.7-9.5-6.5-20.4-5.2-30.9
	c2.2-23.5,16.6-43.9,18.6-67.4c0.3-6.3,0.2-12.8-2.1-18.8c-1.6-3.4-0.8-7.9,2-10.5c3-2.5,7.2-2.2,10.8-1.2c11.1,3.3,21,10,28.8,18.5
	c10.1-15.4,15.9-34.8,11.1-53C480.5,57.1,477.6,52.8,475.9,48.1"/>
<path class="st1" d="M496.9,66.9c16.3,16.7,27.4,38.6,29.9,61.9c0.5,5.1,0.8,10.2,0.9,15.3c0.6,4.8,6.9,7.3,10.7,4.5
	c9-6.7,16.4-15.6,21.3-25.7c9.9,19.7,14.2,42.2,12,64.1c-1.9,15.5-7.4,31-18.1,42.6c-10,11.2-23.9,18.1-38.3,21.8
	c-17.4,4.3-36.1,3.5-52.8-3.1c-15.2-6.4-29-18.2-34.3-34.3c-4.2-11.7-1.5-24.5,2.3-35.9c5.6-15.8,12.7-31.4,14.4-48.2
	c0.6-5.7,0.4-11.4-0.2-17.1c8.1,4,14.9,10.3,20.2,17.5c2.5,4.1,8.8,4,11.6,0.2C490.9,112.9,499.5,89.8,496.9,66.9"/>
<path class="st0" d="M485.6,145.5c-1.4-3.1,2.7-6.5,5.5-4.6c13.4,8.3,23.7,21.7,27.3,37.1c2.2-2.7,3.2-5.9,4.2-9.2c1-3,5.4-3,7-0.4
	c7.4,9.5,12.2,21.5,11.8,33.7c-0.2,11.6-4.8,23.3-13.5,31.1c-10.5,9.3-25.2,13.2-39,11.3c-9.8-1.2-19.8-4.3-27.1-11.2
	c-7.6-6.8-10.3-18.1-7.7-27.8c2-10,8.8-18.8,8.1-29.4c0.1-2.9-2.5-5.8-0.9-8.6c1.1-1.9,3.6-2,5.6-1.7c5.8,0.9,10.8,4,15.4,7.4
	C487.5,165,488.8,154.6,485.6,145.5"/>
<path class="st2" d="M495.5,154.2c6.7,6.5,12.6,14.5,14.2,23.8c0.6,3,0.5,6.2,1.3,9.2c0.6,2.4,3.6,3.8,5.8,2.5
	c4.5-2.3,7.9-6.4,10.6-10.6c4.2,7.5,6.6,16.2,5.9,24.8c-0.6,8.8-4.2,17.6-11,23.4c-8.7,7.7-20.9,10.4-32.3,9
	c-8.5-0.9-17.4-3.4-23.5-9.8c-5.5-5.5-6.1-14.2-4-21.4c2.9-10,8.8-19.4,7.9-30.1c3.5,1.8,6.7,4.1,9.5,6.9c1.8,1.9,4.7,1.2,6.2-0.7
	C492.5,173.8,495.8,163.9,495.5,154.2z"/>
</svg>
