<svg version="1.1" xmlns="http://www.w3.org/2000/svg" xmlns:xlink="http://www.w3.org/1999/xlink" x="0px" y="0px" viewBox="0 0 1000 1000" style="enable-background:new 0 0 1000 1000;" xml:space="preserve">
<style type="text/css">
	.st0{fill:#000000;}
	.st1{fill:#FFFFFF;}
</style>
<path class="st0" d="M489.9,557.4c4.3,0.7,8.7-2.3,9.9-6.5c0.9-2.6,0.2-5.4-0.4-8c-2-7.9-3.8-15.8-5.7-23.6
	c10.8-1.9,21.6-3.6,32.3-5.5c3.3-0.5,6.5-2.6,7.9-5.8c1.8-3.8,0.4-8.6-2.9-11c-2.6-2.1-6.1-2.2-9.2-1.6c-10.9,1.8-21.7,3.7-32.6,5.5
	c-2.4-10-4.8-20-7.2-30c-0.7-3.1-2.1-6.3-5-8c-3-2-7.2-1.8-10,0.3c-3.3,2.3-4.6,6.8-3.6,10.6c2.3,10.1,4.9,20.1,7.3,30.2
	c-11.3,2-22.6,3.8-33.9,5.8c-4.8,0.7-8.8,5.2-8.3,10.2c0.4,5.5,6.2,9.5,11.5,8.3c11.7-1.9,23.5-4,35.2-5.9c2.2,9,4.3,18.1,6.6,27.2
	C482.7,553.5,485.9,556.9,489.9,557.4z"/>
<path class="st0" d="M699.1,566.9c-2.2-3-6.7-3.5-9.8-1.7c-6.5,3.3-13,6.8-19.5,10.2c-3.2-5-6.1-10.1-9.3-15
	c-2.2-3.6-7.6-4.5-10.9-1.8c-2.8,2.2-3.5,6.5-1.7,9.5c2.7,4.8,5.8,9.4,8.6,14.2c-5.5,3-11.1,5.8-16.6,8.8c-3.5,1.7-5.6,6.2-3.8,9.8
	c1.6,3.8,6.6,5.5,10.2,3.5c6.1-3,12-6.3,18-9.4c3.4,5.5,6.7,11,10.2,16.4c1.8,3.1,5.9,5,9.3,3.5c4.1-1.5,5.9-6.9,3.6-10.6
	c-3.1-5.5-6.7-10.8-9.9-16.3c6.4-3.5,13-6.6,19.3-10.2C700.7,575.8,702,570.2,699.1,566.9z"/>
<path class="st0" d="M626,645c-8.1-5.8-18.2-7.7-27.9-8.9c-10.6-1.2-21.3-2.9-31.2-7c-11.4-4.2-21.3-11.4-31.8-17.2
	c-8-4.8-17.4-7.5-26.7-6.4c-13.2,1-25.9,9.8-30.1,22.6c-3.7,10.7-1,22.9,5.9,31.8c8.2,11.3,20.8,18.1,33.3,23.7
	c22.9,9.9,47.9,13.5,72.6,14.6c10.3,0,21-0.5,30.6-4.7c6.9-3.1,13.3-8.5,15.8-15.9C640.3,666,635.9,652.2,626,645z"/>
<path class="st1" d="M489.2,628.9c3.4-6.7,10.7-10.4,17.8-11.9c11.4-1.9,22.6,2.8,31.7,9.3c14.7,10.5,31.6,18.8,49.8,20.5
	c10,1.2,20.7,0.8,29.6,6.1c5.6,3.3,8.1,10.2,7.3,16.5c-23.6,0-47.3-3-69.9-9.9C532,652.4,509.9,641.8,489.2,628.9z"/>
<path class="st1" d="M487.6,634.8c31.2,19.3,66,33.3,102.5,38.1c11.1,1.5,22.4,2.2,33.6,2.3c-2.7,5.1-7.4,8.8-12.9,10.5
	c-8.7,2.7-17.9,3.2-26.9,3c-17.7-0.8-35.4-4-52.3-9.5c-13.4-4.5-26.6-10.9-36.5-21.3C489.3,651.8,486.4,643.1,487.6,634.8z"/>
</svg>
