<svg version="1.1" xmlns="http://www.w3.org/2000/svg" xmlns:xlink="http://www.w3.org/1999/xlink" x="0px" y="0px" viewBox="0 0 1000 1000" style="enable-background:new 0 0 1000 1000;" xml:space="preserve">
<style type="text/css">
	.st0{fill:#000000;}
	.st1{fill:#EDEDED;}
</style>
<path class="st0" d="M685.3,592c-1.1-27.8-4-55.5-7.6-83.1c-2.2-13.7-5.8-28.4-16.4-38.2c-10.4-9.7-25.3-11.2-38.8-12.9
	c-20.8-1.4-41.7-1-62.5-1.7c-44.5-1.6-89.1-2.3-133.7-1.7c-17.6,0.9-36.6,1-51.8,11.1c-10.7,6.9-16.2,19.1-19,31.1
	c-5.1,22.1-5.3,44.9-7.2,67.4c-2.1,25.3-3.5,50.7-2.9,76.1c0.3,12.3,0.2,24.7,3,36.8c2.4,10.2,8.4,20,17.9,25
	c12.1,6.6,26.4,7,39.8,7.7c28,0.9,56-0.3,84-0.8c25-0.6,49.9,0.1,74.9,0.1c25.3-0.1,50.7,0.7,75.8-2.5c13.1-2,27.1-5.9,36-16.4
	c8.1-9.6,9.1-22.8,9.9-34.9C687.5,634,686,613,685.3,592z"/>
<path class="st1" d="M617.8,481.8c1.3-0.7,3.4-1.6,4.2,0.3c-0.3,8.3-0.9,16.7-1.2,25c13.8-6.5,27.5-13.1,41.3-19.6
	c3.7,8.3,5.5,17.2,7,26.1c1.8,10.7,3,21.5,4.1,32.3c-10.9,5.9-21.6,12-32.5,17.8c-1.1-0.9-1.9-2.2-1.4-3.6
	c1.8-10.6,3.7-21.1,5.5-31.7c-20.5,9.7-41,19.4-61.4,29.1c-5.2,2.3-10.2,5.2-15.5,7.1l-1.2-0.5c-0.9-8.5,0.8-17.1,0.7-25.7
	c-20.6,10.4-41.2,20.8-61.7,31.1c-6.6,3.1-12.9,6.8-19.6,9.6c-0.4-0.2-1.2-0.8-1.6-1c0.1-10.2,0.9-20.4,1.3-30.5
	c-26.8,11.6-53.6,23.2-80.3,34.8c-1.3,0.7-3.8,1.3-4-0.8c-1.1-6.5-1.8-13.1-2.7-19.7c-14,6.8-27.9,13.6-41.9,20.4
	c1.7-20.6,3.4-41.2,5.5-61.8c2.9-1.3,5.8-3,8.9-4c1.9,0.4,1.8,2.4,2.1,3.9c1,6.8,2,13.5,3,20.3c19.8-9.7,39.6-19.3,59.5-29
	c5.2-2.4,10.1-5.3,15.4-7.2c0.3,0.2,1,0.7,1.4,0.9c1.4,6.8,1.9,13.7,2.9,20.6c26.7-11.5,53.3-23,80-34.6c1.4-0.8,3.1-0.9,4.7-0.9
	c0.2,10.4-0.9,20.7-1.1,31.1C565.3,508.3,591.6,495,617.8,481.8z"/>
<path class="st1" d="M539,623c26.4-13.3,52.8-26.7,79.2-40c1.3-0.9,3.5-1.2,3.8,0.9c-0.3,8.2-0.9,16.4-1.2,24.6
	c18.4-8.8,36.8-17.5,55.3-26.2c0.9,20.8,1.8,41.5,2.1,62.3c-12.2,6.6-24.3,13.5-36.6,20c-3.9,0.9-2-4.5-1.7-6.6
	c1.7-9.4,3.3-18.8,4.9-28.2c-20.2,9.6-40.3,19.1-60.4,28.7c-5.9,2.5-11.4,6.2-17.7,7.7c-1-8.7,0.7-17.5,0.7-26.3
	c-21.4,10.8-42.8,21.6-64.1,32.3c-5.8,2.7-11.3,6-17.2,8.4c-2.3-0.3-1.6-3-1.6-4.6c0.5-9,0.8-18,1.3-26.9
	c-26.7,11.6-53.4,23.1-80.1,34.7c-1.5,0.8-4.2,1.6-4.3-0.9c-1.1-6.5-1.8-13-2.7-19.5c-13.1,6.4-26.1,12.8-39.2,19.1
	c-3.4-7.7-4.2-16.2-4.7-24.5c-0.7-10.7-0.4-21.5-0.4-32.2c5.1-2.4,10.2-4.9,15.3-7.2c1.2-0.8,3.2-0.3,3.2,1.4
	c1.3,7.4,2.2,14.8,3.4,22.2c24.2-11.8,48.4-23.6,72.6-35.4c1.1-0.6,3.3-1.3,3.7,0.4c1.3,6.7,1.9,13.5,2.9,20.2
	c27-11.7,54.1-23.4,81.1-35c1.4-0.9,4.1-0.8,3.6,1.5C540.1,603.6,539.3,613.3,539,623z"/>
</svg>
