<svg version="1.1" xmlns="http://www.w3.org/2000/svg" xmlns:xlink="http://www.w3.org/1999/xlink" x="0px" y="0px" viewBox="0 0 1000 1000" style="enable-background:new 0 0 1000 1000;" xml:space="preserve">
<style type="text/css">
	.st0{fill:#000000;}
	.st1{fill:#AAAAA9;}
	.st2{fill:#4A4F4F;}
	.st3{fill:#FF002C;}
	.st4{fill:#EDEDED;}
	.st5{fill:#464B4B;}
</style>
<path class="st0" d="M244,490.1c-2.8-2.2-6.4-2.3-9.8-2.7c-15.9-1.3-31.8-2.7-47.6-4.1c0.8-16.8,1.3-33.7,2.7-50.5
	c1.5-18.2,2.4-36.5,3.3-54.8c1.6-29.7,1.9-59.4,3.8-89.1c1.7-26,4.5-52,7.3-77.9c1-10.5,2.6-21.4-1-31.6c-2.7-7.9-9-13.8-14.4-19.9
	c-13-13.9-25.7-28.2-38.5-42.3c-2.6-2.7-5.1-5.8-8.4-7.6c-2.3-1.2-5.4-0.3-6.6,2c-1.3,2.5-1.3,5.4-1.5,8.2
	c-0.9,27.7-3.6,55.3-5.3,83c-3.6,54.3-7.5,108.6-11,163c-2.3,36.1-4.2,72.2-7,108.3c-12.9-1-25.9-1.7-38.9-2.3
	c-3.9,0-8.5-0.1-11.3,2.9c-2.4,2.9-1.7,6.8-1.8,10.3c0.2,7.8-2.1,15.3-2.9,23.1c-0.4,3.9,2.2,7.9,6.2,8.4c7,0.9,14.1,1.1,21.1,1.8
	c-8,10.1-7.3,23.5-7.8,35.7c0,19.6-1.2,40.1-10.6,57.7c-5.9,10.6-10.5,22.2-11.2,34.3c-0.7,13.4,4,26.4,10.3,38
	c8,13.9,18.4,26.7,31.6,35.9c-0.6,8.4-1.7,16.7-2.1,25.1c-0.2,4.7-1.2,9.7,0.5,14.2c1.5,3.5,5.7,4.4,9.1,4.6
	c13.3,1.1,26.7,2.1,40,3.9c6,0.7,12,2,18,1.2c3.1-0.4,5.1-3.2,5.3-6.2c0.6-7.4,0.9-14.9,1.8-22.3c4.3-1.8,7.9-4.8,10.8-8.5
	c4.7-6.1,8.3-12.9,11.5-19.8c6.9-15.6,12.2-31.8,16.8-48.2c6.1-22.4,11.9-44.9,14.7-68c1.5-13.6,3.6-27.2,3.7-41
	c-0.1-9.8-2-20.3-8.7-27.9c7.7,0.6,15.4,1.5,23.1,1.1c3.3-0.2,6.6-2.7,6.7-6.2c0.2-8,1.2-16,1.3-24.1C247,495.1,246.3,492,244,490.1
	z"/>
<path class="st1" d="M143.2,148.8c0.4-6.5,0.7-13,1.3-19.5c11.9,12.2,24,24.1,35.5,36.7c6.8,7.3,13,16.5,12.1,27
	c-6.1,96.3-12.9,192.6-19.2,288.9c-5.4-0.5-10.7-1-16.1-1.5c1.2-16.5,2.2-33,3.4-49.5c-11.2-8.8-22.4-17.5-33.6-26.3
	c0.2-3.9,0.3-7.8,0.8-11.7c0.1-0.4,0.2-1.3,0.3-1.8c11.2,8.7,22.3,17.7,33.4,26.5c0.3-3.5,0.5-7,0.7-10.5
	c-11.2-8.7-22.4-17.5-33.6-26.2c0.3-4.7,0.5-9.4,0.9-14.1c11.3,8.4,22.4,17,33.8,25.3c4.2-61.3,8.4-122.7,12.5-184
	c0.3-5.4,0.6-10.9-0.3-16.3c-1-6.3-4.3-11.9-8.1-16.9C159.8,165.6,151.4,157.3,143.2,148.8z"/>
<path class="st2" d="M129.1,366.9c4.8-72.7,9.5-145.4,14.1-218.1c8.2,8.5,16.6,16.8,23.8,26.1c3.8,5,7.1,10.7,8.1,16.9
	c0.9,5.4,0.6,10.9,0.3,16.3c-4.2,61.3-8.4,122.7-12.5,184C151.6,383.9,140.4,375.3,129.1,366.9z"/>
<path class="st2" d="M128.2,381c11.2,8.8,22.4,17.5,33.6,26.2c-0.1,3.5-0.4,7-0.7,10.5c-11.2-8.8-22.2-17.7-33.4-26.5
	c-0.1,0.4-0.2,1.3-0.3,1.8C127.4,389,128.2,385,128.2,381z"/>
<path class="st2" d="M126.7,404.7c11.2,8.7,22.4,17.5,33.6,26.3c-1.2,16.5-2.2,33-3.4,49.5c-11.6-1-23.2-2.5-34.9-3
	C123.5,453.2,125.2,428.9,126.7,404.7z"/>
<path class="st3" d="M69.9,484.9c54.8,4.9,109.6,9.6,164.4,14.5c-0.1,6-0.6,12-0.8,18c-54.9-4.4-109.8-8.6-164.8-13
	C69.2,497.9,69.5,491.4,69.9,484.9z"/>
<path class="st4" d="M102.1,522.1c8.3-3,17.2-1.2,25.7-0.5c-11.2,18.9-20.6,38.9-27.6,59.8c-7.5,21.7-11.4,44.6-12.8,67.4
	c-0.5,15.7-0.8,31.7,2.5,47.1c-6.9-7.5-12-16.4-16.1-25.7c-4.4-10-7.1-21.2-5.9-32.2c1.1-10.4,7.5-19,11.9-28.2
	c6.2-12.3,8.8-26,9.3-39.7c0.2-12.4-0.2-25,3.6-37C93.8,528.3,97.2,523.8,102.1,522.1z"/>
<path class="st5" d="M142.4,524.5c5.7-2,11.7-0.1,17.5,0.1c12.5,1.2,26.1,1.2,36.8,8.7c6.5,4.4,9.9,12.1,10.7,19.7
	c1.2,12.3,1,24.7,0.3,37c-0.6,11.5-3.2,23-8.3,33.3c-2.1,4-4.6,8.1-8.6,10.4c-3.2,1.9-7.1,1.1-10.5,0.2c-7.9-2.2-15.8-4.5-23.4-7.5
	c-8.2-3.1-16.2-6.9-24.5-9.8c-4.3-1.5-8.7-2.8-13.3-2.5c-3.1,0.3-5.2,4-3.7,6.8c1.7,3.4,5.6,4.7,9,5.9c14.6,4.6,29.6,8.1,44.2,12.8
	c3.9,1.3,7.9,2.6,11.6,4.6c8,4.3,12.6,14,11.1,22.9c-1.2,8.5-3.5,16.7-5.9,24.9c-2.8,8.9-6,17.9-11.6,25.5c-3.7,5-10.2,7.9-16.4,6.4
	c-9.8-2-18.9-6.1-28.6-8.4c-9.8-2.4-20.3-6.1-25.9-15.1c-7.6-12.3-8.1-27.4-7.7-41.4c0.9-24.8,5-49.7,12.9-73.3
	c5.9-16.4,12.4-32.8,21.2-47.8C132.2,532.5,135.9,526.4,142.4,524.5z"/>
<path class="st3" d="M106,725.7c9.7,2.7,19.9,3.3,29.4,6.9c6.7,2.1,12.5,6.4,19.3,8.2c-0.3,5-0.6,9.9-1.1,14.9
	c-16.4-1.5-32.9-2.9-49.3-4.3C104.8,742.8,105.5,734.2,106,725.7z"/>
</svg>
