<svg version="1.1" xmlns="http://www.w3.org/2000/svg" xmlns:xlink="http://www.w3.org/1999/xlink" x="0px" y="0px" viewBox="0 0 1000 1000" style="enable-background:new 0 0 1000 1000;" xml:space="preserve">
<style type="text/css">
	.st0{fill:#EDEDED;}
	.st1{fill:#464B4B;}
	.st2{fill:#000000;}
</style>
<path class="st2" d="M675.3,544.1c-1.1-20.5-5.4-40.8-12.4-60.1c-9.8-25.1-25.2-48.5-46.6-65.2c-16.1-12.5-34.9-21.1-54.3-26.8
	c-35.5-10.7-74.3-8.8-108.9,4.1c-30.7,11.7-58.5,31.3-78.9,57.1c-20.2,25.8-31.2,57.9-34,90.4c-13.4-2.1-26.8-4.2-40.1-6.4
	c-11-1.7-21.9-4.2-33-4.9c-9.5-1-19.6-0.2-28.1,4.6c-9,5-17.2,12.9-20,23.1c-1.3,5.2-1.3,11.4,2.7,15.4c4.5,4,11.7,4.4,16.8,1.2
	c6.4-3.9,9.7-11.1,15.3-15.8c6.1-5.2,14.4-7.3,22.2-6.8c8.8,0.6,17.5,2.2,26.2,3.6c12.4,2,24.8,3.9,37.2,5.9
	c0.1,29.2,5.5,59,19.2,85c12.3,23.1,29.6,44.1,51.8,58.4c2.6,1.5,5.6,3.8,8.6,2.3c3.9-1.4,4.1-7.4,0.7-9.4
	c-10.1-7.5-20.3-15.1-28.2-25.1c-2.8-3.8-6.3-7.5-7-12.4c1.8,0.1,3.6,0.5,5.3,1.1c12.5,4.7,25.5,7.8,38.5,10.6
	c23.7,4.8,47.6,9.1,71.8,9.7c34.8,1.8,69.8-0.6,104-7.4c7.4-1.4,14.5-3.8,21.9-5.3c-1.2,3.8-4.2,6.4-6.8,9.2
	c-5,5.1-10.7,9.4-16.6,13.5c-3.3,2-3.5,7.4,0,9.2c3.1,2,6.5-0.4,9.1-2.2c15.9-11.2,29-26.2,39-42.9c6.2-10.9,11.6-22.4,15.6-34.3
	C674.3,597.8,676.8,570.7,675.3,544.1z M404,438.9c25.5-22.4,57.7-37.2,91.5-41.1c20.9-2.6,42.3-0.7,62.4,5.2
	c16.9,4.9,33.4,12,47.7,22.4c13.9,10.1,25.4,23.4,33.5,38.6c2.2,4.2,5,9,3.5,14c-1,3.7-4.9,5.6-8.3,6.3c-8.3,1.7-16.7,2.2-25.1,2.9
	c-23.7,1.7-47.4,3.1-71.1,2.1c-22.8-0.3-45.5-1.9-68.2-4.2c-23.3-2.4-46.5-6.7-69.3-11.9c-5.8-1.1-11.5-5.7-11.2-12.1
	C390,451.6,397.5,444.9,404,438.9z"/>
<path class="st0" d="M368.1,488.2c2.5-3.4,6.6-5.6,10.9-5.2c6.8,0.4,13.4,2.3,20.1,3.6c24.4,5.4,49.1,9,73.8,12.1
	c25.3,2.3,50.7,4.2,76.1,4.1c16.7-0.5,33.4-0.4,50.1-1.6c15-1.1,30-3,44.9-5.3c2.7-0.3,5.8-0.5,8.1,1.2c3,2.3,4.2,6,5.3,9.4
	c2.3,8.3,3.3,17,4.5,25.6c1.2,9.1,2.2,18.2,2,27.3c-8.1-25.6-35.2-43-61.8-40.8c-22,1.3-42.5,15.4-51.6,35.4
	c-14.5-5.8-31.1-5.9-45.5,0.1c-6.8-14.7-19.6-26.5-34.9-32c-14.4-5.3-30.7-4.9-44.8,1.2c-13.4,5.5-24.5,16.1-31,28.9
	c-14.1-2.3-28.2-4.5-42.3-6.8c1.1-12.6,3.4-25.2,7.3-37.3C361.6,501.3,363.8,494.1,368.1,488.2z"/>
<path class="st1" d="M443.4,538.6c7.4-0.9,15.1-0.1,22,2.9c10.8,4.5,19.4,13.8,23.1,24.8c3.5,10.1,2.8,21.6-1.8,31.3
	c-4.4,9.4-12.6,17-22.3,20.8c-11.1,4.4-24.2,3.7-34.8-2c-10.5-5.6-18.4-15.8-21-27.5c-2.8-11.9,0.1-25,7.7-34.7
	C422.8,545.9,432.8,540.1,443.4,538.6z"/>
<path class="st1" d="M600.4,538.6c7.4-0.9,15.1-0.1,22,3c10.8,4.5,19.4,13.8,23.1,24.9c3.6,10.6,2.7,22.7-2.5,32.6
	c-5.4,10.4-15.4,18.3-26.7,21.1c-9.7,2.4-20.2,1.3-29.1-3.3c-10.8-5.5-19-15.9-21.6-27.8c-2.8-11.7,0-24.6,7.3-34.2
	C579.4,546.1,589.6,540.1,600.4,538.6z"/>
<path class="st0" d="M351,565.3c12.4,1.9,24.9,4,37.3,5.9c-1.9,13.6,0.9,27.8,7.9,39.6c7.2,12.4,18.9,22,32.4,26.8
	c15.8,5.7,34,4.5,48.9-3.4c14.7-7.5,26-21.3,30.6-37.1c2.4-7.7,2.8-15.8,2.3-23.8c10.8-5.2,23.8-5.1,34.7-0.1
	c-1.2,13.7,1.8,27.9,9.3,39.5c10.2,16.3,28.4,27.2,47.6,28.4c21.7,1.7,43.9-9.2,55.5-27.6c-3.6,11-7.2,22.4-14.4,31.6
	c-6.3,7.1-15.9,9.8-24.7,12.6c-22.4,6.1-45.3,10.2-68.5,11.7c-23.6,1-47.3,1.1-70.8-1.2c-29.3-3.5-58.9-8.4-86.3-20
	c-8.7-3.7-17.5-7.9-24.4-14.5c-5.8-5.6-9.2-13-11.4-20.6C352.5,597.5,351.2,581.3,351,565.3z"/>
</svg>
