<svg version="1.1" xmlns="http://www.w3.org/2000/svg" xmlns:xlink="http://www.w3.org/1999/xlink" x="0px" y="0px" viewBox="0 0 1000 1000" style="enable-background:new 0 0 1000 1000;" xml:space="preserve">
<style type="text/css">
	.st0{fill:#000000;}
	.st1{fill:%%ST1%%;}
</style>
<path class="st0" d="M656.1,244c-11.8-15.5-27.2-28.1-43.8-38.3c-3.6-2.1-8.1-4.9-12.2-2.5c-7.8,5.4-13.9,12.9-21.5,18.5
	c-1.8,1.8-5.5,1-5.3-1.9c0.1-9.3,1.8-18.6,2.1-27.9c0.1-2.6-1.7-5.2-4.2-5.9c-4.9-1.8-9.9-3.4-15.1-4c-1.9-0.2-4.2-0.3-5.6,1.3
	c-3.8,4.5-5,10.6-8.4,15.2c-0.5-0.1-1.4-0.2-1.9-0.3c-0.3-4.8-0.1-9.7-1.1-14.4c-0.8-3.6-5.2-3.2-8-3.4c-22.5,0.4-45,2.9-66.8,8
	c-25.7,6-50.3,16.7-72.3,31.4c-14.3,9.7-26.8,22.2-36.3,36.7c-4.2,6.3-7.7,13-11.1,19.8c-7.4,14.6-11.6,30.6-14.5,46.6
	c-2.5,13.5-3.9,27.2-3.2,41c0.4,3.3,0.6,7.9,4.2,9.2c4,0.8,6.3-3.3,7.9-6.2c7.6-15.2,18-29,30.2-40.8c7.2-7.2,15.1-13.8,23.8-19.3
	c12.9-8.1,26.3-15.9,41.2-19.7c8.6-2,16.8,2.6,23.8,7.1c23.4,14.9,43.8,34.5,60,57c1.5,2.4,4.4,3.4,7.2,3
	c13.8-0.7,27.6-0.2,41.3,1.6c3.8,0.4,7.7,1.1,11.6,0.8c3.3-0.5,4.1-4.2,4.8-6.9c2-9.6,3.7-19.4,7.6-28.4
	c12.2-29.4,34.9-53.6,61.5-70.5C653.9,249.3,658.2,247.1,656.1,244z"/>
<path class="st1" d="M507,202.9c0.2-2.7,2.2-5.3,5.1-5.6c4.5-0.6,9.3-0.5,13.8,0.9c2.1,0.5,3.1,2.7,3.2,4.8c0.7,7.4-0.2,15,0.6,22.4
	c0.6,4.6,7.3,6.1,9.7,2c4.3-7.9,8-16.1,12.1-24.1c0.9-2,3.1-3.5,5.3-3c2.9,0.5,7.3,1.9,6.9,5.6c-0.7,10.4-1.9,20.7-2.5,31.1
	c-0.6,4.9,5.9,7.8,9.4,4.7c8.8-7.2,17.3-14.9,26.2-22c1.9-1.8,4.8-1.9,7.1-0.6c4.2,2.3,8.4,4.8,12.3,7.6c1.5,1.2,3.7,2.9,2.8,5.1
	c-1.6,4.3-6.2,6-9.3,8.9c-1.5,1.8,1,4.5,2.9,3.1c4.9-2.6,9.3-7.2,15.2-7.3c3.4,1.1,5.7,4,8,6.6c-1.4,1.5-2.8,3-4.5,4.2
	c-24.8,19.7-45.3,45.6-55.2,75.9c-1.9,5.4-3,11-4.4,16.6c-0.4,1.7-1.5,3.9-3.6,3.7c-4.3-0.3-8.6-1.2-12.9-1.6
	c-9.7-1.3-19.5-1.3-29.2-2.4c-2.5-0.3-4.3-2-5.7-3.9c-10.1-13.1-21.8-25-34.3-35.8c-13.9-12-29.3-22.5-46.4-29.5
	c-13.5-5.3-28.6-8.1-43-4.8c-5,1.2-10.1,2.9-14.3,5.9c-3,2-2.7,7.1,0.7,8.4c1.7,1,3.6,0.4,5.2-0.4c5.7-3,12.2-4.5,18.7-4.7
	c1.8-0.2,3.2,1,4.4,2.3c-0.6,1.7-1.6,3.2-3.2,4c-7.3,4.5-15,8.3-22.2,13c-12.6,8.1-23.4,18.7-32.9,30.1c-2.2,2.5-3.7,5.9-7.1,6.9
	c-0.5-1.3-1-2.6-0.8-4c1.3-22.9,7.8-45.9,21-64.9c10.2-15.2,23.9-27.9,39.5-37.6c10.7-6.4,22.5-10.8,34.3-14.6
	c11.8-3.7,23.8-6.9,36.1-8.8c5-0.7,10.5-1,14.8,1.9c2.8,1.8,4.4,4.9,5.1,8c1.2,5.2,1.2,10.6,1.4,15.9c0.3,31.5,7.8,62.7,20.1,91.6
	c0.7,1.9,2.2,4.1,4.6,3.9c3-0.1,4.4-3.8,2.9-6.2c-9.1-21.1-15.4-43.5-18.1-66.4C504.9,234.3,504.6,218.5,507,202.9 M555.2,261.9
	c-7,10-12.3,22.8-9.1,35.1c0.7,3,4.9,2.6,5.8-0.1c4.6-9.3,7.8-19.6,7.8-30C559.9,264.4,558.3,260.5,555.2,261.9z"/>
</svg>
