<svg version="1.1" xmlns="http://www.w3.org/2000/svg" xmlns:xlink="http://www.w3.org/1999/xlink" x="0px" y="0px" viewBox="0 0 1000 1000" style="enable-background:new 0 0 1000 1000;" xml:space="preserve">
<style type="text/css">
	.st0{fill:#000000;}
	.st1{fill:#EDEDED;}
</style>
<path class="st0" d="M392.2,717.1c23.1-3.5,46.4-6,69.8-6c21.1-0.2,42.1,0.7,63.1,1.8c38.1,2.1,76.6,6.8,112.5,20.5
		c18.4,7,35.7,17.3,49.7,31.3c21.5,21.4,34.4,50,41.8,79.1c6.7,25.8,8.3,52.4,9.8,78.9c1.7,25.7,1.4,51.5,1.4,77.2h-14
		c0.1-13.3,0.6-26.7,0.4-40c-0.6-25.3,0-50.7-2.8-75.9c-1.8-17.1-4-34.3-9.2-50.8c-8.2-26.2-22.9-51.1-45-67.9
		c-15.9-12.3-34.6-20.3-53.5-26.6c-29.7-9.6-61.2-11.5-92.2-13c-10.9-0.2-21.7-0.9-32.6-0.6c-14.5-0.4-29,0.1-43.5,0.8
		c-12.5,0.5-25,1.5-37.4,3c-17,1.9-33.9,4.8-50.6,8.5c-16.8,3.8-33.8,7.8-49.5,15.1c-16.7,7.5-31.4,18.9-43.6,32.5
		c-21.3,23-31.5,53.9-36.5,84.4c-3.6,21.7-4.9,43.7-5.2,65.7c-1.1,21.7-0.8,43.4-0.3,65.1h-14.3c-0.1-13.7,0.5-27.3,0.5-41
		c0.7-28.4,0.6-56.9,4.5-85c2.2-15.7,5.4-31.5,11.3-46.3c6.2-15.5,14.1-30.4,24.4-43.6c18-22.8,43.1-39.5,70.3-49.4
		C344.2,725.8,368.3,721.2,392.2,717.1z"/>
<path class="st1" d="M447.9,725.9c14.5-0.6,29-1.1,43.5-0.8c-31.5,18.7-62.6,38.2-91.6,60.6c-11.5,8.7-21.9,18.8-31.5,29.6
	c-13.1,14.8-24,31.5-31.2,49.9c-12.5,30.6-16.3,63.9-17.1,96.7c-0.2,12.7-0.5,25.4-0.5,38H295c0.3-36.6,0.1-73.7,8.6-109.6
	c5.2-21.9,13.2-43.3,25.1-62.6c16.7-26.6,39.3-49.1,64.8-67.3C411,748,429.3,736.7,447.9,725.9z"/>
<path class="st1" d="M359.9,737.3c16.7-3.7,33.6-6.6,50.6-8.5c-16.6,10.3-32.8,21.3-48.1,33.6c-22.1,18.1-43.2,38.2-58.6,62.4
	c-11.4,18-18.9,38.2-23.3,58.9c-8.2,38.1-7.5,77.4-7.9,116.2h-24.4c0.1-25.2,0.1-50.4,2-75.5c2.6-38.1,11.4-76.7,32.1-109.3
	C302.4,784.1,330.6,759.4,359.9,737.3z"/>
</svg>
