<svg version="1.1" xmlns="http://www.w3.org/2000/svg" xmlns:xlink="http://www.w3.org/1999/xlink" x="0px" y="0px" viewBox="0 0 1000 1000" style="enable-background:new 0 0 1000 1000;" xml:space="preserve">
<style type="text/css">
	.st0{fill:#FFD400;}
</style>
<path class="st0" d="M407.2,692.3c21.7-6.7,44.3-9.8,66.9-10.6c27.7-0.8,55.7,1.7,82.5,9c16.5,4.6,32.8,10.9,46.8,21
	c10,7.3,18.9,17.2,22.1,29.4c2.7,10.4,0,21.6-6,30.4c-7.1,10.6-17.9,18.2-29.1,24c-16.3,8.3-34.1,13.3-52,16.5
	c1.7,6.4,3.6,12.7,5.4,19c8.2,2.8,16.1,8,20,16c4.1,8.2,2.5,18.3-2.7,25.6c6.5,2.2,12.7,5.9,16.4,11.8c3.4,5.2,4.3,11.8,2.6,17.8
	c-2,7.3-7,13.3-12.8,18c1.5,6.3,3.6,12.4,4.9,18.8c1,5.2-6.5,8.5-9.5,4c-2.7-5.1-3.2-11-5.1-16.4c-2.6,1.4-5.3,2.6-8.1,3.8
	c1.3,4.6,2.7,9.2,3.9,13.8c1,2.9-0.6,6.5-3.6,7.2c-2.9,0.9-5.9-1.2-6.7-3.9c-1.5-4.6-2.6-9.2-4-13.8c-4.3,0.9-8.7,2.1-13.2,1.8
	c-4.2-0.3-8-4.2-7.9-8.5c-0.2-3.4,1.9-6.7,5-8.1c2.3-1.1,4.9-1.2,7.4-1.6c-6.5-22.9-13-45.7-19.5-68.6c-3.9,1.5-8.4,3.9-12.4,1.5
	c-5.4-2.5-6.3-10.6-1.6-14.3c4.2-3.3,9.7-4.4,14.7-5.9c-1.2-4.8-2.6-9.6-3.9-14.4c-23.3,1.5-46.8,0.4-69.9-3.6
	c-18.9-3.3-37.6-8.5-54.7-17.2c-11.2-5.8-22.1-13.3-29.5-23.8c-6.1-8.6-9.3-19.8-6.9-30.2c2.3-11.1,9.7-20.5,18.4-27.5
	C377.5,703.3,392.2,697,407.2,692.3 M476.2,704.2c-21.9,0.7-43.9,3.6-64.8,10.4c-11.9,4-23.8,9.1-33.5,17.4
	c-4.8,4.3-9.6,10.1-9.2,17c0.7,7.4,6.3,12.9,11.7,17.4c12.1,9.4,26.7,14.8,41.3,18.9c25.4,6.9,51.9,9,78.2,8
	c19.9-0.9,39.9-3.6,59-9.5c12.7-4.1,25.5-9.3,35.7-18.2c4.7-4.3,9.5-10,9-16.8c-0.4-7.1-5.7-12.6-10.8-16.9
	c-11.7-9.4-25.9-14.8-40.1-19C528,706,502,703.6,476.2,704.2 M518.9,814.7c1.2,4.6,2.5,9.2,3.7,13.8c3-0.1,6.1,0,9.1,0.1
	c-1.4-5-2.8-9.9-4.2-14.9C524.7,814.1,521.8,814.4,518.9,814.7 M528.8,846.3c2.4,8.1,4.6,16.3,7,24.4c4.9-2.3,9.8-5.7,11.9-10.8
	c1.4-3-0.1-6.4-2.6-8.2C540.7,848,534.6,846.6,528.8,846.3 M540.7,888c2.3,8,4.5,15.9,6.8,23.9c5.6-2.9,11.2-6.5,14.5-12
	c1.4-2.2,1.6-5.5-0.7-7.1C555.6,888.2,547.8,887.8,540.7,888z"/>
</svg>
