<svg version="1.1" xmlns="http://www.w3.org/2000/svg" xmlns:xlink="http://www.w3.org/1999/xlink" x="0px" y="0px" viewBox="0 0 1000 1000" style="enable-background:new 0 0 1000 1000;" xml:space="preserve">
<style type="text/css">
	.st0{fill:#EDEDED;}
	.st1{fill:#FFD400;}
	.st2{fill:#FF002C;}
	.st3{fill:#FFFFFF;}
	.st4{fill:#000000;}
</style>
<path class="st0" d="M486.5,387.3c30.3-5.2,61.9-1.4,90.5,9.8c18.6,7.1,36.2,17.4,50.4,31.5c20.9,21.1,35.3,48.4,42.1,77.3
	c6.8,27.2,7.7,55.7,4.2,83.4c-2.4,18.1-7.1,36-15,52.4c-9.2,20.9-23.2,39.6-40.9,54.1c-3.5,2.6-6.8,5.5-10.8,7.3
	c-3.7,1.6-8.1-2.1-7.1-6c1-3.8,5.1-5,7.8-7.4c6.8-5.3,13.8-10.9,18.2-18.4c-1.5-0.6-3,0.1-4.5,0.5c-22.5,6.6-45.9,9.4-69.2,11.3
	c-27,1.8-54.2,1.3-81.1-1.8c-28.5-4.2-57-9.1-84.2-18.9c-0.6-0.1-1.8-0.2-2.3-0.2c-0.4,2.3,1,4.2,2.1,6.1
	c7.2,10.9,17,19.7,27.5,27.4c2.9,2.5,7.2,4.2,8.1,8.3c-0.3,3.8-4.4,6.9-8.1,5c-9.7-5.2-18.3-12.5-26.1-20.2
	c-13.4-13.5-24.5-29.3-32.6-46.4c-8.1-17.1-12.6-35.7-14.8-54.4c-2.5-20.5-1.6-41.5,1.8-61.8c5.4-31.9,20-62.6,42.8-85.8
	C412.4,412.7,448.2,393.4,486.5,387.3 M495.5,397.8c-20.4,2.4-40.3,8.7-58.4,18.4c-15.3,8.2-29.9,18.3-41.6,31.3
	c-4.5,5.4-8.5,13.6-4.1,20.2c4.2,5.7,12,6,18.3,7.6c46.6,10.4,94.6,13.8,142.3,14.3c18.8,0.2,37.7-1,56.4-2.3
	c8.7-0.7,17.4-1.3,25.9-3c3.7-0.8,7.9-3,8.5-7.1c1-5.5-2.4-10.5-4.8-15.1c-9.3-16.9-23.1-31.2-39.5-41.4
	C568,402,531.1,393.4,495.5,397.8 M374.3,483.6c-5.7,2-8.5,7.9-10.9,13c-9.1,22.6-12.6,47.2-12.4,71.4c0.5,17.9,2,36.2,8.8,52.9
	c4.2,10.5,13.4,18,23.4,22.8c16.2,8,33.5,13.4,51.1,17.1c22.7,4.9,45.8,8.1,69,8.9c24.8,0.5,49.7,0.5,74.2-3.4
	c15.6-2.6,31.3-5.6,46.4-10.4c7.3-2.6,15.2-5.5,20-11.9c3.5-5,6.4-10.6,8.6-16.3c4.6-12,8-24.4,9.6-37.1c2.2-18.6,2.5-37.5,0-56.1
	c-1.3-9.4-2.2-18.9-4.8-28.1c-1.1-3.4-2.3-7.1-5.3-9.4c-2.6-1.9-6.1-1.4-9.1-1c-25.1,4-50.5,6.3-76,6.3c-30,1.4-60-0.7-89.9-3.3
	c-18.5-2-36.9-4.8-55.1-8c-11.7-2-23.3-4.8-35-7.1C382.8,483.3,378.4,482.3,374.3,483.6z"/>
<path class="st1" d="M662.2,534.5c-1.3-9.4-2.2-18.9-4.8-28.1c-1.1-3.4-2.3-7.1-5.3-9.4c-2.6-1.9-6.1-1.4-9.1-1
	c-25.1,4-50.5,6.3-76,6.3c-30,1.3-60-0.7-89.9-3.3c-18.5-2-36.8-4.8-55.1-8c-11.7-2-23.3-4.8-35-7.1c-4.1-0.7-8.5-1.7-12.6-0.4
	c-5.7,2-8.5,7.9-10.8,13c-9.2,22.6-12.6,47.2-12.4,71.4c0.5,17.9,2,36.2,8.8,52.9c4.2,10.5,13.4,18,23.4,22.8
	c16.2,8,33.5,13.4,51.1,17.1c22.7,4.9,45.8,8.1,69,8.9c24.8,0.5,49.7,0.5,74.2-3.4c15.6-2.6,31.3-5.6,46.4-10.4
	c7.3-2.6,15.2-5.5,20-11.9c3.5-5,6.4-10.6,8.6-16.3c4.6-12,8-24.4,9.6-37.1C664.3,571.9,664.7,553,662.2,534.5z"/>
<path class="st2" d="M460.6,521.7c2-3.6,4-8.2,8.4-9.2c4-0.4,5.6,4.1,5.7,7.4c0.6,14.4-1.6,28.8-4.5,42.9
	c-7.9-2.2-15.8-4.5-23.7-6.7C450.8,544.4,455.2,532.8,460.6,521.7z"/>
<path class="st2" d="M433.2,610.2c6.1,3.8,13.3,5.7,20.5,5.3c-3.6,8.5-7.2,17.1-12.1,24.9c-1.5,2.1-3.4,4.9-6.3,4.4
	c-3.6-0.7-3.6-5.1-3.7-7.9C431.5,628.1,432.1,619.1,433.2,610.2z"/>
<path class="st4" d="M407.3,547.3c2.1-1.4,4.7-1.1,7-0.4c10.8,3.1,21.5,6.1,32.3,9.1c7.9,2.2,15.8,4.5,23.7,6.7c10.9,3.1,21.9,6.1,32.7,9.3
	c5,1.2,6.8,8.3,2.8,11.6c-3.5,3.2-8.2,0.9-12.1-0.1c-5.9,16.9-21.5,31.4-40,32c-7.2,0.4-14.4-1.5-20.5-5.3
	c-12.1-7.6-19-22-18.7-36.2c-0.2-4.2,0.4-8.4,1.2-12.5c-3.4-1.2-7.6-1.3-10.1-4.2C403,554.3,403.9,549.2,407.3,547.3"/>
<path class="st4" d="M562.2,573.4c22.3-6.3,44.7-12.6,67-19c2.5-0.8,5.4-0.9,7.5,0.9c2.8,2.1,3.1,6.6,0.8,9.2c-1.7,2-4.4,2.4-6.7,3.2
	c1.7,8.5,1.2,17.7-2.5,25.6c-3.4,7.5-9.7,13.8-17.6,16.6c-9.1,3.3-19.7,1.5-27.6-4.1c-7.2-4.8-12.5-12.2-15.4-20.3
	c-2.4,0.6-5.1,1.6-7.5,0.6c-3.4-1.2-5.1-5.5-3.5-8.7C557.7,575.2,559.9,574,562.2,573.4"/>
<path class="st3" d="M428.5,565.2c17.5,4.9,34.9,9.9,52.4,14.8c-3.9,10.2-12.3,19.3-23.2,21.8c-6.6,1.7-14,0.1-19.4-4.1
	C428.7,590.2,425.8,576.6,428.5,565.2z"/>
<path class="st3" d="M580.4,581.9c12.6-3.6,25.1-7.2,37.7-10.7c1.2,7.2,0.2,15.3-4.6,21.1c-3.8,4.8-10.5,7.2-16.5,5.5
	C589.1,595.9,583.3,589.2,580.4,581.9z"/>
</svg>
