<svg version="1.1" xmlns="http://www.w3.org/2000/svg" xmlns:xlink="http://www.w3.org/1999/xlink" x="0px" y="0px" viewBox="0 0 1000 1000" style="enable-background:new 0 0 1000 1000;" xml:space="preserve">
<style type="text/css">
	.st0{fill:#000000;}
	.st1{fill:#D15B31;}
	.st2{fill:#8D3D21;}
	.st3{fill:#FFD400;}
	.st4{fill:#F32525;}
</style>
<path class="st0" d="M672.7,288.3c-7.3-17.6-20.3-32.1-34.5-44.4c-10.9-9.4-23.5-16.6-36.6-22.5c-16.6-7.6-34.5-11.9-52.5-14.7
	c-10.7-10.9-27.3-16.9-42.4-13c-13,3.3-24.1,13.2-29.1,25.7c-1,2.1-1.6,5-4.2,5.7c-7.5,2.9-15,7-19.3,14c-4.5,6.7-5.2,15.1-3.7,22.8
	c-5.1,5.4-9.6,11.6-11.5,18.9c-3,9.4-0.9,20.2,5.5,27.7c9,11.2,25.8,15.1,38.6,8.4c7.2-3.4,12-10.6,13.2-18.4
	c7.8-4.5,16.1-8.2,24.7-10.8c-0.1,3.8,0.1,7.8,2.7,10.8c5.6,7.1,16.5,7.4,23.8,2.9c5.8-3.1,8.9-9.3,10.1-15.5
	c12.6,0.1,25,3,36.7,7.4c-2.1,7.3,1.1,16,8.5,18.9c6.5,3.2,14.1,1,19.5-3.2c3.5,2.4,6.8,5.2,9.8,8.1c-2.6,6.9-5.3,14.3-3.5,21.8
	c1.5,7.8,7.9,14.4,15.7,16.2c9.7,2.4,20-2,26.2-9.6c5.7-7.1,8.4-16.3,8.8-25.3C679.2,309.2,676.8,298.3,672.7,288.3z"/>
<path class="st1" d="M511,208.7c9.1-2.2,19.4-1.4,27.3,4c-13,4.4-25.7,11.3-34.6,21.9c-10.5,12.1-15.1,28.4-14.8,44.3
	c0.2,6.5,0.2,13.7-3.6,19.2c-4.7,6.9-14.4,9.9-22.1,6.7c-5.3-2-9.3-6.7-10.9-12.1c-1.9-5.8-0.7-12.2,2.2-17.4c1.8-3.4,4.8-6,6.9-9.2
	c1.6-2.4,1.2-5.5,1.5-8.2c0.3-7.2,3.8-14.4,9.7-18.5c2.6-1.8,5.5-3,8.1-4.9c2.8-2,4.3-5.2,6.1-8C492.1,217.9,500.9,211.1,511,208.7z
	"/>
<path class="st2" d="M548.8,265.8c9.1,0,18.2,1,27.1,3c-0.8,2.5-1.6,5-2.2,7.5c-6.7-1.2-13.5-1.8-20.4-2.1
	C551.9,271.4,550.4,268.6,548.8,265.8z"/>
<path class="st2" d="M500.4,274.4c7.7-4.2,16.3-6.2,24.8-8c0.3,3.7-0.2,7.5-1.2,11.1c-9.5,2.2-18.6,5.8-27.2,10.2
	C496.4,283.1,495.8,277.1,500.4,274.4z"/>
<path class="st2" d="M591.6,281c2.7-1.5,5.2-3.6,8.4-4.3c3,1.6,1,5.2,0.4,7.6C597.5,283.1,594.5,282,591.6,281z"/>
<path class="st2" d="M628,292.8c4,2.6,8.8,4.9,11.1,9.3c1.5,2.9-0.1,6-1,8.8c-4.2-2.9-8.4-6-12.6-8.9
	C626.5,299,627.3,295.9,628,292.8z"/>
<path class="st3" d="M662.9,296.5c-4-10.3-9.5-20-16.6-28.5c-9.3-10.4-20.7-18.8-32.5-26.1c-9.9-6-20.6-10.9-31.6-14.5
	c-10.3-3.2-20.5-6.6-31.3-7.6c-13.3-1.5-25.6,5.6-35.6,13.6c-7.7,6.8-14.4,15.4-16.7,25.6c-0.5,1.9-0.4,5.4,2.4,5.1
	c6.4-0.8,12.5-3.4,18.8-4.6c-1.1-1.3-2.8-2.5-2.6-4.3c0.1-2.5,3.3-4.2,5.5-2.9c5.4,2.5,8.6,8.2,9.9,13.8c1.6,7-1.9,13.5-3.5,20.1
	c-0.9,3.2,0.8,6.9,4.1,8c6.7,2.4,14.7-2.9,14.8-10.1c0-7.9-6.4-13.6-8.2-21c-1.1-4.4-1.5-9.4,0.7-13.5c1.6-2.9,6.5-1.9,6.7,1.5
	c-0.2,2.4-0.7,4.8-0.9,7.3c1.5,0,2.9,0,4.4,0c7.5,0.2,14.9,1,22.3,2.2c1.8,0.3,3.5,0.7,5.3,1c-0.6-2-2.4-4.1-1-6.2
	c1-1.8,3.7-2.4,5.3-1c2.1,2,2.9,4.9,3.2,7.7c0.3,3.4-2.5,5.9-3.2,9c-0.4,2,1.3,4.1,3.4,4c5.3,0,8.9-4.9,13.9-5.7
	c5.4,0,9.5,5.5,9.1,10.7c0,6.4-5.5,10.9-6.6,16.9c-0.8,6.1,8,9.9,12.2,5.7c5.1-4.9,3.8-12.6,6.4-18.7c2.1-5,6.6-9.3,12.1-10
	c1.9-0.5,4.1,1,4.1,3c0.1,3.7-2.6,7.3-0.9,10.9c2.8,6.2,9.8,10,10.8,17.2c1.7,7.2-3.4,13.2-5.6,19.5c-1.8,4.4-1.2,9.6,1.6,13.4
	c3.1,3.9,8.7,4.6,13.2,3.2c4.9-1.9,7.5-7.1,8.9-11.9C668.1,318.5,666.4,306.9,662.9,296.5z"/>
<path class="st4" d="M515.3,233.4c10-8,22.3-15.1,35.6-13.6c1.5,3.8,2.7,8.2,1.1,12.2c-4.4,11.8-20.9,16.3-31,9.1
	C518.3,239.1,516.8,236.1,515.3,233.4z"/>
<path class="st4" d="M582.2,227.4c11.1,3.6,21.7,8.5,31.6,14.5c-2.2,3.9-5,7.9-9.4,9.6c-8,3.7-18.3,0.1-22.2-7.8
	C579.4,238.7,580.2,232.6,582.2,227.4z"/>
<path class="st4" d="M553.7,248.7c4.9-5.5,15-4.6,18.6,1.9c2,2.9,1.2,6.6,0.7,9.8c-7.4-1.2-14.8-2-22.3-2.2
	C551,255,551.1,251.2,553.7,248.7z"/>
<path class="st4" d="M646.3,268c7,8.5,12.6,18.2,16.6,28.5c-7,0-14.8-2.5-18.2-9.1C641.1,281.2,643.1,273.8,646.3,268z"/>
</svg>
