<svg version="1.1" xmlns="http://www.w3.org/2000/svg" xmlns:xlink="http://www.w3.org/1999/xlink" x="0px" y="0px" viewBox="0 0 1000 1000" style="enable-background:new 0 0 1000 1000;" xml:space="preserve">
<style type="text/css">
	.st0{fill:#EDEDED;}
	.st1{fill:#000000;}
	.st2{fill:#6089FF;}
	.st3{fill:#FF5400;}
</style>
<path class="st0" d="M844.5,193.4c3.6-10.9,16.4-18.3,27.6-14.7c8.6,2.1,15.3,9.7,16.8,18.3c0.7,3.8,0.3,7.6-0.2,11.3
	c-24.9,179.4-49.8,358.9-74.8,538.3c-1,6-1.4,12.1-2.6,18.1c-1.4,6.9-5.7,13.3-12,16.7c-6.2,3.2-13.9,3.4-20.4,0.6
	c-7.7-3.4-13.3-11.4-13.5-19.9c-0.2-7.4,1.7-14.6,2.4-22c24.4-175.7,48.8-351.4,73.2-527.1C842.2,206.4,842.5,199.7,844.5,193.4"/>
<path class="st1" d="M755.5,753.5c2.9-5.4,6.8-10.7,12.4-13.5c-0.8,7.3-2.6,14.6-2.4,22c0.2,8.5,5.8,16.5,13.5,19.9
	c6.4,2.8,14.1,2.6,20.4-0.6c6.3-3.4,10.6-9.8,12-16.7c1.2-6,1.6-12.1,2.6-18.1c4,6.1,7.4,13,7.5,20.4c0.3,12.3-2.8,24.3-3.9,36.4
	c-0.8,4.7-1.4,9.4-1.9,14.2c-0.8,5.6-1.6,11.3-2.3,16.9c-7.4-3.1-15.3-5.4-23.4-4.6c-3.6,0.3-7,1.4-10.6,1.4
	c-3.1-4.6-4.8-10-8.4-14.3c-5.8-7.7-14.5-12.8-23.8-14.8c0.5-7.8,2.1-15.5,3-23.3C751.2,770.4,751.5,761.4,755.5,753.5z"/>
<path class="st1" d="M751.4,950.5c2.8-0.6,5.4-1.7,8.3-1.8c2.2,1.2,3.9,3.1,5.9,4.7c7.3,6.4,16.9,9.6,26.5,10.6
	c-0.7,2.1-1.8,4-3.3,5.6c-8.8,9.7-23.3,13.9-35.8,10.2c-7.9-2.8-15.5-7.6-19.7-15c-2.9-5-5.3-10.5-4.8-16.4
	C735.7,951,743.8,952.4,751.4,950.5z"/>
<path class="st0" d="M851.4,827.6c-7.9-11.6-19.8-21.4-33.9-24.1c-0.8,4.7-1.4,9.4-1.9,14.2c-0.8,5.6-1.6,11.3-2.3,16.9
	c-7.4-3.1-15.3-5.4-23.4-4.6c-3.6,0.3-7,1.4-10.6,1.4c-3.1-4.6-4.8-10-8.4-14.3c-5.8-7.7-14.5-12.8-23.8-14.8
	c-11.6-2.2-23.8,2.5-31.5,11.3c-6,6.3-9,14.8-11.1,23.1c-3.8,15.4-5.4,31.4-4.5,47.3c0.8,14.6,1.7,29.7,8,43.2
	c3.9,9.3,11.3,17,20.4,21.3c7.4,2.5,15.4,3.9,23.1,2c2.8-0.6,5.4-1.7,8.3-1.8c2.2,1.2,3.9,3.1,5.9,4.7c7.3,6.4,16.9,9.6,26.5,10.6
	c10.5,0.7,21.3-2.7,29.3-9.6c5.5-4.7,9.1-11.4,10.2-18.5c0.6-3.8,0-7.8,0.3-11.6c11.5-6.7,19.9-18.9,20.6-32.3
	c0.4-4.7-0.8-9.3-0.8-14c0.9-3,2.6-5.6,3.7-8.5C860.7,855.9,859.5,839.8,851.4,827.6z"/>
<path class="st2" d="M863.4,191.5c4-1.1,8.8,0.6,10.7,4.4c1.8,3.6,0.8,7.7,0.3,11.4c-25.2,182.8-50.5,365.5-75.8,548.3
	c-0.4,2.9-0.6,5.9-1.6,8.7c-1.5,4.3-6.6,7-10.9,5.7c-3.6-0.9-6.3-4.3-6.4-8c-0.2-4.6,0.8-9.2,1.4-13.7
	c17.1-123.9,34.2-247.7,51.3-371.6c4-28.1,7.5-56.3,11.8-84.3c3.9-30.4,8.6-60.7,12.3-91.1C857.1,197.2,859.1,192.7,863.4,191.5z"/>
<path class="st3" d="M737.4,816.7c12.3-3.1,23.6,6.3,29.5,16.3c6.7,12.4,9.8,27.6,5.4,41.3c-1.1,3.5-2.7,7-5.7,9.2
	c-3.5,2.5-8.5,2.1-12.1-0.1c-4.5-2.8-7.9-7.3-9.5-12.4c-1-2.7-1.4-5.6-3-8.1c-2.3-2.5-7.3-1.7-8.5,1.6c-0.7,2.5-0.2,5.1,0.5,7.6
	c3.4,11.4,12.4,21.9,24.7,23.6c-1.7,3.2-4.1,6.1-5.6,9.4c-2.8,5.8-3.1,12.5-2,18.8c0.2,2.4,1.3,5.4-0.7,7.4
	c-3.2,3.2-8.2,3.6-12.4,2.8c-6.4-1.2-11.8-5.7-14.9-11.3c-4.8-8.8-6.5-18.9-7.2-28.8c-0.9-14.3-1.3-28.8,0.4-43
	c0.9-8.1,3.6-16,7.7-23C727.1,823,731.7,818.4,737.4,816.7z"/>
<path class="st3" d="M813.3,834.5c0.6-5.7,1.5-11.3,2.3-16.9c7.9,2.9,16,6.6,21.5,13.2c6.9,7.5,9.4,18.5,6.9,28.3
	c-3.2,11-13.5,19.9-25,20.5c-8.8,0.6-17.2-2.9-25.1-6.6c-3-1.5-6.3-3-8.5-5.6c-0.9-3.8-0.5-7.8-0.8-11.6c-0.1-4.3-1.2-8.5-1.3-12.8
	c5.6-3.7,12.9-2.8,19-1.3c5.4,1.3,9.8,4.8,15,6.6c3.3,1.3,7.5-1.7,6.4-5.3C822.6,838.4,817.2,836.8,813.3,834.5z"/>
<path class="st3" d="M781.8,879.5c2.6,0,4.8,1.7,7.1,2.7c11.3,6.1,24.6,10.2,37.5,7c4.8-1.1,8.9-3.9,13.2-5.9
	c0.7,7.6,0.7,15.9-4,22.3c-4.9,7.3-14.2,9.6-22.5,9.8c-13.8,0.5-26.8-6.7-35.8-16.7c-1.6-1.9-3.5-3.9-4-6.4
	C776.7,888.4,779.7,884.2,781.8,879.5z"/>
<path class="st3" d="M766.3,904.1l0.6-0.5c4.1,3.4,7.4,7.6,11.8,10.7c11.3,8.8,25.9,13,40.1,11.4c0.6,8.8-6.1,16.4-13.9,19.4
	c-15.6,6-35-2.1-41.7-17.4C759.8,920.1,760,910,766.3,904.1z"/>
</svg>
