<svg version="1.1" xmlns="http://www.w3.org/2000/svg" xmlns:xlink="http://www.w3.org/1999/xlink" x="0px" y="0px" viewBox="0 0 1000 1000" style="enable-background:new 0 0 1000 1000;" xml:space="preserve">
<style type="text/css">
	.st0{fill:#EDEDED;}
	.st1{fill:#000000;}
</style>
<path class="st1" d="M485.5,362.9c19.5-1.5,39.3-1.5,58.4,2.8c19.3,3.8,37.8,11.2,55.3,20c26.2,13.4,48.9,34.4,62,61
	c9.3,18.6,13.7,39.2,15.9,59.7c3,26.6,1.6,53.7-3.5,80c-5.6,28.7-15.7,57.1-33.9,80.4c-10.6,13.7-24.2,25-39.1,33.9
	c-14.3,8.7-30.5,14.1-46.7,17.8c-16.1,3.3-32.5,5.9-49,6.1c-34.5,0.1-69.7-6-100.5-22.1c-25.5-12.6-47.9-32.1-62-56.9
	c-9.2-16.6-14.6-34.9-18-53.5c-4.1-21-5-42.6-4-64c2-36,15.3-71,36.7-99.9c18.4-24.8,44.6-43.2,73.5-53.6
	C448.4,368.4,466.9,364.5,485.5,362.9"/>
<path class="st0" d="M664.9,527.9c-0.5-21.1-3.8-42.4-11.8-62c-5.1-12.8-11.7-25.1-20.8-35.4c-10.8-12.5-24.2-22.5-38.7-30.1
	c-34.1-18.3-74-23.6-112.1-19.7c-12,1.2-23.9,3-35.5,6.3c-32.4,8.5-62.2,28-81.3,55.7c-20.2,29.5-29.8,65.6-29.6,101.2
	c-0.4,19.4,2.7,38.6,7.1,57.4c4.7,19.1,13.2,37.4,25.4,52.9c19.6,25.3,49.2,41.4,79.9,49.3c40.2,10.5,83.4,8,122.5-5.7
	c14.8-5.6,28.6-13.9,40.8-24c22.6-19.5,37.9-46.5,45.8-75.1C663.1,575.8,666,551.8,664.9,527.9z"/>
<path class="st1" d="M496.4,513.6c5.9-1.7,12,4.4,10.3,10.3c-1.2,6-9.4,8.7-13.9,4.4C487.7,524.1,490,514.9,496.4,513.6z"/>
<path class="st1" d="M549.5,515.6c5.9-1.7,12,4.4,10.2,10.3c-1.2,6-9.5,8.6-13.9,4.3C540.7,526,543,516.9,549.5,515.6z"/>
<path class="st1" d="M427.5,531.8c15.1-2.7,31,2.1,43,11.6c7.3,5.8,13.2,13.7,15.7,22.8c2.3,8.1,1.2,17.3-3.4,24.4c-5.2,8.2-14.4,13.3-23.8,15
	c-13.5,2.4-27.6-1.1-39-8.5c-9.9-6.5-18.1-16.5-20.4-28.3c-2-8.9,0.6-18.7,6.7-25.6C411.7,537,419.5,533.3,427.5,531.8z"/>
<path class="st1" d="M590.5,545.8c10.1-2.2,21.2-0.8,29.9,4.9c6.6,4.2,11.5,11.5,12,19.5c0.6,7.1-2.2,14.2-6.6,19.6
	c-11.8,14.3-33.5,19.7-50.4,11.8c-7.2-3.3-13.3-9.6-15.3-17.5c-2.2-7.6,0.2-15.9,4.7-22.3C570.8,553.4,580.4,547.9,590.5,545.8z"/>
<path class="st1" d="M491.4,613.7c5.5-3,12.7,2.2,12,8.4c-0.2,6.4-8.6,10.3-13.5,6.2C484.7,624.7,485.6,615.9,491.4,613.7z"/>
<path class="st1" d="M541.5,615.7c6-2.1,12.6,4.3,10.6,10.3c-1.3,6.1-9.9,8.5-14.2,3.9C533.3,625.7,535.5,617.3,541.5,615.7z"/>
<path class="st1" d="M490.5,642.7c6-2.1,12.6,4.3,10.6,10.3c-1.3,6.1-10,8.5-14.2,3.8C482.3,652.7,484.5,644.3,490.5,642.7z"/>
<path class="st1" d="M538.3,647.2c5.7-3.2,13.3,2.5,12.1,8.9c-0.6,6.3-9.1,9.6-13.8,5.4C531.8,657.8,532.8,649.6,538.3,647.2z"/>
<path class="st1" d="M486.4,672.7c5.5-3,12.8,2.2,12,8.3c-0.2,6.4-8.6,10.3-13.5,6.2C479.7,683.7,480.6,675,486.4,672.7z"/>
<path class="st1" d="M537.4,674.7c5.5-3,12.7,2.2,12,8.3c-0.1,6.4-8.6,10.4-13.5,6.2C530.7,685.7,531.6,677,537.4,674.7z"/>
</svg>
