<svg version="1.1" xmlns="http://www.w3.org/2000/svg" xmlns:xlink="http://www.w3.org/1999/xlink" x="0px" y="0px" viewBox="0 0 1000 1000" style="enable-background:new 0 0 1000 1000;" xml:space="preserve">
<style type="text/css">
	.st0{fill:#000000;}
	.st1{fill:#F6F6F6;}
</style>
<path class="st0" d="M473.1,462.8c14-4,29.8-1.6,42,6.3c11.4,7.1,19.8,19,22.5,32.2c-8.3-3-18.1,2.9-19.5,11.6
	c-2.3,10,8,19.8,17.8,17.1c-5.2,14.2-16.7,26-31,31.2c-12.8,4.8-27.4,4.2-39.7-1.5c-11.9-5.4-21.5-15.6-26.3-27.7
	c-5.4-13.3-4.9-28.8,1.4-41.6C446.6,477,458.9,466.7,473.1,462.8"/>
<path class="st0" d="M661.1,558.3c10.6-2.9,22.6,0.2,30,8.5c-7.5,0.7-12.9,9.1-9.8,16.1c2.5,6.9,11.8,9.5,17.7,5.2
	c0,14.8-12.4,28-27.1,29.2c-16.1,2-32-11.1-33-27.3C637.3,575.9,647.3,561.7,661.1,558.3"/>
<path class="st1" d="M518.1,512.9c1.4-8.7,11.2-14.5,19.5-11.6c6.7,2.2,11.2,9.6,9.8,16.6c-1,5.8-5.7,10.7-11.5,12
	C526,532.6,515.8,522.9,518.1,512.9z"/>
<path class="st1" d="M497.5,517.7c5.1-3.2,12.6-0.5,14.5,5.2c2.1,5.3-1.4,11.9-7,13.1c-5.4,1.6-11.6-2.4-12.4-8
	C491.9,524,494,519.8,497.5,517.7z"/>
<path class="st1" d="M681.3,582.8c-3.1-7,2.3-15.4,9.8-16.1c6-0.5,12,4.1,12.6,10.1c0.7,4.3-1.3,8.7-4.8,11.2
	C693.1,592.4,683.8,589.8,681.3,582.8z"/>
<path class="st1" d="M666.2,580.2c5-2.5,11.5,2.3,10.6,7.8c-0.2,5.8-7.8,9.3-12.3,5.6C659.6,590.4,660.8,582.2,666.2,580.2z"/>
</svg>
