<svg version="1.1" xmlns="http://www.w3.org/2000/svg" xmlns:xlink="http://www.w3.org/1999/xlink" x="0px" y="0px" viewBox="0 0 1000 1000" style="enable-background:new 0 0 1000 1000;" xml:space="preserve">
<style type="text/css">
	.st0{fill:#EDEDED;}
	.st1{fill:#F23DB6;}
	.st2{fill:#000000;}
</style>
<path class="st2" d="M370.4,470.4c5.3-1.4,10.8-0.8,16.1,0.1c23.9,4.7,47.6,10.1,71.8,13.1c26.1,3.2,52.4,4.9,78.8,5.6c20.3,0.9,40.7-0.1,61-1.4
	c13.9-0.9,27.9-2,41.7-4.3c5.6-0.7,11.4-1.9,16.9-0.2c5,1.8,7.4,7.1,9.2,11.7c8.2,22.3,10.1,46.3,9.8,69.9
	c-1,28.7-6.5,57.8-20.4,83.2c-4.3,8.4-10.9,15.8-20,19c-22.6,8.4-46.5,12.3-70.4,14.7c-27.8,3.3-55.9,2.4-83.7,0.6
	c-24.6-2.8-49.1-7.2-73.1-13.5c-11.1-2.9-22-6.7-32.3-11.8c-6.6-3.4-13.3-7.1-17.9-13.1c-5.7-7.3-8.2-16.4-10.8-25.2
	c-5.4-20.5-6.8-41.9-6.1-63c0.4-22.4,4-45,12.2-65.9C356.5,482.1,361.2,472.8,370.4,470.4"/>
<path class="st0" d="M375.3,483.3c6.4-1.1,12.8,1,19.1,2.2c19.3,4.4,38.9,7.8,58.6,10.5c23.8,3.9,47.8,4.9,71.8,6.4
	c19.1,0.8,38.1,0.2,57.2-0.4c17.5-0.4,34.9-2.3,52.3-4.7c4.9-0.6,9.7-2,14.7-1.5c3.4,0.4,5.6,3.4,6.9,6.3c2.4,5.6,3.3,11.7,4.3,17.7
	c2,14.3,4.2,28.7,3.7,43.2c0,18.8-2.1,37.8-8.1,55.6c-3.1,9.5-6.7,19.2-13.2,26.9c-6.5,6.8-16,9.5-24.8,12.2
	c-27.9,7.5-56.8,12-85.8,12.1c-20.3,0.2-40.8,0-61-2.8c-27.6-3.7-55.4-8.8-81-20.2c-8.8-3.8-17.7-8.5-23.8-16.2
	c-4.2-5.2-6.6-11.5-8.1-17.9c-3.6-15.3-4.5-31.1-5.1-46.8c-0.7-17.7,0.7-35.5,5.3-52.6c2.2-8,4-16.4,8.6-23.4
	C368.9,486.9,371.6,484.1,375.3,483.3"/>
<path class="st2" d="M384.2,528.2c0.4,0,1.1,0.1,1.4,0.2c2,3.1,3.1,6.7,5.2,9.8c3.8,5.8,10,10.4,17.1,10.9c7.5,0.6,14.8-1.5,22.3-1.8
	c23-1.3,46.8,9.3,60.3,28.2c3.2,4.9,6.9,9.9,8.2,15.7c1.1,4.8-3.8,9.3-8.4,8.4c-4.2-0.4-6.3-4.5-8.4-7.6
	c-8.3-13.3-22.6-22.5-38-24.9c-12.7-2-26,0.2-37.3,6.3c-3.9,2-7.4,4.8-11.4,6.6c-3.9,1.7-8.3,0.6-11.8-1.4
	c-5.1-3.1-9.2-7.6-12.4-12.6c-1.2-2.1-2.8-4.4-1.9-6.9c4.3,0.7,6.6,5.5,11.1,5.8c5.8,0.8,11.2-5.1,9.9-10.8
	c-1.9-8.4-8.3-15.9-7.2-25C383.2,528.9,383.9,528.4,384.2,528.2z"/>
<path class="st2" d="M643.6,548.5c0.9-1.1,3-0.8,3,0.9c0.6,6.8-4.6,11.9-7.9,17.3c-3.1,5.2,3.8,11.7,9.1,9.3c2.9-0.9,4.9-4.5,8.1-4
	c1.2,6.2-2.4,12.1-5.9,17c-3.1,4.1-8.2,8.2-13.7,6.6c-4.7-1.9-7.9-6.2-12.4-8.7c-20-11.5-47.7-7.2-63.2,9.9
	c-2.5,2.6-4.9,6.2-8.9,6.4c-4.4,0.4-8.2-3.9-7.4-8.2c1-5.8,4.7-10.6,8.4-15c9.4-11,23.2-17.6,37.4-19.4c9-1,18.1-0.4,27,0.8
	c5.8,0.8,12.2,0.6,17-3C638.3,555.9,640.5,551.8,643.6,548.5z"/>
<path class="st1" d="M398.4,597.5c13-0.7,26,2.7,37.5,8.7c4.9,2.8,10.1,6.1,12.5,11.5c1.9,4.2-0.3,9.4-4.5,11.3
	c-6.6,3.1-14.3,2.7-21.4,1.7c-11-1.8-22-5.4-31.1-12c-3.9-3.1-8.2-7.7-7-13.1C386.2,599.6,393,598,398.4,597.5z"/>
<path class="st1" d="M604.3,616.4c8.3-1.2,17.7-1.8,24.9,3.3c3.6,2.3,4.7,7.4,2.4,11c-2.8,4.7-8,7.2-13,8.9
	c-7.5,2.4-15.6,3.4-23.5,2.1c-4.3-0.9-8.9-2.7-11.3-6.6c-2-3.6-0.4-8.1,2.5-10.7C591.2,619.8,597.9,617.7,604.3,616.4z"/>
</svg>
