<svg version="1.1" xmlns="http://www.w3.org/2000/svg" xmlns:xlink="http://www.w3.org/1999/xlink" x="0px" y="0px" viewBox="0 0 1000 1000" style="enable-background:new 0 0 1000 1000;" xml:space="preserve">
<style type="text/css">
	.st0{fill:#6089FF;}
	.st1{fill:#EDEDED;}
	.st2{fill:#000000;}
</style>
<path class="st2" d="M475.9,45.1c1.1-5.3,8.3-7.5,12.5-4.5c27.8,20.4,48.7,51.6,52.2,86.4c4.1-5.2,7.1-11.3,8.1-17.9c0.7-3.6,0.2-8.3,3.7-10.6
	c3.4-2.7,8.6-1.3,10.7,2.3c10.2,15.4,17.7,32.8,21,51c3.4,18.2,3.2,37.3-2.2,55.1c-3.8,13-10.7,25.1-20.3,34.7
	c-12.9,13.1-30.3,21.1-48.2,24.7c-18.9,3.4-38.9,2.2-56.7-5.1c-16.8-7.1-31.9-19.6-39.4-36.4c-4.7-9.8-6.2-21-4.8-31.7
	c2.6-22.9,16.5-42.8,18.5-65.9c0.3-6.3,0.2-12.9-2.1-18.8c-1.6-3.5-0.9-7.9,2-10.5c3-2.5,7.2-2.2,10.8-1.2
	c11.1,3.3,21.1,10,28.8,18.5c7.8-11.9,12.9-25.8,12.9-40.1c-0.2-7.6-1.7-15.3-5.3-22.1C476.8,50.5,475.1,48,475.9,45.1"/>
<path class="st0" d="M496.9,67.1c15.4,16,26.2,36.6,29.4,58.7c0.9,6.2,1,12.5,1.4,18.8c0.9,4.7,7.1,7,10.9,4.1
	c8.8-6.7,16.2-15.5,21.1-25.5c9.5,19.1,13.9,40.8,12.1,62.1c-1.7,15.6-6.8,31.4-17.4,43.2c-7.5,8.6-17.2,15.1-27.8,19.2
	c-20.4,8.2-44.1,8.7-64.6,0.4c-17.6-7.4-33.3-22.8-35.7-42.5c-1.5-15.7,5.4-30.4,10.6-44.7c5.6-15.2,10.1-31.5,7.7-47.9
	c8,4.1,14.8,10.2,20.1,17.4c2.2,3.4,7.3,4.1,10.4,1.6c2.7-2.3,4.5-5.4,6.6-8.2C492.9,107.3,499.3,87,496.9,67.1"/>
<path class="st2" d="M485.5,145.5c-1.4-3.2,2.8-6.7,5.7-4.7c13.4,8.3,23.8,21.6,27.3,37.1c2-2.8,3.1-6.1,4.1-9.3c1.1-3,5.6-2.9,7.2-0.4
	c7.4,9.6,12.2,21.6,11.8,33.8c-0.2,11.6-4.8,23.4-13.5,31.1c-10.5,9.3-25.3,13.2-39.1,11.4c-9.9-1.1-19.9-4.3-27.2-11.3
	c-7.7-6.9-10.3-18.3-7.6-28.1c2-9.6,8.3-18.1,8.1-28.1c0.1-2.7-1.2-5.2-1.6-7.8c0.2-2.2,2.3-3.8,4.4-3.7c6.5,0.2,12.2,3.8,17.3,7.5
	C487.4,164.8,488.7,154.5,485.5,145.5"/>
<path class="st1" d="M495.5,154.2c6.5,6.3,12.2,14,14,23c0.7,3.3,0.5,6.8,1.5,10c0.6,2.4,3.6,3.8,5.7,2.5c4.6-2.3,8-6.4,10.8-10.6
	c4.2,7.6,6.6,16.2,5.9,24.9c-0.6,8.8-4.2,17.6-11,23.4c-8.7,7.6-20.9,10.3-32.3,9c-8.5-0.9-17.4-3.4-23.5-9.8
	c-5.5-5.5-6.1-14.2-4-21.4c2.9-10,8.8-19.4,7.9-30.2c3.5,1.8,6.7,4.2,9.5,6.9c1.8,1.9,4.7,1.2,6.2-0.7
	C492.5,173.8,495.8,163.9,495.5,154.2z"/>
</svg>
