<svg version="1.1" xmlns="http://www.w3.org/2000/svg" xmlns:xlink="http://www.w3.org/1999/xlink" x="0px" y="0px" viewBox="0 0 1000 1000" style="enable-background:new 0 0 1000 1000;" xml:space="preserve">
<style type="text/css">
	.st0{fill:#FFD400;}
	.st1{fill:#FF002C;}
	.st2{fill:#000000;}
</style>
<path class="st2" d="M433.1,405.1c33.4-17.5,72.5-24.1,109.8-17.6c29.6,5.5,58.7,17.4,81.1,37.7c23,21.5,38.5,50.4,45.7,81
	c6.1,24.4,7.3,49.8,5,74.7c-1.4,16.4-4.9,32.6-10.5,48.1c-6.2,15.8-13.8,31.3-24.6,44.5c-8.9,11.1-19,21.4-31.1,28.9
	c-2.6,1.8-6.6,1.1-8-1.8c-1.6-2.7,0-6.1,2.5-7.5c6-4,11.6-8.4,16.6-13.6c2.5-2.6,5.2-5.1,6.3-8.6c-10.8,2.5-21.5,5.7-32.5,7.4
	c-24.5,4-49.4,6.2-74.3,5.9c-20.4-0.4-40.8-1.2-60.9-4.7c-21.1-3.5-42.3-7.5-62.7-14.1c-3.7-1.1-7.2-3.2-11.2-3.1
	c0.9,4.8,4.2,8.5,7.1,12.3c7.6,9.5,17.2,17.1,27,24.2c2,1.4,4.2,3.6,3.6,6.3c-0.4,3.2-4,5.3-7,4.3c-3.7-1.5-6.9-4-10.2-6.2
	c-21.9-16-38.9-38.2-50.3-62.7c-9.6-21.1-13.8-44.3-15.1-67.3c-1.2-33.2,4.2-67.2,19.9-96.8C375.5,445.4,402.4,421,433.1,405.1
	 M495.5,397.8c-19.7,2.4-38.9,8.2-56.5,17.3c-16,8.3-31.1,18.6-43.2,31.9c-4.6,5.3-8.8,13.2-4.8,20c3.9,6,11.7,6.5,18.1,8
	c36.4,8.2,73.6,12.1,110.9,13.6c21.7,0.9,43.4,1.3,65.1,0c15.7-1,31.5-1.6,47-4c4.2-0.6,9.3-2.2,10.6-6.8c1.5-5.5-1.8-10.6-4.2-15.3
	c-8.8-16.1-21.6-30-36.8-40.1c-13.5-9-28.7-15.4-44.3-19.8C537.2,397,516.2,395.3,495.5,397.8"/>
<path class="st0" d="M374.4,483.5c4.1-1.2,8.4-0.3,12.5,0.4c11.9,2.4,23.8,5.2,35.8,7.3c17.4,3,34.9,5.6,52.4,7.6
	c29.2,2.5,58.5,4.7,87.8,3.6c25.9-0.1,51.9-2,77.5-6.1c3.4-0.5,7-1.4,10.3-0.1c3.7,1.7,5.2,5.8,6.4,9.4c2.4,8.3,3.5,16.9,4.6,25.5
	c3.3,22.6,2.9,45.7-1,68.2c-3.2,14.8-7.4,29.8-15.6,42.8c-4.6,7.5-13.2,10.9-21.1,13.7c-15.4,4.9-31.3,7.9-47.2,10.5
	c-24.1,3.8-48.5,3.8-72.8,3.3c-24.5-0.8-49-4.3-72.9-9.6c-15-3.3-29.7-8-43.7-14.4c-7.3-3.3-14.3-7.4-19.9-13.1
	c-7.1-7.5-10.2-17.6-12.4-27.5c-4.1-19.2-4.8-39-3.1-58.5c1.4-17.1,5.1-34.1,11.6-50.1C365.8,491.4,368.6,485.5,374.4,483.5"/>
<path class="st2" d="M456.2,514.1c6.9-1.7,14.2,1.8,18.4,7.3c8,10.6,8.3,25.9,2.2,37.5c-3.2,6.2-8.9,11.5-16,12.6c-7.2,1.1-14.4-3.2-18.2-9.2
	c-6.3-9.8-6.8-22.6-2.3-33.2C443.2,522.2,448.8,515.9,456.2,514.1"/>
<path class="st2" d="M599.4,525.6c3.5-1.3,7.5-1.4,10.9,0.2c6.2,2.6,10.2,8.9,11.8,15.2c2,8.5,0.5,18.1-4.9,25.2c-3.3,4.3-8.6,7.5-14.2,7.1
	c-5.7-0.3-10.7-4-13.5-8.8c-5.2-8.6-5.3-19.9-0.7-28.9C591,531.2,594.7,527.4,599.4,525.6"/>
<path class="st2" d="M455.5,582.7c8.5-1.6,17.2,3,22,9.9c8.6,12,8.5,29.3,0.6,41.7c-4.3,6.8-11.8,12.2-20.1,12.1c-8.1,0.1-15.4-5-19.5-11.7
	c-7.5-12.1-7.1-28.5,0.7-40.4C442.9,588.5,448.7,584.1,455.5,582.7"/>
<path class="st2" d="M602.5,584.5c6.8-0.8,13.8,2.6,17.9,8c9,11.5,8.1,29.4-1.8,40c-4.6,5-11.8,7.9-18.6,6.4c-7-1.5-12.6-7-15.4-13.5
	c-4.6-10.4-3.2-23.2,3.6-32.2C591.6,588.6,596.8,585.4,602.5,584.5"/>
<path class="st1" d="M457.3,524.5c2.4-0.7,5.2-0.6,7.1,1c4.3,3.4,6,9.1,6.3,14.4c0.3,6.7-1.3,13.9-6.2,18.7
	c-2.1,2.2-5.5,3.5-8.5,2.4c-3.5-1.4-5.7-4.9-6.9-8.3c-2.5-6.9-1.9-14.8,1.3-21.3C452,528.5,454.2,525.7,457.3,524.5z"/>
<path class="st1" d="M602.2,534.2c3.7-1.5,7.6,1.1,9.2,4.4c3.6,6.7,3.1,15.4-1.2,21.7c-2,3.1-6.4,5.3-9.8,3.1
	c-4.9-3.3-6.3-9.8-5.9-15.3C595,542.7,597.1,536.6,602.2,534.2z"/>
<path class="st1" d="M454.5,593.7c7.1-3.4,14.6,2.2,17,8.7c3.4,7.9,3,17.4-1.1,25c-2.3,4.3-6.3,8.1-11.4,8.7
	c-4.8,0.5-9.2-2.5-11.7-6.4c-4.7-7.2-5.2-16.7-2.3-24.7C446.8,600.3,449.8,595.8,454.5,593.7z"/>
<path class="st1" d="M600.3,594.5c3.7-1.7,8.3-1.1,11.3,1.8c5.8,5.4,6.9,14.2,5,21.6c-1.5,5.6-5.5,11.3-11.6,12.3
	c-5.4,0.8-10.1-3.4-12.1-8.1C588.8,612.9,590.9,599.6,600.3,594.5z"/>
</svg>
