<svg version="1.1" xmlns="http://www.w3.org/2000/svg" xmlns:xlink="http://www.w3.org/1999/xlink" x="0px" y="0px" viewBox="0 0 1000 1000" style="enable-background:new 0 0 1000 1000;" xml:space="preserve">
<style type="text/css">
	.st0{fill:#000000;}
	.st1{fill:#FF002C;}
	.st2{fill:#FFD400;}
	.st3{fill:#FF3CAE;}
</style>
<path class="st0" d="M492.8,284.1c-11.5-11.5-23.6-22.3-35.5-33.4c-41.2-37.8-82.6-75.4-123.4-113.7c-2.8-3-7.3-6.4-5.7-11.1
	c1.8-6.1,2-12.6,1-18.9c-2-12.3-10.6-23.2-21.9-28.4c-7.1-3.4-15.3-3.9-22.9-1.9c-9.8,2.2-18,9.3-22.9,17.9
	c-6.6,11.9-6.8,27.5,0.5,39.2c4.6,7.4,12.1,12.6,20.2,15.6c1.9,0.9,4.7,1.4,5.4,3.8c0.9,2.5,1.2,5.1,1.7,7.7
	c11.2,61.3,22.6,122.6,33.8,183.9c1.5,7.2,1.9,14.8,4.3,21.8c2,5.8,8.1,8.5,13.6,9.9c21.8,5.5,44.8,3.7,66.2-2.4
	c17.2-4.9,33.2-13.5,47.4-24.4c13-9.9,25.1-21.2,34.5-34.5c4.1-5.7,7.7-12.1,8.3-19.2C497.9,291.5,496.1,287.1,492.8,284.1z"/>
<path class="st1" d="M289.1,92.2c10.7-2.6,22.5,4.8,25.1,15.5c3,10.2-3.3,21.9-13.3,25.4c-7.8,3.1-17.1,0.8-22.8-5.3
	c-3.6-3.7-5.6-8.7-6-13.8C271.6,103.9,279.2,94.2,289.1,92.2z"/>
<path class="st2" d="M479,296.8c-0.5-2.9-2.6-5.2-4.6-7.2c-5.5-5.4-11.2-10.6-16.8-15.9c-9.3-8.9-18.7-17.7-28.1-26.5
	c-7.8-7.2-15.5-14.5-23.3-21.8c-9.2-8.8-18.5-17.5-27.8-26.2c-7.6-6.9-14.9-14.2-22.5-21l0.1-0.2c-9.2-8.4-18.1-17.1-27.3-25.5
	c-4-3.3-7.2-7.5-11.7-10.1c-0.5,0-1.4,0-1.9,0c-3.5,2.2-7.2,3.8-10.9,5.7c-0.8,2.1-0.1,4.3,0.2,6.4c2.5,12.1,4.3,24.4,7,36.5
	l0.5,0.2l-0.2,0.8c-0.3,1.7,0.3,3.3,0.5,4.9c2.9,15,5.7,30.1,8.6,45.2c3.5,17.9,6.9,35.9,10.2,53.9c2.6,14,5.2,27.9,7.9,41.9
	c1.3,5.6,1.9,11.3,3.5,16.8c0.9,3.3,3.2,6.3,6.5,7.3c7.2,2.3,14.8,1.7,22.2,1.6c20-0.9,39.8-6.7,57.1-16.5
	c18.8-10.2,35.1-24.8,47.6-42.1C477.7,302.6,479.5,299.9,479,296.8z"/>
<path class="st3" d="M304.2,148.2c3.7-1.9,7.4-3.5,10.9-5.7c0.5,0,1.4,0,1.9-0.1c4.5,2.6,7.8,6.8,11.7,10.1
	c-4.5,13.3-9.8,26.5-16.9,38.6l-0.5-0.2c-2.6-12.1-4.5-24.3-7-36.5C304,152.4,303.4,150.2,304.2,148.2z"/>
<path class="st3" d="M320.8,242c15-19.2,26.7-40.9,35.1-63.8c7.6,6.8,14.9,14.1,22.5,21c-8.1,35.2-23.8,69.1-47.4,96.7
	C327.7,278,324.3,260,320.8,242z"/>
<path class="st3" d="M406.2,225.4c7.7,7.3,15.4,14.6,23.3,21.8c-8.1,43.1-27.4,84.7-58.2,116.3c-7.4,0.1-15.1,0.7-22.2-1.6
	c-3.3-1-5.6-4-6.5-7.3c-1.6-5.5-2.3-11.2-3.5-16.8C372.5,308.5,394.9,268.1,406.2,225.4z"/>
<path class="st3" d="M457.6,273.7c5.5,5.3,11.3,10.5,16.8,15.9c2,2,4.1,4.3,4.6,7.2c0.5,3-1.2,5.8-2.9,8.1
	c-12.6,17.2-28.9,31.9-47.6,42.1C442.2,324.5,451.7,299.4,457.6,273.7z"/>
</svg>
