<svg version="1.1" xmlns="http://www.w3.org/2000/svg" xmlns:xlink="http://www.w3.org/1999/xlink" x="0px" y="0px" viewBox="0 0 1000 1000" style="enable-background:new 0 0 1000 1000;" xml:space="preserve">
<style type="text/css">
	.st0{fill:#000000;}
	.st1{fill:#B65F40;}
	.st2{fill:#EDEDED;}
	.st3{fill:#00A900;}
</style>
<path class="st0" d="M629.1,73.8c-4.2-5.7-12-5-18.2-4.6c-82.7,7.3-165.3,14.5-248,21.9c-5.7,0.9-12.1,0.3-17.1,3.6
	c-5.2,5.2-6,13-6.7,19.9c-0.7,8.8-0.7,17.8,1.3,26.5c1.3,4.8,2.9,9.7,5.7,13.8c3.4,4.1,9.2,3.5,13.9,3.3
	c35.4-1.9,70.7-5.8,106.1-8.8c48.8-4.4,97.7-8.6,146.5-13.1c5.9-0.9,12.5-0.5,17.4-4.3c4.8-4.4,6.5-11,7.6-17.2
	C639.5,100.9,637.7,85.5,629.1,73.8z"/>
<path class="st0" d="M210.9,523.1c-9.8-7.2-22.3-8.2-34-9.5c1.3-11.1,3.6-22.4,2.3-33.6c-0.6-5-4.9-8.2-9.2-10.1
	c-6.9-3.1-14.3-5.6-21.9-5.1l1.2-0.4l-2-0.5c-10.4-0.4-21.5-1.8-31.2,3.1c-4.5,2.2-6.3,7.3-6.9,12c-1.3,9.7-1.7,19.5-2.7,29.2
	c-10.7-0.8-21.8,4.8-26.8,14.4c-5.3,9.6-4.5,20.9-5,31.4c0,19.6-1.3,40.1-10.7,57.7C58,622.3,53.4,633.9,52.7,646
	c-0.7,13.4,4,26.4,10.3,38.1c7.2,12.6,16.4,24.1,27.8,33.1c-0.1,12-0.8,23.9-2,35.8c-0.4,4.9-0.6,10.4,2.5,14.6
	c3.8,5.1,9.9,7.6,15.7,9.5c14.9,4.3,31.3,4.1,45.9-1.4c3.9-1.4,7.3-4.5,8.2-8.7c1.9-8.4,1.7-17.1,2.3-25.7
	c5.8-1.2,10.9-4.7,14.4-9.5c6-7.9,10.5-16.8,14.2-26c7.2-17.6,12.7-35.9,17.5-54.3c5.2-19.9,9.9-40.1,12-60.6
	c1.5-15,4.3-30,2.4-45.1C222.8,537,218.4,528.2,210.9,523.1z"/>
<path class="st1" d="M618.7,87.8c0.5-2.5,0.9-5.5,3.3-6.8c2.6-0.4,3.7,2.4,4.5,4.4c2.3,6.9,2.7,14.4,2.6,21.7
	c-0.4,5.2,0.2,12.1-5.2,15c-1.9-2.4-3.5-5.1-4.1-8.1C617.9,105.4,617.4,96.5,618.7,87.8z"/>
<path class="st1" d="M573.1,85.2c12.9-1.2,25.8-2.2,38.6-3.5c-3.9,13.9-2.4,29,3.6,42c-12.7,1-25.4,2.3-38.1,3.3
	C574.7,113.2,574,99.1,573.1,85.2z"/>
<path class="st1" d="M354.3,104.5c14.7-1.4,29.4-2.6,44.1-4c-2.8,14.4-5.6,28.8-8.4,43.2c-11.5,1-23,2.1-34.5,3.1
	C350.8,133.2,350.7,118.4,354.3,104.5z"/>
<path class="st1" d="M120.3,482.2c0.8-3.5,4.7-4.1,7.7-4.7c10.8-1.8,22.1-0.6,32.3,3.2c2.8,1.1,6.3,2.8,6.4,6.2
	c0.5,9-0.6,17.9-1.1,26.9c-15.8-1-31.8-0.4-47.4-3.7C118.3,500.8,118,491.2,120.3,482.2z"/>
<path class="st1" d="M101.7,728.8c11.1,4.6,23.9,3.2,34.6,8.9c5.1,2.6,10,5.8,15.7,7.2c-0.1,4-0.4,7.9-0.6,11.9
	c-9.8-6.4-21.8-8.2-33.3-8.4c-6.1-0.1-12.2,0.8-18,2.7C100.6,743.6,101.1,736.2,101.7,728.8z"/>
<path class="st1" d="M98.9,759c8.2-5.7,18.8-5,28.2-4.1c8.1,1.3,17.3,2.6,23,9.2c-5.4,4.2-12.5,4.7-19,4.8
	c-8.8-0.1-17.8-1.4-25.9-4.9C102.6,762.9,100.6,761,98.9,759z"/>
<path class="st2" d="M535.5,88.4c9.2-0.8,18.5-1.7,27.8-2.4c0.9,14,1.6,28.2,4.1,42.1c-3.9,0.4-7.7,0.7-11.6,1
	C549,115.5,542.2,101.9,535.5,88.4z"/>
<path class="st2" d="M490.4,92.3c9.2-0.8,18.3-1.6,27.5-2.4c-1.3,14.3-2.7,28.6-4.1,42.9c-3.6,0.3-7.3,0.6-10.9,0.9
	C498.7,119.9,494.5,106.2,490.4,92.3z"/>
<path class="st2" d="M467.1,94.4c4.4-0.5,8.9-0.8,13.3-1.1c4.1,13.8,8.3,27.6,12.4,41.4c-7.5,0.6-15.1,1.4-22.6,1.9
	C469.1,122.6,467.9,108.5,467.1,94.4z"/>
<path class="st2" d="M527.5,94.6c5.8,11.8,11.8,23.6,17.6,35.5c-7,0.6-14.1,1.2-21.1,1.9C525,119.4,526.4,107,527.5,94.6z"/>
<path class="st2" d="M430.2,97.7c7.6-0.7,15.3-1.3,22.9-2.1c-6.1,6.1-12.1,12.3-18.2,18.4C433.3,108.6,431.8,103.1,430.2,97.7z"/>
<path class="st2" d="M408.7,99.6c3.8-0.4,7.6-0.7,11.4-1.1c4,13.9,8.1,27.7,12,41.6c-10.6,0.9-21.2,1.9-31.8,2.8
	C403.1,128.5,405.9,114.1,408.7,99.6z"/>
<path class="st2" d="M438,124.9c6.5-6.7,13.2-13.3,19.7-20c1,10.9,1.6,21.8,2.6,32.7c-6.1,0.6-12.1,1.3-18.2,1.4
	C440.7,134.3,439.4,129.6,438,124.9z"/>
<path class="st2" d="M297.7,113.8c12.7-6.5,29.2-7.5,41.3,0.8c-0.7,8.8-0.7,17.8,1.3,26.5c-8.2,8-20,11.6-31.3,11.1
	c-7.8-0.2-15.7-2.9-21.3-8.5c-3.8,1.5-7.6,3.1-11.5,4.5c-0.2,11.7-9.3,20.7-18.9,26c-11.5,6.3-26.1,9.6-38.5,3.6
	c-4.6,4.1-9.1,8.3-13.7,12.4c3.6,9.9-0.8,20.5-6.7,28.6c-8.1,10.7-20.9,19.7-34.9,18.2c-1.6,3.1-3.2,6.3-4.8,9.4
	c6.2,8.8,5.8,20.3,3.4,30.3c-3,11.7-9,23.5-19.8,29.7c0.1,4.6,0.7,9.1,0.7,13.8c6.3,2.3,10.9,7.7,13.4,13.8
	c4.4,10.3,4.9,22.3,1.3,32.9c-1.8,5.4-5.2,10.2-10,13.4c0.7,5.6,1.3,11.1,2.1,16.7c6,1.2,11.2,5.2,14.2,10.5
	c6.6,11.2,6.5,25.9,0.6,37.3c-3,5.9-8.1,10.7-14.6,12.5c-0.1,2.4-0.6,4.7-1.1,7l-2-0.5c-2.5-0.8-5.1-0.5-7.6-0.7
	c0.4-2.1,0.5-4.3,0.8-6.5c-9.8-4.5-14.7-15.5-15.3-25.8c-0.8-12.3,3.9-26,15.1-32.3c-0.8-5.5-1.4-11.1-2.1-16.6
	c-6.6-1.8-11.5-7.1-14.2-13.2c-5.2-11.4-5.5-25-0.5-36.5c2-4.7,5.5-8.7,9.9-11.2c-0.1-4.3-0.6-8.6-0.7-13
	c-6.6-1.8-10.9-7.8-12.2-14.3c-2.8-13.2,1-27.1,7.9-38.5c4.7-7.6,12.5-14.9,22.1-14.2c1.5-3,3.1-6.1,4.6-9.1
	c-3.4-4.4-4.9-10.2-3.8-15.7c2.2-12.3,10.6-22.8,20.8-29.5c7.7-5.1,17.9-8.2,26.7-4.1c4.4-4.1,8.8-8.1,13.3-12.1
	c-2.3-5.8-1.3-12.5,2.1-17.6c6.2-9.7,16.9-15.8,27.9-18.8c10.1-2.7,22.2-2.5,30.4,4.9c3.7-1.5,7.5-3,11.3-4.4
	C283,125.5,289.9,117.8,297.7,113.8 M293.9,130.4c2.4-0.7,5.1-2,7.6-0.8c1.8,0.8,2.3,2.8,3,4.4c-0.7,3-3.3,4.6-5.9,5.8
	c9,3.8,19.5,3.2,28.2-1.1c3.4-1.7,6.7-4.1,8.5-7.5c1.3-2.6,0.8-6-1.5-7.9c-4.5-4-10.9-4.8-16.7-4.6
	C308.2,119.3,298.7,122.6,293.9,130.4 M237.4,146.5c-7.2,3.3-14.1,8.4-16.9,16.1c2.5-2,6.6-3.2,8.8,0.1c2.1,2.8-0.1,5.8-1.9,8
	c5.2,0.4,10.4,0.5,15.4-1c9.3-2.6,18.4-8.1,22.9-17c-2.9,1-5.7,2.5-8.7,3c-3.5,0-6.1-4-4.3-7.2c1.8-2.9,5.5-3.4,8.3-4.8
	C253.1,141.6,244.8,143.2,237.4,146.5 M174.5,197.5c-6.9,5.6-12.6,13.4-13.7,22.4c2-2.1,5.3-4,7.9-1.7c3.1,2.3,1.6,6.2,0.3,9
	c5.1-0.9,9.8-3.2,13.9-6.4c7.1-5.6,12.8-13.5,13.9-22.6c-2.4,1.8-4.5,4.8-7.8,4.7c-3.2-0.1-5.5-3.9-4-6.8c1.1-2.1,3.1-3.6,4.8-5.3
	C184.1,191.4,178.8,194,174.5,197.5 M135.4,263.1c-5.3,10-7.6,22-4.1,33c0.5-3,0.8-7.3,4.6-7.8c3.8-0.9,6,3.1,6.3,6.4
	c9-9.8,13.2-23.9,11.2-37c-1.7,2.9-2.6,6.4-5.2,8.6c-3.2,2.1-7.8-0.4-7.6-4.2c0.7-3.6,2.9-6.6,4.3-9.9
	C140.9,255,137.6,258.8,135.4,263.1 M144.4,332.4c-0.2,2.4,0.2,4.9-0.8,7.1c-1.4,2.6-5.2,3.2-7.4,1.2c-2.1-1.8-1.8-4.8-2.1-7.2
	c-6.2,11.2-5.3,26.1,2.2,36.5c0.5-2.4,1-5.4,3.7-6.2c3.2-1.3,5.7,1.6,6.9,4.2C152.2,356.8,151.6,342.6,144.4,332.4 M151.6,407.9
	c0,2.9,1.3,6-0.2,8.7c-0.8,1.7-2.8,2.1-4.4,2.9c-4.6-1-5.2-5.8-5.6-9.6c-8,9.7-8.6,25.1-1,35.1c1.3-2,2.7-4.6,5.5-4.4
	c3.2-0.1,4.7,3.1,5.2,5.8c5.7-4.6,7.9-12.2,8.1-19.3C159.3,420,157.2,412.5,151.6,407.9z"/>
<path class="st2" d="M102.7,521.8c8.2-2.7,16.8-0.9,25.2-0.3c-19.2,32.7-33.8,68.8-38.5,106.6c-2.8,22.6-3.8,45.7,0.5,68.1
	c-7-7.7-12.3-16.8-16.4-26.3c-4.3-9.9-6.9-20.9-5.8-31.8c0.9-9.5,6.4-17.6,10.6-25.9c5.5-10.2,8.8-21.6,9.9-33.1
	c1.6-15.6-0.7-31.7,4.4-46.8C94.1,527.5,97.8,523.3,102.7,521.8z"/>
<path class="st3" d="M142.4,524.5c6.4-2,13.1,0.1,19.6,0.3c12.9,1.2,27.4,1.6,37.4,10.9c8.1,7.5,8.3,19.2,8.6,29.4
	c0.1,17.4,0.5,35.4-6,51.9c-2.4,6-5.2,12.5-10.7,16.4c-3.3,2.4-7.7,1.5-11.4,0.5c-8.1-2.3-16.3-4.7-24.2-7.8
	c-7.9-3.1-15.7-6.7-23.7-9.5c-4.2-1.5-8.7-2.8-13.2-2.4c-3.2,0.2-5.3,4-3.8,6.9c1.6,3.1,5.1,4.4,8.2,5.6
	c17.3,5.7,35.3,9.3,52.4,15.7c6.5,2.3,12,7.3,14.2,13.9c2.7,6.8,0.6,14.1-0.8,20.9c-2.7,10.8-5.6,21.6-10.4,31.6
	c-2.8,5.5-6,11.5-11.9,14.2c-5.3,2.6-11.4,0.8-16.7-0.8c-8.2-2.7-16.5-5.4-24.9-7.5c-8.9-2.3-18-6.5-22.9-14.7
	c-7.3-12.2-7.8-27-7.3-40.8c1-25.4,5.1-50.8,13.4-74.8c6-16.3,12.4-32.6,21.4-47.5C132.8,531.7,136.4,526.3,142.4,524.5z"/>
</svg>
