<svg version="1.1" xmlns="http://www.w3.org/2000/svg" xmlns:xlink="http://www.w3.org/1999/xlink" x="0px" y="0px" viewBox="0 0 1000 1000" style="enable-background:new 0 0 1000 1000;" xml:space="preserve">
<style type="text/css">
	.st0{fill:#000000;}
	.st1{fill:%%ST1%%;}
</style>
<path class="st0" d="M717.4,462.5c-3.5-18.2-8.7-36.2-16.8-52.9c-1.1-2.7-3.5-4.9-6.5-5.1c-4.6-0.2-8.9,1.9-13.1,3.4
	c-9,3.6-18.5,5.8-27.9,7.8c-26,5.1-52.5,6.8-79,6.9c-24.4,0.2-48.7-1.3-73-3.5c-41.5-3.6-82.7-11.2-122.8-22.6
	c-17.9-5.1-35.8-10.3-52.7-18.1c-5-2.3-10.2-5.2-12.9-10.1c-2.7-4.9-3.6-10.5-5-15.8c-4.6-17.7-9.3-35.5-17-52.2
	c-2.1-4.4-5.1-9.8-10.6-9.8c-5.7-0.1-9.5,4.7-12.5,9c-8.7,12.5-17.7,24.7-28,36c-3.2,3.8-7.3,7.5-8.2,12.7
	c-0.5,4.7,2.9,8.5,5.8,11.7c6.5,6.8,12.7,13.8,19.2,20.6c-6.8-0.6-13.6-1.9-20.4-1.9c-4.8,0.2-7.4,4.9-8.6,9
	c-5.2,16.5-9.7,33.3-15.2,49.7c-0.9,2.9-2.1,6.2-0.7,9.2c1.3,3.4,5.2,4.6,8.5,4.9c7.7,0.6,15.3-0.7,23-1c17.7-1.2,35.5,1.8,52.2,7.5
	c19.5,5.3,38.9,11.5,58.5,16.6c21.8,5.8,43.7,11.4,65.8,15.9c26.9,5.4,54,10.2,81.4,12.2c49.8,4.1,100,0.7,149.1-8
	c16.8-3.2,33.7-6.3,50.4-10.1c5.3-1.5,11-3.1,15.2-6.8C719.7,473.6,718.1,467.5,717.4,462.5z"/>
<path class="st1" d="M271.8,318.8c1.6-1.8,3-4,5.4-4.7c2.5,0.2,3.2,2.9,4,4.9c7.7,22.2,15.5,44.4,22.5,66.8
	c-2.9,5.3-5.7,10.6-8.6,15.9c-12.8-14.5-25.9-28.6-39.1-42.6c-2.6-2.9-5.8-5.5-7.6-9.1c-0.4-2.5,1.6-4.7,2.9-6.7
	C257.9,335,265.2,327.2,271.8,318.8z"/>
<path class="st1" d="M240.4,394.3c3.2-1.6,7.1-0.2,10.5,0.2c7,1.5,15.1,1.7,20.6,7c5.4,5.3,10.2,11.1,15.3,16.7
	c-1.8,4.3-3.6,8.7-5.3,13.1c-16.5,1.5-33,3.3-49.5,4.8c-2,0.3-3.9-0.1-5.7-0.9c1.9-9.9,6.1-19.2,9.2-28.8
	C237.1,402.4,237.7,397.8,240.4,394.3z"/>
<path class="st1" d="M319.3,399.5c4.2-0.9,8.3,0.6,12.3,1.7c17.3,5.2,34.5,10.8,52.1,15.1c69.8,18.1,142.4,24.7,214.3,19.7
	c20.1-1.5,40.2-3.6,59.9-8c8.2-2,16.6-3.6,25-4.9c2.9-0.6,6.6-0.2,7.9,3c4.6,9.8,7,20.5,9.2,31.1c0.4,3.3,1.7,7,0.1,10.2
	c-1.8,3.4-5.8,4.5-9.2,5.5c-23.9,6.3-48.4,10.1-72.9,13.1c-43.5,5.5-87.5,5.5-131,1c-40.1-4.1-80.1-11.1-118.9-21.9
	c-19.3-5.4-38.6-11.3-57.6-17.6c-3.5-1.4-7.6-2.6-9.6-6.1c-1.6-3.6,0.3-7.4,1.4-10.9c1.5-3.7,2.8-8.4,7-9.8
	c6.5-1.6,12.4,2.4,18.6,3.8c1.9-0.2,2.5-3.1,0.8-4c-4.6-2.4-10-3.6-13.7-7.5c-1.8-1.8-2.3-4.7-1.1-7
	C315.1,403.4,316.5,400.4,319.3,399.5z"/>
</svg>
