<svg version="1.1" xmlns="http://www.w3.org/2000/svg" xmlns:xlink="http://www.w3.org/1999/xlink" x="0px" y="0px" viewBox="0 0 1000 1000" style="enable-background:new 0 0 1000 1000;" xml:space="preserve">
<style type="text/css">
	.st0{fill:#000000;}
	.st1{fill:#4A4F4F;}
	.st2{fill:#EDEDED;}
</style>
<path class="st0" d="M799.4,528.4c29.2-19.6,69.4-21.2,100-3.9c14.5,8.1,26.6,21.1,32.2,36.9c5,14,4.2,29.8-1.9,43.3
	c-2.4,5.9-6.2,10.9-9.8,16.1c-0.4,12.1-3.1,24.3-9.3,34.8c-11.7,20.5-34.4,33.6-57.7,35.2c-6.2,0.4-9.9-8-5.3-12.2
	c7.8-7.5,12.2-17.7,13.8-28.3c-19.3,2.2-39.3-1.1-56.5-10.3c-13.5-7.2-25.1-18.4-31.6-32.4c-6.3-13.3-7.2-29.1-2.5-43
	C775.8,549.7,786.4,537.1,799.4,528.4"/>
<path class="st0" d="M789.2,687.1c1.4-2,4-2.6,6.1-1.4c22,8.2,43.3,18,65,27.1c10,4.3,20.1,8.5,30.1,13c2.9,1.1,3.8,5,1.8,7.4
	c-14.1,21-28,42.1-42.1,63.2c10.3,10.8,13,27.9,6.7,41.4c-3.3,7.6-9.4,13.8-16.8,17.6c-2.2,18.2-8.6,36.1-19.7,50.9
	c-9.4,13-22.9,22.9-38.2,27.7c-16.9,5.5-35.6,4.7-52-1.9c-21.6-8.8-40-26.6-47.2-49.1c-2.9-9.1-4.6-18.5-5.2-28
	c-2.4-1.1-5-2-7.3-3.3c-2.9-1.4-4-5.6-1.9-8.1c6.5-8.5,13.4-16.7,20-25.1c-3.3-9.5-3.2-19.7-2.2-29.5c1.3-13.2,5.5-26.4,13.9-36.9
	c6.6-8.3,16.2-14.5,26.8-16c7.5-1.2,15,0.2,22,3C762.5,721.8,775.7,704.4,789.2,687.1"/>
<path class="st1" d="M798,702.3c24.8,10.6,49.5,21.3,74.2,31.9c-12.7,19-25.3,38-38.1,56.9c-9.7-5.9-20.7-10.3-32.1-10.9
	c-8-0.5-16.9,2.5-20.9,9.8c-2.6,4-3.2,8.8-3.1,13.5c-6,1.2-12,3.8-16.2,8.4c-7.3,7.7-10,19.5-6.2,29.5c-3.6,2-7,4.7-8.8,8.6
	c-3.1,6.1-2.5,13.2-0.8,19.6c-19.3-8.5-38.7-17-58-25.6C724.7,796.7,761.4,749.5,798,702.3"/>
<path class="st2" d="M799.4,718.4c2.8-1.4,6-0.8,8.8,0.4c12.1,5.3,24.2,10.5,36.3,15.8c3.4,1.4,6.5,4.5,6.5,8.4
	c0.3,4.1-2.8,8.1-6.8,8.8c-3.7,0.8-7.1-1.1-10.3-2.5c-11.5-5.2-23.3-9.9-34.8-15.3C792.8,731,793,721,799.4,718.4z"/>
<path class="st2" d="M783.3,742.3c2.8-1.3,6-0.5,8.7,0.7c11.9,5.2,23.7,10.3,35.6,15.5c2.7,1.1,5.2,3,6.3,5.8
	c1.9,4.3-0.8,9.8-5.2,11.2c-2.8,0.9-5.7,0.3-8.3-0.8c-11.8-5.2-23.7-10.3-35.5-15.5c-2.7-1.1-5.3-2.9-6.3-5.7
	C776.5,749.2,779,743.9,783.3,742.3z"/>
<path class="st2" d="M724.2,753.2c6.4-3,14.7-2.3,20.1,2.5c-13.2,17-26.4,34-39.6,51c-5-11-2.9-23.7,1.8-34.3
	C710.2,764.4,716,756.9,724.2,753.2z"/>
<path class="st2" d="M792.9,791c5.9-2.7,12.7-1.4,18.8,0.2c10.8,3.2,21.6,8.6,28.2,18c3.7,5.1,5.1,11.9,3.2,18
	c-1.9,5.4-5.7,9.8-10,13.4c-4-11.9-12.9-21.5-23.3-28.2c-6.8-4.4-14.5-7.6-22.5-8.8C786.9,798.7,788.3,793.2,792.9,791z"/>
<path class="st2" d="M771,816c5.7-4.1,13.3-4.2,19.9-2.4c10,2.9,19,8.9,25.8,16.7c5.7,6.5,9.3,15,9.1,23.8
	c0.4,13.2-5.5,25.5-12.7,36.1c-8.9,13.3-21.6,24.6-36.8,30.1c-8.7,3.2-18.4,3.5-27.3,0.9c-16.4-4.4-30.2-15.4-41.2-28
	c-7.9-8.9-13.4-20.3-13.7-32.3c20.3,8.6,40.7,17.2,61,25.9c4.9,4.1,8.9,9.4,14.8,12.3c2.7,1.5,6.5-0.9,6.3-4
	c0.1-1.9-1.4-3.4-2.8-4.4c-8.6-6.1-16-14.7-18.8-25c-1.3-4.8-1.5-10.9,2.6-14.4c4.4-3.5,10.6-2.6,15.5-1c10.9,3.9,20,12.2,25.5,22.3
	c1.5,2.4,2,6.1,5.2,7c3.2,1,6.4-2.4,5.4-5.6c-2.2-6.9-6.7-13-11.6-18.3c-8.5-8.8-19.9-15.8-32.4-16.2
	C761.2,831.5,763.8,821.1,771,816z"/>
<path class="st2" d="M814.5,535.7c25.5-12.9,58-12.3,82.1,3.6c11.4,7.5,20.6,19.1,23.3,32.7c2.9,13.3-1.3,27.6-9.8,38.2
	c-1.7,2.2-4.5,4-4.6,7c-0.2,3.3,0.1,6.6-0.2,9.8c-1.2,12.6-7,24.6-16.1,33.4c-5.8,5.7-12.8,9.9-20.3,12.8c2.9-6.1,5.1-12.5,6-19.2
	c0.8-5.9,1.9-12,0.6-18c-0.1-1.7-2.1-2.5-3.5-1.8c-17.7,4.7-37,3.8-54-3.3c-13.5-5.6-25.8-15.5-32-28.9c-5.2-10.8-5.6-23.8-1.3-35
	C790.2,553.2,801.5,542.3,814.5,535.7"/>
<path class="st0" d="M851,536.9c7.4-1.6,14.9,4.6,15.2,12c0.4,9.7,0,19.4,0.2,29.1c0,4.7,0.3,9.8-2.5,13.8c-3.2,5-10.1,7-15.5,4.6
	c-5-2-8.2-7.2-8.1-12.5c-0.1-11.4-0.1-22.8,0-34.1C840.2,543.7,844.8,537.9,851,536.9z"/>
<path class="st0" d="M849.3,602.5c7.9-2.7,17.2,4,16.6,12.5c0.3,8.2-8.7,14.8-16.5,12.3c-6.5-1.7-10.8-8.9-9-15.4
	C841.4,607.5,845,603.8,849.3,602.5z"/>
</svg>
