<svg version="1.1" xmlns="http://www.w3.org/2000/svg" xmlns:xlink="http://www.w3.org/1999/xlink" x="0px" y="0px" viewBox="0 0 1000 1000" style="enable-background:new 0 0 1000 1000;" xml:space="preserve">
<style type="text/css">
	.st0{fill:#000000;}
	.st1{fill:#00A900;}
</style>
<path class="st0" d="M508.4,106.8c-2.5-1.1-5.4-0.6-8-0.1c-10.3,2.7-20.8,5.1-30.7,9.1c-27.9,11.1-53.7,27.7-74.5,49.3
	c-5.5,5.5-10.5,11.5-16.8,16.2c-2.5,2-5.9,1.2-8.5-0.1c-10-4.7-20.8-8-31.7-9.8c-17.6-2.9-35.8-0.9-52.7,4.8
	c-18.7,6.3-36.6,15.1-55.6,20.6c-10,2.9-20.3,4.5-30.7,5.2c-3.7,0.3-7.5,0.4-11,1.8c-3.1,1.1-5.1,4.8-4,8c1.1,3.5,3.6,6.4,6.1,9.1
	c4.3,4.4,8.8,8.6,13.1,13c6.1,6.2,11.6,12.9,17.2,19.5c8.2,9.8,17,19.1,26.4,27.8c15,13.5,35.2,19.9,55.1,20.5
	c24.2,0.7,47.2-8.4,71.1-9.8c13.2-0.5,27.1,1.4,38.4,8.6c8.2,5.3,8.9,15.9,11.5,24.5c1.4,5.9,4.4,12.1,10,15c4,2.2,9.4,0.8,12-3
	c2.8-3.9,2.1-9,1.7-13.5c-2.6-14.8-7.7-29-11.4-43.6c-1.2-4.2,0.1-8.6,2.6-12.1c4.7-6.8,11.2-12.2,16.7-18.4
	c8.6-9.2,16.3-19.2,23.2-29.7c21.1-31.2,31.8-68.5,34.1-105.9C512,111.1,511,108,508.4,106.8z"/>
<path class="st1" d="M450.3,143.2c14-7.8,29.1-13.9,44.7-17.6c-4.8,41-21.7,81.1-50,111.5c-5.8,6.2-12.2,11.9-19,16.9
	c-3.7-9-7.6-17.9-12.3-26.4c2.1-2.9,4.3-6.2,8-7.1c6.2-1.4,12.7-1.6,18.9-3.1c2.9-0.7,2.3-5.5-0.8-5.4c-5.4,0.1-10.8,1.8-16.1-0.2
	c0.3-1.9,0.7-3.9,1.7-5.5c3.8-6.5,7.8-12.8,12.2-18.9c1.9-2.3,3.8-5,6.7-6c5.7-1.9,11.7-3,17.4-5c2.6-0.5,2.7-5,0-5.3
	c-3.8-0.3-7.5,1.7-11.2,2.4c-0.1-2.5,1.9-4.1,3.4-5.7c5.4-5.4,10.9-10.6,17.3-14.7c1.6-1.2,3.7-2.1,4.1-4.2
	c-0.2-1.9-2.1-3.3-3.8-2.6c-5.6,2.3-9.7,7.1-14.8,10.2c-3.2,0.9-3-3.5-3.8-5.5c0-2.9-4.5-3.3-5.2-0.6c-0.9,4.7,0.4,9.6-0.9,14.2
	c-1,3.6-3.6,6.4-5.9,9.2c-4.5,5.2-8.3,11-12.3,16.7c-2.8-2.6-1.8-6.7-3.1-9.9c-0.9-1.5-3.1-1.7-4.4-0.6c-1,1.5-0.8,3.3-0.7,5
	c0.5,5.1,1.2,10.3,0,15.3c-1.7,7.5-6.6,13.6-11,19.8c-5.5-8.5-11.7-16.5-18.6-23.9C406,174.1,427,156.3,450.3,143.2z"/>
<path class="st1" d="M255.8,205.9c20.2-7.6,40.3-16.6,62.1-18.6c17.3-1.4,35.6,0.9,50.5,10.2c7.7,5.9,15.2,12.3,20.7,20.3
	c14.2,20.4,22.4,44.1,30,67.6c-5.6-3.5-11.8-6.1-18.3-7.4c-15.4-3.3-31.5-3.2-47-0.6c-16.7,2.5-32.9,7.9-49.9,8.6
	c-14.8,0.5-30.1-2.9-42.2-11.7c-11.8-8.5-20.4-20.4-29.5-31.6c-6.4-7.9-12.5-16-19.2-23.7C228,216.9,241.9,211.1,255.8,205.9
	 M285.1,206.2c0.6,4.9,3.7,9.2,4.1,14.2c-16.1-0.3-32.3-0.3-48.1,3c-1.7,0.2-3.3,1.7-2.8,3.5c0.2,2.3,3,2.6,4.8,2.1
	c12.5-2.3,25.2-3.1,38-2.8c2,0.1,4,0.4,6,0.8c-5.4,5.7-12.1,9.9-18.1,15c-2.2,2.1-5.9,3.5-6.2,6.9c0.3,2.7,3.7,2.9,5.3,1.2
	c7.1-5.5,14.1-11.3,21.3-16.8c3.5-3,7.8-5.7,12.6-5c6,0.7,12.6,0.7,17.5,4.6c-0.7,1.7-1.4,3.4-2.9,4.6c-8.6,7.4-17.1,14.9-25.4,22.7
	c-1.6,1.2-2.2,3.8-0.5,5.2c1.6,0.9,3.3,0.1,4.5-1.1c9.8-8.9,19.6-17.8,29.8-26.3c3.3-3,8.1-3.7,12.2-2.2c4.4,1.5,9,2.7,13.2,4.9
	c2.2,1.6,1,4.6-0.9,5.9c-6.1,5-12.6,9.5-18.9,14.2c-0.9,0.9-2.5,1.8-2.3,3.3c-0.3,2.5,3.1,3.5,4.8,2c8.2-5.4,15.6-11.8,23.7-17.2
	c2.6-1.7,6-3.4,9-1.7c10.1,4.8,19.8,10.6,29,17.1c1.4,0.8,3,2.2,4.7,1.3c2.1-0.8,2-3.9,0.2-5c-6.5-5.1-13.7-9.2-20.8-13.3
	c-5-2.9-10.5-5.3-14.7-9.4c-4.5-4.6-4.1-11.9-8.1-16.9c-1.5-2-5-1.4-5.3,1.2c-0.2,4.1,1.8,8.1,1.9,12.2c-5.9-1.1-11.3-3.7-17.1-5.2
	c-3.4-0.7-6-3.3-7.4-6.4c-2.2-3.7-1.8-9.3-6.2-11.4c-4.9,2.6-1.1,7.9-0.1,11.7c-0.6,0.6-1.3,1.3-1.9,2c-6-1.3-12-2.4-18.1-3.2
	c-2.2-0.3-5-0.6-6.1-2.9c-2.4-4.6-3.3-9.8-5.8-14.3C288.8,202.4,285,203.5,285.1,206.2z"/>
</svg>
