<svg version="1.1" xmlns="http://www.w3.org/2000/svg" xmlns:xlink="http://www.w3.org/1999/xlink" x="0px" y="0px" viewBox="0 0 1000 1000" style="enable-background:new 0 0 1000 1000;" xml:space="preserve">
<style type="text/css">
	.st0{fill:#000000;}
	.st1{fill:#959898;}
	.st2{fill:#EDEDED;}
</style>
<path class="st0" d="M498,284.9c-14.4-45.9-29-91.7-43.2-137.7c-1.2-3.6-5.8-5.4-9.1-3.5c-2.3,1.1-3.2,3.6-3.9,5.9
	c-2.2,7.4-4.6,14.8-6.8,22.3c-6.5-5.8-13-11.6-19.4-17.4c-2-1.8-4.4-3.8-7.3-3.2c-2.9,0.4-4.5,3.2-5.2,5.8c-3,9.9-5.9,19.8-8.8,29.6
	c-4.7-4.6-9.5-9.1-14.2-13.7c-1.7-1.6-3.6-3.3-6-3.5c-3.6-0.4-6.9,2.4-7.5,5.9c-1.3,6.6-2.3,13.3-3.5,19.9
	C354,188.6,345,181.8,336,175c-2-1.4-4.4-2.8-6.9-1.9c-2.7,0.6-4.3,3.3-4.5,6c-0.8,9.7-1.5,19.4-2.3,29c-6.9-6-13.8-11.8-20.6-17.8
	c-1.9-1.6-4-3.5-6.7-3.6c-4.2-0.2-8.2,4-7.2,8.2c1,3.2,2.9,6,4.4,8.9c23.5,43.5,47,87,70.5,130.5c1.5,2.6,2.4,6.3,5.6,7.3
	c3.1,1,6.5,1.2,9.7,1.6c29.9,2.7,60.3-5.1,86.1-20.2c12.3-7.3,23.6-16.2,32.9-27.1C499.6,292.9,499.4,288.5,498,284.9z"/>
<path class="st1" d="M445.9,182.1c0.5-1.9,1.4-3.5,2.4-5.1c1.2,1.6,2,3.5,2.5,5.5c8.6,32.6,17.2,65.2,25.7,97.8c1,4.6,3.1,10,0,14.2
	c-5.6,7.3-13.3,12.9-21.3,17.4c-6.1-19.3-12.2-38.6-18.4-57.9c-2.1-6.8-4-13.8-4.1-20.9c0.2-7.2,2.5-14.1,4.4-20.9
	C440,202.1,443,192.1,445.9,182.1z"/>
<path class="st1" d="M376.4,193.9c0.5-1.4,0.2-4,2.3-4.1c6.9,5.9,13.1,12.5,19.8,18.7c8.2,8.1,17.3,15.5,23.4,25.4
	c4.1,6.6,6.1,14.1,8.5,21.4c6.3,19.8,12.6,39.7,18.9,59.5c-14.9,7.2-31,12-47.4,14.2c-10.2-21.9-20.8-43.6-30.1-65.9
	c-2.6-6.4-4.9-13.4-3.6-20.3C370.7,226.5,373.6,210.3,376.4,193.9"/>
<path class="st1" d="M319,222.9c4,2.3,7.2,5.6,10.7,8.5c8,6.9,16.1,13.8,24,21c4.8,4.2,7.8,10,10.6,15.6
	c10.2,20.6,20.8,41.1,30.6,61.9c-4.9,0.2-9.9,0.7-14.8-0.2c-3.3-0.9-4.9-4.3-6.6-7.1c-17.6-31.7-35.2-63.5-52.8-95.2
	C320,225.9,319.4,224.5,319,222.9z"/>
<path class="st0" d="M398.2,251.2c1.6-0.6,2.9,0.6,4.1,1.5c6.9,5.5,13.7,11,20.7,16.4c1.2,0.9,2.5,2.2,1.9,3.9
	c-1.8,8.9-3.7,17.7-5.7,26.5c-0.3,2.2-2.9,3.9-4.9,2.3c-6.5-4.5-12.8-9.4-19.3-14c-1.8-1.4-4.5-2.9-3.6-5.6
	c1.5-9.1,3.2-18.2,4.7-27.3C396.5,253.7,396.6,251.7,398.2,251.2"/>
<path class="st2" d="M418.4,274.7L418.4,274.7c-0.7,0.9-2,1.1-2.9,0.4l-14.8-11.4c-0.9-0.7-1.1-2-0.4-2.9l0,0c0.7-0.9,2-1.1,2.9-0.4
	l14.8,11.4C419,272.5,419.1,273.8,418.4,274.7z"/>
</svg>
