<svg version="1.1" xmlns="http://www.w3.org/2000/svg" xmlns:xlink="http://www.w3.org/1999/xlink" x="0px" y="0px" viewBox="0 0 1000 1000" style="enable-background:new 0 0 1000 1000;" xml:space="preserve">
<style type="text/css">
	.st0{fill:#000000;}
</style>
<path class="st0" d="M463.3,473c-1.5-6.2,4.4-12.8,10.8-11.3c4.4,0.8,7.3,5,8,9.2c2.4,10,4.9,20,7.2,30c11.3-1.9,22.6-3.9,34-5.7
	c4.9-1,10.3,2.2,11.3,7.2c1.2,5.1-2.6,10.3-7.6,11.2c-11,2-22.1,3.8-33.1,5.7c2.1,9.2,4.7,18.4,6.5,27.7c1.1,6.5-6,12.5-12.2,10
	c-4.6-1.5-6.4-6.4-7.2-10.8c-1.9-7.9-3.8-15.8-5.7-23.7c-11.8,1.9-23.5,4.1-35.2,5.9c-5.3,1.1-11-2.9-11.4-8.3
	c-0.5-4.9,3.5-9.4,8.3-10.2c11.3-2.1,22.6-3.9,33.9-5.8C468.3,493.7,465.5,483.4,463.3,473z"/>
<path class="st0" d="M650.2,558.2c3.3-2.2,8.2-1.1,10.3,2.2c3.2,4.9,6.2,10,9.3,15c6.1-3.2,12.1-6.3,18.2-9.5c1.8-0.9,3.8-1.9,6-1.7
	c3.9,0.2,7.2,3.9,6.7,7.8c-0.1,3-2.4,5.4-5,6.7c-6,3.2-12,6.3-18,9.5c3.3,5.5,6.8,10.8,9.9,16.3c2.2,3.7,0.4,9.2-3.8,10.6
	c-3.4,1.4-7.4-0.4-9.2-3.5c-3.5-5.4-6.8-11-10.2-16.5c-5.6,2.9-11.1,5.8-16.7,8.7c-2.3,1.2-5.1,2.1-7.5,0.9
	c-3.7-1.3-5.8-5.9-4.1-9.5c0.8-2.1,2.6-3.5,4.5-4.5c5.3-2.8,10.6-5.5,15.9-8.3c-2.8-4.8-5.9-9.4-8.6-14.2
	C646,564.9,647,560.2,650.2,558.2z"/>
</svg>
