<svg version="1.1" xmlns="http://www.w3.org/2000/svg" xmlns:xlink="http://www.w3.org/1999/xlink" x="0px" y="0px" viewBox="0 0 1000 1000" style="enable-background:new 0 0 1000 1000;" xml:space="preserve">
<style type="text/css">
	.st0{fill:#000000;}
	.st1{fill:#EDEDED;}
	.st2{fill:#FF3CAE;}
</style>
<path class="st0" d="M419.8,340.2c-4.4-2.6-8.8,1.1-12.7,2.9c-4.4-8.4-9.2-16.5-13.2-25.1c-12.6-25.9-19.6-54.1-25.9-82.1
	c-5-23.4-10.3-46.7-15.6-70c-1.9-8.2-4-16.3-7-24.1c-3.3-8.5-7.2-17.1-13.6-23.8c-5.3-5.5-13-9.2-20.8-8.2
	c-8.7,0.9-16,6.4-22.8,11.4c-12.9,10-24.8,21.2-36,33c-21.3,22.5-38.7,48.6-52.8,76.1c-15.9,31.4-27.2,65.1-34.5,99.6
	c-4.3,20.4-6.2,41.2-6.1,62.1c0.3,22.1,4.1,44.1,10.7,65.2c3.2,10.3,6.8,20.5,10.3,30.8c5.3,15.7,8.5,32,11.6,48.2
	c2,9,3.7,18.5,9.5,25.9c4.5,6,11.7,9.6,19.1,10.1c11.1,0.9,21.9-3.2,31.4-8.7c13.9-8.3,25.6-19.8,35.5-32.5
	c19.5-25,31.5-55.4,35.3-86.8c3.7-29.8,2.2-60.1-3.3-89.6c12.1,11.3,25.3,21.7,40.6,28.2c-1.8,2.9-4.3,5.7-4.9,9.2
	c-0.6,4.2,4,8,8,6.6c3.9-1.3,5.1-5.6,7.5-8.5c12.4-17.2,30.4-29.5,49.2-38.8C423.7,349.3,424.1,342.5,419.8,340.2z"/>
<path class="st0" d="M859.2,204.2c-1.3-13.3-5.5-26.8-14.8-36.6c-6.1-6.5-14.9-11.4-24.1-9.9c-7.3,1.1-13.5,5.3-19.4,9.4
	c-9.4,6.8-18.3,14.4-26.7,22.3c-13.6,12.8-27.5,25.3-42.2,36.8c-24.4,18.9-49.1,38.2-68.3,62.6c-5.8,7.3-10.6,15.3-16.2,22.8
	c-2.5,3.5-7,6.2-11.5,4.9c-7.6-1.9-14.4-5.9-21.5-9.1c-1.6-0.7-3.4-1.5-5.1-0.7c-2.7,1.2-3.9,4.5-3.1,7.2c1.2,5.5,5.8,9.3,10.2,12.5
	c12.1,8.6,24.9,16.1,35.7,26.4c10.7,9.8,20.4,21,27.1,33.9c8.8,16.1,14.5,33.9,17,52.1c1.1,7.3,1.6,14.9,4.2,21.9
	c1.3,3.7,6.1,6,9.5,3.6c5.4-3.3,4.5-10.3,5.3-15.6c1.6-12.1,11.9-20.2,21.1-27.1c14.5-9.6,28.9-19.4,41.7-31.3
	c23.1-21.4,43.5-46.1,57.8-74.2C853,281.5,863.2,242.7,859.2,204.2z"/>
<path class="st1" d="M284.4,144.3c6.4-5.6,13.2-11.5,21.7-13.3c4.5-1.2,9.8-0.6,13.4,2.5c4.2,3.5,6.3,8.8,8.3,13.7
	c4.1,10.7,6.6,21.9,9.2,33c7.8,33.3,15.3,66.8,26.9,99c8.5,24.4,19,48.1,32.1,70.4c-10.1,6.4-19.5,13.9-27.8,22.6
	c-9.7-3.2-18.3-8.9-26.4-15c-12.3-9.6-23.5-20.7-32.7-33.4c-1.1-1.4-1.4-3.1-1.8-4.8c-1.1-5-2.2-9.9-3.3-14.9
	c14.9,19.9,33.6,36.8,54.5,50.2c2.6,1.4,5.3,4,8.5,3.1c3.7-1.4,3.3-6.1,2.7-9.3c-3.4-18.2-11-35.2-19.4-51.6
	C339.9,277,327.6,258.1,312,242c-2.9-3.2-6.5-5.6-9-9.2c1.9-6.6,5.9-12.3,10.5-17.3c2.1-2.1,3.8-5.3,2.4-8.3
	c-1.5-4.3-7.6-5.1-10.5-1.8c-15,14.9-21.1,36.9-20.2,57.6c0.4,15.2,3.5,30.2,6.2,45.2c5.8,32.8,12.8,65.5,14.3,98.8
	c1.4,18.8-1.2,37.7-6,55.8c-5.3,20.3-13.6,40-25.7,57.3c-8.9,12.7-21.1,23.6-35.7,29.2c-5.4,2.1-11.7,3.3-17.2,1
	c-4.9-2-8.2-6.8-9.8-11.7c-2.7-7.9-3.6-16.3-5.4-24.5c-4.2-22-11.9-43.2-18.6-64.5c-7.8-28-13.9-57.2-9.9-86.3
	c5-38.1,13.6-76.1,29.6-111.2c13.4-29.7,30.3-58.2,52.2-82.6C267.2,160.5,275.5,152.1,284.4,144.3z"/>
<path class="st1" d="M815.4,175.6c5.8-2.3,13.2-1.2,17.2,3.9c5,6.4,7,14.6,8.3,22.5c5.5,37.2-3.6,75.2-20.4,108.4
	c-14.5,28.3-35.5,52.8-59.3,73.8c-15.4,13.4-33.6,22.9-51.4,32.7c-1.5-6.1-3.3-12.1-5.4-17.9c28.7-16.9,52.1-41.7,69.8-69.7
	c9.2-14.9,17.1-30.7,22.5-47.4c4.9-14.8,8.6-30.2,16-44.1c4-8.1,9.4-15.5,13.1-23.9c1.3-2.3,0.8-5.9-1.9-6.9
	c-2.3-1.3-5.1,0.4-6.1,2.6c-8.1,14.4-19,27-31,38.2c-23.7,22.1-51.4,39.6-73.8,63.2c-12.4,13.2-24.1,27.2-33.9,42.5
	c-6.5-7.6-13.9-14.3-21.7-20.4c8-15.3,17.6-29.7,28.5-43.1c19.1-23.5,45.1-39.6,67.5-59.6c15.9-13.7,30.8-28.5,46.1-42.9
	C804.3,182.9,809.2,178.1,815.4,175.6z"/>
<path class="st2" d="M299.3,277.1c-1.4-10.9-2-22,0.1-32.8c12.8,11.2,23,24.9,32.2,39.1c11.9,18.9,22.7,39,28,60.9
	c-12.4-8.3-23.8-18.1-34.1-28.8c-8.4-8.8-16.2-18.2-22.2-28.8C301.6,283.6,299.8,280.6,299.3,277.1z"/>
<path class="st2" d="M776.6,268.6c3.5-2.5,7.1-5.5,11.5-6.1c1.7,0,1.6,2.2,1.8,3.4c-0.2,5.2-2.1,10.2-3.5,15.2
	c-4.5,15.3-11.5,29.7-19.9,43.2c-8.9,14.1-18.9,27.6-31,39.1c-10.6,9.8-22.4,18.4-34.9,25.8c-4.3-9.9-9.2-19.6-15.5-28.3
	c8.5-13.8,18.7-26.4,29.5-38.4C732.8,302,755.2,285.8,776.6,268.6z"/>
</svg>
