<svg version="1.1" xmlns="http://www.w3.org/2000/svg" xmlns:xlink="http://www.w3.org/1999/xlink" x="0px" y="0px" viewBox="0 0 1000 1000" style="enable-background:new 0 0 1000 1000;" xml:space="preserve">
<style type="text/css">
	.st0{fill:#000000;}
	.st1{fill:#00A28A;}
	.st2{fill:#00A900;}
	.st3{fill:#FFD400;}
	.st4{fill:#FF3CAE;}
	.st5{fill:#FF002C;}
	.st6{fill:#EDEDED;}
</style>
<path class="st0" d="M685.8,602c-1-24-2.5-48-5.5-71.9c-1.6-11.7-2.2-23.5-5.5-34.9c-2.3-8.9-6.4-17.5-13-23.9
	c-7.4-7.2-17.7-10.3-27.7-11.8c-11.3-2.2-22.8-2.2-34.2-2.6c-19.3-0.1-38.6-0.8-58-1.2c-38.5-1.4-77.1-1.6-115.7-1.2
	c-18,0.9-37.6,1.1-52.9,11.9c-11.3,7.9-16.3,21.7-18.9,34.7c-2.8,14.9-4,30-4.9,45.1c-0.9,13-2,26-2.9,39c-1.7,24.3-1.9,48.7-0.8,73
	c0.7,11.7,2,24.1,9.1,33.9c6.3,9,17,13.6,27.5,15.4c16.3,2.8,33,2.5,49.5,2.5c19.3,0.1,38.7-0.8,58-1.1c43.4-0.8,86.7,1.2,130.1-0.5
	c16.9-1.1,34.9-2.1,49.5-11.7c9-5.8,14.2-16,15.6-26.3C688.7,647.6,686.2,624.7,685.8,602z"/>
<path class="st1" d="M415.1,464.4c22.5-1.3,45.2-1.6,67.7-1.3c-0.1,61,0.1,122-0.1,183c-22.6,0-45.1-0.1-67.7,0
	C415.1,585.5,415.1,524.9,415.1,464.4z"/>
<path class="st2" d="M482.8,463.1c22.6,0.1,45.2,0.8,67.9,1.5v0.1c0,60.4,0,120.8,0,181.2c-22.6,0.5-45.3,0-68,0.2
	C482.9,585,482.8,524.1,482.8,463.1z"/>
<path class="st3" d="M380.4,473.5c10-7.3,22.8-7.9,34.7-9.2c0,60.6,0,121.1,0,181.7c-20.3-0.1-40.5,0-60.8-0.1
	c-0.2-25.4,1.6-50.7,3.4-76c2.1-22,3.4-44.2,6.8-66.1C366.3,492.4,370.7,480.5,380.4,473.5z"/>
<path class="st4" d="M550.7,464.6c22.7,0.6,45.5,1,68.2,2.4c0,59.5,0.1,119.1,0,178.6c-22.7,0-45.4-0.2-68.1,0.2
	C550.7,585.4,550.7,525,550.7,464.6z"/>
<path class="st4" d="M415.1,646c22.6-0.1,45.1,0,67.7,0c-0.1,18,0,36.1-0.1,54.1c-22.5,0.4-45.1,1.3-67.6,0.7
	C415.1,682.6,415.1,664.3,415.1,646z"/>
<path class="st5" d="M618.9,467c10.2,0.7,20.5,2.9,29.7,7.4c5.8,2.8,10.9,7.3,13.6,13.3c4,8.6,5.6,18.1,7.2,27.4
	c5.5,36,7.2,72.4,8.4,108.8c0,7.3,0.7,14.5,0.3,21.8c-19.7-0.2-39.5,0.1-59.2,0C618.9,586.1,618.8,526.6,618.9,467z"/>
<path class="st6" d="M550.7,645.8c22.7-0.4,45.4-0.2,68.1-0.2c-0.1,17.9,0,35.8,0,53.7c-22.7,1.1-45.4,0.8-68.1,0.7
	C550.7,682,550.7,663.9,550.7,645.8z"/>
</svg>
