<svg version="1.1" xmlns="http://www.w3.org/2000/svg" xmlns:xlink="http://www.w3.org/1999/xlink" x="0px" y="0px" viewBox="0 0 1000 1000" style="enable-background:new 0 0 1000 1000;" xml:space="preserve">
<style type="text/css">
	.st0{fill:#000000;}
	.st1{fill:#B65F40;}
	.st2{fill:#EDEDED;}
	.st3{fill:#00A900;}
</style>
<path class="st0" d="M215.7,527.3c-7.7-8.2-19-11.1-29.5-14.1c2.1-29.4,4.4-58.7,7.5-88c3.6-33.7,7.9-67.3,10.9-101.1
	c3.6-40.1,8.8-80,13-120c0.4-5.7,1.4-11.4,1.2-17.1c-0.2-4.8-3.6-8.8-7.7-11c-7.2-3.9-15.5-4.9-23.5-5.7c-6.9-0.4-14-1-20.8,0.6
	c-4.5,1-8.9,4-9.9,8.8c-3,11.3-3.6,23-5.1,34.6c-3.3,28.9-5.8,57.8-9.3,86.7c-2.8,22.7-5.8,45.3-8.3,68.1c-3.5,33-6.3,66-9.8,98.9
	c-1.4,13.2-2.4,26.4-3.8,39.6c-7.2-0.1-14.4,0.2-21.5,1.4c-8.9,1.3-16.8,7.5-20.4,15.7c-3.3,7-3.5,14.9-3.8,22.5
	c-0.5,17.4,0,35.2-5.6,52c-3.2,11-10.5,20.3-13.5,31.4c-4.6,13.4-3.8,28.3,1.6,41.3c7.7,19.5,21.1,36.9,38.3,49
	c-3.4,46.7-8,93.3-13.9,139.8C75.6,907.1,68.9,953.6,61,1000h16.1h39.7h14.9c3.1-40.6,7.3-81,11.3-121.5c4.6-45.7,8.7-91.5,16-136.9
	c3.5-0.3,7.2-0.5,10.5-2.2c5.8-3,9.6-8.6,13-14c6.4-10.3,10.7-21.7,14.9-33.1c8.1-23.1,14.2-46.9,19.4-70.8
	c1.9-8.7,3.2-17.5,4.3-26.4c1.5-13.3,3.5-26.6,3.5-40C224.3,545.2,222.7,534.7,215.7,527.3z"/>
<path class="st1" d="M168.7,187.2c11.8-3,24.5-1.4,35.9,2.6c-7.1,70.3-14.2,140.5-21.3,210.8c-13.2,3.3-26.3,6.5-39.5,9.7
	C152,336,160.5,261.6,168.7,187.2z"/>
<path class="st1" d="M99.4,811.2c12.6,1.4,25.2,2.9,37.8,4.3c-1.5,20.2-4.1,40.3-6.3,60.4c-4.7,41.3-9.4,82.7-14.1,124H77.1
	C84.6,937.1,91.6,874.1,99.4,811.2z"/>
<path class="st2" d="M142.9,417.6c13.2-3.3,26.5-6.5,39.7-9.8c-1.7,16.6-3.4,33.2-5,49.8c-4.5-0.3-9-0.5-13.5-0.9
	c-7.5-8.6-15-17.1-22.5-25.7C142,426.5,142.4,422,142.9,417.6z"/>
<path class="st2" d="M140.6,440.1c4.7,5.4,9.4,10.8,14.1,16.1c-5.2-0.4-10.4-0.6-15.7-1C139.5,450.2,140.1,445.2,140.6,440.1z"/>
<path class="st2" d="M138.3,462c12.9,0.8,25.8,1.5,38.6,2.3c-0.4,4.2-0.8,8.5-1.3,12.7c-13.4,3.1-26.7,6.1-40.1,9.2
	C136.5,478.2,137.3,470.1,138.3,462z"/>
<path class="st2" d="M134.6,493.4c13.4-3.1,26.9-6.2,40.3-9.2c-0.9,8.6-1.7,17.2-2.6,25.8c-13.2-1.8-26.4-2.8-39.7-3
	C133.3,502.4,133.9,497.9,134.6,493.4z"/>
<path class="st2" d="M102.7,521.8c8.2-2.7,16.9-0.9,25.2-0.3c-19.4,33-34,69.3-38.6,107.4c-2.7,22.3-3.7,45.2,0.6,67.3
	c-7.1-7.7-12.3-16.8-16.5-26.3c-4.3-9.9-6.9-20.9-5.8-31.8c0.9-9.5,6.5-17.5,10.6-25.8c4.4-8.2,7.4-17.2,9-26.4
	c3.2-17.4-0.3-35.6,5.1-52.7C93.8,528,97.5,523.4,102.7,521.8z"/>
<path class="st2" d="M107.2,741.8c12.1,3.1,24.2,5.6,36.4,8.2c-0.6,5.5-1.2,10.9-1.7,16.4c-12.3-1.9-24.7-3.8-37.1-5.8
	C105.6,754.3,106.4,748.1,107.2,741.8z"/>
<path class="st2" d="M104.2,767.3c12.4,2,24.7,3.8,37.1,5.8c-0.3,3.5-0.7,7-1.1,10.6c-3.7,2.7-7.4,5.4-11.1,8.1
	c-8.7-4.8-17.4-9.6-26.1-14.4C103.4,774,103.8,770.6,104.2,767.3z"/>
<path class="st2" d="M102.3,784.6c6.9,3.9,13.9,7.7,20.8,11.5c-4.3,3.2-8.7,6.2-12.9,9.5c-3.4-0.4-6.7-0.8-10.1-1.2
	C101,797.9,101.7,791.2,102.3,784.6z"/>
<path class="st2" d="M138.6,793c0.5-0.5,1.1-0.5,1.7-0.6l-0.9,1c-0.8,5.1-1,10.2-1.5,15.4c-6-0.6-11.9-1.4-17.9-2
	C126.2,802.2,132.5,797.7,138.6,793z"/>
<path class="st3" d="M142.4,524.5c5.9-2,12.2,0,18.2,0.2c13.1,1.2,27.8,1.3,38.3,10.5c8.3,7.1,8.8,18.8,9.1,28.9
	c0.1,17.7,0.6,36.1-5.9,52.9c-2.4,6-5.2,12.5-10.7,16.4c-3,2.2-7,1.7-10.4,0.8c-8.5-2.3-17-4.8-25.2-8.1c-7.9-3.1-15.6-6.6-23.6-9.5
	c-4.2-1.5-8.7-2.8-13.2-2.5c-3.2,0.2-5.3,4.1-3.8,6.9c1.6,3.1,5.2,4.4,8.3,5.6c17.3,5.7,35.2,9.3,52.3,15.7
	c6.7,2.3,12.3,7.7,14.4,14.6c2.4,6.6,0.3,13.6-1.1,20.2c-2.9,11.5-5.9,23-11.4,33.6c-3.2,6.6-8.7,13.4-16.7,13.5
	c-8.6-0.4-16.4-4.3-24.6-6.5c-10.8-3.3-23.3-5-31.3-13.9c-7.9-9.3-9.9-22.1-10.4-33.9c-0.4-23.2,2.7-46.5,8.4-69
	c4.2-16.3,10.6-32,17.5-47.3c3.2-6.9,6.8-13.6,10.9-20C134.2,529.7,137.7,525.9,142.4,524.5z"/>
</svg>
