<svg version="1.1" xmlns="http://www.w3.org/2000/svg" xmlns:xlink="http://www.w3.org/1999/xlink" x="0px" y="0px" viewBox="0 0 1000 1000" style="enable-background:new 0 0 1000 1000;" xml:space="preserve">
<style type="text/css">
	.st0{fill:#000000;}
	.st1{fill:#FFFFFF;}
</style>
<path class="st0" d="M496.6,548.5c15.5,8.3,33.9,10.6,51,7.1c4.2-0.7,7.3-5.2,6-9.3c-1-4.1-5.8-6.1-9.8-5
	c-16.9,3.4-35.2-0.8-48.9-11.3c-13.6-10.2-22.8-25.6-26.9-42c-0.6-4.4-5.3-8-9.7-6.5c-3.8,1.2-5.9,5.7-4.8,9.4
	C459.2,514.9,474.6,537,496.6,548.5z"/>
<path class="st0" d="M698.9,578c-3.9-1.8-7.1,1.8-10,3.8c-16.5,10.6-41.5,8.1-53.6-8c-1.8-2.2-5.3-3-7.7-1.3
	c-3.9,2.2-3.3,7.7-0.4,10.5c17.5,21.2,52.7,23.1,73.2,5.3C703.7,585.6,703.1,579.5,698.9,578z"/>
<path class="st0" d="M625.4,644.6c-8.3-5.8-18.6-7.5-28.4-8.6c-10.3-1.2-20.6-2.9-30.2-6.9c-11.4-4.1-21.2-11.4-31.8-17.2
	c-8-4.8-17.3-7.5-26.7-6.4c-10.5,0.8-20.8,6.4-26.6,15.3c-4.1,6.2-5.8,13.8-5,21.1c1,9.7,6.5,18.3,13.4,24.9
	c9.6,8.8,21.6,14.7,33.7,19.4c21.1,8,43.7,11,66.1,12c10.6,0,21.6-0.5,31.3-5c6.9-3.2,13.1-8.8,15.4-16.3
	C640.2,665.2,635.5,651.5,625.4,644.6z"/>
<path class="st1" d="M489.2,628.9c3.4-6.7,10.7-10.4,17.8-11.9c9.3-1.5,18.9,1.2,26.8,6.2c6.9,4.1,13.3,9.1,20.4,12.8
	c10.7,5.5,22.3,9.8,34.4,10.8c9.9,1.2,20.6,0.8,29.5,6.1c5.6,3.3,8.1,10.2,7.3,16.5c-23.6,0-47.3-3-70-9.9
	C532,652.4,509.9,641.8,489.2,628.9z"/>
<path class="st1" d="M496.6,659.4c-6.7-6.2-10.4-15.5-9-24.6c31.2,19.3,66.1,33.3,102.6,38.2c11.1,1.5,22.3,2.2,33.5,2.2
	c-3.6,7.2-11.5,10.9-19.2,12.1c-20.6,3.5-41.7,0-61.8-4.8C526,678.1,509.2,671.5,496.6,659.4z"/>
</svg>
