<svg version="1.1" xmlns="http://www.w3.org/2000/svg" xmlns:xlink="http://www.w3.org/1999/xlink" x="0px" y="0px" viewBox="0 0 1000 1000" style="enable-background:new 0 0 1000 1000;" xml:space="preserve">
<style type="text/css">
	.st0{fill:#EDEDED;}
	.st1{fill:#FFD400;}
	.st2{fill:#000000;}
</style>
<path class="st0" d="M485,387.5c31.8-5.8,65-1.5,94.8,10.6c16.5,6.6,32,15.8,45,27.9c12.7,12.1,23.1,26.5,30.9,42.2
	c8,15.2,12.8,31.8,16.1,48.6c4.9,25.8,4.8,52.3,0.9,78.2c-2.7,16.1-7.1,32-14.2,46.7c-9.1,20.7-22.9,39.2-40.3,53.6
	c-3.6,2.8-7.2,5.9-11.4,7.8c-3.3,1.4-7.4-1.4-7.2-5c0-2.2,1.5-4,3.2-5.1c7.7-5.1,14.9-11.2,20.8-18.3c1-1.1,1.5-2.5,1.9-3.9
	c-11.5,2.7-22.9,6.1-34.7,7.7c-29.5,4.7-59.6,6.6-89.5,5c-19.4-0.4-38.6-3.1-57.6-6.7c-16.7-3-33.3-6.6-49.4-11.9
	c-3.4-1-6.5-2.8-10.1-2.9c-0.4,2.3,1,4.3,2.1,6.1c7.2,10.9,17,19.7,27.4,27.4c3,2.5,7.2,4.2,8.2,8.4c-0.3,3.8-4.4,6.9-8.1,5
	c-9.7-5.2-18.3-12.5-26.2-20.2c-13.4-13.5-24.5-29.3-32.6-46.4c-8.3-17.4-12.8-36.4-14.9-55.5c-2.3-19.9-1.5-40.2,1.8-59.9
	c5.3-32.3,19.9-63.2,43-86.6C412,413,447.3,393.9,485,387.5 M495.5,397.8c-33.1,3.8-64.7,18.2-90,39.8c-4.6,4.1-9.2,8.3-12.6,13.4
	c-2.5,4.1-4.6,9.3-2.8,14.1c1.3,4,5.2,6.5,9.1,7.7c46.3,11.4,94.1,15.7,141.8,16.6c22.8,0.8,45.6-0.6,68.3-2.2
	c8.7-0.8,17.4-1.2,25.9-3.1c3.8-0.9,7.7-3.6,7.9-7.9c0.4-5.9-3.4-11-6-16c-9.7-16.8-23.8-30.8-40.3-40.8
	C566.4,401.7,530.4,393.5,495.5,397.8"/>
<path class="st1" d="M374.3,483.6c4.1-1.3,8.5-0.3,12.6,0.4c12.2,2.4,24.2,5.3,36.4,7.4c22.8,3.8,45.6,7.4,68.6,8.9
	c24.9,1.9,49.9,3.2,74.9,2c25.5,0,50.9-2.4,76-6.3c3-0.4,6.5-0.9,9.1,1c3,2.3,4.2,6,5.3,9.4c2.6,9.4,3.6,19.2,4.9,28.8
	c2.4,17.8,2,35.9,0.1,53.7c-1.5,13.2-5,26.2-9.8,38.6c-2.2,5.8-5.1,11.4-8.7,16.4c-4.3,5.7-11.1,8.7-17.7,11.1
	c-15.3,5.2-31.3,8.2-47.2,11c-25,4.2-50.5,4.2-75.8,3.7c-24.3-0.8-48.5-4.3-72.2-9.6c-15.3-3.3-30.2-8.2-44.4-14.8
	c-8.2-3.8-16.4-8.7-21.9-16.1c-7.9-11-10.1-24.8-12-38c-3.7-31.4-1.2-63.9,10.3-93.5C365.4,492.3,368.2,485.7,374.3,483.6"/>
<path class="st2" d="M435.6,518.6c6.2-5.8,14.8-10.2,23.4-8.4c8.5,1.7,14.8,8.7,18.5,16.2c3.5,7.4,5.7,15.6,6.3,23.8
	c-13.8,8.1-27.5,16.2-41.3,24.3c-1.4,0.8-3.1,1.8-3.3,3.6c-0.4,2,1.3,3.6,2.9,4.5c11.3,7.1,22.7,14.1,34,21.2
	c-4.9,12.1-11.7,24.1-22.6,31.8c-6.6,4.8-15.8,6.8-23.4,3.1c-9.5-4.5-14.6-14.6-17.5-24.2c-5.4-19.5-3.6-40.5,2.1-59.7
	C419,541.5,425.3,528.4,435.6,518.6z"/>
<path class="st2" d="M612.7,526.8c6.2-3.2,14.1-1.4,18.9,3.6c7,7.1,10.1,17,11.8,26.6c-10.3,6.9-20.6,13.8-30.9,20.7c-1.7,1.1-3.5,2.9-3.2,5.1
	c0.2,2.1,2.3,3,4,3.9c9.2,4.3,18.4,8.7,27.6,13.1c-3.1,10.3-7.8,21-16.7,27.5c-5.5,4.1-13.5,4.7-19.1,0.5
	c-8.5-6.1-12.2-16.6-14.3-26.4c-3.3-17.6-1.8-36.2,4.6-52.9C599,539.9,604.1,531,612.7,526.8z"/>
</svg>
