<svg version="1.1" xmlns="http://www.w3.org/2000/svg" xmlns:xlink="http://www.w3.org/1999/xlink" x="0px" y="0px" viewBox="0 0 1000 1000" style="enable-background:new 0 0 1000 1000;" xml:space="preserve">
<style type="text/css">
	.st0{fill:#000000;}
	.st1{fill:#FF002C;}
	.st2{fill:#FFD400;}
</style>
<path class="st0" d="M476.5,50.6c-2.4-4.4,1.7-10.2,6.6-9.7c4.6,0.8,8.1,4,11.9,6.4c26.4,18.8,43,49.9,45.4,82.1
	c5.6-6.5,8.8-14.9,8.6-23.5c-0.4-4.3,3.7-8.2,8-7.6c4.3,0.4,6.8,4.3,9,7.5c8.4,13,13.3,28,17,43c4.3,17.9,5.3,36.9,0.3,54.7
	c-4.9,18.9-16.6,36-32.8,46.9c-26.9,18.2-62.7,22-93,10.7c-15.5-5.9-29.4-16.6-37.9-31c-7-11.8-8-26.2-5.6-39.4
	c3-17.8,11.1-34.1,15.1-51.6c2.4-10.9,3.7-22.5,1-33.5c-1.6-5.9,5.4-11.1,10.7-8.8c11.1,4,21.2,10.7,29.4,19
	c7.5-12.6,13.2-27,12.6-41.9C483,65.8,480.3,57.8,476.5,50.6"/>
<path class="st1" d="M477.3,130.4c13.2-18.5,22.2-41.4,18.9-64.5c20.4,19.2,31.5,47.3,30.8,75.2c-0.2,2.9,0.6,6.1,3.3,7.6
	c2.5,1.6,5.7,1.2,8.1-0.3c10-5.5,17.6-14.9,21.5-25.5c6.1,13.6,10.3,28.1,12.4,42.9c2.5,18.7-0.8,38.5-11,54.5
	c-7.5,11.7-18.9,20.8-31.7,26.2c-21.3,9.1-46.1,10-67.7,1.7c-12.3-4.8-23.5-13.3-30.2-24.8c-5.1-8.5-5.6-18.9-4.2-28.4
	c2-13.3,7.2-25.8,11.3-38.5c4.5-13.6,7.4-28,6.8-42.4c5.7,3.3,11.1,7.1,15.5,12c1.8,1.9,3,4.3,4.9,6.1
	C469.3,135.1,474.9,134,477.3,130.4"/>
<path class="st0" d="M485.9,141.9c1.2-1.3,3.2-1.6,4.8-0.7c15,7.4,25.8,22.8,27.3,39.5c2.7-3,4.4-6.8,4.4-10.8
	c-0.2-3.4,4.6-4.3,6.6-2.1c3.5,3.5,5.7,8.1,7.6,12.6c4.1,10.2,6.6,21.7,3.5,32.6c-2.5,9.7-9.3,18.1-18,23c-12.9,7.2-28.7,8.9-43,5.1
	c-8.7-2.3-17.1-7.3-22.1-14.9c-4-6-4-13.6-2.2-20.3c2.8-10.6,9.1-20.5,8.3-31.8c0-2.4-2-5.6,0.6-7.3c2-1.6,4.6-0.6,6.7,0.3
	c4.5,1.8,8.7,4.5,12.4,7.6c4.9-7.2,8.4-16.6,5.1-25.2C487,146.9,484.2,144.5,485.9,141.9"/>
<path class="st2" d="M495.7,152.1c9.9,8.3,15.9,21,15.5,34c-0.4,2.5,2.4,4.5,4.6,3.6c5.5-2.1,9.6-6.7,12.1-11.9
	c4.9,10.5,8.6,22.6,5.3,34.1c-2.3,8.6-8.6,15.8-16.6,19.7c-12.1,6-26.7,6.9-39.4,2.2c-6.2-2.4-12.2-6.6-15.2-12.6
	c-3-6.6-0.8-14.1,1.6-20.6c3.4-8.6,6.8-17.5,6.5-26.9c3.7,1.9,7.1,4.4,9.7,7.6c1.5,2,4.9,1.6,6.3-0.3
	C492.6,172.9,497.2,162.6,495.7,152.1z"/>
</svg>
