<svg version="1.1" xmlns="http://www.w3.org/2000/svg" xmlns:xlink="http://www.w3.org/1999/xlink" x="0px" y="0px" viewBox="0 0 1000 1000" style="enable-background:new 0 0 1000 1000;" xml:space="preserve">
<style type="text/css">
	.st0{fill:#000000;}
</style>
<path class="st0" d="M458.9,394c20.9-6.8,43.1-10.1,65.1-8.7c18.1,1,36,5.3,53,11.7c16,6.1,31.2,14.6,44.2,25.8c18,15.8,31.4,36.4,40.6,58.4
	c11.5,29.7,15.6,62.1,13.3,93.8c-1.2,18.9-4.9,37.8-11.6,55.5c-5.8,14.1-12.5,28-21.8,40.2c-8.5,11.1-18.2,21.3-29.6,29.4
	c-2.4,1.5-5,3.4-8,3.2c-3.5-0.3-5.6-4.8-3.7-7.6c1.5-2.2,3.9-3.6,6-5.2c5.2-3.6,10.1-7.9,14.5-12.5c1.9-2,3.3-4.3,4.5-6.8
	c-5.4,0.7-10.5,2.4-15.7,3.7c-10.3,2.6-20.8,4.1-31.4,5.6c-24,3.2-48.3,4.4-72.5,3.4c-13.8-0.4-27.7-1.3-41.4-3.4
	c-21.7-3.4-43.4-7.3-64.4-13.6c-5.3-1.5-10.4-4.4-16.1-4.2c1.6,4.2,4.1,8,6.9,11.4c6.7,8.2,14.7,15.5,23.4,21.6
	c2.5,1.9,5.2,3.5,7,6.1c1.9,2.9-0.1,7.3-3.6,7.7c-3,0.2-5.6-1.6-8.1-3.1c-11.3-7.5-21.4-16.6-30.1-26.9
	c-12.5-14.7-22.6-31.6-29.3-49.7c-5.4-14.8-8.4-30.4-10-46c-1.2-11-1.2-22.1-0.6-33.1c1.1-15.6,3.3-31.1,8-46.1
	c4.4-14.2,10.5-27.9,18.6-40.3c9.7-15.2,22.3-28.5,36.4-39.6C419.5,411.3,438.7,401,458.9,394 M499.4,397.4
	c-15.7,1.6-31.2,5.1-45.8,11.1c-19.1,7.8-37.1,18.7-52.2,32.8c-4.9,4.6-9.9,9.9-11.5,16.6c-1.1,4.1,0.1,9,3.5,11.7
	c3.3,2.7,7.6,3.6,11.6,4.5c11.1,2.3,22.2,4.6,33.4,6.5c23.1,4,46.4,6,69.8,7.4c23.6,1.1,47.3,2.1,71,0.8c16.1-0.9,32.3-1.6,48.3-3.5
	c4-0.6,8.3-1,11.9-3.2c2.5-1.5,3.8-4.4,3.7-7.2c-0.2-4-2-7.6-3.8-11.1c-5.4-9.9-12-19.1-20-27c-10.8-10.8-23.7-19.3-37.6-25.4
	C555.9,400.1,527.4,394.5,499.4,397.4 M375.4,483.4c-6,1.3-9.2,7.3-11.6,12.5c-9.5,23.1-13.1,48.3-12.7,73.2
	c0.1,13.4,1.6,26.9,4.8,40c2.1,8,5,16.2,10.5,22.5c6,6.8,14,11.2,22.2,14.8c12.8,5.6,26.1,10.1,39.8,13.2c17.9,4.1,36,7,54.2,8.9
	c15.1,1.5,30.2,1.6,45.3,1.5c16.5-0.1,33-1,49.3-3.6c13.6-2.2,27.2-4.9,40.5-8.5c10-3,21.3-6.3,27.4-15.5c5.9-9,9.4-19.4,12.4-29.6
	c5.5-18.7,6.6-38.3,6.2-57.7c-0.2-10-1.6-19.9-2.9-29.8c-1-7-2-14.1-4.2-20.8c-1.2-3.1-2.8-6.7-6.1-8c-3-1-6.3-0.4-9.3-0.1
	c-20,3.1-40.1,5.3-60.3,5.8c-15.5,0.4-31.1,1-46.6,0.5c-17.7-0.4-35.3-1.7-53-3.1c-10.7-0.8-21.3-2.4-31.9-4
	c-18.2-2.5-36.4-5.7-54.3-9.8C388.7,484.4,382.1,482.3,375.4,483.4z"/>
<path class="st0" d="M417.4,523c0-5.6,4.4-10.8,9.9-11.9c3.8-0.8,8,0,11.1,2.5c2.3,1.9,3.6,4.6,4.8,7.2c3.6,8.6,6.7,17.4,10.3,25.9
	c6.4-7.6,10.4-17,17-24.4c4.6-5.2,13.5-5.1,18.3-0.2c3.3,3.2,3.9,8.2,3,12.6c-0.9,3.7-3.1,6.7-5.2,9.8c-5.8,8.3-11.1,16.8-16.9,25.1
	c-1.4,2.1-2.9,4.1-3.6,6.5c-0.1,2.7,1.2,5.2,2.1,7.6c4.5,10.6,8.5,21.4,13,32.1c1.4,3.5,3,7.2,3,11.1c0.1,5.5-3.8,10.9-9.2,12.2
	c-4.4,1-9.6,0.1-12.7-3.4c-3.2-3.5-4.6-8.2-6.4-12.5c-2.7-6.7-5-13.6-8.1-20.1c-5.7,7-9.5,15.3-15.4,22.2c-3.5,4.4-10,5-15.1,3.3
	c-4.8-1.7-7.6-6.8-7.5-11.7c-0.1-4.5,2.6-8.4,5.1-12c5.9-8.5,11.4-17.2,17.4-25.7c1.2-2,2.8-3.9,3.2-6.2c-0.2-2.2-1.2-4.3-2-6.4
	c-4.4-10.4-8.3-21-12.7-31.4C419.2,531.3,417.3,527.3,417.4,523z"/>
<path class="st0" d="M581,540.9c-0.5-4.7,2.5-9.7,7.2-11c3.2-0.9,6.9-0.6,9.8,1.1c2.5,1.5,3.9,4.2,5.2,6.7c2.1,4.5,3.9,9.2,6.6,13.4
	c2.6-4.7,4.4-9.9,6.9-14.7c1.4-2.8,3.5-5.5,6.7-6.4c4.9-1.6,11.5,0.2,13.6,5.2c1.7,4.9,0.3,10.2-1.8,14.7
	c-3.5,7.5-6.9,15.1-10.5,22.6c-0.8,2-1.9,4-2,6.3c0.4,2.4,1.6,4.6,2.6,6.8c3,6,5.7,12.2,8.7,18.3c1.6,3.4,3.3,7,3.2,10.9
	c0,4.1-2.7,8-6.5,9.6c-2.4,0.8-5,0.8-7.4,0.4c-3.2-0.6-5.5-3.3-7-6c-2.3-4-3.9-8.5-6.2-12.4c-4.1,6.4-6.2,13.8-9.9,20.5
	c-1.3,2.3-2.9,4.7-5.4,5.8c-2.4,0.9-5,1-7.6,0.6c-4.5-0.7-7.9-5-8.1-9.5c-0.3-4.5,1.8-8.5,3.6-12.5c3.9-8.2,7.4-16.6,11.4-24.7
	c1.1-2.5,2.5-5,2.8-7.8c-0.1-2.5-1.4-4.8-2.4-7.1c-3.4-7-6.7-14.1-10-21.2C582.9,547.6,581.3,544.4,581,540.9z"/>
</svg>
