<svg version="1.1" xmlns="http://www.w3.org/2000/svg" xmlns:xlink="http://www.w3.org/1999/xlink" x="0px" y="0px" viewBox="0 0 1000 1000" style="enable-background:new 0 0 1000 1000;" xml:space="preserve">
<style type="text/css">
	.st0{fill:#EDEDED;}
	.st1{fill:#FFD400;}
	.st2{fill:#B65F40;}
	.st3{fill:#FF002C;}
	.st4{fill:#FFFFFF;}
</style>
<path class="st0" d="M435.7,403.8c25.4-12.9,53.9-19.3,82.3-18.8c22.8,0.6,45.2,5.9,66.1,14.9c16.1,7,31.4,16.6,43.8,29.1
	c21.4,21.8,35.8,50,42.3,79.7c6.2,26.3,6.8,53.7,3.5,80.5c-2.4,18.1-7.1,36-15.1,52.5c-9.1,20.7-22.9,39.2-40.3,53.6
	c-3.6,2.8-7.1,5.8-11.3,7.7c-3.7,1.7-8.2-2.1-7.2-6c1-3.8,5.1-5.1,7.8-7.4c6.8-5.3,13.8-10.9,18.2-18.4c-2-0.5-4,0.4-6,0.9
	c-21.2,6.1-43.1,8.8-65,10.7c-25.4,2-51,1.5-76.4-0.7c-20-2.2-39.8-5.9-59.3-10.3c-9.9-2.4-19.8-4.9-29.4-8.6
	c-1.7-0.7-3.5-1.1-5.3-1.2c-0.1,3.3,2.1,5.9,3.8,8.5c8.1,11.4,19.1,20.3,30.4,28.4c1.9,1.1,2.9,3,3.6,5c-0.3,3.8-4.4,6.9-8.1,5
	c-9.9-5.4-18.6-12.8-26.6-20.7c-13.1-13.4-24-29-32.1-45.9c-7.7-16.3-12.2-33.9-14.5-51.8c-2.9-21.9-2.1-44.2,1.7-65.9
	c3.4-18.8,9.9-37,19.3-53.6C379,441.8,405.6,418.8,435.7,403.8 M495.5,397.8c-33.8,3.9-66.1,18.7-91.6,41.1
	c-6.5,6-13.9,12.7-14.6,22.1c-0.2,5.8,4.4,10.4,9.8,11.7c46.3,11.4,94.1,15.7,141.6,16.6c23.1,0.8,46.2-0.6,69.2-2.3
	c8.1-0.7,16.3-1.2,24.3-2.8c3.5-0.8,7.4-2.6,8.3-6.4c1.3-4.4-0.9-8.7-2.8-12.5c-7.3-14-17.4-26.6-29.8-36.5
	c-15-12.2-33-20.3-51.4-25.7C538.2,397.1,516.6,395.2,495.5,397.8"/>
<path class="st1" d="M374.4,483.6c5.9-1.6,11.9,0.5,17.7,1.5c19.7,4.4,39.5,8.1,59.5,10.8c23.7,3.8,47.6,5.1,71.5,6.5
	c14.9,0.8,29.9,0.6,44.9,0.1c25.1-0.1,50.2-2.4,75-6.4c3-0.4,6.5-0.9,9.1,1.1c3,2.2,4.2,5.9,5.3,9.3c2.6,9.4,3.6,19.2,4.9,28.8
	c2.4,17.8,2,35.9,0.1,53.8c-1.5,13.2-5,26.2-9.8,38.6c-2.2,5.7-5.1,11.3-8.6,16.3c-4.3,5.8-11.2,8.7-17.7,11.2
	c-15.3,5.2-31.3,8.2-47.2,11c-25,4.2-50.5,4.2-75.8,3.7c-23.7-0.8-47.3-4.1-70.5-9.2c-16.8-3.6-33.4-8.9-48.8-16.4
	c-7.7-3.8-15.1-8.7-20.1-15.9c-5.1-7.6-7.5-16.6-9.4-25.4c-3.6-18.2-4.2-36.8-2.7-55.2c1.4-17.4,5.1-34.7,11.7-51
	C365.8,491.4,368.6,485.5,374.4,483.6"/>
<path class="st2" d="M560.7,573.8c23.1-6.7,46.2-13.2,69.4-19.7c4.5-1.8,10,2,9.2,7c-0.2,4.3-4.7,5.8-8.2,6.8
	c2.3,10.8,0.5,22.9-6.3,31.8c-4,5.5-10,9.6-16.7,11.2c-9,2.2-18.8-0.1-26.2-5.7c-6.7-4.8-11.4-11.8-14.3-19.4
	c-3.1,0.9-7,1.8-9.6-0.7C554.2,581.8,555.8,574.9,560.7,573.8"/>
<path class="st3" d="M433.2,610.3c-0.8,8.7-1.5,17.4-1.6,26.2c0.2,2.8,0.3,7.2,3.8,7.8c3,0.5,4.8-2.3,6.3-4.4
	c4.9-7.7,8.4-16,11.9-24.3C446.5,616,439.4,614.1,433.2,610.3z"/>
<path class="st4" d="M580.6,582c12.4-3.5,24.9-7.1,37.4-10.6c1.4,7.8-0.2,16.8-6.2,22.5c-4.1,4.1-10.6,5.4-16,3.5
	C588.6,595,583.5,588.8,580.6,582z"/>
<path class="st3" d="M470.3,562.6c2.7-13.9,5-28.1,4.3-42.4c-0.1-3.3-1.7-7.7-5.7-7.4c-4.1,0.9-6.1,5.1-8,8.5
	c-5.6,11.1-10,22.8-14.3,34.6c0,0,0.1,0,0.1,0C454.6,558.2,462.4,560.4,470.3,562.6z"/>
<path class="st2" d="M503.1,571.9c-10.9-3.2-21.8-6.2-32.7-9.3c0,0-0.1,0-0.1,0c-7.9-2.2-15.7-4.4-23.6-6.7c0,0-0.1,0-0.1,0
	c-10.5-3.1-20.9-6-31.4-9c-2.4-0.6-5.2-1.4-7.5-0.1c-3.7,1.7-5,6.9-2.5,10c2.3,3.5,6.8,3.5,10.4,4.8c-1.3,5.6-1.2,11.5-1,17.3
	c1.2,12.5,7.8,24.7,18.6,31.4c0,0,0,0,0,0c6.2,3.8,13.3,5.7,20.4,5.3c0,0,0.1,0,0.1,0c18.5-0.3,34.1-15,40.1-31.8
	c3.9,1,8.7,3.2,12.2,0C510.1,580.4,508.3,573.1,503.1,571.9z"/>
<path class="st4" d="M428.6,565.4c17.3,4.9,34.7,9.8,52,14.7c-4,10-12.1,18.9-22.8,21.5c-8.3,2.4-17.6-0.9-23-7.5
	C428.2,586.3,426.2,575.2,428.6,565.4z"/>
</svg>
