<svg version="1.1" xmlns="http://www.w3.org/2000/svg" xmlns:xlink="http://www.w3.org/1999/xlink" x="0px" y="0px" viewBox="0 0 1000 1000" style="enable-background:new 0 0 1000 1000;" xml:space="preserve">
<style type="text/css">
	.st0{fill:%%ST0%%;}
	.st1{fill:%%ST1%%;}
</style>
<path class="st1" d="M331.4,737.4c2.1-1.4,4.8-0.7,6.8,0.5c89.3,54,178.8,107.7,268.2,161.6c19.2,11.5,38.3,23.3,57.7,34.5
	c2.7,1.6,4,4.5,4.9,7.3c5.7,19.6,12.1,39.1,17.7,58.8h-27.1C537.2,932.8,415,865.4,292.7,798.2c-4.2-2.4-3.3-7.9-0.9-11.3
	c8.6-15,19.2-28.6,30.8-41.4C325.4,742.7,328,739.6,331.4,737.4"/>
<path class="st0" d="M305.2,790.3c8.5-14.1,18.4-27.6,30.8-38.6c106.2,63.9,212.4,127.9,318.6,191.8c1.5,0.6,1.8,2.3,2.3,3.7
	c4.4,14.7,9,29.3,13.3,44C548.4,924.2,426.8,857.2,305.2,790.3z"/>
</svg>
