<svg version="1.1" xmlns="http://www.w3.org/2000/svg" xmlns:xlink="http://www.w3.org/1999/xlink" x="0px" y="0px" viewBox="0 0 1000 1000" style="enable-background:new 0 0 1000 1000;" xml:space="preserve">
<style type="text/css">
	.st0{fill:#000000;}
	.st1{fill:#AAAAA9;}
	.st2{fill:#4A4F4F;}
	.st3{fill:#EDEDED;}
	.st4{fill:#00A900;}
	.st5{fill:#B65F40;}
</style>
<path class="st0" d="M270.8,431.2c-2-3.8-6.9-4.6-10.8-4.7c-12.6,0.3-24.5,7.6-31.3,18.1c-5.2,7.4-7.6,16.2-12,24.1
	c-4.1,7.8-13.5,12.5-22.2,10.6c-5.2-1.4-6.1-7.7-6.5-12.2c-0.7-13.7,0.8-27.4,1.7-41c1.6-22,2.4-44,3.1-66
	c0.6-16.1,1.9-32.1,2.4-48.2c1-22.3,1-44.5,1.8-66.8c0.5-17.4,0.3-34.7,0.7-52.1c0.1-2.4-0.5-6-3.6-6c-3.5,1.1-3.9,5.4-5,8.4
	c-10.2,39.5-21,78.9-30.3,118.6c-10.1,40.9-18.2,82.2-27.3,123.2c-2.1,9.1-3.6,18.3-5.9,27.3c-1,3.5-2.2,7.5-5.6,9.4
	c-3.9,2.3-8.7,1.5-12.7,0c-6.9-2.6-12.2-9-13.8-16.2c-2.1-9.1-1-18.8-4.6-27.6c-3.5-10.1-12.8-16.8-22.3-20.8
	c-3.2-1.2-7.5-2.6-10.2,0.3c-2.3,2.8-0.8,6.6,0.2,9.7c2.5,6.3,4.4,12.9,4.2,19.8c0.4,12.4-3.7,24.2-6.5,36.1
	c-2.1,8.9-3.6,19,1.2,27.3c5.5,9.3,16,14.1,26,16.6c-4.1,5.9-6.2,12.9-6.6,20c-1.3,19.8,0.4,40.1-5.8,59.3
	c-3,10.9-10.1,20-13.3,30.8c-2.8,8.3-4.3,17.3-3.1,26c2,15.8,9.6,30.3,19.1,42.9c8.5,11.1,18.8,21.3,31.8,26.9
	c-1.3,8.9-3,17.8-5.3,26.5c-0.7,3.1-1.8,6.3-1.2,9.5c0.6,2.7,3.4,4,5.8,4.7c9.2,2.7,18.9,2.9,28.3,4.2c4.9,0.5,9.7,1.5,14.6,1.3
	c3.2-0.2,5.2-3.2,5.9-6c2.1-7.9,2.9-16,4.1-24c3.7,0.2,7.6,0.5,11.1-0.9c5.2-1.9,9.1-6.2,12.2-10.6c4.6-6.7,8.4-14,11.5-21.5
	c8-19.3,14-39.4,19.2-59.7c4.5-17.6,8.6-35.3,10.7-53.3c1.4-13,3.3-26,3.5-39.1c0-7.3-0.9-14.8-3.8-21.6c5.3-0.8,10.6-1.9,15.4-4.4
	c8.8-4.4,15.2-12.7,18-22c4.2-15,0.3-30.8,3.1-46c1.4-7.4,4.7-14.4,9.7-20.1C269.2,439,272.6,435.3,270.8,431.2z"/>
<path class="st1" d="M171,309c5.2-25.7,11.4-51.2,16.8-76.9c0,7.5,0.1,15-1.1,22.4c-5.6,33.1-10.4,66.4-15.6,99.6
	c-5.7,37-11.6,73.9-17,110.9c-1.3,7.3-2.1,15.7-8.1,20.9c-5.2,4.6-12.6,3.4-18.9,3.2c2.4-0.8,5-1.4,6.6-3.4c3-3.6,3.8-8.4,4.9-12.8
	c2.3-12,4.3-24,6.4-35.9C152.1,394,162,351.6,171,309z"/>
<path class="st1" d="M74.6,444c0.5-7.1-1.1-14.2-3.4-20.9c1.8,2.2,4,4.3,4.7,7.1c1,6.2,2,12.4,1.8,18.8c0,9.6-2.2,19.2-1.2,28.9
	c0.8,7,5.8,12.6,11.5,16.4c10.3,7,22.6,10,34.6,12.9c0,0.7,0,2.2,0,3c-8.1-0.4-16.3-0.1-24.4-0.2c-8.5,0.5-17.9-0.6-24.7-6.1
	c-6.1-4.9-8.9-13.2-7.5-20.8C67.9,469.8,74.1,457.5,74.6,444z"/>
<path class="st1" d="M252.3,439.7c1-0.7,2.2-1.3,3.3-1.9c-3.8,5.5-7.3,11.3-8.9,17.9c-3.8,15.3-1.4,31.2-4.6,46.6
	c-1.4,6.9-5.1,13.9-11.8,17c-7,3.1-14.9,2.3-22.3,2c-8.1-1.2-16-3.5-24-5.3l1-0.8c1.5-0.8,3.3-0.8,4.9-0.9
	c9.2-0.5,18.6-1.4,27.2-4.9c5.6-2.2,11.1-5.8,14-11.3c4-7.4,3.5-16.1,4.7-24.2C237.5,461.1,242.9,448.6,252.3,439.7z"/>
<path class="st2" d="M171,354.1c5.3-33.2,10-66.4,15.6-99.6c0.3,3.8,0.3,7.6,0,11.4c-0.9,17-2.1,34-2.8,51c-1.8,48-4.3,96-6.5,144
	c-0.3,8-1.2,16-1.4,24.1c-0.3,3.1,1.3,6.4,4.2,7.6c4.6,2.1,9.8,1.7,14.8,1.7c9-0.5,18.8-1.4,26-7.4c7.3-5.8,9.3-15.5,12.4-23.8
	c3.5-9.5,9.1-19.5,18.9-23.5c-9.4,8.9-14.8,21.5-16.4,34.2c-1.2,8.1-0.7,16.8-4.7,24.2c-2.9,5.5-8.3,9.1-14,11.3
	c-8.6,3.4-18,4.4-27.2,4.9c-1.7,0.1-3.4,0.2-4.9,0.9l-1.6,0.7c-20.2-3.5-40.7-4.7-61.1-5.8c0-0.7,0-2.2,0-3
	c-12-2.9-24.3-5.9-34.6-12.9c-5.7-3.7-10.7-9.4-11.5-16.4c-1-9.6,1.2-19.2,1.2-28.9c0.2-6.3-0.8-12.6-1.8-18.8l0.2-1.4
	c3.8,5.2,5.7,11.7,5.8,18.1c0.3,8.6-0.7,17.9,3.5,25.8c3.1,6,9.2,9.7,15.6,11.6c8.5,2.4,17.2,4.4,26.1,4.9
	c6.3,0.2,13.8,1.4,18.9-3.2c6-5.2,6.7-13.6,8.1-20.9C159.4,428,165.3,391.1,171,354.1z"/>
<path class="st3" d="M101.9,522.1c8.3-3.1,17.4-1.2,26-0.6c-19.4,32.9-34,69.2-38.6,107.3c-2.8,22.3-3.7,45.2,0.6,67.4
	c-7.1-7.7-12.3-16.8-16.4-26.4c-4.5-10.2-7.1-21.6-5.6-32.8c1.1-8.8,6.2-16.3,10.1-24.1c4.2-7.8,7.2-16.2,8.9-24.9
	c3.8-17.8,0-36.4,5.2-54C93.4,528.9,96.7,523.9,101.9,522.1z"/>
<path class="st4" d="M142.3,524.5c6.2-2,12.6,0,18.9,0.2c13.1,1.2,27.9,1.5,38.2,10.9c7.8,7.2,8.3,18.5,8.6,28.4
	c0.1,17.7,0.6,36.1-5.9,52.9c-2.5,6-5.2,12.5-10.7,16.4c-3.1,2.2-7.1,1.7-10.5,0.8c-10.4-2.8-20.8-6.1-30.7-10.3
	c-8.4-3.3-16.5-7.4-25.3-9.3c-3.1-0.5-7.4-1.4-9.4,1.8c-2,3,0.4,6.7,3.2,8.1c5.8,3.2,12.4,4.4,18.6,6.3c13.3,3.9,27,7,39.9,12.1
	c9.1,3.4,15.1,13.5,14,23.1c-1,8.4-3.3,16.5-5.6,24.6c-2.8,9.2-6,18.4-11.6,26.3c-3.3,4.7-9,8-14.9,7.2c-8.4-1.1-16.1-4.7-24.1-6.8
	c-10.2-3-21.6-4.8-29.2-12.9c-7.7-8.4-10-20.3-10.7-31.4c-0.8-22,1.9-44.1,6.7-65.6c4.2-18.9,11.5-36.9,19.4-54.4
	c3.1-6.7,6.7-13.2,10.7-19.4C134.3,529.7,137.7,525.9,142.3,524.5z"/>
<path class="st5" d="M114.7,725.1c10,2,19.7,4.8,29.4,8.1c-1.1,8.2-2.2,16.5-4.2,24.6c-9.8-1.3-19.7-2.2-29.5-4
	C111.5,744.2,113.4,734.7,114.7,725.1z"/>
</svg>
