<svg version="1.1" xmlns="http://www.w3.org/2000/svg" xmlns:xlink="http://www.w3.org/1999/xlink" x="0px" y="0px" viewBox="0 0 1000 1000" style="enable-background:new 0 0 1000 1000;" xml:space="preserve">
<style type="text/css">
	.st0{fill:#EDEDED;}
	.st1{fill:#FF5400;}
</style>
<path class="st0" d="M721.2,820.8c-6.2-6.6-14.3-11.1-21.6-16.4c-26.3-17.7-52.2-36.1-79-53c-28.3-17.7-58.9-32.2-91.3-40.5
	c-21.4-5.2-43.3-8.1-65.2-10.6c-22.2-2-44.8-2.4-66.8,1.8c-18.3,3-36.1,9.3-51.5,19.7c-25,16.5-43.5,41-57.7,67.1
	c-26.2,48.3-39.3,103.3-39.2,158.1c0,17.7,0.1,35.4,2,53h21.2h95.4h25.3h278.9H690c-5.2-19.9-11.5-39.4-17.8-59
	c-4.6-14.1-9.3-28.3-14.4-42.2c13.3,6.4,27.5,11,42.1,12.9c5,0.1,10.8,1.3,15.1-1.9c1.9-2.9,0.7-6.7,0.5-10
	c-3.3-23.3-4.1-48.3,6.3-70C723.4,827,723.9,823.2,721.2,820.8z"/>
<path class="st1" d="M409.8,720.7c30.9-4.2,62.6-3.9,93.2,2.7c20.3,4.3,40.6,10.8,57.7,22.9c13.3,9.4,23.2,22.8,31.2,36.8
	c14.2,25.6,25.4,52.8,35.8,80.1c17.3,44.7,30.2,91,44.1,136.8H392.8c-9.8-46.9-19.2-93.9-29-140.9c-0.8-4.8-6.7-7.5-10.9-5.2
	c-3.4,1.6-4.5,5.7-3.8,9.2c6.1,45.6,12.1,91.3,18.3,136.9h-95.4c-3.5-22.8-5.2-46-5.6-69.1c0.8-39.5,10-78.8,27.1-114.3
	c8.4-17.7,18.1-35.1,31-50c9.4-10.9,20-21,32.1-28.8C372.5,727.6,391.4,723.6,409.8,720.7z"/>
<path class="st1" d="M627.8,794.8c4-5.9,12.3-5.1,18.1-2.6c13.9,6.4,25.6,16.3,38.2,24.7c7.9,5.8,16.6,10.7,23.2,18
	c-3.9,13.7-4.5,28-5,42.1c-0.1,5.8,0,11.5,0.5,17.3c-17.2-2.2-33.5-9-48.1-18c-5.1-3.2-9.9-7.5-11.9-13.3
	c-5.7-15.2-11.7-30.2-18-45.1C623.7,810.2,623.6,801.6,627.8,794.8z"/>
</svg>
