<svg version="1.1" xmlns="http://www.w3.org/2000/svg" xmlns:xlink="http://www.w3.org/1999/xlink" x="0px" y="0px" viewBox="0 0 1000 1000" style="enable-background:new 0 0 1000 1000;" xml:space="preserve">
<style type="text/css">
	.st0{fill:#000000;}
	.st1{fill:#D15B31;}
	.st2{fill:#8D3D21;}
	.st3{fill:#EDEDED;}
	.st4{fill:#FFD400;}
</style>
<path class="st0" d="M634.6,315.2c-5.2-13.6-13.3-26-23.5-36.4c-13.6-14.2-29.8-26-47.9-34c-14.5-6.4-29.7-11.3-45.3-14
	c-2.6-0.6-5.9,0.3-7.9-2c-12-11.3-30.2-16.7-46.1-10.9c-13.6,4.4-24,15.9-28.7,29.2c-7,2.2-13.8,5.8-18.5,11.7c-6,7.1-7.9,17-5.7,26
	c-11.3,9.8-16.2,26.8-10.7,40.8c7.1,16.5,29.7,24.5,45.3,15c7.5-4,12.2-12.2,12.4-20.7c7.2-3.8,14.8-6.8,22.6-8.8
	c-0.9,6.9,3.5,14.1,10.3,16c12.3,3.9,26.3-6.2,27-19c27.6,2.4,53.8,14.6,74.9,32.3c-3.4,5.4-6.6,11.8-5.1,18.4
	c1.2,7.7,6.1,14.9,13.5,17.7c8.6,3.7,18.7,1.2,25.8-4.5c5.9-4.8,9.5-11.9,11-19.2C640.8,340.4,638.9,327.2,634.6,315.2z"/>
<path class="st1" d="M465.9,232.8c10.8-4.8,24.1-3.9,33.7,3.1c-16.2,4.8-31.8,14.3-40.7,29c-7.1,10.6-10.3,23.3-10.4,36
	c-0.8,7.8,0.8,16.6-4.3,23.3c-6.5,9-21,8.5-28.2,0.7c-4.1-3.8-5.9-9.6-5.1-15c1.1-8.1,5.2-15.4,9.9-22c2.2-2.6,0.4-6,1.1-9
	c1.7-10.9,10.7-19.4,20.7-23.1c1.8-0.9,2.4-3,3.5-4.6C450.7,243.3,457.3,236.2,465.9,232.8z"/>
<path class="st2" d="M509.4,288.1c33.2,0.2,65.4,14.5,89.5,37.1c2.2,2.4,2.2,6,0.6,8.7c-0.3,0-0.8,0.1-1.1,0.1
	c-11.6-9.9-24.4-18.7-38.4-25c-14.3-6.6-29.9-10.3-45.7-11.1C512.7,294.7,510.8,291.5,509.4,288.1z"/>
<path class="st2" d="M461.4,297.5c6.9-5.1,15.8-6.2,24.1-7.4c0.1,3.6-0.7,7.2-1.8,10.7c-9.1,2.1-18,5-26.5,8.8
	C457.2,305.2,457.5,300.2,461.4,297.5z"/>
<path class="st3" d="M624.4,331.7c-3.3-19.7-13.5-38-28-51.6c-3.2-3.1-6.7-5.8-10.3-8.4c-20.5-14.4-44.3-23.8-68.6-29.4
	c-4.3-0.9-8.8-1.1-13.1-0.4c-18.5,4-36.5,16.1-43.3,34.4c-0.9,2.7-2.2,6.3,0.2,8.6c2.8,1.6,6.4,0.9,9.4,0.3c3.2-0.8,6.7-1,9.7-2.5
	c2-2.3-1.8-2.9-2.3-4.9c-1.5-2.4,1.8-5.5,4.2-4.2c6.1,2.9,10,9.7,10.2,16.4c0.2,7.3-3,14.1-4.3,21.1c-0.8,5.5,5.3,9,10.2,7.9
	c4.4-1,8.4-4.4,8.8-9.1c1-7.4-4.1-13.5-5.5-20.5c-1.3-6-1.6-12.8,1.9-18.1c1.2-2.1,4.7-2.5,5.9-0.3c1.7,2.2-0.8,4.5-0.4,6.9
	c1.5,2.4,4.5,3,7.1,3.4c12.3,1.1,24.6,3.4,36.2,7.6c3.9,1.5,7.8,3,11.6,4.8c10.1,4.4,19.4,10.4,28.2,17.1
	c5.6,4.4,11.7,8.6,15.7,14.6c2.3,3.6,2.3,8.3,0.6,12.1c-2.4,6.2-8.9,10.9-8.2,18.2c0.3,4.8,4,9.2,8.8,10.1c4.2,0.8,8.7-1.1,11.3-4.5
	c3.3-4.1,4.4-9.5,4.9-14.6C625.5,341.6,625.2,336.6,624.4,331.7z"/>
<path class="st4" d="M504.2,241.9c4.3-0.7,8.8-0.5,13.1,0.4c0.3,3.8-2.3,7.8-6.3,7.9C506.6,250.5,503.4,246.1,504.2,241.9z"/>
<path class="st4" d="M490.5,257.5c4.1-1.6,9.1,2.1,8.4,6.5c0.2,4.8-6.2,8-9.9,5.1C484.5,266.4,485.5,258.9,490.5,257.5z"/>
<path class="st4" d="M536.5,257.5c5-1.4,9.8,4.6,7.3,9.1c-1.8,4.5-8.8,5-11.3,0.8C529.8,263.9,532.2,258.3,536.5,257.5z"/>
<path class="st4" d="M586,271.7c3.6,2.5,7.2,5.3,10.3,8.4c-2.7,3.7-8.9,3.9-11.6,0.1C583.1,277.4,584.3,274.1,586,271.7z"/>
<path class="st4" d="M460.9,276.4c2.7-1.7,6.6-1.6,8.8,1c2.1,2.1,2,5.3,0.8,7.9c-3,0.6-6.6,1.3-9.4-0.3
	C458.6,282.7,460,279,460.9,276.4z"/>
<path class="st4" d="M552.3,289c0.9-3.4,4.1-6.3,7.8-5.4c4.5,0.5,7.3,7,3.9,10.2C560.1,292,556.2,290.5,552.3,289z"/>
<path class="st4" d="M596.6,294.6c4.6-2.1,10.2,2.2,9,7.1c-0.6,5.3-8.2,7.1-11.4,3C591.4,301.6,592.8,296.2,596.6,294.6z"/>
<path class="st4" d="M488,311.2c1.8-3.2,6.2-4.8,9.4-2.6c3.8,2.2,4,7.7,0.8,10.5C493.4,320.1,487.3,316.7,488,311.2z"/>
<path class="st4" d="M616.3,339.1c-0.1-4.3,4-7.3,8.1-7.4c0.9,4.9,1.1,10,0.8,15C620.7,347.3,616,343.8,616.3,339.1z"/>
<path class="st4" d="M600.1,355.7c2.7-2.5,7.4-2.6,9.8,0.4c2.5,2.9,1.6,7.2-1,9.6C604.1,364.9,600.4,360.5,600.1,355.7z"/>
</svg>
