<svg version="1.1" xmlns="http://www.w3.org/2000/svg" xmlns:xlink="http://www.w3.org/1999/xlink" x="0px" y="0px" viewBox="0 0 1000 1000" style="enable-background:new 0 0 1000 1000;" xml:space="preserve">
<style type="text/css">
	.st0{fill:#EDEDED;}
	.st1{fill:#E94000;}
	.st2{fill:#FF5400;}
</style>
<path class="st0" d="M582.3,166.6c-20.3-40.9-41.2-81.5-61.5-122.4c-1.8-3.1-3.1-6.8-6.1-9c-2.7-1-5.8-1-8.5,0c-3,2.2-4.2,5.9-6.1,9
	c-21.4,43.2-43.4,85.9-64.8,129.1c-0.7,1.7-0.5,3.6-0.3,5.4c21.5,43.5,43.7,86.6,65.2,130.1c1.8,3,3,6.6,6,8.7
	c3.6,1.1,8.6,1.3,10.7-2.4c3.7-5.9,6.4-12.3,9.6-18.4c19.5-39.4,39.8-78.5,59.2-118C587,174.1,584,170.4,582.3,166.6z"/>
<path class="st1" d="M505,69c0.8-1.5,1.8-2.8,2.9-4.1c1,1.5,1.8,3.2,2.2,5c7.1,29.6,14.2,59.2,21.2,88.8c0.4,1.5,0.3,3,0.2,4.6
	c-2.1,0.7-4.2,1.4-6.4,1.6c-20.7,2.5-41.4,5.1-62.1,7.2c-2.4,0.2-6.5,0.3-6.5-3c0.4-5.9,3.9-10.9,6.3-16.1
	C476.8,124.9,491,97,505,69z"/>
<path class="st2" d="M514.9,67.6c2.3,3.1,3.7,6.7,5.5,10.1c15.1,29.9,30.2,59.8,45.2,89.8c0.5,1.2,0.8,2.6,0.8,4
	c-4.4-0.1-8.5-1.8-12.7-2.9c-4.4-1.3-9-2-13.1-4c-2.6-1.3-3.8-4.1-4.4-6.8c-4.2-17.6-8.4-35.2-12.6-52.8
	C520.7,92.4,517.2,80.1,514.9,67.6z"/>
<path class="st2" d="M464,177.1c18.6-2.3,37.2-4.5,55.9-6.7c2.7-0.3,5.4-0.8,8.2-0.7c1.3,0,2.9,0.8,2.9,2.3c0.4,3-0.2,5.9-0.7,8.9
	c-4.8,27.6-9.9,55.1-14.8,82.7c-1.9,9.3-3,18.8-5.4,28.1c-0.9-1-2-1.9-2.6-3.1c-16.9-33.7-34-67.4-50.9-101.1
	c-1-2.4-2.4-5.7-0.2-7.9C458.5,177.8,461.4,177.5,464,177.1z"/>
<path class="st1" d="M535.9,178c0.6-2.6,1-5.5,3-7.4c4.2-0.3,8.1,1.6,12.1,2.4c5.3,1.6,11,2.4,16,5.1c-0.6,4.7-3,8.9-4.7,13.2
	c-14.7,29.7-29.8,59.2-44.6,88.8c0.8-7.4,2.5-14.7,3.8-22.1C526.2,231.4,531,204.7,535.9,178z"/>
</svg>
