<svg version="1.1" xmlns="http://www.w3.org/2000/svg" xmlns:xlink="http://www.w3.org/1999/xlink" x="0px" y="0px" viewBox="0 0 1000 1000" style="enable-background:new 0 0 1000 1000;" xml:space="preserve">
<style type="text/css">
	.st0{fill:#000000;}
</style>
<path class="st0" d="M254.4,284.7c5.2-1.4,10.7-0.7,15.9,0.2c11.6,2.3,22.6,6.8,33.4,11.5c23.9,10.4,46.9,22.9,68.8,37.1
	c9.6,5.9,18.4,12.9,27,20.1c4.8,4.3,9.8,9.2,11.1,15.7c0.8,4.5-3.3,7.8-6.9,9.5c-8,3.6-16.3,6.6-23.8,11.1c-3,1.9-4.1,6.2-2,9.1
	c2,3.3,6.6,3.7,9.7,1.8c36.6-19,78.1-28.6,119.4-27.3c47.5,1.1,94.3,16.5,133.8,42.7c3.8,3.2,10.4,0.9,10.9-4.2
	c0.7-4.1-3-6.8-6.1-8.6c-6.3-4.1-12.8-7.9-19.5-11.5c-2.3-1.4-5.2-3-5.6-5.9c0.3-4.9,3.8-8.9,7.4-11.9c6.2-5,13.2-8.9,20.1-12.9
	c14-7.5,28.4-14.1,43.1-20.1c20.6-8.4,42.2-14.3,64-18.6c8.3-1,15.5,5.8,18,13.2c4.3,12.3,5.5,25.4,5.7,38.3
	c1.2,26.3,1.7,52.7-0.4,79c-3.3,40.7-10.1,81.4-23.4,120.1c-9.9,28.4-23,56-40.3,80.6c-25.7,35.3-59.3,65.6-99.5,83.4
	c-36.9,15.5-77.5,20.3-117.3,19.6c-22.8-0.3-45.7-1.8-68-6.5c-36.5-7.7-72.1-21.9-102.5-43.8c-28.7-20.9-52.5-48.4-69.3-79.7
	c-17.1-32.6-24.2-69.3-28.4-105.6c-3.1-27.3-3-54.8-1.9-82.2c1.2-25.1,2.9-50.1,5.3-75.1c1.2-13.4,3.4-26.6,4.9-39.9
	c1.1-9.3,2.4-18.7,5.2-27.7C245,291,248.6,285.7,254.4,284.7z"/>
</svg>
