<svg version="1.1" xmlns="http://www.w3.org/2000/svg" xmlns:xlink="http://www.w3.org/1999/xlink" x="0px" y="0px" viewBox="0 0 1000 1000" style="enable-background:new 0 0 1000 1000;" xml:space="preserve">
<style type="text/css">
	.st0{fill:#000000;}
	.st1{fill:#00A900;}
	.st2{fill:#EDEDED;}
</style>
<path class="st0" d="M218.7,531.2c-7-10.8-20.2-14.9-32.2-17.3c-0.2-13.1,1.5-26.4-1.4-39.3c-1.3-6.1-6.4-10.7-12.2-12.3
	c-9.7-2.8-20-3.2-29.9-2.1c-8.6,1-17.6,4.9-22,12.7c-6.4,11-10.1,23.2-13.9,35.3c-10.9-1-22.3,4.6-27.5,14.4
	c-5.2,9.3-4.5,20.2-5,30.4c-0.1,16-0.6,32.4-6,47.7c-2.2,6.7-5.7,12.7-8.8,19c-5.6,12.2-8.9,25.9-6.2,39.3
	c3.5,17.8,13.4,33.8,25.4,47.2c9,9.5,19.7,18.6,32.9,20.9c11.2,1.9,22.7,4,32.8,9.4c6.1,3.4,13.2,5.9,20.3,4.4
	c5.6-1.1,10-5.2,13.3-9.6c8.8-11.9,14.2-25.9,19.2-39.8c7.8-22.3,13.8-45.3,18.8-68.4c3.9-17.5,5.6-35.3,7.5-53.1
	C224.7,557.1,225.9,542.7,218.7,531.2z"/>
<path class="st1" d="M132.3,480.4c2.9-4.8,8-8.2,13.7-8.3c7.6-0.3,15.6,0.5,22.7,3.5c4.5,1.8,6.2,6.9,6.2,11.4
	c0.1,10.6-1.2,21.1-1.7,31.7c-17.8-1.5-35.5-3.2-53.2-5C121.9,501.8,126,490.4,132.3,480.4z"/>
<path class="st1" d="M142.4,524.5c2.7-1,5.7-1.1,8.5-0.7c10.4,1.2,20.9,1.3,31.1,3.5c7.4,1.6,15,4.8,19.8,11c4,5,5.3,11.5,5.8,17.7
	c0.9,12,0.6,24.1-0.1,36.1c-0.7,10.3-3.1,20.5-7.5,29.9c-2.2,4.5-4.8,9.2-9.3,11.8c-3.3,1.9-7.2,1.1-10.6,0.1
	c-7.7-2.2-15.4-4.4-22.8-7.3c-8.2-3.1-16.1-6.8-24.3-9.8c-4.5-1.6-9.2-3.1-14.1-2.8c-3.1,0.2-5.3,4-3.8,6.8c1.7,3.4,5.7,4.7,9.1,6
	c14.1,4.4,28.4,7.9,42.5,12.2c4.2,1.3,8.5,2.7,12.4,4.7c8.4,4.1,13.3,14.1,11.8,23.3c-1,7.4-2.9,14.6-5,21.8
	c-2.6,8.8-5.6,17.7-10.4,25.6c-2.4,4.1-6,7.8-10.7,9.2c-5.4,1.6-11-0.5-16.2-2c-8.5-3-17.1-5.4-25.7-7.7
	c-8.6-2.4-17.2-7.2-21.5-15.3c-7-13-7-28.2-6.5-42.6c1.3-24.6,5.4-49.2,13.6-72.4c6.2-16.5,12.7-33.1,22-48.2
	C133.4,530.8,136.9,526.1,142.4,524.5z"/>
<path class="st2" d="M101.9,522.1c8.3-3.1,17.4-1.2,26-0.6c-19.5,33.1-34.2,69.6-38.7,108c-2.7,22.1-3.6,44.8,0.7,66.7
	c-6.9-7.5-12.1-16.5-16.2-25.8c-4.6-10.4-7.4-22.1-5.9-33.5c1.2-8.8,6.2-16.3,10.1-24c4.2-7.8,7.2-16.1,8.9-24.8
	c3.8-17.8,0-36.5,5.2-54.1C93.4,528.9,96.7,524,101.9,522.1z"/>
</svg>
