<svg version="1.1" xmlns="http://www.w3.org/2000/svg" xmlns:xlink="http://www.w3.org/1999/xlink" x="0px" y="0px" viewBox="0 0 1000 1000" style="enable-background:new 0 0 1000 1000;" xml:space="preserve">
<style type="text/css">
	.st0{fill:#000000;}
	.st1{fill:#FFD400;}
	.st2{fill:#EDEDED;}
</style>
<path class="st0" d="M543.7,285.3c-10.2-9.5-23.4-15.2-36.7-19.1c-15.8-4.3-32.4-6-48.7-4.7c-10-8.1-22.2-13.9-35.1-15.1
	c-17.6-1.7-36.1,2.8-50.1,13.8c-13.9,10.8-23.1,27.2-25.7,44.6c-15.8,9.5-30.1,21.9-40.3,37.4c-8.4,12.6-13.3,27.8-12.2,43
	c0.6,10.4,5.2,21,13.8,27.2c6.2,4.6,14.6,5.8,21.9,3.2c12.2-4,20-15.3,31.8-20.1c8.7-3.6,18.5-2.4,27.5-0.5c10,2,20.7,5.1,30.7,1.4
	c9.6-3.5,15.7-12.3,22-19.8c4.2-5.2,9.8-9.9,16.6-10.9c9.9-1.5,19.9,1.4,29.8,1c6.4-0.1,13-2.3,17.3-7.4c7.3-8,8.2-19.6,15-27.8
	c6.2-7.2,16.4-7.4,24.9-10c4.4-1.1,7.8-5,8.4-9.5C556.1,301.8,550.9,292,543.7,285.3z"/>
<path class="st1" d="M404.5,265.8c16.5-3.5,34.6,0.4,47.8,11c3.9,3.1,7.8,7,8.6,12.2c0.3,1.9-1.1,3.3-2.1,4.7
	c-10.5,13.3-24.7,23.8-40.8,29.4c-14.6,5.1-30.7,6.2-45.9,2.8c-3.9-0.8-6.1-4.6-6.9-8.2c-2-8.9,0.2-18.3,4.3-26.2
	C376.4,278.1,389.9,268.8,404.5,265.8"/>
<path class="st2" d="M476.2,279.5c3.7-0.8,7.4,0,11,0.4c14.5,2.1,29,6.3,41.2,14.5c3.1,2.2,6.6,4.7,7.5,8.6c0.4,2.5-2.4,3.8-4.3,4.3
	c-5.9,1.4-12.4,1-17.7,4.5c-5.3,3.1-7.7,9.1-9.6,14.7c-2.9,7.7-4.9,16.8-12.3,21.4c-7,3.9-15.3,2.4-23,2.2
	c-11.3-1.2-23.5,0.9-32.5,8.2c-7.3,5.4-12.1,13.3-18.8,19.3c-4.8,4.3-11.8,4.2-17.8,3.1c-11.9-2.1-23.8-6.7-36-4.9
	c-10.4,1.2-19.5,7-27.4,13.5c-4.1,3.1-8.1,7-13.4,7.9c-4.2,0.7-7.7-2.6-9.4-6.2c-3.4-7-2.6-15.2-0.8-22.5
	C316,357,323.1,346.9,331,338c4.3-4.6,8.7-9.4,14.2-12.6c3.1-1,5.1,2.1,6,4.6c2,5.6,7.2,9.5,12.8,11.1c8.5,2.5,17.4,2.5,26.1,2
	c19.6-1.7,39.4-6.9,55.6-18.5c8.2-5.7,15.9-12.1,22.7-19.3c4-4.4,8.1-9.3,9.3-15.3C478.5,286.4,476.5,283,476.2,279.5z"/>
<path class="st2" d="M422.2,274.1c2.3-1.8,6.2,0,6.2,2.9c0.4,2.7-2.8,5.1-5.3,3.9C420.2,280,419.6,275.7,422.2,274.1z"/>
<path class="st2" d="M433.2,282.3c6.2-3.5,14.4,2.9,12.7,9.7c-1,6-8.7,9.3-13.7,5.7C426.6,294.4,427.2,285,433.2,282.3z"/>
</svg>
