<svg version="1.1" xmlns="http://www.w3.org/2000/svg" xmlns:xlink="http://www.w3.org/1999/xlink" x="0px" y="0px" viewBox="0 0 1000 1000" style="enable-background:new 0 0 1000 1000;" xml:space="preserve">
<style type="text/css">
	.st0{fill:#000000;}
	.st1{fill:#464B4B;}
	.st2{fill:#FF002C;}
</style>
<path class="st0" d="M546.9,555.7c4.2-0.5,7.8-4.4,7-8.7c-0.6-4.6-5.8-7-9.9-5.8c-16.9,3.4-35.1-0.8-48.8-11.2
	c-13.7-10.2-22.9-25.6-27-42.1c-0.7-4.4-5.2-7.9-9.7-6.4c-3.5,1-5.7,4.9-5,8.5c5.5,25.8,22.8,49.5,47.2,60.4
	C515,557,531.4,558.6,546.9,555.7z"/>
<path class="st0" d="M702.5,582.9c-0.2-3.8-4.8-6.6-8.3-4.8c-3.2,1.8-5.9,4.4-9.2,5.9c-16.1,7.8-38.1,4.8-49.4-9.8
	c-1.8-2.5-5.5-3.6-8.2-1.8c-3,1.7-3.7,6-1.6,8.7c5.7,8.2,14.6,13.8,24.1,16.7c16.3,4.9,35.2,2.3,48.8-8.2
	C700.8,588.1,702.9,585.8,702.5,582.9z"/>
<path class="st0" d="M569.9,618.1c-9.4-4.5-20.6-5.3-30.4-1.4c-13.8,5.1-23.3,18.7-25.7,33c-2.4,13.8,4.7,28.8,17.1,35.4
	c9.6,5.3,22,5.1,31.4-0.7c6.8-4.1,11.7-11.3,12.7-19.3c0.8-5.7-1.2-11.3-4-16.1c3.1-3.6,6.2-7.2,9.3-10.8c2.1,2.7,3.2,6.7,6.8,7.9
	c3.8,1.2,7.3-3.5,5.5-6.8C588.2,629.6,579.3,622.6,569.9,618.1z"/>
<path class="st1" d="M546.2,625.1c8.7-2.4,17.8,0.5,25.2,5.2c-3,3.5-6,7-9.1,10.4c-9.9-6.1-22.4-7-33.3-3.2
	C533.1,631.6,539,626.7,546.2,625.1z"/>
<path class="st2" d="M536.4,646.5c8.3-2.3,18.1-0.4,24.2,5.9c2.8,2.8,4.6,6.7,4.3,10.7c-0.1,7.6-6.7,13.7-13.9,15.1
	c-10.6,2.8-23.5-4-25.3-15.2C524.2,655.7,529.2,648,536.4,646.5z"/>
</svg>
