<svg version="1.1" xmlns="http://www.w3.org/2000/svg" xmlns:xlink="http://www.w3.org/1999/xlink" x="0px" y="0px" viewBox="0 0 1000 1000" style="enable-background:new 0 0 1000 1000;" xml:space="preserve">
<style type="text/css">
	.st0{fill:#000000;}
	.st1{fill:#FFFFFF;}
	.st2{fill:#464B4B;}
	.st3{fill:#FF002C;}
</style>
<path class="st0" d="M528.4,563.9c0.6,4.9,7,7.8,10.8,4.4c4.1-4.2,7.2-9.4,12.2-12.7c1.9-1.4,4.4-2.4,5.3-4.7
		c1.8-3.5-0.9-8.1-4.7-8.7c-3.2-0.8-6,1.3-8.6,2.8c0.9-18.9-1.8-38.3-9.9-55.5c-8-17.4-21.8-32.4-39.1-40.8
		c-16.7-8.3-36.2-10-54.4-6.6c-3,0.5-6.5,1.1-8.2,4c-2,2.9-0.8,7.3,2.4,8.9c3.2,1.8,6.9,0.2,10.2-0.4
		c-15.6,13.5-20.9,35.9-17.4,55.7c2.6,17,12.7,32.4,26.7,42.2c11.1,8,24.8,12.1,38.4,12.3c14-0.1,27.9-5.6,38-15.3
		C529.7,554.2,528.2,559,528.4,563.9z"/>
<path class="st0" d="M728.7,564.1c-0.3-3.4-3.6-5.1-6.3-6.5c-13.7-6.8-29.5-7.8-44.4-6.4c-19.8,2-39.1,8.5-56.2,18.5
		c-1.1-3.4-2.2-7.1-5.1-9.4c-2.7-2.4-7.8-1.6-9,2c-1.1,2.3,0.1,4.7,1.3,6.7c2.1,3.6,2.1,7.8,2.5,11.8c0.3,3.4,4.6,5.6,7.6,4.1
		c2.7-1.2,5.1-3.1,7.6-4.6c2.4,6.1,6.4,11.6,11.7,15.5c12.4,9.1,29.1,12,43.9,7.9c9.6-2.6,19.1-7.6,24.6-16.2
		c3.9-6.6,5.6-14.4,4.7-22c3.4,1.2,6.5,3,9.8,4.5C724.8,571.6,729.3,568.1,728.7,564.1z"/>
<path class="st0" d="M569.1,617.8c-9.3-4.2-20.2-4.9-29.8-1.1c-14.3,5.4-23.9,19.7-25.8,34.5c-1.9,14.4,6.6,29.6,20.1,35.1
		c13.4,6,31.3,1.1,38.4-12.2c4.5-7.8,3.8-17.7-1.1-25.1c3.1-3.6,6.2-7.2,9.3-10.8c2.1,2.7,3.2,6.7,6.8,7.8c3.8,1.2,7.3-3.4,5.5-6.8
		C588,629.4,578.9,622.2,569.1,617.8z"/>
<path class="st1" d="M467.4,455.6c1.5-0.4,3.1-1.1,4.7-0.8c16.1,3,30.8,12.4,40.7,25.4c11.2,14.5,16.6,32.8,17.7,50.9
		c0.3,1.8-1.2,3.1-2.1,4.4c-7.1,9.2-17.9,15.2-29.4,16.8c-17.1,2.5-34.9-4.2-46.8-16.5c-10.5-10.6-16.7-25.7-15.6-40.7
		C437.4,477.2,450.3,460.8,467.4,455.6z"/>
<path class="st1" d="M635,575.8c20.3-9.9,43.4-15.5,66.1-12.6c2.7,7.7,0,16.5-5.9,22c-10.6,10.3-27.1,12.9-40.9,8.6
		C645.6,591.2,637.4,584.9,635,575.8z"/>
<path class="st2" d="M546.1,625.2c8.7-2.4,17.8,0.5,25.2,5.2c-2.9,3.5-6,7-9,10.4c-9.9-6.1-22.4-7-33.3-3.2
		C533.1,631.6,539,626.8,546.1,625.2z"/>
<path class="st3" d="M536.4,646.5c8.3-2.3,18.1-0.4,24.3,5.9c2.8,2.8,4.6,6.7,4.3,10.7c-0.1,7.5-6.6,13.6-13.6,15.1
		c-10.6,2.9-23.6-3.8-25.5-15.1C524.2,655.8,529.1,648,536.4,646.5z"/>
</svg>
