<svg version="1.1" xmlns="http://www.w3.org/2000/svg" xmlns:xlink="http://www.w3.org/1999/xlink" x="0px" y="0px" viewBox="0 0 1000 1000" style="enable-background:new 0 0 1000 1000;" xml:space="preserve">
<style type="text/css">
	.st0{fill:#000000;}
	.st1{fill:#6089FF;}
	.st2{fill:#464B4B;}
	.st3{fill:#959898;}
</style>
<path class="st0" d="M949.3,669.7c-12.5-33.8-25.1-67.5-37.7-101.3c-1-2.7-2.5-5.5-5.5-6.2c-14.7-4.7-29.6-9.2-44.3-13.9
	c-2.7-0.9-5.8-1.5-8.5,0c-29.5,16.8-58.8,34-88.3,50.9c-2.2,1.3-4.8,2.6-5.9,5.1c-1,1.9-0.1,4.1,0.7,5.9
	c14.3,33.7,28.6,67.4,42.8,101.2c1.2,3,2.8,6.6,6.4,7.3c17.6,4.2,35.3,8.1,52.9,12.2c2.8,0.8,5.9,0.2,8.2-1.5
	c25.3-17,50.6-34.1,75.8-51.1C949,676.5,950.7,672.9,949.3,669.7z"/>
<path class="st1" d="M765.8,774.8c8.4-9.1,20.6-15.2,33.1-14.9c7.5,0.4,15.4,2.8,20.4,8.8c4.5,5.4,5.9,13.1,3.9,19.9
	c-1.8,7.6-6.8,13.8-10,20.8c-1.4,2.9-1.9,7.3,1.2,9.3c2.5,2.1,5.9,1,8.8,0.5c18.3-3.9,37.5-5.6,55.8-1.1c11.1,2.7,21.8,9,27.8,19
	c4.8,7.7,6.1,17.1,4.7,25.9c3.7,5.2,7,10.8,8.2,17.1c3,11.9-1.2,26.1-11.8,32.9c-4.9,3.2-10.9,3-16.5,2.9c0,7.3-1.8,15.1-7.4,20.1
	c-7.3,6.8-18.6,7.2-27.5,3.5c-7.7-3.3-14.4-8.8-22.6-11.3c-9.7-3.3-20.2-2-29.9,0.4c-11.2,2.8-22.6,5.4-34.2,5.1
	c-13.7-0.1-28.2-3.5-38.4-13.1c-5.7,4.1-13.3,6-20.2,4c-6.2-1.9-10.1-7.7-12.6-13.4c-5.9-15.6-8.2-32.5-6.9-49.2
	c1-14.6,2.3-30.1,10-42.9c3.8-6.2,9.3-12.6,17.1-13.3c9-0.9,17.1,4,23.9,9.4c2.4-1.2,4.9-2.3,7.4-3.4
	C751.6,798.2,756.2,784.7,765.8,774.8"/>
<path class="st0" d="M773.9,783c5-6,12.3-10,20-11.1c5.3-0.7,11.3,0.1,15.3,4c2.9,2.7,3,7.3,1.5,10.8c-2.4,5.5-6.1,10.2-8.6,15.7
	c-4,8.4-6.3,17.9-4.5,27.2c-2.2,1-5.2,1.8-5.8,4.5c-0.9,3.2,2.9,5.9,5.7,4.5c14.6-5.3,29.9-8.7,45.4-9.5c13.9-0.5,28.6,0.3,41.1,6.9
	c8,4.2,14.9,12.2,14.2,21.7c-9.1-6.7-20.1-10.1-31.2-11.6c-20.7-2.8-41.7-0.6-61.9,4.2c-4.2,0.6-4.4,7.2-0.2,7.9
	c4.3,0.3,8.4-1.4,12.6-2c17-3.1,34.6-4.1,51.7-1.3c9.3,1.5,18.6,4.7,25.7,11c7.6,6.5,11.9,17.1,9.9,27.1c-0.7,3.2-2.5,7-6,7.8
	c-4.9,1.1-9.9-0.4-14.7-1.5c-4.8-13.3-16.1-23.6-29.4-28.1c-14.8-5-31-5-46.1-1.5c-3.2,0.4-4.8,4.7-2.4,7c2.4,2.2,5.9,0.7,8.7,0.3
	c14.2-2.4,29.5-1.9,42.7,4.5c9,4.5,16.4,12.6,19.2,22.5c1.8,6.1,2,13.1-1,18.9c-1.6,3.2-5.4,4.9-8.9,4.3c-6.1-0.9-11.1-4.7-16.4-7.7
	c-10.7-6.4-22.4-11.1-34.8-12.8c-4.7-0.5-9.6-1.1-14.2,0c-3.6,1.3-3.3,6.1-0.2,7.7c-11.2,3.1-22.8,5.5-34.4,3.7
	c-12.8-1.8-26.5-6.9-33.8-18.3c-1.6-2.2-2.8-5.9-6.2-5.7c-2.7-0.1-4.7,3-3.6,5.5c1.2,2.9,3.1,5.3,4.8,7.9c-3.9,1.9-7.9,3.9-12.3,3.9
	c-3.1,0.1-4.8-3-6-5.4c-4-9.1-5.9-19.1-5.9-29c-0.4-15.3,0.8-31,6.5-45.4c1.9-4.1,4.4-9.4,9.5-10.1c4.8,0.1,8.6,3.5,12.4,6.1
	c-7.4,7-12.8,16.2-14.4,26.4c-1.6,9.7,0.3,20.1,6,28.1c1.6,2.5,5.7,2.5,7.1-0.2c1.3-2.3-0.4-4.5-1.4-6.5c-5.4-9.5-4.6-21.6,0.4-31
	c8.2-15.7,27.6-24.9,44.8-20.1c2.2,0.4,4.6,1.9,6.8,0.6c2.9-1.4,2.5-6-0.3-7.2c-5.3-2.5-11.2-3-17-3.2
	C763.7,803.3,766.7,791.6,773.9,783 M781.5,838.5c-2.7,1.3-2.4,4.8-1.1,7.1c3.9,8.9,5.7,18.7,5.2,28.3c-0.1,3.8-1.7,7.3-2.1,11
	c0.1,4.1,6.3,5,7.8,1.3c3.5-8.1,3.3-17.4,2.1-26.1c-1.1-6.8-2.9-13.5-6.1-19.6C786.3,838.4,783.6,837.5,781.5,838.5z"/>
<path class="st2" d="M779.7,605.5c26.4-15,52.6-30.3,79.1-45.2c11.1,3.7,22.3,7.2,33.4,10.7c-24,15.1-48,30.2-72.2,45.1
	C806.6,612.7,793.1,609.2,779.7,605.5z"/>
<path class="st3" d="M826.8,624.1c24.9-15.5,49.7-31.1,74.6-46.7c11.4,30.8,22.8,61.7,34.1,92.5c-23.6,15.5-47.1,31-70.7,46.4
	C852.2,685.6,839.4,654.9,826.8,624.1 M868.7,607.9c-1.1,3.5,1.5,6.8,2.7,9.9c-1.3,0.8-2.6,1.5-3.9,2.3c-1.9-2.6-3.2-6.2-6.5-7.2
	c-3.4-1-6.8,2.7-5.9,6c1,2.9,2.9,5.3,4.4,7.8c-3.1,3.5-6.6,6.9-8.2,11.4c-1,3,1.4,6.6,4.7,6.5c3.7-0.1,5.2-3.9,7-6.4
	c4.7,11.3,9.6,22.7,14.3,34c-2.5,0.7-5.6,0.5-7.2,2.8c-1.9,2.5-0.6,6.5,2.4,7.5c3.8,1.3,7.7-0.5,11.3-1.7c0.9,2.2,1.5,4.6,3,6.5
	c2.2,2.7,7.2,2,8.3-1.4c1.1-3.2-0.9-6.3-1.8-9.3c1.5-0.8,3-1.7,4.5-2.5c1.3,1.7,2.4,3.9,4.5,4.8c2.8,1.3,6.4-0.9,6.7-3.9
	c0.3-2.9-1.8-5.2-3.1-7.5c4.3-5,7.5-11.9,5.2-18.6c-1.6-6.2-7.3-10.4-13.4-11.7c1.9-4.2,3-9.2,0.7-13.5c-2.8-6.6-10.4-9.5-17.2-8.9
	c-1.3-2.9-2.3-6.1-4.3-8.5C874.4,603.6,869.8,604.6,868.7,607.9z"/>
<path class="st2" d="M775.5,615c13.7,3.5,27.3,7.2,40.9,10.8c12.6,30.2,25,60.5,37.5,90.7c-12.7-3.1-25.4-6.3-38.1-9.4
	c-1.3-0.1-2.3-1-2.7-2.2C800.6,675,788.1,645,775.5,615z"/>
<path class="st3" d="M870.8,630.4c4.1-3.1,9-5.9,14.4-5.2c2.7,0.2,5.1,3.1,3.8,5.8c-2.2,5.8-7.6,9.5-12.6,12.6
	C874.5,639.2,872.6,634.8,870.8,630.4z"/>
<path class="st3" d="M880.4,653.4c4-2.5,8.1-5.1,12.8-5.9c2.9-0.5,6.5,0.7,7.6,3.6c1.1,2.5,0.2,5.3-1.3,7.5c-3.1,4.5-8,7.4-12.8,9.9
	C884.6,663.4,882.6,658.4,880.4,653.4z"/>
</svg>
