<svg version="1.1" xmlns="http://www.w3.org/2000/svg" xmlns:xlink="http://www.w3.org/1999/xlink" x="0px" y="0px" viewBox="0 0 1000 1000" style="enable-background:new 0 0 1000 1000;" xml:space="preserve">
<style type="text/css">
	.st0{fill:#000000;}
</style>
<path class="st0" d="M516.5,84.8c23.3-1.9,47.2-1.2,69.9,4.6c15.9,4.1,31.6,10.9,43.5,22.6c9.6,9.4,15.7,22.5,15.7,36
	c0.1,13.7-5.6,26.9-13.9,37.7c-11.4,14.8-26.8,26-43,35c-35.5,19.2-75.5,29.2-115.7,31.4c-27,1.1-54.9-1.1-79.9-12.2
	c-16-7.1-30.8-19.3-36.5-36.3c-4.9-13.2-2.7-28.1,3.5-40.5c10.2-20.2,28.7-34.8,48-45.9C441.2,98.5,478.7,88.2,516.5,84.8
	 M531.3,125.2c-29.9,1.2-59.8,7.8-87.2,19.9c-12.4,5.6-24.4,12.3-34.6,21.3c-5.3,4.8-10.5,10.2-13.2,16.9c-1.4,3.5-1,7.9,1.7,10.6
	c6,6.5,14.6,9.7,22.9,12.2c20.9,5.7,42.9,5.7,64.3,3.5c24.8-2.8,49.3-9.1,72.1-19.4c14.1-6.6,28-14.7,38.7-26.2
	c3.9-4.5,8-9.8,8.2-16.1c-1.1-6.8-8-10.6-13.6-13.5C572.1,126.1,551.3,124.8,531.3,125.2z"/>
</svg>
