<svg version="1.1" xmlns="http://www.w3.org/2000/svg" xmlns:xlink="http://www.w3.org/1999/xlink" x="0px" y="0px" viewBox="0 0 1000 1000" style="enable-background:new 0 0 1000 1000;" xml:space="preserve">
<style type="text/css">
	.st0{fill:#000000;}
	.st1{fill:#FFFFFF;}
	.st2{fill:#F78200;}
	.st3{fill:#F32525;}
	.st4{fill:#D15B31;}
</style>
<path class="st0" d="M488,556.9c6.6,2.7,13.9-4.2,12.1-11c-1.9-8.9-4.2-17.8-6.4-26.7c11-2,22.2-3.7,33.2-5.8
	c5-0.9,8.8-6.2,7.6-11.2c-1-5-6.4-8.1-11.2-7.1c-11.3,1.8-22.6,3.9-34,5.7c-2.4-10-4.8-20-7.3-30c-0.7-2.9-1.8-5.9-4.4-7.6
	c-3-2.3-7.5-2.3-10.6-0.1c-3.4,2.3-4.7,6.8-3.7,10.7c2.3,10.1,4.9,20.1,7.3,30.2c-10.8,1.8-21.5,3.7-32.3,5.5
	c-4.2,0.5-8.6,3-9.6,7.4c-1.8,6,4,12.4,10.1,11.5c12.1-1.7,24.1-4.1,36.2-6c1.9,7.9,3.9,15.8,5.7,23.8
	C481.7,550.5,483.5,555.4,488,556.9z"/>
<path class="st0" d="M640.9,605c2.6,0.8,5.2-0.4,7.5-1.5c5.3-2.8,10.6-5.6,16-8.4c3.4,5.5,6.7,11.1,10.2,16.5
	c1.8,3.1,5.8,4.9,9.2,3.5c4.2-1.4,6-7,3.7-10.7c-3.1-5.5-6.6-10.8-9.9-16.2c5.6-2.9,11.1-5.8,16.7-8.7c3-1.4,6.2-3.8,6.3-7.5
	c0.6-5.1-5.3-9.3-10-7.2c-7.1,3.2-13.9,7.2-20.9,10.7c-3.2-5-6.1-10.1-9.4-15c-2.2-3.5-7.6-4.5-10.8-1.8c-3.1,2.3-3.4,7-1.4,10.2
	c2.7,4.6,5.6,9,8.3,13.6c-5.3,2.8-10.6,5.5-15.9,8.3c-2.5,1.2-4.7,3.4-5.1,6.3C635,600.5,637.5,604,640.9,605z"/>
<path class="st0" d="M754.8,765c-3.2-9.8-9.4-19.4-18.9-24c-5.2-2.7-11.4-1.8-16.9-0.4c-12.6-17.3-27.4-33.1-44.1-46.4
	c-11.6-9.1-24.2-17-37.1-24.1c0.2-10.5-5-21.2-14.3-26.6c-11.5-6.9-25.4-6.8-38.3-9.1c-13.2-2.2-25.8-7.5-37.1-14.6
	c-8.1-4.7-15.9-10.2-25-12.9c-11.6-3.2-24.8-1.3-34.4,6.3c-7.9,6.1-12.7,16-12.3,26c0,10.3,5.5,19.7,12.5,26.8
	c8.4,8.2,19,13.7,29.7,18.4c20.6,8.6,42.9,12.3,65.1,13.6c5.1,22.9,7.9,46.4,6.5,69.9c-5.2,2.8-10.4,6.2-13.2,11.6
	c-4,7.3-3.1,15.8-2.7,23.8c0.5,8.3,1.6,17.4,7.5,23.8c5.6,5.9,14.4,6.2,21.9,5.5c18.4-2,35.6-9.7,51.2-19.2c2.7-1.3,5.9-0.4,8.9-0.6
	c15.8,0,31.1-6,43.9-15c13.8,5,30.6,2,41.2-8.4C755.4,783,757.6,773.3,754.8,765z"/>
<path class="st1" d="M489.2,628.9c3.5-6.7,10.7-10.4,17.8-11.8c9.1-1.4,18.5,1,26.2,5.8c7.1,4.2,13.6,9.3,21,13.1
	c10.7,5.5,22.3,9.8,34.4,10.8c9.9,1.2,20.6,0.8,29.5,6.1c5.4,3.2,7.8,9.6,7.4,15.7c-18.9,1.2-37.9-1.3-56.3-5.5
	C540.8,656.4,513.9,644.3,489.2,628.9z"/>
<path class="st1" d="M494.7,657.3c-5.6-6-8.2-14.5-7.1-22.6c26.4,16.2,55.3,29,85.7,35.2c3.3,5.9,5.8,12.2,8.2,18.6
	c-18.2-1.1-36.4-4.6-53.6-10.7C515.7,673.3,503.6,667.1,494.7,657.3z"/>
<path class="st2" d="M589.4,677.8c15.1,2.2,30.5,1.8,45.6-0.6c27.3,18.5,51.6,41.6,70.9,68.5c-4.1,1.9-7.7,4.6-11.6,6.8
	c-2.8,0.2-5.5-0.4-8.3-0.3c-14.8-0.5-29.8,3-42.6,10.6c-12.7-3.5-26.2-2.7-38.7,1.3C606.9,734.6,602.5,704.3,589.4,677.8
	 M629.4,685.5c-5.6,1.2-10.4,6.5-9.8,12.4c1,8.5,10.2,14.5,18.5,12.9c6-0.9,11.2-6.5,10.5-12.8C647.7,689.2,637.7,683.4,629.4,685.5
	 M662.4,714.6c-5.7,1.8-9.7,7.5-9.7,13.4c-0.7,9.6,7.3,19.6,17.3,19.1c7.6-0.4,13.3-7.8,12.9-15.2
	C683.2,721.7,672.9,711.2,662.4,714.6 M623.2,717.1c-14.4,4.2-18.4,26.1-7.1,35.7c4.5,3.9,11.5,4,16.2,0.5c9.6-6.6,12-21.5,5-30.8
	C634.2,718.3,628.5,715.9,623.2,717.1z"/>
<path class="st3" d="M630.4,691.5c5.3-1.5,12.9,2.3,12,8.5c-2.3,7.3-13.9,5.2-16.2-1.2C624.7,695.7,627.3,692.2,630.4,691.5z"/>
<path class="st3" d="M664.4,719.5c6.6-1.5,11.5,5.6,12,11.5c0.8,4.8-2.8,10.7-8.1,9.7c-6.7-1.3-10.3-9.2-8.8-15.5
	C659.9,722.5,661.7,720,664.4,719.5z"/>
<path class="st3" d="M624.5,722.6c3.5-1.4,7.4,0.6,9.2,3.8c3.1,5.6,2.3,12.8-1.1,18.1c-2.1,3.4-6.4,6-10.4,4.5
	c-4.8-1.8-6.5-7.5-6.3-12.1C616,731.2,618.7,724.7,624.5,722.6z"/>
<path class="st4" d="M689.5,768.5c9-9,20.9-15.3,33.6-17c5.2-0.8,10.1,2.1,13.2,6.1c3.7,4.8,6.8,10.4,7.7,16.4
	c0.6,3.8-1.9,7.2-4.9,9.2c-9.2,6.3-22.1,7-31.8,1.4c-1.9-0.8-3.7-2.9-6-2.2c-2.5,1.6-1.4,4.9-1.7,7.3c-1.9,2.9-5.4,4.1-8.4,5.5
	c-9.5,3.8-20,6.1-30.3,5c-3.2-0.2-5.8-2-8.8-2.9c-4.1,2-7.2,5.6-11.4,7.6c-12.4,7.6-26.7,11.5-41.1,12.6c3.8-8,2.8-17.2,0-25.3
	c-1.8-5.2-4.9-10.6-10.4-12.4c8.7-6.7,19.9-8.8,30.6-9.6c9.5-0.3,19.3,0.7,28,4.8c2.9,1.3,5.3,3.6,8.1,5.1c2.4,0.8,3.6-2.6,1.9-4
	c-1.4-2.3-5.2-4.4-3.3-7.4c3.6-4.6,9.9-5.3,15.2-6.4c4.3-0.5,9.3-2.1,13.2,0.6c2.4,1.8,0.2,5.2,1.9,7.4
	C686.8,771.2,688.2,769.7,689.5,768.5z"/>
<path class="st4" d="M585.7,792c-0.2-2,1.1-3.6,2.1-5.2c1.6,1.2,3.2,2.5,3.9,4.5c2.7,6.2,4.3,13.1,4,19.9c0,2.2-1.2,4.2-2.6,5.9
	c-2.1-1.2-4.1-2.8-4.6-5.3C586.8,805.3,585.5,798.6,585.7,792z"/>
</svg>
