<svg version="1.1" xmlns="http://www.w3.org/2000/svg" xmlns:xlink="http://www.w3.org/1999/xlink" x="0px" y="0px" viewBox="0 0 1000 1000" style="enable-background:new 0 0 1000 1000;" xml:space="preserve">
<style type="text/css">
	.st0{fill:#000000;}
	.st1{fill:#FF002C;}
	.st2{fill:#B099AC;}
</style>
<path class="st0" d="M462.8,240.9c5.1-6.5,9.6-14.4,9-23c-0.4-6.6-4.8-12.3-10.5-15.3c-9.2-5-20.1-5.3-30.3-4.6
	c-9.5-17.2-17.8-35.6-20.4-55.2c6-5.8,12.7-12.8,12.6-21.7c-0.2-7-6.5-11.8-12.7-13.4c-12.5-3.5-25.8-1.7-38.4,0.8
	c-19.7,4.4-38.8,12-55.8,23c-8.2,5.5-16.4,11.9-21.4,20.7c-3.1,5.2-3.8,12.6,0.5,17.4c6.5,7,16.8,7.4,25.7,7.7
	c9.3,17.3,15.6,36.4,17.4,56.1c-8.5,5.8-17,12.7-21,22.4c-2.6,5.9-1.8,13.2,2.5,18.2c5.6,6.7,14.4,9.5,22.7,11
	c14.2,2.4,28.8,1,42.9-1.5c11.3,19.4,22.8,38.7,34.2,58.1c-2.7-0.7-5.3-1.8-8.1-2c-2.8,0-4.1,3.9-2,5.6c2.9,1.7,6.3,2.2,9.5,3.1
	c-3.9,1.5-8,2.5-11.6,4.8c-2.9,2.4,0.7,7.1,3.8,5.2c14-5.7,29-9.7,44.2-8.7c3.1,0.4,5-3.9,2.5-5.8c-3.6-1.7-7.9-1-11.8-1
	c2-2.7,7.2-6.5,3.5-9.8c-3.7-2.1-6,2.8-8.1,5c-3.8-23.8-7.5-47.5-11.3-71.2C442.7,259.7,454.1,251.6,462.8,240.9z"/>
<path class="st1" d="M375.3,121.1c8.3-1.9,16.8-3.3,25.4-2.6c2.7,0.3,5.6,0.7,7.7,2.6c0.7,2.6-1,4.9-2.5,6.7
	c-3.9,4.5-8.8,8-13.8,11.2c-10.2,6.3-21.1,11.3-32.4,15.3c-11.2,3.9-22.7,7-34.6,8.1c-5.9,0.3-12.2,0.8-17.5-2.4
	c-0.3-3.9,2.6-6.9,5.2-9.4c6-5.6,13.1-9.9,20.3-13.8C346.3,129.9,360.6,124.6,375.3,121.1z"/>
<path class="st1" d="M392.4,150.5c1.6-0.8,4.4-1.5,5.4,0.6c1.2,2.3,1.7,4.9,2.5,7.4c4.7,16,10.7,31.7,19.1,46.2
	c2.4,3.6,3.2,8.3,1.5,12.4c-2.8,7-9,11.9-15,16c-11.5,7.4-25.2,12-39,11.1c-4.9-0.4-10.8-1.8-13-6.8c-2.2-5.6-2.4-11.7-3.8-17.5
	c-2.7-15.3-8.1-30-14.8-44c-1.8-2.5,0.6-4.9,3.1-5.3C357.4,166.7,375.6,159.9,392.4,150.5z"/>
<path class="st1" d="M435.3,212.4c5.6-0.8,11.3,0,16.7,1.5c3.6,1.1,8.1,3.7,7.5,8.2c-0.8,5.6-5,9.9-8.8,13.7
	c-9.7,8.9-21.4,15.3-33.3,20.8c-16,7.1-33,12.3-50.5,14.6c-8.7,1-17.7,1.5-26.3-0.9c-3.2-1-7-2.6-8-6.1c-0.8-4.7,2.3-8.9,5.1-12.2
	c2.5-2.7,5.2-6.1,9.2-6.4c2.8,0.1,5.3,1.7,7.9,2.7c11.6,4.7,24.7,3,36.3-0.8c13.8-4.7,26.9-12.8,35.4-24.8
	C429.3,219.1,430.8,214,435.3,212.4z"/>
<path class="st2" d="M399.4,275.1c5.4-1.7,10.7-3.7,15.9-5.8c4.2,19,8.2,38.1,12.4,57.1C418.4,309.3,408.8,292.2,399.4,275.1z"/>
</svg>
