<svg version="1.1" xmlns="http://www.w3.org/2000/svg" xmlns:xlink="http://www.w3.org/1999/xlink" x="0px" y="0px" viewBox="0 0 1000 1000" style="enable-background:new 0 0 1000 1000;" xml:space="preserve">
<style type="text/css">
	.st0{fill:#B36CFF;}
	.st1{fill:#6089FF;}
	.st2{fill:#000000;}
</style>
<path class="st2" d="M476.5,45.4c1.2-3.2,5.2-4.7,8.3-3.6c5.3,1.6,9.8,5,14.1,8.4c11.4,9.3,21.3,20.7,28,33.9c7.4,14.4,12.4,30.2,13.4,46.4
	c4.1-5.4,7.8-11.6,8.6-18.5c0.5-3.6,0.3-7.5,2.5-10.7c1.6-2.4,4.9-3.5,7.5-2.3c4,1.5,6.3,5.3,8.5,8.7c7.1,12.1,12.5,25.2,16.1,38.7
	c4.3,19.3,5.2,39.7-0.3,58.8c-5.1,17.8-15.9,34.2-31.3,44.7c-13.6,9.3-29.4,15.5-45.8,17.2c-19.7,2.2-40.4-0.4-57.9-10.1
	c-15-8.1-28-21.4-32.9-38c-3.7-14.8-1.7-30.5,3-44.8c5.8-18.3,14.6-36.4,13.6-56.1c-0.1-5.3-2-10.6-1.4-15.9
	c1.7-5.5,8.6-6.4,13.3-4.5c10.2,3.8,19.2,10.4,26.7,18.2c6.7-10.5,11.6-22.4,12.6-34.9c0.6-9.5-1.1-19.1-5.1-27.7
	C476.6,50.8,475.3,48,476.5,45.4"/>
<path class="st0" d="M496.1,65.3c6.7,6.6,13,13.8,17.7,22c9.2,15.9,13.3,34.4,13.6,52.7c0.1,2.4-0.2,5.1,1.4,7.2
	c1.9,2.9,6.1,3.6,9,1.7c10.1-6.5,17.6-16.5,22.7-27.3c8.5,16.4,12.4,35,12.8,53.5c0.3,17.4-3.8,35.6-14.7,49.5
	c-9.5,12.9-24.2,21-39.1,25.9c-21.5,6.8-45.5,3.6-65.4-6.5c-10.1-5.3-19.6-13.2-23.9-24.1c-5.5-12.5-3.9-26.8,0-39.5
	c5-15.5,11.5-30.6,14-46.9c1-6.3,1-12.6,0.9-18.9c7.6,2.4,13.2,8.4,17.9,14.5c2.2,3.1,6.3,5.9,10.3,4.1c5.1-2.4,7.3-8.2,10.1-12.8
	C493,103.9,498.5,84.5,496.1,65.3"/>
<path class="st2" d="M485.7,141.8c1.5-2.4,4.7-1.3,6.7-0.2c14.1,8.1,24,23.1,25.6,39.3c3.1-3.3,4.5-7.6,5.2-11.9c0.9-3.3,5.2-2.3,6.7,0
	c8.8,11.8,13.3,27.2,10.5,41.8c-2.3,11.3-10.1,21.1-20.4,26.2c-12.8,6.2-27.9,8.4-41.7,4.5c-7.2-2.1-14.4-5.8-19.1-11.8
	c-4.3-5.2-6.5-12-5.6-18.7c1.7-11.7,8.9-22,9.1-34c0.3-3.4-2.2-7.2,0.1-10.2c2-1.5,4.6-0.8,6.8-0.3c5.1,1.3,9.6,4.2,13.3,8
	c4.6-7.3,8-16.6,4.8-25.2C487,146.9,484.3,144.5,485.7,141.8"/>
<path class="st1" d="M495.2,151.3c10.1,8.5,16.7,21.3,16.3,34.7c-0.5,2.4,1.8,4.6,4.2,3.8c5.6-2.1,9.8-7,12.1-12.4
	c5.1,9.2,8.2,20,6.1,30.4c-1.8,10.2-8.4,19.8-18,24.1c-14.1,6.3-31.5,7.4-45.2-0.6c-6.8-4-12.1-11.8-10.6-19.9
	c2.4-12.9,11.4-24.5,9.5-38.1c3.5,1.6,6.9,3.7,9.2,6.9c1.4,2.5,5.3,3.5,7.1,0.9C492.7,172.8,496.7,162,495.2,151.3z"/>
</svg>
