<svg version="1.1" xmlns="http://www.w3.org/2000/svg" xmlns:xlink="http://www.w3.org/1999/xlink" x="0px" y="0px" viewBox="0 0 1000 1000" style="enable-background:new 0 0 1000 1000;" xml:space="preserve">
<style type="text/css">
	.st0{fill:#000000;}
	.st1{fill:#FFD400;}
	.st2{fill:#FF3CAE;}
</style>
<path class="st0" d="M519.4,284.7c-4-6.3-10-11-15.9-15.4c-2.8-5.8-7-10.8-11.5-15.4c-8.4-8.3-16-17.4-23.8-26.1
	c-26.1-29.9-53-59.2-78.4-89.7c-7-7.6-13.1-16.1-20.9-22.9c-2.5-2.4-6.8-3.6-9.6-0.9c-2.9,3.5-2.3,8.5-2.3,12.7
	c1.1,27.7,4,55.3,6.2,83c2.8,35,6.1,70,7.6,105c0.1,3.4,0.6,7,3.1,9.5c-4.4,7.8-7.7,16.5-8.8,25.5c-1,8.3,1.6,17.3,7.8,23.1
	c7,6.6,18,8.3,26.7,4.5c5.4-2.1,9.6-6.4,12.7-11.2c1.1-1.4,2.2-3.6,4.3-3.3c2.7,2.1,1.9,5.9,1.7,8.8c-1.1,9,2,18.8,8.9,24.8
	c6,5.2,14.4,6.8,22.2,5.6c10.4-1.2,19.9-7.7,25.1-16.8c4.4-7.4,4-16.4,3.1-24.6c-0.5-6.2-1-13.6,3.9-18.2c6.7-6.5,16.5-7,24.7-10.4
	c9.1-3.2,15.6-11.6,18-20.7C526.7,302.4,524.5,292.5,519.4,284.7z"/>
<path class="st1" d="M374.7,144.2c19.2,22.5,38.5,44.9,57.8,67.4c-5.7,6.6-11.5,13.1-17.1,19.8c-2.4,2.7-2.2,7.4,1,9.4
	c2.8,2.1,6.9,1.1,9-1.5c5.2-5.9,10.4-11.9,15.6-17.9c9.1,10.6,18.2,21.2,27.3,31.9c-4.3,5-8.6,10.1-12.9,15.1
	c-1.6,1.9-3.2,4.1-2.9,6.6c0.2,3.2,3.3,5.9,6.6,5.6c2.5,0,4.4-1.9,5.9-3.7c3.9-4.6,7.8-9.2,11.7-13.8c2.7,3.1,5.5,6.3,8.1,9.5
	c-15,17.5-36.5,28.4-58.6,34c-9.8,2.4-19.9,3.7-30,3.6c11.7-12.7,23.5-25.2,35.1-38c3.4-3.4,1.5-9.9-3.4-10.6
	c-4.3-0.8-7,3.1-9.6,5.8c-10.4,11.3-20.9,22.5-31.3,33.7c-1.8-23.2-3.6-46.3-5.5-69.5c7.2-8.5,14.6-16.9,21.7-25.4
	c2.3-2.6,2.4-6.8-0.2-9.2c-2.6-2.4-7-1.9-9.2,0.8c-4.7,5.2-9.1,10.6-13.7,15.9C378.4,190.5,376.5,167.4,374.7,144.2z"/>
<path class="st2" d="M448.9,316.6c18.8-7.1,36.3-18.2,49.5-33.4c4.5,3.1,8.5,7.2,10,12.6c2.5,7.5,0.1,16.4-6.3,21.3
	c-9.6,8.1-23.6,6-33.4,13.5c-4.5,3.3-6,9.1-6.8,14.3c-1.6,10.6,4.6,21,1.7,31.5c-2.4,8.7-12.2,13.6-20.8,12.3
	c-5.5-0.6-11.4-4-12.6-9.8c-2.8-10.7,5.6-21.2,1.5-31.7c-2.2-6.4-10-10.1-16.4-7.8c-5.8,1.8-9.6,7.4-11,13
	c-1.2,4.5-2.2,9.9-6.9,11.9c-6.1,3.3-14.1-0.7-15.4-7.4c-2.4-10.6,2.1-21.3,6.9-30.5C409.2,326.7,429.8,323.9,448.9,316.6z"/>
</svg>
