<svg version="1.1" xmlns="http://www.w3.org/2000/svg" xmlns:xlink="http://www.w3.org/1999/xlink" x="0px" y="0px" viewBox="0 0 1000 1000" style="enable-background:new 0 0 1000 1000;" xml:space="preserve">
<style type="text/css">
	.st0{fill:#EDEDED;}
	.st1{fill:#FFD400;}
	.st2{fill:#FFFFFF;}
	.st3{fill:#000000;}
</style>
<path class="st0" d="M493.9,386.2c28-3.6,56.8,0.6,83.1,10.8c18.6,7.1,36.3,17.4,50.4,31.6c21.5,21.6,36,49.7,42.6,79.4
	c6.3,26.5,7,54.2,3.7,81.2c-2.4,18.1-7.1,36.1-15.1,52.6c-9,20.4-22.7,38.7-39.7,53.1c-3.8,2.9-7.5,6.2-11.9,8.2
	c-3.7,1.6-8.2-2.1-7.2-6c1-3.8,5.1-5,7.8-7.3c6.8-5.3,13.8-10.9,18.2-18.5c-1.8-0.4-3.5,0.2-5.2,0.7c-21.7,6.4-44.3,9.1-66.7,11
	c-24.9,1.9-49.9,1.4-74.7-0.7c-19.7-2.1-39.2-5.7-58.6-10c-10.4-2.5-20.8-5.1-30.8-8.9c-1.7-0.7-3.5-1.1-5.3-1.2
	c-0.1,3.3,2.1,5.9,3.8,8.5c8.2,11.7,19.6,20.6,31.1,28.9c3.5,2,3.5,8.1-0.5,9.5c-3.4,1.6-6.6-1.1-9.3-2.7
	c-22.8-15-40.5-36.9-52.7-61.1c-8.8-17.6-13.7-36.8-16-56.3c-2.7-21.6-1.8-43.7,2.1-65.1c5.9-32.3,21.3-63.1,44.9-86
	C416.4,409.8,454.1,390.9,493.9,386.2 M495.4,397.8c-33.8,4-66,18.8-91.5,41.1c-6.5,6-13.9,12.7-14.6,22.1
	c-0.2,5.8,4.5,10.4,9.8,11.7c52.9,13,107.6,16.8,161.9,16.8c21-0.4,42-1.7,63-3.7c5.1-0.8,10.6-0.8,15.2-3.5c3.5-2,4.5-6.5,3.5-10.1
	c-1.3-4.8-4-9.1-6.5-13.3c-9.2-15.6-22.3-28.7-37.6-38.3c-13.1-8.2-27.5-14-42.3-18.1C536.5,396.9,515.7,395.3,495.4,397.8"/>
<path class="st1" d="M374.4,483.6c4.9-1.4,10,0,14.8,0.9c20.4,4.5,40.9,8.5,61.6,11.2c22.6,3.7,45.4,5.1,68.2,6.4
	c15.6,0.9,31.3,0.9,47,0.4c20.7-0.1,41.4-1.4,62-4.2c6.4-0.6,12.7-2.1,19.1-2.5c3.8-0.4,7,2.4,8.5,5.8c2.8,6.2,3.7,13,4.9,19.7
	c1.6,11.9,3.5,23.8,3.5,35.8c0.1,18.9-1,38-6.5,56.2c-3.3,10.9-7,22-13.9,31.2c-6.1,7.3-15.7,10.1-24.4,12.9
	c-22.6,6.2-45.8,10.4-69.1,11.9c-25.1,1.1-50.3,1.2-75.2-1.7c-29.6-3.8-59.5-9.1-86.8-21.6c-10-4.5-20.1-10.5-25.6-20.3
	c-5.9-10.5-8-22.7-9.7-34.5c-3-25.8-1.8-52.3,5-77.4c2.2-7.3,4.3-14.7,7.8-21.4C367.5,488.7,370.2,484.9,374.4,483.6"/>
<path class="st3" d="M595.5,539.7c10.6-1.9,21.9,1.7,29.6,9.1c15.5,14.6,17.5,40.2,6.7,58.2c-5.3,8.9-13.9,16.1-24,18.7
	c-9.1,2.4-19.2,0.8-27.1-4.4c-10.3-6.6-16.7-18.2-18.3-30.1c-2.1-14.8,2.8-30.7,13.6-41.2C581.3,544.8,588.2,541.2,595.5,539.7"/>
<path class="st3" d="M442.4,548.6c13.3-2.8,27.6-0.3,39.3,6.7c13.1,7.8,22.8,20.6,27.9,34.9c1,3.1,2.8,6.5,1.1,9.6c-1.6,3.4-6.3,4.8-9.4,2.7
	c-2.7-1.7-3.1-5-4.1-7.8c-5.4-15.4-17.8-29-34-33c-14-3.6-29.2,1.2-39.8,10.7c-4.9,4.2-8.7,9.5-12.2,14.9c-2.5,3.9-9.1,3.6-11-0.7
	c-2-3.5,0.4-7.3,2.4-10.1C411.8,562.7,426,551.9,442.4,548.6z"/>
<path class="st2" d="M594.4,553.6c7.8-2.7,16.8-0.3,22.5,5.6c9.8,9.8,11.1,25.8,5.3,38c-3.5,7.5-10,14-18.2,15.9
	c-7,1.7-14.5-0.6-19.6-5.5C568.5,592.6,573.5,561.4,594.4,553.6z"/>
</svg>
