<svg version="1.1" xmlns="http://www.w3.org/2000/svg" xmlns:xlink="http://www.w3.org/1999/xlink" x="0px" y="0px" viewBox="0 0 1000 1000" style="enable-background:new 0 0 1000 1000;" xml:space="preserve">
<style type="text/css">
	.st0{fill:#000000;}
</style>
<path class="st0" d="M371.3,470.2c4.2-1,8.6-0.6,12.8,0c19.6,3.6,39,8.2,58.7,11.3c20.9,3.4,42,5.2,63.2,6.6c25.7,1.3,51.4,2.2,77,0.7
	c13.3-0.8,26.7-1.5,40-2.9c8.4-0.9,16.6-2.4,25-3.3c4.7-0.4,10.1,0.3,13.2,4.1c3.1,3.9,4.7,8.8,6.3,13.5c6.8,21.3,8.6,44,8,66.3
	c-1.1,28-6.5,56.4-20,81.2c-3.4,6.2-7.4,12.5-13.7,16.2c-7.2,4.4-15.5,6.5-23.6,8.8c-18.1,5.1-36.8,7.6-55.4,9.6
	c-20.9,2.1-42,2.4-63,1.4c-23.9-0.5-47.5-4.8-70.9-9.5c-18.5-4-37.1-8.6-54-17.2c-5.9-3.1-12-6.5-16.3-11.7
	c-4.8-5.6-7.4-12.5-9.6-19.4c-5.4-16.4-7.5-33.8-8.2-51c-1-28.9,1.6-58.5,12.5-85.6C356.8,481.3,361.9,472.1,371.3,470.2 M432.2,494
	c-3.3,2.2,0.9,5.5,3,6.8c28.2,16.9,56.7,33.5,85.1,50c3.2,2.2,7.7,2.8,11.1,0.6c23-14.1,45.3-29.2,67.2-44.9
	c1.2-0.9,2.5-1.8,2.9-3.3c-0.9-2.2-3.6-1.8-5.5-1.8c-15.3,1-30.7,1-46.1,1.4c-23.4,0.2-46.7-1.5-70-3.4c-14.5-1.2-28.8-3.7-43.2-5.7
	C435.3,493.5,433.6,493.4,432.2,494 M359.5,514.6c-1.9,1.4-2.3,4-2.9,6.2c-5.3,24.4-4,49.5-1.5,74.2c1.9,13,3.5,27.3,12.5,37.6
	c2.7,3.4,7.4,4.6,11.2,2.2c31.8-15.4,63.4-31.5,94.2-48.9c2.8-1.3,2.5-5.3-0.3-6.3c-35.1-20.5-70.1-41.1-104.6-62.4
	C365.4,515.7,362.5,513.3,359.5,514.6 M656.5,524.5c-24.2,17.9-48.6,35.8-73.9,52.1c-1.7,1.1-3.7,2.3-4.1,4.5c0,2.9,3,4.1,5.1,5.4
	c21.7,11.8,43.3,23.8,65.5,34.5c2.1,1.3,5.5,1.2,6.3-1.5c7.2-19.9,8.7-41.4,8.5-62.4c-0.2-10.1-1.1-20.2-3-30
	C660.7,524.8,658.5,523.1,656.5,524.5 M522.7,613.6c-26.6,15.5-53.6,30.3-81,44.2c-1.5,0.6-2.6,1.8-3.4,3.2c1.6,0.7,3.2,1.4,4.9,1.7
	c19.8,3.7,39.9,6.4,60,7c25.3,0.5,50.7,0.5,75.8-3.7c10.6-1.8,21.2-3.6,31.6-6.5c2.6-0.2,1.2-3.2-0.6-3.6
	c-26.2-13.6-52-27.8-77.8-42.2C529.3,612,525.6,611.7,522.7,613.6z"/>
</svg>
