<svg version="1.1" xmlns="http://www.w3.org/2000/svg" xmlns:xlink="http://www.w3.org/1999/xlink" x="0px" y="0px" viewBox="0 0 1000 1000" style="enable-background:new 0 0 1000 1000;" xml:space="preserve">
<style type="text/css">
	.st0{fill:#EDEDED;}
	.st1{fill:#FFD400;}
	.st2{fill:#000000;}
</style>
<path class="st0" d="M440.4,401.5c35.5-16.6,76.7-21.1,114.7-11.4c27.3,6.9,53.9,19.5,73.8,39.9c14,14.5,24.8,31.9,32.6,50.4
	c14.9,37.8,17.5,79.8,10.5,119.7c-3.7,20.5-11.3,40.1-21.8,58c-10.5,17.2-24.2,32.9-41.2,44c-3.1,2.6-8.5,1.2-9.2-3
	c-0.7-4.7,4.3-6.7,7.3-9c7-5.4,14.3-11.1,18.8-18.8c-2.3-0.5-4.5,0.6-6.7,1.1c-18.4,5.3-37.4,7.8-56.4,9.8
	c-27.2,2.7-54.6,2.4-81.9,0.2c-20.5-2-40.8-5.9-61-10.3c-10.2-2.4-20.4-5-30.2-8.7c-1.7-0.7-3.4-1.1-5.2-1.2
	c-0.2,3.3,2.1,5.9,3.8,8.5c8.1,11.5,19.1,20.3,30.4,28.4c1.9,1.1,2.9,3,3.6,4.9c-0.6,2-1.3,4.4-3.5,5.1c-2.5,1.2-5.2-0.3-7.3-1.6
	c-13.3-8.2-24.9-19.2-34.7-31.3c-11.9-14.8-21.5-31.5-27.6-49.6c-6.1-17.9-8.9-36.8-9.8-55.7c-0.4-21.2,1.6-42.5,7.3-63
	c5-17.4,12.7-34.2,23.2-49C387.8,434,412.7,414.4,440.4,401.5 M506.5,396.8c-23.2,1.3-46.1,7.2-66.8,17.9
	c-16.2,8.3-31.5,18.7-43.8,32.1c-4.8,5.4-9.1,13.9-4.6,20.7c4.5,5.9,12.5,6,19.1,7.8c45.8,10.2,92.8,13.6,139.6,14.1
	c21.7,0.2,43.4-1.2,65-2.9c6.4-0.6,12.9-1.1,19.2-2.4c3.2-0.8,6.8-2.3,8.1-5.6c1.4-3.5,0.3-7.4-1.3-10.7
	c-6.9-14.2-16.6-27-28.7-37.1c-14.6-12.5-32.2-20.9-50.5-26.6C544.1,398.5,525.2,395.9,506.5,396.8"/>
<path class="st1" d="M374.3,483.6c4.1-1.3,8.5-0.3,12.6,0.4c10.7,2.1,21.2,4.6,31.9,6.6c17.9,3.3,36,5.9,54,8.1
	c24.6,2.3,49.3,4.1,74.1,4.1c24.4-0.5,48.8-0.5,73-3.7c9.1-0.9,18-2.6,27.1-3.5c5.7-0.5,8.8,5.3,10.1,10c3.5,12.8,4.6,26.2,6.2,39.3
	c2.1,30.3-0.7,61.8-13.8,89.6c-2.5,4.6-4.9,9.4-8.9,12.9c-5.5,4.5-12.4,6.9-19.1,9.1c-14.6,4.4-29.6,7.3-44.7,9.7
	c-27.4,4.2-55.2,4-82.8,2.9c-20.3-1.2-40.5-4.3-60.4-8.6c-17.4-3.7-34.4-9.1-50.3-17c-7.6-3.9-15.1-8.9-19.8-16.2
	c-4.9-7.5-7.2-16.4-9-25.1c-3.5-18-4.1-36.6-2.6-54.9c1.4-17.5,5.1-34.8,11.7-51C365.8,491.4,368.6,485.5,374.3,483.6"/>
<path class="st2" d="M453.2,513.2c7.1-1.7,14.9,1.7,18.8,7.8c2.5,4,4.2,8.5,5.9,12.9c6.9,18,10.1,37.9,6.4,57c-3.1,16.6-11.7,31.9-23.8,43.6
	c-3.8,3.9-8.9,7.1-14.5,7.2c-6.2,0.4-12.4-2.9-15.7-8.1c-3.4-5.3-3.7-12.4-0.7-17.9c2.4-4.7,6.9-7.7,10.1-11.8
	c6-7.3,9.4-16.4,10-25.8c0.8-12.8-2.7-25.4-7.8-37.1c-1.8-3.8-3.1-7.9-2.6-12.1C439.9,521.4,445.8,514.7,453.2,513.2z"/>
<path class="st2" d="M603.4,531.5c7.5-2.7,16.2,1.7,19.4,8.8c14.8,29.8,9.6,67.6-11.2,93.3c-4.6,5.4-12.9,7.3-19.2,3.9c-6.3-3-9.8-10.7-8.1-17.4
	c1-4.9,4.7-8.5,7.1-12.8c8.9-15.1,11-34.4,4-50.7c-1.8-4-3.5-8.3-2.6-12.7C593.6,538.2,597.8,533.2,603.4,531.5z"/>
</svg>
