<svg version="1.1" xmlns="http://www.w3.org/2000/svg" xmlns:xlink="http://www.w3.org/1999/xlink" x="0px" y="0px" viewBox="0 0 1000 1000" style="enable-background:new 0 0 1000 1000;" xml:space="preserve">
<style type="text/css">
	.st0{fill:#000000;}
	.st1{fill:%%ST1%%;}
	.st2{fill:%%ST2%%;}
</style>
<path class="st0" d="M750.5,439.4c-7.9-31.3-23.1-60.5-42.8-86.1c-20-26.1-43.5-50.2-71.9-67.2c-31.5-19.1-67.6-31.7-104.7-32.7
	c-35.4-0.9-70.1,10.6-100.6,28c-7.2,4-13.9,8.7-20.8,13.2c-4,2.3-8.5,4.9-13.3,3.9c-4.4-1.2-6.2-6.4-5.7-10.5
	c1.1-8.9,6.9-16.2,12.7-22.7c8.1-9.1,17.3-17.3,25-26.8c6.3-7.6,11.3-16.3,14.5-25.7c4.4-13.1,3.1-28-3.3-40.2
	c-5.7-10.8-13-20.8-21.4-29.6c-2.4-2.4-5.2-5.2-8.9-4.8c-2.3,0.3-3.9,2.3-4.6,4.4c-1.3,3.6-1.5,7.5-2.2,11.2
	c-1.7,11.4-7,22.2-14.8,30.7c-9.2,10.2-20.2,18.5-30.6,27.5c-14.2,12.1-27.6,25.5-37.1,41.7c-20-14.5-43.1-25.9-68-28.1
	c-4.2-0.2-8.7-0.8-12.7,0.8c-3.5,1.4-5,6.1-2.7,9.1c2.6,3.1,6.2,5,8.8,8.1c9.1,9.4,12.5,22.7,14,35.4c2.3,20.7,0.4,42.4,8.5,62.1
	c7.4,18.3,23,32.4,41.2,39.7c6.5,2.6,13.4,4.7,18.6,9.5c5,4.6,4.4,12.3,2.7,18.3c-7.6,23.2-13.3,47.2-16.5,71.4
	c-2.5,20.2-3.3,40.8-0.5,61c2.7,20.1,10,39.5,21.2,56.4c9.5,14.5,20.8,27.8,33.6,39.4c22.8,20.4,49.3,36.3,77.2,48.9
	c35.9,16.2,74.2,26.4,113,32.5c24.6,3.5,49.7,6.1,74.4,2.2c16.1-2.8,32.3-7.3,46.1-16.3c15.1-9.7,28-23.6,34.6-40.4
	c6.5-16.2,6.8-33.8,9.7-50.7c5.3-36.1,26.1-67.8,31.4-103.9C758.2,485.9,756.3,462,750.5,439.4z"/>
<path class="st1" d="M417,159.1c8.3,10.7,11.9,24.5,11.7,37.9c0,9.2-2.6,18.4-7.3,26.4c-5.8,9.9-14.3,17.7-22.2,25.9
	c-11.1,11.4-21.5,24.5-25.8,40.1c-3.2,11.9-4.4,25.6,2.2,36.6c-2.6,2.9-4.7,6.3-7.6,8.9c-12.6-3-25.2-8.3-34.3-17.7
	c-9.2-9.4-12.4-23.5-9.8-36.2c2.8-14.2,11.3-26.6,20.9-37.1c12.1-13.4,27.3-23.3,40.7-35.2c12.4-10.7,23.1-23.7,28.9-39.1
	C415.9,166.3,416.5,162.7,417,159.1z"/>
<path class="st1" d="M264.1,241.9c14.5,5,29,10.4,41.5,19.4c4.4,3.2,8.6,7.9,8.8,13.7c0.3,8.9-1.1,18,1,26.8
	c3.4,15.1,14.9,27.7,28.9,33.9c5.7,2.9,12.7,3.9,17.1,9c-4.5,6.5-8.1,13.5-12.4,20.1c-10,5.1-21.9,4.8-32.5,1.8
	c-14.5-4-26-15.3-33.1-28.2c-7.8-14.1-9.9-30.6-8.5-46.4C276.6,274.8,274.6,256.2,264.1,241.9z"/>
<path class="st1" d="M369.5,388.7c7.3-1.2,14.7,0.1,22,0.7c19.8,2.2,39.7,4.7,58.8,10.5c13.9,4.2,27.3,10.2,39.1,18.7
	c15.9,11.2,29.3,25.6,41.7,40.5c18.3,22.4,34.8,47.2,58.3,64.7c16.1,12.2,36.5,18.1,56.6,18.1c22.7,0.4,45.2-4,67.3-8.5
	c4.8-0.8,10-2,14.7-0.3c3.1,1.3,3.1,5.1,2.1,7.8c-4.2,13.9-10,27.3-14.3,41.1c-3.9,12.1-6.4,24.6-8.3,37.1c-0.9,6.6-2,13.4-5,19.5
	c-2.9,5-9.5,5.5-14.6,5.2c-12.6-0.9-25-4.1-36.6-9.2c-16.1-7.1-29.8-18.3-44.8-27.1c-15.9-9.8-33.9-16.2-52.5-18.5
	c-22.9-3.2-46-0.4-68.9-2.7c-21-2.2-41.4-10.2-58.3-23c-21.7-16.4-38.6-38.1-53.3-60.8c-8.8-13.9-17.1-28.1-24-42.9
	c-2.9-6.4-5.5-13-6.8-20c-1.5-9.5,0.8-19,4.1-27.9c2.1-5.6,3.5-11.7,7.8-16.1C358.4,391.5,364,389.5,369.5,388.7z"/>
<path class="st2" d="M509.2,271.2c19-1.7,38.4-0.7,57.1,3.6c33.3,9.1,63.6,27,89.9,49.1C680,343.6,700,367.9,715,395
	c15.9,27.9,23.8,59.9,24.5,91.9c-0.2,7.8-0.7,15.6-2,23.2c-1,6-7.3,9-12.5,10.7c-13.4,3.8-27.1,6.1-40.8,8.6
	c-19.2,2.9-39.1,5-58.4,0.9c-14.1-2.9-27-10-37.8-19.5c-24.6-21.3-41.2-49.9-63.6-73.4c-10.9-11.6-22.7-22.4-36.2-30.8
	c-14.7-9.1-31.1-15.2-47.9-19.1c-21.7-5.1-44-7.1-66.1-9.3c-3.5-0.6-9.4-1.6-8.7-6.5c1.1-5.3,4.7-9.6,7.4-14.2
	c17.3-27.4,41.4-50.6,70.2-65.7C463.6,281.4,486,273.5,509.2,271.2"/>
<path class="st2" d="M334.4,466.5c1.9-0.8,3.6,1,4.8,2.3c3.2,3.9,5.3,8.6,8,12.9c14.4,25.1,30.4,49.6,50,71
	c10.1,11.1,21.6,21,34.8,28.2c19.5,10.9,41.9,15.5,64,16.8c21.2,1.5,42.7-0.2,63.8,3.7c16.9,3.2,32.7,10.6,47.3,19.7
	c14.3,8.6,27.6,19,42.8,26c10.7,4.9,22.4,7.3,34.2,7.6c4,0.2,8.7,0.5,11.3,4c2.2,3.2,0.6,7.4-1.2,10.5
	c-6.9,11.2-17.8,19.5-29.2,25.8c-17.6,9.7-37.9,13.5-57.9,13.5c-23-0.1-45.7-3.9-68-8.8c-30.7-6.8-61.2-15.4-89.6-29.2
	c-27.1-12.6-51.6-30.3-73.1-50.9c-14.3-14-27.4-29.6-36.4-47.6c-7.2-14.3-10.6-30.2-11.7-46c-0.9-17.5,1-35,3.2-52.3
	C331.9,471.2,331.9,468,334.4,466.5z"/>
<path class="st0" d="M493.3,373.2c1.4-0.9,3.1-0.9,4.6-0.6c16.2,2.9,31.4,10.7,43.2,22.1c18,17.3,28.1,41.2,33,65.3
	c1,2.9-1,6.6-4.2,6.5c-3,0.1-4.5-3-4.9-5.5c-4.1-19.3-11.5-38.4-24.5-53.6c-10.3-12.3-24.5-21.4-40.2-24.9c-2.4-0.6-4.9-0.8-7.1-1.9
	C490.6,379.2,490.5,374.7,493.3,373.2z"/>
<path class="st0" d="M677.5,485.5c7.3-0.5,14.8-0.2,21.7,2.4c2.1,0.7,4.1,2.6,3.7,5.1c0,2.8-3.2,4.6-5.7,3.7
	c-12.5-3.8-25.9-1.9-38.3,1.3c-6.3,1.5-12.4,4.1-18.4,6.6c-2.6,1.2-6-0.7-6.2-3.6c-0.4-2.7,2-4.5,4.2-5.4
	C650.8,490,664,486.5,677.5,485.5z"/>
</svg>
