<svg version="1.1" xmlns="http://www.w3.org/2000/svg" xmlns:xlink="http://www.w3.org/1999/xlink" x="0px" y="0px" viewBox="0 0 1000 1000" style="enable-background:new 0 0 1000 1000;" xml:space="preserve">
<style type="text/css">
	.st0{fill:#EDEDED;}
</style>
<path class="st0" d="M435.7,403.8c33.3-16.9,72.2-22.8,108.9-16c29.8,5.9,59.1,18.2,81.3,39.3c12.2,11.9,22.2,25.9,29.9,41.2
	c7.9,14.9,12.6,31.3,16,47.8c4.7,24.4,5,49.5,1.8,74c-2.5,17.8-7.1,35.4-14.9,51.6c-9.6,21.7-24.4,41.2-43.1,55.9
	c-2.8,2-5.4,4.2-8.6,5.6c-3.3,1.4-7.4-1.4-7.2-5c0-2.2,1.5-4,3.2-5.1c7.5-5,14.5-10.8,20.4-17.7c1.1-1.2,1.8-2.8,2.5-4.3
	c-1.8,0-3.5,0.4-5.2,0.9c-21.7,6.3-44.2,9.1-66.6,11c-24.9,1.9-49.9,1.4-74.7-0.7c-20-2.1-39.8-5.8-59.4-10.2
	c-10.2-2.4-20.4-5-30.2-8.8c-1.6-0.7-3.4-1.1-5.2-1.2c-0.3,2.3,1,4.2,2.1,6.1c7.2,11,17.1,19.8,27.6,27.5c2.9,2.5,7.1,4.2,8,8.3
	c-0.5,2-1.3,4.4-3.5,5.1c-2.5,1.2-5.2-0.2-7.3-1.6c-13.3-8.2-24.9-19.2-34.7-31.3c-10.5-13.1-19.3-27.7-25.4-43.4
	c-7.4-19-10.8-39.4-11.9-59.7c-1.3-35.1,4.9-71.3,22.7-102C379,441.8,405.6,418.8,435.7,403.8 M506.5,396.8
	c-23.2,1.3-46.1,7.3-66.7,18c-16.2,8.3-31.5,18.7-43.8,32.1c-4.6,5.3-8.9,13.3-4.9,20.2c4,6.2,12.1,6.5,18.6,8.1
	c46,10.3,93.3,13.8,140.4,14.3c24.4,0.2,48.8-1.4,73.1-3.6c5.8-1,12.4-0.7,17.3-4.5c3.9-3.5,2.8-9.4,0.7-13.5
	c-6.9-14.2-16.7-27-28.8-37.2c-15.2-13-33.8-21.6-52.9-27.3C542.3,398.2,524.3,396,506.5,396.8 M374.2,483.6c-3.4,1.1-5.9,4-7.7,7
	c-3.6,5.9-5.6,12.6-7.6,19.1c-3.8,12.2-6,24.9-7,37.7c-1.6,19.4-0.9,39.2,3.3,58.3c2.2,9.9,5.5,20,12.8,27.4
	c7.7,7.7,17.9,12.2,27.8,16.3c23.4,9.5,48.4,14.1,73.3,17.5c19.9,2.8,39.9,3.3,60,3c22,0.1,44-2.2,65.6-6.7
	c10.6-2.2,21.3-4.5,31.6-8.1c6.6-2.4,13.5-5.4,17.8-11.2c3.5-5.1,6.4-10.6,8.6-16.3c4.5-11.7,7.9-23.8,9.5-36.2
	c2.3-18.9,2.7-38,0.1-56.9c-1.3-9.4-2.2-18.9-4.8-28c-1.1-3.4-2.3-7.1-5.3-9.3c-2.6-1.9-6-1.5-8.9-1.1c-10.9,1.8-21.8,3-32.8,4.2
	c-16.7,1.8-33.5,2-50.3,2.4c-28.3,1-56.5-1.2-84.7-3.6c-18.4-2.1-36.7-4.9-55-8.1c-11.3-2-22.4-4.7-33.7-6.9
	C382.6,483.3,378.3,482.3,374.2,483.6z"/>
<path class="st0" d="M419,528.2c-2.4-6.1,0.8-13.7,7.1-15.8c6-2.4,13.1,1.2,15.4,7c4,9.8,7.9,19.7,11.8,29.5
	c5.2-7.7,10.3-15.5,15.5-23.2c2.4-3.8,6.7-6.6,11.3-6.3c5.7,0.1,10.8,4.8,11.4,10.5c0.5,3.5-0.9,6.9-2.8,9.7
	c-8.1,12.2-16.3,24.4-24.4,36.7c5.9,14.9,11.9,29.7,17.8,44.6c1.9,4.4,1.6,9.8-1.6,13.5c-3.3,4-9.4,5.5-14.1,3.2
	c-3.2-1.4-5.5-4.2-6.8-7.4c-3.9-9.8-7.8-19.6-11.7-29.3c-5,7.4-9.9,14.9-14.9,22.2c-2.8,4.2-8.1,7-13.2,5.6c-4.6-1-8.4-4.9-9.1-9.5
	c-0.8-3.8,0.7-7.5,2.8-10.6c7.8-11.7,15.5-23.4,23.3-35.1C431.1,558.4,424.8,543.3,419,528.2z"/>
<path class="st0" d="M585.9,532.1c4.8-3.7,12.5-1.8,15.2,3.6c3.1,5.9,5.5,12,8.5,18c2.4-5.6,4.9-11.1,7.5-16.6
	c1.7-3.9,5.5-7,9.8-6.8c4.3-0.2,8.4,2.8,9.7,6.9c1.2,3.1,0.4,6.5-1,9.4c-4.8,10.7-9.7,21.4-14.5,32.1c4.7,10.3,9.6,20.5,14.2,30.9
	c2.3,4.8,0.6,11.1-4.1,13.7c-4.9,3.1-11.7,0.8-14.3-4.2c-2.6-5-4.8-10.1-7.1-15.3c-3.6,7.8-7,15.7-10.7,23.4
	c-2.3,4.7-8.4,7.4-13.3,5.2c-5.3-2.1-7.9-8.8-5.5-13.9c5.8-13.2,11.9-26.4,17.8-39.6c-5-11.2-10.4-22.4-15.4-33.6
	C580.6,540.8,581.8,534.9,585.9,532.1z"/>
</svg>
