<svg version="1.1" xmlns="http://www.w3.org/2000/svg" xmlns:xlink="http://www.w3.org/1999/xlink" x="0px" y="0px" viewBox="0 0 1000 1000" style="enable-background:new 0 0 1000 1000;" xml:space="preserve">
<style type="text/css">
	.st0{fill:#000000;}
	.st1{fill:#FFD400;}
	.st2{fill:#E94000;}
</style>
<path class="st0" d="M551.4,304.8c-3.3-12.8-6.5-25.5-9.8-38.3c-0.5-1.4-0.7-3.3-2.3-3.7c-3.2-0.5-6.7,0.1-9.8-1.3
	c-4.3-1.5-7.5-5.8-7.4-10.4c0-6.2,3.6-11.8,8.1-15.8c1.4-1.3,3.8-2.9,2.5-5.1c-2.8-6.8-5.7-13.5-8.7-20.2c-0.8-2.1-3.3-2.2-5.2-2.7
	c-21.7-4.2-43.5-7.6-65.1-11.8c-26-5-52.2-9.3-78-15c-5.1-0.9-10.3-3.4-15.4-1.8c-3.4,1.3-6.2,3.6-9.2,5.6
	c-11.4,7.7-21.9,16.6-30.9,27c-9.9,11.4-18.7,24.1-23.5,38.5c-3.1,8.7-0.8,18,2.3,26.3c5.7,15.6,12.2,30.9,18.7,46.3
	c6.5,15.2,13.6,30.4,23.1,43.9c1.6,2.1,3.3,4.7,6.1,5.1c3.3,0.2,6.5-1.1,9.7-2c23.5-6.5,46.6-14,70.1-20.7
	c39.3-11.3,78.5-23,118-33.8c2.2-0.8,4.6-1.2,6.6-2.6C553,310.1,551.8,307.2,551.4,304.8z"/>
<path class="st1" d="M356,199.1c4.4-3,9.3-6.7,14.9-5.4c40.4,7.7,80.7,15.6,121.1,23.3c1.3,0.2,2.6,0.7,3.7,1.5
	C485,221,474,223,463,225.1c-2.9,0.9-5-1.6-6.8-3.3c-9.7-9.5-27.3-9.3-36.5,0.9c-2.7,2.7-3.4,6.6-5.4,9.7c-2.2,1.4-4.9,1.4-7.4,1.9
	c-28.7,5.1-57.4,10-86.1,15c-2.6,0.5-5.2,1-7.8,0.6c0.4-3.5,2.6-6.5,4.3-9.5C327.1,224,340.4,209.9,356,199.1z"/>
<path class="st1" d="M509.5,225.7c2.1-0.3,4.7-1.4,6.3,0.5c1.4,1.9,2.9,4.7,1.3,7c-2.9,4.8-5.9,10-5.8,15.8
	c-0.4,8.8,4.7,17.1,11.9,21.9c2.5,2,6.3,3.1,7.2,6.6c1.6,5.5,2.6,11.1,4,16.6c0.3,1.8,1.1,3.8-0.1,5.4c-1.1,1.3-2.9,1.7-4.4,2.3
	c-58,17.3-116,34.6-174,51.9c-2,0.7-4.8,0.9-6-1.4c-16.5-26-27.4-55.1-36.8-84.3c-0.4-2.1-1.9-4.5-0.6-6.6c1.5-1.4,3.6-1.5,5.5-2
	c32-5.4,64-11.2,96-16.6c3-1,4.9,1.7,6.7,3.5c10.2,10.3,29.8,9.6,38.3-2.5c2.4-2.9,2.1-8.4,6.5-9.4
	C480,231.4,494.8,228.7,509.5,225.7 M480.4,266.6c-6.5,2.1-11.4,8.5-11.1,15.4c0.3,9.8,10,17.5,19.6,16.5c9.1-0.5,17-9.4,15.1-18.6
	C502.3,269.6,490.1,262.9,480.4,266.6 M365.5,276.8c-13.6,2.8-23.6,16.5-22.7,30.2c0.5,5.7,2.7,11.4,6.6,15.6
	c5.6,6.1,14.6,9.1,22.7,7.1c8.8-1.9,16.4-8.5,19.9-16.7c4.3-9.4,3-21.2-4-28.9C382.4,277.9,373.5,274.7,365.5,276.8z"/>
<path class="st2" d="M432.4,225.4c5.3-1.8,11.5-1.2,16.1,2.2c2.9,2,4.6,5.8,3.4,9.3c-1.6,4-5.8,6.2-9.8,6.9
	c-6.3,1.1-14.6-1.1-16.9-7.8C423.7,231.1,428,226.7,432.4,225.4z"/>
<path class="st2" d="M483.5,275.7c5.2-1.9,12.3,2.3,11.1,8.3c-1.8,6.7-12.3,6.3-14.9,0.4C477.8,281.1,480,276.7,483.5,275.7z"/>
<path class="st2" d="M365.4,286.6c5.7-1.8,12.7-0.4,16.3,4.6c6.3,8.4,2.8,21.4-5.8,26.7c-6.3,4.4-16.2,3.5-20.6-3.1
	C348.4,305.1,354.3,290.1,365.4,286.6z"/>
</svg>
