<svg version="1.1" xmlns="http://www.w3.org/2000/svg" xmlns:xlink="http://www.w3.org/1999/xlink" x="0px" y="0px" viewBox="0 0 1000 1000" style="enable-background:new 0 0 1000 1000;" xml:space="preserve">
<style type="text/css">
	.st0{fill:#EDEDED;}
	.st1{fill:#000000;}
</style>
<path class="st1" d="M371.2,470.2c4.2-1,8.6-0.6,12.9,0c20.1,3.7,40,8.4,60.2,11.5c20.4,3.2,41.1,5,61.7,6.3c25.6,1.3,51.3,2.2,77,0.7
	c13.7-0.8,27.4-1.5,41-3c7.7-0.9,15.4-2.2,23-3.1c4.7-0.5,10.2-0.1,13.7,3.5c3,3.3,4.5,7.6,6,11.7c7.1,20.9,9.1,43.2,8.9,65.1
	c-0.7,26.2-4.9,52.7-16.1,76.6c-3.5,7.4-7.1,15-13.1,20.8c-6.9,6.3-16.2,8.7-24.9,11.3c-21.2,6.2-43.2,9.1-65.2,11
	c-22.8,2-45.6,1.6-68.4,0.2c-20.9-1.5-41.6-5.4-62.2-9.6c-18.8-4.2-37.8-9.1-54.8-18.6c-5.4-3-10.6-6.7-14.2-11.9
	c-5.5-7.8-7.9-17.1-10.5-26.2c-4.7-18.8-6-38.4-5.6-57.8c0.1-23.2,3.7-46.5,11.9-68.2C356.3,482.3,361.3,472.3,371.2,470.2"/>
<path class="st0" d="M374.3,483.6c4.9-1.5,10,0,14.9,0.9c20.4,4.5,40.9,8.5,61.6,11.2c23.9,3.9,48.1,5.2,72.2,6.6
	c18.6,1,37.3,0.3,55.9-0.1c21.8-0.4,43.6-3,65.1-6.3c3.5-0.6,7.8-0.1,9.9,3.1c3.9,5.9,4.7,13.2,6,19.9c2.1,14.6,4.3,29.3,3.8,44.1
	c0,18.1-1.9,36.3-7.5,53.6c-3,9.6-6.6,19.1-12.5,27.4c-2.6,3.5-6.2,6-10,7.9c-7.3,3.6-15.2,5.8-23,7.7c-22.8,5.6-46.2,9.4-69.7,10.1
	c-24.4,0.6-49,0.5-73.2-3c-23.8-3.4-47.7-7.8-70.2-16.6c-10.2-4.1-20.8-8.4-28.8-16.2c-4.8-4.7-8.1-10.8-9.8-17.2
	c-3.9-13.9-5.1-28.3-5.8-42.6c-1.2-19.8-0.5-39.9,4.6-59.2c2.2-7.8,3.8-15.9,7.9-23C367.8,488.4,370.4,484.8,374.3,483.6"/>
<path class="st1" d="M433.6,521.7c6.1-5.5,14.4-9.7,22.9-8c8.3,1.6,14.4,8.3,18.1,15.5c3.8,7.6,6,16.1,6.8,24.5c-14.2,8.4-28.4,16.7-42.5,25.1
	c-2.6,1.2-2.8,5.2-0.3,6.6c11.6,7.4,23.4,14.6,35.1,22c-4.9,12.1-11.7,24.1-22.6,31.8c-6.8,4.9-16.3,6.9-24,2.8
	c-9.9-5.1-14.9-16.1-17.5-26.4c-4.6-19.7-2.6-40.5,3.5-59.6C417.4,543.3,423.6,530.8,433.6,521.7z"/>
<path class="st1" d="M609.6,530.5c6.1-3.4,14.1-1.9,19,2.9c7.3,7.1,10.5,17.2,12.3,27c-10.7,7.2-21.4,14.2-31.9,21.5c-2.6,1.5-3.1,5.8-0.1,7.2
	c9.8,4.9,19.7,9.4,29.5,14.2c-3,9.9-7.3,19.9-15.5,26.6c-5.2,4.4-13,5.8-18.9,2.2c-8.3-4.9-12.4-14.5-14.8-23.4
	c-4.2-17.6-3.2-36.5,2.6-53.7C595.3,545.5,600.4,535.5,609.6,530.5z"/>
</svg>
