<svg version="1.1" xmlns="http://www.w3.org/2000/svg" xmlns:xlink="http://www.w3.org/1999/xlink" x="0px" y="0px" viewBox="0 0 1000 1000" style="enable-background:new 0 0 1000 1000;" xml:space="preserve">
    <path fill="#000000" stroke="#000000" stroke-width="0.09375" opacity="1.00" d=" M 371.33 470.18 C 375.51 469.20 379.86 469.57 384.07 470.16 C 403.94 473.82 423.62 478.48 443.60 481.61 C 464.22 484.92 485.06 486.65 505.89 488.05 C 528.88 489.24 551.92 490.02 574.94 489.18 C 596.00 488.05 617.15 487.18 638.02 483.89 C 644.39 483.19 651.16 481.14 657.35 483.78 C 662.16 485.91 664.21 491.17 666.04 495.73 C 673.63 516.58 675.82 538.98 675.71 561.05 C 675.22 589.36 670.50 618.16 657.69 643.66 C 654.98 649.10 652.01 654.51 647.91 659.04 C 643.71 663.61 637.98 666.36 632.22 668.42 C 608.61 676.60 583.73 680.31 558.93 682.56 C 539.01 684.39 518.96 684.52 499.00 683.54 C 475.42 682.94 452.14 678.71 429.08 674.10 C 410.58 670.08 391.95 665.53 374.98 656.91 C 369.06 653.83 363.06 650.45 358.72 645.27 C 353.96 639.72 351.29 632.79 349.10 625.91 C 343.55 609.18 341.50 591.50 340.89 573.95 C 340.32 553.32 341.29 532.50 346.18 512.38 C 348.92 501.50 351.91 490.44 357.77 480.76 C 360.78 475.73 365.40 471.31 371.33 470.18 M 371.18 485.21 C 366.62 488.86 364.34 494.51 362.24 499.79 C 380.43 512.26 398.39 525.08 416.54 537.60 C 420.79 539.37 425.59 539.39 430.06 540.45 C 453.42 544.54 476.74 548.88 500.12 552.83 C 509.64 549.72 518.87 545.69 528.29 542.24 C 568.68 526.73 609.06 511.18 649.47 495.70 C 643.06 495.43 636.83 497.23 630.48 497.82 C 609.09 500.81 587.51 502.30 565.92 502.39 C 540.53 503.51 515.14 502.10 489.84 500.15 C 470.45 498.91 451.25 495.78 432.07 492.87 C 417.14 490.53 402.40 487.18 387.61 484.12 C 382.23 483.17 375.94 481.62 371.18 485.21 M 514.71 566.70 C 512.30 584.77 502.19 601.80 487.01 612.02 C 474.59 620.49 458.75 624.36 443.94 621.10 C 430.13 618.29 417.72 609.58 410.24 597.66 C 401.32 583.75 399.07 566.10 403.21 550.19 C 387.87 539.48 372.56 528.73 357.19 518.06 C 352.76 536.72 352.27 556.06 353.47 575.13 C 354.03 586.47 355.03 597.82 357.30 608.96 C 358.70 615.51 360.38 622.19 364.13 627.84 C 368.54 634.79 375.41 639.75 382.65 643.43 C 397.36 650.74 413.04 656.03 429.05 659.68 C 450.40 664.55 472.12 667.90 493.98 669.28 C 519.81 670.33 545.83 670.56 571.51 667.15 C 588.64 664.66 605.71 661.41 622.30 656.40 C 630.16 653.75 638.67 650.82 643.91 643.99 C 646.89 639.76 649.41 635.20 651.42 630.43 C 658.33 613.81 662.42 596.04 663.35 578.06 C 665.16 555.74 662.79 533.31 658.61 511.38 C 610.66 529.86 562.66 548.23 514.71 566.70 M 432.40 567.51 C 427.68 569.15 422.74 570.18 418.18 572.23 C 414.70 573.94 414.24 579.32 417.45 581.53 C 420.05 583.56 423.44 582.35 426.23 581.44 C 430.54 579.95 435.03 578.94 439.24 577.16 C 443.22 575.49 443.53 569.12 439.53 567.28 C 437.29 565.87 434.68 566.79 432.40 567.51 M 445.36 582.14 C 438.83 584.27 432.13 586.08 425.81 588.77 C 421.28 591.05 422.70 598.75 427.85 599.11 C 433.13 598.88 437.97 596.18 443.05 594.86 C 446.55 593.52 451.64 593.04 452.70 588.71 C 453.94 584.54 449.31 580.66 445.36 582.14 Z" />
    <path fill="#ededed" stroke="#ededed" stroke-width="0.09375" opacity="1.00" d=" M 371.18 485.21 C 375.94 481.62 382.23 483.17 387.61 484.12 C 402.40 487.18 417.14 490.53 432.07 492.87 C 451.25 495.78 470.45 498.91 489.84 500.15 C 515.14 502.10 540.53 503.51 565.92 502.39 C 587.51 502.30 609.09 500.81 630.48 497.82 C 636.83 497.23 643.06 495.43 649.47 495.70 C 609.06 511.18 568.68 526.73 528.29 542.24 C 518.87 545.69 509.64 549.72 500.12 552.83 C 476.74 548.88 453.42 544.54 430.06 540.45 C 425.59 539.39 420.79 539.37 416.54 537.60 C 398.39 525.08 380.43 512.26 362.24 499.79 C 364.34 494.51 366.62 488.86 371.18 485.21 Z" />
    <path fill="#ededed" stroke="#ededed" stroke-width="0.09375" opacity="1.00" d=" M 514.71 566.70 C 562.66 548.23 610.66 529.86 658.61 511.38 C 662.79 533.31 665.16 555.74 663.35 578.06 C 662.42 596.04 658.33 613.81 651.42 630.43 C 649.41 635.20 646.89 639.76 643.91 643.99 C 638.67 650.82 630.16 653.75 622.30 656.40 C 605.71 661.41 588.64 664.66 571.51 667.15 C 545.83 670.56 519.81 670.33 493.98 669.28 C 472.12 667.90 450.40 664.55 429.05 659.68 C 413.04 656.03 397.36 650.74 382.65 643.43 C 375.41 639.75 368.54 634.79 364.13 627.84 C 360.38 622.19 358.70 615.51 357.30 608.96 C 355.03 597.82 354.03 586.47 353.47 575.13 C 352.27 556.06 352.76 536.72 357.19 518.06 C 372.56 528.73 387.87 539.48 403.21 550.19 C 399.07 566.10 401.32 583.75 410.24 597.66 C 417.72 609.58 430.13 618.29 443.94 621.10 C 458.75 624.36 474.59 620.49 487.01 612.02 C 502.19 601.80 512.30 584.77 514.71 566.70 M 564.96 569.15 C 562.44 569.54 559.54 570.44 558.43 572.98 C 556.71 575.94 558.72 580.02 561.92 580.90 C 564.02 581.67 566.25 580.80 568.38 580.56 C 570.84 587.94 574.95 594.92 581.01 599.92 C 588.08 605.86 597.90 608.95 607.02 606.73 C 616.15 604.77 623.83 598.17 628.12 590.01 C 631.70 583.49 633.04 576.01 633.16 568.65 C 636.33 568.14 640.29 566.67 640.64 562.95 C 641.37 558.78 636.89 555.53 633.03 556.57 C 610.33 560.72 587.65 564.98 564.96 569.15 Z" />
    <path fill="#000000" stroke="#000000" stroke-width="0.09375" opacity="1.00" d=" M 564.96 569.15 C 587.65 564.98 610.33 560.72 633.03 556.57 C 636.89 555.53 641.37 558.78 640.64 562.95 C 640.29 566.67 636.33 568.14 633.16 568.65 C 633.04 576.01 631.70 583.49 628.12 590.01 C 623.83 598.17 616.15 604.77 607.02 606.73 C 597.90 608.95 588.08 605.86 581.01 599.92 C 574.95 594.92 570.84 587.94 568.38 580.56 C 566.25 580.80 564.02 581.67 561.92 580.90 C 558.72 580.02 556.71 575.94 558.43 572.98 C 559.54 570.44 562.44 569.54 564.96 569.15 M 580.19 578.42 C 582.83 585.23 587.63 591.70 594.68 594.34 C 600.52 596.69 607.50 595.35 612.20 591.20 C 618.08 586.26 620.72 578.51 621.17 571.02 C 607.44 573.02 593.83 575.90 580.19 578.42 Z" />
    <path fill="#ededed" stroke="#ededed" stroke-width="0.09375" opacity="1.00" d=" M 432.40 567.51 C 434.68 566.79 437.29 565.87 439.53 567.28 C 443.53 569.12 443.22 575.49 439.24 577.16 C 435.03 578.94 430.54 579.95 426.23 581.44 C 423.44 582.35 420.05 583.56 417.45 581.53 C 414.24 579.32 414.70 573.94 418.18 572.23 C 422.74 570.18 427.68 569.15 432.40 567.51 Z" />
    <path fill="#ededed" stroke="#ededed" stroke-width="0.09375" opacity="1.00" d=" M 580.19 578.42 C 593.83 575.90 607.44 573.02 621.17 571.02 C 620.72 578.51 618.08 586.26 612.20 591.20 C 607.50 595.35 600.52 596.69 594.68 594.34 C 587.63 591.70 582.83 585.23 580.19 578.42 Z" />
    <path fill="#ededed" stroke="#ededed" stroke-width="0.09375" opacity="1.00" d=" M 445.36 582.14 C 449.31 580.66 453.94 584.54 452.70 588.71 C 451.64 593.04 446.55 593.52 443.05 594.86 C 437.97 596.18 433.13 598.88 427.85 599.11 C 422.70 598.75 421.28 591.05 425.81 588.77 C 432.13 586.08 438.83 584.27 445.36 582.14 Z" />
</svg>