<svg version="1.1" xmlns="http://www.w3.org/2000/svg" xmlns:xlink="http://www.w3.org/1999/xlink" x="0px" y="0px" viewBox="0 0 1000 1000" style="enable-background:new 0 0 1000 1000;" xml:space="preserve">
<path fill="#ededed" stroke="#ededed" stroke-width="0.09375" opacity="1.00" d=" M 450.44 281.80 C 471.17 279.21 492.29 280.47 512.76 284.50 C 550.05 292.07 586.91 303.73 619.84 323.13 C 643.55 337.15 666.90 353.00 684.33 374.65 C 694.47 387.29 702.46 401.58 708.52 416.59 C 715.78 434.69 719.68 453.94 722.34 473.20 C 726.03 497.61 726.52 522.41 724.92 547.02 C 723.39 572.54 719.86 597.99 713.56 622.78 C 706.21 651.60 695.06 680.42 674.80 702.73 C 654.16 726.32 625.71 741.75 595.98 750.69 C 574.24 757.43 551.56 760.14 529.06 762.95 C 508.47 765.17 487.72 766.53 467.02 765.19 C 442.31 763.71 417.69 760.23 393.67 754.20 C 375.24 749.48 357.09 742.99 340.81 733.03 C 314.13 716.35 291.12 692.81 277.86 664.03 C 263.40 633.55 258.24 599.54 257.97 566.04 C 258.04 525.26 263.25 484.15 276.53 445.46 C 281.96 429.32 288.49 413.51 296.61 398.53 C 312.17 369.87 332.00 343.10 357.44 322.45 C 384.13 301.09 416.42 286.23 450.44 281.80 M 449.55 301.77 C 430.91 303.75 412.69 309.29 396.09 318.00 C 371.10 330.60 349.74 349.82 333.58 372.58 C 312.61 402.10 297.76 435.76 288.68 470.76 C 278.48 508.54 274.38 548.05 277.44 587.08 C 279.25 610.05 284.98 632.72 294.36 653.77 C 306.35 681.95 328.91 705.14 356.27 718.75 C 369.12 725.20 382.64 730.27 396.41 734.41 C 419.26 741.12 442.78 745.75 466.58 747.29 C 506.03 749.81 546.09 745.79 583.93 734.12 C 600.68 728.85 617.19 722.40 632.15 713.11 C 661.24 695.58 682.60 666.24 691.80 633.69 C 698.00 613.64 701.25 592.83 703.80 572.05 C 708.38 534.72 707.36 496.76 701.20 459.67 C 697.67 438.82 690.59 418.48 679.71 400.31 C 665.27 375.98 642.71 357.63 618.68 343.28 C 601.34 333.22 583.36 324.09 564.43 317.41 C 527.56 305.39 488.43 297.49 449.55 301.77 Z" />
<path fill="#000000" stroke="#000000" stroke-width="0.09375" opacity="1.00" d=" M 449.55 301.77 C 488.43 297.49 527.56 305.39 564.43 317.41 C 583.36 324.09 601.34 333.22 618.68 343.28 C 642.71 357.63 665.27 375.98 679.71 400.31 C 690.59 418.48 697.67 438.82 701.20 459.67 C 707.36 496.76 708.38 534.72 703.80 572.05 C 701.25 592.83 698.00 613.64 691.80 633.69 C 682.60 666.24 661.24 695.58 632.15 713.11 C 617.19 722.40 600.68 728.85 583.93 734.12 C 546.09 745.79 506.03 749.81 466.58 747.29 C 442.78 745.75 419.26 741.12 396.41 734.41 C 382.64 730.27 369.12 725.20 356.27 718.75 C 328.91 705.14 306.35 681.95 294.36 653.77 C 284.98 632.72 279.25 610.05 277.44 587.08 C 274.38 548.05 278.48 508.54 288.68 470.76 C 297.76 435.76 312.61 402.10 333.58 372.58 C 349.74 349.82 371.10 330.60 396.09 318.00 C 412.69 309.29 430.91 303.75 449.55 301.77 Z" />
</svg>
