<svg version="1.1" xmlns="http://www.w3.org/2000/svg" xmlns:xlink="http://www.w3.org/1999/xlink" x="0px" y="0px" viewBox="0 0 1000 1000" style="enable-background:new 0 0 1000 1000;" xml:space="preserve"><rect width="100%" height="100%" fill="#ff5400"/>
<path fill="#ededed" stroke="#ededed" stroke-width="0.09375" opacity="1.00" d=" M 519.04 711.21 C 543.69 709.33 568.66 710.26 592.91 715.29 C 623.74 722.12 653.30 737.82 673.78 762.21 C 690.92 782.35 701.22 807.42 707.02 833.02 C 713.59 861.81 715.31 891.39 717.08 920.79 C 718.57 947.16 719.08 973.59 718.70 1000.00 L 699.59 1000.00 C 699.61 979.37 698.98 958.75 698.34 938.14 C 697.04 909.32 695.77 880.40 690.97 851.91 C 686.54 825.17 677.87 798.46 661.26 776.70 C 649.02 760.83 632.39 748.35 613.66 741.18 C 588.03 731.36 560.11 730.45 532.99 731.10 C 491.46 732.83 450.09 737.69 409.08 744.39 C 389.86 747.66 370.54 750.98 351.98 757.06 C 336.98 762.04 322.41 768.96 310.29 779.24 C 295.69 791.30 284.78 807.41 277.59 824.85 C 271.06 841.23 267.47 858.63 265.10 876.05 C 260.22 910.84 260.77 946.04 261.04 981.07 C 261.52 987.37 261.40 993.70 262.05 1000.00 L 238.71 1000.00 C 239.03 979.97 240.26 959.97 240.80 939.95 C 242.27 899.26 243.27 857.66 256.63 818.77 C 262.64 801.35 271.11 784.41 283.84 770.90 C 294.73 759.28 308.66 750.79 323.56 745.35 C 343.40 738.07 364.02 733.20 384.67 728.85 C 429.01 720.05 473.98 714.65 519.04 711.21 Z" />
<path fill="#000000" stroke="#000000" stroke-width="0.09375" opacity="1.00" d=" M 409.08 744.39 C 450.09 737.69 491.46 732.83 532.99 731.10 C 560.11 730.45 588.03 731.36 613.66 741.18 C 632.39 748.35 649.02 760.83 661.26 776.70 C 677.87 798.46 686.54 825.17 690.97 851.91 C 695.77 880.40 697.04 909.32 698.34 938.14 C 698.98 958.75 699.61 979.37 699.59 1000.00 L 634.80 1000.00 C 634.48 969.36 635.66 938.37 629.50 908.17 C 625.04 887.61 616.32 866.89 599.94 853.00 C 596.67 850.09 590.61 851.61 589.63 856.04 C 588.70 859.92 591.60 863.28 593.83 866.13 C 601.86 875.57 607.89 886.62 611.80 898.37 C 617.62 915.31 619.15 933.31 620.24 951.08 C 620.92 967.37 621.46 983.68 621.35 1000.00 L 374.68 1000.00 C 374.64 984.00 374.00 968.01 374.17 952.01 C 374.23 933.09 374.37 913.67 380.87 895.65 C 384.03 886.92 388.59 878.68 394.44 871.46 C 396.80 868.37 399.62 865.51 401.14 861.88 C 402.38 858.92 400.67 855.13 397.63 854.14 C 395.30 853.13 392.69 854.21 390.96 855.86 C 376.87 869.12 367.59 887.12 363.90 906.04 C 361.26 919.52 360.62 933.30 360.43 947.01 C 360.31 964.67 360.61 982.35 361.36 1000.00 L 262.05 1000.00 C 261.40 993.70 261.52 987.37 261.04 981.07 C 260.77 946.04 260.22 910.84 265.10 876.05 C 267.47 858.63 271.06 841.23 277.59 824.85 C 284.78 807.41 295.69 791.30 310.29 779.24 C 322.41 768.96 336.98 762.04 351.98 757.06 C 370.54 750.98 389.86 747.66 409.08 744.39 Z" />
<path fill="#ededed" stroke="#ededed" stroke-width="0.09375" opacity="1.00" d=" M 589.63 856.04 C 590.61 851.61 596.67 850.09 599.94 853.00 C 616.32 866.89 625.04 887.61 629.50 908.17 C 635.66 938.37 634.48 969.36 634.80 1000.00 L 621.35 1000.00 C 621.46 983.68 620.92 967.37 620.24 951.08 C 619.15 933.31 617.62 915.31 611.80 898.37 C 607.89 886.62 601.86 875.57 593.83 866.13 C 591.60 863.28 588.70 859.92 589.63 856.04 Z" />
<path fill="#ededed" stroke="#ededed" stroke-width="0.09375" opacity="1.00" d=" M 390.96 855.86 C 392.69 854.21 395.30 853.13 397.63 854.14 C 400.67 855.13 402.38 858.92 401.14 861.88 C 399.62 865.51 396.80 868.37 394.44 871.46 C 388.59 878.68 384.03 886.92 380.87 895.65 C 374.37 913.67 374.23 933.09 374.17 952.01 C 374.00 968.01 374.64 984.00 374.68 1000.00 L 361.36 1000.00 C 360.61 982.35 360.31 964.67 360.43 947.01 C 360.62 933.30 361.26 919.52 363.90 906.04 C 367.59 887.12 376.87 869.12 390.96 855.86 Z" />

<path fill="#ededed" stroke="#ededed" stroke-width="0.09375" opacity="1.00" d=" M 450.44 281.80 C 471.17 279.21 492.29 280.47 512.76 284.50 C 550.05 292.07 586.91 303.73 619.84 323.13 C 643.55 337.15 666.90 353.00 684.33 374.65 C 694.47 387.29 702.46 401.58 708.52 416.59 C 715.78 434.69 719.68 453.94 722.34 473.20 C 726.03 497.61 726.52 522.41 724.92 547.02 C 723.39 572.54 719.86 597.99 713.56 622.78 C 706.21 651.60 695.06 680.42 674.80 702.73 C 654.16 726.32 625.71 741.75 595.98 750.69 C 574.24 757.43 551.56 760.14 529.06 762.95 C 508.47 765.17 487.72 766.53 467.02 765.19 C 442.31 763.71 417.69 760.23 393.67 754.20 C 375.24 749.48 357.09 742.99 340.81 733.03 C 314.13 716.35 291.12 692.81 277.86 664.03 C 263.40 633.55 258.24 599.54 257.97 566.04 C 258.04 525.26 263.25 484.15 276.53 445.46 C 281.96 429.32 288.49 413.51 296.61 398.53 C 312.17 369.87 332.00 343.10 357.44 322.45 C 384.13 301.09 416.42 286.23 450.44 281.80 M 449.55 301.77 C 430.91 303.75 412.69 309.29 396.09 318.00 C 371.10 330.60 349.74 349.82 333.58 372.58 C 312.61 402.10 297.76 435.76 288.68 470.76 C 278.48 508.54 274.38 548.05 277.44 587.08 C 279.25 610.05 284.98 632.72 294.36 653.77 C 306.35 681.95 328.91 705.14 356.27 718.75 C 369.12 725.20 382.64 730.27 396.41 734.41 C 419.26 741.12 442.78 745.75 466.58 747.29 C 506.03 749.81 546.09 745.79 583.93 734.12 C 600.68 728.85 617.19 722.40 632.15 713.11 C 661.24 695.58 682.60 666.24 691.80 633.69 C 698.00 613.64 701.25 592.83 703.80 572.05 C 708.38 534.72 707.36 496.76 701.20 459.67 C 697.67 438.82 690.59 418.48 679.71 400.31 C 665.27 375.98 642.71 357.63 618.68 343.28 C 601.34 333.22 583.36 324.09 564.43 317.41 C 527.56 305.39 488.43 297.49 449.55 301.77 Z" />
<path fill="#000000" stroke="#000000" stroke-width="0.09375" opacity="1.00" d=" M 449.55 301.77 C 488.43 297.49 527.56 305.39 564.43 317.41 C 583.36 324.09 601.34 333.22 618.68 343.28 C 642.71 357.63 665.27 375.98 679.71 400.31 C 690.59 418.48 697.67 438.82 701.20 459.67 C 707.36 496.76 708.38 534.72 703.80 572.05 C 701.25 592.83 698.00 613.64 691.80 633.69 C 682.60 666.24 661.24 695.58 632.15 713.11 C 617.19 722.40 600.68 728.85 583.93 734.12 C 546.09 745.79 506.03 749.81 466.58 747.29 C 442.78 745.75 419.26 741.12 396.41 734.41 C 382.64 730.27 369.12 725.20 356.27 718.75 C 328.91 705.14 306.35 681.95 294.36 653.77 C 284.98 632.72 279.25 610.05 277.44 587.08 C 274.38 548.05 278.48 508.54 288.68 470.76 C 297.76 435.76 312.61 402.10 333.58 372.58 C 349.74 349.82 371.10 330.60 396.09 318.00 C 412.69 309.29 430.91 303.75 449.55 301.77 Z" />

    <path fill="#000000" stroke="#000000" stroke-width="0.09375" opacity="1.00" d=" M 371.33 470.18 C 375.51 469.20 379.86 469.57 384.07 470.16 C 403.94 473.82 423.62 478.48 443.60 481.61 C 464.22 484.92 485.06 486.65 505.89 488.05 C 528.88 489.24 551.92 490.02 574.94 489.18 C 596.00 488.05 617.15 487.18 638.02 483.89 C 644.39 483.19 651.16 481.14 657.35 483.78 C 662.16 485.91 664.21 491.17 666.04 495.73 C 673.63 516.58 675.82 538.98 675.71 561.05 C 675.22 589.36 670.50 618.16 657.69 643.66 C 654.98 649.10 652.01 654.51 647.91 659.04 C 643.71 663.61 637.98 666.36 632.22 668.42 C 608.61 676.60 583.73 680.31 558.93 682.56 C 539.01 684.39 518.96 684.52 499.00 683.54 C 475.42 682.94 452.14 678.71 429.08 674.10 C 410.58 670.08 391.95 665.53 374.98 656.91 C 369.06 653.83 363.06 650.45 358.72 645.27 C 353.96 639.72 351.29 632.79 349.10 625.91 C 343.55 609.18 341.50 591.50 340.89 573.95 C 340.32 553.32 341.29 532.50 346.18 512.38 C 348.92 501.50 351.91 490.44 357.77 480.76 C 360.78 475.73 365.40 471.31 371.33 470.18 M 371.18 485.21 C 366.62 488.86 364.34 494.51 362.24 499.79 C 380.43 512.26 398.39 525.08 416.54 537.60 C 420.79 539.37 425.59 539.39 430.06 540.45 C 453.42 544.54 476.74 548.88 500.12 552.83 C 509.64 549.72 518.87 545.69 528.29 542.24 C 568.68 526.73 609.06 511.18 649.47 495.70 C 643.06 495.43 636.83 497.23 630.48 497.82 C 609.09 500.81 587.51 502.30 565.92 502.39 C 540.53 503.51 515.14 502.10 489.84 500.15 C 470.45 498.91 451.25 495.78 432.07 492.87 C 417.14 490.53 402.40 487.18 387.61 484.12 C 382.23 483.17 375.94 481.62 371.18 485.21 M 514.71 566.70 C 512.30 584.77 502.19 601.80 487.01 612.02 C 474.59 620.49 458.75 624.36 443.94 621.10 C 430.13 618.29 417.72 609.58 410.24 597.66 C 401.32 583.75 399.07 566.10 403.21 550.19 C 387.87 539.48 372.56 528.73 357.19 518.06 C 352.76 536.72 352.27 556.06 353.47 575.13 C 354.03 586.47 355.03 597.82 357.30 608.96 C 358.70 615.51 360.38 622.19 364.13 627.84 C 368.54 634.79 375.41 639.75 382.65 643.43 C 397.36 650.74 413.04 656.03 429.05 659.68 C 450.40 664.55 472.12 667.90 493.98 669.28 C 519.81 670.33 545.83 670.56 571.51 667.15 C 588.64 664.66 605.71 661.41 622.30 656.40 C 630.16 653.75 638.67 650.82 643.91 643.99 C 646.89 639.76 649.41 635.20 651.42 630.43 C 658.33 613.81 662.42 596.04 663.35 578.06 C 665.16 555.74 662.79 533.31 658.61 511.38 C 610.66 529.86 562.66 548.23 514.71 566.70 M 432.40 567.51 C 427.68 569.15 422.74 570.18 418.18 572.23 C 414.70 573.94 414.24 579.32 417.45 581.53 C 420.05 583.56 423.44 582.35 426.23 581.44 C 430.54 579.95 435.03 578.94 439.24 577.16 C 443.22 575.49 443.53 569.12 439.53 567.28 C 437.29 565.87 434.68 566.79 432.40 567.51 M 445.36 582.14 C 438.83 584.27 432.13 586.08 425.81 588.77 C 421.28 591.05 422.70 598.75 427.85 599.11 C 433.13 598.88 437.97 596.18 443.05 594.86 C 446.55 593.52 451.64 593.04 452.70 588.71 C 453.94 584.54 449.31 580.66 445.36 582.14 Z" />
    <path fill="#ededed" stroke="#ededed" stroke-width="0.09375" opacity="1.00" d=" M 371.18 485.21 C 375.94 481.62 382.23 483.17 387.61 484.12 C 402.40 487.18 417.14 490.53 432.07 492.87 C 451.25 495.78 470.45 498.91 489.84 500.15 C 515.14 502.10 540.53 503.51 565.92 502.39 C 587.51 502.30 609.09 500.81 630.48 497.82 C 636.83 497.23 643.06 495.43 649.47 495.70 C 609.06 511.18 568.68 526.73 528.29 542.24 C 518.87 545.69 509.64 549.72 500.12 552.83 C 476.74 548.88 453.42 544.54 430.06 540.45 C 425.59 539.39 420.79 539.37 416.54 537.60 C 398.39 525.08 380.43 512.26 362.24 499.79 C 364.34 494.51 366.62 488.86 371.18 485.21 Z" />
    <path fill="#ededed" stroke="#ededed" stroke-width="0.09375" opacity="1.00" d=" M 514.71 566.70 C 562.66 548.23 610.66 529.86 658.61 511.38 C 662.79 533.31 665.16 555.74 663.35 578.06 C 662.42 596.04 658.33 613.81 651.42 630.43 C 649.41 635.20 646.89 639.76 643.91 643.99 C 638.67 650.82 630.16 653.75 622.30 656.40 C 605.71 661.41 588.64 664.66 571.51 667.15 C 545.83 670.56 519.81 670.33 493.98 669.28 C 472.12 667.90 450.40 664.55 429.05 659.68 C 413.04 656.03 397.36 650.74 382.65 643.43 C 375.41 639.75 368.54 634.79 364.13 627.84 C 360.38 622.19 358.70 615.51 357.30 608.96 C 355.03 597.82 354.03 586.47 353.47 575.13 C 352.27 556.06 352.76 536.72 357.19 518.06 C 372.56 528.73 387.87 539.48 403.21 550.19 C 399.07 566.10 401.32 583.75 410.24 597.66 C 417.72 609.58 430.13 618.29 443.94 621.10 C 458.75 624.36 474.59 620.49 487.01 612.02 C 502.19 601.80 512.30 584.77 514.71 566.70 M 564.96 569.15 C 562.44 569.54 559.54 570.44 558.43 572.98 C 556.71 575.94 558.72 580.02 561.92 580.90 C 564.02 581.67 566.25 580.80 568.38 580.56 C 570.84 587.94 574.95 594.92 581.01 599.92 C 588.08 605.86 597.90 608.95 607.02 606.73 C 616.15 604.77 623.83 598.17 628.12 590.01 C 631.70 583.49 633.04 576.01 633.16 568.65 C 636.33 568.14 640.29 566.67 640.64 562.95 C 641.37 558.78 636.89 555.53 633.03 556.57 C 610.33 560.72 587.65 564.98 564.96 569.15 Z" />
    <path fill="#000000" stroke="#000000" stroke-width="0.09375" opacity="1.00" d=" M 564.96 569.15 C 587.65 564.98 610.33 560.72 633.03 556.57 C 636.89 555.53 641.37 558.78 640.64 562.95 C 640.29 566.67 636.33 568.14 633.16 568.65 C 633.04 576.01 631.70 583.49 628.12 590.01 C 623.83 598.17 616.15 604.77 607.02 606.73 C 597.90 608.95 588.08 605.86 581.01 599.92 C 574.95 594.92 570.84 587.94 568.38 580.56 C 566.25 580.80 564.02 581.67 561.92 580.90 C 558.72 580.02 556.71 575.94 558.43 572.98 C 559.54 570.44 562.44 569.54 564.96 569.15 M 580.19 578.42 C 582.83 585.23 587.63 591.70 594.68 594.34 C 600.52 596.69 607.50 595.35 612.20 591.20 C 618.08 586.26 620.72 578.51 621.17 571.02 C 607.44 573.02 593.83 575.90 580.19 578.42 Z" />
    <path fill="#ededed" stroke="#ededed" stroke-width="0.09375" opacity="1.00" d=" M 432.40 567.51 C 434.68 566.79 437.29 565.87 439.53 567.28 C 443.53 569.12 443.22 575.49 439.24 577.16 C 435.03 578.94 430.54 579.95 426.23 581.44 C 423.44 582.35 420.05 583.56 417.45 581.53 C 414.24 579.32 414.70 573.94 418.18 572.23 C 422.74 570.18 427.68 569.15 432.40 567.51 Z" />
    <path fill="#ededed" stroke="#ededed" stroke-width="0.09375" opacity="1.00" d=" M 580.19 578.42 C 593.83 575.90 607.44 573.02 621.17 571.02 C 620.72 578.51 618.08 586.26 612.20 591.20 C 607.50 595.35 600.52 596.69 594.68 594.34 C 587.63 591.70 582.83 585.23 580.19 578.42 Z" />
    <path fill="#ededed" stroke="#ededed" stroke-width="0.09375" opacity="1.00" d=" M 445.36 582.14 C 449.31 580.66 453.94 584.54 452.70 588.71 C 451.64 593.04 446.55 593.52 443.05 594.86 C 437.97 596.18 433.13 598.88 427.85 599.11 C 422.70 598.75 421.28 591.05 425.81 588.77 C 432.13 586.08 438.83 584.27 445.36 582.14 Z" />

<style type="text/css">
	.st0{fill:#000000;}
	.st1{fill:#EDEDED;}
</style>
<path class="st0" d="M612.6,160c-2.6-13.8-11.5-25.8-22.7-33.8c-14.5-10.4-32.2-15.8-49.9-17.5c-15.8-18.7-37.8-32.4-62-37
	c-21.5-4.2-44.2-0.9-63.9,8.4c-26.4,12.3-47.4,34.7-60,60.8c-22.5-0.6-45.2,2.8-66.3,11c-13.8,5.4-26.9,12.9-37.5,23.3
	c-8.4,8.3-15.1,18.9-16.6,30.8c-1.6,11.2,2.8,22.5,10.1,30.9c-10.6,3.7-20.8,9-29.3,16.5c-9.1,7.9-16.4,18.5-18.2,30.6
	c-1.8,11.1,1.8,22.5,8.6,31.3c8.6,11.1,21.2,18.3,34.4,22.5c21.5,6.8,45,6.5,66.5,0c2.6-1,6.1-1.1,7.7,1.6
	c3.8,6.5,6.4,13.6,10.1,20.2c1.2,2.3,4.1,2.4,6.4,2.6c40.5,2.7,81-4.7,119.9-15.4c37.2-10.5,73.2-24.7,107.4-42.6
	c2.7-1.3,5.8-3.7,4.8-7.1c-4.3-13.5-9.7-26.7-13.9-40.2c-1.2-3.3-1.3-7.5,1.8-9.9c6.4-5.2,14.1-8.5,20.9-13.1
	c14.1-9.2,26.9-21.2,35-36.1C612.1,186.4,615.3,172.9,612.6,160z"/>
<path class="st1" d="M402.9,102.9c20.5-14.2,46.5-20.3,71.1-16.6c22.4,3.2,43.8,14.8,57.7,32.7c1.8,2.4,4,4.9,7.2,5.1
	c13.7,0.6,27.5,3.4,39.4,10.4c8.5,5,15.9,12.5,19.1,21.9c3.4,10.2,1.7,21.5-3,31c-6.4,12.9-17,23.2-28.7,31.3
	c-6.1,4.1-12.4,7.9-19.3,10.6c-3.1,1.1-6.6,2.3-9.8,0.9c-2.3-1.7-3.9-4.2-6.2-5.9c-3.6-2.8-8.5-3.3-11.9-6.4c1.9-4,5.8-6.6,8.8-9.7
	c11.3-11.5,20.6-25.6,24.1-41.6c0.7-2.6,0.6-6-2-7.5c-3-2.1-7.1,0.4-7.4,3.8c-2.9,15.2-11.8,28.6-22.8,39.1
	c-5.9,5.6-12.5,11.2-20.6,13.2c-6.2,1.5-12.7,1.9-18.9,0.8c-2.3-0.5-5-1.3-5.9-3.7c-1.7-5-1.7-10.3-3.1-15.3
	c-5-20-17.7-37.4-33.3-50.5c-2.6-2.5-7.7-1.1-8.1,2.7c-0.7,3.8,3.1,5.9,5.4,8.2c12.3,11.6,22.5,26.5,25.2,43.4
	c0.9,5.7,0.8,12.9-4.3,16.7c-4.9,2.9-10.9,3.1-16.4,4.2c-5.2,0.7-10.6,2.8-15.9,1.1c-8.4-2.6-15.3-8.3-23.4-11.6
	c-15.5-6.4-32.6-7.4-49.1-5.9c-13.1,1.2-26.1,4-38.8,7.9c-2.6,0.6-5.2,3-4.6,6c0.4,3.3,4.3,4.8,7.2,3.6c17.6-5.2,36-8.7,54.5-7.9
	c7.1,0.6,14.8,0.9,20.9,4.9c2.7,1.8,5.3,4.7,5,8.2c-1,3.8-5.2,5.1-8.3,6.6c-28.1,11.4-55.2,26.8-76.6,48.6
	c-4.6,4.9-9.5,10.7-9.1,17.8c-0.1,4.4,2.5,8.1,3.5,12.2c0.6,2.3-1.2,4.2-2.9,5.4c-8.1,5.8-18.2,7.4-27.9,8.4
	c-16.1,1.2-33.1-1.3-47.1-9.8c-8.1-5-15.4-12.6-17.3-22.2c-2-9.2,1.8-18.8,8-25.5c9.5-10.4,23-16.9,37-18.3c3.4-0.5,7-0.3,10.3-1.3
	c1.7-0.6,3.6-2,3.5-4c0.1-3.2-2.6-5.4-4.6-7.5c-7.7-7.7-13.1-18.3-12.4-29.5c0.5-12.7,8.6-23.8,18.3-31.4
	c15.9-12.4,35.9-18.4,55.7-20.7c11.6-1.4,23.2-1.2,34.8,0c2.9,0.5,5.9-1.3,6.5-4.2C372.4,132.4,385.7,114.8,402.9,102.9z"/>
<path class="st1" d="M457.4,231.8c15.2-1.3,30.5-0.5,45.5,1.8c6,1,12.3,1.7,17.5,5.1c5.1,3.5,6.7,9.9,8.2,15.6
	c0.8,3.4,1.7,7.6-1,10.5c-2.7,2.9-6.4,4.5-9.9,6.1c-11.9,5.1-24.4,8.7-36.9,11.9c-1.7,0.5-4.2,1.1-4.3,3.3c-0.6,2.3,2.4,4,4.4,3.2
	c14.4-3.3,28.3-8.4,42.5-12c3.7-0.8,8.2-1.9,11.3,1c2.8,2.9,4.4,6.9,5.4,10.8c0.7,2.8,0.6,6.4-2,8.1c-6.6,5.2-14.5,8.3-22.1,11.8
	c-34.2,15.1-70.3,26-107.1,32.6c-20.1,3.6-40.6,5.6-61,6c-4.8,0.1-10.7-0.5-13.4-5.1c-5.1-8.9-9.5-18.1-13.6-27.4
	c-2-4.8-4.2-9.8-4.6-15.1c0.1-4.8,4.2-8.1,7.3-11.3c20-18.1,43.2-32.9,68.4-42.7C413,238,435.1,233.4,457.4,231.8 M347.1,299.1
	c-3.4,8-7,15.8-10.4,23.8c-0.7,1.4-0.2,2.9,0,4.4c2.1,1.3,5.1,1.1,6-1.5c4-8.7,7.9-17.5,11.6-26.4c1.1-2.2-0.7-5.3-3.3-5
	C348.8,294.8,348,297.2,347.1,299.1 M360.5,313.4c-2,0.6-2.5,3-3.4,4.6c-1.9,5.1-4.4,9.9-6,15.1c-0.9,3.6,4.6,5.3,6.2,2.2
	c2.6-5.5,4.8-11.2,7.1-16.9C365.9,315.9,363.4,312.4,360.5,313.4z"/>
</svg>
